G75*
%MOIN*%
%OFA0B0*%
%FSLAX25Y25*%
%IPPOS*%
%LPD*%
%AMOC8*
5,1,8,0,0,1.08239X$1,22.5*
%
%ADD10C,0.00000*%
%ADD11R,0.04724X0.03150*%
%ADD12R,0.03937X0.04331*%
%ADD13R,0.03150X0.04724*%
%ADD14C,0.07400*%
%ADD15R,0.05787X0.05000*%
%ADD16R,0.08661X0.02362*%
%ADD17C,0.06000*%
%ADD18R,0.08268X0.08268*%
%ADD19R,0.06300X0.06300*%
%ADD20R,0.04724X0.04724*%
%ADD21R,0.05906X0.06299*%
%ADD22C,0.01600*%
%ADD23C,0.02578*%
%ADD24C,0.01200*%
D10*
X0001800Y0001800D02*
X0001800Y0316761D01*
X0395501Y0316761D01*
X0395501Y0001800D01*
X0001800Y0001800D01*
X0372942Y0041800D02*
X0372944Y0041993D01*
X0372951Y0042186D01*
X0372963Y0042379D01*
X0372980Y0042572D01*
X0373001Y0042764D01*
X0373027Y0042955D01*
X0373058Y0043146D01*
X0373093Y0043336D01*
X0373133Y0043525D01*
X0373178Y0043713D01*
X0373227Y0043900D01*
X0373281Y0044086D01*
X0373339Y0044270D01*
X0373402Y0044453D01*
X0373470Y0044634D01*
X0373541Y0044813D01*
X0373618Y0044991D01*
X0373698Y0045167D01*
X0373783Y0045340D01*
X0373872Y0045512D01*
X0373965Y0045681D01*
X0374062Y0045848D01*
X0374164Y0046013D01*
X0374269Y0046175D01*
X0374378Y0046334D01*
X0374492Y0046491D01*
X0374609Y0046644D01*
X0374729Y0046795D01*
X0374854Y0046943D01*
X0374982Y0047088D01*
X0375113Y0047229D01*
X0375248Y0047368D01*
X0375387Y0047503D01*
X0375528Y0047634D01*
X0375673Y0047762D01*
X0375821Y0047887D01*
X0375972Y0048007D01*
X0376125Y0048124D01*
X0376282Y0048238D01*
X0376441Y0048347D01*
X0376603Y0048452D01*
X0376768Y0048554D01*
X0376935Y0048651D01*
X0377104Y0048744D01*
X0377276Y0048833D01*
X0377449Y0048918D01*
X0377625Y0048998D01*
X0377803Y0049075D01*
X0377982Y0049146D01*
X0378163Y0049214D01*
X0378346Y0049277D01*
X0378530Y0049335D01*
X0378716Y0049389D01*
X0378903Y0049438D01*
X0379091Y0049483D01*
X0379280Y0049523D01*
X0379470Y0049558D01*
X0379661Y0049589D01*
X0379852Y0049615D01*
X0380044Y0049636D01*
X0380237Y0049653D01*
X0380430Y0049665D01*
X0380623Y0049672D01*
X0380816Y0049674D01*
X0381009Y0049672D01*
X0381202Y0049665D01*
X0381395Y0049653D01*
X0381588Y0049636D01*
X0381780Y0049615D01*
X0381971Y0049589D01*
X0382162Y0049558D01*
X0382352Y0049523D01*
X0382541Y0049483D01*
X0382729Y0049438D01*
X0382916Y0049389D01*
X0383102Y0049335D01*
X0383286Y0049277D01*
X0383469Y0049214D01*
X0383650Y0049146D01*
X0383829Y0049075D01*
X0384007Y0048998D01*
X0384183Y0048918D01*
X0384356Y0048833D01*
X0384528Y0048744D01*
X0384697Y0048651D01*
X0384864Y0048554D01*
X0385029Y0048452D01*
X0385191Y0048347D01*
X0385350Y0048238D01*
X0385507Y0048124D01*
X0385660Y0048007D01*
X0385811Y0047887D01*
X0385959Y0047762D01*
X0386104Y0047634D01*
X0386245Y0047503D01*
X0386384Y0047368D01*
X0386519Y0047229D01*
X0386650Y0047088D01*
X0386778Y0046943D01*
X0386903Y0046795D01*
X0387023Y0046644D01*
X0387140Y0046491D01*
X0387254Y0046334D01*
X0387363Y0046175D01*
X0387468Y0046013D01*
X0387570Y0045848D01*
X0387667Y0045681D01*
X0387760Y0045512D01*
X0387849Y0045340D01*
X0387934Y0045167D01*
X0388014Y0044991D01*
X0388091Y0044813D01*
X0388162Y0044634D01*
X0388230Y0044453D01*
X0388293Y0044270D01*
X0388351Y0044086D01*
X0388405Y0043900D01*
X0388454Y0043713D01*
X0388499Y0043525D01*
X0388539Y0043336D01*
X0388574Y0043146D01*
X0388605Y0042955D01*
X0388631Y0042764D01*
X0388652Y0042572D01*
X0388669Y0042379D01*
X0388681Y0042186D01*
X0388688Y0041993D01*
X0388690Y0041800D01*
X0388688Y0041607D01*
X0388681Y0041414D01*
X0388669Y0041221D01*
X0388652Y0041028D01*
X0388631Y0040836D01*
X0388605Y0040645D01*
X0388574Y0040454D01*
X0388539Y0040264D01*
X0388499Y0040075D01*
X0388454Y0039887D01*
X0388405Y0039700D01*
X0388351Y0039514D01*
X0388293Y0039330D01*
X0388230Y0039147D01*
X0388162Y0038966D01*
X0388091Y0038787D01*
X0388014Y0038609D01*
X0387934Y0038433D01*
X0387849Y0038260D01*
X0387760Y0038088D01*
X0387667Y0037919D01*
X0387570Y0037752D01*
X0387468Y0037587D01*
X0387363Y0037425D01*
X0387254Y0037266D01*
X0387140Y0037109D01*
X0387023Y0036956D01*
X0386903Y0036805D01*
X0386778Y0036657D01*
X0386650Y0036512D01*
X0386519Y0036371D01*
X0386384Y0036232D01*
X0386245Y0036097D01*
X0386104Y0035966D01*
X0385959Y0035838D01*
X0385811Y0035713D01*
X0385660Y0035593D01*
X0385507Y0035476D01*
X0385350Y0035362D01*
X0385191Y0035253D01*
X0385029Y0035148D01*
X0384864Y0035046D01*
X0384697Y0034949D01*
X0384528Y0034856D01*
X0384356Y0034767D01*
X0384183Y0034682D01*
X0384007Y0034602D01*
X0383829Y0034525D01*
X0383650Y0034454D01*
X0383469Y0034386D01*
X0383286Y0034323D01*
X0383102Y0034265D01*
X0382916Y0034211D01*
X0382729Y0034162D01*
X0382541Y0034117D01*
X0382352Y0034077D01*
X0382162Y0034042D01*
X0381971Y0034011D01*
X0381780Y0033985D01*
X0381588Y0033964D01*
X0381395Y0033947D01*
X0381202Y0033935D01*
X0381009Y0033928D01*
X0380816Y0033926D01*
X0380623Y0033928D01*
X0380430Y0033935D01*
X0380237Y0033947D01*
X0380044Y0033964D01*
X0379852Y0033985D01*
X0379661Y0034011D01*
X0379470Y0034042D01*
X0379280Y0034077D01*
X0379091Y0034117D01*
X0378903Y0034162D01*
X0378716Y0034211D01*
X0378530Y0034265D01*
X0378346Y0034323D01*
X0378163Y0034386D01*
X0377982Y0034454D01*
X0377803Y0034525D01*
X0377625Y0034602D01*
X0377449Y0034682D01*
X0377276Y0034767D01*
X0377104Y0034856D01*
X0376935Y0034949D01*
X0376768Y0035046D01*
X0376603Y0035148D01*
X0376441Y0035253D01*
X0376282Y0035362D01*
X0376125Y0035476D01*
X0375972Y0035593D01*
X0375821Y0035713D01*
X0375673Y0035838D01*
X0375528Y0035966D01*
X0375387Y0036097D01*
X0375248Y0036232D01*
X0375113Y0036371D01*
X0374982Y0036512D01*
X0374854Y0036657D01*
X0374729Y0036805D01*
X0374609Y0036956D01*
X0374492Y0037109D01*
X0374378Y0037266D01*
X0374269Y0037425D01*
X0374164Y0037587D01*
X0374062Y0037752D01*
X0373965Y0037919D01*
X0373872Y0038088D01*
X0373783Y0038260D01*
X0373698Y0038433D01*
X0373618Y0038609D01*
X0373541Y0038787D01*
X0373470Y0038966D01*
X0373402Y0039147D01*
X0373339Y0039330D01*
X0373281Y0039514D01*
X0373227Y0039700D01*
X0373178Y0039887D01*
X0373133Y0040075D01*
X0373093Y0040264D01*
X0373058Y0040454D01*
X0373027Y0040645D01*
X0373001Y0040836D01*
X0372980Y0041028D01*
X0372963Y0041221D01*
X0372951Y0041414D01*
X0372944Y0041607D01*
X0372942Y0041800D01*
X0372942Y0146800D02*
X0372944Y0146993D01*
X0372951Y0147186D01*
X0372963Y0147379D01*
X0372980Y0147572D01*
X0373001Y0147764D01*
X0373027Y0147955D01*
X0373058Y0148146D01*
X0373093Y0148336D01*
X0373133Y0148525D01*
X0373178Y0148713D01*
X0373227Y0148900D01*
X0373281Y0149086D01*
X0373339Y0149270D01*
X0373402Y0149453D01*
X0373470Y0149634D01*
X0373541Y0149813D01*
X0373618Y0149991D01*
X0373698Y0150167D01*
X0373783Y0150340D01*
X0373872Y0150512D01*
X0373965Y0150681D01*
X0374062Y0150848D01*
X0374164Y0151013D01*
X0374269Y0151175D01*
X0374378Y0151334D01*
X0374492Y0151491D01*
X0374609Y0151644D01*
X0374729Y0151795D01*
X0374854Y0151943D01*
X0374982Y0152088D01*
X0375113Y0152229D01*
X0375248Y0152368D01*
X0375387Y0152503D01*
X0375528Y0152634D01*
X0375673Y0152762D01*
X0375821Y0152887D01*
X0375972Y0153007D01*
X0376125Y0153124D01*
X0376282Y0153238D01*
X0376441Y0153347D01*
X0376603Y0153452D01*
X0376768Y0153554D01*
X0376935Y0153651D01*
X0377104Y0153744D01*
X0377276Y0153833D01*
X0377449Y0153918D01*
X0377625Y0153998D01*
X0377803Y0154075D01*
X0377982Y0154146D01*
X0378163Y0154214D01*
X0378346Y0154277D01*
X0378530Y0154335D01*
X0378716Y0154389D01*
X0378903Y0154438D01*
X0379091Y0154483D01*
X0379280Y0154523D01*
X0379470Y0154558D01*
X0379661Y0154589D01*
X0379852Y0154615D01*
X0380044Y0154636D01*
X0380237Y0154653D01*
X0380430Y0154665D01*
X0380623Y0154672D01*
X0380816Y0154674D01*
X0381009Y0154672D01*
X0381202Y0154665D01*
X0381395Y0154653D01*
X0381588Y0154636D01*
X0381780Y0154615D01*
X0381971Y0154589D01*
X0382162Y0154558D01*
X0382352Y0154523D01*
X0382541Y0154483D01*
X0382729Y0154438D01*
X0382916Y0154389D01*
X0383102Y0154335D01*
X0383286Y0154277D01*
X0383469Y0154214D01*
X0383650Y0154146D01*
X0383829Y0154075D01*
X0384007Y0153998D01*
X0384183Y0153918D01*
X0384356Y0153833D01*
X0384528Y0153744D01*
X0384697Y0153651D01*
X0384864Y0153554D01*
X0385029Y0153452D01*
X0385191Y0153347D01*
X0385350Y0153238D01*
X0385507Y0153124D01*
X0385660Y0153007D01*
X0385811Y0152887D01*
X0385959Y0152762D01*
X0386104Y0152634D01*
X0386245Y0152503D01*
X0386384Y0152368D01*
X0386519Y0152229D01*
X0386650Y0152088D01*
X0386778Y0151943D01*
X0386903Y0151795D01*
X0387023Y0151644D01*
X0387140Y0151491D01*
X0387254Y0151334D01*
X0387363Y0151175D01*
X0387468Y0151013D01*
X0387570Y0150848D01*
X0387667Y0150681D01*
X0387760Y0150512D01*
X0387849Y0150340D01*
X0387934Y0150167D01*
X0388014Y0149991D01*
X0388091Y0149813D01*
X0388162Y0149634D01*
X0388230Y0149453D01*
X0388293Y0149270D01*
X0388351Y0149086D01*
X0388405Y0148900D01*
X0388454Y0148713D01*
X0388499Y0148525D01*
X0388539Y0148336D01*
X0388574Y0148146D01*
X0388605Y0147955D01*
X0388631Y0147764D01*
X0388652Y0147572D01*
X0388669Y0147379D01*
X0388681Y0147186D01*
X0388688Y0146993D01*
X0388690Y0146800D01*
X0388688Y0146607D01*
X0388681Y0146414D01*
X0388669Y0146221D01*
X0388652Y0146028D01*
X0388631Y0145836D01*
X0388605Y0145645D01*
X0388574Y0145454D01*
X0388539Y0145264D01*
X0388499Y0145075D01*
X0388454Y0144887D01*
X0388405Y0144700D01*
X0388351Y0144514D01*
X0388293Y0144330D01*
X0388230Y0144147D01*
X0388162Y0143966D01*
X0388091Y0143787D01*
X0388014Y0143609D01*
X0387934Y0143433D01*
X0387849Y0143260D01*
X0387760Y0143088D01*
X0387667Y0142919D01*
X0387570Y0142752D01*
X0387468Y0142587D01*
X0387363Y0142425D01*
X0387254Y0142266D01*
X0387140Y0142109D01*
X0387023Y0141956D01*
X0386903Y0141805D01*
X0386778Y0141657D01*
X0386650Y0141512D01*
X0386519Y0141371D01*
X0386384Y0141232D01*
X0386245Y0141097D01*
X0386104Y0140966D01*
X0385959Y0140838D01*
X0385811Y0140713D01*
X0385660Y0140593D01*
X0385507Y0140476D01*
X0385350Y0140362D01*
X0385191Y0140253D01*
X0385029Y0140148D01*
X0384864Y0140046D01*
X0384697Y0139949D01*
X0384528Y0139856D01*
X0384356Y0139767D01*
X0384183Y0139682D01*
X0384007Y0139602D01*
X0383829Y0139525D01*
X0383650Y0139454D01*
X0383469Y0139386D01*
X0383286Y0139323D01*
X0383102Y0139265D01*
X0382916Y0139211D01*
X0382729Y0139162D01*
X0382541Y0139117D01*
X0382352Y0139077D01*
X0382162Y0139042D01*
X0381971Y0139011D01*
X0381780Y0138985D01*
X0381588Y0138964D01*
X0381395Y0138947D01*
X0381202Y0138935D01*
X0381009Y0138928D01*
X0380816Y0138926D01*
X0380623Y0138928D01*
X0380430Y0138935D01*
X0380237Y0138947D01*
X0380044Y0138964D01*
X0379852Y0138985D01*
X0379661Y0139011D01*
X0379470Y0139042D01*
X0379280Y0139077D01*
X0379091Y0139117D01*
X0378903Y0139162D01*
X0378716Y0139211D01*
X0378530Y0139265D01*
X0378346Y0139323D01*
X0378163Y0139386D01*
X0377982Y0139454D01*
X0377803Y0139525D01*
X0377625Y0139602D01*
X0377449Y0139682D01*
X0377276Y0139767D01*
X0377104Y0139856D01*
X0376935Y0139949D01*
X0376768Y0140046D01*
X0376603Y0140148D01*
X0376441Y0140253D01*
X0376282Y0140362D01*
X0376125Y0140476D01*
X0375972Y0140593D01*
X0375821Y0140713D01*
X0375673Y0140838D01*
X0375528Y0140966D01*
X0375387Y0141097D01*
X0375248Y0141232D01*
X0375113Y0141371D01*
X0374982Y0141512D01*
X0374854Y0141657D01*
X0374729Y0141805D01*
X0374609Y0141956D01*
X0374492Y0142109D01*
X0374378Y0142266D01*
X0374269Y0142425D01*
X0374164Y0142587D01*
X0374062Y0142752D01*
X0373965Y0142919D01*
X0373872Y0143088D01*
X0373783Y0143260D01*
X0373698Y0143433D01*
X0373618Y0143609D01*
X0373541Y0143787D01*
X0373470Y0143966D01*
X0373402Y0144147D01*
X0373339Y0144330D01*
X0373281Y0144514D01*
X0373227Y0144700D01*
X0373178Y0144887D01*
X0373133Y0145075D01*
X0373093Y0145264D01*
X0373058Y0145454D01*
X0373027Y0145645D01*
X0373001Y0145836D01*
X0372980Y0146028D01*
X0372963Y0146221D01*
X0372951Y0146414D01*
X0372944Y0146607D01*
X0372942Y0146800D01*
D11*
X0296800Y0145343D03*
X0296800Y0138257D03*
X0296800Y0120343D03*
X0296800Y0113257D03*
X0321800Y0085343D03*
X0321800Y0078257D03*
X0216800Y0080343D03*
X0216800Y0073257D03*
X0156800Y0078257D03*
X0156800Y0085343D03*
X0101800Y0085343D03*
X0101800Y0078257D03*
X0086800Y0035343D03*
X0086800Y0028257D03*
D12*
X0086800Y0048454D03*
X0086800Y0055146D03*
X0231800Y0053454D03*
X0231800Y0060146D03*
D13*
X0238257Y0081800D03*
X0245343Y0081800D03*
X0230343Y0021800D03*
X0223257Y0021800D03*
X0070343Y0076800D03*
X0063257Y0076800D03*
D14*
X0133800Y0127800D03*
X0143800Y0127800D03*
X0157800Y0159800D03*
X0167800Y0159800D03*
X0187800Y0151800D03*
X0197800Y0151800D03*
X0216800Y0160800D03*
X0226800Y0160800D03*
X0234800Y0180300D03*
X0244800Y0180300D03*
X0270300Y0161300D03*
X0280300Y0161300D03*
X0247800Y0127300D03*
X0237800Y0127300D03*
X0197800Y0111800D03*
X0187800Y0111800D03*
X0111800Y0164300D03*
X0101800Y0164300D03*
X0138300Y0180800D03*
X0148300Y0180800D03*
X0141800Y0206800D03*
X0131800Y0206800D03*
X0101800Y0205800D03*
X0091800Y0205800D03*
X0139300Y0234800D03*
X0149300Y0234800D03*
X0159800Y0254800D03*
X0169800Y0254800D03*
X0186800Y0261800D03*
X0196800Y0261800D03*
X0214800Y0254300D03*
X0224800Y0254300D03*
X0234800Y0233800D03*
X0244800Y0233800D03*
X0273300Y0246300D03*
X0283300Y0246300D03*
X0248800Y0286300D03*
X0238800Y0286300D03*
X0196800Y0301800D03*
X0186800Y0301800D03*
X0148800Y0288800D03*
X0138800Y0288800D03*
X0113300Y0252300D03*
X0103300Y0252300D03*
X0241800Y0206800D03*
X0251800Y0206800D03*
X0281800Y0206300D03*
X0291800Y0206300D03*
D15*
X0156800Y0060265D03*
X0156800Y0043335D03*
X0216800Y0038335D03*
X0216800Y0055265D03*
X0296800Y0050265D03*
X0296800Y0033335D03*
X0066800Y0043335D03*
X0066800Y0060265D03*
D16*
X0101564Y0059300D03*
X0101564Y0054300D03*
X0101564Y0049300D03*
X0101564Y0044300D03*
X0122036Y0044300D03*
X0122036Y0049300D03*
X0122036Y0054300D03*
X0122036Y0059300D03*
X0246564Y0059300D03*
X0246564Y0054300D03*
X0246564Y0049300D03*
X0246564Y0044300D03*
X0267036Y0044300D03*
X0267036Y0049300D03*
X0267036Y0054300D03*
X0267036Y0059300D03*
D17*
X0271800Y0088800D02*
X0271800Y0094800D01*
X0281800Y0094800D02*
X0281800Y0088800D01*
X0291800Y0088800D02*
X0291800Y0094800D01*
X0091800Y0098800D02*
X0091800Y0104800D01*
X0081800Y0104800D02*
X0081800Y0098800D01*
X0071800Y0098800D02*
X0071800Y0104800D01*
D18*
X0351918Y0133650D03*
X0351918Y0159950D03*
X0351918Y0054950D03*
X0351918Y0028650D03*
D19*
X0321800Y0031800D03*
X0321800Y0019200D03*
X0321800Y0044400D03*
X0321800Y0119200D03*
X0321800Y0131800D03*
X0321800Y0144400D03*
D20*
X0260737Y0009615D03*
X0252863Y0009615D03*
X0115737Y0009615D03*
X0107863Y0009615D03*
D21*
X0111800Y0022706D03*
X0256800Y0022706D03*
D22*
X0231249Y0022706D01*
X0230343Y0021800D01*
X0233318Y0020506D02*
X0252447Y0020506D01*
X0252447Y0018976D01*
X0253267Y0018156D01*
X0260333Y0018156D01*
X0261153Y0018976D01*
X0261153Y0026435D01*
X0260333Y0027255D01*
X0259000Y0027255D01*
X0259000Y0042100D01*
X0261745Y0042100D01*
X0262126Y0041719D01*
X0271947Y0041719D01*
X0272767Y0042539D01*
X0272767Y0046061D01*
X0272028Y0046800D01*
X0272767Y0047539D01*
X0272767Y0051061D01*
X0272268Y0051560D01*
X0272472Y0051679D01*
X0272807Y0052014D01*
X0273044Y0052424D01*
X0273167Y0052882D01*
X0273167Y0054300D01*
X0273167Y0055718D01*
X0273044Y0056176D01*
X0272807Y0056586D01*
X0272472Y0056921D01*
X0272268Y0057040D01*
X0272767Y0057539D01*
X0272767Y0061061D01*
X0272338Y0061490D01*
X0294000Y0083152D01*
X0294000Y0084949D01*
X0294292Y0085070D01*
X0294600Y0085377D01*
X0294600Y0057111D01*
X0284489Y0067222D01*
X0284489Y0067335D01*
X0284080Y0068323D01*
X0283323Y0069080D01*
X0282335Y0069489D01*
X0281265Y0069489D01*
X0280277Y0069080D01*
X0279520Y0068323D01*
X0279111Y0067335D01*
X0279111Y0066265D01*
X0279520Y0065277D01*
X0280277Y0064520D01*
X0281265Y0064111D01*
X0281378Y0064111D01*
X0292506Y0052982D01*
X0292506Y0047185D01*
X0293326Y0046365D01*
X0300274Y0046365D01*
X0301094Y0047185D01*
X0301094Y0053344D01*
X0300274Y0054165D01*
X0299000Y0054165D01*
X0299000Y0110282D01*
X0299742Y0110282D01*
X0300562Y0111102D01*
X0300562Y0115411D01*
X0299742Y0116231D01*
X0295799Y0116231D01*
X0296936Y0117369D01*
X0299742Y0117369D01*
X0300517Y0118143D01*
X0317250Y0118143D01*
X0317250Y0115470D01*
X0318070Y0114650D01*
X0325530Y0114650D01*
X0326350Y0115470D01*
X0326350Y0122930D01*
X0325530Y0123750D01*
X0318070Y0123750D01*
X0317250Y0122930D01*
X0317250Y0122543D01*
X0300517Y0122543D01*
X0299742Y0123318D01*
X0296969Y0123318D01*
X0299000Y0125349D01*
X0299000Y0135282D01*
X0299742Y0135282D01*
X0300517Y0136057D01*
X0316568Y0136057D01*
X0320361Y0139850D01*
X0325530Y0139850D01*
X0326350Y0140670D01*
X0326350Y0148130D01*
X0325530Y0148950D01*
X0318070Y0148950D01*
X0317250Y0148130D01*
X0317250Y0142961D01*
X0314745Y0140457D01*
X0300517Y0140457D01*
X0299742Y0141231D01*
X0293858Y0141231D01*
X0293038Y0140411D01*
X0293038Y0136102D01*
X0293858Y0135282D01*
X0294600Y0135282D01*
X0294600Y0127171D01*
X0288689Y0121260D01*
X0287400Y0119971D01*
X0287400Y0100511D01*
X0284856Y0097967D01*
X0284292Y0098530D01*
X0282675Y0099200D01*
X0280925Y0099200D01*
X0279308Y0098530D01*
X0278070Y0097292D01*
X0277400Y0095675D01*
X0277400Y0087925D01*
X0278070Y0086308D01*
X0279308Y0085070D01*
X0280925Y0084400D01*
X0282675Y0084400D01*
X0284292Y0085070D01*
X0285530Y0086308D01*
X0286200Y0087925D01*
X0286200Y0093089D01*
X0287400Y0094289D01*
X0287400Y0087925D01*
X0288070Y0086308D01*
X0289308Y0085070D01*
X0289581Y0084956D01*
X0266506Y0061881D01*
X0262126Y0061881D01*
X0261306Y0061061D01*
X0261306Y0059081D01*
X0261214Y0059081D01*
X0261133Y0059000D01*
X0260889Y0059000D01*
X0259600Y0057711D01*
X0259600Y0057467D01*
X0259106Y0056972D01*
X0259106Y0051628D01*
X0259926Y0050808D01*
X0261214Y0049519D01*
X0261306Y0049519D01*
X0261306Y0047539D01*
X0262045Y0046800D01*
X0261745Y0046500D01*
X0254967Y0046500D01*
X0252386Y0049081D01*
X0252294Y0049081D01*
X0252294Y0051061D01*
X0251555Y0051800D01*
X0252294Y0052539D01*
X0252294Y0054519D01*
X0252386Y0054519D01*
X0253674Y0055808D01*
X0254494Y0056628D01*
X0254494Y0061972D01*
X0252755Y0063712D01*
X0254000Y0064957D01*
X0254000Y0070197D01*
X0254080Y0070277D01*
X0254489Y0071265D01*
X0254489Y0072335D01*
X0254080Y0073323D01*
X0253323Y0074080D01*
X0252335Y0074489D01*
X0251265Y0074489D01*
X0250277Y0074080D01*
X0249520Y0073323D01*
X0249111Y0072335D01*
X0249111Y0071265D01*
X0249520Y0070277D01*
X0249600Y0070197D01*
X0249600Y0066779D01*
X0248732Y0065912D01*
X0234343Y0065912D01*
X0231058Y0069197D01*
X0231265Y0069111D01*
X0232335Y0069111D01*
X0233323Y0069520D01*
X0234080Y0070277D01*
X0234489Y0071265D01*
X0234489Y0071378D01*
X0238949Y0075838D01*
X0241323Y0075838D01*
X0243523Y0078038D01*
X0247498Y0078038D01*
X0248318Y0078858D01*
X0248318Y0083362D01*
X0266473Y0083362D01*
X0267762Y0084651D01*
X0268744Y0085633D01*
X0269308Y0085070D01*
X0270925Y0084400D01*
X0272675Y0084400D01*
X0274292Y0085070D01*
X0275530Y0086308D01*
X0276200Y0087925D01*
X0276200Y0095675D01*
X0275530Y0097292D01*
X0274292Y0098530D01*
X0272675Y0099200D01*
X0270925Y0099200D01*
X0269308Y0098530D01*
X0268070Y0097292D01*
X0267400Y0095675D01*
X0267400Y0090511D01*
X0264651Y0087762D01*
X0242277Y0087762D01*
X0240989Y0086473D01*
X0240077Y0085562D01*
X0236102Y0085562D01*
X0235282Y0084742D01*
X0235282Y0078858D01*
X0235514Y0078626D01*
X0231378Y0074489D01*
X0231265Y0074489D01*
X0230277Y0074080D01*
X0229520Y0073323D01*
X0229111Y0072335D01*
X0229111Y0071265D01*
X0229197Y0071058D01*
X0220562Y0079692D01*
X0220562Y0082498D01*
X0219742Y0083318D01*
X0213858Y0083318D01*
X0213038Y0082498D01*
X0213038Y0078189D01*
X0213858Y0077369D01*
X0216664Y0077369D01*
X0217801Y0076231D01*
X0213858Y0076231D01*
X0213038Y0075411D01*
X0213038Y0071102D01*
X0213858Y0070282D01*
X0214600Y0070282D01*
X0214600Y0059165D01*
X0213326Y0059165D01*
X0212506Y0058344D01*
X0212506Y0052185D01*
X0213326Y0051365D01*
X0220274Y0051365D01*
X0221094Y0052185D01*
X0221094Y0058344D01*
X0220274Y0059165D01*
X0219000Y0059165D01*
X0219000Y0070282D01*
X0219742Y0070282D01*
X0220562Y0071102D01*
X0220562Y0073470D01*
X0230320Y0063712D01*
X0229252Y0063712D01*
X0228431Y0062892D01*
X0228431Y0057401D01*
X0228756Y0057077D01*
X0228726Y0057059D01*
X0228391Y0056724D01*
X0228154Y0056314D01*
X0228031Y0055856D01*
X0228031Y0053638D01*
X0231616Y0053638D01*
X0231616Y0053269D01*
X0231984Y0053269D01*
X0231984Y0049488D01*
X0234005Y0049488D01*
X0234463Y0049611D01*
X0234874Y0049848D01*
X0235209Y0050183D01*
X0235446Y0050593D01*
X0235568Y0051051D01*
X0235568Y0053269D01*
X0231984Y0053269D01*
X0231984Y0053638D01*
X0235568Y0053638D01*
X0235568Y0055856D01*
X0235446Y0056314D01*
X0235209Y0056724D01*
X0234874Y0057059D01*
X0234844Y0057077D01*
X0234867Y0057100D01*
X0241272Y0057100D01*
X0241572Y0056800D01*
X0240833Y0056061D01*
X0240833Y0052539D01*
X0241572Y0051800D01*
X0240833Y0051061D01*
X0240833Y0047539D01*
X0241572Y0046800D01*
X0240833Y0046061D01*
X0240833Y0044000D01*
X0233403Y0044000D01*
X0233323Y0044080D01*
X0232335Y0044489D01*
X0231265Y0044489D01*
X0230277Y0044080D01*
X0229520Y0043323D01*
X0229111Y0042335D01*
X0229111Y0041265D01*
X0229520Y0040277D01*
X0230277Y0039520D01*
X0231265Y0039111D01*
X0232335Y0039111D01*
X0233323Y0039520D01*
X0233403Y0039600D01*
X0244975Y0039600D01*
X0247094Y0041719D01*
X0251474Y0041719D01*
X0252294Y0042539D01*
X0252294Y0042950D01*
X0253144Y0042100D01*
X0254600Y0042100D01*
X0254600Y0027255D01*
X0253267Y0027255D01*
X0252447Y0026435D01*
X0252447Y0024905D01*
X0233155Y0024905D01*
X0232498Y0025562D01*
X0229568Y0025562D01*
X0229568Y0028678D01*
X0228280Y0029967D01*
X0221094Y0037153D01*
X0221094Y0041415D01*
X0220274Y0042235D01*
X0213326Y0042235D01*
X0212506Y0041415D01*
X0212506Y0035256D01*
X0213326Y0034435D01*
X0217589Y0034435D01*
X0225169Y0026856D01*
X0225169Y0025935D01*
X0225068Y0025962D01*
X0223257Y0025962D01*
X0223257Y0021800D01*
X0223257Y0017638D01*
X0225068Y0017638D01*
X0225391Y0017724D01*
X0226457Y0016658D01*
X0227277Y0015838D01*
X0243529Y0015838D01*
X0249101Y0010266D01*
X0249101Y0006673D01*
X0249921Y0005853D01*
X0255805Y0005853D01*
X0256625Y0006673D01*
X0256625Y0012557D01*
X0255805Y0013377D01*
X0252212Y0013377D01*
X0246640Y0018949D01*
X0245351Y0020238D01*
X0233318Y0020238D01*
X0233318Y0020506D01*
X0228189Y0018038D02*
X0244440Y0018038D01*
X0252863Y0009615D01*
X0256625Y0009793D02*
X0256975Y0009793D01*
X0256975Y0011391D02*
X0256625Y0011391D01*
X0256975Y0012557D02*
X0256975Y0006673D01*
X0257795Y0005853D01*
X0263679Y0005853D01*
X0264499Y0006673D01*
X0264499Y0007415D01*
X0273991Y0007415D01*
X0296011Y0029435D01*
X0300274Y0029435D01*
X0301094Y0030256D01*
X0301094Y0036415D01*
X0300274Y0037235D01*
X0293326Y0037235D01*
X0292506Y0036415D01*
X0292506Y0032153D01*
X0272168Y0011815D01*
X0264499Y0011815D01*
X0264499Y0012557D01*
X0263679Y0013377D01*
X0257795Y0013377D01*
X0256975Y0012557D01*
X0257407Y0012990D02*
X0256193Y0012990D01*
X0251001Y0014588D02*
X0274941Y0014588D01*
X0273343Y0012990D02*
X0264067Y0012990D01*
X0260737Y0009615D02*
X0273080Y0009615D01*
X0296800Y0033335D01*
X0292506Y0033770D02*
X0259000Y0033770D01*
X0259000Y0032172D02*
X0292506Y0032172D01*
X0290927Y0030573D02*
X0259000Y0030573D01*
X0259000Y0028975D02*
X0289328Y0028975D01*
X0287729Y0027376D02*
X0259000Y0027376D01*
X0261153Y0025778D02*
X0286131Y0025778D01*
X0284532Y0024179D02*
X0261153Y0024179D01*
X0261153Y0022581D02*
X0282934Y0022581D01*
X0281335Y0020982D02*
X0261153Y0020982D01*
X0261153Y0019384D02*
X0279737Y0019384D01*
X0278138Y0017785D02*
X0247804Y0017785D01*
X0249403Y0016187D02*
X0276540Y0016187D01*
X0279565Y0012990D02*
X0393701Y0012990D01*
X0393701Y0014588D02*
X0281164Y0014588D01*
X0282762Y0016187D02*
X0317250Y0016187D01*
X0317250Y0015470D02*
X0318070Y0014650D01*
X0325530Y0014650D01*
X0326350Y0015470D01*
X0326350Y0022930D01*
X0325530Y0023750D01*
X0318070Y0023750D01*
X0317250Y0022930D01*
X0317250Y0015470D01*
X0317250Y0017785D02*
X0284361Y0017785D01*
X0285959Y0019384D02*
X0317250Y0019384D01*
X0317250Y0020982D02*
X0287558Y0020982D01*
X0289156Y0022581D02*
X0317250Y0022581D01*
X0318070Y0027250D02*
X0317250Y0028070D01*
X0317250Y0035530D01*
X0318070Y0036350D01*
X0325530Y0036350D01*
X0326350Y0035530D01*
X0326350Y0030850D01*
X0346384Y0030850D01*
X0346384Y0033364D01*
X0347204Y0034184D01*
X0356632Y0034184D01*
X0357452Y0033364D01*
X0357452Y0023937D01*
X0356632Y0023117D01*
X0347204Y0023117D01*
X0346384Y0023937D01*
X0346384Y0026450D01*
X0324038Y0026450D01*
X0323239Y0027250D01*
X0318070Y0027250D01*
X0317944Y0027376D02*
X0293952Y0027376D01*
X0292354Y0025778D02*
X0346384Y0025778D01*
X0346384Y0024179D02*
X0290755Y0024179D01*
X0295551Y0028975D02*
X0317250Y0028975D01*
X0317250Y0030573D02*
X0301094Y0030573D01*
X0301094Y0032172D02*
X0317250Y0032172D01*
X0317250Y0033770D02*
X0301094Y0033770D01*
X0301094Y0035369D02*
X0317250Y0035369D01*
X0318070Y0039850D02*
X0317250Y0040670D01*
X0317250Y0048130D01*
X0318070Y0048950D01*
X0319600Y0048950D01*
X0319600Y0075282D01*
X0318858Y0075282D01*
X0318626Y0075514D01*
X0309489Y0066378D01*
X0309489Y0066265D01*
X0309080Y0065277D01*
X0308323Y0064520D01*
X0307335Y0064111D01*
X0306265Y0064111D01*
X0305277Y0064520D01*
X0304520Y0065277D01*
X0304111Y0066265D01*
X0304111Y0067335D01*
X0304520Y0068323D01*
X0305277Y0069080D01*
X0306265Y0069489D01*
X0306378Y0069489D01*
X0317345Y0080457D01*
X0318083Y0080457D01*
X0318858Y0081231D01*
X0324742Y0081231D01*
X0325562Y0080411D01*
X0325562Y0076102D01*
X0324742Y0075282D01*
X0324000Y0075282D01*
X0324000Y0048950D01*
X0325530Y0048950D01*
X0326350Y0048130D01*
X0326350Y0040670D01*
X0325530Y0039850D01*
X0318070Y0039850D01*
X0317756Y0040164D02*
X0259000Y0040164D01*
X0259000Y0038566D02*
X0371684Y0038566D01*
X0371142Y0039876D02*
X0372615Y0036320D01*
X0375336Y0033599D01*
X0378891Y0032126D01*
X0382740Y0032126D01*
X0386296Y0033599D01*
X0389017Y0036320D01*
X0390490Y0039876D01*
X0390490Y0043724D01*
X0389017Y0047280D01*
X0386296Y0050001D01*
X0382740Y0051474D01*
X0378891Y0051474D01*
X0375336Y0050001D01*
X0372615Y0047280D01*
X0371142Y0043724D01*
X0371142Y0039876D01*
X0371142Y0040164D02*
X0325844Y0040164D01*
X0326350Y0041763D02*
X0371142Y0041763D01*
X0371142Y0043361D02*
X0326350Y0043361D01*
X0326350Y0044960D02*
X0371654Y0044960D01*
X0372316Y0046558D02*
X0326350Y0046558D01*
X0326323Y0048157D02*
X0373491Y0048157D01*
X0375090Y0049755D02*
X0357518Y0049755D01*
X0357492Y0049711D02*
X0357729Y0050121D01*
X0357852Y0050579D01*
X0357852Y0054372D01*
X0352496Y0054372D01*
X0352496Y0055528D01*
X0351340Y0055528D01*
X0351340Y0060883D01*
X0347547Y0060883D01*
X0347089Y0060761D01*
X0346679Y0060524D01*
X0346344Y0060189D01*
X0346107Y0059778D01*
X0345984Y0059320D01*
X0345984Y0055528D01*
X0351340Y0055528D01*
X0351340Y0054372D01*
X0345984Y0054372D01*
X0345984Y0050579D01*
X0346107Y0050121D01*
X0346344Y0049711D01*
X0346679Y0049375D01*
X0347089Y0049138D01*
X0347547Y0049016D01*
X0351340Y0049016D01*
X0351340Y0054372D01*
X0352496Y0054372D01*
X0352496Y0049016D01*
X0356289Y0049016D01*
X0356747Y0049138D01*
X0357157Y0049375D01*
X0357492Y0049711D01*
X0357852Y0051354D02*
X0378601Y0051354D01*
X0383030Y0051354D02*
X0393701Y0051354D01*
X0393701Y0052952D02*
X0357852Y0052952D01*
X0357852Y0055528D02*
X0352496Y0055528D01*
X0352496Y0060883D01*
X0356289Y0060883D01*
X0356747Y0060761D01*
X0357157Y0060524D01*
X0357492Y0060189D01*
X0357729Y0059778D01*
X0357852Y0059320D01*
X0357852Y0055528D01*
X0357852Y0056149D02*
X0393701Y0056149D01*
X0393701Y0054551D02*
X0352496Y0054551D01*
X0351340Y0054551D02*
X0324000Y0054551D01*
X0324000Y0056149D02*
X0345984Y0056149D01*
X0345984Y0057748D02*
X0324000Y0057748D01*
X0324000Y0059346D02*
X0345991Y0059346D01*
X0351340Y0059346D02*
X0352496Y0059346D01*
X0352496Y0057748D02*
X0351340Y0057748D01*
X0351340Y0056149D02*
X0352496Y0056149D01*
X0352496Y0052952D02*
X0351340Y0052952D01*
X0351340Y0051354D02*
X0352496Y0051354D01*
X0352496Y0049755D02*
X0351340Y0049755D01*
X0346318Y0049755D02*
X0324000Y0049755D01*
X0324000Y0051354D02*
X0345984Y0051354D01*
X0345984Y0052952D02*
X0324000Y0052952D01*
X0319600Y0052952D02*
X0301094Y0052952D01*
X0301094Y0051354D02*
X0319600Y0051354D01*
X0319600Y0049755D02*
X0301094Y0049755D01*
X0301094Y0048157D02*
X0317277Y0048157D01*
X0317250Y0046558D02*
X0300467Y0046558D01*
X0296800Y0050265D02*
X0296800Y0051800D01*
X0281800Y0066800D01*
X0279328Y0065740D02*
X0276588Y0065740D01*
X0274989Y0064142D02*
X0281190Y0064142D01*
X0282945Y0062543D02*
X0273391Y0062543D01*
X0272767Y0060945D02*
X0284544Y0060945D01*
X0286142Y0059346D02*
X0272767Y0059346D01*
X0272767Y0057748D02*
X0287741Y0057748D01*
X0289339Y0056149D02*
X0273051Y0056149D01*
X0273167Y0054551D02*
X0290938Y0054551D01*
X0292506Y0052952D02*
X0273167Y0052952D01*
X0273167Y0054300D02*
X0267036Y0054300D01*
X0273167Y0054300D01*
X0272474Y0051354D02*
X0292506Y0051354D01*
X0292506Y0049755D02*
X0272767Y0049755D01*
X0272767Y0048157D02*
X0292506Y0048157D01*
X0293133Y0046558D02*
X0272270Y0046558D01*
X0272767Y0044960D02*
X0317250Y0044960D01*
X0317250Y0043361D02*
X0272767Y0043361D01*
X0271991Y0041763D02*
X0317250Y0041763D01*
X0321800Y0044400D02*
X0321800Y0078257D01*
X0318257Y0078257D01*
X0306800Y0066800D01*
X0309272Y0065740D02*
X0319600Y0065740D01*
X0319600Y0064142D02*
X0307409Y0064142D01*
X0306190Y0064142D02*
X0299000Y0064142D01*
X0299000Y0065740D02*
X0304328Y0065740D01*
X0304113Y0067339D02*
X0299000Y0067339D01*
X0299000Y0068937D02*
X0305135Y0068937D01*
X0307425Y0070536D02*
X0299000Y0070536D01*
X0299000Y0072134D02*
X0309023Y0072134D01*
X0310622Y0073733D02*
X0299000Y0073733D01*
X0299000Y0075332D02*
X0312220Y0075332D01*
X0313819Y0076930D02*
X0299000Y0076930D01*
X0299000Y0078529D02*
X0315417Y0078529D01*
X0317016Y0080127D02*
X0299000Y0080127D01*
X0299000Y0081726D02*
X0393701Y0081726D01*
X0393701Y0083324D02*
X0325562Y0083324D01*
X0325562Y0083189D02*
X0325562Y0087498D01*
X0324742Y0088318D01*
X0324000Y0088318D01*
X0324000Y0097711D01*
X0314489Y0107222D01*
X0314489Y0107335D01*
X0314080Y0108323D01*
X0313323Y0109080D01*
X0312335Y0109489D01*
X0311265Y0109489D01*
X0310277Y0109080D01*
X0309520Y0108323D01*
X0309111Y0107335D01*
X0309111Y0106265D01*
X0309520Y0105277D01*
X0310277Y0104520D01*
X0311265Y0104111D01*
X0311378Y0104111D01*
X0319600Y0095889D01*
X0319600Y0088318D01*
X0318858Y0088318D01*
X0318038Y0087498D01*
X0318038Y0083189D01*
X0318858Y0082369D01*
X0324742Y0082369D01*
X0325562Y0083189D01*
X0325562Y0084923D02*
X0393701Y0084923D01*
X0393701Y0086521D02*
X0325562Y0086521D01*
X0324941Y0088120D02*
X0393701Y0088120D01*
X0393701Y0089718D02*
X0324000Y0089718D01*
X0324000Y0091317D02*
X0393701Y0091317D01*
X0393701Y0092915D02*
X0324000Y0092915D01*
X0324000Y0094514D02*
X0393701Y0094514D01*
X0393701Y0096112D02*
X0324000Y0096112D01*
X0324000Y0097711D02*
X0393701Y0097711D01*
X0393701Y0099309D02*
X0322402Y0099309D01*
X0320804Y0100908D02*
X0393701Y0100908D01*
X0393701Y0102506D02*
X0319205Y0102506D01*
X0317607Y0104105D02*
X0393701Y0104105D01*
X0393701Y0105703D02*
X0316008Y0105703D01*
X0314489Y0107302D02*
X0393701Y0107302D01*
X0393701Y0108900D02*
X0313503Y0108900D01*
X0311800Y0106800D02*
X0321800Y0096800D01*
X0321800Y0085343D01*
X0318038Y0084923D02*
X0299000Y0084923D01*
X0299000Y0086521D02*
X0318038Y0086521D01*
X0318659Y0088120D02*
X0299000Y0088120D01*
X0299000Y0089718D02*
X0319600Y0089718D01*
X0319600Y0091317D02*
X0299000Y0091317D01*
X0299000Y0092915D02*
X0319600Y0092915D01*
X0319600Y0094514D02*
X0299000Y0094514D01*
X0299000Y0096112D02*
X0319377Y0096112D01*
X0317778Y0097711D02*
X0299000Y0097711D01*
X0299000Y0099309D02*
X0316180Y0099309D01*
X0314581Y0100908D02*
X0299000Y0100908D01*
X0299000Y0102506D02*
X0312983Y0102506D01*
X0311384Y0104105D02*
X0299000Y0104105D01*
X0299000Y0105703D02*
X0309344Y0105703D01*
X0309111Y0107302D02*
X0299000Y0107302D01*
X0299000Y0108900D02*
X0310097Y0108900D01*
X0317426Y0115294D02*
X0300562Y0115294D01*
X0300562Y0113696D02*
X0393701Y0113696D01*
X0393701Y0115294D02*
X0326174Y0115294D01*
X0326350Y0116893D02*
X0393701Y0116893D01*
X0393701Y0118491D02*
X0326350Y0118491D01*
X0326350Y0120090D02*
X0393701Y0120090D01*
X0393701Y0121688D02*
X0326350Y0121688D01*
X0325993Y0123287D02*
X0393701Y0123287D01*
X0393701Y0124885D02*
X0298536Y0124885D01*
X0299000Y0126484D02*
X0393701Y0126484D01*
X0393701Y0128082D02*
X0326350Y0128082D01*
X0326350Y0128070D02*
X0326350Y0135530D01*
X0325530Y0136350D01*
X0318070Y0136350D01*
X0317250Y0135530D01*
X0317250Y0128070D01*
X0318070Y0127250D01*
X0325530Y0127250D01*
X0326350Y0128070D01*
X0326350Y0129681D02*
X0346384Y0129681D01*
X0346384Y0128937D02*
X0347204Y0128117D01*
X0356632Y0128117D01*
X0357452Y0128937D01*
X0357452Y0138364D01*
X0356632Y0139184D01*
X0347204Y0139184D01*
X0346384Y0138364D01*
X0346384Y0128937D01*
X0346384Y0131279D02*
X0326350Y0131279D01*
X0326350Y0132878D02*
X0346384Y0132878D01*
X0346384Y0134476D02*
X0326350Y0134476D01*
X0325805Y0136075D02*
X0346384Y0136075D01*
X0346384Y0137673D02*
X0318185Y0137673D01*
X0317795Y0136075D02*
X0316586Y0136075D01*
X0317250Y0134476D02*
X0299000Y0134476D01*
X0299000Y0132878D02*
X0317250Y0132878D01*
X0317250Y0131279D02*
X0299000Y0131279D01*
X0299000Y0129681D02*
X0317250Y0129681D01*
X0317250Y0128082D02*
X0299000Y0128082D01*
X0296800Y0126260D02*
X0289600Y0119060D01*
X0289600Y0099600D01*
X0281800Y0091800D01*
X0286200Y0091317D02*
X0287400Y0091317D01*
X0287400Y0092915D02*
X0286200Y0092915D01*
X0286200Y0089718D02*
X0287400Y0089718D01*
X0287400Y0088120D02*
X0286200Y0088120D01*
X0285619Y0086521D02*
X0287981Y0086521D01*
X0289548Y0084923D02*
X0283937Y0084923D01*
X0286351Y0081726D02*
X0248318Y0081726D01*
X0248318Y0083324D02*
X0287949Y0083324D01*
X0291800Y0084064D02*
X0267036Y0059300D01*
X0264617Y0056881D01*
X0262126Y0056881D01*
X0262045Y0056800D01*
X0261800Y0056800D01*
X0261800Y0056555D01*
X0261306Y0056061D01*
X0261306Y0052539D01*
X0262126Y0051719D01*
X0264617Y0051719D01*
X0267036Y0049300D01*
X0261306Y0048157D02*
X0253310Y0048157D01*
X0252294Y0049755D02*
X0260978Y0049755D01*
X0259379Y0051354D02*
X0252002Y0051354D01*
X0252294Y0052952D02*
X0259106Y0052952D01*
X0259106Y0054551D02*
X0252418Y0054551D01*
X0253674Y0055808D02*
X0253674Y0055808D01*
X0254016Y0056149D02*
X0259106Y0056149D01*
X0259637Y0057748D02*
X0254494Y0057748D01*
X0254494Y0059346D02*
X0261306Y0059346D01*
X0261306Y0060945D02*
X0254494Y0060945D01*
X0253923Y0062543D02*
X0267168Y0062543D01*
X0268767Y0064142D02*
X0253185Y0064142D01*
X0254000Y0065740D02*
X0270365Y0065740D01*
X0271964Y0067339D02*
X0254000Y0067339D01*
X0254000Y0068937D02*
X0273562Y0068937D01*
X0275161Y0070536D02*
X0254187Y0070536D01*
X0254489Y0072134D02*
X0276759Y0072134D01*
X0278358Y0073733D02*
X0253670Y0073733D01*
X0251800Y0071800D02*
X0251800Y0065868D01*
X0249644Y0063712D01*
X0233431Y0063712D01*
X0216800Y0080343D01*
X0217102Y0076930D02*
X0168325Y0076930D01*
X0169923Y0075332D02*
X0213038Y0075332D01*
X0213038Y0073733D02*
X0178670Y0073733D01*
X0178323Y0074080D02*
X0177335Y0074489D01*
X0176265Y0074489D01*
X0175277Y0074080D01*
X0175197Y0074000D01*
X0171255Y0074000D01*
X0160562Y0084692D01*
X0160562Y0087498D01*
X0159742Y0088318D01*
X0153858Y0088318D01*
X0153083Y0087543D01*
X0147168Y0087543D01*
X0124236Y0064611D01*
X0124236Y0072475D01*
X0096200Y0100511D01*
X0096200Y0105675D01*
X0095530Y0107292D01*
X0094292Y0108530D01*
X0092675Y0109200D01*
X0090925Y0109200D01*
X0089308Y0108530D01*
X0088070Y0107292D01*
X0087400Y0105675D01*
X0087400Y0097925D01*
X0088070Y0096308D01*
X0089308Y0095070D01*
X0090925Y0094400D01*
X0092675Y0094400D01*
X0094292Y0095070D01*
X0094856Y0095633D01*
X0102171Y0088318D01*
X0098858Y0088318D01*
X0098083Y0087543D01*
X0089168Y0087543D01*
X0082311Y0094400D01*
X0082675Y0094400D01*
X0084292Y0095070D01*
X0085530Y0096308D01*
X0086200Y0097925D01*
X0086200Y0105675D01*
X0085530Y0107292D01*
X0084292Y0108530D01*
X0082675Y0109200D01*
X0080925Y0109200D01*
X0079308Y0108530D01*
X0078070Y0107292D01*
X0077400Y0105675D01*
X0077400Y0099311D01*
X0076200Y0100511D01*
X0076200Y0105675D01*
X0075530Y0107292D01*
X0074292Y0108530D01*
X0072675Y0109200D01*
X0070925Y0109200D01*
X0069308Y0108530D01*
X0068070Y0107292D01*
X0067400Y0105675D01*
X0067400Y0097925D01*
X0068070Y0096308D01*
X0069308Y0095070D01*
X0070925Y0094400D01*
X0072675Y0094400D01*
X0074292Y0095070D01*
X0074856Y0095633D01*
X0087345Y0083143D01*
X0098083Y0083143D01*
X0098858Y0082369D01*
X0104742Y0082369D01*
X0105562Y0083189D01*
X0105562Y0084927D01*
X0119836Y0070652D01*
X0119836Y0061881D01*
X0117126Y0061881D01*
X0116306Y0061061D01*
X0116306Y0059081D01*
X0116214Y0059081D01*
X0114926Y0057792D01*
X0114106Y0056972D01*
X0114106Y0051628D01*
X0114233Y0051500D01*
X0106855Y0051500D01*
X0106555Y0051800D01*
X0107294Y0052539D01*
X0107294Y0054519D01*
X0107386Y0054519D01*
X0108674Y0055808D01*
X0109494Y0056628D01*
X0109494Y0061972D01*
X0108674Y0062792D01*
X0107386Y0064081D01*
X0094894Y0064081D01*
X0079975Y0079000D01*
X0073318Y0079000D01*
X0073318Y0079742D01*
X0072498Y0080562D01*
X0068189Y0080562D01*
X0067369Y0079742D01*
X0067369Y0075799D01*
X0066231Y0076936D01*
X0066231Y0079742D01*
X0065411Y0080562D01*
X0061102Y0080562D01*
X0060282Y0079742D01*
X0060282Y0073858D01*
X0061102Y0073038D01*
X0063908Y0073038D01*
X0064600Y0072345D01*
X0064600Y0064165D01*
X0063326Y0064165D01*
X0062506Y0063344D01*
X0062506Y0057185D01*
X0063326Y0056365D01*
X0070274Y0056365D01*
X0071094Y0057185D01*
X0071094Y0063344D01*
X0070274Y0064165D01*
X0069000Y0064165D01*
X0069000Y0073038D01*
X0072498Y0073038D01*
X0073318Y0073858D01*
X0073318Y0074600D01*
X0078152Y0074600D01*
X0091783Y0060970D01*
X0093071Y0059681D01*
X0095833Y0059681D01*
X0095833Y0059081D01*
X0095742Y0059081D01*
X0094007Y0057346D01*
X0090168Y0057346D01*
X0090168Y0057892D01*
X0089348Y0058712D01*
X0084252Y0058712D01*
X0083431Y0057892D01*
X0083431Y0052401D01*
X0083756Y0052077D01*
X0083726Y0052059D01*
X0083391Y0051724D01*
X0083154Y0051314D01*
X0083031Y0050856D01*
X0083031Y0048638D01*
X0086616Y0048638D01*
X0086616Y0048269D01*
X0083031Y0048269D01*
X0083031Y0046051D01*
X0083154Y0045593D01*
X0083391Y0045183D01*
X0083726Y0044848D01*
X0084137Y0044611D01*
X0084595Y0044488D01*
X0086149Y0044488D01*
X0080838Y0039177D01*
X0080838Y0032409D01*
X0071094Y0042153D01*
X0071094Y0046415D01*
X0070274Y0047235D01*
X0063326Y0047235D01*
X0062506Y0046415D01*
X0062506Y0040256D01*
X0063326Y0039435D01*
X0067589Y0039435D01*
X0080838Y0026186D01*
X0080838Y0025191D01*
X0098614Y0007415D01*
X0104101Y0007415D01*
X0104101Y0006673D01*
X0104921Y0005853D01*
X0110805Y0005853D01*
X0111625Y0006673D01*
X0111625Y0012557D01*
X0110805Y0013377D01*
X0104921Y0013377D01*
X0104101Y0012557D01*
X0104101Y0011815D01*
X0100436Y0011815D01*
X0087369Y0024882D01*
X0089399Y0024882D01*
X0089857Y0025005D01*
X0090267Y0025242D01*
X0090603Y0025577D01*
X0090840Y0025987D01*
X0090962Y0026445D01*
X0090962Y0028257D01*
X0090962Y0030068D01*
X0090935Y0030169D01*
X0093143Y0030169D01*
X0107356Y0015956D01*
X0116244Y0015956D01*
X0126436Y0026148D01*
X0126436Y0026790D01*
X0156011Y0056365D01*
X0160274Y0056365D01*
X0161094Y0057185D01*
X0161094Y0063344D01*
X0160274Y0064165D01*
X0159000Y0064165D01*
X0159000Y0075282D01*
X0159742Y0075282D01*
X0160562Y0076102D01*
X0160562Y0078470D01*
X0169432Y0069600D01*
X0175197Y0069600D01*
X0175277Y0069520D01*
X0176265Y0069111D01*
X0177335Y0069111D01*
X0178323Y0069520D01*
X0179080Y0070277D01*
X0179489Y0071265D01*
X0179489Y0072335D01*
X0179080Y0073323D01*
X0178323Y0074080D01*
X0179489Y0072134D02*
X0213038Y0072134D01*
X0213604Y0070536D02*
X0179187Y0070536D01*
X0176800Y0071800D02*
X0170343Y0071800D01*
X0156800Y0085343D01*
X0148080Y0085343D01*
X0122036Y0059300D01*
X0119617Y0056881D01*
X0117126Y0056881D01*
X0116306Y0056061D01*
X0116306Y0052539D01*
X0117126Y0051719D01*
X0119617Y0051719D01*
X0122036Y0049300D01*
X0119617Y0046719D02*
X0117126Y0046719D01*
X0114545Y0049300D01*
X0101564Y0049300D01*
X0099145Y0046881D01*
X0096653Y0046881D01*
X0095833Y0046061D01*
X0095833Y0044376D01*
X0086800Y0035343D01*
X0083858Y0032369D02*
X0094055Y0032369D01*
X0108267Y0018156D01*
X0115333Y0018156D01*
X0124236Y0027059D01*
X0124236Y0027701D01*
X0156800Y0060265D01*
X0156800Y0078257D01*
X0157801Y0081231D02*
X0153858Y0081231D01*
X0153038Y0080411D01*
X0153038Y0076102D01*
X0153858Y0075282D01*
X0154600Y0075282D01*
X0154600Y0064165D01*
X0153326Y0064165D01*
X0152506Y0063344D01*
X0152506Y0059082D01*
X0123325Y0029901D01*
X0122036Y0028612D01*
X0122036Y0027971D01*
X0116153Y0022087D01*
X0116153Y0023947D01*
X0124236Y0032030D01*
X0124236Y0041719D01*
X0126947Y0041719D01*
X0127767Y0042539D01*
X0127767Y0046061D01*
X0127028Y0046800D01*
X0127767Y0047539D01*
X0127767Y0051061D01*
X0127268Y0051560D01*
X0127472Y0051679D01*
X0127807Y0052014D01*
X0128044Y0052424D01*
X0128167Y0052882D01*
X0128167Y0054300D01*
X0128167Y0055718D01*
X0128044Y0056176D01*
X0127807Y0056586D01*
X0127472Y0056921D01*
X0127268Y0057040D01*
X0127767Y0057539D01*
X0127767Y0061061D01*
X0127338Y0061490D01*
X0148991Y0083143D01*
X0153083Y0083143D01*
X0153858Y0082369D01*
X0156664Y0082369D01*
X0157801Y0081231D01*
X0157306Y0081726D02*
X0147573Y0081726D01*
X0145975Y0080127D02*
X0153038Y0080127D01*
X0153038Y0078529D02*
X0144376Y0078529D01*
X0142778Y0076930D02*
X0153038Y0076930D01*
X0153808Y0075332D02*
X0141179Y0075332D01*
X0139580Y0073733D02*
X0154600Y0073733D01*
X0154600Y0072134D02*
X0137982Y0072134D01*
X0136383Y0070536D02*
X0154600Y0070536D01*
X0154600Y0068937D02*
X0134785Y0068937D01*
X0133186Y0067339D02*
X0154600Y0067339D01*
X0154600Y0065740D02*
X0131588Y0065740D01*
X0129989Y0064142D02*
X0153304Y0064142D01*
X0152506Y0062543D02*
X0128391Y0062543D01*
X0127767Y0060945D02*
X0152506Y0060945D01*
X0152506Y0059346D02*
X0127767Y0059346D01*
X0127767Y0057748D02*
X0151172Y0057748D01*
X0149574Y0056149D02*
X0128051Y0056149D01*
X0128167Y0054551D02*
X0147975Y0054551D01*
X0146377Y0052952D02*
X0128167Y0052952D01*
X0128167Y0054300D02*
X0122036Y0054300D01*
X0128167Y0054300D01*
X0127474Y0051354D02*
X0144778Y0051354D01*
X0143180Y0049755D02*
X0127767Y0049755D01*
X0127767Y0048157D02*
X0141581Y0048157D01*
X0139982Y0046558D02*
X0127270Y0046558D01*
X0127767Y0044960D02*
X0138384Y0044960D01*
X0136785Y0043361D02*
X0127767Y0043361D01*
X0126991Y0041763D02*
X0135187Y0041763D01*
X0133588Y0040164D02*
X0124236Y0040164D01*
X0124236Y0038566D02*
X0131990Y0038566D01*
X0130391Y0036967D02*
X0124236Y0036967D01*
X0124236Y0035369D02*
X0128793Y0035369D01*
X0127194Y0033770D02*
X0124236Y0033770D01*
X0124236Y0032172D02*
X0125596Y0032172D01*
X0123997Y0030573D02*
X0122779Y0030573D01*
X0122399Y0028975D02*
X0121180Y0028975D01*
X0121442Y0027376D02*
X0119582Y0027376D01*
X0119843Y0025778D02*
X0117983Y0025778D01*
X0118245Y0024179D02*
X0116385Y0024179D01*
X0116153Y0022581D02*
X0116646Y0022581D01*
X0119672Y0019384D02*
X0122394Y0019384D01*
X0121270Y0020982D02*
X0123993Y0020982D01*
X0122869Y0022581D02*
X0125591Y0022581D01*
X0124467Y0024179D02*
X0127190Y0024179D01*
X0126066Y0025778D02*
X0128788Y0025778D01*
X0130387Y0027376D02*
X0127023Y0027376D01*
X0128621Y0028975D02*
X0131985Y0028975D01*
X0133584Y0030573D02*
X0130220Y0030573D01*
X0131818Y0032172D02*
X0135182Y0032172D01*
X0136781Y0033770D02*
X0133417Y0033770D01*
X0135015Y0035369D02*
X0138380Y0035369D01*
X0139978Y0036967D02*
X0136614Y0036967D01*
X0138212Y0038566D02*
X0141577Y0038566D01*
X0143175Y0040164D02*
X0139811Y0040164D01*
X0141409Y0041763D02*
X0144774Y0041763D01*
X0146372Y0043361D02*
X0143008Y0043361D01*
X0144606Y0044960D02*
X0147971Y0044960D01*
X0148546Y0045535D02*
X0116388Y0013377D01*
X0112795Y0013377D01*
X0111975Y0012557D01*
X0111975Y0006673D01*
X0112795Y0005853D01*
X0118679Y0005853D01*
X0119499Y0006673D01*
X0119499Y0010266D01*
X0150369Y0041135D01*
X0152506Y0041135D01*
X0152506Y0040256D01*
X0153326Y0039435D01*
X0160274Y0039435D01*
X0161094Y0040256D01*
X0161094Y0046415D01*
X0160274Y0047235D01*
X0153326Y0047235D01*
X0152506Y0046415D01*
X0152506Y0045535D01*
X0148546Y0045535D01*
X0149457Y0043335D02*
X0115737Y0009615D01*
X0111975Y0009793D02*
X0111625Y0009793D01*
X0111625Y0011391D02*
X0111975Y0011391D01*
X0112407Y0012990D02*
X0111193Y0012990D01*
X0107863Y0009615D02*
X0099525Y0009615D01*
X0083038Y0026102D01*
X0083038Y0027098D01*
X0066800Y0043335D01*
X0071094Y0043361D02*
X0085022Y0043361D01*
X0083614Y0044960D02*
X0071094Y0044960D01*
X0070951Y0046558D02*
X0083031Y0046558D01*
X0083031Y0048157D02*
X0003600Y0048157D01*
X0003600Y0049755D02*
X0083031Y0049755D01*
X0083177Y0051354D02*
X0003600Y0051354D01*
X0003600Y0052952D02*
X0083431Y0052952D01*
X0083431Y0054551D02*
X0003600Y0054551D01*
X0003600Y0056149D02*
X0083431Y0056149D01*
X0083431Y0057748D02*
X0071094Y0057748D01*
X0071094Y0059346D02*
X0095833Y0059346D01*
X0094409Y0057748D02*
X0090168Y0057748D01*
X0091808Y0060945D02*
X0071094Y0060945D01*
X0071094Y0062543D02*
X0090209Y0062543D01*
X0088611Y0064142D02*
X0070296Y0064142D01*
X0069000Y0065740D02*
X0087012Y0065740D01*
X0085414Y0067339D02*
X0069000Y0067339D01*
X0069000Y0068937D02*
X0083815Y0068937D01*
X0082217Y0070536D02*
X0069000Y0070536D01*
X0069000Y0072134D02*
X0080618Y0072134D01*
X0079019Y0073733D02*
X0073193Y0073733D01*
X0070343Y0076800D02*
X0079064Y0076800D01*
X0093983Y0061881D01*
X0106474Y0061881D01*
X0107294Y0061061D01*
X0107294Y0057539D01*
X0106474Y0056719D01*
X0103983Y0056719D01*
X0101564Y0054300D01*
X0099145Y0051881D01*
X0096653Y0051881D01*
X0083038Y0038266D01*
X0083038Y0033189D01*
X0083858Y0032369D01*
X0080838Y0033770D02*
X0079476Y0033770D01*
X0080838Y0035369D02*
X0077878Y0035369D01*
X0076279Y0036967D02*
X0080838Y0036967D01*
X0080838Y0038566D02*
X0074681Y0038566D01*
X0073082Y0040164D02*
X0081825Y0040164D01*
X0083424Y0041763D02*
X0071484Y0041763D01*
X0068458Y0038566D02*
X0003600Y0038566D01*
X0003600Y0040164D02*
X0062598Y0040164D01*
X0062506Y0041763D02*
X0003600Y0041763D01*
X0003600Y0043361D02*
X0062506Y0043361D01*
X0062506Y0044960D02*
X0003600Y0044960D01*
X0003600Y0046558D02*
X0062649Y0046558D01*
X0070057Y0036967D02*
X0003600Y0036967D01*
X0003600Y0035369D02*
X0071655Y0035369D01*
X0073254Y0033770D02*
X0003600Y0033770D01*
X0003600Y0032172D02*
X0074852Y0032172D01*
X0076451Y0030573D02*
X0003600Y0030573D01*
X0003600Y0028975D02*
X0078049Y0028975D01*
X0079648Y0027376D02*
X0003600Y0027376D01*
X0003600Y0025778D02*
X0080838Y0025778D01*
X0081849Y0024179D02*
X0003600Y0024179D01*
X0003600Y0022581D02*
X0083448Y0022581D01*
X0085046Y0020982D02*
X0003600Y0020982D01*
X0003600Y0019384D02*
X0086645Y0019384D01*
X0088243Y0017785D02*
X0003600Y0017785D01*
X0003600Y0016187D02*
X0089842Y0016187D01*
X0091440Y0014588D02*
X0003600Y0014588D01*
X0003600Y0012990D02*
X0093039Y0012990D01*
X0094637Y0011391D02*
X0003600Y0011391D01*
X0003600Y0009793D02*
X0096236Y0009793D01*
X0097834Y0008194D02*
X0003600Y0008194D01*
X0003600Y0006596D02*
X0104178Y0006596D01*
X0104533Y0012990D02*
X0099261Y0012990D01*
X0097663Y0014588D02*
X0117599Y0014588D01*
X0116475Y0016187D02*
X0119197Y0016187D01*
X0118073Y0017785D02*
X0120796Y0017785D01*
X0123821Y0014588D02*
X0244779Y0014588D01*
X0246377Y0012990D02*
X0122223Y0012990D01*
X0120624Y0011391D02*
X0247976Y0011391D01*
X0249101Y0009793D02*
X0119499Y0009793D01*
X0119499Y0008194D02*
X0249101Y0008194D01*
X0249178Y0006596D02*
X0119422Y0006596D01*
X0112052Y0006596D02*
X0111548Y0006596D01*
X0111625Y0008194D02*
X0111975Y0008194D01*
X0107125Y0016187D02*
X0096064Y0016187D01*
X0094466Y0017785D02*
X0105527Y0017785D01*
X0103928Y0019384D02*
X0092867Y0019384D01*
X0091269Y0020982D02*
X0102330Y0020982D01*
X0100731Y0022581D02*
X0089670Y0022581D01*
X0088072Y0024179D02*
X0099133Y0024179D01*
X0097534Y0025778D02*
X0090719Y0025778D01*
X0090962Y0027376D02*
X0095936Y0027376D01*
X0094337Y0028975D02*
X0090962Y0028975D01*
X0090962Y0028257D02*
X0086800Y0028257D01*
X0086800Y0028257D01*
X0090962Y0028257D01*
X0101564Y0032036D02*
X0101800Y0031800D01*
X0101564Y0032036D02*
X0101564Y0044300D01*
X0107294Y0052952D02*
X0114106Y0052952D01*
X0114106Y0054551D02*
X0107418Y0054551D01*
X0109016Y0056149D02*
X0114106Y0056149D01*
X0114881Y0057748D02*
X0109494Y0057748D01*
X0109494Y0059346D02*
X0116306Y0059346D01*
X0116306Y0060945D02*
X0109494Y0060945D01*
X0108923Y0062543D02*
X0119836Y0062543D01*
X0119836Y0064142D02*
X0102409Y0064142D01*
X0102335Y0064111D02*
X0103323Y0064520D01*
X0104080Y0065277D01*
X0104489Y0066265D01*
X0104489Y0067335D01*
X0104080Y0068323D01*
X0104000Y0068403D01*
X0104000Y0075282D01*
X0104742Y0075282D01*
X0105562Y0076102D01*
X0105562Y0080411D01*
X0104742Y0081231D01*
X0098858Y0081231D01*
X0098038Y0080411D01*
X0098038Y0076102D01*
X0098858Y0075282D01*
X0099600Y0075282D01*
X0099600Y0068403D01*
X0099520Y0068323D01*
X0099111Y0067335D01*
X0099111Y0066265D01*
X0099520Y0065277D01*
X0100277Y0064520D01*
X0101265Y0064111D01*
X0102335Y0064111D01*
X0101190Y0064142D02*
X0094833Y0064142D01*
X0093235Y0065740D02*
X0099328Y0065740D01*
X0099113Y0067339D02*
X0091636Y0067339D01*
X0090038Y0068937D02*
X0099600Y0068937D01*
X0099600Y0070536D02*
X0088439Y0070536D01*
X0086841Y0072134D02*
X0099600Y0072134D01*
X0099600Y0073733D02*
X0085242Y0073733D01*
X0083644Y0075332D02*
X0098808Y0075332D01*
X0098038Y0076930D02*
X0082045Y0076930D01*
X0080446Y0078529D02*
X0098038Y0078529D01*
X0098038Y0080127D02*
X0072933Y0080127D01*
X0067753Y0080127D02*
X0065847Y0080127D01*
X0066231Y0078529D02*
X0067369Y0078529D01*
X0067369Y0076930D02*
X0066238Y0076930D01*
X0063257Y0076800D02*
X0066800Y0073257D01*
X0066800Y0060265D01*
X0062506Y0060945D02*
X0003600Y0060945D01*
X0003600Y0062543D02*
X0062506Y0062543D01*
X0063304Y0064142D02*
X0003600Y0064142D01*
X0003600Y0065740D02*
X0064600Y0065740D01*
X0064600Y0067339D02*
X0003600Y0067339D01*
X0003600Y0068937D02*
X0064600Y0068937D01*
X0064600Y0070536D02*
X0003600Y0070536D01*
X0003600Y0072134D02*
X0064600Y0072134D01*
X0060407Y0073733D02*
X0003600Y0073733D01*
X0003600Y0075332D02*
X0060282Y0075332D01*
X0060282Y0076930D02*
X0003600Y0076930D01*
X0003600Y0078529D02*
X0060282Y0078529D01*
X0060667Y0080127D02*
X0003600Y0080127D01*
X0003600Y0081726D02*
X0108763Y0081726D01*
X0107165Y0083324D02*
X0105562Y0083324D01*
X0105562Y0084923D02*
X0105566Y0084923D01*
X0101800Y0085343D02*
X0088257Y0085343D01*
X0071800Y0101800D01*
X0076200Y0102506D02*
X0077400Y0102506D01*
X0077400Y0100908D02*
X0076200Y0100908D01*
X0076200Y0104105D02*
X0077400Y0104105D01*
X0077412Y0105703D02*
X0076188Y0105703D01*
X0075521Y0107302D02*
X0078079Y0107302D01*
X0080201Y0108900D02*
X0073399Y0108900D01*
X0070201Y0108900D02*
X0003600Y0108900D01*
X0003600Y0107302D02*
X0068079Y0107302D01*
X0067412Y0105703D02*
X0003600Y0105703D01*
X0003600Y0104105D02*
X0067400Y0104105D01*
X0067400Y0102506D02*
X0003600Y0102506D01*
X0003600Y0100908D02*
X0067400Y0100908D01*
X0067400Y0099309D02*
X0003600Y0099309D01*
X0003600Y0097711D02*
X0067489Y0097711D01*
X0068265Y0096112D02*
X0003600Y0096112D01*
X0003600Y0094514D02*
X0070650Y0094514D01*
X0072950Y0094514D02*
X0075975Y0094514D01*
X0077574Y0092915D02*
X0003600Y0092915D01*
X0003600Y0091317D02*
X0079172Y0091317D01*
X0080771Y0089718D02*
X0003600Y0089718D01*
X0003600Y0088120D02*
X0082369Y0088120D01*
X0083968Y0086521D02*
X0003600Y0086521D01*
X0003600Y0084923D02*
X0085566Y0084923D01*
X0087165Y0083324D02*
X0003600Y0083324D01*
X0003600Y0059346D02*
X0062506Y0059346D01*
X0062506Y0057748D02*
X0003600Y0057748D01*
X0003600Y0110499D02*
X0182819Y0110499D01*
X0182700Y0110786D02*
X0183476Y0108911D01*
X0184911Y0107476D01*
X0186786Y0106700D01*
X0188814Y0106700D01*
X0190689Y0107476D01*
X0192124Y0108911D01*
X0192800Y0110544D01*
X0193476Y0108911D01*
X0194911Y0107476D01*
X0196786Y0106700D01*
X0198814Y0106700D01*
X0200689Y0107476D01*
X0202124Y0108911D01*
X0202409Y0109600D01*
X0233211Y0109600D01*
X0246097Y0122485D01*
X0246786Y0122200D01*
X0248814Y0122200D01*
X0250689Y0122976D01*
X0252124Y0124411D01*
X0252900Y0126286D01*
X0252900Y0128314D01*
X0252124Y0130189D01*
X0250689Y0131624D01*
X0248814Y0132400D01*
X0246786Y0132400D01*
X0244911Y0131624D01*
X0243476Y0130189D01*
X0242800Y0128556D01*
X0242124Y0130189D01*
X0240689Y0131624D01*
X0238814Y0132400D01*
X0236786Y0132400D01*
X0234911Y0131624D01*
X0233476Y0130189D01*
X0232700Y0128314D01*
X0232700Y0126286D01*
X0233476Y0124411D01*
X0234911Y0122976D01*
X0236786Y0122200D01*
X0238814Y0122200D01*
X0240136Y0122748D01*
X0231389Y0114000D01*
X0202409Y0114000D01*
X0202124Y0114689D01*
X0200689Y0116124D01*
X0198814Y0116900D01*
X0196786Y0116900D01*
X0194911Y0116124D01*
X0193476Y0114689D01*
X0192800Y0113056D01*
X0192124Y0114689D01*
X0190689Y0116124D01*
X0188814Y0116900D01*
X0186786Y0116900D01*
X0184911Y0116124D01*
X0183476Y0114689D01*
X0182700Y0112814D01*
X0182700Y0110786D01*
X0182700Y0112097D02*
X0003600Y0112097D01*
X0003600Y0113696D02*
X0183065Y0113696D01*
X0184082Y0115294D02*
X0003600Y0115294D01*
X0003600Y0116893D02*
X0186768Y0116893D01*
X0188832Y0116893D02*
X0196768Y0116893D01*
X0198832Y0116893D02*
X0234282Y0116893D01*
X0235880Y0118491D02*
X0003600Y0118491D01*
X0003600Y0120090D02*
X0237479Y0120090D01*
X0239077Y0121688D02*
X0003600Y0121688D01*
X0003600Y0123287D02*
X0131369Y0123287D01*
X0130911Y0123476D02*
X0132786Y0122700D01*
X0134814Y0122700D01*
X0136689Y0123476D01*
X0138124Y0124911D01*
X0138800Y0126544D01*
X0139476Y0124911D01*
X0140911Y0123476D01*
X0142786Y0122700D01*
X0144814Y0122700D01*
X0146689Y0123476D01*
X0148124Y0124911D01*
X0148900Y0126786D01*
X0148900Y0128814D01*
X0148124Y0130689D01*
X0146689Y0132124D01*
X0144814Y0132900D01*
X0142786Y0132900D01*
X0140911Y0132124D01*
X0139476Y0130689D01*
X0138800Y0129056D01*
X0138124Y0130689D01*
X0136689Y0132124D01*
X0134814Y0132900D01*
X0132786Y0132900D01*
X0130911Y0132124D01*
X0129476Y0130689D01*
X0128700Y0128814D01*
X0128700Y0126786D01*
X0129476Y0124911D01*
X0130911Y0123476D01*
X0129502Y0124885D02*
X0003600Y0124885D01*
X0003600Y0126484D02*
X0128825Y0126484D01*
X0128700Y0128082D02*
X0003600Y0128082D01*
X0003600Y0129681D02*
X0129059Y0129681D01*
X0130067Y0131279D02*
X0003600Y0131279D01*
X0003600Y0132878D02*
X0132732Y0132878D01*
X0134868Y0132878D02*
X0142732Y0132878D01*
X0144868Y0132878D02*
X0294600Y0132878D01*
X0294600Y0134476D02*
X0003600Y0134476D01*
X0003600Y0136075D02*
X0293065Y0136075D01*
X0293038Y0137673D02*
X0003600Y0137673D01*
X0003600Y0139272D02*
X0293038Y0139272D01*
X0293497Y0140870D02*
X0003600Y0140870D01*
X0003600Y0142469D02*
X0293757Y0142469D01*
X0293858Y0142369D02*
X0299742Y0142369D01*
X0300562Y0143189D01*
X0300562Y0147498D01*
X0299742Y0148318D01*
X0293858Y0148318D01*
X0293083Y0147543D01*
X0233168Y0147543D01*
X0224464Y0156248D01*
X0225786Y0155700D01*
X0227814Y0155700D01*
X0229689Y0156476D01*
X0231124Y0157911D01*
X0231900Y0159786D01*
X0231900Y0161814D01*
X0231124Y0163689D01*
X0229689Y0165124D01*
X0227814Y0165900D01*
X0225786Y0165900D01*
X0223911Y0165124D01*
X0222476Y0163689D01*
X0221800Y0162056D01*
X0221124Y0163689D01*
X0219689Y0165124D01*
X0217814Y0165900D01*
X0215786Y0165900D01*
X0213911Y0165124D01*
X0212476Y0163689D01*
X0211700Y0161814D01*
X0211700Y0159786D01*
X0212476Y0157911D01*
X0213911Y0156476D01*
X0215786Y0155700D01*
X0217814Y0155700D01*
X0218503Y0155985D01*
X0231345Y0143143D01*
X0293083Y0143143D01*
X0293858Y0142369D01*
X0296800Y0145343D02*
X0232257Y0145343D01*
X0216800Y0160800D01*
X0212251Y0158454D02*
X0191470Y0158454D01*
X0192112Y0157811D02*
X0190824Y0159100D01*
X0172900Y0159100D01*
X0172900Y0160814D01*
X0172124Y0162689D01*
X0170689Y0164124D01*
X0168814Y0164900D01*
X0166786Y0164900D01*
X0164911Y0164124D01*
X0163476Y0162689D01*
X0162800Y0161056D01*
X0162124Y0162689D01*
X0160689Y0164124D01*
X0158814Y0164900D01*
X0156786Y0164900D01*
X0154911Y0164124D01*
X0153476Y0162689D01*
X0152700Y0160814D01*
X0152700Y0158786D01*
X0153476Y0156911D01*
X0154911Y0155476D01*
X0156786Y0154700D01*
X0158814Y0154700D01*
X0160689Y0155476D01*
X0162124Y0156911D01*
X0162800Y0158544D01*
X0163476Y0156911D01*
X0164911Y0155476D01*
X0166786Y0154700D01*
X0168814Y0154700D01*
X0169503Y0154985D01*
X0169789Y0154700D01*
X0183488Y0154700D01*
X0183476Y0154689D01*
X0182700Y0152814D01*
X0182700Y0150786D01*
X0183476Y0148911D01*
X0184911Y0147476D01*
X0186786Y0146700D01*
X0188814Y0146700D01*
X0190689Y0147476D01*
X0192124Y0148911D01*
X0192800Y0150544D01*
X0193476Y0148911D01*
X0194911Y0147476D01*
X0196786Y0146700D01*
X0198814Y0146700D01*
X0200689Y0147476D01*
X0202124Y0148911D01*
X0202900Y0150786D01*
X0202900Y0152814D01*
X0202124Y0154689D01*
X0200689Y0156124D01*
X0198814Y0156900D01*
X0196786Y0156900D01*
X0194911Y0156124D01*
X0194356Y0155568D01*
X0192112Y0157811D01*
X0192112Y0157811D01*
X0193068Y0156856D02*
X0196678Y0156856D01*
X0198922Y0156856D02*
X0213532Y0156856D01*
X0211700Y0160053D02*
X0172900Y0160053D01*
X0172553Y0161651D02*
X0211700Y0161651D01*
X0212294Y0163250D02*
X0171563Y0163250D01*
X0168940Y0164848D02*
X0213636Y0164848D01*
X0219964Y0164848D02*
X0223636Y0164848D01*
X0222294Y0163250D02*
X0221306Y0163250D01*
X0229964Y0164848D02*
X0266636Y0164848D01*
X0265976Y0164189D02*
X0265200Y0162314D01*
X0265200Y0160286D01*
X0265976Y0158411D01*
X0267411Y0156976D01*
X0269286Y0156200D01*
X0271314Y0156200D01*
X0273189Y0156976D01*
X0274624Y0158411D01*
X0275300Y0160044D01*
X0275976Y0158411D01*
X0277411Y0156976D01*
X0279286Y0156200D01*
X0281314Y0156200D01*
X0283189Y0156976D01*
X0284624Y0158411D01*
X0285400Y0160286D01*
X0285400Y0162314D01*
X0284624Y0164189D01*
X0283189Y0165624D01*
X0281314Y0166400D01*
X0279286Y0166400D01*
X0277411Y0165624D01*
X0275976Y0164189D01*
X0275300Y0162556D01*
X0274624Y0164189D01*
X0273189Y0165624D01*
X0271314Y0166400D01*
X0269286Y0166400D01*
X0267411Y0165624D01*
X0265976Y0164189D01*
X0265587Y0163250D02*
X0231306Y0163250D01*
X0231900Y0161651D02*
X0265200Y0161651D01*
X0265296Y0160053D02*
X0231900Y0160053D01*
X0231348Y0158454D02*
X0265959Y0158454D01*
X0267703Y0156856D02*
X0230068Y0156856D01*
X0227053Y0153659D02*
X0373993Y0153659D01*
X0375336Y0155001D02*
X0372615Y0152280D01*
X0371142Y0148724D01*
X0371142Y0144876D01*
X0372615Y0141320D01*
X0375336Y0138599D01*
X0378891Y0137126D01*
X0382740Y0137126D01*
X0386296Y0138599D01*
X0389017Y0141320D01*
X0390490Y0144876D01*
X0390490Y0148724D01*
X0389017Y0152280D01*
X0386296Y0155001D01*
X0382740Y0156474D01*
X0378891Y0156474D01*
X0375336Y0155001D01*
X0375954Y0155257D02*
X0357766Y0155257D01*
X0357729Y0155121D02*
X0357852Y0155579D01*
X0357852Y0159372D01*
X0352496Y0159372D01*
X0352496Y0160528D01*
X0351340Y0160528D01*
X0351340Y0165883D01*
X0347547Y0165883D01*
X0347089Y0165761D01*
X0346679Y0165524D01*
X0346344Y0165189D01*
X0346107Y0164778D01*
X0345984Y0164320D01*
X0345984Y0160528D01*
X0351340Y0160528D01*
X0351340Y0159372D01*
X0345984Y0159372D01*
X0345984Y0155579D01*
X0346107Y0155121D01*
X0346344Y0154711D01*
X0346679Y0154375D01*
X0347089Y0154138D01*
X0347547Y0154016D01*
X0351340Y0154016D01*
X0351340Y0159372D01*
X0352496Y0159372D01*
X0352496Y0154016D01*
X0356289Y0154016D01*
X0356747Y0154138D01*
X0357157Y0154375D01*
X0357492Y0154711D01*
X0357729Y0155121D01*
X0357852Y0156856D02*
X0393701Y0156856D01*
X0393701Y0158454D02*
X0357852Y0158454D01*
X0357852Y0160528D02*
X0352496Y0160528D01*
X0352496Y0165883D01*
X0356289Y0165883D01*
X0356747Y0165761D01*
X0357157Y0165524D01*
X0357492Y0165189D01*
X0357729Y0164778D01*
X0357852Y0164320D01*
X0357852Y0160528D01*
X0357852Y0161651D02*
X0393701Y0161651D01*
X0393701Y0160053D02*
X0352496Y0160053D01*
X0351340Y0160053D02*
X0285304Y0160053D01*
X0285400Y0161651D02*
X0345984Y0161651D01*
X0345984Y0163250D02*
X0285013Y0163250D01*
X0283964Y0164848D02*
X0346147Y0164848D01*
X0351340Y0164848D02*
X0352496Y0164848D01*
X0352496Y0163250D02*
X0351340Y0163250D01*
X0351340Y0161651D02*
X0352496Y0161651D01*
X0352496Y0158454D02*
X0351340Y0158454D01*
X0351340Y0156856D02*
X0352496Y0156856D01*
X0352496Y0155257D02*
X0351340Y0155257D01*
X0346070Y0155257D02*
X0225454Y0155257D01*
X0222429Y0152060D02*
X0202900Y0152060D01*
X0202766Y0150462D02*
X0224027Y0150462D01*
X0225626Y0148863D02*
X0202076Y0148863D01*
X0200177Y0147265D02*
X0227224Y0147265D01*
X0228823Y0145666D02*
X0003600Y0145666D01*
X0003600Y0144068D02*
X0230421Y0144068D01*
X0231848Y0148863D02*
X0317983Y0148863D01*
X0317250Y0147265D02*
X0300562Y0147265D01*
X0300562Y0145666D02*
X0317250Y0145666D01*
X0317250Y0144068D02*
X0300562Y0144068D01*
X0299843Y0142469D02*
X0316758Y0142469D01*
X0315159Y0140870D02*
X0300103Y0140870D01*
X0296800Y0138257D02*
X0296800Y0126260D01*
X0294600Y0128082D02*
X0252900Y0128082D01*
X0252900Y0126484D02*
X0293912Y0126484D01*
X0292314Y0124885D02*
X0252320Y0124885D01*
X0250999Y0123287D02*
X0290715Y0123287D01*
X0289117Y0121688D02*
X0245300Y0121688D01*
X0243701Y0120090D02*
X0287518Y0120090D01*
X0287400Y0118491D02*
X0242103Y0118491D01*
X0240504Y0116893D02*
X0287400Y0116893D01*
X0287400Y0115294D02*
X0238906Y0115294D01*
X0237307Y0113696D02*
X0287400Y0113696D01*
X0287400Y0112097D02*
X0235709Y0112097D01*
X0234110Y0110499D02*
X0287400Y0110499D01*
X0287400Y0108900D02*
X0202113Y0108900D01*
X0200267Y0107302D02*
X0287400Y0107302D01*
X0287400Y0105703D02*
X0096188Y0105703D01*
X0096200Y0104105D02*
X0287400Y0104105D01*
X0287400Y0102506D02*
X0096200Y0102506D01*
X0096200Y0100908D02*
X0287400Y0100908D01*
X0286198Y0099309D02*
X0097402Y0099309D01*
X0099001Y0097711D02*
X0268488Y0097711D01*
X0267581Y0096112D02*
X0100599Y0096112D01*
X0102198Y0094514D02*
X0267400Y0094514D01*
X0267400Y0092915D02*
X0103796Y0092915D01*
X0105395Y0091317D02*
X0267400Y0091317D01*
X0266607Y0089718D02*
X0106993Y0089718D01*
X0108592Y0088120D02*
X0153659Y0088120D01*
X0159941Y0088120D02*
X0265008Y0088120D01*
X0265562Y0085562D02*
X0243189Y0085562D01*
X0239426Y0081800D01*
X0238257Y0081800D01*
X0235282Y0081726D02*
X0220562Y0081726D01*
X0220562Y0080127D02*
X0235282Y0080127D01*
X0235417Y0078529D02*
X0221726Y0078529D01*
X0223325Y0076930D02*
X0233819Y0076930D01*
X0232220Y0075332D02*
X0224923Y0075332D01*
X0226522Y0073733D02*
X0229930Y0073733D01*
X0229111Y0072134D02*
X0228120Y0072134D01*
X0231800Y0071800D02*
X0238038Y0078038D01*
X0240411Y0078038D01*
X0244174Y0081800D01*
X0245343Y0081800D01*
X0248318Y0080127D02*
X0284752Y0080127D01*
X0283154Y0078529D02*
X0247989Y0078529D01*
X0249930Y0073733D02*
X0236844Y0073733D01*
X0235246Y0072134D02*
X0249111Y0072134D01*
X0249413Y0070536D02*
X0234187Y0070536D01*
X0231317Y0068937D02*
X0249600Y0068937D01*
X0249600Y0067339D02*
X0232916Y0067339D01*
X0229890Y0064142D02*
X0219000Y0064142D01*
X0219000Y0065740D02*
X0228292Y0065740D01*
X0226693Y0067339D02*
X0219000Y0067339D01*
X0219000Y0068937D02*
X0225095Y0068937D01*
X0223496Y0070536D02*
X0219996Y0070536D01*
X0220562Y0072134D02*
X0221898Y0072134D01*
X0216800Y0073257D02*
X0216800Y0055265D01*
X0221094Y0054551D02*
X0228031Y0054551D01*
X0228031Y0053269D02*
X0228031Y0051051D01*
X0228154Y0050593D01*
X0228391Y0050183D01*
X0228726Y0049848D01*
X0229137Y0049611D01*
X0229595Y0049488D01*
X0231616Y0049488D01*
X0231616Y0053269D01*
X0228031Y0053269D01*
X0228031Y0052952D02*
X0221094Y0052952D01*
X0221094Y0056149D02*
X0228110Y0056149D01*
X0228431Y0057748D02*
X0221094Y0057748D01*
X0219000Y0059346D02*
X0228431Y0059346D01*
X0228431Y0060945D02*
X0219000Y0060945D01*
X0219000Y0062543D02*
X0228431Y0062543D01*
X0231800Y0060146D02*
X0232646Y0059300D01*
X0246564Y0059300D01*
X0248983Y0056719D02*
X0246564Y0054300D01*
X0248983Y0056719D02*
X0251474Y0056719D01*
X0252294Y0057539D01*
X0252294Y0061061D01*
X0249644Y0063712D01*
X0240921Y0056149D02*
X0235490Y0056149D01*
X0235568Y0054551D02*
X0240833Y0054551D01*
X0240833Y0052952D02*
X0235568Y0052952D01*
X0235568Y0051354D02*
X0241126Y0051354D01*
X0240833Y0049755D02*
X0234714Y0049755D01*
X0231984Y0049755D02*
X0231616Y0049755D01*
X0231616Y0051354D02*
X0231984Y0051354D01*
X0231984Y0052952D02*
X0231616Y0052952D01*
X0228031Y0051354D02*
X0151001Y0051354D01*
X0152599Y0052952D02*
X0212506Y0052952D01*
X0212506Y0054551D02*
X0154198Y0054551D01*
X0155796Y0056149D02*
X0212506Y0056149D01*
X0212506Y0057748D02*
X0161094Y0057748D01*
X0161094Y0059346D02*
X0214600Y0059346D01*
X0214600Y0060945D02*
X0161094Y0060945D01*
X0161094Y0062543D02*
X0214600Y0062543D01*
X0214600Y0064142D02*
X0160296Y0064142D01*
X0159000Y0065740D02*
X0214600Y0065740D01*
X0214600Y0067339D02*
X0159000Y0067339D01*
X0159000Y0068937D02*
X0214600Y0068937D01*
X0213038Y0078529D02*
X0166726Y0078529D01*
X0165128Y0080127D02*
X0213038Y0080127D01*
X0213038Y0081726D02*
X0163529Y0081726D01*
X0161930Y0083324D02*
X0235282Y0083324D01*
X0235462Y0084923D02*
X0160562Y0084923D01*
X0160562Y0086521D02*
X0241036Y0086521D01*
X0242415Y0076930D02*
X0281555Y0076930D01*
X0279956Y0075332D02*
X0238443Y0075332D01*
X0265562Y0085562D02*
X0271800Y0091800D01*
X0276200Y0091317D02*
X0277400Y0091317D01*
X0277400Y0092915D02*
X0276200Y0092915D01*
X0276200Y0094514D02*
X0277400Y0094514D01*
X0277581Y0096112D02*
X0276019Y0096112D01*
X0275112Y0097711D02*
X0278488Y0097711D01*
X0277400Y0089718D02*
X0276200Y0089718D01*
X0276200Y0088120D02*
X0277400Y0088120D01*
X0277981Y0086521D02*
X0275619Y0086521D01*
X0273937Y0084923D02*
X0279663Y0084923D01*
X0269663Y0084923D02*
X0268034Y0084923D01*
X0267762Y0084651D02*
X0267762Y0084651D01*
X0281383Y0070536D02*
X0294600Y0070536D01*
X0294600Y0072134D02*
X0282982Y0072134D01*
X0284580Y0073733D02*
X0294600Y0073733D01*
X0294600Y0075332D02*
X0286179Y0075332D01*
X0287778Y0076930D02*
X0294600Y0076930D01*
X0294600Y0078529D02*
X0289376Y0078529D01*
X0290975Y0080127D02*
X0294600Y0080127D01*
X0294600Y0081726D02*
X0292573Y0081726D01*
X0294000Y0083324D02*
X0294600Y0083324D01*
X0294600Y0084923D02*
X0294000Y0084923D01*
X0291800Y0084064D02*
X0291800Y0091800D01*
X0291800Y0115343D01*
X0296800Y0120343D01*
X0320657Y0120343D01*
X0321800Y0119200D01*
X0317607Y0123287D02*
X0299773Y0123287D01*
X0296461Y0116893D02*
X0317250Y0116893D01*
X0300562Y0112097D02*
X0393701Y0112097D01*
X0393701Y0110499D02*
X0299959Y0110499D01*
X0296800Y0113257D02*
X0296800Y0050265D01*
X0299000Y0054551D02*
X0319600Y0054551D01*
X0319600Y0056149D02*
X0299000Y0056149D01*
X0299000Y0057748D02*
X0319600Y0057748D01*
X0319600Y0059346D02*
X0299000Y0059346D01*
X0299000Y0060945D02*
X0319600Y0060945D01*
X0319600Y0062543D02*
X0299000Y0062543D01*
X0294600Y0062543D02*
X0289168Y0062543D01*
X0290766Y0060945D02*
X0294600Y0060945D01*
X0294600Y0059346D02*
X0292365Y0059346D01*
X0293963Y0057748D02*
X0294600Y0057748D01*
X0294600Y0064142D02*
X0287569Y0064142D01*
X0285971Y0065740D02*
X0294600Y0065740D01*
X0294600Y0067339D02*
X0284487Y0067339D01*
X0283465Y0068937D02*
X0294600Y0068937D01*
X0280135Y0068937D02*
X0279785Y0068937D01*
X0279113Y0067339D02*
X0278186Y0067339D01*
X0267036Y0054300D02*
X0267036Y0054300D01*
X0261803Y0046558D02*
X0254908Y0046558D01*
X0254055Y0044300D02*
X0251474Y0046881D01*
X0248983Y0046881D01*
X0246564Y0049300D01*
X0240833Y0048157D02*
X0147804Y0048157D01*
X0149402Y0049755D02*
X0228886Y0049755D01*
X0229559Y0043361D02*
X0161094Y0043361D01*
X0161094Y0041763D02*
X0212854Y0041763D01*
X0212506Y0040164D02*
X0161002Y0040164D01*
X0156800Y0043335D02*
X0149457Y0043335D01*
X0149398Y0040164D02*
X0152598Y0040164D01*
X0147799Y0038566D02*
X0212506Y0038566D01*
X0212506Y0036967D02*
X0146201Y0036967D01*
X0144602Y0035369D02*
X0212506Y0035369D01*
X0216800Y0038335D02*
X0227369Y0027767D01*
X0227369Y0018858D01*
X0228189Y0018038D01*
X0226929Y0016187D02*
X0125420Y0016187D01*
X0127018Y0017785D02*
X0220944Y0017785D01*
X0220987Y0017760D02*
X0221445Y0017638D01*
X0223257Y0017638D01*
X0223257Y0021800D01*
X0223257Y0021800D01*
X0223257Y0021800D01*
X0223257Y0025962D01*
X0221445Y0025962D01*
X0220987Y0025840D01*
X0220577Y0025603D01*
X0220242Y0025267D01*
X0220005Y0024857D01*
X0219882Y0024399D01*
X0219882Y0021800D01*
X0219882Y0019201D01*
X0220005Y0018743D01*
X0220242Y0018333D01*
X0220577Y0017997D01*
X0220987Y0017760D01*
X0219882Y0019384D02*
X0128617Y0019384D01*
X0130215Y0020982D02*
X0219882Y0020982D01*
X0219882Y0021800D02*
X0223257Y0021800D01*
X0223257Y0021800D01*
X0219882Y0021800D01*
X0219882Y0022581D02*
X0131814Y0022581D01*
X0133412Y0024179D02*
X0219882Y0024179D01*
X0220880Y0025778D02*
X0135011Y0025778D01*
X0136609Y0027376D02*
X0224648Y0027376D01*
X0223257Y0025778D02*
X0223257Y0025778D01*
X0223257Y0024179D02*
X0223257Y0024179D01*
X0223257Y0022581D02*
X0223257Y0022581D01*
X0223257Y0020982D02*
X0223257Y0020982D01*
X0223257Y0019384D02*
X0223257Y0019384D01*
X0223257Y0017785D02*
X0223257Y0017785D01*
X0229568Y0025778D02*
X0252447Y0025778D01*
X0254600Y0027376D02*
X0229568Y0027376D01*
X0229272Y0028975D02*
X0254600Y0028975D01*
X0254600Y0030573D02*
X0227673Y0030573D01*
X0226075Y0032172D02*
X0254600Y0032172D01*
X0254600Y0033770D02*
X0224476Y0033770D01*
X0222878Y0035369D02*
X0254600Y0035369D01*
X0254600Y0036967D02*
X0221279Y0036967D01*
X0221094Y0038566D02*
X0254600Y0038566D01*
X0254600Y0040164D02*
X0245539Y0040164D01*
X0244064Y0041800D02*
X0246564Y0044300D01*
X0244064Y0041800D02*
X0231800Y0041800D01*
X0229111Y0041763D02*
X0220746Y0041763D01*
X0221094Y0040164D02*
X0229633Y0040164D01*
X0219852Y0032172D02*
X0141405Y0032172D01*
X0143004Y0033770D02*
X0218254Y0033770D01*
X0221451Y0030573D02*
X0139807Y0030573D01*
X0138208Y0028975D02*
X0223049Y0028975D01*
X0240833Y0044960D02*
X0161094Y0044960D01*
X0160951Y0046558D02*
X0241330Y0046558D01*
X0251518Y0041763D02*
X0254600Y0041763D01*
X0254055Y0044300D02*
X0256800Y0044300D01*
X0256800Y0022706D01*
X0252447Y0019384D02*
X0246206Y0019384D01*
X0256625Y0008194D02*
X0256975Y0008194D01*
X0257052Y0006596D02*
X0256548Y0006596D01*
X0264422Y0006596D02*
X0393701Y0006596D01*
X0393701Y0008194D02*
X0274770Y0008194D01*
X0276368Y0009793D02*
X0393701Y0009793D01*
X0393701Y0011391D02*
X0277967Y0011391D01*
X0292506Y0035369D02*
X0259000Y0035369D01*
X0259000Y0036967D02*
X0293058Y0036967D01*
X0300542Y0036967D02*
X0372346Y0036967D01*
X0373566Y0035369D02*
X0326350Y0035369D01*
X0326350Y0033770D02*
X0346790Y0033770D01*
X0346384Y0032172D02*
X0326350Y0032172D01*
X0324950Y0028650D02*
X0321800Y0031800D01*
X0324950Y0028650D02*
X0351918Y0028650D01*
X0357452Y0028975D02*
X0393701Y0028975D01*
X0393701Y0030573D02*
X0357452Y0030573D01*
X0357452Y0032172D02*
X0378781Y0032172D01*
X0375164Y0033770D02*
X0357046Y0033770D01*
X0357452Y0027376D02*
X0393701Y0027376D01*
X0393701Y0025778D02*
X0357452Y0025778D01*
X0357452Y0024179D02*
X0393701Y0024179D01*
X0393701Y0022581D02*
X0326350Y0022581D01*
X0326350Y0020982D02*
X0393701Y0020982D01*
X0393701Y0019384D02*
X0326350Y0019384D01*
X0326350Y0017785D02*
X0393701Y0017785D01*
X0393701Y0016187D02*
X0326350Y0016187D01*
X0357852Y0057748D02*
X0393701Y0057748D01*
X0393701Y0059346D02*
X0357845Y0059346D01*
X0325562Y0076930D02*
X0393701Y0076930D01*
X0393701Y0075332D02*
X0324792Y0075332D01*
X0324000Y0073733D02*
X0393701Y0073733D01*
X0393701Y0072134D02*
X0324000Y0072134D01*
X0324000Y0070536D02*
X0393701Y0070536D01*
X0393701Y0068937D02*
X0324000Y0068937D01*
X0324000Y0067339D02*
X0393701Y0067339D01*
X0393701Y0065740D02*
X0324000Y0065740D01*
X0324000Y0064142D02*
X0393701Y0064142D01*
X0393701Y0062543D02*
X0324000Y0062543D01*
X0324000Y0060945D02*
X0393701Y0060945D01*
X0393701Y0049755D02*
X0386542Y0049755D01*
X0388140Y0048157D02*
X0393701Y0048157D01*
X0393701Y0046558D02*
X0389316Y0046558D01*
X0389978Y0044960D02*
X0393701Y0044960D01*
X0393701Y0043361D02*
X0390490Y0043361D01*
X0390490Y0041763D02*
X0393701Y0041763D01*
X0393701Y0040164D02*
X0390490Y0040164D01*
X0389947Y0038566D02*
X0393701Y0038566D01*
X0393701Y0036967D02*
X0389285Y0036967D01*
X0388066Y0035369D02*
X0393701Y0035369D01*
X0393701Y0033770D02*
X0386467Y0033770D01*
X0382850Y0032172D02*
X0393701Y0032172D01*
X0393701Y0004997D02*
X0003600Y0004997D01*
X0003600Y0003600D02*
X0003600Y0314961D01*
X0393701Y0314961D01*
X0393701Y0003600D01*
X0003600Y0003600D01*
X0086800Y0055146D02*
X0094919Y0055146D01*
X0096653Y0056881D01*
X0099145Y0056881D01*
X0101564Y0059300D01*
X0104272Y0065740D02*
X0119836Y0065740D01*
X0119836Y0067339D02*
X0104487Y0067339D01*
X0104000Y0068937D02*
X0119836Y0068937D01*
X0119836Y0070536D02*
X0104000Y0070536D01*
X0104000Y0072134D02*
X0118354Y0072134D01*
X0116756Y0073733D02*
X0104000Y0073733D01*
X0104792Y0075332D02*
X0115157Y0075332D01*
X0113559Y0076930D02*
X0105562Y0076930D01*
X0105562Y0078529D02*
X0111960Y0078529D01*
X0110362Y0080127D02*
X0105562Y0080127D01*
X0101800Y0078257D02*
X0101800Y0066800D01*
X0118183Y0078529D02*
X0138154Y0078529D01*
X0139752Y0080127D02*
X0116584Y0080127D01*
X0114986Y0081726D02*
X0141351Y0081726D01*
X0142949Y0083324D02*
X0113387Y0083324D01*
X0111789Y0084923D02*
X0144548Y0084923D01*
X0146146Y0086521D02*
X0110190Y0086521D01*
X0100771Y0089718D02*
X0086993Y0089718D01*
X0085395Y0091317D02*
X0099172Y0091317D01*
X0097574Y0092915D02*
X0083796Y0092915D01*
X0082950Y0094514D02*
X0090650Y0094514D01*
X0092950Y0094514D02*
X0095975Y0094514D01*
X0098659Y0088120D02*
X0088592Y0088120D01*
X0088265Y0096112D02*
X0085335Y0096112D01*
X0086111Y0097711D02*
X0087489Y0097711D01*
X0087400Y0099309D02*
X0086200Y0099309D01*
X0086200Y0100908D02*
X0087400Y0100908D01*
X0087400Y0102506D02*
X0086200Y0102506D01*
X0086200Y0104105D02*
X0087400Y0104105D01*
X0087412Y0105703D02*
X0086188Y0105703D01*
X0085521Y0107302D02*
X0088079Y0107302D01*
X0090201Y0108900D02*
X0083399Y0108900D01*
X0093399Y0108900D02*
X0183487Y0108900D01*
X0185333Y0107302D02*
X0095521Y0107302D01*
X0091800Y0101800D02*
X0122036Y0071564D01*
X0122036Y0059300D01*
X0122036Y0054300D02*
X0122036Y0054300D01*
X0119617Y0046719D02*
X0122036Y0044300D01*
X0122036Y0032942D01*
X0111800Y0022706D01*
X0146205Y0046558D02*
X0152649Y0046558D01*
X0128562Y0068937D02*
X0124236Y0068937D01*
X0124236Y0067339D02*
X0126964Y0067339D01*
X0125365Y0065740D02*
X0124236Y0065740D01*
X0124236Y0070536D02*
X0130161Y0070536D01*
X0131759Y0072134D02*
X0124236Y0072134D01*
X0122978Y0073733D02*
X0133358Y0073733D01*
X0134956Y0075332D02*
X0121380Y0075332D01*
X0119781Y0076930D02*
X0136555Y0076930D01*
X0159000Y0073733D02*
X0165299Y0073733D01*
X0163701Y0075332D02*
X0159792Y0075332D01*
X0160562Y0076930D02*
X0162102Y0076930D01*
X0159000Y0072134D02*
X0166898Y0072134D01*
X0168496Y0070536D02*
X0159000Y0070536D01*
X0190267Y0107302D02*
X0195333Y0107302D01*
X0193487Y0108900D02*
X0192113Y0108900D01*
X0192781Y0110499D02*
X0192819Y0110499D01*
X0193065Y0113696D02*
X0192535Y0113696D01*
X0191518Y0115294D02*
X0194082Y0115294D01*
X0197800Y0111800D02*
X0232300Y0111800D01*
X0247800Y0127300D01*
X0243266Y0129681D02*
X0242334Y0129681D01*
X0241033Y0131279D02*
X0244567Y0131279D01*
X0251033Y0131279D02*
X0294600Y0131279D01*
X0294600Y0129681D02*
X0252334Y0129681D01*
X0234567Y0131279D02*
X0147533Y0131279D01*
X0148541Y0129681D02*
X0233266Y0129681D01*
X0232700Y0128082D02*
X0148900Y0128082D01*
X0148775Y0126484D02*
X0232700Y0126484D01*
X0233280Y0124885D02*
X0148098Y0124885D01*
X0146231Y0123287D02*
X0234601Y0123287D01*
X0232683Y0115294D02*
X0201518Y0115294D01*
X0195423Y0147265D02*
X0190177Y0147265D01*
X0192076Y0148863D02*
X0193524Y0148863D01*
X0192834Y0150462D02*
X0192766Y0150462D01*
X0195012Y0151800D02*
X0189912Y0156900D01*
X0170700Y0156900D01*
X0167800Y0159800D01*
X0163047Y0161651D02*
X0162553Y0161651D01*
X0161563Y0163250D02*
X0164037Y0163250D01*
X0166660Y0164848D02*
X0158940Y0164848D01*
X0156660Y0164848D02*
X0116900Y0164848D01*
X0116900Y0165314D02*
X0116124Y0167189D01*
X0114689Y0168624D01*
X0112814Y0169400D01*
X0110786Y0169400D01*
X0108911Y0168624D01*
X0107476Y0167189D01*
X0106800Y0165556D01*
X0106124Y0167189D01*
X0104689Y0168624D01*
X0102814Y0169400D01*
X0100786Y0169400D01*
X0098911Y0168624D01*
X0097476Y0167189D01*
X0096700Y0165314D01*
X0096700Y0163286D01*
X0097476Y0161411D01*
X0098911Y0159976D01*
X0100786Y0159200D01*
X0102814Y0159200D01*
X0104689Y0159976D01*
X0106124Y0161411D01*
X0106800Y0163044D01*
X0107476Y0161411D01*
X0108911Y0159976D01*
X0110786Y0159200D01*
X0112814Y0159200D01*
X0114689Y0159976D01*
X0116124Y0161411D01*
X0116900Y0163286D01*
X0116900Y0165314D01*
X0116431Y0166447D02*
X0393701Y0166447D01*
X0393701Y0168045D02*
X0115267Y0168045D01*
X0116885Y0163250D02*
X0154037Y0163250D01*
X0153047Y0161651D02*
X0116223Y0161651D01*
X0114765Y0160053D02*
X0152700Y0160053D01*
X0152837Y0158454D02*
X0003600Y0158454D01*
X0003600Y0156856D02*
X0153532Y0156856D01*
X0155441Y0155257D02*
X0003600Y0155257D01*
X0003600Y0153659D02*
X0183050Y0153659D01*
X0182700Y0152060D02*
X0003600Y0152060D01*
X0003600Y0150462D02*
X0182834Y0150462D01*
X0183524Y0148863D02*
X0003600Y0148863D01*
X0003600Y0147265D02*
X0185423Y0147265D01*
X0195012Y0151800D02*
X0197800Y0151800D01*
X0202550Y0153659D02*
X0220830Y0153659D01*
X0219232Y0155257D02*
X0201555Y0155257D01*
X0228651Y0152060D02*
X0372523Y0152060D01*
X0371861Y0150462D02*
X0230250Y0150462D01*
X0233786Y0175200D02*
X0235814Y0175200D01*
X0237689Y0175976D01*
X0239124Y0177411D01*
X0239800Y0179044D01*
X0240476Y0177411D01*
X0241911Y0175976D01*
X0243786Y0175200D01*
X0245814Y0175200D01*
X0247689Y0175976D01*
X0249124Y0177411D01*
X0249900Y0179286D01*
X0249900Y0181314D01*
X0249124Y0183189D01*
X0247689Y0184624D01*
X0245814Y0185400D01*
X0243786Y0185400D01*
X0241911Y0184624D01*
X0240476Y0183189D01*
X0239800Y0181556D01*
X0239124Y0183189D01*
X0237689Y0184624D01*
X0235814Y0185400D01*
X0233786Y0185400D01*
X0231911Y0184624D01*
X0230476Y0183189D01*
X0229700Y0181314D01*
X0229700Y0179286D01*
X0230476Y0177411D01*
X0231911Y0175976D01*
X0233786Y0175200D01*
X0231850Y0176038D02*
X0150130Y0176038D01*
X0149314Y0175700D02*
X0151189Y0176476D01*
X0152624Y0177911D01*
X0153400Y0179786D01*
X0153400Y0181814D01*
X0152624Y0183689D01*
X0151189Y0185124D01*
X0149314Y0185900D01*
X0147286Y0185900D01*
X0145411Y0185124D01*
X0143976Y0183689D01*
X0143300Y0182056D01*
X0142624Y0183689D01*
X0141189Y0185124D01*
X0139314Y0185900D01*
X0137286Y0185900D01*
X0135411Y0185124D01*
X0133976Y0183689D01*
X0133200Y0181814D01*
X0133200Y0179786D01*
X0133976Y0177911D01*
X0135411Y0176476D01*
X0137286Y0175700D01*
X0139314Y0175700D01*
X0141189Y0176476D01*
X0142624Y0177911D01*
X0143300Y0179544D01*
X0143976Y0177911D01*
X0145411Y0176476D01*
X0147286Y0175700D01*
X0149314Y0175700D01*
X0146470Y0176038D02*
X0140130Y0176038D01*
X0142349Y0177636D02*
X0144251Y0177636D01*
X0143428Y0179235D02*
X0143172Y0179235D01*
X0143144Y0182432D02*
X0143456Y0182432D01*
X0144318Y0184030D02*
X0142282Y0184030D01*
X0139969Y0185629D02*
X0146631Y0185629D01*
X0149969Y0185629D02*
X0393701Y0185629D01*
X0393701Y0187227D02*
X0003600Y0187227D01*
X0003600Y0185629D02*
X0136631Y0185629D01*
X0134318Y0184030D02*
X0003600Y0184030D01*
X0003600Y0182432D02*
X0133456Y0182432D01*
X0133200Y0180833D02*
X0003600Y0180833D01*
X0003600Y0179235D02*
X0133428Y0179235D01*
X0134251Y0177636D02*
X0003600Y0177636D01*
X0003600Y0176038D02*
X0136470Y0176038D01*
X0152349Y0177636D02*
X0230383Y0177636D01*
X0229721Y0179235D02*
X0153172Y0179235D01*
X0153400Y0180833D02*
X0229700Y0180833D01*
X0230163Y0182432D02*
X0153144Y0182432D01*
X0152282Y0184030D02*
X0231318Y0184030D01*
X0238282Y0184030D02*
X0241318Y0184030D01*
X0240163Y0182432D02*
X0239437Y0182432D01*
X0239217Y0177636D02*
X0240383Y0177636D01*
X0241850Y0176038D02*
X0237750Y0176038D01*
X0247750Y0176038D02*
X0393701Y0176038D01*
X0393701Y0177636D02*
X0249217Y0177636D01*
X0249879Y0179235D02*
X0393701Y0179235D01*
X0393701Y0180833D02*
X0249900Y0180833D01*
X0249437Y0182432D02*
X0393701Y0182432D01*
X0393701Y0184030D02*
X0248282Y0184030D01*
X0250786Y0201700D02*
X0252814Y0201700D01*
X0254689Y0202476D01*
X0256124Y0203911D01*
X0256900Y0205786D01*
X0256900Y0207814D01*
X0256124Y0209689D01*
X0254689Y0211124D01*
X0252814Y0211900D01*
X0250786Y0211900D01*
X0248911Y0211124D01*
X0247476Y0209689D01*
X0246800Y0208056D01*
X0246124Y0209689D01*
X0244689Y0211124D01*
X0242814Y0211900D01*
X0240786Y0211900D01*
X0238911Y0211124D01*
X0237476Y0209689D01*
X0236700Y0207814D01*
X0236700Y0205786D01*
X0237476Y0203911D01*
X0238911Y0202476D01*
X0240786Y0201700D01*
X0242814Y0201700D01*
X0244689Y0202476D01*
X0246124Y0203911D01*
X0246800Y0205544D01*
X0247476Y0203911D01*
X0248911Y0202476D01*
X0250786Y0201700D01*
X0248175Y0203212D02*
X0245425Y0203212D01*
X0246496Y0204811D02*
X0247104Y0204811D01*
X0247442Y0209606D02*
X0246158Y0209606D01*
X0244492Y0211205D02*
X0249108Y0211205D01*
X0254492Y0211205D02*
X0280315Y0211205D01*
X0280786Y0211400D02*
X0278911Y0210624D01*
X0277476Y0209189D01*
X0276700Y0207314D01*
X0276700Y0205286D01*
X0277476Y0203411D01*
X0278911Y0201976D01*
X0280786Y0201200D01*
X0282814Y0201200D01*
X0284689Y0201976D01*
X0286124Y0203411D01*
X0286590Y0204537D01*
X0286703Y0204189D01*
X0287096Y0203417D01*
X0287605Y0202717D01*
X0288217Y0202105D01*
X0288917Y0201596D01*
X0289689Y0201203D01*
X0290512Y0200935D01*
X0291367Y0200800D01*
X0291800Y0200800D01*
X0292233Y0200800D01*
X0293088Y0200935D01*
X0293911Y0201203D01*
X0294683Y0201596D01*
X0295383Y0202105D01*
X0295995Y0202717D01*
X0296504Y0203417D01*
X0296897Y0204189D01*
X0297165Y0205012D01*
X0297300Y0205867D01*
X0297300Y0206300D01*
X0297300Y0206733D01*
X0297165Y0207588D01*
X0296897Y0208411D01*
X0296504Y0209183D01*
X0295995Y0209883D01*
X0295383Y0210495D01*
X0294683Y0211004D01*
X0293911Y0211397D01*
X0293088Y0211665D01*
X0292233Y0211800D01*
X0291800Y0211800D01*
X0291800Y0206300D01*
X0297300Y0206300D01*
X0291800Y0206300D01*
X0291800Y0206300D01*
X0291800Y0206300D01*
X0291800Y0200800D01*
X0291800Y0206300D01*
X0291800Y0206300D01*
X0291800Y0211800D01*
X0291367Y0211800D01*
X0290512Y0211665D01*
X0289689Y0211397D01*
X0288917Y0211004D01*
X0288217Y0210495D01*
X0287605Y0209883D01*
X0287096Y0209183D01*
X0286703Y0208411D01*
X0286590Y0208063D01*
X0286124Y0209189D01*
X0284689Y0210624D01*
X0282814Y0211400D01*
X0280786Y0211400D01*
X0283285Y0211205D02*
X0289312Y0211205D01*
X0291800Y0211205D02*
X0291800Y0211205D01*
X0291800Y0209606D02*
X0291800Y0209606D01*
X0291800Y0208008D02*
X0291800Y0208008D01*
X0291800Y0206409D02*
X0291800Y0206409D01*
X0291800Y0204811D02*
X0291800Y0204811D01*
X0291800Y0203212D02*
X0291800Y0203212D01*
X0291800Y0201614D02*
X0291800Y0201614D01*
X0294707Y0201614D02*
X0393701Y0201614D01*
X0393701Y0203212D02*
X0296355Y0203212D01*
X0297099Y0204811D02*
X0393701Y0204811D01*
X0393701Y0206409D02*
X0297300Y0206409D01*
X0297028Y0208008D02*
X0393701Y0208008D01*
X0393701Y0209606D02*
X0296196Y0209606D01*
X0294288Y0211205D02*
X0393701Y0211205D01*
X0393701Y0212803D02*
X0003600Y0212803D01*
X0003600Y0211205D02*
X0129108Y0211205D01*
X0128911Y0211124D02*
X0127476Y0209689D01*
X0126700Y0207814D01*
X0126700Y0205786D01*
X0127476Y0203911D01*
X0128911Y0202476D01*
X0130786Y0201700D01*
X0132814Y0201700D01*
X0134689Y0202476D01*
X0136124Y0203911D01*
X0136800Y0205544D01*
X0137476Y0203911D01*
X0138911Y0202476D01*
X0140786Y0201700D01*
X0142814Y0201700D01*
X0144689Y0202476D01*
X0146124Y0203911D01*
X0146900Y0205786D01*
X0146900Y0207814D01*
X0146124Y0209689D01*
X0144689Y0211124D01*
X0142814Y0211900D01*
X0140786Y0211900D01*
X0138911Y0211124D01*
X0137476Y0209689D01*
X0136800Y0208056D01*
X0136124Y0209689D01*
X0134689Y0211124D01*
X0132814Y0211900D01*
X0130786Y0211900D01*
X0128911Y0211124D01*
X0127442Y0209606D02*
X0105206Y0209606D01*
X0104689Y0210124D02*
X0102814Y0210900D01*
X0100786Y0210900D01*
X0098911Y0210124D01*
X0097476Y0208689D01*
X0096800Y0207056D01*
X0096124Y0208689D01*
X0094689Y0210124D01*
X0092814Y0210900D01*
X0090786Y0210900D01*
X0088911Y0210124D01*
X0087476Y0208689D01*
X0086700Y0206814D01*
X0086700Y0204786D01*
X0087476Y0202911D01*
X0088911Y0201476D01*
X0090786Y0200700D01*
X0092814Y0200700D01*
X0094689Y0201476D01*
X0096124Y0202911D01*
X0096800Y0204544D01*
X0097476Y0202911D01*
X0098911Y0201476D01*
X0100786Y0200700D01*
X0102814Y0200700D01*
X0104689Y0201476D01*
X0106124Y0202911D01*
X0106900Y0204786D01*
X0106900Y0206814D01*
X0106124Y0208689D01*
X0104689Y0210124D01*
X0106406Y0208008D02*
X0126780Y0208008D01*
X0126700Y0206409D02*
X0106900Y0206409D01*
X0106900Y0204811D02*
X0127104Y0204811D01*
X0128175Y0203212D02*
X0106248Y0203212D01*
X0104826Y0201614D02*
X0279786Y0201614D01*
X0277675Y0203212D02*
X0255425Y0203212D01*
X0256496Y0204811D02*
X0276897Y0204811D01*
X0276700Y0206409D02*
X0256900Y0206409D01*
X0256820Y0208008D02*
X0276987Y0208008D01*
X0277894Y0209606D02*
X0256158Y0209606D01*
X0239108Y0211205D02*
X0144492Y0211205D01*
X0146158Y0209606D02*
X0237442Y0209606D01*
X0236780Y0208008D02*
X0146820Y0208008D01*
X0146900Y0206409D02*
X0236700Y0206409D01*
X0237104Y0204811D02*
X0146496Y0204811D01*
X0145425Y0203212D02*
X0238175Y0203212D01*
X0235814Y0228700D02*
X0237689Y0229476D01*
X0239124Y0230911D01*
X0239590Y0232037D01*
X0239703Y0231689D01*
X0240096Y0230917D01*
X0240605Y0230217D01*
X0241217Y0229605D01*
X0241917Y0229096D01*
X0242689Y0228703D01*
X0243512Y0228435D01*
X0244367Y0228300D01*
X0244800Y0228300D01*
X0245233Y0228300D01*
X0246088Y0228435D01*
X0246911Y0228703D01*
X0247683Y0229096D01*
X0248383Y0229605D01*
X0248995Y0230217D01*
X0249504Y0230917D01*
X0249897Y0231689D01*
X0250165Y0232512D01*
X0250300Y0233367D01*
X0250300Y0233800D01*
X0250300Y0234233D01*
X0250165Y0235088D01*
X0249897Y0235911D01*
X0249504Y0236683D01*
X0248995Y0237383D01*
X0248383Y0237995D01*
X0247683Y0238504D01*
X0246911Y0238897D01*
X0246088Y0239165D01*
X0245233Y0239300D01*
X0244800Y0239300D01*
X0244800Y0233800D01*
X0250300Y0233800D01*
X0244800Y0233800D01*
X0244800Y0233800D01*
X0244800Y0233800D01*
X0244800Y0228300D01*
X0244800Y0233800D01*
X0244800Y0233800D01*
X0244800Y0239300D01*
X0244367Y0239300D01*
X0243512Y0239165D01*
X0242689Y0238897D01*
X0241917Y0238504D01*
X0241217Y0237995D01*
X0240605Y0237383D01*
X0240096Y0236683D01*
X0239703Y0235911D01*
X0239590Y0235563D01*
X0239124Y0236689D01*
X0237689Y0238124D01*
X0235814Y0238900D01*
X0233786Y0238900D01*
X0231911Y0238124D01*
X0230476Y0236689D01*
X0229700Y0234814D01*
X0229700Y0232786D01*
X0230476Y0230911D01*
X0231911Y0229476D01*
X0233786Y0228700D01*
X0235814Y0228700D01*
X0236028Y0228789D02*
X0242521Y0228789D01*
X0244800Y0228789D02*
X0244800Y0228789D01*
X0244800Y0230387D02*
X0244800Y0230387D01*
X0244800Y0231986D02*
X0244800Y0231986D01*
X0244800Y0233584D02*
X0244800Y0233584D01*
X0244800Y0235183D02*
X0244800Y0235183D01*
X0244800Y0236781D02*
X0244800Y0236781D01*
X0244800Y0238380D02*
X0244800Y0238380D01*
X0247854Y0238380D02*
X0393701Y0238380D01*
X0393701Y0239978D02*
X0003600Y0239978D01*
X0003600Y0238380D02*
X0135667Y0238380D01*
X0134976Y0237689D02*
X0134200Y0235814D01*
X0134200Y0233786D01*
X0134976Y0231911D01*
X0136411Y0230476D01*
X0138286Y0229700D01*
X0140314Y0229700D01*
X0142189Y0230476D01*
X0143624Y0231911D01*
X0144300Y0233544D01*
X0144976Y0231911D01*
X0146411Y0230476D01*
X0148286Y0229700D01*
X0150314Y0229700D01*
X0152189Y0230476D01*
X0153624Y0231911D01*
X0154400Y0233786D01*
X0154400Y0235814D01*
X0153624Y0237689D01*
X0152189Y0239124D01*
X0150314Y0239900D01*
X0148286Y0239900D01*
X0146411Y0239124D01*
X0144976Y0237689D01*
X0144300Y0236056D01*
X0143624Y0237689D01*
X0142189Y0239124D01*
X0140314Y0239900D01*
X0138286Y0239900D01*
X0136411Y0239124D01*
X0134976Y0237689D01*
X0134600Y0236781D02*
X0003600Y0236781D01*
X0003600Y0235183D02*
X0134200Y0235183D01*
X0134283Y0233584D02*
X0003600Y0233584D01*
X0003600Y0231986D02*
X0134946Y0231986D01*
X0136627Y0230387D02*
X0003600Y0230387D01*
X0003600Y0228789D02*
X0233572Y0228789D01*
X0231000Y0230387D02*
X0151973Y0230387D01*
X0153654Y0231986D02*
X0230031Y0231986D01*
X0229700Y0233584D02*
X0154317Y0233584D01*
X0154400Y0235183D02*
X0229853Y0235183D01*
X0230569Y0236781D02*
X0154000Y0236781D01*
X0152933Y0238380D02*
X0232529Y0238380D01*
X0237071Y0238380D02*
X0241746Y0238380D01*
X0240168Y0236781D02*
X0239031Y0236781D01*
X0239569Y0231986D02*
X0239606Y0231986D01*
X0240481Y0230387D02*
X0238600Y0230387D01*
X0247079Y0228789D02*
X0393701Y0228789D01*
X0393701Y0230387D02*
X0249119Y0230387D01*
X0249993Y0231986D02*
X0393701Y0231986D01*
X0393701Y0233584D02*
X0250300Y0233584D01*
X0250134Y0235183D02*
X0393701Y0235183D01*
X0393701Y0236781D02*
X0249432Y0236781D01*
X0268412Y0244774D02*
X0003600Y0244774D01*
X0003600Y0246372D02*
X0268200Y0246372D01*
X0268200Y0247314D02*
X0268200Y0245286D01*
X0268976Y0243411D01*
X0270411Y0241976D01*
X0272286Y0241200D01*
X0274314Y0241200D01*
X0276189Y0241976D01*
X0277624Y0243411D01*
X0278300Y0245044D01*
X0278976Y0243411D01*
X0280411Y0241976D01*
X0282286Y0241200D01*
X0284314Y0241200D01*
X0286189Y0241976D01*
X0287624Y0243411D01*
X0288400Y0245286D01*
X0288400Y0247314D01*
X0287624Y0249189D01*
X0286189Y0250624D01*
X0284314Y0251400D01*
X0282286Y0251400D01*
X0280411Y0250624D01*
X0278976Y0249189D01*
X0278300Y0247556D01*
X0277624Y0249189D01*
X0276189Y0250624D01*
X0274314Y0251400D01*
X0272286Y0251400D01*
X0270411Y0250624D01*
X0268976Y0249189D01*
X0268200Y0247314D01*
X0268472Y0247971D02*
X0116175Y0247971D01*
X0116189Y0247976D02*
X0117624Y0249411D01*
X0118400Y0251286D01*
X0118400Y0253314D01*
X0117624Y0255189D01*
X0116189Y0256624D01*
X0114314Y0257400D01*
X0112286Y0257400D01*
X0110411Y0256624D01*
X0108976Y0255189D01*
X0108300Y0253556D01*
X0107624Y0255189D01*
X0106189Y0256624D01*
X0104314Y0257400D01*
X0102286Y0257400D01*
X0100411Y0256624D01*
X0098976Y0255189D01*
X0098200Y0253314D01*
X0098200Y0251286D01*
X0098976Y0249411D01*
X0100411Y0247976D01*
X0102286Y0247200D01*
X0104314Y0247200D01*
X0106189Y0247976D01*
X0107624Y0249411D01*
X0108300Y0251044D01*
X0108976Y0249411D01*
X0110411Y0247976D01*
X0112286Y0247200D01*
X0114314Y0247200D01*
X0116189Y0247976D01*
X0117689Y0249569D02*
X0168100Y0249569D01*
X0167689Y0249703D02*
X0168512Y0249435D01*
X0169367Y0249300D01*
X0169800Y0249300D01*
X0170233Y0249300D01*
X0171088Y0249435D01*
X0171911Y0249703D01*
X0172683Y0250096D01*
X0173383Y0250605D01*
X0173995Y0251217D01*
X0174504Y0251917D01*
X0174897Y0252689D01*
X0175165Y0253512D01*
X0175300Y0254367D01*
X0175300Y0254800D01*
X0175300Y0255233D01*
X0175165Y0256088D01*
X0174897Y0256911D01*
X0174504Y0257683D01*
X0173995Y0258383D01*
X0173383Y0258995D01*
X0172683Y0259504D01*
X0171911Y0259897D01*
X0171088Y0260165D01*
X0170233Y0260300D01*
X0169800Y0260300D01*
X0169800Y0254800D01*
X0175300Y0254800D01*
X0169800Y0254800D01*
X0169800Y0254800D01*
X0169800Y0254800D01*
X0169800Y0249300D01*
X0169800Y0254800D01*
X0169800Y0254800D01*
X0169800Y0260300D01*
X0169367Y0260300D01*
X0168512Y0260165D01*
X0167689Y0259897D01*
X0166917Y0259504D01*
X0166217Y0258995D01*
X0165605Y0258383D01*
X0165096Y0257683D01*
X0164703Y0256911D01*
X0164590Y0256563D01*
X0164124Y0257689D01*
X0162689Y0259124D01*
X0160814Y0259900D01*
X0158786Y0259900D01*
X0156911Y0259124D01*
X0155476Y0257689D01*
X0154700Y0255814D01*
X0154700Y0253786D01*
X0155476Y0251911D01*
X0156911Y0250476D01*
X0158786Y0249700D01*
X0160814Y0249700D01*
X0162689Y0250476D01*
X0164124Y0251911D01*
X0164590Y0253037D01*
X0164703Y0252689D01*
X0165096Y0251917D01*
X0165605Y0251217D01*
X0166217Y0250605D01*
X0166917Y0250096D01*
X0167689Y0249703D01*
X0169800Y0249569D02*
X0169800Y0249569D01*
X0169800Y0251168D02*
X0169800Y0251168D01*
X0169800Y0252766D02*
X0169800Y0252766D01*
X0169800Y0254365D02*
X0169800Y0254365D01*
X0169800Y0255963D02*
X0169800Y0255963D01*
X0169800Y0257562D02*
X0169800Y0257562D01*
X0169800Y0259160D02*
X0169800Y0259160D01*
X0166444Y0259160D02*
X0162600Y0259160D01*
X0164176Y0257562D02*
X0165034Y0257562D01*
X0164678Y0252766D02*
X0164478Y0252766D01*
X0163380Y0251168D02*
X0165654Y0251168D01*
X0171500Y0249569D02*
X0212894Y0249569D01*
X0213786Y0249200D02*
X0215814Y0249200D01*
X0217689Y0249976D01*
X0219124Y0251411D01*
X0219590Y0252537D01*
X0219703Y0252189D01*
X0220096Y0251417D01*
X0220605Y0250717D01*
X0221217Y0250105D01*
X0221917Y0249596D01*
X0222689Y0249203D01*
X0223512Y0248935D01*
X0224367Y0248800D01*
X0224800Y0248800D01*
X0225233Y0248800D01*
X0226088Y0248935D01*
X0226911Y0249203D01*
X0227683Y0249596D01*
X0228383Y0250105D01*
X0228995Y0250717D01*
X0229504Y0251417D01*
X0229897Y0252189D01*
X0230165Y0253012D01*
X0230300Y0253867D01*
X0230300Y0254300D01*
X0230300Y0254733D01*
X0230165Y0255588D01*
X0229897Y0256411D01*
X0229504Y0257183D01*
X0228995Y0257883D01*
X0228383Y0258495D01*
X0227683Y0259004D01*
X0226911Y0259397D01*
X0226088Y0259665D01*
X0225233Y0259800D01*
X0224800Y0259800D01*
X0224800Y0254300D01*
X0230300Y0254300D01*
X0224800Y0254300D01*
X0224800Y0254300D01*
X0224800Y0254300D01*
X0224800Y0248800D01*
X0224800Y0254300D01*
X0224800Y0254300D01*
X0224800Y0259800D01*
X0224367Y0259800D01*
X0223512Y0259665D01*
X0222689Y0259397D01*
X0221917Y0259004D01*
X0221217Y0258495D01*
X0220605Y0257883D01*
X0220096Y0257183D01*
X0219703Y0256411D01*
X0219590Y0256063D01*
X0219124Y0257189D01*
X0217689Y0258624D01*
X0215814Y0259400D01*
X0213786Y0259400D01*
X0211911Y0258624D01*
X0210476Y0257189D01*
X0209700Y0255314D01*
X0209700Y0253286D01*
X0210476Y0251411D01*
X0211911Y0249976D01*
X0213786Y0249200D01*
X0216706Y0249569D02*
X0221970Y0249569D01*
X0220277Y0251168D02*
X0218880Y0251168D01*
X0224800Y0251168D02*
X0224800Y0251168D01*
X0224800Y0252766D02*
X0224800Y0252766D01*
X0224800Y0254365D02*
X0224800Y0254365D01*
X0224800Y0255963D02*
X0224800Y0255963D01*
X0224800Y0257562D02*
X0224800Y0257562D01*
X0224800Y0259160D02*
X0224800Y0259160D01*
X0227376Y0259160D02*
X0393701Y0259160D01*
X0393701Y0257562D02*
X0229229Y0257562D01*
X0230043Y0255963D02*
X0393701Y0255963D01*
X0393701Y0254365D02*
X0230300Y0254365D01*
X0230085Y0252766D02*
X0393701Y0252766D01*
X0393701Y0251168D02*
X0284875Y0251168D01*
X0287243Y0249569D02*
X0393701Y0249569D01*
X0393701Y0247971D02*
X0288128Y0247971D01*
X0288400Y0246372D02*
X0393701Y0246372D01*
X0393701Y0244774D02*
X0288188Y0244774D01*
X0287388Y0243175D02*
X0393701Y0243175D01*
X0393701Y0241577D02*
X0285224Y0241577D01*
X0281376Y0241577D02*
X0275224Y0241577D01*
X0277388Y0243175D02*
X0279212Y0243175D01*
X0278412Y0244774D02*
X0278188Y0244774D01*
X0278128Y0247971D02*
X0278472Y0247971D01*
X0279357Y0249569D02*
X0277243Y0249569D01*
X0274875Y0251168D02*
X0281725Y0251168D01*
X0271725Y0251168D02*
X0229323Y0251168D01*
X0227630Y0249569D02*
X0269357Y0249569D01*
X0269212Y0243175D02*
X0003600Y0243175D01*
X0003600Y0241577D02*
X0271376Y0241577D01*
X0285706Y0209606D02*
X0287404Y0209606D01*
X0287245Y0203212D02*
X0285925Y0203212D01*
X0283814Y0201614D02*
X0288893Y0201614D01*
X0276636Y0164848D02*
X0273964Y0164848D01*
X0275013Y0163250D02*
X0275587Y0163250D01*
X0275959Y0158454D02*
X0274641Y0158454D01*
X0272897Y0156856D02*
X0277703Y0156856D01*
X0282897Y0156856D02*
X0345984Y0156856D01*
X0345984Y0158454D02*
X0284641Y0158454D01*
X0296800Y0138257D02*
X0315657Y0138257D01*
X0321800Y0144400D01*
X0326350Y0144068D02*
X0371477Y0144068D01*
X0371142Y0145666D02*
X0326350Y0145666D01*
X0326350Y0147265D02*
X0371142Y0147265D01*
X0371199Y0148863D02*
X0325617Y0148863D01*
X0326350Y0142469D02*
X0372139Y0142469D01*
X0373064Y0140870D02*
X0326350Y0140870D01*
X0319783Y0139272D02*
X0374663Y0139272D01*
X0377570Y0137673D02*
X0357452Y0137673D01*
X0357452Y0136075D02*
X0393701Y0136075D01*
X0393701Y0137673D02*
X0384062Y0137673D01*
X0386969Y0139272D02*
X0393701Y0139272D01*
X0393701Y0140870D02*
X0388567Y0140870D01*
X0389493Y0142469D02*
X0393701Y0142469D01*
X0393701Y0144068D02*
X0390155Y0144068D01*
X0390490Y0145666D02*
X0393701Y0145666D01*
X0393701Y0147265D02*
X0390490Y0147265D01*
X0390432Y0148863D02*
X0393701Y0148863D01*
X0393701Y0150462D02*
X0389770Y0150462D01*
X0389108Y0152060D02*
X0393701Y0152060D01*
X0393701Y0153659D02*
X0387638Y0153659D01*
X0385678Y0155257D02*
X0393701Y0155257D01*
X0393701Y0163250D02*
X0357852Y0163250D01*
X0357689Y0164848D02*
X0393701Y0164848D01*
X0393701Y0169644D02*
X0003600Y0169644D01*
X0003600Y0171242D02*
X0393701Y0171242D01*
X0393701Y0172841D02*
X0003600Y0172841D01*
X0003600Y0174439D02*
X0393701Y0174439D01*
X0393701Y0188826D02*
X0003600Y0188826D01*
X0003600Y0190424D02*
X0393701Y0190424D01*
X0393701Y0192023D02*
X0003600Y0192023D01*
X0003600Y0193621D02*
X0393701Y0193621D01*
X0393701Y0195220D02*
X0003600Y0195220D01*
X0003600Y0196818D02*
X0393701Y0196818D01*
X0393701Y0198417D02*
X0003600Y0198417D01*
X0003600Y0200015D02*
X0393701Y0200015D01*
X0393701Y0214402D02*
X0003600Y0214402D01*
X0003600Y0216001D02*
X0393701Y0216001D01*
X0393701Y0217599D02*
X0003600Y0217599D01*
X0003600Y0219198D02*
X0393701Y0219198D01*
X0393701Y0220796D02*
X0003600Y0220796D01*
X0003600Y0222395D02*
X0393701Y0222395D01*
X0393701Y0223993D02*
X0003600Y0223993D01*
X0003600Y0225592D02*
X0393701Y0225592D01*
X0393701Y0227190D02*
X0003600Y0227190D01*
X0003600Y0209606D02*
X0088394Y0209606D01*
X0087194Y0208008D02*
X0003600Y0208008D01*
X0003600Y0206409D02*
X0086700Y0206409D01*
X0086700Y0204811D02*
X0003600Y0204811D01*
X0003600Y0203212D02*
X0087352Y0203212D01*
X0088774Y0201614D02*
X0003600Y0201614D01*
X0003600Y0168045D02*
X0098333Y0168045D01*
X0097169Y0166447D02*
X0003600Y0166447D01*
X0003600Y0164848D02*
X0096700Y0164848D01*
X0096715Y0163250D02*
X0003600Y0163250D01*
X0003600Y0161651D02*
X0097377Y0161651D01*
X0098835Y0160053D02*
X0003600Y0160053D01*
X0094826Y0201614D02*
X0098774Y0201614D01*
X0097352Y0203212D02*
X0096248Y0203212D01*
X0096406Y0208008D02*
X0097194Y0208008D01*
X0098394Y0209606D02*
X0095206Y0209606D01*
X0134492Y0211205D02*
X0139108Y0211205D01*
X0137442Y0209606D02*
X0136158Y0209606D01*
X0136496Y0204811D02*
X0137104Y0204811D01*
X0138175Y0203212D02*
X0135425Y0203212D01*
X0141973Y0230387D02*
X0146627Y0230387D01*
X0144946Y0231986D02*
X0143654Y0231986D01*
X0144000Y0236781D02*
X0144600Y0236781D01*
X0145667Y0238380D02*
X0142933Y0238380D01*
X0156220Y0251168D02*
X0118351Y0251168D01*
X0118400Y0252766D02*
X0155122Y0252766D01*
X0154700Y0254365D02*
X0117965Y0254365D01*
X0116849Y0255963D02*
X0154762Y0255963D01*
X0155424Y0257562D02*
X0003600Y0257562D01*
X0003600Y0259160D02*
X0157000Y0259160D01*
X0173156Y0259160D02*
X0182373Y0259160D01*
X0182476Y0258911D02*
X0183911Y0257476D01*
X0185786Y0256700D01*
X0187814Y0256700D01*
X0189689Y0257476D01*
X0191124Y0258911D01*
X0191590Y0260037D01*
X0191703Y0259689D01*
X0192096Y0258917D01*
X0192605Y0258217D01*
X0193217Y0257605D01*
X0193917Y0257096D01*
X0194689Y0256703D01*
X0195512Y0256435D01*
X0196367Y0256300D01*
X0196800Y0256300D01*
X0197233Y0256300D01*
X0198088Y0256435D01*
X0198911Y0256703D01*
X0199683Y0257096D01*
X0200383Y0257605D01*
X0200995Y0258217D01*
X0201504Y0258917D01*
X0201897Y0259689D01*
X0202165Y0260512D01*
X0202300Y0261367D01*
X0202300Y0261800D01*
X0202300Y0262233D01*
X0202165Y0263088D01*
X0201897Y0263911D01*
X0201504Y0264683D01*
X0200995Y0265383D01*
X0200383Y0265995D01*
X0199683Y0266504D01*
X0198911Y0266897D01*
X0198088Y0267165D01*
X0197233Y0267300D01*
X0196800Y0267300D01*
X0196800Y0261800D01*
X0202300Y0261800D01*
X0196800Y0261800D01*
X0196800Y0261800D01*
X0196800Y0261800D01*
X0196800Y0256300D01*
X0196800Y0261800D01*
X0196800Y0261800D01*
X0196800Y0267300D01*
X0196367Y0267300D01*
X0195512Y0267165D01*
X0194689Y0266897D01*
X0193917Y0266504D01*
X0193217Y0265995D01*
X0192605Y0265383D01*
X0192096Y0264683D01*
X0191703Y0263911D01*
X0191590Y0263563D01*
X0191124Y0264689D01*
X0189689Y0266124D01*
X0187814Y0266900D01*
X0185786Y0266900D01*
X0183911Y0266124D01*
X0182476Y0264689D01*
X0181700Y0262814D01*
X0181700Y0260786D01*
X0182476Y0258911D01*
X0183826Y0257562D02*
X0174566Y0257562D01*
X0175184Y0255963D02*
X0209969Y0255963D01*
X0209700Y0254365D02*
X0175300Y0254365D01*
X0174922Y0252766D02*
X0209915Y0252766D01*
X0210720Y0251168D02*
X0173946Y0251168D01*
X0181711Y0260759D02*
X0003600Y0260759D01*
X0003600Y0262357D02*
X0181700Y0262357D01*
X0182173Y0263956D02*
X0003600Y0263956D01*
X0003600Y0265554D02*
X0183342Y0265554D01*
X0190258Y0265554D02*
X0192776Y0265554D01*
X0191726Y0263956D02*
X0191427Y0263956D01*
X0191227Y0259160D02*
X0191972Y0259160D01*
X0193276Y0257562D02*
X0189774Y0257562D01*
X0196800Y0257562D02*
X0196800Y0257562D01*
X0196800Y0259160D02*
X0196800Y0259160D01*
X0196800Y0260759D02*
X0196800Y0260759D01*
X0196800Y0262357D02*
X0196800Y0262357D01*
X0196800Y0263956D02*
X0196800Y0263956D01*
X0196800Y0265554D02*
X0196800Y0265554D01*
X0196800Y0267153D02*
X0196800Y0267153D01*
X0198124Y0267153D02*
X0393701Y0267153D01*
X0393701Y0268751D02*
X0003600Y0268751D01*
X0003600Y0267153D02*
X0195476Y0267153D01*
X0200824Y0265554D02*
X0393701Y0265554D01*
X0393701Y0263956D02*
X0201874Y0263956D01*
X0202280Y0262357D02*
X0393701Y0262357D01*
X0393701Y0260759D02*
X0202204Y0260759D01*
X0201628Y0259160D02*
X0213207Y0259160D01*
X0210849Y0257562D02*
X0200324Y0257562D01*
X0216393Y0259160D02*
X0222224Y0259160D01*
X0220371Y0257562D02*
X0218751Y0257562D01*
X0224800Y0249569D02*
X0224800Y0249569D01*
X0237786Y0281200D02*
X0235911Y0281976D01*
X0234476Y0283411D01*
X0233700Y0285286D01*
X0233700Y0287314D01*
X0234476Y0289189D01*
X0235911Y0290624D01*
X0237786Y0291400D01*
X0239814Y0291400D01*
X0241689Y0290624D01*
X0243124Y0289189D01*
X0243590Y0288063D01*
X0243703Y0288411D01*
X0244096Y0289183D01*
X0244605Y0289883D01*
X0245217Y0290495D01*
X0245917Y0291004D01*
X0246689Y0291397D01*
X0247512Y0291665D01*
X0248367Y0291800D01*
X0248800Y0291800D01*
X0249233Y0291800D01*
X0250088Y0291665D01*
X0250911Y0291397D01*
X0251683Y0291004D01*
X0252383Y0290495D01*
X0252995Y0289883D01*
X0253504Y0289183D01*
X0253897Y0288411D01*
X0254165Y0287588D01*
X0254300Y0286733D01*
X0254300Y0286300D01*
X0248800Y0286300D01*
X0248800Y0286300D01*
X0248800Y0286300D01*
X0248800Y0291800D01*
X0248800Y0286300D01*
X0254300Y0286300D01*
X0254300Y0285867D01*
X0254165Y0285012D01*
X0253897Y0284189D01*
X0253504Y0283417D01*
X0252995Y0282717D01*
X0252383Y0282105D01*
X0251683Y0281596D01*
X0250911Y0281203D01*
X0250088Y0280935D01*
X0249233Y0280800D01*
X0248800Y0280800D01*
X0248800Y0286300D01*
X0248800Y0286300D01*
X0248800Y0280800D01*
X0248367Y0280800D01*
X0247512Y0280935D01*
X0246689Y0281203D01*
X0245917Y0281596D01*
X0245217Y0282105D01*
X0244605Y0282717D01*
X0244096Y0283417D01*
X0243703Y0284189D01*
X0243590Y0284537D01*
X0243124Y0283411D01*
X0241689Y0281976D01*
X0239814Y0281200D01*
X0237786Y0281200D01*
X0236966Y0281539D02*
X0003600Y0281539D01*
X0003600Y0279941D02*
X0393701Y0279941D01*
X0393701Y0281539D02*
X0251572Y0281539D01*
X0253301Y0283138D02*
X0393701Y0283138D01*
X0393701Y0284737D02*
X0254075Y0284737D01*
X0254300Y0286335D02*
X0393701Y0286335D01*
X0393701Y0287934D02*
X0254052Y0287934D01*
X0253250Y0289532D02*
X0393701Y0289532D01*
X0393701Y0291131D02*
X0251434Y0291131D01*
X0248800Y0291131D02*
X0248800Y0291131D01*
X0248800Y0289532D02*
X0248800Y0289532D01*
X0248800Y0287934D02*
X0248800Y0287934D01*
X0248800Y0286335D02*
X0248800Y0286335D01*
X0248800Y0284737D02*
X0248800Y0284737D01*
X0248800Y0283138D02*
X0248800Y0283138D01*
X0248800Y0281539D02*
X0248800Y0281539D01*
X0246028Y0281539D02*
X0240634Y0281539D01*
X0242850Y0283138D02*
X0244299Y0283138D01*
X0244350Y0289532D02*
X0242780Y0289532D01*
X0240465Y0291131D02*
X0246166Y0291131D01*
X0237135Y0291131D02*
X0153785Y0291131D01*
X0153897Y0290911D02*
X0153504Y0291683D01*
X0152995Y0292383D01*
X0152383Y0292995D01*
X0151683Y0293504D01*
X0150911Y0293897D01*
X0150088Y0294165D01*
X0149233Y0294300D01*
X0148800Y0294300D01*
X0148800Y0288800D01*
X0154300Y0288800D01*
X0154300Y0289233D01*
X0154165Y0290088D01*
X0153897Y0290911D01*
X0154253Y0289532D02*
X0234820Y0289532D01*
X0233956Y0287934D02*
X0154231Y0287934D01*
X0154165Y0287512D02*
X0154300Y0288367D01*
X0154300Y0288800D01*
X0148800Y0288800D01*
X0148800Y0288800D01*
X0148800Y0288800D01*
X0148800Y0283300D01*
X0149233Y0283300D01*
X0150088Y0283435D01*
X0150911Y0283703D01*
X0151683Y0284096D01*
X0152383Y0284605D01*
X0152995Y0285217D01*
X0153504Y0285917D01*
X0153897Y0286689D01*
X0154165Y0287512D01*
X0153717Y0286335D02*
X0233700Y0286335D01*
X0233927Y0284737D02*
X0152515Y0284737D01*
X0148800Y0284737D02*
X0148800Y0284737D01*
X0148800Y0283300D02*
X0148800Y0288800D01*
X0148800Y0288800D01*
X0148800Y0294300D01*
X0148367Y0294300D01*
X0147512Y0294165D01*
X0146689Y0293897D01*
X0145917Y0293504D01*
X0145217Y0292995D01*
X0144605Y0292383D01*
X0144096Y0291683D01*
X0143703Y0290911D01*
X0143590Y0290563D01*
X0143124Y0291689D01*
X0141689Y0293124D01*
X0139814Y0293900D01*
X0137786Y0293900D01*
X0135911Y0293124D01*
X0134476Y0291689D01*
X0133700Y0289814D01*
X0133700Y0287786D01*
X0134476Y0285911D01*
X0135911Y0284476D01*
X0137786Y0283700D01*
X0139814Y0283700D01*
X0141689Y0284476D01*
X0143124Y0285911D01*
X0143590Y0287037D01*
X0143703Y0286689D01*
X0144096Y0285917D01*
X0144605Y0285217D01*
X0145217Y0284605D01*
X0145917Y0284096D01*
X0146689Y0283703D01*
X0147512Y0283435D01*
X0148367Y0283300D01*
X0148800Y0283300D01*
X0148800Y0286335D02*
X0148800Y0286335D01*
X0148800Y0287934D02*
X0148800Y0287934D01*
X0148800Y0289532D02*
X0148800Y0289532D01*
X0148800Y0291131D02*
X0148800Y0291131D01*
X0148800Y0292729D02*
X0148800Y0292729D01*
X0152649Y0292729D02*
X0393701Y0292729D01*
X0393701Y0294328D02*
X0003600Y0294328D01*
X0003600Y0295926D02*
X0393701Y0295926D01*
X0393701Y0297525D02*
X0200273Y0297525D01*
X0200383Y0297605D02*
X0200995Y0298217D01*
X0201504Y0298917D01*
X0201897Y0299689D01*
X0202165Y0300512D01*
X0202300Y0301367D01*
X0202300Y0301800D01*
X0202300Y0302233D01*
X0202165Y0303088D01*
X0201897Y0303911D01*
X0201504Y0304683D01*
X0200995Y0305383D01*
X0200383Y0305995D01*
X0199683Y0306504D01*
X0198911Y0306897D01*
X0198088Y0307165D01*
X0197233Y0307300D01*
X0196800Y0307300D01*
X0196800Y0301800D01*
X0202300Y0301800D01*
X0196800Y0301800D01*
X0196800Y0301800D01*
X0196800Y0301800D01*
X0196800Y0296300D01*
X0197233Y0296300D01*
X0198088Y0296435D01*
X0198911Y0296703D01*
X0199683Y0297096D01*
X0200383Y0297605D01*
X0201609Y0299123D02*
X0393701Y0299123D01*
X0393701Y0300722D02*
X0202198Y0300722D01*
X0202286Y0302320D02*
X0393701Y0302320D01*
X0393701Y0303919D02*
X0201893Y0303919D01*
X0200861Y0305517D02*
X0393701Y0305517D01*
X0393701Y0307116D02*
X0198238Y0307116D01*
X0196800Y0307116D02*
X0196800Y0307116D01*
X0196800Y0307300D02*
X0196367Y0307300D01*
X0195512Y0307165D01*
X0194689Y0306897D01*
X0193917Y0306504D01*
X0193217Y0305995D01*
X0192605Y0305383D01*
X0192096Y0304683D01*
X0191703Y0303911D01*
X0191590Y0303563D01*
X0191124Y0304689D01*
X0189689Y0306124D01*
X0187814Y0306900D01*
X0185786Y0306900D01*
X0183911Y0306124D01*
X0182476Y0304689D01*
X0181700Y0302814D01*
X0181700Y0300786D01*
X0182476Y0298911D01*
X0183911Y0297476D01*
X0185786Y0296700D01*
X0187814Y0296700D01*
X0189689Y0297476D01*
X0191124Y0298911D01*
X0191590Y0300037D01*
X0191703Y0299689D01*
X0192096Y0298917D01*
X0192605Y0298217D01*
X0193217Y0297605D01*
X0193917Y0297096D01*
X0194689Y0296703D01*
X0195512Y0296435D01*
X0196367Y0296300D01*
X0196800Y0296300D01*
X0196800Y0301800D01*
X0196800Y0301800D01*
X0196800Y0307300D01*
X0195362Y0307116D02*
X0003600Y0307116D01*
X0003600Y0308714D02*
X0393701Y0308714D01*
X0393701Y0310313D02*
X0003600Y0310313D01*
X0003600Y0311911D02*
X0393701Y0311911D01*
X0393701Y0313510D02*
X0003600Y0313510D01*
X0003600Y0305517D02*
X0183305Y0305517D01*
X0182157Y0303919D02*
X0003600Y0303919D01*
X0003600Y0302320D02*
X0181700Y0302320D01*
X0181726Y0300722D02*
X0003600Y0300722D01*
X0003600Y0299123D02*
X0182389Y0299123D01*
X0183863Y0297525D02*
X0003600Y0297525D01*
X0003600Y0292729D02*
X0135517Y0292729D01*
X0134245Y0291131D02*
X0003600Y0291131D01*
X0003600Y0289532D02*
X0133700Y0289532D01*
X0133700Y0287934D02*
X0003600Y0287934D01*
X0003600Y0286335D02*
X0134301Y0286335D01*
X0135651Y0284737D02*
X0003600Y0284737D01*
X0003600Y0283138D02*
X0234750Y0283138D01*
X0196800Y0297525D02*
X0196800Y0297525D01*
X0196800Y0299123D02*
X0196800Y0299123D01*
X0196800Y0300722D02*
X0196800Y0300722D01*
X0196800Y0302320D02*
X0196800Y0302320D01*
X0196800Y0303919D02*
X0196800Y0303919D01*
X0196800Y0305517D02*
X0196800Y0305517D01*
X0192739Y0305517D02*
X0190295Y0305517D01*
X0191443Y0303919D02*
X0191707Y0303919D01*
X0191991Y0299123D02*
X0191211Y0299123D01*
X0189737Y0297525D02*
X0193327Y0297525D01*
X0144951Y0292729D02*
X0142083Y0292729D01*
X0143355Y0291131D02*
X0143815Y0291131D01*
X0143883Y0286335D02*
X0143299Y0286335D01*
X0141949Y0284737D02*
X0145085Y0284737D01*
X0109751Y0255963D02*
X0106849Y0255963D01*
X0107965Y0254365D02*
X0108635Y0254365D01*
X0108911Y0249569D02*
X0107689Y0249569D01*
X0106175Y0247971D02*
X0110425Y0247971D01*
X0100425Y0247971D02*
X0003600Y0247971D01*
X0003600Y0249569D02*
X0098911Y0249569D01*
X0098249Y0251168D02*
X0003600Y0251168D01*
X0003600Y0252766D02*
X0098200Y0252766D01*
X0098635Y0254365D02*
X0003600Y0254365D01*
X0003600Y0255963D02*
X0099751Y0255963D01*
X0003600Y0270350D02*
X0393701Y0270350D01*
X0393701Y0271948D02*
X0003600Y0271948D01*
X0003600Y0273547D02*
X0393701Y0273547D01*
X0393701Y0275145D02*
X0003600Y0275145D01*
X0003600Y0276744D02*
X0393701Y0276744D01*
X0393701Y0278342D02*
X0003600Y0278342D01*
X0105267Y0168045D02*
X0108333Y0168045D01*
X0107169Y0166447D02*
X0106431Y0166447D01*
X0106223Y0161651D02*
X0107377Y0161651D01*
X0108835Y0160053D02*
X0104765Y0160053D01*
X0137533Y0131279D02*
X0140067Y0131279D01*
X0139059Y0129681D02*
X0138541Y0129681D01*
X0138775Y0126484D02*
X0138825Y0126484D01*
X0139502Y0124885D02*
X0138098Y0124885D01*
X0136231Y0123287D02*
X0141369Y0123287D01*
X0160159Y0155257D02*
X0165441Y0155257D01*
X0163532Y0156856D02*
X0162068Y0156856D01*
X0162763Y0158454D02*
X0162837Y0158454D01*
X0299000Y0083324D02*
X0318038Y0083324D01*
X0325562Y0080127D02*
X0393701Y0080127D01*
X0393701Y0078529D02*
X0325562Y0078529D01*
X0318808Y0075332D02*
X0318443Y0075332D01*
X0319600Y0073733D02*
X0316844Y0073733D01*
X0315246Y0072134D02*
X0319600Y0072134D01*
X0319600Y0070536D02*
X0313647Y0070536D01*
X0312049Y0068937D02*
X0319600Y0068937D01*
X0319600Y0067339D02*
X0310450Y0067339D01*
X0267036Y0044300D02*
X0256800Y0044300D01*
X0259000Y0041763D02*
X0262082Y0041763D01*
X0357452Y0129681D02*
X0393701Y0129681D01*
X0393701Y0131279D02*
X0357452Y0131279D01*
X0357452Y0132878D02*
X0393701Y0132878D01*
X0393701Y0134476D02*
X0357452Y0134476D01*
D23*
X0311800Y0106800D03*
X0306800Y0066800D03*
X0281800Y0066800D03*
X0251800Y0071800D03*
X0231800Y0071800D03*
X0231800Y0041800D03*
X0176800Y0071800D03*
X0136800Y0046800D03*
X0101800Y0031800D03*
X0071800Y0051800D03*
X0101800Y0066800D03*
D24*
X0122036Y0054300D02*
X0129300Y0054300D01*
X0136800Y0046800D01*
X0086800Y0048454D02*
X0083454Y0051800D01*
X0071800Y0051800D01*
M02*
