G75*
%MOIN*%
%OFA0B0*%
%FSLAX25Y25*%
%IPPOS*%
%LPD*%
%AMOC8*
5,1,8,0,0,1.08239X$1,22.5*
%
%ADD10C,0.00000*%
%ADD11C,0.00600*%
%ADD12C,0.00100*%
%ADD13C,0.02200*%
%ADD14C,0.01500*%
%ADD15C,0.00800*%
%ADD16C,0.00400*%
%ADD17C,0.01000*%
%ADD18C,0.00500*%
D10*
X0001800Y0001800D02*
X0001800Y0316761D01*
X0395501Y0316761D01*
X0395501Y0001800D01*
X0001800Y0001800D01*
X0015300Y0021800D02*
X0015302Y0021961D01*
X0015308Y0022121D01*
X0015318Y0022282D01*
X0015332Y0022442D01*
X0015350Y0022602D01*
X0015371Y0022761D01*
X0015397Y0022920D01*
X0015427Y0023078D01*
X0015460Y0023235D01*
X0015498Y0023392D01*
X0015539Y0023547D01*
X0015584Y0023701D01*
X0015633Y0023854D01*
X0015686Y0024006D01*
X0015742Y0024157D01*
X0015803Y0024306D01*
X0015866Y0024454D01*
X0015934Y0024600D01*
X0016005Y0024744D01*
X0016079Y0024886D01*
X0016157Y0025027D01*
X0016239Y0025165D01*
X0016324Y0025302D01*
X0016412Y0025436D01*
X0016504Y0025568D01*
X0016599Y0025698D01*
X0016697Y0025826D01*
X0016798Y0025951D01*
X0016902Y0026073D01*
X0017009Y0026193D01*
X0017119Y0026310D01*
X0017232Y0026425D01*
X0017348Y0026536D01*
X0017467Y0026645D01*
X0017588Y0026750D01*
X0017712Y0026853D01*
X0017838Y0026953D01*
X0017966Y0027049D01*
X0018097Y0027142D01*
X0018231Y0027232D01*
X0018366Y0027319D01*
X0018504Y0027402D01*
X0018643Y0027482D01*
X0018785Y0027558D01*
X0018928Y0027631D01*
X0019073Y0027700D01*
X0019220Y0027766D01*
X0019368Y0027828D01*
X0019518Y0027886D01*
X0019669Y0027941D01*
X0019822Y0027992D01*
X0019976Y0028039D01*
X0020131Y0028082D01*
X0020287Y0028121D01*
X0020443Y0028157D01*
X0020601Y0028188D01*
X0020759Y0028216D01*
X0020918Y0028240D01*
X0021078Y0028260D01*
X0021238Y0028276D01*
X0021398Y0028288D01*
X0021559Y0028296D01*
X0021720Y0028300D01*
X0021880Y0028300D01*
X0022041Y0028296D01*
X0022202Y0028288D01*
X0022362Y0028276D01*
X0022522Y0028260D01*
X0022682Y0028240D01*
X0022841Y0028216D01*
X0022999Y0028188D01*
X0023157Y0028157D01*
X0023313Y0028121D01*
X0023469Y0028082D01*
X0023624Y0028039D01*
X0023778Y0027992D01*
X0023931Y0027941D01*
X0024082Y0027886D01*
X0024232Y0027828D01*
X0024380Y0027766D01*
X0024527Y0027700D01*
X0024672Y0027631D01*
X0024815Y0027558D01*
X0024957Y0027482D01*
X0025096Y0027402D01*
X0025234Y0027319D01*
X0025369Y0027232D01*
X0025503Y0027142D01*
X0025634Y0027049D01*
X0025762Y0026953D01*
X0025888Y0026853D01*
X0026012Y0026750D01*
X0026133Y0026645D01*
X0026252Y0026536D01*
X0026368Y0026425D01*
X0026481Y0026310D01*
X0026591Y0026193D01*
X0026698Y0026073D01*
X0026802Y0025951D01*
X0026903Y0025826D01*
X0027001Y0025698D01*
X0027096Y0025568D01*
X0027188Y0025436D01*
X0027276Y0025302D01*
X0027361Y0025165D01*
X0027443Y0025027D01*
X0027521Y0024886D01*
X0027595Y0024744D01*
X0027666Y0024600D01*
X0027734Y0024454D01*
X0027797Y0024306D01*
X0027858Y0024157D01*
X0027914Y0024006D01*
X0027967Y0023854D01*
X0028016Y0023701D01*
X0028061Y0023547D01*
X0028102Y0023392D01*
X0028140Y0023235D01*
X0028173Y0023078D01*
X0028203Y0022920D01*
X0028229Y0022761D01*
X0028250Y0022602D01*
X0028268Y0022442D01*
X0028282Y0022282D01*
X0028292Y0022121D01*
X0028298Y0021961D01*
X0028300Y0021800D01*
X0028298Y0021639D01*
X0028292Y0021479D01*
X0028282Y0021318D01*
X0028268Y0021158D01*
X0028250Y0020998D01*
X0028229Y0020839D01*
X0028203Y0020680D01*
X0028173Y0020522D01*
X0028140Y0020365D01*
X0028102Y0020208D01*
X0028061Y0020053D01*
X0028016Y0019899D01*
X0027967Y0019746D01*
X0027914Y0019594D01*
X0027858Y0019443D01*
X0027797Y0019294D01*
X0027734Y0019146D01*
X0027666Y0019000D01*
X0027595Y0018856D01*
X0027521Y0018714D01*
X0027443Y0018573D01*
X0027361Y0018435D01*
X0027276Y0018298D01*
X0027188Y0018164D01*
X0027096Y0018032D01*
X0027001Y0017902D01*
X0026903Y0017774D01*
X0026802Y0017649D01*
X0026698Y0017527D01*
X0026591Y0017407D01*
X0026481Y0017290D01*
X0026368Y0017175D01*
X0026252Y0017064D01*
X0026133Y0016955D01*
X0026012Y0016850D01*
X0025888Y0016747D01*
X0025762Y0016647D01*
X0025634Y0016551D01*
X0025503Y0016458D01*
X0025369Y0016368D01*
X0025234Y0016281D01*
X0025096Y0016198D01*
X0024957Y0016118D01*
X0024815Y0016042D01*
X0024672Y0015969D01*
X0024527Y0015900D01*
X0024380Y0015834D01*
X0024232Y0015772D01*
X0024082Y0015714D01*
X0023931Y0015659D01*
X0023778Y0015608D01*
X0023624Y0015561D01*
X0023469Y0015518D01*
X0023313Y0015479D01*
X0023157Y0015443D01*
X0022999Y0015412D01*
X0022841Y0015384D01*
X0022682Y0015360D01*
X0022522Y0015340D01*
X0022362Y0015324D01*
X0022202Y0015312D01*
X0022041Y0015304D01*
X0021880Y0015300D01*
X0021720Y0015300D01*
X0021559Y0015304D01*
X0021398Y0015312D01*
X0021238Y0015324D01*
X0021078Y0015340D01*
X0020918Y0015360D01*
X0020759Y0015384D01*
X0020601Y0015412D01*
X0020443Y0015443D01*
X0020287Y0015479D01*
X0020131Y0015518D01*
X0019976Y0015561D01*
X0019822Y0015608D01*
X0019669Y0015659D01*
X0019518Y0015714D01*
X0019368Y0015772D01*
X0019220Y0015834D01*
X0019073Y0015900D01*
X0018928Y0015969D01*
X0018785Y0016042D01*
X0018643Y0016118D01*
X0018504Y0016198D01*
X0018366Y0016281D01*
X0018231Y0016368D01*
X0018097Y0016458D01*
X0017966Y0016551D01*
X0017838Y0016647D01*
X0017712Y0016747D01*
X0017588Y0016850D01*
X0017467Y0016955D01*
X0017348Y0017064D01*
X0017232Y0017175D01*
X0017119Y0017290D01*
X0017009Y0017407D01*
X0016902Y0017527D01*
X0016798Y0017649D01*
X0016697Y0017774D01*
X0016599Y0017902D01*
X0016504Y0018032D01*
X0016412Y0018164D01*
X0016324Y0018298D01*
X0016239Y0018435D01*
X0016157Y0018573D01*
X0016079Y0018714D01*
X0016005Y0018856D01*
X0015934Y0019000D01*
X0015866Y0019146D01*
X0015803Y0019294D01*
X0015742Y0019443D01*
X0015686Y0019594D01*
X0015633Y0019746D01*
X0015584Y0019899D01*
X0015539Y0020053D01*
X0015498Y0020208D01*
X0015460Y0020365D01*
X0015427Y0020522D01*
X0015397Y0020680D01*
X0015371Y0020839D01*
X0015350Y0020998D01*
X0015332Y0021158D01*
X0015318Y0021318D01*
X0015308Y0021479D01*
X0015302Y0021639D01*
X0015300Y0021800D01*
X0015300Y0296800D02*
X0015302Y0296961D01*
X0015308Y0297121D01*
X0015318Y0297282D01*
X0015332Y0297442D01*
X0015350Y0297602D01*
X0015371Y0297761D01*
X0015397Y0297920D01*
X0015427Y0298078D01*
X0015460Y0298235D01*
X0015498Y0298392D01*
X0015539Y0298547D01*
X0015584Y0298701D01*
X0015633Y0298854D01*
X0015686Y0299006D01*
X0015742Y0299157D01*
X0015803Y0299306D01*
X0015866Y0299454D01*
X0015934Y0299600D01*
X0016005Y0299744D01*
X0016079Y0299886D01*
X0016157Y0300027D01*
X0016239Y0300165D01*
X0016324Y0300302D01*
X0016412Y0300436D01*
X0016504Y0300568D01*
X0016599Y0300698D01*
X0016697Y0300826D01*
X0016798Y0300951D01*
X0016902Y0301073D01*
X0017009Y0301193D01*
X0017119Y0301310D01*
X0017232Y0301425D01*
X0017348Y0301536D01*
X0017467Y0301645D01*
X0017588Y0301750D01*
X0017712Y0301853D01*
X0017838Y0301953D01*
X0017966Y0302049D01*
X0018097Y0302142D01*
X0018231Y0302232D01*
X0018366Y0302319D01*
X0018504Y0302402D01*
X0018643Y0302482D01*
X0018785Y0302558D01*
X0018928Y0302631D01*
X0019073Y0302700D01*
X0019220Y0302766D01*
X0019368Y0302828D01*
X0019518Y0302886D01*
X0019669Y0302941D01*
X0019822Y0302992D01*
X0019976Y0303039D01*
X0020131Y0303082D01*
X0020287Y0303121D01*
X0020443Y0303157D01*
X0020601Y0303188D01*
X0020759Y0303216D01*
X0020918Y0303240D01*
X0021078Y0303260D01*
X0021238Y0303276D01*
X0021398Y0303288D01*
X0021559Y0303296D01*
X0021720Y0303300D01*
X0021880Y0303300D01*
X0022041Y0303296D01*
X0022202Y0303288D01*
X0022362Y0303276D01*
X0022522Y0303260D01*
X0022682Y0303240D01*
X0022841Y0303216D01*
X0022999Y0303188D01*
X0023157Y0303157D01*
X0023313Y0303121D01*
X0023469Y0303082D01*
X0023624Y0303039D01*
X0023778Y0302992D01*
X0023931Y0302941D01*
X0024082Y0302886D01*
X0024232Y0302828D01*
X0024380Y0302766D01*
X0024527Y0302700D01*
X0024672Y0302631D01*
X0024815Y0302558D01*
X0024957Y0302482D01*
X0025096Y0302402D01*
X0025234Y0302319D01*
X0025369Y0302232D01*
X0025503Y0302142D01*
X0025634Y0302049D01*
X0025762Y0301953D01*
X0025888Y0301853D01*
X0026012Y0301750D01*
X0026133Y0301645D01*
X0026252Y0301536D01*
X0026368Y0301425D01*
X0026481Y0301310D01*
X0026591Y0301193D01*
X0026698Y0301073D01*
X0026802Y0300951D01*
X0026903Y0300826D01*
X0027001Y0300698D01*
X0027096Y0300568D01*
X0027188Y0300436D01*
X0027276Y0300302D01*
X0027361Y0300165D01*
X0027443Y0300027D01*
X0027521Y0299886D01*
X0027595Y0299744D01*
X0027666Y0299600D01*
X0027734Y0299454D01*
X0027797Y0299306D01*
X0027858Y0299157D01*
X0027914Y0299006D01*
X0027967Y0298854D01*
X0028016Y0298701D01*
X0028061Y0298547D01*
X0028102Y0298392D01*
X0028140Y0298235D01*
X0028173Y0298078D01*
X0028203Y0297920D01*
X0028229Y0297761D01*
X0028250Y0297602D01*
X0028268Y0297442D01*
X0028282Y0297282D01*
X0028292Y0297121D01*
X0028298Y0296961D01*
X0028300Y0296800D01*
X0028298Y0296639D01*
X0028292Y0296479D01*
X0028282Y0296318D01*
X0028268Y0296158D01*
X0028250Y0295998D01*
X0028229Y0295839D01*
X0028203Y0295680D01*
X0028173Y0295522D01*
X0028140Y0295365D01*
X0028102Y0295208D01*
X0028061Y0295053D01*
X0028016Y0294899D01*
X0027967Y0294746D01*
X0027914Y0294594D01*
X0027858Y0294443D01*
X0027797Y0294294D01*
X0027734Y0294146D01*
X0027666Y0294000D01*
X0027595Y0293856D01*
X0027521Y0293714D01*
X0027443Y0293573D01*
X0027361Y0293435D01*
X0027276Y0293298D01*
X0027188Y0293164D01*
X0027096Y0293032D01*
X0027001Y0292902D01*
X0026903Y0292774D01*
X0026802Y0292649D01*
X0026698Y0292527D01*
X0026591Y0292407D01*
X0026481Y0292290D01*
X0026368Y0292175D01*
X0026252Y0292064D01*
X0026133Y0291955D01*
X0026012Y0291850D01*
X0025888Y0291747D01*
X0025762Y0291647D01*
X0025634Y0291551D01*
X0025503Y0291458D01*
X0025369Y0291368D01*
X0025234Y0291281D01*
X0025096Y0291198D01*
X0024957Y0291118D01*
X0024815Y0291042D01*
X0024672Y0290969D01*
X0024527Y0290900D01*
X0024380Y0290834D01*
X0024232Y0290772D01*
X0024082Y0290714D01*
X0023931Y0290659D01*
X0023778Y0290608D01*
X0023624Y0290561D01*
X0023469Y0290518D01*
X0023313Y0290479D01*
X0023157Y0290443D01*
X0022999Y0290412D01*
X0022841Y0290384D01*
X0022682Y0290360D01*
X0022522Y0290340D01*
X0022362Y0290324D01*
X0022202Y0290312D01*
X0022041Y0290304D01*
X0021880Y0290300D01*
X0021720Y0290300D01*
X0021559Y0290304D01*
X0021398Y0290312D01*
X0021238Y0290324D01*
X0021078Y0290340D01*
X0020918Y0290360D01*
X0020759Y0290384D01*
X0020601Y0290412D01*
X0020443Y0290443D01*
X0020287Y0290479D01*
X0020131Y0290518D01*
X0019976Y0290561D01*
X0019822Y0290608D01*
X0019669Y0290659D01*
X0019518Y0290714D01*
X0019368Y0290772D01*
X0019220Y0290834D01*
X0019073Y0290900D01*
X0018928Y0290969D01*
X0018785Y0291042D01*
X0018643Y0291118D01*
X0018504Y0291198D01*
X0018366Y0291281D01*
X0018231Y0291368D01*
X0018097Y0291458D01*
X0017966Y0291551D01*
X0017838Y0291647D01*
X0017712Y0291747D01*
X0017588Y0291850D01*
X0017467Y0291955D01*
X0017348Y0292064D01*
X0017232Y0292175D01*
X0017119Y0292290D01*
X0017009Y0292407D01*
X0016902Y0292527D01*
X0016798Y0292649D01*
X0016697Y0292774D01*
X0016599Y0292902D01*
X0016504Y0293032D01*
X0016412Y0293164D01*
X0016324Y0293298D01*
X0016239Y0293435D01*
X0016157Y0293573D01*
X0016079Y0293714D01*
X0016005Y0293856D01*
X0015934Y0294000D01*
X0015866Y0294146D01*
X0015803Y0294294D01*
X0015742Y0294443D01*
X0015686Y0294594D01*
X0015633Y0294746D01*
X0015584Y0294899D01*
X0015539Y0295053D01*
X0015498Y0295208D01*
X0015460Y0295365D01*
X0015427Y0295522D01*
X0015397Y0295680D01*
X0015371Y0295839D01*
X0015350Y0295998D01*
X0015332Y0296158D01*
X0015318Y0296318D01*
X0015308Y0296479D01*
X0015302Y0296639D01*
X0015300Y0296800D01*
X0365300Y0296800D02*
X0365302Y0296961D01*
X0365308Y0297121D01*
X0365318Y0297282D01*
X0365332Y0297442D01*
X0365350Y0297602D01*
X0365371Y0297761D01*
X0365397Y0297920D01*
X0365427Y0298078D01*
X0365460Y0298235D01*
X0365498Y0298392D01*
X0365539Y0298547D01*
X0365584Y0298701D01*
X0365633Y0298854D01*
X0365686Y0299006D01*
X0365742Y0299157D01*
X0365803Y0299306D01*
X0365866Y0299454D01*
X0365934Y0299600D01*
X0366005Y0299744D01*
X0366079Y0299886D01*
X0366157Y0300027D01*
X0366239Y0300165D01*
X0366324Y0300302D01*
X0366412Y0300436D01*
X0366504Y0300568D01*
X0366599Y0300698D01*
X0366697Y0300826D01*
X0366798Y0300951D01*
X0366902Y0301073D01*
X0367009Y0301193D01*
X0367119Y0301310D01*
X0367232Y0301425D01*
X0367348Y0301536D01*
X0367467Y0301645D01*
X0367588Y0301750D01*
X0367712Y0301853D01*
X0367838Y0301953D01*
X0367966Y0302049D01*
X0368097Y0302142D01*
X0368231Y0302232D01*
X0368366Y0302319D01*
X0368504Y0302402D01*
X0368643Y0302482D01*
X0368785Y0302558D01*
X0368928Y0302631D01*
X0369073Y0302700D01*
X0369220Y0302766D01*
X0369368Y0302828D01*
X0369518Y0302886D01*
X0369669Y0302941D01*
X0369822Y0302992D01*
X0369976Y0303039D01*
X0370131Y0303082D01*
X0370287Y0303121D01*
X0370443Y0303157D01*
X0370601Y0303188D01*
X0370759Y0303216D01*
X0370918Y0303240D01*
X0371078Y0303260D01*
X0371238Y0303276D01*
X0371398Y0303288D01*
X0371559Y0303296D01*
X0371720Y0303300D01*
X0371880Y0303300D01*
X0372041Y0303296D01*
X0372202Y0303288D01*
X0372362Y0303276D01*
X0372522Y0303260D01*
X0372682Y0303240D01*
X0372841Y0303216D01*
X0372999Y0303188D01*
X0373157Y0303157D01*
X0373313Y0303121D01*
X0373469Y0303082D01*
X0373624Y0303039D01*
X0373778Y0302992D01*
X0373931Y0302941D01*
X0374082Y0302886D01*
X0374232Y0302828D01*
X0374380Y0302766D01*
X0374527Y0302700D01*
X0374672Y0302631D01*
X0374815Y0302558D01*
X0374957Y0302482D01*
X0375096Y0302402D01*
X0375234Y0302319D01*
X0375369Y0302232D01*
X0375503Y0302142D01*
X0375634Y0302049D01*
X0375762Y0301953D01*
X0375888Y0301853D01*
X0376012Y0301750D01*
X0376133Y0301645D01*
X0376252Y0301536D01*
X0376368Y0301425D01*
X0376481Y0301310D01*
X0376591Y0301193D01*
X0376698Y0301073D01*
X0376802Y0300951D01*
X0376903Y0300826D01*
X0377001Y0300698D01*
X0377096Y0300568D01*
X0377188Y0300436D01*
X0377276Y0300302D01*
X0377361Y0300165D01*
X0377443Y0300027D01*
X0377521Y0299886D01*
X0377595Y0299744D01*
X0377666Y0299600D01*
X0377734Y0299454D01*
X0377797Y0299306D01*
X0377858Y0299157D01*
X0377914Y0299006D01*
X0377967Y0298854D01*
X0378016Y0298701D01*
X0378061Y0298547D01*
X0378102Y0298392D01*
X0378140Y0298235D01*
X0378173Y0298078D01*
X0378203Y0297920D01*
X0378229Y0297761D01*
X0378250Y0297602D01*
X0378268Y0297442D01*
X0378282Y0297282D01*
X0378292Y0297121D01*
X0378298Y0296961D01*
X0378300Y0296800D01*
X0378298Y0296639D01*
X0378292Y0296479D01*
X0378282Y0296318D01*
X0378268Y0296158D01*
X0378250Y0295998D01*
X0378229Y0295839D01*
X0378203Y0295680D01*
X0378173Y0295522D01*
X0378140Y0295365D01*
X0378102Y0295208D01*
X0378061Y0295053D01*
X0378016Y0294899D01*
X0377967Y0294746D01*
X0377914Y0294594D01*
X0377858Y0294443D01*
X0377797Y0294294D01*
X0377734Y0294146D01*
X0377666Y0294000D01*
X0377595Y0293856D01*
X0377521Y0293714D01*
X0377443Y0293573D01*
X0377361Y0293435D01*
X0377276Y0293298D01*
X0377188Y0293164D01*
X0377096Y0293032D01*
X0377001Y0292902D01*
X0376903Y0292774D01*
X0376802Y0292649D01*
X0376698Y0292527D01*
X0376591Y0292407D01*
X0376481Y0292290D01*
X0376368Y0292175D01*
X0376252Y0292064D01*
X0376133Y0291955D01*
X0376012Y0291850D01*
X0375888Y0291747D01*
X0375762Y0291647D01*
X0375634Y0291551D01*
X0375503Y0291458D01*
X0375369Y0291368D01*
X0375234Y0291281D01*
X0375096Y0291198D01*
X0374957Y0291118D01*
X0374815Y0291042D01*
X0374672Y0290969D01*
X0374527Y0290900D01*
X0374380Y0290834D01*
X0374232Y0290772D01*
X0374082Y0290714D01*
X0373931Y0290659D01*
X0373778Y0290608D01*
X0373624Y0290561D01*
X0373469Y0290518D01*
X0373313Y0290479D01*
X0373157Y0290443D01*
X0372999Y0290412D01*
X0372841Y0290384D01*
X0372682Y0290360D01*
X0372522Y0290340D01*
X0372362Y0290324D01*
X0372202Y0290312D01*
X0372041Y0290304D01*
X0371880Y0290300D01*
X0371720Y0290300D01*
X0371559Y0290304D01*
X0371398Y0290312D01*
X0371238Y0290324D01*
X0371078Y0290340D01*
X0370918Y0290360D01*
X0370759Y0290384D01*
X0370601Y0290412D01*
X0370443Y0290443D01*
X0370287Y0290479D01*
X0370131Y0290518D01*
X0369976Y0290561D01*
X0369822Y0290608D01*
X0369669Y0290659D01*
X0369518Y0290714D01*
X0369368Y0290772D01*
X0369220Y0290834D01*
X0369073Y0290900D01*
X0368928Y0290969D01*
X0368785Y0291042D01*
X0368643Y0291118D01*
X0368504Y0291198D01*
X0368366Y0291281D01*
X0368231Y0291368D01*
X0368097Y0291458D01*
X0367966Y0291551D01*
X0367838Y0291647D01*
X0367712Y0291747D01*
X0367588Y0291850D01*
X0367467Y0291955D01*
X0367348Y0292064D01*
X0367232Y0292175D01*
X0367119Y0292290D01*
X0367009Y0292407D01*
X0366902Y0292527D01*
X0366798Y0292649D01*
X0366697Y0292774D01*
X0366599Y0292902D01*
X0366504Y0293032D01*
X0366412Y0293164D01*
X0366324Y0293298D01*
X0366239Y0293435D01*
X0366157Y0293573D01*
X0366079Y0293714D01*
X0366005Y0293856D01*
X0365934Y0294000D01*
X0365866Y0294146D01*
X0365803Y0294294D01*
X0365742Y0294443D01*
X0365686Y0294594D01*
X0365633Y0294746D01*
X0365584Y0294899D01*
X0365539Y0295053D01*
X0365498Y0295208D01*
X0365460Y0295365D01*
X0365427Y0295522D01*
X0365397Y0295680D01*
X0365371Y0295839D01*
X0365350Y0295998D01*
X0365332Y0296158D01*
X0365318Y0296318D01*
X0365308Y0296479D01*
X0365302Y0296639D01*
X0365300Y0296800D01*
X0367942Y0131800D02*
X0367944Y0131993D01*
X0367951Y0132186D01*
X0367963Y0132379D01*
X0367980Y0132572D01*
X0368001Y0132764D01*
X0368027Y0132955D01*
X0368058Y0133146D01*
X0368093Y0133336D01*
X0368133Y0133525D01*
X0368178Y0133713D01*
X0368227Y0133900D01*
X0368281Y0134086D01*
X0368339Y0134270D01*
X0368402Y0134453D01*
X0368470Y0134634D01*
X0368541Y0134813D01*
X0368618Y0134991D01*
X0368698Y0135167D01*
X0368783Y0135340D01*
X0368872Y0135512D01*
X0368965Y0135681D01*
X0369062Y0135848D01*
X0369164Y0136013D01*
X0369269Y0136175D01*
X0369378Y0136334D01*
X0369492Y0136491D01*
X0369609Y0136644D01*
X0369729Y0136795D01*
X0369854Y0136943D01*
X0369982Y0137088D01*
X0370113Y0137229D01*
X0370248Y0137368D01*
X0370387Y0137503D01*
X0370528Y0137634D01*
X0370673Y0137762D01*
X0370821Y0137887D01*
X0370972Y0138007D01*
X0371125Y0138124D01*
X0371282Y0138238D01*
X0371441Y0138347D01*
X0371603Y0138452D01*
X0371768Y0138554D01*
X0371935Y0138651D01*
X0372104Y0138744D01*
X0372276Y0138833D01*
X0372449Y0138918D01*
X0372625Y0138998D01*
X0372803Y0139075D01*
X0372982Y0139146D01*
X0373163Y0139214D01*
X0373346Y0139277D01*
X0373530Y0139335D01*
X0373716Y0139389D01*
X0373903Y0139438D01*
X0374091Y0139483D01*
X0374280Y0139523D01*
X0374470Y0139558D01*
X0374661Y0139589D01*
X0374852Y0139615D01*
X0375044Y0139636D01*
X0375237Y0139653D01*
X0375430Y0139665D01*
X0375623Y0139672D01*
X0375816Y0139674D01*
X0376009Y0139672D01*
X0376202Y0139665D01*
X0376395Y0139653D01*
X0376588Y0139636D01*
X0376780Y0139615D01*
X0376971Y0139589D01*
X0377162Y0139558D01*
X0377352Y0139523D01*
X0377541Y0139483D01*
X0377729Y0139438D01*
X0377916Y0139389D01*
X0378102Y0139335D01*
X0378286Y0139277D01*
X0378469Y0139214D01*
X0378650Y0139146D01*
X0378829Y0139075D01*
X0379007Y0138998D01*
X0379183Y0138918D01*
X0379356Y0138833D01*
X0379528Y0138744D01*
X0379697Y0138651D01*
X0379864Y0138554D01*
X0380029Y0138452D01*
X0380191Y0138347D01*
X0380350Y0138238D01*
X0380507Y0138124D01*
X0380660Y0138007D01*
X0380811Y0137887D01*
X0380959Y0137762D01*
X0381104Y0137634D01*
X0381245Y0137503D01*
X0381384Y0137368D01*
X0381519Y0137229D01*
X0381650Y0137088D01*
X0381778Y0136943D01*
X0381903Y0136795D01*
X0382023Y0136644D01*
X0382140Y0136491D01*
X0382254Y0136334D01*
X0382363Y0136175D01*
X0382468Y0136013D01*
X0382570Y0135848D01*
X0382667Y0135681D01*
X0382760Y0135512D01*
X0382849Y0135340D01*
X0382934Y0135167D01*
X0383014Y0134991D01*
X0383091Y0134813D01*
X0383162Y0134634D01*
X0383230Y0134453D01*
X0383293Y0134270D01*
X0383351Y0134086D01*
X0383405Y0133900D01*
X0383454Y0133713D01*
X0383499Y0133525D01*
X0383539Y0133336D01*
X0383574Y0133146D01*
X0383605Y0132955D01*
X0383631Y0132764D01*
X0383652Y0132572D01*
X0383669Y0132379D01*
X0383681Y0132186D01*
X0383688Y0131993D01*
X0383690Y0131800D01*
X0383688Y0131607D01*
X0383681Y0131414D01*
X0383669Y0131221D01*
X0383652Y0131028D01*
X0383631Y0130836D01*
X0383605Y0130645D01*
X0383574Y0130454D01*
X0383539Y0130264D01*
X0383499Y0130075D01*
X0383454Y0129887D01*
X0383405Y0129700D01*
X0383351Y0129514D01*
X0383293Y0129330D01*
X0383230Y0129147D01*
X0383162Y0128966D01*
X0383091Y0128787D01*
X0383014Y0128609D01*
X0382934Y0128433D01*
X0382849Y0128260D01*
X0382760Y0128088D01*
X0382667Y0127919D01*
X0382570Y0127752D01*
X0382468Y0127587D01*
X0382363Y0127425D01*
X0382254Y0127266D01*
X0382140Y0127109D01*
X0382023Y0126956D01*
X0381903Y0126805D01*
X0381778Y0126657D01*
X0381650Y0126512D01*
X0381519Y0126371D01*
X0381384Y0126232D01*
X0381245Y0126097D01*
X0381104Y0125966D01*
X0380959Y0125838D01*
X0380811Y0125713D01*
X0380660Y0125593D01*
X0380507Y0125476D01*
X0380350Y0125362D01*
X0380191Y0125253D01*
X0380029Y0125148D01*
X0379864Y0125046D01*
X0379697Y0124949D01*
X0379528Y0124856D01*
X0379356Y0124767D01*
X0379183Y0124682D01*
X0379007Y0124602D01*
X0378829Y0124525D01*
X0378650Y0124454D01*
X0378469Y0124386D01*
X0378286Y0124323D01*
X0378102Y0124265D01*
X0377916Y0124211D01*
X0377729Y0124162D01*
X0377541Y0124117D01*
X0377352Y0124077D01*
X0377162Y0124042D01*
X0376971Y0124011D01*
X0376780Y0123985D01*
X0376588Y0123964D01*
X0376395Y0123947D01*
X0376202Y0123935D01*
X0376009Y0123928D01*
X0375816Y0123926D01*
X0375623Y0123928D01*
X0375430Y0123935D01*
X0375237Y0123947D01*
X0375044Y0123964D01*
X0374852Y0123985D01*
X0374661Y0124011D01*
X0374470Y0124042D01*
X0374280Y0124077D01*
X0374091Y0124117D01*
X0373903Y0124162D01*
X0373716Y0124211D01*
X0373530Y0124265D01*
X0373346Y0124323D01*
X0373163Y0124386D01*
X0372982Y0124454D01*
X0372803Y0124525D01*
X0372625Y0124602D01*
X0372449Y0124682D01*
X0372276Y0124767D01*
X0372104Y0124856D01*
X0371935Y0124949D01*
X0371768Y0125046D01*
X0371603Y0125148D01*
X0371441Y0125253D01*
X0371282Y0125362D01*
X0371125Y0125476D01*
X0370972Y0125593D01*
X0370821Y0125713D01*
X0370673Y0125838D01*
X0370528Y0125966D01*
X0370387Y0126097D01*
X0370248Y0126232D01*
X0370113Y0126371D01*
X0369982Y0126512D01*
X0369854Y0126657D01*
X0369729Y0126805D01*
X0369609Y0126956D01*
X0369492Y0127109D01*
X0369378Y0127266D01*
X0369269Y0127425D01*
X0369164Y0127587D01*
X0369062Y0127752D01*
X0368965Y0127919D01*
X0368872Y0128088D01*
X0368783Y0128260D01*
X0368698Y0128433D01*
X0368618Y0128609D01*
X0368541Y0128787D01*
X0368470Y0128966D01*
X0368402Y0129147D01*
X0368339Y0129330D01*
X0368281Y0129514D01*
X0368227Y0129700D01*
X0368178Y0129887D01*
X0368133Y0130075D01*
X0368093Y0130264D01*
X0368058Y0130454D01*
X0368027Y0130645D01*
X0368001Y0130836D01*
X0367980Y0131028D01*
X0367963Y0131221D01*
X0367951Y0131414D01*
X0367944Y0131607D01*
X0367942Y0131800D01*
X0367942Y0061800D02*
X0367944Y0061993D01*
X0367951Y0062186D01*
X0367963Y0062379D01*
X0367980Y0062572D01*
X0368001Y0062764D01*
X0368027Y0062955D01*
X0368058Y0063146D01*
X0368093Y0063336D01*
X0368133Y0063525D01*
X0368178Y0063713D01*
X0368227Y0063900D01*
X0368281Y0064086D01*
X0368339Y0064270D01*
X0368402Y0064453D01*
X0368470Y0064634D01*
X0368541Y0064813D01*
X0368618Y0064991D01*
X0368698Y0065167D01*
X0368783Y0065340D01*
X0368872Y0065512D01*
X0368965Y0065681D01*
X0369062Y0065848D01*
X0369164Y0066013D01*
X0369269Y0066175D01*
X0369378Y0066334D01*
X0369492Y0066491D01*
X0369609Y0066644D01*
X0369729Y0066795D01*
X0369854Y0066943D01*
X0369982Y0067088D01*
X0370113Y0067229D01*
X0370248Y0067368D01*
X0370387Y0067503D01*
X0370528Y0067634D01*
X0370673Y0067762D01*
X0370821Y0067887D01*
X0370972Y0068007D01*
X0371125Y0068124D01*
X0371282Y0068238D01*
X0371441Y0068347D01*
X0371603Y0068452D01*
X0371768Y0068554D01*
X0371935Y0068651D01*
X0372104Y0068744D01*
X0372276Y0068833D01*
X0372449Y0068918D01*
X0372625Y0068998D01*
X0372803Y0069075D01*
X0372982Y0069146D01*
X0373163Y0069214D01*
X0373346Y0069277D01*
X0373530Y0069335D01*
X0373716Y0069389D01*
X0373903Y0069438D01*
X0374091Y0069483D01*
X0374280Y0069523D01*
X0374470Y0069558D01*
X0374661Y0069589D01*
X0374852Y0069615D01*
X0375044Y0069636D01*
X0375237Y0069653D01*
X0375430Y0069665D01*
X0375623Y0069672D01*
X0375816Y0069674D01*
X0376009Y0069672D01*
X0376202Y0069665D01*
X0376395Y0069653D01*
X0376588Y0069636D01*
X0376780Y0069615D01*
X0376971Y0069589D01*
X0377162Y0069558D01*
X0377352Y0069523D01*
X0377541Y0069483D01*
X0377729Y0069438D01*
X0377916Y0069389D01*
X0378102Y0069335D01*
X0378286Y0069277D01*
X0378469Y0069214D01*
X0378650Y0069146D01*
X0378829Y0069075D01*
X0379007Y0068998D01*
X0379183Y0068918D01*
X0379356Y0068833D01*
X0379528Y0068744D01*
X0379697Y0068651D01*
X0379864Y0068554D01*
X0380029Y0068452D01*
X0380191Y0068347D01*
X0380350Y0068238D01*
X0380507Y0068124D01*
X0380660Y0068007D01*
X0380811Y0067887D01*
X0380959Y0067762D01*
X0381104Y0067634D01*
X0381245Y0067503D01*
X0381384Y0067368D01*
X0381519Y0067229D01*
X0381650Y0067088D01*
X0381778Y0066943D01*
X0381903Y0066795D01*
X0382023Y0066644D01*
X0382140Y0066491D01*
X0382254Y0066334D01*
X0382363Y0066175D01*
X0382468Y0066013D01*
X0382570Y0065848D01*
X0382667Y0065681D01*
X0382760Y0065512D01*
X0382849Y0065340D01*
X0382934Y0065167D01*
X0383014Y0064991D01*
X0383091Y0064813D01*
X0383162Y0064634D01*
X0383230Y0064453D01*
X0383293Y0064270D01*
X0383351Y0064086D01*
X0383405Y0063900D01*
X0383454Y0063713D01*
X0383499Y0063525D01*
X0383539Y0063336D01*
X0383574Y0063146D01*
X0383605Y0062955D01*
X0383631Y0062764D01*
X0383652Y0062572D01*
X0383669Y0062379D01*
X0383681Y0062186D01*
X0383688Y0061993D01*
X0383690Y0061800D01*
X0383688Y0061607D01*
X0383681Y0061414D01*
X0383669Y0061221D01*
X0383652Y0061028D01*
X0383631Y0060836D01*
X0383605Y0060645D01*
X0383574Y0060454D01*
X0383539Y0060264D01*
X0383499Y0060075D01*
X0383454Y0059887D01*
X0383405Y0059700D01*
X0383351Y0059514D01*
X0383293Y0059330D01*
X0383230Y0059147D01*
X0383162Y0058966D01*
X0383091Y0058787D01*
X0383014Y0058609D01*
X0382934Y0058433D01*
X0382849Y0058260D01*
X0382760Y0058088D01*
X0382667Y0057919D01*
X0382570Y0057752D01*
X0382468Y0057587D01*
X0382363Y0057425D01*
X0382254Y0057266D01*
X0382140Y0057109D01*
X0382023Y0056956D01*
X0381903Y0056805D01*
X0381778Y0056657D01*
X0381650Y0056512D01*
X0381519Y0056371D01*
X0381384Y0056232D01*
X0381245Y0056097D01*
X0381104Y0055966D01*
X0380959Y0055838D01*
X0380811Y0055713D01*
X0380660Y0055593D01*
X0380507Y0055476D01*
X0380350Y0055362D01*
X0380191Y0055253D01*
X0380029Y0055148D01*
X0379864Y0055046D01*
X0379697Y0054949D01*
X0379528Y0054856D01*
X0379356Y0054767D01*
X0379183Y0054682D01*
X0379007Y0054602D01*
X0378829Y0054525D01*
X0378650Y0054454D01*
X0378469Y0054386D01*
X0378286Y0054323D01*
X0378102Y0054265D01*
X0377916Y0054211D01*
X0377729Y0054162D01*
X0377541Y0054117D01*
X0377352Y0054077D01*
X0377162Y0054042D01*
X0376971Y0054011D01*
X0376780Y0053985D01*
X0376588Y0053964D01*
X0376395Y0053947D01*
X0376202Y0053935D01*
X0376009Y0053928D01*
X0375816Y0053926D01*
X0375623Y0053928D01*
X0375430Y0053935D01*
X0375237Y0053947D01*
X0375044Y0053964D01*
X0374852Y0053985D01*
X0374661Y0054011D01*
X0374470Y0054042D01*
X0374280Y0054077D01*
X0374091Y0054117D01*
X0373903Y0054162D01*
X0373716Y0054211D01*
X0373530Y0054265D01*
X0373346Y0054323D01*
X0373163Y0054386D01*
X0372982Y0054454D01*
X0372803Y0054525D01*
X0372625Y0054602D01*
X0372449Y0054682D01*
X0372276Y0054767D01*
X0372104Y0054856D01*
X0371935Y0054949D01*
X0371768Y0055046D01*
X0371603Y0055148D01*
X0371441Y0055253D01*
X0371282Y0055362D01*
X0371125Y0055476D01*
X0370972Y0055593D01*
X0370821Y0055713D01*
X0370673Y0055838D01*
X0370528Y0055966D01*
X0370387Y0056097D01*
X0370248Y0056232D01*
X0370113Y0056371D01*
X0369982Y0056512D01*
X0369854Y0056657D01*
X0369729Y0056805D01*
X0369609Y0056956D01*
X0369492Y0057109D01*
X0369378Y0057266D01*
X0369269Y0057425D01*
X0369164Y0057587D01*
X0369062Y0057752D01*
X0368965Y0057919D01*
X0368872Y0058088D01*
X0368783Y0058260D01*
X0368698Y0058433D01*
X0368618Y0058609D01*
X0368541Y0058787D01*
X0368470Y0058966D01*
X0368402Y0059147D01*
X0368339Y0059330D01*
X0368281Y0059514D01*
X0368227Y0059700D01*
X0368178Y0059887D01*
X0368133Y0060075D01*
X0368093Y0060264D01*
X0368058Y0060454D01*
X0368027Y0060645D01*
X0368001Y0060836D01*
X0367980Y0061028D01*
X0367963Y0061221D01*
X0367951Y0061414D01*
X0367944Y0061607D01*
X0367942Y0061800D01*
X0370300Y0021800D02*
X0370302Y0021961D01*
X0370308Y0022121D01*
X0370318Y0022282D01*
X0370332Y0022442D01*
X0370350Y0022602D01*
X0370371Y0022761D01*
X0370397Y0022920D01*
X0370427Y0023078D01*
X0370460Y0023235D01*
X0370498Y0023392D01*
X0370539Y0023547D01*
X0370584Y0023701D01*
X0370633Y0023854D01*
X0370686Y0024006D01*
X0370742Y0024157D01*
X0370803Y0024306D01*
X0370866Y0024454D01*
X0370934Y0024600D01*
X0371005Y0024744D01*
X0371079Y0024886D01*
X0371157Y0025027D01*
X0371239Y0025165D01*
X0371324Y0025302D01*
X0371412Y0025436D01*
X0371504Y0025568D01*
X0371599Y0025698D01*
X0371697Y0025826D01*
X0371798Y0025951D01*
X0371902Y0026073D01*
X0372009Y0026193D01*
X0372119Y0026310D01*
X0372232Y0026425D01*
X0372348Y0026536D01*
X0372467Y0026645D01*
X0372588Y0026750D01*
X0372712Y0026853D01*
X0372838Y0026953D01*
X0372966Y0027049D01*
X0373097Y0027142D01*
X0373231Y0027232D01*
X0373366Y0027319D01*
X0373504Y0027402D01*
X0373643Y0027482D01*
X0373785Y0027558D01*
X0373928Y0027631D01*
X0374073Y0027700D01*
X0374220Y0027766D01*
X0374368Y0027828D01*
X0374518Y0027886D01*
X0374669Y0027941D01*
X0374822Y0027992D01*
X0374976Y0028039D01*
X0375131Y0028082D01*
X0375287Y0028121D01*
X0375443Y0028157D01*
X0375601Y0028188D01*
X0375759Y0028216D01*
X0375918Y0028240D01*
X0376078Y0028260D01*
X0376238Y0028276D01*
X0376398Y0028288D01*
X0376559Y0028296D01*
X0376720Y0028300D01*
X0376880Y0028300D01*
X0377041Y0028296D01*
X0377202Y0028288D01*
X0377362Y0028276D01*
X0377522Y0028260D01*
X0377682Y0028240D01*
X0377841Y0028216D01*
X0377999Y0028188D01*
X0378157Y0028157D01*
X0378313Y0028121D01*
X0378469Y0028082D01*
X0378624Y0028039D01*
X0378778Y0027992D01*
X0378931Y0027941D01*
X0379082Y0027886D01*
X0379232Y0027828D01*
X0379380Y0027766D01*
X0379527Y0027700D01*
X0379672Y0027631D01*
X0379815Y0027558D01*
X0379957Y0027482D01*
X0380096Y0027402D01*
X0380234Y0027319D01*
X0380369Y0027232D01*
X0380503Y0027142D01*
X0380634Y0027049D01*
X0380762Y0026953D01*
X0380888Y0026853D01*
X0381012Y0026750D01*
X0381133Y0026645D01*
X0381252Y0026536D01*
X0381368Y0026425D01*
X0381481Y0026310D01*
X0381591Y0026193D01*
X0381698Y0026073D01*
X0381802Y0025951D01*
X0381903Y0025826D01*
X0382001Y0025698D01*
X0382096Y0025568D01*
X0382188Y0025436D01*
X0382276Y0025302D01*
X0382361Y0025165D01*
X0382443Y0025027D01*
X0382521Y0024886D01*
X0382595Y0024744D01*
X0382666Y0024600D01*
X0382734Y0024454D01*
X0382797Y0024306D01*
X0382858Y0024157D01*
X0382914Y0024006D01*
X0382967Y0023854D01*
X0383016Y0023701D01*
X0383061Y0023547D01*
X0383102Y0023392D01*
X0383140Y0023235D01*
X0383173Y0023078D01*
X0383203Y0022920D01*
X0383229Y0022761D01*
X0383250Y0022602D01*
X0383268Y0022442D01*
X0383282Y0022282D01*
X0383292Y0022121D01*
X0383298Y0021961D01*
X0383300Y0021800D01*
X0383298Y0021639D01*
X0383292Y0021479D01*
X0383282Y0021318D01*
X0383268Y0021158D01*
X0383250Y0020998D01*
X0383229Y0020839D01*
X0383203Y0020680D01*
X0383173Y0020522D01*
X0383140Y0020365D01*
X0383102Y0020208D01*
X0383061Y0020053D01*
X0383016Y0019899D01*
X0382967Y0019746D01*
X0382914Y0019594D01*
X0382858Y0019443D01*
X0382797Y0019294D01*
X0382734Y0019146D01*
X0382666Y0019000D01*
X0382595Y0018856D01*
X0382521Y0018714D01*
X0382443Y0018573D01*
X0382361Y0018435D01*
X0382276Y0018298D01*
X0382188Y0018164D01*
X0382096Y0018032D01*
X0382001Y0017902D01*
X0381903Y0017774D01*
X0381802Y0017649D01*
X0381698Y0017527D01*
X0381591Y0017407D01*
X0381481Y0017290D01*
X0381368Y0017175D01*
X0381252Y0017064D01*
X0381133Y0016955D01*
X0381012Y0016850D01*
X0380888Y0016747D01*
X0380762Y0016647D01*
X0380634Y0016551D01*
X0380503Y0016458D01*
X0380369Y0016368D01*
X0380234Y0016281D01*
X0380096Y0016198D01*
X0379957Y0016118D01*
X0379815Y0016042D01*
X0379672Y0015969D01*
X0379527Y0015900D01*
X0379380Y0015834D01*
X0379232Y0015772D01*
X0379082Y0015714D01*
X0378931Y0015659D01*
X0378778Y0015608D01*
X0378624Y0015561D01*
X0378469Y0015518D01*
X0378313Y0015479D01*
X0378157Y0015443D01*
X0377999Y0015412D01*
X0377841Y0015384D01*
X0377682Y0015360D01*
X0377522Y0015340D01*
X0377362Y0015324D01*
X0377202Y0015312D01*
X0377041Y0015304D01*
X0376880Y0015300D01*
X0376720Y0015300D01*
X0376559Y0015304D01*
X0376398Y0015312D01*
X0376238Y0015324D01*
X0376078Y0015340D01*
X0375918Y0015360D01*
X0375759Y0015384D01*
X0375601Y0015412D01*
X0375443Y0015443D01*
X0375287Y0015479D01*
X0375131Y0015518D01*
X0374976Y0015561D01*
X0374822Y0015608D01*
X0374669Y0015659D01*
X0374518Y0015714D01*
X0374368Y0015772D01*
X0374220Y0015834D01*
X0374073Y0015900D01*
X0373928Y0015969D01*
X0373785Y0016042D01*
X0373643Y0016118D01*
X0373504Y0016198D01*
X0373366Y0016281D01*
X0373231Y0016368D01*
X0373097Y0016458D01*
X0372966Y0016551D01*
X0372838Y0016647D01*
X0372712Y0016747D01*
X0372588Y0016850D01*
X0372467Y0016955D01*
X0372348Y0017064D01*
X0372232Y0017175D01*
X0372119Y0017290D01*
X0372009Y0017407D01*
X0371902Y0017527D01*
X0371798Y0017649D01*
X0371697Y0017774D01*
X0371599Y0017902D01*
X0371504Y0018032D01*
X0371412Y0018164D01*
X0371324Y0018298D01*
X0371239Y0018435D01*
X0371157Y0018573D01*
X0371079Y0018714D01*
X0371005Y0018856D01*
X0370934Y0019000D01*
X0370866Y0019146D01*
X0370803Y0019294D01*
X0370742Y0019443D01*
X0370686Y0019594D01*
X0370633Y0019746D01*
X0370584Y0019899D01*
X0370539Y0020053D01*
X0370498Y0020208D01*
X0370460Y0020365D01*
X0370427Y0020522D01*
X0370397Y0020680D01*
X0370371Y0020839D01*
X0370350Y0020998D01*
X0370332Y0021158D01*
X0370318Y0021318D01*
X0370308Y0021479D01*
X0370302Y0021639D01*
X0370300Y0021800D01*
D11*
X0324162Y0080619D02*
X0324162Y0082981D01*
X0319438Y0082981D02*
X0319438Y0080619D01*
X0299162Y0115619D02*
X0299162Y0117981D01*
X0294438Y0117981D02*
X0294438Y0115619D01*
X0294438Y0140619D02*
X0294438Y0142981D01*
X0299162Y0142981D02*
X0299162Y0140619D01*
X0242981Y0084162D02*
X0240619Y0084162D01*
X0240619Y0079438D02*
X0242981Y0079438D01*
X0219162Y0077981D02*
X0219162Y0075619D01*
X0214438Y0075619D02*
X0214438Y0077981D01*
X0159162Y0080619D02*
X0159162Y0082981D01*
X0154438Y0082981D02*
X0154438Y0080619D01*
X0104162Y0080619D02*
X0104162Y0082981D01*
X0099438Y0082981D02*
X0099438Y0080619D01*
X0067981Y0079162D02*
X0065619Y0079162D01*
X0065619Y0074438D02*
X0067981Y0074438D01*
X0084438Y0032981D02*
X0084438Y0030619D01*
X0089162Y0030619D02*
X0089162Y0032981D01*
X0225619Y0024162D02*
X0227981Y0024162D01*
X0227981Y0019438D02*
X0225619Y0019438D01*
D12*
X0228130Y0025100D02*
X0227713Y0026600D01*
X0228546Y0026600D01*
X0228546Y0026433D01*
X0229083Y0026600D02*
X0229417Y0026600D01*
X0229452Y0026598D01*
X0229486Y0026593D01*
X0229520Y0026584D01*
X0229552Y0026571D01*
X0229584Y0026555D01*
X0229613Y0026536D01*
X0229640Y0026514D01*
X0229664Y0026490D01*
X0229686Y0026463D01*
X0229705Y0026433D01*
X0229721Y0026402D01*
X0229734Y0026370D01*
X0229743Y0026336D01*
X0229748Y0026302D01*
X0229750Y0026267D01*
X0229750Y0025433D01*
X0229748Y0025398D01*
X0229743Y0025364D01*
X0229734Y0025330D01*
X0229721Y0025298D01*
X0229705Y0025267D01*
X0229686Y0025237D01*
X0229664Y0025210D01*
X0229640Y0025186D01*
X0229613Y0025164D01*
X0229584Y0025145D01*
X0229552Y0025129D01*
X0229520Y0025116D01*
X0229486Y0025107D01*
X0229452Y0025102D01*
X0229417Y0025100D01*
X0229083Y0025100D01*
X0224850Y0037850D02*
X0224850Y0038267D01*
X0224848Y0038305D01*
X0224843Y0038344D01*
X0224834Y0038381D01*
X0224822Y0038418D01*
X0224806Y0038453D01*
X0224788Y0038487D01*
X0224766Y0038518D01*
X0224741Y0038548D01*
X0224714Y0038575D01*
X0224684Y0038600D01*
X0224653Y0038622D01*
X0224619Y0038640D01*
X0224584Y0038656D01*
X0224547Y0038668D01*
X0224510Y0038677D01*
X0224471Y0038682D01*
X0224433Y0038684D01*
X0224433Y0038683D02*
X0223767Y0038683D01*
X0223767Y0038684D02*
X0223729Y0038682D01*
X0223690Y0038677D01*
X0223653Y0038668D01*
X0223616Y0038656D01*
X0223581Y0038640D01*
X0223547Y0038622D01*
X0223516Y0038600D01*
X0223486Y0038575D01*
X0223459Y0038548D01*
X0223434Y0038518D01*
X0223412Y0038487D01*
X0223394Y0038453D01*
X0223378Y0038418D01*
X0223366Y0038381D01*
X0223357Y0038344D01*
X0223352Y0038305D01*
X0223350Y0038267D01*
X0223350Y0037850D01*
X0224850Y0037850D01*
X0224850Y0039338D02*
X0224850Y0039838D01*
X0224848Y0039873D01*
X0224843Y0039907D01*
X0224834Y0039941D01*
X0224821Y0039973D01*
X0224805Y0040005D01*
X0224786Y0040034D01*
X0224764Y0040061D01*
X0224740Y0040085D01*
X0224713Y0040107D01*
X0224684Y0040126D01*
X0224652Y0040142D01*
X0224620Y0040155D01*
X0224586Y0040164D01*
X0224552Y0040169D01*
X0224517Y0040171D01*
X0224482Y0040169D01*
X0224448Y0040164D01*
X0224414Y0040155D01*
X0224382Y0040142D01*
X0224351Y0040126D01*
X0224321Y0040107D01*
X0224294Y0040085D01*
X0224270Y0040061D01*
X0224248Y0040034D01*
X0224229Y0040005D01*
X0224213Y0039973D01*
X0224200Y0039941D01*
X0224191Y0039907D01*
X0224186Y0039873D01*
X0224184Y0039838D01*
X0224183Y0039838D02*
X0224183Y0039505D01*
X0224184Y0039755D02*
X0224182Y0039795D01*
X0224176Y0039834D01*
X0224167Y0039872D01*
X0224154Y0039910D01*
X0224138Y0039946D01*
X0224118Y0039980D01*
X0224095Y0040013D01*
X0224069Y0040043D01*
X0224040Y0040070D01*
X0224009Y0040095D01*
X0223976Y0040116D01*
X0223940Y0040134D01*
X0223903Y0040149D01*
X0223865Y0040160D01*
X0223826Y0040168D01*
X0223787Y0040172D01*
X0223747Y0040172D01*
X0223708Y0040168D01*
X0223669Y0040160D01*
X0223631Y0040149D01*
X0223594Y0040134D01*
X0223559Y0040116D01*
X0223525Y0040095D01*
X0223494Y0040070D01*
X0223465Y0040043D01*
X0223439Y0040013D01*
X0223416Y0039980D01*
X0223396Y0039946D01*
X0223380Y0039910D01*
X0223367Y0039872D01*
X0223358Y0039834D01*
X0223352Y0039795D01*
X0223350Y0039755D01*
X0223350Y0039338D01*
X0223350Y0040778D02*
X0223350Y0041611D01*
X0223350Y0041195D02*
X0224850Y0041195D01*
X0224517Y0040778D01*
X0227583Y0058213D02*
X0228417Y0058213D01*
X0228452Y0058215D01*
X0228486Y0058220D01*
X0228520Y0058229D01*
X0228552Y0058242D01*
X0228583Y0058258D01*
X0228613Y0058277D01*
X0228640Y0058299D01*
X0228664Y0058323D01*
X0228686Y0058350D01*
X0228705Y0058379D01*
X0228721Y0058411D01*
X0228734Y0058443D01*
X0228743Y0058477D01*
X0228748Y0058511D01*
X0228750Y0058546D01*
X0228750Y0058880D01*
X0228417Y0059500D02*
X0228382Y0059502D01*
X0228348Y0059507D01*
X0228314Y0059516D01*
X0228282Y0059529D01*
X0228251Y0059545D01*
X0228221Y0059564D01*
X0228194Y0059586D01*
X0228170Y0059610D01*
X0228148Y0059637D01*
X0228129Y0059667D01*
X0228113Y0059698D01*
X0228100Y0059730D01*
X0228091Y0059764D01*
X0228086Y0059798D01*
X0228084Y0059833D01*
X0228086Y0059868D01*
X0228091Y0059902D01*
X0228100Y0059936D01*
X0228113Y0059968D01*
X0228129Y0060000D01*
X0228148Y0060029D01*
X0228170Y0060056D01*
X0228194Y0060080D01*
X0228221Y0060102D01*
X0228251Y0060121D01*
X0228282Y0060137D01*
X0228314Y0060150D01*
X0228348Y0060159D01*
X0228382Y0060164D01*
X0228417Y0060166D01*
X0228452Y0060164D01*
X0228486Y0060159D01*
X0228520Y0060150D01*
X0228552Y0060137D01*
X0228584Y0060121D01*
X0228613Y0060102D01*
X0228640Y0060080D01*
X0228664Y0060056D01*
X0228686Y0060029D01*
X0228705Y0060000D01*
X0228721Y0059968D01*
X0228734Y0059936D01*
X0228743Y0059902D01*
X0228748Y0059868D01*
X0228750Y0059833D01*
X0228748Y0059798D01*
X0228743Y0059764D01*
X0228734Y0059730D01*
X0228721Y0059698D01*
X0228705Y0059667D01*
X0228686Y0059637D01*
X0228664Y0059610D01*
X0228640Y0059586D01*
X0228613Y0059564D01*
X0228584Y0059545D01*
X0228552Y0059529D01*
X0228520Y0059516D01*
X0228486Y0059507D01*
X0228452Y0059502D01*
X0228417Y0059500D01*
X0227667Y0059416D02*
X0227627Y0059418D01*
X0227588Y0059424D01*
X0227550Y0059433D01*
X0227512Y0059446D01*
X0227476Y0059462D01*
X0227442Y0059482D01*
X0227409Y0059505D01*
X0227379Y0059531D01*
X0227352Y0059560D01*
X0227327Y0059591D01*
X0227306Y0059625D01*
X0227288Y0059660D01*
X0227273Y0059697D01*
X0227262Y0059735D01*
X0227254Y0059774D01*
X0227250Y0059813D01*
X0227250Y0059853D01*
X0227254Y0059892D01*
X0227262Y0059931D01*
X0227273Y0059969D01*
X0227288Y0060006D01*
X0227306Y0060042D01*
X0227327Y0060075D01*
X0227352Y0060106D01*
X0227379Y0060135D01*
X0227409Y0060161D01*
X0227442Y0060184D01*
X0227476Y0060204D01*
X0227512Y0060220D01*
X0227550Y0060233D01*
X0227588Y0060242D01*
X0227627Y0060248D01*
X0227667Y0060250D01*
X0227707Y0060248D01*
X0227746Y0060242D01*
X0227784Y0060233D01*
X0227822Y0060220D01*
X0227858Y0060204D01*
X0227892Y0060184D01*
X0227925Y0060161D01*
X0227955Y0060135D01*
X0227982Y0060106D01*
X0228007Y0060075D01*
X0228028Y0060042D01*
X0228046Y0060006D01*
X0228061Y0059969D01*
X0228072Y0059931D01*
X0228080Y0059892D01*
X0228084Y0059853D01*
X0228084Y0059813D01*
X0228080Y0059774D01*
X0228072Y0059735D01*
X0228061Y0059697D01*
X0228046Y0059660D01*
X0228028Y0059625D01*
X0228007Y0059591D01*
X0227982Y0059560D01*
X0227955Y0059531D01*
X0227925Y0059505D01*
X0227892Y0059482D01*
X0227858Y0059462D01*
X0227822Y0059446D01*
X0227784Y0059433D01*
X0227746Y0059424D01*
X0227707Y0059418D01*
X0227667Y0059416D01*
X0227250Y0058880D02*
X0227250Y0058546D01*
X0227252Y0058511D01*
X0227257Y0058477D01*
X0227266Y0058443D01*
X0227279Y0058411D01*
X0227295Y0058380D01*
X0227314Y0058350D01*
X0227336Y0058323D01*
X0227360Y0058299D01*
X0227387Y0058277D01*
X0227417Y0058258D01*
X0227448Y0058242D01*
X0227480Y0058229D01*
X0227514Y0058220D01*
X0227548Y0058215D01*
X0227583Y0058213D01*
X0221600Y0073850D02*
X0220100Y0073850D01*
X0220767Y0073850D02*
X0220767Y0074267D01*
X0220767Y0074350D02*
X0220100Y0074683D01*
X0220100Y0075282D02*
X0220100Y0076115D01*
X0220100Y0075698D02*
X0221600Y0075698D01*
X0221267Y0075282D01*
X0221600Y0074267D02*
X0221598Y0074307D01*
X0221592Y0074346D01*
X0221583Y0074384D01*
X0221570Y0074422D01*
X0221554Y0074458D01*
X0221534Y0074492D01*
X0221511Y0074525D01*
X0221485Y0074555D01*
X0221456Y0074582D01*
X0221425Y0074607D01*
X0221392Y0074628D01*
X0221356Y0074646D01*
X0221319Y0074661D01*
X0221281Y0074672D01*
X0221242Y0074680D01*
X0221203Y0074684D01*
X0221163Y0074684D01*
X0221124Y0074680D01*
X0221085Y0074672D01*
X0221047Y0074661D01*
X0221010Y0074646D01*
X0220975Y0074628D01*
X0220941Y0074607D01*
X0220910Y0074582D01*
X0220881Y0074555D01*
X0220855Y0074525D01*
X0220832Y0074492D01*
X0220812Y0074458D01*
X0220796Y0074422D01*
X0220783Y0074384D01*
X0220774Y0074346D01*
X0220768Y0074307D01*
X0220766Y0074267D01*
X0221600Y0074267D02*
X0221600Y0073850D01*
X0221267Y0076722D02*
X0221600Y0077138D01*
X0220100Y0077138D01*
X0220100Y0076722D02*
X0220100Y0077555D01*
X0241045Y0085433D02*
X0241878Y0085433D01*
X0241545Y0086600D01*
X0241295Y0085767D02*
X0241295Y0085100D01*
X0242485Y0085100D02*
X0243318Y0085100D01*
X0242902Y0085100D02*
X0242902Y0086600D01*
X0243318Y0086267D01*
X0244333Y0086600D02*
X0244293Y0086598D01*
X0244254Y0086592D01*
X0244216Y0086583D01*
X0244178Y0086570D01*
X0244142Y0086554D01*
X0244108Y0086534D01*
X0244075Y0086511D01*
X0244045Y0086485D01*
X0244018Y0086456D01*
X0243993Y0086425D01*
X0243972Y0086392D01*
X0243954Y0086356D01*
X0243939Y0086319D01*
X0243928Y0086281D01*
X0243920Y0086242D01*
X0243916Y0086203D01*
X0243916Y0086163D01*
X0243920Y0086124D01*
X0243928Y0086085D01*
X0243939Y0086047D01*
X0243954Y0086010D01*
X0243972Y0085975D01*
X0243993Y0085941D01*
X0244018Y0085910D01*
X0244045Y0085881D01*
X0244075Y0085855D01*
X0244108Y0085832D01*
X0244142Y0085812D01*
X0244178Y0085796D01*
X0244216Y0085783D01*
X0244254Y0085774D01*
X0244293Y0085768D01*
X0244333Y0085766D01*
X0244333Y0085767D02*
X0244750Y0085767D01*
X0244250Y0085767D02*
X0243917Y0085100D01*
X0244750Y0085100D02*
X0244750Y0086600D01*
X0244333Y0086600D01*
X0288750Y0050750D02*
X0288750Y0049917D01*
X0289583Y0050625D01*
X0290250Y0050375D02*
X0290248Y0050335D01*
X0290243Y0050295D01*
X0290235Y0050255D01*
X0290223Y0050216D01*
X0290208Y0050179D01*
X0290190Y0050143D01*
X0290169Y0050108D01*
X0290146Y0050075D01*
X0290119Y0050045D01*
X0290090Y0050017D01*
X0290059Y0049991D01*
X0290026Y0049968D01*
X0289991Y0049948D01*
X0289954Y0049930D01*
X0289916Y0049916D01*
X0289583Y0050625D02*
X0289609Y0050650D01*
X0289638Y0050673D01*
X0289668Y0050693D01*
X0289700Y0050710D01*
X0289733Y0050724D01*
X0289768Y0050735D01*
X0289803Y0050743D01*
X0289839Y0050748D01*
X0289875Y0050750D01*
X0289912Y0050748D01*
X0289948Y0050743D01*
X0289984Y0050734D01*
X0290019Y0050721D01*
X0290052Y0050706D01*
X0290083Y0050687D01*
X0290113Y0050665D01*
X0290140Y0050640D01*
X0290165Y0050613D01*
X0290187Y0050583D01*
X0290206Y0050552D01*
X0290221Y0050519D01*
X0290234Y0050484D01*
X0290243Y0050448D01*
X0290248Y0050412D01*
X0290250Y0050375D01*
X0290250Y0048977D02*
X0290250Y0048477D01*
X0290250Y0048977D02*
X0290248Y0049012D01*
X0290243Y0049046D01*
X0290234Y0049080D01*
X0290221Y0049112D01*
X0290205Y0049144D01*
X0290186Y0049173D01*
X0290164Y0049200D01*
X0290140Y0049224D01*
X0290113Y0049246D01*
X0290084Y0049265D01*
X0290052Y0049281D01*
X0290020Y0049294D01*
X0289986Y0049303D01*
X0289952Y0049308D01*
X0289917Y0049310D01*
X0289882Y0049308D01*
X0289848Y0049303D01*
X0289814Y0049294D01*
X0289782Y0049281D01*
X0289751Y0049265D01*
X0289721Y0049246D01*
X0289694Y0049224D01*
X0289670Y0049200D01*
X0289648Y0049173D01*
X0289629Y0049144D01*
X0289613Y0049112D01*
X0289600Y0049080D01*
X0289591Y0049046D01*
X0289586Y0049012D01*
X0289584Y0048977D01*
X0289583Y0048977D02*
X0289583Y0048643D01*
X0289584Y0048893D02*
X0289582Y0048933D01*
X0289576Y0048972D01*
X0289567Y0049010D01*
X0289554Y0049048D01*
X0289538Y0049084D01*
X0289518Y0049118D01*
X0289495Y0049151D01*
X0289469Y0049181D01*
X0289440Y0049208D01*
X0289409Y0049233D01*
X0289376Y0049254D01*
X0289340Y0049272D01*
X0289303Y0049287D01*
X0289265Y0049298D01*
X0289226Y0049306D01*
X0289187Y0049310D01*
X0289147Y0049310D01*
X0289108Y0049306D01*
X0289069Y0049298D01*
X0289031Y0049287D01*
X0288994Y0049272D01*
X0288959Y0049254D01*
X0288925Y0049233D01*
X0288894Y0049208D01*
X0288865Y0049181D01*
X0288839Y0049151D01*
X0288816Y0049118D01*
X0288796Y0049084D01*
X0288780Y0049048D01*
X0288767Y0049010D01*
X0288758Y0048972D01*
X0288752Y0048933D01*
X0288750Y0048893D01*
X0288750Y0048477D01*
X0289167Y0047822D02*
X0289833Y0047822D01*
X0289871Y0047820D01*
X0289910Y0047815D01*
X0289947Y0047806D01*
X0289984Y0047794D01*
X0290019Y0047778D01*
X0290053Y0047760D01*
X0290084Y0047738D01*
X0290114Y0047713D01*
X0290141Y0047686D01*
X0290166Y0047656D01*
X0290188Y0047625D01*
X0290206Y0047591D01*
X0290222Y0047556D01*
X0290234Y0047519D01*
X0290243Y0047482D01*
X0290248Y0047443D01*
X0290250Y0047405D01*
X0290250Y0046989D01*
X0288750Y0046989D01*
X0288750Y0047405D01*
X0288752Y0047443D01*
X0288757Y0047482D01*
X0288766Y0047519D01*
X0288778Y0047556D01*
X0288794Y0047591D01*
X0288812Y0047625D01*
X0288834Y0047656D01*
X0288859Y0047686D01*
X0288886Y0047713D01*
X0288916Y0047738D01*
X0288947Y0047760D01*
X0288981Y0047778D01*
X0289016Y0047794D01*
X0289053Y0047806D01*
X0289090Y0047815D01*
X0289129Y0047820D01*
X0289167Y0047822D01*
X0325100Y0078850D02*
X0326600Y0078850D01*
X0326600Y0079267D01*
X0326598Y0079307D01*
X0326592Y0079346D01*
X0326583Y0079384D01*
X0326570Y0079422D01*
X0326554Y0079458D01*
X0326534Y0079492D01*
X0326511Y0079525D01*
X0326485Y0079555D01*
X0326456Y0079582D01*
X0326425Y0079607D01*
X0326392Y0079628D01*
X0326356Y0079646D01*
X0326319Y0079661D01*
X0326281Y0079672D01*
X0326242Y0079680D01*
X0326203Y0079684D01*
X0326163Y0079684D01*
X0326124Y0079680D01*
X0326085Y0079672D01*
X0326047Y0079661D01*
X0326010Y0079646D01*
X0325975Y0079628D01*
X0325941Y0079607D01*
X0325910Y0079582D01*
X0325881Y0079555D01*
X0325855Y0079525D01*
X0325832Y0079492D01*
X0325812Y0079458D01*
X0325796Y0079422D01*
X0325783Y0079384D01*
X0325774Y0079346D01*
X0325768Y0079307D01*
X0325766Y0079267D01*
X0325767Y0079267D02*
X0325767Y0078850D01*
X0325767Y0079350D02*
X0325100Y0079683D01*
X0325100Y0080698D02*
X0326600Y0081115D01*
X0326600Y0080282D01*
X0326433Y0080282D01*
X0301600Y0113850D02*
X0300100Y0113850D01*
X0300767Y0113850D02*
X0300767Y0114267D01*
X0300767Y0114350D02*
X0300100Y0114683D01*
X0300100Y0115282D02*
X0300100Y0116115D01*
X0300100Y0115698D02*
X0301600Y0115698D01*
X0301267Y0115282D01*
X0301600Y0114267D02*
X0301598Y0114307D01*
X0301592Y0114346D01*
X0301583Y0114384D01*
X0301570Y0114422D01*
X0301554Y0114458D01*
X0301534Y0114492D01*
X0301511Y0114525D01*
X0301485Y0114555D01*
X0301456Y0114582D01*
X0301425Y0114607D01*
X0301392Y0114628D01*
X0301356Y0114646D01*
X0301319Y0114661D01*
X0301281Y0114672D01*
X0301242Y0114680D01*
X0301203Y0114684D01*
X0301163Y0114684D01*
X0301124Y0114680D01*
X0301085Y0114672D01*
X0301047Y0114661D01*
X0301010Y0114646D01*
X0300975Y0114628D01*
X0300941Y0114607D01*
X0300910Y0114582D01*
X0300881Y0114555D01*
X0300855Y0114525D01*
X0300832Y0114492D01*
X0300812Y0114458D01*
X0300796Y0114422D01*
X0300783Y0114384D01*
X0300774Y0114346D01*
X0300768Y0114307D01*
X0300766Y0114267D01*
X0301600Y0114267D02*
X0301600Y0113850D01*
X0301600Y0116722D02*
X0301600Y0117222D01*
X0301598Y0117257D01*
X0301593Y0117291D01*
X0301584Y0117325D01*
X0301571Y0117357D01*
X0301555Y0117389D01*
X0301536Y0117418D01*
X0301514Y0117445D01*
X0301490Y0117469D01*
X0301463Y0117491D01*
X0301434Y0117510D01*
X0301402Y0117526D01*
X0301370Y0117539D01*
X0301336Y0117548D01*
X0301302Y0117553D01*
X0301267Y0117555D01*
X0301232Y0117553D01*
X0301198Y0117548D01*
X0301164Y0117539D01*
X0301132Y0117526D01*
X0301101Y0117510D01*
X0301071Y0117491D01*
X0301044Y0117469D01*
X0301020Y0117445D01*
X0300998Y0117418D01*
X0300979Y0117389D01*
X0300963Y0117357D01*
X0300950Y0117325D01*
X0300941Y0117291D01*
X0300936Y0117257D01*
X0300934Y0117222D01*
X0300933Y0117222D02*
X0300933Y0116888D01*
X0300934Y0117138D02*
X0300932Y0117178D01*
X0300926Y0117217D01*
X0300917Y0117255D01*
X0300904Y0117293D01*
X0300888Y0117329D01*
X0300868Y0117363D01*
X0300845Y0117396D01*
X0300819Y0117426D01*
X0300790Y0117453D01*
X0300759Y0117478D01*
X0300726Y0117499D01*
X0300690Y0117517D01*
X0300653Y0117532D01*
X0300615Y0117543D01*
X0300576Y0117551D01*
X0300537Y0117555D01*
X0300497Y0117555D01*
X0300458Y0117551D01*
X0300419Y0117543D01*
X0300381Y0117532D01*
X0300344Y0117517D01*
X0300309Y0117499D01*
X0300275Y0117478D01*
X0300244Y0117453D01*
X0300215Y0117426D01*
X0300189Y0117396D01*
X0300166Y0117363D01*
X0300146Y0117329D01*
X0300130Y0117293D01*
X0300117Y0117255D01*
X0300108Y0117217D01*
X0300102Y0117178D01*
X0300100Y0117138D01*
X0300100Y0116722D01*
X0300100Y0138850D02*
X0301600Y0138850D01*
X0301600Y0139267D01*
X0301598Y0139307D01*
X0301592Y0139346D01*
X0301583Y0139384D01*
X0301570Y0139422D01*
X0301554Y0139458D01*
X0301534Y0139492D01*
X0301511Y0139525D01*
X0301485Y0139555D01*
X0301456Y0139582D01*
X0301425Y0139607D01*
X0301392Y0139628D01*
X0301356Y0139646D01*
X0301319Y0139661D01*
X0301281Y0139672D01*
X0301242Y0139680D01*
X0301203Y0139684D01*
X0301163Y0139684D01*
X0301124Y0139680D01*
X0301085Y0139672D01*
X0301047Y0139661D01*
X0301010Y0139646D01*
X0300975Y0139628D01*
X0300941Y0139607D01*
X0300910Y0139582D01*
X0300881Y0139555D01*
X0300855Y0139525D01*
X0300832Y0139492D01*
X0300812Y0139458D01*
X0300796Y0139422D01*
X0300783Y0139384D01*
X0300774Y0139346D01*
X0300768Y0139307D01*
X0300766Y0139267D01*
X0300767Y0139267D02*
X0300767Y0138850D01*
X0300767Y0139350D02*
X0300100Y0139683D01*
X0300100Y0140282D02*
X0300100Y0141115D01*
X0300100Y0140698D02*
X0301600Y0140698D01*
X0301267Y0140282D01*
X0300100Y0141722D02*
X0300100Y0142555D01*
X0300100Y0141722D02*
X0300933Y0142430D01*
X0301600Y0142180D02*
X0301598Y0142140D01*
X0301593Y0142100D01*
X0301585Y0142060D01*
X0301573Y0142021D01*
X0301558Y0141984D01*
X0301540Y0141948D01*
X0301519Y0141913D01*
X0301496Y0141880D01*
X0301469Y0141850D01*
X0301440Y0141822D01*
X0301409Y0141796D01*
X0301376Y0141773D01*
X0301341Y0141753D01*
X0301304Y0141735D01*
X0301266Y0141721D01*
X0300933Y0142430D02*
X0300959Y0142455D01*
X0300988Y0142478D01*
X0301018Y0142498D01*
X0301050Y0142515D01*
X0301083Y0142529D01*
X0301118Y0142540D01*
X0301153Y0142548D01*
X0301189Y0142553D01*
X0301225Y0142555D01*
X0301262Y0142553D01*
X0301298Y0142548D01*
X0301334Y0142539D01*
X0301369Y0142526D01*
X0301402Y0142511D01*
X0301433Y0142492D01*
X0301463Y0142470D01*
X0301490Y0142445D01*
X0301515Y0142418D01*
X0301537Y0142388D01*
X0301556Y0142357D01*
X0301571Y0142324D01*
X0301584Y0142289D01*
X0301593Y0142253D01*
X0301598Y0142217D01*
X0301600Y0142180D01*
X0153083Y0084750D02*
X0152667Y0084750D01*
X0152667Y0084250D01*
X0152667Y0084750D02*
X0152617Y0084748D01*
X0152568Y0084743D01*
X0152519Y0084733D01*
X0152470Y0084720D01*
X0152423Y0084704D01*
X0152378Y0084684D01*
X0152334Y0084661D01*
X0152291Y0084634D01*
X0152251Y0084604D01*
X0152213Y0084572D01*
X0152178Y0084537D01*
X0152146Y0084499D01*
X0152116Y0084459D01*
X0152089Y0084417D01*
X0152066Y0084372D01*
X0152046Y0084327D01*
X0152030Y0084280D01*
X0152017Y0084231D01*
X0152007Y0084182D01*
X0152002Y0084133D01*
X0152000Y0084083D01*
X0152000Y0083318D02*
X0152667Y0082985D01*
X0152667Y0082902D02*
X0152667Y0082485D01*
X0152666Y0082902D02*
X0152668Y0082942D01*
X0152674Y0082981D01*
X0152683Y0083019D01*
X0152696Y0083057D01*
X0152712Y0083093D01*
X0152732Y0083127D01*
X0152755Y0083160D01*
X0152781Y0083190D01*
X0152810Y0083217D01*
X0152841Y0083242D01*
X0152875Y0083263D01*
X0152910Y0083281D01*
X0152947Y0083296D01*
X0152985Y0083307D01*
X0153024Y0083315D01*
X0153063Y0083319D01*
X0153103Y0083319D01*
X0153142Y0083315D01*
X0153181Y0083307D01*
X0153219Y0083296D01*
X0153256Y0083281D01*
X0153292Y0083263D01*
X0153325Y0083242D01*
X0153356Y0083217D01*
X0153385Y0083190D01*
X0153411Y0083160D01*
X0153434Y0083127D01*
X0153454Y0083093D01*
X0153470Y0083057D01*
X0153483Y0083019D01*
X0153492Y0082981D01*
X0153498Y0082942D01*
X0153500Y0082902D01*
X0153500Y0082485D01*
X0152000Y0082485D01*
X0153000Y0083917D02*
X0153083Y0083917D01*
X0153000Y0083917D02*
X0152965Y0083919D01*
X0152931Y0083924D01*
X0152897Y0083933D01*
X0152865Y0083946D01*
X0152834Y0083962D01*
X0152804Y0083981D01*
X0152777Y0084003D01*
X0152753Y0084027D01*
X0152731Y0084054D01*
X0152712Y0084084D01*
X0152696Y0084115D01*
X0152683Y0084147D01*
X0152674Y0084181D01*
X0152669Y0084215D01*
X0152667Y0084250D01*
X0153083Y0083916D02*
X0153123Y0083918D01*
X0153162Y0083924D01*
X0153200Y0083933D01*
X0153238Y0083946D01*
X0153274Y0083962D01*
X0153308Y0083982D01*
X0153341Y0084005D01*
X0153371Y0084031D01*
X0153398Y0084060D01*
X0153423Y0084091D01*
X0153444Y0084125D01*
X0153462Y0084160D01*
X0153477Y0084197D01*
X0153488Y0084235D01*
X0153496Y0084274D01*
X0153500Y0084313D01*
X0153500Y0084353D01*
X0153496Y0084392D01*
X0153488Y0084431D01*
X0153477Y0084469D01*
X0153462Y0084506D01*
X0153444Y0084542D01*
X0153423Y0084575D01*
X0153398Y0084606D01*
X0153371Y0084635D01*
X0153341Y0084661D01*
X0153308Y0084684D01*
X0153274Y0084704D01*
X0153238Y0084720D01*
X0153200Y0084733D01*
X0153162Y0084742D01*
X0153123Y0084748D01*
X0153083Y0084750D01*
X0148958Y0060042D02*
X0149015Y0060016D01*
X0149073Y0059993D01*
X0149132Y0059973D01*
X0149192Y0059956D01*
X0149253Y0059942D01*
X0149314Y0059931D01*
X0149376Y0059923D01*
X0149438Y0059919D01*
X0149500Y0059917D01*
X0149500Y0060750D02*
X0149562Y0060748D01*
X0149624Y0060744D01*
X0149686Y0060736D01*
X0149747Y0060725D01*
X0149808Y0060711D01*
X0149868Y0060694D01*
X0149927Y0060674D01*
X0149985Y0060651D01*
X0150042Y0060625D01*
X0149917Y0060667D02*
X0149083Y0060000D01*
X0148750Y0060333D02*
X0148752Y0060365D01*
X0148757Y0060396D01*
X0148765Y0060427D01*
X0148776Y0060457D01*
X0148790Y0060485D01*
X0148807Y0060512D01*
X0148827Y0060537D01*
X0148849Y0060560D01*
X0148874Y0060580D01*
X0148900Y0060598D01*
X0148929Y0060612D01*
X0148958Y0060624D01*
X0148750Y0060333D02*
X0148752Y0060301D01*
X0148757Y0060270D01*
X0148765Y0060239D01*
X0148776Y0060209D01*
X0148790Y0060181D01*
X0148807Y0060154D01*
X0148827Y0060129D01*
X0148849Y0060106D01*
X0148874Y0060086D01*
X0148900Y0060068D01*
X0148929Y0060054D01*
X0148958Y0060042D01*
X0148958Y0060625D02*
X0149015Y0060651D01*
X0149073Y0060674D01*
X0149132Y0060694D01*
X0149192Y0060711D01*
X0149253Y0060725D01*
X0149314Y0060736D01*
X0149376Y0060744D01*
X0149438Y0060748D01*
X0149500Y0060750D01*
X0149500Y0059917D02*
X0149562Y0059919D01*
X0149624Y0059923D01*
X0149686Y0059931D01*
X0149747Y0059942D01*
X0149808Y0059956D01*
X0149868Y0059973D01*
X0149927Y0059993D01*
X0149985Y0060016D01*
X0150042Y0060042D01*
X0150250Y0060333D02*
X0150248Y0060365D01*
X0150243Y0060396D01*
X0150235Y0060427D01*
X0150224Y0060457D01*
X0150210Y0060485D01*
X0150193Y0060512D01*
X0150173Y0060537D01*
X0150151Y0060560D01*
X0150126Y0060580D01*
X0150100Y0060598D01*
X0150071Y0060612D01*
X0150042Y0060624D01*
X0150250Y0060333D02*
X0150248Y0060301D01*
X0150243Y0060270D01*
X0150235Y0060239D01*
X0150224Y0060209D01*
X0150210Y0060181D01*
X0150193Y0060154D01*
X0150173Y0060129D01*
X0150151Y0060106D01*
X0150126Y0060086D01*
X0150100Y0060068D01*
X0150071Y0060054D01*
X0150042Y0060042D01*
X0150250Y0058977D02*
X0150248Y0059012D01*
X0150243Y0059046D01*
X0150234Y0059080D01*
X0150221Y0059112D01*
X0150205Y0059144D01*
X0150186Y0059173D01*
X0150164Y0059200D01*
X0150140Y0059224D01*
X0150113Y0059246D01*
X0150084Y0059265D01*
X0150052Y0059281D01*
X0150020Y0059294D01*
X0149986Y0059303D01*
X0149952Y0059308D01*
X0149917Y0059310D01*
X0149882Y0059308D01*
X0149848Y0059303D01*
X0149814Y0059294D01*
X0149782Y0059281D01*
X0149751Y0059265D01*
X0149721Y0059246D01*
X0149694Y0059224D01*
X0149670Y0059200D01*
X0149648Y0059173D01*
X0149629Y0059144D01*
X0149613Y0059112D01*
X0149600Y0059080D01*
X0149591Y0059046D01*
X0149586Y0059012D01*
X0149584Y0058977D01*
X0149583Y0058977D02*
X0149583Y0058643D01*
X0149584Y0058893D02*
X0149582Y0058933D01*
X0149576Y0058972D01*
X0149567Y0059010D01*
X0149554Y0059048D01*
X0149538Y0059084D01*
X0149518Y0059118D01*
X0149495Y0059151D01*
X0149469Y0059181D01*
X0149440Y0059208D01*
X0149409Y0059233D01*
X0149376Y0059254D01*
X0149340Y0059272D01*
X0149303Y0059287D01*
X0149265Y0059298D01*
X0149226Y0059306D01*
X0149187Y0059310D01*
X0149147Y0059310D01*
X0149108Y0059306D01*
X0149069Y0059298D01*
X0149031Y0059287D01*
X0148994Y0059272D01*
X0148959Y0059254D01*
X0148925Y0059233D01*
X0148894Y0059208D01*
X0148865Y0059181D01*
X0148839Y0059151D01*
X0148816Y0059118D01*
X0148796Y0059084D01*
X0148780Y0059048D01*
X0148767Y0059010D01*
X0148758Y0058972D01*
X0148752Y0058933D01*
X0148750Y0058893D01*
X0148750Y0058477D01*
X0149167Y0057822D02*
X0149833Y0057822D01*
X0149871Y0057820D01*
X0149910Y0057815D01*
X0149947Y0057806D01*
X0149984Y0057794D01*
X0150019Y0057778D01*
X0150053Y0057760D01*
X0150084Y0057738D01*
X0150114Y0057713D01*
X0150141Y0057686D01*
X0150166Y0057656D01*
X0150188Y0057625D01*
X0150206Y0057591D01*
X0150222Y0057556D01*
X0150234Y0057519D01*
X0150243Y0057482D01*
X0150248Y0057443D01*
X0150250Y0057405D01*
X0150250Y0056989D01*
X0148750Y0056989D01*
X0148750Y0057405D01*
X0148752Y0057443D01*
X0148757Y0057482D01*
X0148766Y0057519D01*
X0148778Y0057556D01*
X0148794Y0057591D01*
X0148812Y0057625D01*
X0148834Y0057656D01*
X0148859Y0057686D01*
X0148886Y0057713D01*
X0148916Y0057738D01*
X0148947Y0057760D01*
X0148981Y0057778D01*
X0149016Y0057794D01*
X0149053Y0057806D01*
X0149090Y0057815D01*
X0149129Y0057820D01*
X0149167Y0057822D01*
X0150250Y0058477D02*
X0150250Y0058977D01*
X0098500Y0081045D02*
X0098500Y0081462D01*
X0098498Y0081502D01*
X0098492Y0081541D01*
X0098483Y0081579D01*
X0098470Y0081617D01*
X0098454Y0081653D01*
X0098434Y0081687D01*
X0098411Y0081720D01*
X0098385Y0081750D01*
X0098356Y0081777D01*
X0098325Y0081802D01*
X0098292Y0081823D01*
X0098256Y0081841D01*
X0098219Y0081856D01*
X0098181Y0081867D01*
X0098142Y0081875D01*
X0098103Y0081879D01*
X0098063Y0081879D01*
X0098024Y0081875D01*
X0097985Y0081867D01*
X0097947Y0081856D01*
X0097910Y0081841D01*
X0097875Y0081823D01*
X0097841Y0081802D01*
X0097810Y0081777D01*
X0097781Y0081750D01*
X0097755Y0081720D01*
X0097732Y0081687D01*
X0097712Y0081653D01*
X0097696Y0081617D01*
X0097683Y0081579D01*
X0097674Y0081541D01*
X0097668Y0081502D01*
X0097666Y0081462D01*
X0097667Y0081462D02*
X0097667Y0081045D01*
X0097667Y0081545D02*
X0097000Y0081878D01*
X0097000Y0082477D02*
X0097000Y0083310D01*
X0097000Y0082893D02*
X0098500Y0082893D01*
X0098167Y0082477D01*
X0097750Y0084750D02*
X0097688Y0084748D01*
X0097626Y0084744D01*
X0097564Y0084736D01*
X0097503Y0084725D01*
X0097442Y0084711D01*
X0097382Y0084694D01*
X0097323Y0084674D01*
X0097265Y0084651D01*
X0097208Y0084625D01*
X0097208Y0084624D02*
X0097179Y0084612D01*
X0097150Y0084598D01*
X0097124Y0084580D01*
X0097099Y0084560D01*
X0097077Y0084537D01*
X0097057Y0084512D01*
X0097040Y0084485D01*
X0097026Y0084457D01*
X0097015Y0084427D01*
X0097007Y0084396D01*
X0097002Y0084365D01*
X0097000Y0084333D01*
X0097002Y0084301D01*
X0097007Y0084270D01*
X0097015Y0084239D01*
X0097026Y0084209D01*
X0097040Y0084181D01*
X0097057Y0084154D01*
X0097077Y0084129D01*
X0097099Y0084106D01*
X0097124Y0084086D01*
X0097150Y0084068D01*
X0097179Y0084054D01*
X0097208Y0084042D01*
X0097333Y0084000D02*
X0098167Y0084667D01*
X0098292Y0084624D02*
X0098321Y0084612D01*
X0098350Y0084598D01*
X0098376Y0084580D01*
X0098401Y0084560D01*
X0098423Y0084537D01*
X0098443Y0084512D01*
X0098460Y0084485D01*
X0098474Y0084457D01*
X0098485Y0084427D01*
X0098493Y0084396D01*
X0098498Y0084365D01*
X0098500Y0084333D01*
X0098498Y0084301D01*
X0098493Y0084270D01*
X0098485Y0084239D01*
X0098474Y0084209D01*
X0098460Y0084181D01*
X0098443Y0084154D01*
X0098423Y0084129D01*
X0098401Y0084106D01*
X0098376Y0084086D01*
X0098350Y0084068D01*
X0098321Y0084054D01*
X0098292Y0084042D01*
X0098292Y0084625D02*
X0098235Y0084651D01*
X0098177Y0084674D01*
X0098118Y0084694D01*
X0098058Y0084711D01*
X0097997Y0084725D01*
X0097936Y0084736D01*
X0097874Y0084744D01*
X0097812Y0084748D01*
X0097750Y0084750D01*
X0097750Y0083917D02*
X0097812Y0083919D01*
X0097874Y0083923D01*
X0097936Y0083931D01*
X0097997Y0083942D01*
X0098058Y0083956D01*
X0098118Y0083973D01*
X0098177Y0083993D01*
X0098235Y0084016D01*
X0098292Y0084042D01*
X0097750Y0083917D02*
X0097688Y0083919D01*
X0097626Y0083923D01*
X0097564Y0083931D01*
X0097503Y0083942D01*
X0097442Y0083956D01*
X0097382Y0083973D01*
X0097323Y0083993D01*
X0097265Y0084016D01*
X0097208Y0084042D01*
X0097000Y0081045D02*
X0098500Y0081045D01*
X0069750Y0080767D02*
X0069333Y0080767D01*
X0069250Y0080767D02*
X0068917Y0080100D01*
X0069750Y0080100D02*
X0069750Y0081600D01*
X0069333Y0081600D01*
X0069293Y0081598D01*
X0069254Y0081592D01*
X0069216Y0081583D01*
X0069178Y0081570D01*
X0069142Y0081554D01*
X0069108Y0081534D01*
X0069075Y0081511D01*
X0069045Y0081485D01*
X0069018Y0081456D01*
X0068993Y0081425D01*
X0068972Y0081392D01*
X0068954Y0081356D01*
X0068939Y0081319D01*
X0068928Y0081281D01*
X0068920Y0081242D01*
X0068916Y0081203D01*
X0068916Y0081163D01*
X0068920Y0081124D01*
X0068928Y0081085D01*
X0068939Y0081047D01*
X0068954Y0081010D01*
X0068972Y0080975D01*
X0068993Y0080941D01*
X0069018Y0080910D01*
X0069045Y0080881D01*
X0069075Y0080855D01*
X0069108Y0080832D01*
X0069142Y0080812D01*
X0069178Y0080796D01*
X0069216Y0080783D01*
X0069254Y0080774D01*
X0069293Y0080768D01*
X0069333Y0080766D01*
X0068319Y0080517D02*
X0068317Y0080477D01*
X0068311Y0080438D01*
X0068302Y0080400D01*
X0068289Y0080362D01*
X0068273Y0080326D01*
X0068253Y0080292D01*
X0068230Y0080259D01*
X0068204Y0080229D01*
X0068175Y0080202D01*
X0068144Y0080177D01*
X0068111Y0080156D01*
X0068075Y0080138D01*
X0068038Y0080123D01*
X0068000Y0080112D01*
X0067961Y0080104D01*
X0067922Y0080100D01*
X0067882Y0080100D01*
X0067843Y0080104D01*
X0067804Y0080112D01*
X0067766Y0080123D01*
X0067729Y0080138D01*
X0067694Y0080156D01*
X0067660Y0080177D01*
X0067629Y0080202D01*
X0067600Y0080229D01*
X0067574Y0080259D01*
X0067551Y0080292D01*
X0067531Y0080326D01*
X0067515Y0080362D01*
X0067502Y0080400D01*
X0067493Y0080438D01*
X0067487Y0080477D01*
X0067485Y0080517D01*
X0067487Y0080557D01*
X0067493Y0080596D01*
X0067502Y0080634D01*
X0067515Y0080672D01*
X0067531Y0080708D01*
X0067551Y0080742D01*
X0067574Y0080775D01*
X0067600Y0080805D01*
X0067629Y0080832D01*
X0067660Y0080857D01*
X0067694Y0080878D01*
X0067729Y0080896D01*
X0067766Y0080911D01*
X0067804Y0080922D01*
X0067843Y0080930D01*
X0067882Y0080934D01*
X0067922Y0080934D01*
X0067961Y0080930D01*
X0068000Y0080922D01*
X0068038Y0080911D01*
X0068075Y0080896D01*
X0068111Y0080878D01*
X0068144Y0080857D01*
X0068175Y0080832D01*
X0068204Y0080805D01*
X0068230Y0080775D01*
X0068253Y0080742D01*
X0068273Y0080708D01*
X0068289Y0080672D01*
X0068302Y0080634D01*
X0068311Y0080596D01*
X0068317Y0080557D01*
X0068319Y0080517D01*
X0068235Y0081267D02*
X0068233Y0081232D01*
X0068228Y0081198D01*
X0068219Y0081164D01*
X0068206Y0081132D01*
X0068190Y0081101D01*
X0068171Y0081071D01*
X0068149Y0081044D01*
X0068125Y0081020D01*
X0068098Y0080998D01*
X0068069Y0080979D01*
X0068037Y0080963D01*
X0068005Y0080950D01*
X0067971Y0080941D01*
X0067937Y0080936D01*
X0067902Y0080934D01*
X0067867Y0080936D01*
X0067833Y0080941D01*
X0067799Y0080950D01*
X0067767Y0080963D01*
X0067736Y0080979D01*
X0067706Y0080998D01*
X0067679Y0081020D01*
X0067655Y0081044D01*
X0067633Y0081071D01*
X0067614Y0081101D01*
X0067598Y0081132D01*
X0067585Y0081164D01*
X0067576Y0081198D01*
X0067571Y0081232D01*
X0067569Y0081267D01*
X0067571Y0081302D01*
X0067576Y0081336D01*
X0067585Y0081370D01*
X0067598Y0081402D01*
X0067614Y0081434D01*
X0067633Y0081463D01*
X0067655Y0081490D01*
X0067679Y0081514D01*
X0067706Y0081536D01*
X0067736Y0081555D01*
X0067767Y0081571D01*
X0067799Y0081584D01*
X0067833Y0081593D01*
X0067867Y0081598D01*
X0067902Y0081600D01*
X0067937Y0081598D01*
X0067971Y0081593D01*
X0068005Y0081584D01*
X0068037Y0081571D01*
X0068069Y0081555D01*
X0068098Y0081536D01*
X0068125Y0081514D01*
X0068149Y0081490D01*
X0068171Y0081463D01*
X0068190Y0081434D01*
X0068206Y0081402D01*
X0068219Y0081370D01*
X0068228Y0081336D01*
X0068233Y0081302D01*
X0068235Y0081267D01*
X0082667Y0055250D02*
X0082750Y0055250D01*
X0082785Y0055248D01*
X0082819Y0055243D01*
X0082853Y0055234D01*
X0082885Y0055221D01*
X0082917Y0055205D01*
X0082946Y0055186D01*
X0082973Y0055164D01*
X0082997Y0055140D01*
X0083019Y0055113D01*
X0083038Y0055084D01*
X0083054Y0055052D01*
X0083067Y0055020D01*
X0083076Y0054986D01*
X0083081Y0054952D01*
X0083083Y0054917D01*
X0083083Y0054417D01*
X0082667Y0054417D01*
X0082667Y0054416D02*
X0082627Y0054418D01*
X0082588Y0054424D01*
X0082550Y0054433D01*
X0082512Y0054446D01*
X0082476Y0054462D01*
X0082442Y0054482D01*
X0082409Y0054505D01*
X0082379Y0054531D01*
X0082352Y0054560D01*
X0082327Y0054591D01*
X0082306Y0054625D01*
X0082288Y0054660D01*
X0082273Y0054697D01*
X0082262Y0054735D01*
X0082254Y0054774D01*
X0082250Y0054813D01*
X0082250Y0054853D01*
X0082254Y0054892D01*
X0082262Y0054931D01*
X0082273Y0054969D01*
X0082288Y0055006D01*
X0082306Y0055042D01*
X0082327Y0055075D01*
X0082352Y0055106D01*
X0082379Y0055135D01*
X0082409Y0055161D01*
X0082442Y0055184D01*
X0082476Y0055204D01*
X0082512Y0055220D01*
X0082550Y0055233D01*
X0082588Y0055242D01*
X0082627Y0055248D01*
X0082667Y0055250D01*
X0083083Y0054416D02*
X0083133Y0054418D01*
X0083182Y0054423D01*
X0083231Y0054433D01*
X0083280Y0054446D01*
X0083327Y0054462D01*
X0083372Y0054482D01*
X0083416Y0054505D01*
X0083459Y0054532D01*
X0083499Y0054562D01*
X0083537Y0054594D01*
X0083572Y0054629D01*
X0083604Y0054667D01*
X0083634Y0054707D01*
X0083661Y0054749D01*
X0083684Y0054794D01*
X0083704Y0054839D01*
X0083720Y0054886D01*
X0083733Y0054935D01*
X0083743Y0054984D01*
X0083748Y0055033D01*
X0083750Y0055083D01*
X0083750Y0053880D02*
X0083750Y0053546D01*
X0083748Y0053511D01*
X0083743Y0053477D01*
X0083734Y0053443D01*
X0083721Y0053411D01*
X0083705Y0053379D01*
X0083686Y0053350D01*
X0083664Y0053323D01*
X0083640Y0053299D01*
X0083613Y0053277D01*
X0083583Y0053258D01*
X0083552Y0053242D01*
X0083520Y0053229D01*
X0083486Y0053220D01*
X0083452Y0053215D01*
X0083417Y0053213D01*
X0082583Y0053213D01*
X0082548Y0053215D01*
X0082514Y0053220D01*
X0082480Y0053229D01*
X0082448Y0053242D01*
X0082417Y0053258D01*
X0082387Y0053277D01*
X0082360Y0053299D01*
X0082336Y0053323D01*
X0082314Y0053350D01*
X0082295Y0053380D01*
X0082279Y0053411D01*
X0082266Y0053443D01*
X0082257Y0053477D01*
X0082252Y0053511D01*
X0082250Y0053546D01*
X0082250Y0053880D01*
X0074433Y0046611D02*
X0074017Y0046611D01*
X0074017Y0046111D01*
X0074017Y0046612D02*
X0073967Y0046610D01*
X0073918Y0046605D01*
X0073869Y0046595D01*
X0073820Y0046582D01*
X0073773Y0046566D01*
X0073728Y0046546D01*
X0073684Y0046523D01*
X0073641Y0046496D01*
X0073601Y0046466D01*
X0073563Y0046434D01*
X0073528Y0046399D01*
X0073496Y0046361D01*
X0073466Y0046321D01*
X0073439Y0046279D01*
X0073416Y0046234D01*
X0073396Y0046189D01*
X0073380Y0046142D01*
X0073367Y0046093D01*
X0073357Y0046044D01*
X0073352Y0045995D01*
X0073350Y0045945D01*
X0073350Y0045171D02*
X0073350Y0044338D01*
X0074183Y0045046D01*
X0074850Y0044796D02*
X0074848Y0044756D01*
X0074843Y0044716D01*
X0074835Y0044676D01*
X0074823Y0044637D01*
X0074808Y0044600D01*
X0074790Y0044564D01*
X0074769Y0044529D01*
X0074746Y0044496D01*
X0074719Y0044466D01*
X0074690Y0044438D01*
X0074659Y0044412D01*
X0074626Y0044389D01*
X0074591Y0044369D01*
X0074554Y0044351D01*
X0074516Y0044337D01*
X0074183Y0045047D02*
X0074209Y0045072D01*
X0074238Y0045095D01*
X0074268Y0045115D01*
X0074300Y0045132D01*
X0074333Y0045146D01*
X0074368Y0045157D01*
X0074403Y0045165D01*
X0074439Y0045170D01*
X0074475Y0045172D01*
X0074475Y0045171D02*
X0074512Y0045169D01*
X0074548Y0045164D01*
X0074584Y0045155D01*
X0074619Y0045142D01*
X0074652Y0045127D01*
X0074683Y0045108D01*
X0074713Y0045086D01*
X0074740Y0045061D01*
X0074765Y0045034D01*
X0074787Y0045004D01*
X0074806Y0044973D01*
X0074821Y0044940D01*
X0074834Y0044905D01*
X0074843Y0044869D01*
X0074848Y0044833D01*
X0074850Y0044796D01*
X0074433Y0045778D02*
X0074350Y0045778D01*
X0074315Y0045780D01*
X0074281Y0045785D01*
X0074247Y0045794D01*
X0074215Y0045807D01*
X0074184Y0045823D01*
X0074154Y0045842D01*
X0074127Y0045864D01*
X0074103Y0045888D01*
X0074081Y0045915D01*
X0074062Y0045945D01*
X0074046Y0045976D01*
X0074033Y0046008D01*
X0074024Y0046042D01*
X0074019Y0046076D01*
X0074017Y0046111D01*
X0074433Y0045778D02*
X0074473Y0045780D01*
X0074512Y0045786D01*
X0074550Y0045795D01*
X0074588Y0045808D01*
X0074624Y0045824D01*
X0074658Y0045844D01*
X0074691Y0045867D01*
X0074721Y0045893D01*
X0074748Y0045922D01*
X0074773Y0045953D01*
X0074794Y0045987D01*
X0074812Y0046022D01*
X0074827Y0046059D01*
X0074838Y0046097D01*
X0074846Y0046136D01*
X0074850Y0046175D01*
X0074850Y0046215D01*
X0074846Y0046254D01*
X0074838Y0046293D01*
X0074827Y0046331D01*
X0074812Y0046368D01*
X0074794Y0046404D01*
X0074773Y0046437D01*
X0074748Y0046468D01*
X0074721Y0046497D01*
X0074691Y0046523D01*
X0074658Y0046546D01*
X0074624Y0046566D01*
X0074588Y0046582D01*
X0074550Y0046595D01*
X0074512Y0046604D01*
X0074473Y0046610D01*
X0074433Y0046612D01*
X0074433Y0043683D02*
X0073767Y0043683D01*
X0073767Y0043684D02*
X0073729Y0043682D01*
X0073690Y0043677D01*
X0073653Y0043668D01*
X0073616Y0043656D01*
X0073581Y0043640D01*
X0073547Y0043622D01*
X0073516Y0043600D01*
X0073486Y0043575D01*
X0073459Y0043548D01*
X0073434Y0043518D01*
X0073412Y0043487D01*
X0073394Y0043453D01*
X0073378Y0043418D01*
X0073366Y0043381D01*
X0073357Y0043344D01*
X0073352Y0043305D01*
X0073350Y0043267D01*
X0073350Y0042850D01*
X0074850Y0042850D01*
X0074850Y0043267D01*
X0074848Y0043305D01*
X0074843Y0043344D01*
X0074834Y0043381D01*
X0074822Y0043418D01*
X0074806Y0043453D01*
X0074788Y0043487D01*
X0074766Y0043518D01*
X0074741Y0043548D01*
X0074714Y0043575D01*
X0074684Y0043600D01*
X0074653Y0043622D01*
X0074619Y0043640D01*
X0074584Y0043656D01*
X0074547Y0043668D01*
X0074510Y0043677D01*
X0074471Y0043682D01*
X0074433Y0043684D01*
X0082333Y0034750D02*
X0082500Y0034750D01*
X0082535Y0034748D01*
X0082569Y0034743D01*
X0082603Y0034734D01*
X0082635Y0034721D01*
X0082667Y0034705D01*
X0082696Y0034686D01*
X0082723Y0034664D01*
X0082747Y0034640D01*
X0082769Y0034613D01*
X0082788Y0034584D01*
X0082804Y0034552D01*
X0082817Y0034520D01*
X0082826Y0034486D01*
X0082831Y0034452D01*
X0082833Y0034417D01*
X0082833Y0033917D01*
X0083500Y0033917D01*
X0083500Y0034750D01*
X0082333Y0034750D02*
X0082298Y0034748D01*
X0082264Y0034743D01*
X0082230Y0034734D01*
X0082198Y0034721D01*
X0082167Y0034705D01*
X0082137Y0034686D01*
X0082110Y0034664D01*
X0082086Y0034640D01*
X0082064Y0034613D01*
X0082045Y0034584D01*
X0082029Y0034552D01*
X0082016Y0034520D01*
X0082007Y0034486D01*
X0082002Y0034452D01*
X0082000Y0034417D01*
X0082000Y0033917D01*
X0082000Y0033380D02*
X0082000Y0033046D01*
X0082002Y0033011D01*
X0082007Y0032977D01*
X0082016Y0032943D01*
X0082029Y0032911D01*
X0082045Y0032880D01*
X0082064Y0032850D01*
X0082086Y0032823D01*
X0082110Y0032799D01*
X0082137Y0032777D01*
X0082167Y0032758D01*
X0082198Y0032742D01*
X0082230Y0032729D01*
X0082264Y0032720D01*
X0082298Y0032715D01*
X0082333Y0032713D01*
X0083167Y0032713D01*
X0083202Y0032715D01*
X0083236Y0032720D01*
X0083270Y0032729D01*
X0083302Y0032742D01*
X0083333Y0032758D01*
X0083363Y0032777D01*
X0083390Y0032799D01*
X0083414Y0032823D01*
X0083436Y0032850D01*
X0083455Y0032879D01*
X0083471Y0032911D01*
X0083484Y0032943D01*
X0083493Y0032977D01*
X0083498Y0033011D01*
X0083500Y0033046D01*
X0083500Y0033380D01*
D13*
X0086680Y0031800D02*
X0086920Y0031800D01*
X0226800Y0021920D02*
X0226800Y0021680D01*
D14*
X0231690Y0056800D02*
X0231910Y0056800D01*
X0086910Y0051800D02*
X0086690Y0051800D01*
D15*
X0072509Y0042745D02*
X0072509Y0060855D01*
X0070737Y0060855D01*
X0070737Y0055737D02*
X0062863Y0055737D01*
X0062863Y0060855D02*
X0061091Y0060855D01*
X0061091Y0042745D01*
X0062863Y0042745D01*
X0070737Y0042745D02*
X0072509Y0042745D01*
X0151091Y0042745D02*
X0152863Y0042745D01*
X0151091Y0042745D02*
X0151091Y0060855D01*
X0152863Y0060855D01*
X0160737Y0060855D02*
X0162509Y0060855D01*
X0162509Y0042745D01*
X0160737Y0042745D01*
X0160737Y0047863D02*
X0152863Y0047863D01*
X0211091Y0055855D02*
X0211091Y0037745D01*
X0212863Y0037745D01*
X0220737Y0037745D02*
X0222509Y0037745D01*
X0222509Y0055855D01*
X0220737Y0055855D01*
X0220737Y0050737D02*
X0212863Y0050737D01*
X0212863Y0055855D02*
X0211091Y0055855D01*
X0291091Y0050855D02*
X0291091Y0032745D01*
X0292863Y0032745D01*
X0292863Y0037863D02*
X0300737Y0037863D01*
X0300737Y0032745D02*
X0302509Y0032745D01*
X0302509Y0050855D01*
X0300737Y0050855D01*
X0292863Y0050855D02*
X0291091Y0050855D01*
D16*
X0264100Y0062500D02*
X0263078Y0062500D01*
X0263589Y0062500D02*
X0263589Y0067100D01*
X0264100Y0067100D02*
X0263078Y0067100D01*
X0261280Y0066078D02*
X0261280Y0063522D01*
X0261278Y0063460D01*
X0261273Y0063399D01*
X0261263Y0063338D01*
X0261250Y0063277D01*
X0261234Y0063218D01*
X0261214Y0063160D01*
X0261190Y0063103D01*
X0261163Y0063047D01*
X0261133Y0062993D01*
X0261099Y0062941D01*
X0261063Y0062892D01*
X0261023Y0062844D01*
X0260981Y0062799D01*
X0260936Y0062757D01*
X0260888Y0062717D01*
X0260839Y0062681D01*
X0260787Y0062647D01*
X0260733Y0062617D01*
X0260677Y0062590D01*
X0260620Y0062566D01*
X0260562Y0062546D01*
X0260503Y0062530D01*
X0260442Y0062517D01*
X0260381Y0062507D01*
X0260320Y0062502D01*
X0260258Y0062500D01*
X0259235Y0062500D01*
X0257517Y0062500D02*
X0254961Y0062500D01*
X0256239Y0062500D02*
X0256239Y0067100D01*
X0257517Y0066078D01*
X0259235Y0067100D02*
X0260258Y0067100D01*
X0260320Y0067098D01*
X0260381Y0067093D01*
X0260442Y0067083D01*
X0260503Y0067070D01*
X0260562Y0067054D01*
X0260620Y0067034D01*
X0260677Y0067010D01*
X0260733Y0066983D01*
X0260787Y0066953D01*
X0260839Y0066919D01*
X0260888Y0066883D01*
X0260936Y0066843D01*
X0260981Y0066801D01*
X0261023Y0066756D01*
X0261063Y0066708D01*
X0261099Y0066659D01*
X0261133Y0066607D01*
X0261163Y0066553D01*
X0261190Y0066497D01*
X0261214Y0066440D01*
X0261234Y0066382D01*
X0261250Y0066323D01*
X0261263Y0066262D01*
X0261273Y0066201D01*
X0261278Y0066140D01*
X0261280Y0066078D01*
X0119100Y0067100D02*
X0118078Y0067100D01*
X0118589Y0067100D02*
X0118589Y0062500D01*
X0119100Y0062500D02*
X0118078Y0062500D01*
X0116280Y0063522D02*
X0116280Y0066078D01*
X0116278Y0066140D01*
X0116273Y0066201D01*
X0116263Y0066262D01*
X0116250Y0066323D01*
X0116234Y0066382D01*
X0116214Y0066440D01*
X0116190Y0066497D01*
X0116163Y0066553D01*
X0116133Y0066607D01*
X0116099Y0066659D01*
X0116063Y0066708D01*
X0116023Y0066756D01*
X0115981Y0066801D01*
X0115936Y0066843D01*
X0115888Y0066883D01*
X0115839Y0066919D01*
X0115787Y0066953D01*
X0115733Y0066983D01*
X0115677Y0067010D01*
X0115620Y0067034D01*
X0115562Y0067054D01*
X0115503Y0067070D01*
X0115442Y0067083D01*
X0115381Y0067093D01*
X0115320Y0067098D01*
X0115258Y0067100D01*
X0114235Y0067100D01*
X0110344Y0065056D02*
X0110297Y0065103D01*
X0110253Y0065153D01*
X0110211Y0065205D01*
X0110172Y0065259D01*
X0110137Y0065315D01*
X0110104Y0065373D01*
X0110074Y0065433D01*
X0110048Y0065494D01*
X0110025Y0065557D01*
X0110006Y0065621D01*
X0109990Y0065685D01*
X0109977Y0065751D01*
X0109968Y0065817D01*
X0109963Y0065883D01*
X0109961Y0065950D01*
X0110344Y0065056D02*
X0112517Y0062500D01*
X0109961Y0062500D01*
X0112516Y0066078D02*
X0112491Y0066148D01*
X0112463Y0066217D01*
X0112432Y0066284D01*
X0112397Y0066350D01*
X0112359Y0066413D01*
X0112317Y0066475D01*
X0112273Y0066535D01*
X0112226Y0066592D01*
X0112176Y0066647D01*
X0112123Y0066699D01*
X0112067Y0066749D01*
X0112010Y0066795D01*
X0111949Y0066839D01*
X0111887Y0066880D01*
X0111823Y0066917D01*
X0111757Y0066951D01*
X0111689Y0066982D01*
X0111620Y0067009D01*
X0111550Y0067033D01*
X0111479Y0067054D01*
X0111406Y0067070D01*
X0111333Y0067083D01*
X0111259Y0067093D01*
X0111185Y0067098D01*
X0111111Y0067100D01*
X0111044Y0067098D01*
X0110977Y0067092D01*
X0110911Y0067083D01*
X0110846Y0067069D01*
X0110781Y0067052D01*
X0110718Y0067031D01*
X0110656Y0067006D01*
X0110595Y0066978D01*
X0110536Y0066946D01*
X0110479Y0066911D01*
X0110424Y0066872D01*
X0110372Y0066831D01*
X0110322Y0066786D01*
X0110275Y0066739D01*
X0110230Y0066689D01*
X0110189Y0066637D01*
X0110150Y0066582D01*
X0110115Y0066525D01*
X0110083Y0066466D01*
X0110055Y0066405D01*
X0110030Y0066343D01*
X0110009Y0066280D01*
X0109992Y0066215D01*
X0109978Y0066150D01*
X0109969Y0066084D01*
X0109963Y0066017D01*
X0109961Y0065950D01*
X0114235Y0062500D02*
X0115258Y0062500D01*
X0115320Y0062502D01*
X0115381Y0062507D01*
X0115442Y0062517D01*
X0115503Y0062530D01*
X0115562Y0062546D01*
X0115620Y0062566D01*
X0115677Y0062590D01*
X0115733Y0062617D01*
X0115787Y0062647D01*
X0115839Y0062681D01*
X0115888Y0062717D01*
X0115936Y0062757D01*
X0115981Y0062799D01*
X0116023Y0062844D01*
X0116063Y0062892D01*
X0116099Y0062941D01*
X0116133Y0062993D01*
X0116163Y0063047D01*
X0116190Y0063103D01*
X0116214Y0063160D01*
X0116234Y0063218D01*
X0116250Y0063277D01*
X0116263Y0063338D01*
X0116273Y0063399D01*
X0116278Y0063460D01*
X0116280Y0063522D01*
D17*
X0115146Y0023690D02*
X0117509Y0023690D01*
X0117509Y0015225D01*
X0106091Y0015225D02*
X0106091Y0023690D01*
X0108454Y0023690D01*
X0251091Y0023690D02*
X0251091Y0015225D01*
X0251091Y0023690D02*
X0253454Y0023690D01*
X0260146Y0023690D02*
X0262509Y0023690D01*
X0262509Y0015225D01*
D18*
X0264550Y0015022D02*
X0264550Y0015772D01*
X0264552Y0015826D01*
X0264558Y0015879D01*
X0264567Y0015931D01*
X0264580Y0015983D01*
X0264597Y0016034D01*
X0264618Y0016084D01*
X0264642Y0016131D01*
X0264669Y0016177D01*
X0264700Y0016221D01*
X0264733Y0016263D01*
X0264770Y0016302D01*
X0264809Y0016339D01*
X0264851Y0016372D01*
X0264895Y0016403D01*
X0264941Y0016430D01*
X0264988Y0016454D01*
X0265038Y0016475D01*
X0265089Y0016492D01*
X0265141Y0016505D01*
X0265193Y0016514D01*
X0265246Y0016520D01*
X0265300Y0016522D01*
X0265354Y0016520D01*
X0265407Y0016514D01*
X0265459Y0016505D01*
X0265511Y0016492D01*
X0265562Y0016475D01*
X0265612Y0016454D01*
X0265659Y0016430D01*
X0265705Y0016403D01*
X0265749Y0016372D01*
X0265791Y0016339D01*
X0265830Y0016302D01*
X0265867Y0016263D01*
X0265900Y0016221D01*
X0265931Y0016177D01*
X0265958Y0016131D01*
X0265982Y0016084D01*
X0266003Y0016034D01*
X0266020Y0015983D01*
X0266033Y0015931D01*
X0266042Y0015879D01*
X0266048Y0015826D01*
X0266050Y0015772D01*
X0266050Y0015922D02*
X0266050Y0015322D01*
X0266050Y0015922D02*
X0266052Y0015970D01*
X0266058Y0016018D01*
X0266067Y0016066D01*
X0266081Y0016112D01*
X0266098Y0016157D01*
X0266119Y0016201D01*
X0266143Y0016243D01*
X0266170Y0016282D01*
X0266201Y0016320D01*
X0266234Y0016355D01*
X0266271Y0016387D01*
X0266309Y0016416D01*
X0266350Y0016442D01*
X0266393Y0016464D01*
X0266437Y0016483D01*
X0266483Y0016498D01*
X0266530Y0016510D01*
X0266578Y0016518D01*
X0266626Y0016522D01*
X0266674Y0016522D01*
X0266722Y0016518D01*
X0266770Y0016510D01*
X0266817Y0016498D01*
X0266863Y0016483D01*
X0266907Y0016464D01*
X0266950Y0016442D01*
X0266991Y0016416D01*
X0267029Y0016387D01*
X0267066Y0016355D01*
X0267099Y0016320D01*
X0267130Y0016282D01*
X0267157Y0016243D01*
X0267181Y0016201D01*
X0267202Y0016157D01*
X0267219Y0016112D01*
X0267233Y0016066D01*
X0267242Y0016018D01*
X0267248Y0015970D01*
X0267250Y0015922D01*
X0267250Y0015022D01*
X0267250Y0013084D02*
X0264550Y0013084D01*
X0264850Y0013309D02*
X0264860Y0013349D01*
X0264873Y0013389D01*
X0264890Y0013427D01*
X0264910Y0013463D01*
X0264933Y0013498D01*
X0264960Y0013530D01*
X0264989Y0013559D01*
X0265022Y0013586D01*
X0265056Y0013609D01*
X0265092Y0013630D01*
X0265131Y0013646D01*
X0265170Y0013659D01*
X0265211Y0013669D01*
X0265252Y0013674D01*
X0265294Y0013676D01*
X0265335Y0013674D01*
X0265377Y0013668D01*
X0265417Y0013658D01*
X0265457Y0013644D01*
X0265495Y0013627D01*
X0265531Y0013606D01*
X0265565Y0013582D01*
X0265597Y0013555D01*
X0265626Y0013526D01*
X0265652Y0013493D01*
X0265675Y0013458D01*
X0265675Y0013459D02*
X0265900Y0013084D01*
X0266125Y0012709D01*
X0265000Y0012484D02*
X0264968Y0012541D01*
X0264939Y0012600D01*
X0264913Y0012661D01*
X0264891Y0012723D01*
X0264872Y0012786D01*
X0264857Y0012850D01*
X0264845Y0012915D01*
X0264837Y0012980D01*
X0264832Y0013046D01*
X0264831Y0013112D01*
X0264834Y0013178D01*
X0264840Y0013243D01*
X0264850Y0013309D01*
X0266800Y0013684D02*
X0266832Y0013627D01*
X0266861Y0013568D01*
X0266887Y0013507D01*
X0266909Y0013445D01*
X0266928Y0013382D01*
X0266943Y0013318D01*
X0266955Y0013253D01*
X0266963Y0013188D01*
X0266968Y0013122D01*
X0266969Y0013056D01*
X0266966Y0012990D01*
X0266960Y0012925D01*
X0266950Y0012859D01*
X0266940Y0012819D01*
X0266927Y0012779D01*
X0266910Y0012741D01*
X0266890Y0012705D01*
X0266867Y0012670D01*
X0266840Y0012638D01*
X0266811Y0012609D01*
X0266778Y0012582D01*
X0266744Y0012559D01*
X0266708Y0012538D01*
X0266669Y0012522D01*
X0266630Y0012509D01*
X0266589Y0012499D01*
X0266548Y0012494D01*
X0266506Y0012492D01*
X0266465Y0012494D01*
X0266423Y0012500D01*
X0266383Y0012510D01*
X0266343Y0012524D01*
X0266305Y0012541D01*
X0266269Y0012562D01*
X0266235Y0012586D01*
X0266203Y0012613D01*
X0266174Y0012642D01*
X0266148Y0012675D01*
X0266125Y0012710D01*
X0265300Y0011050D02*
X0267250Y0011050D01*
X0267250Y0009550D02*
X0265300Y0009550D01*
X0265246Y0009552D01*
X0265193Y0009558D01*
X0265141Y0009567D01*
X0265089Y0009580D01*
X0265038Y0009597D01*
X0264988Y0009618D01*
X0264941Y0009642D01*
X0264895Y0009669D01*
X0264851Y0009700D01*
X0264809Y0009733D01*
X0264770Y0009770D01*
X0264733Y0009809D01*
X0264700Y0009851D01*
X0264669Y0009895D01*
X0264642Y0009941D01*
X0264618Y0009988D01*
X0264597Y0010038D01*
X0264580Y0010089D01*
X0264567Y0010141D01*
X0264558Y0010193D01*
X0264552Y0010246D01*
X0264550Y0010300D01*
X0264552Y0010354D01*
X0264558Y0010407D01*
X0264567Y0010459D01*
X0264580Y0010511D01*
X0264597Y0010562D01*
X0264618Y0010612D01*
X0264642Y0010659D01*
X0264669Y0010705D01*
X0264700Y0010749D01*
X0264733Y0010791D01*
X0264770Y0010830D01*
X0264809Y0010867D01*
X0264851Y0010900D01*
X0264895Y0010931D01*
X0264941Y0010958D01*
X0264988Y0010982D01*
X0265038Y0011003D01*
X0265089Y0011020D01*
X0265141Y0011033D01*
X0265193Y0011042D01*
X0265246Y0011048D01*
X0265300Y0011050D01*
X0268554Y0085300D02*
X0285046Y0085300D01*
X0285673Y0090800D02*
X0287252Y0090800D01*
X0277927Y0090800D02*
X0275673Y0090800D01*
X0285046Y0085300D02*
X0285199Y0085499D01*
X0285347Y0085701D01*
X0285490Y0085906D01*
X0285628Y0086115D01*
X0285761Y0086327D01*
X0285889Y0086542D01*
X0286011Y0086760D01*
X0286129Y0086981D01*
X0286241Y0087205D01*
X0286348Y0087431D01*
X0286449Y0087660D01*
X0286545Y0087891D01*
X0286636Y0088125D01*
X0286721Y0088360D01*
X0286800Y0088598D01*
X0286873Y0088837D01*
X0286941Y0089078D01*
X0287003Y0089320D01*
X0287059Y0089564D01*
X0287110Y0089810D01*
X0287154Y0090056D01*
X0287193Y0090303D01*
X0287225Y0090551D01*
X0287252Y0090800D01*
X0287274Y0091055D01*
X0287289Y0091311D01*
X0287297Y0091567D01*
X0287300Y0091824D01*
X0287296Y0092080D01*
X0287286Y0092336D01*
X0287270Y0092592D01*
X0287248Y0092847D01*
X0287219Y0093102D01*
X0287184Y0093356D01*
X0287143Y0093609D01*
X0287096Y0093861D01*
X0287042Y0094111D01*
X0286983Y0094360D01*
X0286917Y0094608D01*
X0286846Y0094854D01*
X0286768Y0095099D01*
X0286685Y0095341D01*
X0286596Y0095581D01*
X0286500Y0095819D01*
X0286399Y0096055D01*
X0286293Y0096288D01*
X0286180Y0096518D01*
X0286062Y0096746D01*
X0285939Y0096970D01*
X0285810Y0097192D01*
X0285676Y0097410D01*
X0285536Y0097625D01*
X0285391Y0097836D01*
X0285241Y0098044D01*
X0285087Y0098248D01*
X0284927Y0098449D01*
X0284762Y0098645D01*
X0284593Y0098837D01*
X0284418Y0099026D01*
X0284240Y0099209D01*
X0284057Y0099389D01*
X0283869Y0099564D01*
X0283678Y0099734D01*
X0283482Y0099899D01*
X0283282Y0100060D01*
X0283079Y0100216D01*
X0282872Y0100366D01*
X0282661Y0100512D01*
X0282446Y0100653D01*
X0282229Y0100788D01*
X0282008Y0100918D01*
X0281784Y0101042D01*
X0281557Y0101161D01*
X0281327Y0101274D01*
X0281094Y0101382D01*
X0280859Y0101484D01*
X0280621Y0101580D01*
X0280382Y0101670D01*
X0280140Y0101755D01*
X0279896Y0101833D01*
X0273704Y0101833D02*
X0273462Y0101755D01*
X0273222Y0101671D01*
X0272984Y0101582D01*
X0272748Y0101487D01*
X0272514Y0101385D01*
X0272283Y0101279D01*
X0272055Y0101166D01*
X0271829Y0101049D01*
X0271606Y0100926D01*
X0271387Y0100797D01*
X0271170Y0100663D01*
X0270957Y0100524D01*
X0270747Y0100380D01*
X0270541Y0100231D01*
X0270339Y0100077D01*
X0270140Y0099918D01*
X0269945Y0099754D01*
X0269754Y0099585D01*
X0269568Y0099412D01*
X0269385Y0099235D01*
X0269207Y0099053D01*
X0269034Y0098867D01*
X0268865Y0098676D01*
X0268701Y0098482D01*
X0268541Y0098284D01*
X0268386Y0098082D01*
X0268237Y0097876D01*
X0268092Y0097667D01*
X0267952Y0097454D01*
X0267818Y0097238D01*
X0267689Y0097018D01*
X0267565Y0096796D01*
X0267446Y0096571D01*
X0267334Y0096343D01*
X0267226Y0096112D01*
X0267125Y0095879D01*
X0267029Y0095643D01*
X0266938Y0095405D01*
X0266854Y0095165D01*
X0266775Y0094923D01*
X0266702Y0094679D01*
X0266636Y0094433D01*
X0266575Y0094186D01*
X0266520Y0093938D01*
X0266471Y0093688D01*
X0266428Y0093437D01*
X0266392Y0093185D01*
X0266361Y0092933D01*
X0266337Y0092679D01*
X0266319Y0092426D01*
X0266307Y0092171D01*
X0266301Y0091917D01*
X0266301Y0091662D01*
X0266307Y0091408D01*
X0266320Y0091154D01*
X0266339Y0090900D01*
X0266364Y0090647D01*
X0266395Y0090394D01*
X0266432Y0090142D01*
X0266475Y0089892D01*
X0266524Y0089642D01*
X0266580Y0089393D01*
X0266641Y0089146D01*
X0266708Y0088901D01*
X0266781Y0088657D01*
X0266860Y0088415D01*
X0266945Y0088176D01*
X0267036Y0087938D01*
X0267133Y0087702D01*
X0267235Y0087469D01*
X0267343Y0087239D01*
X0267456Y0087011D01*
X0267575Y0086786D01*
X0267699Y0086564D01*
X0267829Y0086345D01*
X0267963Y0086129D01*
X0268103Y0085916D01*
X0268249Y0085707D01*
X0268399Y0085502D01*
X0268554Y0085300D01*
X0267927Y0090800D02*
X0266348Y0090800D01*
X0262050Y0095550D02*
X0261050Y0094550D01*
X0261550Y0095800D02*
X0261550Y0097800D01*
X0261552Y0097869D01*
X0261558Y0097938D01*
X0261567Y0098006D01*
X0261580Y0098073D01*
X0261597Y0098140D01*
X0261618Y0098206D01*
X0261642Y0098270D01*
X0261670Y0098333D01*
X0261701Y0098395D01*
X0261735Y0098455D01*
X0261773Y0098512D01*
X0261814Y0098568D01*
X0261857Y0098621D01*
X0261904Y0098672D01*
X0261953Y0098720D01*
X0262005Y0098765D01*
X0262060Y0098807D01*
X0262116Y0098846D01*
X0262175Y0098883D01*
X0262236Y0098915D01*
X0262298Y0098945D01*
X0262362Y0098971D01*
X0262427Y0098993D01*
X0262493Y0099012D01*
X0262560Y0099027D01*
X0262628Y0099038D01*
X0262697Y0099046D01*
X0262766Y0099050D01*
X0262834Y0099050D01*
X0262903Y0099046D01*
X0262972Y0099038D01*
X0263040Y0099027D01*
X0263107Y0099012D01*
X0263173Y0098993D01*
X0263238Y0098971D01*
X0263302Y0098945D01*
X0263364Y0098915D01*
X0263425Y0098883D01*
X0263484Y0098846D01*
X0263540Y0098807D01*
X0263595Y0098765D01*
X0263647Y0098720D01*
X0263696Y0098672D01*
X0263743Y0098621D01*
X0263786Y0098568D01*
X0263827Y0098512D01*
X0263865Y0098455D01*
X0263899Y0098395D01*
X0263930Y0098333D01*
X0263958Y0098270D01*
X0263982Y0098206D01*
X0264003Y0098140D01*
X0264020Y0098073D01*
X0264033Y0098006D01*
X0264042Y0097938D01*
X0264048Y0097869D01*
X0264050Y0097800D01*
X0264050Y0095800D01*
X0264048Y0095731D01*
X0264042Y0095662D01*
X0264033Y0095594D01*
X0264020Y0095527D01*
X0264003Y0095460D01*
X0263982Y0095394D01*
X0263958Y0095330D01*
X0263930Y0095267D01*
X0263899Y0095205D01*
X0263865Y0095145D01*
X0263827Y0095088D01*
X0263786Y0095032D01*
X0263743Y0094979D01*
X0263696Y0094928D01*
X0263647Y0094880D01*
X0263595Y0094835D01*
X0263540Y0094793D01*
X0263484Y0094754D01*
X0263425Y0094717D01*
X0263364Y0094685D01*
X0263302Y0094655D01*
X0263238Y0094629D01*
X0263173Y0094607D01*
X0263107Y0094588D01*
X0263040Y0094573D01*
X0262972Y0094562D01*
X0262903Y0094554D01*
X0262834Y0094550D01*
X0262766Y0094550D01*
X0262697Y0094554D01*
X0262628Y0094562D01*
X0262560Y0094573D01*
X0262493Y0094588D01*
X0262427Y0094607D01*
X0262362Y0094629D01*
X0262298Y0094655D01*
X0262236Y0094685D01*
X0262175Y0094717D01*
X0262116Y0094754D01*
X0262060Y0094793D01*
X0262005Y0094835D01*
X0261953Y0094880D01*
X0261904Y0094928D01*
X0261857Y0094979D01*
X0261814Y0095032D01*
X0261773Y0095088D01*
X0261735Y0095145D01*
X0261701Y0095205D01*
X0261670Y0095267D01*
X0261642Y0095330D01*
X0261618Y0095394D01*
X0261597Y0095460D01*
X0261580Y0095527D01*
X0261567Y0095594D01*
X0261558Y0095662D01*
X0261552Y0095731D01*
X0261550Y0095800D01*
X0259695Y0094550D02*
X0257195Y0094550D01*
X0258445Y0094550D02*
X0258445Y0099050D01*
X0259695Y0098050D01*
X0141405Y0092800D02*
X0141405Y0090800D01*
X0141403Y0090731D01*
X0141397Y0090662D01*
X0141388Y0090594D01*
X0141375Y0090527D01*
X0141358Y0090460D01*
X0141337Y0090394D01*
X0141313Y0090330D01*
X0141285Y0090267D01*
X0141254Y0090205D01*
X0141220Y0090145D01*
X0141182Y0090088D01*
X0141141Y0090032D01*
X0141098Y0089979D01*
X0141051Y0089928D01*
X0141002Y0089880D01*
X0140950Y0089835D01*
X0140895Y0089793D01*
X0140839Y0089754D01*
X0140780Y0089717D01*
X0140719Y0089685D01*
X0140657Y0089655D01*
X0140593Y0089629D01*
X0140528Y0089607D01*
X0140462Y0089588D01*
X0140395Y0089573D01*
X0140327Y0089562D01*
X0140258Y0089554D01*
X0140189Y0089550D01*
X0140121Y0089550D01*
X0140052Y0089554D01*
X0139983Y0089562D01*
X0139915Y0089573D01*
X0139848Y0089588D01*
X0139782Y0089607D01*
X0139717Y0089629D01*
X0139653Y0089655D01*
X0139591Y0089685D01*
X0139530Y0089717D01*
X0139471Y0089754D01*
X0139415Y0089793D01*
X0139360Y0089835D01*
X0139308Y0089880D01*
X0139259Y0089928D01*
X0139212Y0089979D01*
X0139169Y0090032D01*
X0139128Y0090088D01*
X0139090Y0090145D01*
X0139056Y0090205D01*
X0139025Y0090267D01*
X0138997Y0090330D01*
X0138973Y0090394D01*
X0138952Y0090460D01*
X0138935Y0090527D01*
X0138922Y0090594D01*
X0138913Y0090662D01*
X0138907Y0090731D01*
X0138905Y0090800D01*
X0138905Y0092800D01*
X0138907Y0092869D01*
X0138913Y0092938D01*
X0138922Y0093006D01*
X0138935Y0093073D01*
X0138952Y0093140D01*
X0138973Y0093206D01*
X0138997Y0093270D01*
X0139025Y0093333D01*
X0139056Y0093395D01*
X0139090Y0093455D01*
X0139128Y0093512D01*
X0139169Y0093568D01*
X0139212Y0093621D01*
X0139259Y0093672D01*
X0139308Y0093720D01*
X0139360Y0093765D01*
X0139415Y0093807D01*
X0139471Y0093846D01*
X0139530Y0093883D01*
X0139591Y0093915D01*
X0139653Y0093945D01*
X0139717Y0093971D01*
X0139782Y0093993D01*
X0139848Y0094012D01*
X0139915Y0094027D01*
X0139983Y0094038D01*
X0140052Y0094046D01*
X0140121Y0094050D01*
X0140189Y0094050D01*
X0140258Y0094046D01*
X0140327Y0094038D01*
X0140395Y0094027D01*
X0140462Y0094012D01*
X0140528Y0093993D01*
X0140593Y0093971D01*
X0140657Y0093945D01*
X0140719Y0093915D01*
X0140780Y0093883D01*
X0140839Y0093846D01*
X0140895Y0093807D01*
X0140950Y0093765D01*
X0141002Y0093720D01*
X0141051Y0093672D01*
X0141098Y0093621D01*
X0141141Y0093568D01*
X0141182Y0093512D01*
X0141220Y0093455D01*
X0141254Y0093395D01*
X0141285Y0093333D01*
X0141313Y0093270D01*
X0141337Y0093206D01*
X0141358Y0093140D01*
X0141375Y0093073D01*
X0141388Y0093006D01*
X0141397Y0092938D01*
X0141403Y0092869D01*
X0141405Y0092800D01*
X0139405Y0090550D02*
X0138405Y0089550D01*
X0137050Y0089550D02*
X0135800Y0089550D01*
X0135731Y0089552D01*
X0135662Y0089558D01*
X0135594Y0089567D01*
X0135527Y0089580D01*
X0135460Y0089597D01*
X0135394Y0089618D01*
X0135330Y0089642D01*
X0135267Y0089670D01*
X0135205Y0089701D01*
X0135145Y0089735D01*
X0135088Y0089773D01*
X0135032Y0089814D01*
X0134979Y0089857D01*
X0134928Y0089904D01*
X0134880Y0089953D01*
X0134835Y0090005D01*
X0134793Y0090060D01*
X0134754Y0090116D01*
X0134717Y0090175D01*
X0134685Y0090236D01*
X0134655Y0090298D01*
X0134629Y0090362D01*
X0134607Y0090427D01*
X0134588Y0090493D01*
X0134573Y0090560D01*
X0134562Y0090628D01*
X0134554Y0090697D01*
X0134550Y0090766D01*
X0134550Y0090834D01*
X0134554Y0090903D01*
X0134562Y0090972D01*
X0134573Y0091040D01*
X0134588Y0091107D01*
X0134607Y0091173D01*
X0134629Y0091238D01*
X0134655Y0091302D01*
X0134685Y0091364D01*
X0134717Y0091425D01*
X0134754Y0091484D01*
X0134793Y0091540D01*
X0134835Y0091595D01*
X0134880Y0091647D01*
X0134928Y0091696D01*
X0134979Y0091743D01*
X0135032Y0091786D01*
X0135088Y0091827D01*
X0135145Y0091865D01*
X0135205Y0091899D01*
X0135267Y0091930D01*
X0135330Y0091958D01*
X0135394Y0091982D01*
X0135460Y0092003D01*
X0135527Y0092020D01*
X0135594Y0092033D01*
X0135662Y0092042D01*
X0135731Y0092048D01*
X0135800Y0092050D01*
X0135550Y0092050D02*
X0136550Y0092050D01*
X0135550Y0092050D02*
X0135488Y0092052D01*
X0135427Y0092058D01*
X0135366Y0092067D01*
X0135306Y0092080D01*
X0135247Y0092097D01*
X0135189Y0092118D01*
X0135132Y0092142D01*
X0135077Y0092169D01*
X0135024Y0092200D01*
X0134972Y0092234D01*
X0134923Y0092271D01*
X0134876Y0092311D01*
X0134832Y0092354D01*
X0134791Y0092399D01*
X0134752Y0092447D01*
X0134716Y0092498D01*
X0134684Y0092550D01*
X0134655Y0092604D01*
X0134629Y0092660D01*
X0134607Y0092718D01*
X0134588Y0092776D01*
X0134573Y0092836D01*
X0134562Y0092897D01*
X0134554Y0092958D01*
X0134550Y0093019D01*
X0134550Y0093081D01*
X0134554Y0093142D01*
X0134562Y0093203D01*
X0134573Y0093264D01*
X0134588Y0093324D01*
X0134607Y0093382D01*
X0134629Y0093440D01*
X0134655Y0093496D01*
X0134684Y0093550D01*
X0134716Y0093602D01*
X0134752Y0093653D01*
X0134791Y0093701D01*
X0134832Y0093746D01*
X0134876Y0093789D01*
X0134923Y0093829D01*
X0134972Y0093866D01*
X0135024Y0093900D01*
X0135077Y0093931D01*
X0135132Y0093958D01*
X0135189Y0093982D01*
X0135247Y0094003D01*
X0135306Y0094020D01*
X0135366Y0094033D01*
X0135427Y0094042D01*
X0135488Y0094048D01*
X0135550Y0094050D01*
X0137050Y0094050D01*
X0132252Y0097800D02*
X0130673Y0097800D01*
X0130046Y0103300D02*
X0113554Y0103300D01*
X0112927Y0097800D02*
X0111348Y0097800D01*
X0120673Y0097800D02*
X0122927Y0097800D01*
X0113554Y0103300D02*
X0113401Y0103101D01*
X0113253Y0102899D01*
X0113110Y0102694D01*
X0112972Y0102485D01*
X0112839Y0102273D01*
X0112711Y0102058D01*
X0112589Y0101840D01*
X0112471Y0101619D01*
X0112359Y0101395D01*
X0112252Y0101169D01*
X0112151Y0100940D01*
X0112055Y0100709D01*
X0111964Y0100475D01*
X0111879Y0100240D01*
X0111800Y0100002D01*
X0111727Y0099763D01*
X0111659Y0099522D01*
X0111597Y0099280D01*
X0111541Y0099036D01*
X0111490Y0098790D01*
X0111446Y0098544D01*
X0111407Y0098297D01*
X0111375Y0098049D01*
X0111348Y0097800D01*
X0111326Y0097545D01*
X0111311Y0097289D01*
X0111303Y0097033D01*
X0111300Y0096776D01*
X0111304Y0096520D01*
X0111314Y0096264D01*
X0111330Y0096008D01*
X0111352Y0095753D01*
X0111381Y0095498D01*
X0111416Y0095244D01*
X0111457Y0094991D01*
X0111504Y0094739D01*
X0111558Y0094489D01*
X0111617Y0094240D01*
X0111683Y0093992D01*
X0111754Y0093746D01*
X0111832Y0093501D01*
X0111915Y0093259D01*
X0112004Y0093019D01*
X0112100Y0092781D01*
X0112201Y0092545D01*
X0112307Y0092312D01*
X0112420Y0092082D01*
X0112538Y0091854D01*
X0112661Y0091630D01*
X0112790Y0091408D01*
X0112924Y0091190D01*
X0113064Y0090975D01*
X0113209Y0090764D01*
X0113359Y0090556D01*
X0113513Y0090352D01*
X0113673Y0090151D01*
X0113838Y0089955D01*
X0114007Y0089763D01*
X0114182Y0089574D01*
X0114360Y0089391D01*
X0114543Y0089211D01*
X0114731Y0089036D01*
X0114922Y0088866D01*
X0115118Y0088701D01*
X0115318Y0088540D01*
X0115521Y0088384D01*
X0115728Y0088234D01*
X0115939Y0088088D01*
X0116154Y0087947D01*
X0116371Y0087812D01*
X0116592Y0087682D01*
X0116816Y0087558D01*
X0117043Y0087439D01*
X0117273Y0087326D01*
X0117506Y0087218D01*
X0117741Y0087116D01*
X0117979Y0087020D01*
X0118218Y0086930D01*
X0118460Y0086845D01*
X0118704Y0086767D01*
X0124896Y0086767D02*
X0125138Y0086845D01*
X0125378Y0086929D01*
X0125616Y0087018D01*
X0125852Y0087113D01*
X0126086Y0087215D01*
X0126317Y0087321D01*
X0126545Y0087434D01*
X0126771Y0087551D01*
X0126994Y0087674D01*
X0127213Y0087803D01*
X0127430Y0087937D01*
X0127643Y0088076D01*
X0127853Y0088220D01*
X0128059Y0088369D01*
X0128261Y0088523D01*
X0128460Y0088682D01*
X0128655Y0088846D01*
X0128846Y0089015D01*
X0129032Y0089188D01*
X0129215Y0089365D01*
X0129393Y0089547D01*
X0129566Y0089733D01*
X0129735Y0089924D01*
X0129899Y0090118D01*
X0130059Y0090316D01*
X0130214Y0090518D01*
X0130363Y0090724D01*
X0130508Y0090933D01*
X0130648Y0091146D01*
X0130782Y0091362D01*
X0130911Y0091582D01*
X0131035Y0091804D01*
X0131154Y0092029D01*
X0131266Y0092257D01*
X0131374Y0092488D01*
X0131475Y0092721D01*
X0131571Y0092957D01*
X0131662Y0093195D01*
X0131746Y0093435D01*
X0131825Y0093677D01*
X0131898Y0093921D01*
X0131964Y0094167D01*
X0132025Y0094414D01*
X0132080Y0094662D01*
X0132129Y0094912D01*
X0132172Y0095163D01*
X0132208Y0095415D01*
X0132239Y0095667D01*
X0132263Y0095921D01*
X0132281Y0096174D01*
X0132293Y0096429D01*
X0132299Y0096683D01*
X0132299Y0096938D01*
X0132293Y0097192D01*
X0132280Y0097446D01*
X0132261Y0097700D01*
X0132236Y0097953D01*
X0132205Y0098206D01*
X0132168Y0098458D01*
X0132125Y0098708D01*
X0132076Y0098958D01*
X0132020Y0099207D01*
X0131959Y0099454D01*
X0131892Y0099699D01*
X0131819Y0099943D01*
X0131740Y0100185D01*
X0131655Y0100424D01*
X0131564Y0100662D01*
X0131467Y0100898D01*
X0131365Y0101131D01*
X0131257Y0101361D01*
X0131144Y0101589D01*
X0131025Y0101814D01*
X0130901Y0102036D01*
X0130771Y0102255D01*
X0130637Y0102471D01*
X0130497Y0102684D01*
X0130351Y0102893D01*
X0130201Y0103098D01*
X0130046Y0103300D01*
X0120150Y0016522D02*
X0120150Y0015022D01*
X0122250Y0015622D01*
X0120750Y0016072D02*
X0119550Y0016072D01*
X0120675Y0013459D02*
X0120900Y0013084D01*
X0121125Y0012709D01*
X0120000Y0012484D02*
X0119968Y0012541D01*
X0119939Y0012600D01*
X0119913Y0012661D01*
X0119891Y0012723D01*
X0119872Y0012786D01*
X0119857Y0012850D01*
X0119845Y0012915D01*
X0119837Y0012980D01*
X0119832Y0013046D01*
X0119831Y0013112D01*
X0119834Y0013178D01*
X0119840Y0013243D01*
X0119850Y0013309D01*
X0119550Y0013084D02*
X0122250Y0013084D01*
X0121950Y0012859D02*
X0121940Y0012819D01*
X0121927Y0012779D01*
X0121910Y0012741D01*
X0121890Y0012705D01*
X0121867Y0012670D01*
X0121840Y0012638D01*
X0121811Y0012609D01*
X0121778Y0012582D01*
X0121744Y0012559D01*
X0121708Y0012538D01*
X0121669Y0012522D01*
X0121630Y0012509D01*
X0121589Y0012499D01*
X0121548Y0012494D01*
X0121506Y0012492D01*
X0121465Y0012494D01*
X0121423Y0012500D01*
X0121383Y0012510D01*
X0121343Y0012524D01*
X0121305Y0012541D01*
X0121269Y0012562D01*
X0121235Y0012586D01*
X0121203Y0012613D01*
X0121174Y0012642D01*
X0121148Y0012675D01*
X0121125Y0012710D01*
X0121950Y0012859D02*
X0121960Y0012925D01*
X0121966Y0012990D01*
X0121969Y0013056D01*
X0121968Y0013122D01*
X0121963Y0013188D01*
X0121955Y0013253D01*
X0121943Y0013318D01*
X0121928Y0013382D01*
X0121909Y0013445D01*
X0121887Y0013507D01*
X0121861Y0013568D01*
X0121832Y0013627D01*
X0121800Y0013684D01*
X0120675Y0013458D02*
X0120652Y0013493D01*
X0120626Y0013526D01*
X0120597Y0013555D01*
X0120565Y0013582D01*
X0120531Y0013606D01*
X0120495Y0013627D01*
X0120457Y0013644D01*
X0120417Y0013658D01*
X0120377Y0013668D01*
X0120335Y0013674D01*
X0120294Y0013676D01*
X0120252Y0013674D01*
X0120211Y0013669D01*
X0120170Y0013659D01*
X0120131Y0013646D01*
X0120092Y0013630D01*
X0120056Y0013609D01*
X0120022Y0013586D01*
X0119989Y0013559D01*
X0119960Y0013530D01*
X0119933Y0013498D01*
X0119910Y0013463D01*
X0119890Y0013427D01*
X0119873Y0013389D01*
X0119860Y0013349D01*
X0119850Y0013309D01*
X0120300Y0011050D02*
X0122250Y0011050D01*
X0122250Y0009550D02*
X0120300Y0009550D01*
X0120246Y0009552D01*
X0120193Y0009558D01*
X0120141Y0009567D01*
X0120089Y0009580D01*
X0120038Y0009597D01*
X0119988Y0009618D01*
X0119941Y0009642D01*
X0119895Y0009669D01*
X0119851Y0009700D01*
X0119809Y0009733D01*
X0119770Y0009770D01*
X0119733Y0009809D01*
X0119700Y0009851D01*
X0119669Y0009895D01*
X0119642Y0009941D01*
X0119618Y0009988D01*
X0119597Y0010038D01*
X0119580Y0010089D01*
X0119567Y0010141D01*
X0119558Y0010193D01*
X0119552Y0010246D01*
X0119550Y0010300D01*
X0119552Y0010354D01*
X0119558Y0010407D01*
X0119567Y0010459D01*
X0119580Y0010511D01*
X0119597Y0010562D01*
X0119618Y0010612D01*
X0119642Y0010659D01*
X0119669Y0010705D01*
X0119700Y0010749D01*
X0119733Y0010791D01*
X0119770Y0010830D01*
X0119809Y0010867D01*
X0119851Y0010900D01*
X0119895Y0010931D01*
X0119941Y0010958D01*
X0119988Y0010982D01*
X0120038Y0011003D01*
X0120089Y0011020D01*
X0120141Y0011033D01*
X0120193Y0011042D01*
X0120246Y0011048D01*
X0120300Y0011050D01*
M02*
