G75*
%MOIN*%
%OFA0B0*%
%FSLAX25Y25*%
%IPPOS*%
%LPD*%
%AMOC8*
5,1,8,0,0,1.08239X$1,22.5*
%
%ADD10C,0.00000*%
D10*
X0001800Y0001800D02*
X0001800Y0316761D01*
X0395501Y0316761D01*
X0395501Y0001800D01*
X0001800Y0001800D01*
X0015300Y0021800D02*
X0015302Y0021961D01*
X0015308Y0022121D01*
X0015318Y0022282D01*
X0015332Y0022442D01*
X0015350Y0022602D01*
X0015371Y0022761D01*
X0015397Y0022920D01*
X0015427Y0023078D01*
X0015460Y0023235D01*
X0015498Y0023392D01*
X0015539Y0023547D01*
X0015584Y0023701D01*
X0015633Y0023854D01*
X0015686Y0024006D01*
X0015742Y0024157D01*
X0015803Y0024306D01*
X0015866Y0024454D01*
X0015934Y0024600D01*
X0016005Y0024744D01*
X0016079Y0024886D01*
X0016157Y0025027D01*
X0016239Y0025165D01*
X0016324Y0025302D01*
X0016412Y0025436D01*
X0016504Y0025568D01*
X0016599Y0025698D01*
X0016697Y0025826D01*
X0016798Y0025951D01*
X0016902Y0026073D01*
X0017009Y0026193D01*
X0017119Y0026310D01*
X0017232Y0026425D01*
X0017348Y0026536D01*
X0017467Y0026645D01*
X0017588Y0026750D01*
X0017712Y0026853D01*
X0017838Y0026953D01*
X0017966Y0027049D01*
X0018097Y0027142D01*
X0018231Y0027232D01*
X0018366Y0027319D01*
X0018504Y0027402D01*
X0018643Y0027482D01*
X0018785Y0027558D01*
X0018928Y0027631D01*
X0019073Y0027700D01*
X0019220Y0027766D01*
X0019368Y0027828D01*
X0019518Y0027886D01*
X0019669Y0027941D01*
X0019822Y0027992D01*
X0019976Y0028039D01*
X0020131Y0028082D01*
X0020287Y0028121D01*
X0020443Y0028157D01*
X0020601Y0028188D01*
X0020759Y0028216D01*
X0020918Y0028240D01*
X0021078Y0028260D01*
X0021238Y0028276D01*
X0021398Y0028288D01*
X0021559Y0028296D01*
X0021720Y0028300D01*
X0021880Y0028300D01*
X0022041Y0028296D01*
X0022202Y0028288D01*
X0022362Y0028276D01*
X0022522Y0028260D01*
X0022682Y0028240D01*
X0022841Y0028216D01*
X0022999Y0028188D01*
X0023157Y0028157D01*
X0023313Y0028121D01*
X0023469Y0028082D01*
X0023624Y0028039D01*
X0023778Y0027992D01*
X0023931Y0027941D01*
X0024082Y0027886D01*
X0024232Y0027828D01*
X0024380Y0027766D01*
X0024527Y0027700D01*
X0024672Y0027631D01*
X0024815Y0027558D01*
X0024957Y0027482D01*
X0025096Y0027402D01*
X0025234Y0027319D01*
X0025369Y0027232D01*
X0025503Y0027142D01*
X0025634Y0027049D01*
X0025762Y0026953D01*
X0025888Y0026853D01*
X0026012Y0026750D01*
X0026133Y0026645D01*
X0026252Y0026536D01*
X0026368Y0026425D01*
X0026481Y0026310D01*
X0026591Y0026193D01*
X0026698Y0026073D01*
X0026802Y0025951D01*
X0026903Y0025826D01*
X0027001Y0025698D01*
X0027096Y0025568D01*
X0027188Y0025436D01*
X0027276Y0025302D01*
X0027361Y0025165D01*
X0027443Y0025027D01*
X0027521Y0024886D01*
X0027595Y0024744D01*
X0027666Y0024600D01*
X0027734Y0024454D01*
X0027797Y0024306D01*
X0027858Y0024157D01*
X0027914Y0024006D01*
X0027967Y0023854D01*
X0028016Y0023701D01*
X0028061Y0023547D01*
X0028102Y0023392D01*
X0028140Y0023235D01*
X0028173Y0023078D01*
X0028203Y0022920D01*
X0028229Y0022761D01*
X0028250Y0022602D01*
X0028268Y0022442D01*
X0028282Y0022282D01*
X0028292Y0022121D01*
X0028298Y0021961D01*
X0028300Y0021800D01*
X0028298Y0021639D01*
X0028292Y0021479D01*
X0028282Y0021318D01*
X0028268Y0021158D01*
X0028250Y0020998D01*
X0028229Y0020839D01*
X0028203Y0020680D01*
X0028173Y0020522D01*
X0028140Y0020365D01*
X0028102Y0020208D01*
X0028061Y0020053D01*
X0028016Y0019899D01*
X0027967Y0019746D01*
X0027914Y0019594D01*
X0027858Y0019443D01*
X0027797Y0019294D01*
X0027734Y0019146D01*
X0027666Y0019000D01*
X0027595Y0018856D01*
X0027521Y0018714D01*
X0027443Y0018573D01*
X0027361Y0018435D01*
X0027276Y0018298D01*
X0027188Y0018164D01*
X0027096Y0018032D01*
X0027001Y0017902D01*
X0026903Y0017774D01*
X0026802Y0017649D01*
X0026698Y0017527D01*
X0026591Y0017407D01*
X0026481Y0017290D01*
X0026368Y0017175D01*
X0026252Y0017064D01*
X0026133Y0016955D01*
X0026012Y0016850D01*
X0025888Y0016747D01*
X0025762Y0016647D01*
X0025634Y0016551D01*
X0025503Y0016458D01*
X0025369Y0016368D01*
X0025234Y0016281D01*
X0025096Y0016198D01*
X0024957Y0016118D01*
X0024815Y0016042D01*
X0024672Y0015969D01*
X0024527Y0015900D01*
X0024380Y0015834D01*
X0024232Y0015772D01*
X0024082Y0015714D01*
X0023931Y0015659D01*
X0023778Y0015608D01*
X0023624Y0015561D01*
X0023469Y0015518D01*
X0023313Y0015479D01*
X0023157Y0015443D01*
X0022999Y0015412D01*
X0022841Y0015384D01*
X0022682Y0015360D01*
X0022522Y0015340D01*
X0022362Y0015324D01*
X0022202Y0015312D01*
X0022041Y0015304D01*
X0021880Y0015300D01*
X0021720Y0015300D01*
X0021559Y0015304D01*
X0021398Y0015312D01*
X0021238Y0015324D01*
X0021078Y0015340D01*
X0020918Y0015360D01*
X0020759Y0015384D01*
X0020601Y0015412D01*
X0020443Y0015443D01*
X0020287Y0015479D01*
X0020131Y0015518D01*
X0019976Y0015561D01*
X0019822Y0015608D01*
X0019669Y0015659D01*
X0019518Y0015714D01*
X0019368Y0015772D01*
X0019220Y0015834D01*
X0019073Y0015900D01*
X0018928Y0015969D01*
X0018785Y0016042D01*
X0018643Y0016118D01*
X0018504Y0016198D01*
X0018366Y0016281D01*
X0018231Y0016368D01*
X0018097Y0016458D01*
X0017966Y0016551D01*
X0017838Y0016647D01*
X0017712Y0016747D01*
X0017588Y0016850D01*
X0017467Y0016955D01*
X0017348Y0017064D01*
X0017232Y0017175D01*
X0017119Y0017290D01*
X0017009Y0017407D01*
X0016902Y0017527D01*
X0016798Y0017649D01*
X0016697Y0017774D01*
X0016599Y0017902D01*
X0016504Y0018032D01*
X0016412Y0018164D01*
X0016324Y0018298D01*
X0016239Y0018435D01*
X0016157Y0018573D01*
X0016079Y0018714D01*
X0016005Y0018856D01*
X0015934Y0019000D01*
X0015866Y0019146D01*
X0015803Y0019294D01*
X0015742Y0019443D01*
X0015686Y0019594D01*
X0015633Y0019746D01*
X0015584Y0019899D01*
X0015539Y0020053D01*
X0015498Y0020208D01*
X0015460Y0020365D01*
X0015427Y0020522D01*
X0015397Y0020680D01*
X0015371Y0020839D01*
X0015350Y0020998D01*
X0015332Y0021158D01*
X0015318Y0021318D01*
X0015308Y0021479D01*
X0015302Y0021639D01*
X0015300Y0021800D01*
X0015300Y0296800D02*
X0015302Y0296961D01*
X0015308Y0297121D01*
X0015318Y0297282D01*
X0015332Y0297442D01*
X0015350Y0297602D01*
X0015371Y0297761D01*
X0015397Y0297920D01*
X0015427Y0298078D01*
X0015460Y0298235D01*
X0015498Y0298392D01*
X0015539Y0298547D01*
X0015584Y0298701D01*
X0015633Y0298854D01*
X0015686Y0299006D01*
X0015742Y0299157D01*
X0015803Y0299306D01*
X0015866Y0299454D01*
X0015934Y0299600D01*
X0016005Y0299744D01*
X0016079Y0299886D01*
X0016157Y0300027D01*
X0016239Y0300165D01*
X0016324Y0300302D01*
X0016412Y0300436D01*
X0016504Y0300568D01*
X0016599Y0300698D01*
X0016697Y0300826D01*
X0016798Y0300951D01*
X0016902Y0301073D01*
X0017009Y0301193D01*
X0017119Y0301310D01*
X0017232Y0301425D01*
X0017348Y0301536D01*
X0017467Y0301645D01*
X0017588Y0301750D01*
X0017712Y0301853D01*
X0017838Y0301953D01*
X0017966Y0302049D01*
X0018097Y0302142D01*
X0018231Y0302232D01*
X0018366Y0302319D01*
X0018504Y0302402D01*
X0018643Y0302482D01*
X0018785Y0302558D01*
X0018928Y0302631D01*
X0019073Y0302700D01*
X0019220Y0302766D01*
X0019368Y0302828D01*
X0019518Y0302886D01*
X0019669Y0302941D01*
X0019822Y0302992D01*
X0019976Y0303039D01*
X0020131Y0303082D01*
X0020287Y0303121D01*
X0020443Y0303157D01*
X0020601Y0303188D01*
X0020759Y0303216D01*
X0020918Y0303240D01*
X0021078Y0303260D01*
X0021238Y0303276D01*
X0021398Y0303288D01*
X0021559Y0303296D01*
X0021720Y0303300D01*
X0021880Y0303300D01*
X0022041Y0303296D01*
X0022202Y0303288D01*
X0022362Y0303276D01*
X0022522Y0303260D01*
X0022682Y0303240D01*
X0022841Y0303216D01*
X0022999Y0303188D01*
X0023157Y0303157D01*
X0023313Y0303121D01*
X0023469Y0303082D01*
X0023624Y0303039D01*
X0023778Y0302992D01*
X0023931Y0302941D01*
X0024082Y0302886D01*
X0024232Y0302828D01*
X0024380Y0302766D01*
X0024527Y0302700D01*
X0024672Y0302631D01*
X0024815Y0302558D01*
X0024957Y0302482D01*
X0025096Y0302402D01*
X0025234Y0302319D01*
X0025369Y0302232D01*
X0025503Y0302142D01*
X0025634Y0302049D01*
X0025762Y0301953D01*
X0025888Y0301853D01*
X0026012Y0301750D01*
X0026133Y0301645D01*
X0026252Y0301536D01*
X0026368Y0301425D01*
X0026481Y0301310D01*
X0026591Y0301193D01*
X0026698Y0301073D01*
X0026802Y0300951D01*
X0026903Y0300826D01*
X0027001Y0300698D01*
X0027096Y0300568D01*
X0027188Y0300436D01*
X0027276Y0300302D01*
X0027361Y0300165D01*
X0027443Y0300027D01*
X0027521Y0299886D01*
X0027595Y0299744D01*
X0027666Y0299600D01*
X0027734Y0299454D01*
X0027797Y0299306D01*
X0027858Y0299157D01*
X0027914Y0299006D01*
X0027967Y0298854D01*
X0028016Y0298701D01*
X0028061Y0298547D01*
X0028102Y0298392D01*
X0028140Y0298235D01*
X0028173Y0298078D01*
X0028203Y0297920D01*
X0028229Y0297761D01*
X0028250Y0297602D01*
X0028268Y0297442D01*
X0028282Y0297282D01*
X0028292Y0297121D01*
X0028298Y0296961D01*
X0028300Y0296800D01*
X0028298Y0296639D01*
X0028292Y0296479D01*
X0028282Y0296318D01*
X0028268Y0296158D01*
X0028250Y0295998D01*
X0028229Y0295839D01*
X0028203Y0295680D01*
X0028173Y0295522D01*
X0028140Y0295365D01*
X0028102Y0295208D01*
X0028061Y0295053D01*
X0028016Y0294899D01*
X0027967Y0294746D01*
X0027914Y0294594D01*
X0027858Y0294443D01*
X0027797Y0294294D01*
X0027734Y0294146D01*
X0027666Y0294000D01*
X0027595Y0293856D01*
X0027521Y0293714D01*
X0027443Y0293573D01*
X0027361Y0293435D01*
X0027276Y0293298D01*
X0027188Y0293164D01*
X0027096Y0293032D01*
X0027001Y0292902D01*
X0026903Y0292774D01*
X0026802Y0292649D01*
X0026698Y0292527D01*
X0026591Y0292407D01*
X0026481Y0292290D01*
X0026368Y0292175D01*
X0026252Y0292064D01*
X0026133Y0291955D01*
X0026012Y0291850D01*
X0025888Y0291747D01*
X0025762Y0291647D01*
X0025634Y0291551D01*
X0025503Y0291458D01*
X0025369Y0291368D01*
X0025234Y0291281D01*
X0025096Y0291198D01*
X0024957Y0291118D01*
X0024815Y0291042D01*
X0024672Y0290969D01*
X0024527Y0290900D01*
X0024380Y0290834D01*
X0024232Y0290772D01*
X0024082Y0290714D01*
X0023931Y0290659D01*
X0023778Y0290608D01*
X0023624Y0290561D01*
X0023469Y0290518D01*
X0023313Y0290479D01*
X0023157Y0290443D01*
X0022999Y0290412D01*
X0022841Y0290384D01*
X0022682Y0290360D01*
X0022522Y0290340D01*
X0022362Y0290324D01*
X0022202Y0290312D01*
X0022041Y0290304D01*
X0021880Y0290300D01*
X0021720Y0290300D01*
X0021559Y0290304D01*
X0021398Y0290312D01*
X0021238Y0290324D01*
X0021078Y0290340D01*
X0020918Y0290360D01*
X0020759Y0290384D01*
X0020601Y0290412D01*
X0020443Y0290443D01*
X0020287Y0290479D01*
X0020131Y0290518D01*
X0019976Y0290561D01*
X0019822Y0290608D01*
X0019669Y0290659D01*
X0019518Y0290714D01*
X0019368Y0290772D01*
X0019220Y0290834D01*
X0019073Y0290900D01*
X0018928Y0290969D01*
X0018785Y0291042D01*
X0018643Y0291118D01*
X0018504Y0291198D01*
X0018366Y0291281D01*
X0018231Y0291368D01*
X0018097Y0291458D01*
X0017966Y0291551D01*
X0017838Y0291647D01*
X0017712Y0291747D01*
X0017588Y0291850D01*
X0017467Y0291955D01*
X0017348Y0292064D01*
X0017232Y0292175D01*
X0017119Y0292290D01*
X0017009Y0292407D01*
X0016902Y0292527D01*
X0016798Y0292649D01*
X0016697Y0292774D01*
X0016599Y0292902D01*
X0016504Y0293032D01*
X0016412Y0293164D01*
X0016324Y0293298D01*
X0016239Y0293435D01*
X0016157Y0293573D01*
X0016079Y0293714D01*
X0016005Y0293856D01*
X0015934Y0294000D01*
X0015866Y0294146D01*
X0015803Y0294294D01*
X0015742Y0294443D01*
X0015686Y0294594D01*
X0015633Y0294746D01*
X0015584Y0294899D01*
X0015539Y0295053D01*
X0015498Y0295208D01*
X0015460Y0295365D01*
X0015427Y0295522D01*
X0015397Y0295680D01*
X0015371Y0295839D01*
X0015350Y0295998D01*
X0015332Y0296158D01*
X0015318Y0296318D01*
X0015308Y0296479D01*
X0015302Y0296639D01*
X0015300Y0296800D01*
X0365300Y0296800D02*
X0365302Y0296961D01*
X0365308Y0297121D01*
X0365318Y0297282D01*
X0365332Y0297442D01*
X0365350Y0297602D01*
X0365371Y0297761D01*
X0365397Y0297920D01*
X0365427Y0298078D01*
X0365460Y0298235D01*
X0365498Y0298392D01*
X0365539Y0298547D01*
X0365584Y0298701D01*
X0365633Y0298854D01*
X0365686Y0299006D01*
X0365742Y0299157D01*
X0365803Y0299306D01*
X0365866Y0299454D01*
X0365934Y0299600D01*
X0366005Y0299744D01*
X0366079Y0299886D01*
X0366157Y0300027D01*
X0366239Y0300165D01*
X0366324Y0300302D01*
X0366412Y0300436D01*
X0366504Y0300568D01*
X0366599Y0300698D01*
X0366697Y0300826D01*
X0366798Y0300951D01*
X0366902Y0301073D01*
X0367009Y0301193D01*
X0367119Y0301310D01*
X0367232Y0301425D01*
X0367348Y0301536D01*
X0367467Y0301645D01*
X0367588Y0301750D01*
X0367712Y0301853D01*
X0367838Y0301953D01*
X0367966Y0302049D01*
X0368097Y0302142D01*
X0368231Y0302232D01*
X0368366Y0302319D01*
X0368504Y0302402D01*
X0368643Y0302482D01*
X0368785Y0302558D01*
X0368928Y0302631D01*
X0369073Y0302700D01*
X0369220Y0302766D01*
X0369368Y0302828D01*
X0369518Y0302886D01*
X0369669Y0302941D01*
X0369822Y0302992D01*
X0369976Y0303039D01*
X0370131Y0303082D01*
X0370287Y0303121D01*
X0370443Y0303157D01*
X0370601Y0303188D01*
X0370759Y0303216D01*
X0370918Y0303240D01*
X0371078Y0303260D01*
X0371238Y0303276D01*
X0371398Y0303288D01*
X0371559Y0303296D01*
X0371720Y0303300D01*
X0371880Y0303300D01*
X0372041Y0303296D01*
X0372202Y0303288D01*
X0372362Y0303276D01*
X0372522Y0303260D01*
X0372682Y0303240D01*
X0372841Y0303216D01*
X0372999Y0303188D01*
X0373157Y0303157D01*
X0373313Y0303121D01*
X0373469Y0303082D01*
X0373624Y0303039D01*
X0373778Y0302992D01*
X0373931Y0302941D01*
X0374082Y0302886D01*
X0374232Y0302828D01*
X0374380Y0302766D01*
X0374527Y0302700D01*
X0374672Y0302631D01*
X0374815Y0302558D01*
X0374957Y0302482D01*
X0375096Y0302402D01*
X0375234Y0302319D01*
X0375369Y0302232D01*
X0375503Y0302142D01*
X0375634Y0302049D01*
X0375762Y0301953D01*
X0375888Y0301853D01*
X0376012Y0301750D01*
X0376133Y0301645D01*
X0376252Y0301536D01*
X0376368Y0301425D01*
X0376481Y0301310D01*
X0376591Y0301193D01*
X0376698Y0301073D01*
X0376802Y0300951D01*
X0376903Y0300826D01*
X0377001Y0300698D01*
X0377096Y0300568D01*
X0377188Y0300436D01*
X0377276Y0300302D01*
X0377361Y0300165D01*
X0377443Y0300027D01*
X0377521Y0299886D01*
X0377595Y0299744D01*
X0377666Y0299600D01*
X0377734Y0299454D01*
X0377797Y0299306D01*
X0377858Y0299157D01*
X0377914Y0299006D01*
X0377967Y0298854D01*
X0378016Y0298701D01*
X0378061Y0298547D01*
X0378102Y0298392D01*
X0378140Y0298235D01*
X0378173Y0298078D01*
X0378203Y0297920D01*
X0378229Y0297761D01*
X0378250Y0297602D01*
X0378268Y0297442D01*
X0378282Y0297282D01*
X0378292Y0297121D01*
X0378298Y0296961D01*
X0378300Y0296800D01*
X0378298Y0296639D01*
X0378292Y0296479D01*
X0378282Y0296318D01*
X0378268Y0296158D01*
X0378250Y0295998D01*
X0378229Y0295839D01*
X0378203Y0295680D01*
X0378173Y0295522D01*
X0378140Y0295365D01*
X0378102Y0295208D01*
X0378061Y0295053D01*
X0378016Y0294899D01*
X0377967Y0294746D01*
X0377914Y0294594D01*
X0377858Y0294443D01*
X0377797Y0294294D01*
X0377734Y0294146D01*
X0377666Y0294000D01*
X0377595Y0293856D01*
X0377521Y0293714D01*
X0377443Y0293573D01*
X0377361Y0293435D01*
X0377276Y0293298D01*
X0377188Y0293164D01*
X0377096Y0293032D01*
X0377001Y0292902D01*
X0376903Y0292774D01*
X0376802Y0292649D01*
X0376698Y0292527D01*
X0376591Y0292407D01*
X0376481Y0292290D01*
X0376368Y0292175D01*
X0376252Y0292064D01*
X0376133Y0291955D01*
X0376012Y0291850D01*
X0375888Y0291747D01*
X0375762Y0291647D01*
X0375634Y0291551D01*
X0375503Y0291458D01*
X0375369Y0291368D01*
X0375234Y0291281D01*
X0375096Y0291198D01*
X0374957Y0291118D01*
X0374815Y0291042D01*
X0374672Y0290969D01*
X0374527Y0290900D01*
X0374380Y0290834D01*
X0374232Y0290772D01*
X0374082Y0290714D01*
X0373931Y0290659D01*
X0373778Y0290608D01*
X0373624Y0290561D01*
X0373469Y0290518D01*
X0373313Y0290479D01*
X0373157Y0290443D01*
X0372999Y0290412D01*
X0372841Y0290384D01*
X0372682Y0290360D01*
X0372522Y0290340D01*
X0372362Y0290324D01*
X0372202Y0290312D01*
X0372041Y0290304D01*
X0371880Y0290300D01*
X0371720Y0290300D01*
X0371559Y0290304D01*
X0371398Y0290312D01*
X0371238Y0290324D01*
X0371078Y0290340D01*
X0370918Y0290360D01*
X0370759Y0290384D01*
X0370601Y0290412D01*
X0370443Y0290443D01*
X0370287Y0290479D01*
X0370131Y0290518D01*
X0369976Y0290561D01*
X0369822Y0290608D01*
X0369669Y0290659D01*
X0369518Y0290714D01*
X0369368Y0290772D01*
X0369220Y0290834D01*
X0369073Y0290900D01*
X0368928Y0290969D01*
X0368785Y0291042D01*
X0368643Y0291118D01*
X0368504Y0291198D01*
X0368366Y0291281D01*
X0368231Y0291368D01*
X0368097Y0291458D01*
X0367966Y0291551D01*
X0367838Y0291647D01*
X0367712Y0291747D01*
X0367588Y0291850D01*
X0367467Y0291955D01*
X0367348Y0292064D01*
X0367232Y0292175D01*
X0367119Y0292290D01*
X0367009Y0292407D01*
X0366902Y0292527D01*
X0366798Y0292649D01*
X0366697Y0292774D01*
X0366599Y0292902D01*
X0366504Y0293032D01*
X0366412Y0293164D01*
X0366324Y0293298D01*
X0366239Y0293435D01*
X0366157Y0293573D01*
X0366079Y0293714D01*
X0366005Y0293856D01*
X0365934Y0294000D01*
X0365866Y0294146D01*
X0365803Y0294294D01*
X0365742Y0294443D01*
X0365686Y0294594D01*
X0365633Y0294746D01*
X0365584Y0294899D01*
X0365539Y0295053D01*
X0365498Y0295208D01*
X0365460Y0295365D01*
X0365427Y0295522D01*
X0365397Y0295680D01*
X0365371Y0295839D01*
X0365350Y0295998D01*
X0365332Y0296158D01*
X0365318Y0296318D01*
X0365308Y0296479D01*
X0365302Y0296639D01*
X0365300Y0296800D01*
X0367942Y0131800D02*
X0367944Y0131993D01*
X0367951Y0132186D01*
X0367963Y0132379D01*
X0367980Y0132572D01*
X0368001Y0132764D01*
X0368027Y0132955D01*
X0368058Y0133146D01*
X0368093Y0133336D01*
X0368133Y0133525D01*
X0368178Y0133713D01*
X0368227Y0133900D01*
X0368281Y0134086D01*
X0368339Y0134270D01*
X0368402Y0134453D01*
X0368470Y0134634D01*
X0368541Y0134813D01*
X0368618Y0134991D01*
X0368698Y0135167D01*
X0368783Y0135340D01*
X0368872Y0135512D01*
X0368965Y0135681D01*
X0369062Y0135848D01*
X0369164Y0136013D01*
X0369269Y0136175D01*
X0369378Y0136334D01*
X0369492Y0136491D01*
X0369609Y0136644D01*
X0369729Y0136795D01*
X0369854Y0136943D01*
X0369982Y0137088D01*
X0370113Y0137229D01*
X0370248Y0137368D01*
X0370387Y0137503D01*
X0370528Y0137634D01*
X0370673Y0137762D01*
X0370821Y0137887D01*
X0370972Y0138007D01*
X0371125Y0138124D01*
X0371282Y0138238D01*
X0371441Y0138347D01*
X0371603Y0138452D01*
X0371768Y0138554D01*
X0371935Y0138651D01*
X0372104Y0138744D01*
X0372276Y0138833D01*
X0372449Y0138918D01*
X0372625Y0138998D01*
X0372803Y0139075D01*
X0372982Y0139146D01*
X0373163Y0139214D01*
X0373346Y0139277D01*
X0373530Y0139335D01*
X0373716Y0139389D01*
X0373903Y0139438D01*
X0374091Y0139483D01*
X0374280Y0139523D01*
X0374470Y0139558D01*
X0374661Y0139589D01*
X0374852Y0139615D01*
X0375044Y0139636D01*
X0375237Y0139653D01*
X0375430Y0139665D01*
X0375623Y0139672D01*
X0375816Y0139674D01*
X0376009Y0139672D01*
X0376202Y0139665D01*
X0376395Y0139653D01*
X0376588Y0139636D01*
X0376780Y0139615D01*
X0376971Y0139589D01*
X0377162Y0139558D01*
X0377352Y0139523D01*
X0377541Y0139483D01*
X0377729Y0139438D01*
X0377916Y0139389D01*
X0378102Y0139335D01*
X0378286Y0139277D01*
X0378469Y0139214D01*
X0378650Y0139146D01*
X0378829Y0139075D01*
X0379007Y0138998D01*
X0379183Y0138918D01*
X0379356Y0138833D01*
X0379528Y0138744D01*
X0379697Y0138651D01*
X0379864Y0138554D01*
X0380029Y0138452D01*
X0380191Y0138347D01*
X0380350Y0138238D01*
X0380507Y0138124D01*
X0380660Y0138007D01*
X0380811Y0137887D01*
X0380959Y0137762D01*
X0381104Y0137634D01*
X0381245Y0137503D01*
X0381384Y0137368D01*
X0381519Y0137229D01*
X0381650Y0137088D01*
X0381778Y0136943D01*
X0381903Y0136795D01*
X0382023Y0136644D01*
X0382140Y0136491D01*
X0382254Y0136334D01*
X0382363Y0136175D01*
X0382468Y0136013D01*
X0382570Y0135848D01*
X0382667Y0135681D01*
X0382760Y0135512D01*
X0382849Y0135340D01*
X0382934Y0135167D01*
X0383014Y0134991D01*
X0383091Y0134813D01*
X0383162Y0134634D01*
X0383230Y0134453D01*
X0383293Y0134270D01*
X0383351Y0134086D01*
X0383405Y0133900D01*
X0383454Y0133713D01*
X0383499Y0133525D01*
X0383539Y0133336D01*
X0383574Y0133146D01*
X0383605Y0132955D01*
X0383631Y0132764D01*
X0383652Y0132572D01*
X0383669Y0132379D01*
X0383681Y0132186D01*
X0383688Y0131993D01*
X0383690Y0131800D01*
X0383688Y0131607D01*
X0383681Y0131414D01*
X0383669Y0131221D01*
X0383652Y0131028D01*
X0383631Y0130836D01*
X0383605Y0130645D01*
X0383574Y0130454D01*
X0383539Y0130264D01*
X0383499Y0130075D01*
X0383454Y0129887D01*
X0383405Y0129700D01*
X0383351Y0129514D01*
X0383293Y0129330D01*
X0383230Y0129147D01*
X0383162Y0128966D01*
X0383091Y0128787D01*
X0383014Y0128609D01*
X0382934Y0128433D01*
X0382849Y0128260D01*
X0382760Y0128088D01*
X0382667Y0127919D01*
X0382570Y0127752D01*
X0382468Y0127587D01*
X0382363Y0127425D01*
X0382254Y0127266D01*
X0382140Y0127109D01*
X0382023Y0126956D01*
X0381903Y0126805D01*
X0381778Y0126657D01*
X0381650Y0126512D01*
X0381519Y0126371D01*
X0381384Y0126232D01*
X0381245Y0126097D01*
X0381104Y0125966D01*
X0380959Y0125838D01*
X0380811Y0125713D01*
X0380660Y0125593D01*
X0380507Y0125476D01*
X0380350Y0125362D01*
X0380191Y0125253D01*
X0380029Y0125148D01*
X0379864Y0125046D01*
X0379697Y0124949D01*
X0379528Y0124856D01*
X0379356Y0124767D01*
X0379183Y0124682D01*
X0379007Y0124602D01*
X0378829Y0124525D01*
X0378650Y0124454D01*
X0378469Y0124386D01*
X0378286Y0124323D01*
X0378102Y0124265D01*
X0377916Y0124211D01*
X0377729Y0124162D01*
X0377541Y0124117D01*
X0377352Y0124077D01*
X0377162Y0124042D01*
X0376971Y0124011D01*
X0376780Y0123985D01*
X0376588Y0123964D01*
X0376395Y0123947D01*
X0376202Y0123935D01*
X0376009Y0123928D01*
X0375816Y0123926D01*
X0375623Y0123928D01*
X0375430Y0123935D01*
X0375237Y0123947D01*
X0375044Y0123964D01*
X0374852Y0123985D01*
X0374661Y0124011D01*
X0374470Y0124042D01*
X0374280Y0124077D01*
X0374091Y0124117D01*
X0373903Y0124162D01*
X0373716Y0124211D01*
X0373530Y0124265D01*
X0373346Y0124323D01*
X0373163Y0124386D01*
X0372982Y0124454D01*
X0372803Y0124525D01*
X0372625Y0124602D01*
X0372449Y0124682D01*
X0372276Y0124767D01*
X0372104Y0124856D01*
X0371935Y0124949D01*
X0371768Y0125046D01*
X0371603Y0125148D01*
X0371441Y0125253D01*
X0371282Y0125362D01*
X0371125Y0125476D01*
X0370972Y0125593D01*
X0370821Y0125713D01*
X0370673Y0125838D01*
X0370528Y0125966D01*
X0370387Y0126097D01*
X0370248Y0126232D01*
X0370113Y0126371D01*
X0369982Y0126512D01*
X0369854Y0126657D01*
X0369729Y0126805D01*
X0369609Y0126956D01*
X0369492Y0127109D01*
X0369378Y0127266D01*
X0369269Y0127425D01*
X0369164Y0127587D01*
X0369062Y0127752D01*
X0368965Y0127919D01*
X0368872Y0128088D01*
X0368783Y0128260D01*
X0368698Y0128433D01*
X0368618Y0128609D01*
X0368541Y0128787D01*
X0368470Y0128966D01*
X0368402Y0129147D01*
X0368339Y0129330D01*
X0368281Y0129514D01*
X0368227Y0129700D01*
X0368178Y0129887D01*
X0368133Y0130075D01*
X0368093Y0130264D01*
X0368058Y0130454D01*
X0368027Y0130645D01*
X0368001Y0130836D01*
X0367980Y0131028D01*
X0367963Y0131221D01*
X0367951Y0131414D01*
X0367944Y0131607D01*
X0367942Y0131800D01*
X0367942Y0061800D02*
X0367944Y0061993D01*
X0367951Y0062186D01*
X0367963Y0062379D01*
X0367980Y0062572D01*
X0368001Y0062764D01*
X0368027Y0062955D01*
X0368058Y0063146D01*
X0368093Y0063336D01*
X0368133Y0063525D01*
X0368178Y0063713D01*
X0368227Y0063900D01*
X0368281Y0064086D01*
X0368339Y0064270D01*
X0368402Y0064453D01*
X0368470Y0064634D01*
X0368541Y0064813D01*
X0368618Y0064991D01*
X0368698Y0065167D01*
X0368783Y0065340D01*
X0368872Y0065512D01*
X0368965Y0065681D01*
X0369062Y0065848D01*
X0369164Y0066013D01*
X0369269Y0066175D01*
X0369378Y0066334D01*
X0369492Y0066491D01*
X0369609Y0066644D01*
X0369729Y0066795D01*
X0369854Y0066943D01*
X0369982Y0067088D01*
X0370113Y0067229D01*
X0370248Y0067368D01*
X0370387Y0067503D01*
X0370528Y0067634D01*
X0370673Y0067762D01*
X0370821Y0067887D01*
X0370972Y0068007D01*
X0371125Y0068124D01*
X0371282Y0068238D01*
X0371441Y0068347D01*
X0371603Y0068452D01*
X0371768Y0068554D01*
X0371935Y0068651D01*
X0372104Y0068744D01*
X0372276Y0068833D01*
X0372449Y0068918D01*
X0372625Y0068998D01*
X0372803Y0069075D01*
X0372982Y0069146D01*
X0373163Y0069214D01*
X0373346Y0069277D01*
X0373530Y0069335D01*
X0373716Y0069389D01*
X0373903Y0069438D01*
X0374091Y0069483D01*
X0374280Y0069523D01*
X0374470Y0069558D01*
X0374661Y0069589D01*
X0374852Y0069615D01*
X0375044Y0069636D01*
X0375237Y0069653D01*
X0375430Y0069665D01*
X0375623Y0069672D01*
X0375816Y0069674D01*
X0376009Y0069672D01*
X0376202Y0069665D01*
X0376395Y0069653D01*
X0376588Y0069636D01*
X0376780Y0069615D01*
X0376971Y0069589D01*
X0377162Y0069558D01*
X0377352Y0069523D01*
X0377541Y0069483D01*
X0377729Y0069438D01*
X0377916Y0069389D01*
X0378102Y0069335D01*
X0378286Y0069277D01*
X0378469Y0069214D01*
X0378650Y0069146D01*
X0378829Y0069075D01*
X0379007Y0068998D01*
X0379183Y0068918D01*
X0379356Y0068833D01*
X0379528Y0068744D01*
X0379697Y0068651D01*
X0379864Y0068554D01*
X0380029Y0068452D01*
X0380191Y0068347D01*
X0380350Y0068238D01*
X0380507Y0068124D01*
X0380660Y0068007D01*
X0380811Y0067887D01*
X0380959Y0067762D01*
X0381104Y0067634D01*
X0381245Y0067503D01*
X0381384Y0067368D01*
X0381519Y0067229D01*
X0381650Y0067088D01*
X0381778Y0066943D01*
X0381903Y0066795D01*
X0382023Y0066644D01*
X0382140Y0066491D01*
X0382254Y0066334D01*
X0382363Y0066175D01*
X0382468Y0066013D01*
X0382570Y0065848D01*
X0382667Y0065681D01*
X0382760Y0065512D01*
X0382849Y0065340D01*
X0382934Y0065167D01*
X0383014Y0064991D01*
X0383091Y0064813D01*
X0383162Y0064634D01*
X0383230Y0064453D01*
X0383293Y0064270D01*
X0383351Y0064086D01*
X0383405Y0063900D01*
X0383454Y0063713D01*
X0383499Y0063525D01*
X0383539Y0063336D01*
X0383574Y0063146D01*
X0383605Y0062955D01*
X0383631Y0062764D01*
X0383652Y0062572D01*
X0383669Y0062379D01*
X0383681Y0062186D01*
X0383688Y0061993D01*
X0383690Y0061800D01*
X0383688Y0061607D01*
X0383681Y0061414D01*
X0383669Y0061221D01*
X0383652Y0061028D01*
X0383631Y0060836D01*
X0383605Y0060645D01*
X0383574Y0060454D01*
X0383539Y0060264D01*
X0383499Y0060075D01*
X0383454Y0059887D01*
X0383405Y0059700D01*
X0383351Y0059514D01*
X0383293Y0059330D01*
X0383230Y0059147D01*
X0383162Y0058966D01*
X0383091Y0058787D01*
X0383014Y0058609D01*
X0382934Y0058433D01*
X0382849Y0058260D01*
X0382760Y0058088D01*
X0382667Y0057919D01*
X0382570Y0057752D01*
X0382468Y0057587D01*
X0382363Y0057425D01*
X0382254Y0057266D01*
X0382140Y0057109D01*
X0382023Y0056956D01*
X0381903Y0056805D01*
X0381778Y0056657D01*
X0381650Y0056512D01*
X0381519Y0056371D01*
X0381384Y0056232D01*
X0381245Y0056097D01*
X0381104Y0055966D01*
X0380959Y0055838D01*
X0380811Y0055713D01*
X0380660Y0055593D01*
X0380507Y0055476D01*
X0380350Y0055362D01*
X0380191Y0055253D01*
X0380029Y0055148D01*
X0379864Y0055046D01*
X0379697Y0054949D01*
X0379528Y0054856D01*
X0379356Y0054767D01*
X0379183Y0054682D01*
X0379007Y0054602D01*
X0378829Y0054525D01*
X0378650Y0054454D01*
X0378469Y0054386D01*
X0378286Y0054323D01*
X0378102Y0054265D01*
X0377916Y0054211D01*
X0377729Y0054162D01*
X0377541Y0054117D01*
X0377352Y0054077D01*
X0377162Y0054042D01*
X0376971Y0054011D01*
X0376780Y0053985D01*
X0376588Y0053964D01*
X0376395Y0053947D01*
X0376202Y0053935D01*
X0376009Y0053928D01*
X0375816Y0053926D01*
X0375623Y0053928D01*
X0375430Y0053935D01*
X0375237Y0053947D01*
X0375044Y0053964D01*
X0374852Y0053985D01*
X0374661Y0054011D01*
X0374470Y0054042D01*
X0374280Y0054077D01*
X0374091Y0054117D01*
X0373903Y0054162D01*
X0373716Y0054211D01*
X0373530Y0054265D01*
X0373346Y0054323D01*
X0373163Y0054386D01*
X0372982Y0054454D01*
X0372803Y0054525D01*
X0372625Y0054602D01*
X0372449Y0054682D01*
X0372276Y0054767D01*
X0372104Y0054856D01*
X0371935Y0054949D01*
X0371768Y0055046D01*
X0371603Y0055148D01*
X0371441Y0055253D01*
X0371282Y0055362D01*
X0371125Y0055476D01*
X0370972Y0055593D01*
X0370821Y0055713D01*
X0370673Y0055838D01*
X0370528Y0055966D01*
X0370387Y0056097D01*
X0370248Y0056232D01*
X0370113Y0056371D01*
X0369982Y0056512D01*
X0369854Y0056657D01*
X0369729Y0056805D01*
X0369609Y0056956D01*
X0369492Y0057109D01*
X0369378Y0057266D01*
X0369269Y0057425D01*
X0369164Y0057587D01*
X0369062Y0057752D01*
X0368965Y0057919D01*
X0368872Y0058088D01*
X0368783Y0058260D01*
X0368698Y0058433D01*
X0368618Y0058609D01*
X0368541Y0058787D01*
X0368470Y0058966D01*
X0368402Y0059147D01*
X0368339Y0059330D01*
X0368281Y0059514D01*
X0368227Y0059700D01*
X0368178Y0059887D01*
X0368133Y0060075D01*
X0368093Y0060264D01*
X0368058Y0060454D01*
X0368027Y0060645D01*
X0368001Y0060836D01*
X0367980Y0061028D01*
X0367963Y0061221D01*
X0367951Y0061414D01*
X0367944Y0061607D01*
X0367942Y0061800D01*
X0370300Y0021800D02*
X0370302Y0021961D01*
X0370308Y0022121D01*
X0370318Y0022282D01*
X0370332Y0022442D01*
X0370350Y0022602D01*
X0370371Y0022761D01*
X0370397Y0022920D01*
X0370427Y0023078D01*
X0370460Y0023235D01*
X0370498Y0023392D01*
X0370539Y0023547D01*
X0370584Y0023701D01*
X0370633Y0023854D01*
X0370686Y0024006D01*
X0370742Y0024157D01*
X0370803Y0024306D01*
X0370866Y0024454D01*
X0370934Y0024600D01*
X0371005Y0024744D01*
X0371079Y0024886D01*
X0371157Y0025027D01*
X0371239Y0025165D01*
X0371324Y0025302D01*
X0371412Y0025436D01*
X0371504Y0025568D01*
X0371599Y0025698D01*
X0371697Y0025826D01*
X0371798Y0025951D01*
X0371902Y0026073D01*
X0372009Y0026193D01*
X0372119Y0026310D01*
X0372232Y0026425D01*
X0372348Y0026536D01*
X0372467Y0026645D01*
X0372588Y0026750D01*
X0372712Y0026853D01*
X0372838Y0026953D01*
X0372966Y0027049D01*
X0373097Y0027142D01*
X0373231Y0027232D01*
X0373366Y0027319D01*
X0373504Y0027402D01*
X0373643Y0027482D01*
X0373785Y0027558D01*
X0373928Y0027631D01*
X0374073Y0027700D01*
X0374220Y0027766D01*
X0374368Y0027828D01*
X0374518Y0027886D01*
X0374669Y0027941D01*
X0374822Y0027992D01*
X0374976Y0028039D01*
X0375131Y0028082D01*
X0375287Y0028121D01*
X0375443Y0028157D01*
X0375601Y0028188D01*
X0375759Y0028216D01*
X0375918Y0028240D01*
X0376078Y0028260D01*
X0376238Y0028276D01*
X0376398Y0028288D01*
X0376559Y0028296D01*
X0376720Y0028300D01*
X0376880Y0028300D01*
X0377041Y0028296D01*
X0377202Y0028288D01*
X0377362Y0028276D01*
X0377522Y0028260D01*
X0377682Y0028240D01*
X0377841Y0028216D01*
X0377999Y0028188D01*
X0378157Y0028157D01*
X0378313Y0028121D01*
X0378469Y0028082D01*
X0378624Y0028039D01*
X0378778Y0027992D01*
X0378931Y0027941D01*
X0379082Y0027886D01*
X0379232Y0027828D01*
X0379380Y0027766D01*
X0379527Y0027700D01*
X0379672Y0027631D01*
X0379815Y0027558D01*
X0379957Y0027482D01*
X0380096Y0027402D01*
X0380234Y0027319D01*
X0380369Y0027232D01*
X0380503Y0027142D01*
X0380634Y0027049D01*
X0380762Y0026953D01*
X0380888Y0026853D01*
X0381012Y0026750D01*
X0381133Y0026645D01*
X0381252Y0026536D01*
X0381368Y0026425D01*
X0381481Y0026310D01*
X0381591Y0026193D01*
X0381698Y0026073D01*
X0381802Y0025951D01*
X0381903Y0025826D01*
X0382001Y0025698D01*
X0382096Y0025568D01*
X0382188Y0025436D01*
X0382276Y0025302D01*
X0382361Y0025165D01*
X0382443Y0025027D01*
X0382521Y0024886D01*
X0382595Y0024744D01*
X0382666Y0024600D01*
X0382734Y0024454D01*
X0382797Y0024306D01*
X0382858Y0024157D01*
X0382914Y0024006D01*
X0382967Y0023854D01*
X0383016Y0023701D01*
X0383061Y0023547D01*
X0383102Y0023392D01*
X0383140Y0023235D01*
X0383173Y0023078D01*
X0383203Y0022920D01*
X0383229Y0022761D01*
X0383250Y0022602D01*
X0383268Y0022442D01*
X0383282Y0022282D01*
X0383292Y0022121D01*
X0383298Y0021961D01*
X0383300Y0021800D01*
X0383298Y0021639D01*
X0383292Y0021479D01*
X0383282Y0021318D01*
X0383268Y0021158D01*
X0383250Y0020998D01*
X0383229Y0020839D01*
X0383203Y0020680D01*
X0383173Y0020522D01*
X0383140Y0020365D01*
X0383102Y0020208D01*
X0383061Y0020053D01*
X0383016Y0019899D01*
X0382967Y0019746D01*
X0382914Y0019594D01*
X0382858Y0019443D01*
X0382797Y0019294D01*
X0382734Y0019146D01*
X0382666Y0019000D01*
X0382595Y0018856D01*
X0382521Y0018714D01*
X0382443Y0018573D01*
X0382361Y0018435D01*
X0382276Y0018298D01*
X0382188Y0018164D01*
X0382096Y0018032D01*
X0382001Y0017902D01*
X0381903Y0017774D01*
X0381802Y0017649D01*
X0381698Y0017527D01*
X0381591Y0017407D01*
X0381481Y0017290D01*
X0381368Y0017175D01*
X0381252Y0017064D01*
X0381133Y0016955D01*
X0381012Y0016850D01*
X0380888Y0016747D01*
X0380762Y0016647D01*
X0380634Y0016551D01*
X0380503Y0016458D01*
X0380369Y0016368D01*
X0380234Y0016281D01*
X0380096Y0016198D01*
X0379957Y0016118D01*
X0379815Y0016042D01*
X0379672Y0015969D01*
X0379527Y0015900D01*
X0379380Y0015834D01*
X0379232Y0015772D01*
X0379082Y0015714D01*
X0378931Y0015659D01*
X0378778Y0015608D01*
X0378624Y0015561D01*
X0378469Y0015518D01*
X0378313Y0015479D01*
X0378157Y0015443D01*
X0377999Y0015412D01*
X0377841Y0015384D01*
X0377682Y0015360D01*
X0377522Y0015340D01*
X0377362Y0015324D01*
X0377202Y0015312D01*
X0377041Y0015304D01*
X0376880Y0015300D01*
X0376720Y0015300D01*
X0376559Y0015304D01*
X0376398Y0015312D01*
X0376238Y0015324D01*
X0376078Y0015340D01*
X0375918Y0015360D01*
X0375759Y0015384D01*
X0375601Y0015412D01*
X0375443Y0015443D01*
X0375287Y0015479D01*
X0375131Y0015518D01*
X0374976Y0015561D01*
X0374822Y0015608D01*
X0374669Y0015659D01*
X0374518Y0015714D01*
X0374368Y0015772D01*
X0374220Y0015834D01*
X0374073Y0015900D01*
X0373928Y0015969D01*
X0373785Y0016042D01*
X0373643Y0016118D01*
X0373504Y0016198D01*
X0373366Y0016281D01*
X0373231Y0016368D01*
X0373097Y0016458D01*
X0372966Y0016551D01*
X0372838Y0016647D01*
X0372712Y0016747D01*
X0372588Y0016850D01*
X0372467Y0016955D01*
X0372348Y0017064D01*
X0372232Y0017175D01*
X0372119Y0017290D01*
X0372009Y0017407D01*
X0371902Y0017527D01*
X0371798Y0017649D01*
X0371697Y0017774D01*
X0371599Y0017902D01*
X0371504Y0018032D01*
X0371412Y0018164D01*
X0371324Y0018298D01*
X0371239Y0018435D01*
X0371157Y0018573D01*
X0371079Y0018714D01*
X0371005Y0018856D01*
X0370934Y0019000D01*
X0370866Y0019146D01*
X0370803Y0019294D01*
X0370742Y0019443D01*
X0370686Y0019594D01*
X0370633Y0019746D01*
X0370584Y0019899D01*
X0370539Y0020053D01*
X0370498Y0020208D01*
X0370460Y0020365D01*
X0370427Y0020522D01*
X0370397Y0020680D01*
X0370371Y0020839D01*
X0370350Y0020998D01*
X0370332Y0021158D01*
X0370318Y0021318D01*
X0370308Y0021479D01*
X0370302Y0021639D01*
X0370300Y0021800D01*
M02*
