G75*
%MOIN*%
%OFA0B0*%
%FSLAX25Y25*%
%IPPOS*%
%LPD*%
%AMOC8*
5,1,8,0,0,1.08239X$1,22.5*
%
%ADD10C,0.00000*%
%ADD11C,0.00600*%
%ADD12C,0.00100*%
%ADD13C,0.02200*%
%ADD14C,0.01500*%
%ADD15C,0.00800*%
%ADD16C,0.00400*%
%ADD17C,0.02000*%
%ADD18C,0.00500*%
%ADD19R,0.42000X0.03000*%
%ADD20R,0.07500X0.02000*%
%ADD21R,0.03000X0.02000*%
%ADD22C,0.01000*%
D10*
X0001800Y0001800D02*
X0001800Y0316761D01*
X0395501Y0316761D01*
X0395501Y0001800D01*
X0001800Y0001800D01*
X0372942Y0041800D02*
X0372944Y0041993D01*
X0372951Y0042186D01*
X0372963Y0042379D01*
X0372980Y0042572D01*
X0373001Y0042764D01*
X0373027Y0042955D01*
X0373058Y0043146D01*
X0373093Y0043336D01*
X0373133Y0043525D01*
X0373178Y0043713D01*
X0373227Y0043900D01*
X0373281Y0044086D01*
X0373339Y0044270D01*
X0373402Y0044453D01*
X0373470Y0044634D01*
X0373541Y0044813D01*
X0373618Y0044991D01*
X0373698Y0045167D01*
X0373783Y0045340D01*
X0373872Y0045512D01*
X0373965Y0045681D01*
X0374062Y0045848D01*
X0374164Y0046013D01*
X0374269Y0046175D01*
X0374378Y0046334D01*
X0374492Y0046491D01*
X0374609Y0046644D01*
X0374729Y0046795D01*
X0374854Y0046943D01*
X0374982Y0047088D01*
X0375113Y0047229D01*
X0375248Y0047368D01*
X0375387Y0047503D01*
X0375528Y0047634D01*
X0375673Y0047762D01*
X0375821Y0047887D01*
X0375972Y0048007D01*
X0376125Y0048124D01*
X0376282Y0048238D01*
X0376441Y0048347D01*
X0376603Y0048452D01*
X0376768Y0048554D01*
X0376935Y0048651D01*
X0377104Y0048744D01*
X0377276Y0048833D01*
X0377449Y0048918D01*
X0377625Y0048998D01*
X0377803Y0049075D01*
X0377982Y0049146D01*
X0378163Y0049214D01*
X0378346Y0049277D01*
X0378530Y0049335D01*
X0378716Y0049389D01*
X0378903Y0049438D01*
X0379091Y0049483D01*
X0379280Y0049523D01*
X0379470Y0049558D01*
X0379661Y0049589D01*
X0379852Y0049615D01*
X0380044Y0049636D01*
X0380237Y0049653D01*
X0380430Y0049665D01*
X0380623Y0049672D01*
X0380816Y0049674D01*
X0381009Y0049672D01*
X0381202Y0049665D01*
X0381395Y0049653D01*
X0381588Y0049636D01*
X0381780Y0049615D01*
X0381971Y0049589D01*
X0382162Y0049558D01*
X0382352Y0049523D01*
X0382541Y0049483D01*
X0382729Y0049438D01*
X0382916Y0049389D01*
X0383102Y0049335D01*
X0383286Y0049277D01*
X0383469Y0049214D01*
X0383650Y0049146D01*
X0383829Y0049075D01*
X0384007Y0048998D01*
X0384183Y0048918D01*
X0384356Y0048833D01*
X0384528Y0048744D01*
X0384697Y0048651D01*
X0384864Y0048554D01*
X0385029Y0048452D01*
X0385191Y0048347D01*
X0385350Y0048238D01*
X0385507Y0048124D01*
X0385660Y0048007D01*
X0385811Y0047887D01*
X0385959Y0047762D01*
X0386104Y0047634D01*
X0386245Y0047503D01*
X0386384Y0047368D01*
X0386519Y0047229D01*
X0386650Y0047088D01*
X0386778Y0046943D01*
X0386903Y0046795D01*
X0387023Y0046644D01*
X0387140Y0046491D01*
X0387254Y0046334D01*
X0387363Y0046175D01*
X0387468Y0046013D01*
X0387570Y0045848D01*
X0387667Y0045681D01*
X0387760Y0045512D01*
X0387849Y0045340D01*
X0387934Y0045167D01*
X0388014Y0044991D01*
X0388091Y0044813D01*
X0388162Y0044634D01*
X0388230Y0044453D01*
X0388293Y0044270D01*
X0388351Y0044086D01*
X0388405Y0043900D01*
X0388454Y0043713D01*
X0388499Y0043525D01*
X0388539Y0043336D01*
X0388574Y0043146D01*
X0388605Y0042955D01*
X0388631Y0042764D01*
X0388652Y0042572D01*
X0388669Y0042379D01*
X0388681Y0042186D01*
X0388688Y0041993D01*
X0388690Y0041800D01*
X0388688Y0041607D01*
X0388681Y0041414D01*
X0388669Y0041221D01*
X0388652Y0041028D01*
X0388631Y0040836D01*
X0388605Y0040645D01*
X0388574Y0040454D01*
X0388539Y0040264D01*
X0388499Y0040075D01*
X0388454Y0039887D01*
X0388405Y0039700D01*
X0388351Y0039514D01*
X0388293Y0039330D01*
X0388230Y0039147D01*
X0388162Y0038966D01*
X0388091Y0038787D01*
X0388014Y0038609D01*
X0387934Y0038433D01*
X0387849Y0038260D01*
X0387760Y0038088D01*
X0387667Y0037919D01*
X0387570Y0037752D01*
X0387468Y0037587D01*
X0387363Y0037425D01*
X0387254Y0037266D01*
X0387140Y0037109D01*
X0387023Y0036956D01*
X0386903Y0036805D01*
X0386778Y0036657D01*
X0386650Y0036512D01*
X0386519Y0036371D01*
X0386384Y0036232D01*
X0386245Y0036097D01*
X0386104Y0035966D01*
X0385959Y0035838D01*
X0385811Y0035713D01*
X0385660Y0035593D01*
X0385507Y0035476D01*
X0385350Y0035362D01*
X0385191Y0035253D01*
X0385029Y0035148D01*
X0384864Y0035046D01*
X0384697Y0034949D01*
X0384528Y0034856D01*
X0384356Y0034767D01*
X0384183Y0034682D01*
X0384007Y0034602D01*
X0383829Y0034525D01*
X0383650Y0034454D01*
X0383469Y0034386D01*
X0383286Y0034323D01*
X0383102Y0034265D01*
X0382916Y0034211D01*
X0382729Y0034162D01*
X0382541Y0034117D01*
X0382352Y0034077D01*
X0382162Y0034042D01*
X0381971Y0034011D01*
X0381780Y0033985D01*
X0381588Y0033964D01*
X0381395Y0033947D01*
X0381202Y0033935D01*
X0381009Y0033928D01*
X0380816Y0033926D01*
X0380623Y0033928D01*
X0380430Y0033935D01*
X0380237Y0033947D01*
X0380044Y0033964D01*
X0379852Y0033985D01*
X0379661Y0034011D01*
X0379470Y0034042D01*
X0379280Y0034077D01*
X0379091Y0034117D01*
X0378903Y0034162D01*
X0378716Y0034211D01*
X0378530Y0034265D01*
X0378346Y0034323D01*
X0378163Y0034386D01*
X0377982Y0034454D01*
X0377803Y0034525D01*
X0377625Y0034602D01*
X0377449Y0034682D01*
X0377276Y0034767D01*
X0377104Y0034856D01*
X0376935Y0034949D01*
X0376768Y0035046D01*
X0376603Y0035148D01*
X0376441Y0035253D01*
X0376282Y0035362D01*
X0376125Y0035476D01*
X0375972Y0035593D01*
X0375821Y0035713D01*
X0375673Y0035838D01*
X0375528Y0035966D01*
X0375387Y0036097D01*
X0375248Y0036232D01*
X0375113Y0036371D01*
X0374982Y0036512D01*
X0374854Y0036657D01*
X0374729Y0036805D01*
X0374609Y0036956D01*
X0374492Y0037109D01*
X0374378Y0037266D01*
X0374269Y0037425D01*
X0374164Y0037587D01*
X0374062Y0037752D01*
X0373965Y0037919D01*
X0373872Y0038088D01*
X0373783Y0038260D01*
X0373698Y0038433D01*
X0373618Y0038609D01*
X0373541Y0038787D01*
X0373470Y0038966D01*
X0373402Y0039147D01*
X0373339Y0039330D01*
X0373281Y0039514D01*
X0373227Y0039700D01*
X0373178Y0039887D01*
X0373133Y0040075D01*
X0373093Y0040264D01*
X0373058Y0040454D01*
X0373027Y0040645D01*
X0373001Y0040836D01*
X0372980Y0041028D01*
X0372963Y0041221D01*
X0372951Y0041414D01*
X0372944Y0041607D01*
X0372942Y0041800D01*
X0372942Y0146800D02*
X0372944Y0146993D01*
X0372951Y0147186D01*
X0372963Y0147379D01*
X0372980Y0147572D01*
X0373001Y0147764D01*
X0373027Y0147955D01*
X0373058Y0148146D01*
X0373093Y0148336D01*
X0373133Y0148525D01*
X0373178Y0148713D01*
X0373227Y0148900D01*
X0373281Y0149086D01*
X0373339Y0149270D01*
X0373402Y0149453D01*
X0373470Y0149634D01*
X0373541Y0149813D01*
X0373618Y0149991D01*
X0373698Y0150167D01*
X0373783Y0150340D01*
X0373872Y0150512D01*
X0373965Y0150681D01*
X0374062Y0150848D01*
X0374164Y0151013D01*
X0374269Y0151175D01*
X0374378Y0151334D01*
X0374492Y0151491D01*
X0374609Y0151644D01*
X0374729Y0151795D01*
X0374854Y0151943D01*
X0374982Y0152088D01*
X0375113Y0152229D01*
X0375248Y0152368D01*
X0375387Y0152503D01*
X0375528Y0152634D01*
X0375673Y0152762D01*
X0375821Y0152887D01*
X0375972Y0153007D01*
X0376125Y0153124D01*
X0376282Y0153238D01*
X0376441Y0153347D01*
X0376603Y0153452D01*
X0376768Y0153554D01*
X0376935Y0153651D01*
X0377104Y0153744D01*
X0377276Y0153833D01*
X0377449Y0153918D01*
X0377625Y0153998D01*
X0377803Y0154075D01*
X0377982Y0154146D01*
X0378163Y0154214D01*
X0378346Y0154277D01*
X0378530Y0154335D01*
X0378716Y0154389D01*
X0378903Y0154438D01*
X0379091Y0154483D01*
X0379280Y0154523D01*
X0379470Y0154558D01*
X0379661Y0154589D01*
X0379852Y0154615D01*
X0380044Y0154636D01*
X0380237Y0154653D01*
X0380430Y0154665D01*
X0380623Y0154672D01*
X0380816Y0154674D01*
X0381009Y0154672D01*
X0381202Y0154665D01*
X0381395Y0154653D01*
X0381588Y0154636D01*
X0381780Y0154615D01*
X0381971Y0154589D01*
X0382162Y0154558D01*
X0382352Y0154523D01*
X0382541Y0154483D01*
X0382729Y0154438D01*
X0382916Y0154389D01*
X0383102Y0154335D01*
X0383286Y0154277D01*
X0383469Y0154214D01*
X0383650Y0154146D01*
X0383829Y0154075D01*
X0384007Y0153998D01*
X0384183Y0153918D01*
X0384356Y0153833D01*
X0384528Y0153744D01*
X0384697Y0153651D01*
X0384864Y0153554D01*
X0385029Y0153452D01*
X0385191Y0153347D01*
X0385350Y0153238D01*
X0385507Y0153124D01*
X0385660Y0153007D01*
X0385811Y0152887D01*
X0385959Y0152762D01*
X0386104Y0152634D01*
X0386245Y0152503D01*
X0386384Y0152368D01*
X0386519Y0152229D01*
X0386650Y0152088D01*
X0386778Y0151943D01*
X0386903Y0151795D01*
X0387023Y0151644D01*
X0387140Y0151491D01*
X0387254Y0151334D01*
X0387363Y0151175D01*
X0387468Y0151013D01*
X0387570Y0150848D01*
X0387667Y0150681D01*
X0387760Y0150512D01*
X0387849Y0150340D01*
X0387934Y0150167D01*
X0388014Y0149991D01*
X0388091Y0149813D01*
X0388162Y0149634D01*
X0388230Y0149453D01*
X0388293Y0149270D01*
X0388351Y0149086D01*
X0388405Y0148900D01*
X0388454Y0148713D01*
X0388499Y0148525D01*
X0388539Y0148336D01*
X0388574Y0148146D01*
X0388605Y0147955D01*
X0388631Y0147764D01*
X0388652Y0147572D01*
X0388669Y0147379D01*
X0388681Y0147186D01*
X0388688Y0146993D01*
X0388690Y0146800D01*
X0388688Y0146607D01*
X0388681Y0146414D01*
X0388669Y0146221D01*
X0388652Y0146028D01*
X0388631Y0145836D01*
X0388605Y0145645D01*
X0388574Y0145454D01*
X0388539Y0145264D01*
X0388499Y0145075D01*
X0388454Y0144887D01*
X0388405Y0144700D01*
X0388351Y0144514D01*
X0388293Y0144330D01*
X0388230Y0144147D01*
X0388162Y0143966D01*
X0388091Y0143787D01*
X0388014Y0143609D01*
X0387934Y0143433D01*
X0387849Y0143260D01*
X0387760Y0143088D01*
X0387667Y0142919D01*
X0387570Y0142752D01*
X0387468Y0142587D01*
X0387363Y0142425D01*
X0387254Y0142266D01*
X0387140Y0142109D01*
X0387023Y0141956D01*
X0386903Y0141805D01*
X0386778Y0141657D01*
X0386650Y0141512D01*
X0386519Y0141371D01*
X0386384Y0141232D01*
X0386245Y0141097D01*
X0386104Y0140966D01*
X0385959Y0140838D01*
X0385811Y0140713D01*
X0385660Y0140593D01*
X0385507Y0140476D01*
X0385350Y0140362D01*
X0385191Y0140253D01*
X0385029Y0140148D01*
X0384864Y0140046D01*
X0384697Y0139949D01*
X0384528Y0139856D01*
X0384356Y0139767D01*
X0384183Y0139682D01*
X0384007Y0139602D01*
X0383829Y0139525D01*
X0383650Y0139454D01*
X0383469Y0139386D01*
X0383286Y0139323D01*
X0383102Y0139265D01*
X0382916Y0139211D01*
X0382729Y0139162D01*
X0382541Y0139117D01*
X0382352Y0139077D01*
X0382162Y0139042D01*
X0381971Y0139011D01*
X0381780Y0138985D01*
X0381588Y0138964D01*
X0381395Y0138947D01*
X0381202Y0138935D01*
X0381009Y0138928D01*
X0380816Y0138926D01*
X0380623Y0138928D01*
X0380430Y0138935D01*
X0380237Y0138947D01*
X0380044Y0138964D01*
X0379852Y0138985D01*
X0379661Y0139011D01*
X0379470Y0139042D01*
X0379280Y0139077D01*
X0379091Y0139117D01*
X0378903Y0139162D01*
X0378716Y0139211D01*
X0378530Y0139265D01*
X0378346Y0139323D01*
X0378163Y0139386D01*
X0377982Y0139454D01*
X0377803Y0139525D01*
X0377625Y0139602D01*
X0377449Y0139682D01*
X0377276Y0139767D01*
X0377104Y0139856D01*
X0376935Y0139949D01*
X0376768Y0140046D01*
X0376603Y0140148D01*
X0376441Y0140253D01*
X0376282Y0140362D01*
X0376125Y0140476D01*
X0375972Y0140593D01*
X0375821Y0140713D01*
X0375673Y0140838D01*
X0375528Y0140966D01*
X0375387Y0141097D01*
X0375248Y0141232D01*
X0375113Y0141371D01*
X0374982Y0141512D01*
X0374854Y0141657D01*
X0374729Y0141805D01*
X0374609Y0141956D01*
X0374492Y0142109D01*
X0374378Y0142266D01*
X0374269Y0142425D01*
X0374164Y0142587D01*
X0374062Y0142752D01*
X0373965Y0142919D01*
X0373872Y0143088D01*
X0373783Y0143260D01*
X0373698Y0143433D01*
X0373618Y0143609D01*
X0373541Y0143787D01*
X0373470Y0143966D01*
X0373402Y0144147D01*
X0373339Y0144330D01*
X0373281Y0144514D01*
X0373227Y0144700D01*
X0373178Y0144887D01*
X0373133Y0145075D01*
X0373093Y0145264D01*
X0373058Y0145454D01*
X0373027Y0145645D01*
X0373001Y0145836D01*
X0372980Y0146028D01*
X0372963Y0146221D01*
X0372951Y0146414D01*
X0372944Y0146607D01*
X0372942Y0146800D01*
D11*
X0301300Y0097800D02*
X0301800Y0086300D01*
X0301300Y0097800D02*
X0300300Y0098800D01*
X0263300Y0098800D01*
X0262300Y0097800D01*
X0261800Y0086300D01*
X0242981Y0084162D02*
X0240619Y0084162D01*
X0240619Y0079438D02*
X0242981Y0079438D01*
X0219162Y0077981D02*
X0219162Y0075619D01*
X0214438Y0075619D02*
X0214438Y0077981D01*
X0159162Y0080619D02*
X0159162Y0082981D01*
X0154438Y0082981D02*
X0154438Y0080619D01*
X0104162Y0080619D02*
X0104162Y0082981D01*
X0099438Y0082981D02*
X0099438Y0080619D01*
X0101800Y0096300D02*
X0101300Y0107800D01*
X0100300Y0108800D01*
X0063300Y0108800D01*
X0062300Y0107800D01*
X0061800Y0096300D01*
X0065619Y0079162D02*
X0067981Y0079162D01*
X0067981Y0074438D02*
X0065619Y0074438D01*
X0084438Y0032981D02*
X0084438Y0030619D01*
X0089162Y0030619D02*
X0089162Y0032981D01*
X0225619Y0024162D02*
X0227981Y0024162D01*
X0227981Y0019438D02*
X0225619Y0019438D01*
X0319438Y0080619D02*
X0319438Y0082981D01*
X0324162Y0082981D02*
X0324162Y0080619D01*
X0299162Y0115619D02*
X0299162Y0117981D01*
X0294438Y0117981D02*
X0294438Y0115619D01*
X0294438Y0140619D02*
X0294438Y0142981D01*
X0299162Y0142981D02*
X0299162Y0140619D01*
D12*
X0300100Y0140698D02*
X0301600Y0140698D01*
X0301267Y0140282D01*
X0301600Y0139267D02*
X0301598Y0139307D01*
X0301592Y0139346D01*
X0301583Y0139384D01*
X0301570Y0139422D01*
X0301554Y0139458D01*
X0301534Y0139492D01*
X0301511Y0139525D01*
X0301485Y0139555D01*
X0301456Y0139582D01*
X0301425Y0139607D01*
X0301392Y0139628D01*
X0301356Y0139646D01*
X0301319Y0139661D01*
X0301281Y0139672D01*
X0301242Y0139680D01*
X0301203Y0139684D01*
X0301163Y0139684D01*
X0301124Y0139680D01*
X0301085Y0139672D01*
X0301047Y0139661D01*
X0301010Y0139646D01*
X0300975Y0139628D01*
X0300941Y0139607D01*
X0300910Y0139582D01*
X0300881Y0139555D01*
X0300855Y0139525D01*
X0300832Y0139492D01*
X0300812Y0139458D01*
X0300796Y0139422D01*
X0300783Y0139384D01*
X0300774Y0139346D01*
X0300768Y0139307D01*
X0300766Y0139267D01*
X0300767Y0139267D02*
X0300767Y0138850D01*
X0300767Y0139350D02*
X0300100Y0139683D01*
X0300100Y0140282D02*
X0300100Y0141115D01*
X0300100Y0141722D02*
X0300100Y0142555D01*
X0300100Y0141722D02*
X0300933Y0142430D01*
X0301600Y0142180D02*
X0301598Y0142140D01*
X0301593Y0142100D01*
X0301585Y0142060D01*
X0301573Y0142021D01*
X0301558Y0141984D01*
X0301540Y0141948D01*
X0301519Y0141913D01*
X0301496Y0141880D01*
X0301469Y0141850D01*
X0301440Y0141822D01*
X0301409Y0141796D01*
X0301376Y0141773D01*
X0301341Y0141753D01*
X0301304Y0141735D01*
X0301266Y0141721D01*
X0300933Y0142430D02*
X0300959Y0142455D01*
X0300988Y0142478D01*
X0301018Y0142498D01*
X0301050Y0142515D01*
X0301083Y0142529D01*
X0301118Y0142540D01*
X0301153Y0142548D01*
X0301189Y0142553D01*
X0301225Y0142555D01*
X0301262Y0142553D01*
X0301298Y0142548D01*
X0301334Y0142539D01*
X0301369Y0142526D01*
X0301402Y0142511D01*
X0301433Y0142492D01*
X0301463Y0142470D01*
X0301490Y0142445D01*
X0301515Y0142418D01*
X0301537Y0142388D01*
X0301556Y0142357D01*
X0301571Y0142324D01*
X0301584Y0142289D01*
X0301593Y0142253D01*
X0301598Y0142217D01*
X0301600Y0142180D01*
X0301600Y0139267D02*
X0301600Y0138850D01*
X0300100Y0138850D01*
X0300933Y0117222D02*
X0300933Y0116888D01*
X0300934Y0117222D02*
X0300936Y0117257D01*
X0300941Y0117291D01*
X0300950Y0117325D01*
X0300963Y0117357D01*
X0300979Y0117389D01*
X0300998Y0117418D01*
X0301020Y0117445D01*
X0301044Y0117469D01*
X0301071Y0117491D01*
X0301101Y0117510D01*
X0301132Y0117526D01*
X0301164Y0117539D01*
X0301198Y0117548D01*
X0301232Y0117553D01*
X0301267Y0117555D01*
X0301302Y0117553D01*
X0301336Y0117548D01*
X0301370Y0117539D01*
X0301402Y0117526D01*
X0301434Y0117510D01*
X0301463Y0117491D01*
X0301490Y0117469D01*
X0301514Y0117445D01*
X0301536Y0117418D01*
X0301555Y0117389D01*
X0301571Y0117357D01*
X0301584Y0117325D01*
X0301593Y0117291D01*
X0301598Y0117257D01*
X0301600Y0117222D01*
X0301600Y0116722D01*
X0301600Y0115698D02*
X0300100Y0115698D01*
X0300100Y0115282D02*
X0300100Y0116115D01*
X0300100Y0116722D02*
X0300100Y0117138D01*
X0300102Y0117178D01*
X0300108Y0117217D01*
X0300117Y0117255D01*
X0300130Y0117293D01*
X0300146Y0117329D01*
X0300166Y0117363D01*
X0300189Y0117396D01*
X0300215Y0117426D01*
X0300244Y0117453D01*
X0300275Y0117478D01*
X0300309Y0117499D01*
X0300344Y0117517D01*
X0300381Y0117532D01*
X0300419Y0117543D01*
X0300458Y0117551D01*
X0300497Y0117555D01*
X0300537Y0117555D01*
X0300576Y0117551D01*
X0300615Y0117543D01*
X0300653Y0117532D01*
X0300690Y0117517D01*
X0300726Y0117499D01*
X0300759Y0117478D01*
X0300790Y0117453D01*
X0300819Y0117426D01*
X0300845Y0117396D01*
X0300868Y0117363D01*
X0300888Y0117329D01*
X0300904Y0117293D01*
X0300917Y0117255D01*
X0300926Y0117217D01*
X0300932Y0117178D01*
X0300934Y0117138D01*
X0301600Y0115698D02*
X0301267Y0115282D01*
X0301600Y0114267D02*
X0301598Y0114307D01*
X0301592Y0114346D01*
X0301583Y0114384D01*
X0301570Y0114422D01*
X0301554Y0114458D01*
X0301534Y0114492D01*
X0301511Y0114525D01*
X0301485Y0114555D01*
X0301456Y0114582D01*
X0301425Y0114607D01*
X0301392Y0114628D01*
X0301356Y0114646D01*
X0301319Y0114661D01*
X0301281Y0114672D01*
X0301242Y0114680D01*
X0301203Y0114684D01*
X0301163Y0114684D01*
X0301124Y0114680D01*
X0301085Y0114672D01*
X0301047Y0114661D01*
X0301010Y0114646D01*
X0300975Y0114628D01*
X0300941Y0114607D01*
X0300910Y0114582D01*
X0300881Y0114555D01*
X0300855Y0114525D01*
X0300832Y0114492D01*
X0300812Y0114458D01*
X0300796Y0114422D01*
X0300783Y0114384D01*
X0300774Y0114346D01*
X0300768Y0114307D01*
X0300766Y0114267D01*
X0300767Y0114267D02*
X0300767Y0113850D01*
X0300767Y0114350D02*
X0300100Y0114683D01*
X0300100Y0113850D02*
X0301600Y0113850D01*
X0301600Y0114267D01*
X0325100Y0080698D02*
X0326600Y0081115D01*
X0326600Y0080282D01*
X0326433Y0080282D01*
X0326600Y0079267D02*
X0326600Y0078850D01*
X0325100Y0078850D01*
X0325767Y0078850D02*
X0325767Y0079267D01*
X0325767Y0079350D02*
X0325100Y0079683D01*
X0325766Y0079267D02*
X0325768Y0079307D01*
X0325774Y0079346D01*
X0325783Y0079384D01*
X0325796Y0079422D01*
X0325812Y0079458D01*
X0325832Y0079492D01*
X0325855Y0079525D01*
X0325881Y0079555D01*
X0325910Y0079582D01*
X0325941Y0079607D01*
X0325975Y0079628D01*
X0326010Y0079646D01*
X0326047Y0079661D01*
X0326085Y0079672D01*
X0326124Y0079680D01*
X0326163Y0079684D01*
X0326203Y0079684D01*
X0326242Y0079680D01*
X0326281Y0079672D01*
X0326319Y0079661D01*
X0326356Y0079646D01*
X0326392Y0079628D01*
X0326425Y0079607D01*
X0326456Y0079582D01*
X0326485Y0079555D01*
X0326511Y0079525D01*
X0326534Y0079492D01*
X0326554Y0079458D01*
X0326570Y0079422D01*
X0326583Y0079384D01*
X0326592Y0079346D01*
X0326598Y0079307D01*
X0326600Y0079267D01*
X0290250Y0050375D02*
X0290248Y0050412D01*
X0290243Y0050448D01*
X0290234Y0050484D01*
X0290221Y0050519D01*
X0290206Y0050552D01*
X0290187Y0050583D01*
X0290165Y0050613D01*
X0290140Y0050640D01*
X0290113Y0050665D01*
X0290083Y0050687D01*
X0290052Y0050706D01*
X0290019Y0050721D01*
X0289984Y0050734D01*
X0289948Y0050743D01*
X0289912Y0050748D01*
X0289875Y0050750D01*
X0289583Y0050625D02*
X0288750Y0049917D01*
X0288750Y0050750D01*
X0289916Y0049916D02*
X0289954Y0049930D01*
X0289991Y0049948D01*
X0290026Y0049968D01*
X0290059Y0049991D01*
X0290090Y0050017D01*
X0290119Y0050045D01*
X0290146Y0050075D01*
X0290169Y0050108D01*
X0290190Y0050143D01*
X0290208Y0050179D01*
X0290223Y0050216D01*
X0290235Y0050255D01*
X0290243Y0050295D01*
X0290248Y0050335D01*
X0290250Y0050375D01*
X0289875Y0050750D02*
X0289839Y0050748D01*
X0289803Y0050743D01*
X0289768Y0050735D01*
X0289733Y0050724D01*
X0289700Y0050710D01*
X0289668Y0050693D01*
X0289638Y0050673D01*
X0289609Y0050650D01*
X0289583Y0050625D01*
X0289583Y0048977D02*
X0289583Y0048643D01*
X0289584Y0048977D02*
X0289586Y0049012D01*
X0289591Y0049046D01*
X0289600Y0049080D01*
X0289613Y0049112D01*
X0289629Y0049144D01*
X0289648Y0049173D01*
X0289670Y0049200D01*
X0289694Y0049224D01*
X0289721Y0049246D01*
X0289751Y0049265D01*
X0289782Y0049281D01*
X0289814Y0049294D01*
X0289848Y0049303D01*
X0289882Y0049308D01*
X0289917Y0049310D01*
X0289952Y0049308D01*
X0289986Y0049303D01*
X0290020Y0049294D01*
X0290052Y0049281D01*
X0290084Y0049265D01*
X0290113Y0049246D01*
X0290140Y0049224D01*
X0290164Y0049200D01*
X0290186Y0049173D01*
X0290205Y0049144D01*
X0290221Y0049112D01*
X0290234Y0049080D01*
X0290243Y0049046D01*
X0290248Y0049012D01*
X0290250Y0048977D01*
X0290250Y0048477D01*
X0289833Y0047822D02*
X0289167Y0047822D01*
X0289129Y0047820D01*
X0289090Y0047815D01*
X0289053Y0047806D01*
X0289016Y0047794D01*
X0288981Y0047778D01*
X0288947Y0047760D01*
X0288916Y0047738D01*
X0288886Y0047713D01*
X0288859Y0047686D01*
X0288834Y0047656D01*
X0288812Y0047625D01*
X0288794Y0047591D01*
X0288778Y0047556D01*
X0288766Y0047519D01*
X0288757Y0047482D01*
X0288752Y0047443D01*
X0288750Y0047405D01*
X0288750Y0046989D01*
X0290250Y0046989D01*
X0290250Y0047405D01*
X0290248Y0047443D01*
X0290243Y0047482D01*
X0290234Y0047519D01*
X0290222Y0047556D01*
X0290206Y0047591D01*
X0290188Y0047625D01*
X0290166Y0047656D01*
X0290141Y0047686D01*
X0290114Y0047713D01*
X0290084Y0047738D01*
X0290053Y0047760D01*
X0290019Y0047778D01*
X0289984Y0047794D01*
X0289947Y0047806D01*
X0289910Y0047815D01*
X0289871Y0047820D01*
X0289833Y0047822D01*
X0289584Y0048893D02*
X0289582Y0048933D01*
X0289576Y0048972D01*
X0289567Y0049010D01*
X0289554Y0049048D01*
X0289538Y0049084D01*
X0289518Y0049118D01*
X0289495Y0049151D01*
X0289469Y0049181D01*
X0289440Y0049208D01*
X0289409Y0049233D01*
X0289376Y0049254D01*
X0289340Y0049272D01*
X0289303Y0049287D01*
X0289265Y0049298D01*
X0289226Y0049306D01*
X0289187Y0049310D01*
X0289147Y0049310D01*
X0289108Y0049306D01*
X0289069Y0049298D01*
X0289031Y0049287D01*
X0288994Y0049272D01*
X0288959Y0049254D01*
X0288925Y0049233D01*
X0288894Y0049208D01*
X0288865Y0049181D01*
X0288839Y0049151D01*
X0288816Y0049118D01*
X0288796Y0049084D01*
X0288780Y0049048D01*
X0288767Y0049010D01*
X0288758Y0048972D01*
X0288752Y0048933D01*
X0288750Y0048893D01*
X0288750Y0048477D01*
X0244750Y0085100D02*
X0244750Y0086600D01*
X0244333Y0086600D01*
X0244293Y0086598D01*
X0244254Y0086592D01*
X0244216Y0086583D01*
X0244178Y0086570D01*
X0244142Y0086554D01*
X0244108Y0086534D01*
X0244075Y0086511D01*
X0244045Y0086485D01*
X0244018Y0086456D01*
X0243993Y0086425D01*
X0243972Y0086392D01*
X0243954Y0086356D01*
X0243939Y0086319D01*
X0243928Y0086281D01*
X0243920Y0086242D01*
X0243916Y0086203D01*
X0243916Y0086163D01*
X0243920Y0086124D01*
X0243928Y0086085D01*
X0243939Y0086047D01*
X0243954Y0086010D01*
X0243972Y0085975D01*
X0243993Y0085941D01*
X0244018Y0085910D01*
X0244045Y0085881D01*
X0244075Y0085855D01*
X0244108Y0085832D01*
X0244142Y0085812D01*
X0244178Y0085796D01*
X0244216Y0085783D01*
X0244254Y0085774D01*
X0244293Y0085768D01*
X0244333Y0085766D01*
X0244333Y0085767D02*
X0244750Y0085767D01*
X0244250Y0085767D02*
X0243917Y0085100D01*
X0243318Y0085100D02*
X0242485Y0085100D01*
X0242902Y0085100D02*
X0242902Y0086600D01*
X0243318Y0086267D01*
X0241878Y0085433D02*
X0241545Y0086600D01*
X0241295Y0085767D02*
X0241295Y0085100D01*
X0241045Y0085433D02*
X0241878Y0085433D01*
X0221600Y0077138D02*
X0220100Y0077138D01*
X0220100Y0076722D02*
X0220100Y0077555D01*
X0221267Y0076722D02*
X0221600Y0077138D01*
X0221600Y0075698D02*
X0220100Y0075698D01*
X0220100Y0075282D02*
X0220100Y0076115D01*
X0220100Y0074683D02*
X0220767Y0074350D01*
X0220767Y0074267D02*
X0220767Y0073850D01*
X0220766Y0074267D02*
X0220768Y0074307D01*
X0220774Y0074346D01*
X0220783Y0074384D01*
X0220796Y0074422D01*
X0220812Y0074458D01*
X0220832Y0074492D01*
X0220855Y0074525D01*
X0220881Y0074555D01*
X0220910Y0074582D01*
X0220941Y0074607D01*
X0220975Y0074628D01*
X0221010Y0074646D01*
X0221047Y0074661D01*
X0221085Y0074672D01*
X0221124Y0074680D01*
X0221163Y0074684D01*
X0221203Y0074684D01*
X0221242Y0074680D01*
X0221281Y0074672D01*
X0221319Y0074661D01*
X0221356Y0074646D01*
X0221392Y0074628D01*
X0221425Y0074607D01*
X0221456Y0074582D01*
X0221485Y0074555D01*
X0221511Y0074525D01*
X0221534Y0074492D01*
X0221554Y0074458D01*
X0221570Y0074422D01*
X0221583Y0074384D01*
X0221592Y0074346D01*
X0221598Y0074307D01*
X0221600Y0074267D01*
X0221600Y0073850D01*
X0220100Y0073850D01*
X0221267Y0075282D02*
X0221600Y0075698D01*
X0227667Y0060250D02*
X0227627Y0060248D01*
X0227588Y0060242D01*
X0227550Y0060233D01*
X0227512Y0060220D01*
X0227476Y0060204D01*
X0227442Y0060184D01*
X0227409Y0060161D01*
X0227379Y0060135D01*
X0227352Y0060106D01*
X0227327Y0060075D01*
X0227306Y0060042D01*
X0227288Y0060006D01*
X0227273Y0059969D01*
X0227262Y0059931D01*
X0227254Y0059892D01*
X0227250Y0059853D01*
X0227250Y0059813D01*
X0227254Y0059774D01*
X0227262Y0059735D01*
X0227273Y0059697D01*
X0227288Y0059660D01*
X0227306Y0059625D01*
X0227327Y0059591D01*
X0227352Y0059560D01*
X0227379Y0059531D01*
X0227409Y0059505D01*
X0227442Y0059482D01*
X0227476Y0059462D01*
X0227512Y0059446D01*
X0227550Y0059433D01*
X0227588Y0059424D01*
X0227627Y0059418D01*
X0227667Y0059416D01*
X0227707Y0059418D01*
X0227746Y0059424D01*
X0227784Y0059433D01*
X0227822Y0059446D01*
X0227858Y0059462D01*
X0227892Y0059482D01*
X0227925Y0059505D01*
X0227955Y0059531D01*
X0227982Y0059560D01*
X0228007Y0059591D01*
X0228028Y0059625D01*
X0228046Y0059660D01*
X0228061Y0059697D01*
X0228072Y0059735D01*
X0228080Y0059774D01*
X0228084Y0059813D01*
X0228084Y0059853D01*
X0228080Y0059892D01*
X0228072Y0059931D01*
X0228061Y0059969D01*
X0228046Y0060006D01*
X0228028Y0060042D01*
X0228007Y0060075D01*
X0227982Y0060106D01*
X0227955Y0060135D01*
X0227925Y0060161D01*
X0227892Y0060184D01*
X0227858Y0060204D01*
X0227822Y0060220D01*
X0227784Y0060233D01*
X0227746Y0060242D01*
X0227707Y0060248D01*
X0227667Y0060250D01*
X0228417Y0060166D02*
X0228382Y0060164D01*
X0228348Y0060159D01*
X0228314Y0060150D01*
X0228282Y0060137D01*
X0228251Y0060121D01*
X0228221Y0060102D01*
X0228194Y0060080D01*
X0228170Y0060056D01*
X0228148Y0060029D01*
X0228129Y0060000D01*
X0228113Y0059968D01*
X0228100Y0059936D01*
X0228091Y0059902D01*
X0228086Y0059868D01*
X0228084Y0059833D01*
X0228086Y0059798D01*
X0228091Y0059764D01*
X0228100Y0059730D01*
X0228113Y0059698D01*
X0228129Y0059667D01*
X0228148Y0059637D01*
X0228170Y0059610D01*
X0228194Y0059586D01*
X0228221Y0059564D01*
X0228251Y0059545D01*
X0228282Y0059529D01*
X0228314Y0059516D01*
X0228348Y0059507D01*
X0228382Y0059502D01*
X0228417Y0059500D01*
X0228452Y0059502D01*
X0228486Y0059507D01*
X0228520Y0059516D01*
X0228552Y0059529D01*
X0228584Y0059545D01*
X0228613Y0059564D01*
X0228640Y0059586D01*
X0228664Y0059610D01*
X0228686Y0059637D01*
X0228705Y0059667D01*
X0228721Y0059698D01*
X0228734Y0059730D01*
X0228743Y0059764D01*
X0228748Y0059798D01*
X0228750Y0059833D01*
X0228748Y0059868D01*
X0228743Y0059902D01*
X0228734Y0059936D01*
X0228721Y0059968D01*
X0228705Y0060000D01*
X0228686Y0060029D01*
X0228664Y0060056D01*
X0228640Y0060080D01*
X0228613Y0060102D01*
X0228584Y0060121D01*
X0228552Y0060137D01*
X0228520Y0060150D01*
X0228486Y0060159D01*
X0228452Y0060164D01*
X0228417Y0060166D01*
X0228750Y0058880D02*
X0228750Y0058546D01*
X0228748Y0058511D01*
X0228743Y0058477D01*
X0228734Y0058443D01*
X0228721Y0058411D01*
X0228705Y0058379D01*
X0228686Y0058350D01*
X0228664Y0058323D01*
X0228640Y0058299D01*
X0228613Y0058277D01*
X0228583Y0058258D01*
X0228552Y0058242D01*
X0228520Y0058229D01*
X0228486Y0058220D01*
X0228452Y0058215D01*
X0228417Y0058213D01*
X0227583Y0058213D01*
X0227548Y0058215D01*
X0227514Y0058220D01*
X0227480Y0058229D01*
X0227448Y0058242D01*
X0227417Y0058258D01*
X0227387Y0058277D01*
X0227360Y0058299D01*
X0227336Y0058323D01*
X0227314Y0058350D01*
X0227295Y0058380D01*
X0227279Y0058411D01*
X0227266Y0058443D01*
X0227257Y0058477D01*
X0227252Y0058511D01*
X0227250Y0058546D01*
X0227250Y0058880D01*
X0223350Y0041611D02*
X0223350Y0040778D01*
X0223350Y0041195D02*
X0224850Y0041195D01*
X0224517Y0040778D01*
X0224850Y0039838D02*
X0224848Y0039873D01*
X0224843Y0039907D01*
X0224834Y0039941D01*
X0224821Y0039973D01*
X0224805Y0040005D01*
X0224786Y0040034D01*
X0224764Y0040061D01*
X0224740Y0040085D01*
X0224713Y0040107D01*
X0224684Y0040126D01*
X0224652Y0040142D01*
X0224620Y0040155D01*
X0224586Y0040164D01*
X0224552Y0040169D01*
X0224517Y0040171D01*
X0224482Y0040169D01*
X0224448Y0040164D01*
X0224414Y0040155D01*
X0224382Y0040142D01*
X0224351Y0040126D01*
X0224321Y0040107D01*
X0224294Y0040085D01*
X0224270Y0040061D01*
X0224248Y0040034D01*
X0224229Y0040005D01*
X0224213Y0039973D01*
X0224200Y0039941D01*
X0224191Y0039907D01*
X0224186Y0039873D01*
X0224184Y0039838D01*
X0224183Y0039838D02*
X0224183Y0039505D01*
X0224184Y0039755D02*
X0224182Y0039795D01*
X0224176Y0039834D01*
X0224167Y0039872D01*
X0224154Y0039910D01*
X0224138Y0039946D01*
X0224118Y0039980D01*
X0224095Y0040013D01*
X0224069Y0040043D01*
X0224040Y0040070D01*
X0224009Y0040095D01*
X0223976Y0040116D01*
X0223940Y0040134D01*
X0223903Y0040149D01*
X0223865Y0040160D01*
X0223826Y0040168D01*
X0223787Y0040172D01*
X0223747Y0040172D01*
X0223708Y0040168D01*
X0223669Y0040160D01*
X0223631Y0040149D01*
X0223594Y0040134D01*
X0223559Y0040116D01*
X0223525Y0040095D01*
X0223494Y0040070D01*
X0223465Y0040043D01*
X0223439Y0040013D01*
X0223416Y0039980D01*
X0223396Y0039946D01*
X0223380Y0039910D01*
X0223367Y0039872D01*
X0223358Y0039834D01*
X0223352Y0039795D01*
X0223350Y0039755D01*
X0223350Y0039338D01*
X0223767Y0038683D02*
X0224433Y0038683D01*
X0224433Y0038684D02*
X0224471Y0038682D01*
X0224510Y0038677D01*
X0224547Y0038668D01*
X0224584Y0038656D01*
X0224619Y0038640D01*
X0224653Y0038622D01*
X0224684Y0038600D01*
X0224714Y0038575D01*
X0224741Y0038548D01*
X0224766Y0038518D01*
X0224788Y0038487D01*
X0224806Y0038453D01*
X0224822Y0038418D01*
X0224834Y0038381D01*
X0224843Y0038344D01*
X0224848Y0038305D01*
X0224850Y0038267D01*
X0224850Y0037850D01*
X0223350Y0037850D01*
X0223350Y0038267D01*
X0223352Y0038305D01*
X0223357Y0038344D01*
X0223366Y0038381D01*
X0223378Y0038418D01*
X0223394Y0038453D01*
X0223412Y0038487D01*
X0223434Y0038518D01*
X0223459Y0038548D01*
X0223486Y0038575D01*
X0223516Y0038600D01*
X0223547Y0038622D01*
X0223581Y0038640D01*
X0223616Y0038656D01*
X0223653Y0038668D01*
X0223690Y0038677D01*
X0223729Y0038682D01*
X0223767Y0038684D01*
X0224850Y0039338D02*
X0224850Y0039838D01*
X0227713Y0026600D02*
X0228130Y0025100D01*
X0229083Y0025100D02*
X0229417Y0025100D01*
X0229452Y0025102D01*
X0229486Y0025107D01*
X0229520Y0025116D01*
X0229552Y0025129D01*
X0229584Y0025145D01*
X0229613Y0025164D01*
X0229640Y0025186D01*
X0229664Y0025210D01*
X0229686Y0025237D01*
X0229705Y0025267D01*
X0229721Y0025298D01*
X0229734Y0025330D01*
X0229743Y0025364D01*
X0229748Y0025398D01*
X0229750Y0025433D01*
X0229750Y0026267D01*
X0229748Y0026302D01*
X0229743Y0026336D01*
X0229734Y0026370D01*
X0229721Y0026402D01*
X0229705Y0026433D01*
X0229686Y0026463D01*
X0229664Y0026490D01*
X0229640Y0026514D01*
X0229613Y0026536D01*
X0229584Y0026555D01*
X0229552Y0026571D01*
X0229520Y0026584D01*
X0229486Y0026593D01*
X0229452Y0026598D01*
X0229417Y0026600D01*
X0229083Y0026600D01*
X0228546Y0026600D02*
X0227713Y0026600D01*
X0228546Y0026600D02*
X0228546Y0026433D01*
X0153500Y0082485D02*
X0153500Y0082902D01*
X0153498Y0082942D01*
X0153492Y0082981D01*
X0153483Y0083019D01*
X0153470Y0083057D01*
X0153454Y0083093D01*
X0153434Y0083127D01*
X0153411Y0083160D01*
X0153385Y0083190D01*
X0153356Y0083217D01*
X0153325Y0083242D01*
X0153292Y0083263D01*
X0153256Y0083281D01*
X0153219Y0083296D01*
X0153181Y0083307D01*
X0153142Y0083315D01*
X0153103Y0083319D01*
X0153063Y0083319D01*
X0153024Y0083315D01*
X0152985Y0083307D01*
X0152947Y0083296D01*
X0152910Y0083281D01*
X0152875Y0083263D01*
X0152841Y0083242D01*
X0152810Y0083217D01*
X0152781Y0083190D01*
X0152755Y0083160D01*
X0152732Y0083127D01*
X0152712Y0083093D01*
X0152696Y0083057D01*
X0152683Y0083019D01*
X0152674Y0082981D01*
X0152668Y0082942D01*
X0152666Y0082902D01*
X0152667Y0082902D02*
X0152667Y0082485D01*
X0152667Y0082985D02*
X0152000Y0083318D01*
X0152000Y0082485D02*
X0153500Y0082485D01*
X0153083Y0083917D02*
X0153000Y0083917D01*
X0152965Y0083919D01*
X0152931Y0083924D01*
X0152897Y0083933D01*
X0152865Y0083946D01*
X0152834Y0083962D01*
X0152804Y0083981D01*
X0152777Y0084003D01*
X0152753Y0084027D01*
X0152731Y0084054D01*
X0152712Y0084084D01*
X0152696Y0084115D01*
X0152683Y0084147D01*
X0152674Y0084181D01*
X0152669Y0084215D01*
X0152667Y0084250D01*
X0152667Y0084750D01*
X0153083Y0084750D01*
X0153123Y0084748D01*
X0153162Y0084742D01*
X0153200Y0084733D01*
X0153238Y0084720D01*
X0153274Y0084704D01*
X0153308Y0084684D01*
X0153341Y0084661D01*
X0153371Y0084635D01*
X0153398Y0084606D01*
X0153423Y0084575D01*
X0153444Y0084542D01*
X0153462Y0084506D01*
X0153477Y0084469D01*
X0153488Y0084431D01*
X0153496Y0084392D01*
X0153500Y0084353D01*
X0153500Y0084313D01*
X0153496Y0084274D01*
X0153488Y0084235D01*
X0153477Y0084197D01*
X0153462Y0084160D01*
X0153444Y0084125D01*
X0153423Y0084091D01*
X0153398Y0084060D01*
X0153371Y0084031D01*
X0153341Y0084005D01*
X0153308Y0083982D01*
X0153274Y0083962D01*
X0153238Y0083946D01*
X0153200Y0083933D01*
X0153162Y0083924D01*
X0153123Y0083918D01*
X0153083Y0083916D01*
X0152667Y0084750D02*
X0152617Y0084748D01*
X0152568Y0084743D01*
X0152519Y0084733D01*
X0152470Y0084720D01*
X0152423Y0084704D01*
X0152378Y0084684D01*
X0152334Y0084661D01*
X0152291Y0084634D01*
X0152251Y0084604D01*
X0152213Y0084572D01*
X0152178Y0084537D01*
X0152146Y0084499D01*
X0152116Y0084459D01*
X0152089Y0084417D01*
X0152066Y0084372D01*
X0152046Y0084327D01*
X0152030Y0084280D01*
X0152017Y0084231D01*
X0152007Y0084182D01*
X0152002Y0084133D01*
X0152000Y0084083D01*
X0148958Y0060042D02*
X0149015Y0060016D01*
X0149073Y0059993D01*
X0149132Y0059973D01*
X0149192Y0059956D01*
X0149253Y0059942D01*
X0149314Y0059931D01*
X0149376Y0059923D01*
X0149438Y0059919D01*
X0149500Y0059917D01*
X0149500Y0060750D02*
X0149562Y0060748D01*
X0149624Y0060744D01*
X0149686Y0060736D01*
X0149747Y0060725D01*
X0149808Y0060711D01*
X0149868Y0060694D01*
X0149927Y0060674D01*
X0149985Y0060651D01*
X0150042Y0060625D01*
X0149917Y0060667D02*
X0149083Y0060000D01*
X0148750Y0060333D02*
X0148752Y0060365D01*
X0148757Y0060396D01*
X0148765Y0060427D01*
X0148776Y0060457D01*
X0148790Y0060485D01*
X0148807Y0060512D01*
X0148827Y0060537D01*
X0148849Y0060560D01*
X0148874Y0060580D01*
X0148900Y0060598D01*
X0148929Y0060612D01*
X0148958Y0060624D01*
X0148750Y0060333D02*
X0148752Y0060301D01*
X0148757Y0060270D01*
X0148765Y0060239D01*
X0148776Y0060209D01*
X0148790Y0060181D01*
X0148807Y0060154D01*
X0148827Y0060129D01*
X0148849Y0060106D01*
X0148874Y0060086D01*
X0148900Y0060068D01*
X0148929Y0060054D01*
X0148958Y0060042D01*
X0148958Y0060625D02*
X0149015Y0060651D01*
X0149073Y0060674D01*
X0149132Y0060694D01*
X0149192Y0060711D01*
X0149253Y0060725D01*
X0149314Y0060736D01*
X0149376Y0060744D01*
X0149438Y0060748D01*
X0149500Y0060750D01*
X0149500Y0059917D02*
X0149562Y0059919D01*
X0149624Y0059923D01*
X0149686Y0059931D01*
X0149747Y0059942D01*
X0149808Y0059956D01*
X0149868Y0059973D01*
X0149927Y0059993D01*
X0149985Y0060016D01*
X0150042Y0060042D01*
X0150250Y0060333D02*
X0150248Y0060365D01*
X0150243Y0060396D01*
X0150235Y0060427D01*
X0150224Y0060457D01*
X0150210Y0060485D01*
X0150193Y0060512D01*
X0150173Y0060537D01*
X0150151Y0060560D01*
X0150126Y0060580D01*
X0150100Y0060598D01*
X0150071Y0060612D01*
X0150042Y0060624D01*
X0150250Y0060333D02*
X0150248Y0060301D01*
X0150243Y0060270D01*
X0150235Y0060239D01*
X0150224Y0060209D01*
X0150210Y0060181D01*
X0150193Y0060154D01*
X0150173Y0060129D01*
X0150151Y0060106D01*
X0150126Y0060086D01*
X0150100Y0060068D01*
X0150071Y0060054D01*
X0150042Y0060042D01*
X0150250Y0058977D02*
X0150248Y0059012D01*
X0150243Y0059046D01*
X0150234Y0059080D01*
X0150221Y0059112D01*
X0150205Y0059144D01*
X0150186Y0059173D01*
X0150164Y0059200D01*
X0150140Y0059224D01*
X0150113Y0059246D01*
X0150084Y0059265D01*
X0150052Y0059281D01*
X0150020Y0059294D01*
X0149986Y0059303D01*
X0149952Y0059308D01*
X0149917Y0059310D01*
X0149882Y0059308D01*
X0149848Y0059303D01*
X0149814Y0059294D01*
X0149782Y0059281D01*
X0149751Y0059265D01*
X0149721Y0059246D01*
X0149694Y0059224D01*
X0149670Y0059200D01*
X0149648Y0059173D01*
X0149629Y0059144D01*
X0149613Y0059112D01*
X0149600Y0059080D01*
X0149591Y0059046D01*
X0149586Y0059012D01*
X0149584Y0058977D01*
X0149583Y0058977D02*
X0149583Y0058643D01*
X0149584Y0058893D02*
X0149582Y0058933D01*
X0149576Y0058972D01*
X0149567Y0059010D01*
X0149554Y0059048D01*
X0149538Y0059084D01*
X0149518Y0059118D01*
X0149495Y0059151D01*
X0149469Y0059181D01*
X0149440Y0059208D01*
X0149409Y0059233D01*
X0149376Y0059254D01*
X0149340Y0059272D01*
X0149303Y0059287D01*
X0149265Y0059298D01*
X0149226Y0059306D01*
X0149187Y0059310D01*
X0149147Y0059310D01*
X0149108Y0059306D01*
X0149069Y0059298D01*
X0149031Y0059287D01*
X0148994Y0059272D01*
X0148959Y0059254D01*
X0148925Y0059233D01*
X0148894Y0059208D01*
X0148865Y0059181D01*
X0148839Y0059151D01*
X0148816Y0059118D01*
X0148796Y0059084D01*
X0148780Y0059048D01*
X0148767Y0059010D01*
X0148758Y0058972D01*
X0148752Y0058933D01*
X0148750Y0058893D01*
X0148750Y0058477D01*
X0149167Y0057822D02*
X0149833Y0057822D01*
X0149871Y0057820D01*
X0149910Y0057815D01*
X0149947Y0057806D01*
X0149984Y0057794D01*
X0150019Y0057778D01*
X0150053Y0057760D01*
X0150084Y0057738D01*
X0150114Y0057713D01*
X0150141Y0057686D01*
X0150166Y0057656D01*
X0150188Y0057625D01*
X0150206Y0057591D01*
X0150222Y0057556D01*
X0150234Y0057519D01*
X0150243Y0057482D01*
X0150248Y0057443D01*
X0150250Y0057405D01*
X0150250Y0056989D01*
X0148750Y0056989D01*
X0148750Y0057405D01*
X0148752Y0057443D01*
X0148757Y0057482D01*
X0148766Y0057519D01*
X0148778Y0057556D01*
X0148794Y0057591D01*
X0148812Y0057625D01*
X0148834Y0057656D01*
X0148859Y0057686D01*
X0148886Y0057713D01*
X0148916Y0057738D01*
X0148947Y0057760D01*
X0148981Y0057778D01*
X0149016Y0057794D01*
X0149053Y0057806D01*
X0149090Y0057815D01*
X0149129Y0057820D01*
X0149167Y0057822D01*
X0150250Y0058477D02*
X0150250Y0058977D01*
X0098500Y0081045D02*
X0098500Y0081462D01*
X0098498Y0081502D01*
X0098492Y0081541D01*
X0098483Y0081579D01*
X0098470Y0081617D01*
X0098454Y0081653D01*
X0098434Y0081687D01*
X0098411Y0081720D01*
X0098385Y0081750D01*
X0098356Y0081777D01*
X0098325Y0081802D01*
X0098292Y0081823D01*
X0098256Y0081841D01*
X0098219Y0081856D01*
X0098181Y0081867D01*
X0098142Y0081875D01*
X0098103Y0081879D01*
X0098063Y0081879D01*
X0098024Y0081875D01*
X0097985Y0081867D01*
X0097947Y0081856D01*
X0097910Y0081841D01*
X0097875Y0081823D01*
X0097841Y0081802D01*
X0097810Y0081777D01*
X0097781Y0081750D01*
X0097755Y0081720D01*
X0097732Y0081687D01*
X0097712Y0081653D01*
X0097696Y0081617D01*
X0097683Y0081579D01*
X0097674Y0081541D01*
X0097668Y0081502D01*
X0097666Y0081462D01*
X0097667Y0081462D02*
X0097667Y0081045D01*
X0097667Y0081545D02*
X0097000Y0081878D01*
X0097000Y0082477D02*
X0097000Y0083310D01*
X0097000Y0082893D02*
X0098500Y0082893D01*
X0098167Y0082477D01*
X0097750Y0084750D02*
X0097688Y0084748D01*
X0097626Y0084744D01*
X0097564Y0084736D01*
X0097503Y0084725D01*
X0097442Y0084711D01*
X0097382Y0084694D01*
X0097323Y0084674D01*
X0097265Y0084651D01*
X0097208Y0084625D01*
X0097208Y0084624D02*
X0097179Y0084612D01*
X0097150Y0084598D01*
X0097124Y0084580D01*
X0097099Y0084560D01*
X0097077Y0084537D01*
X0097057Y0084512D01*
X0097040Y0084485D01*
X0097026Y0084457D01*
X0097015Y0084427D01*
X0097007Y0084396D01*
X0097002Y0084365D01*
X0097000Y0084333D01*
X0097002Y0084301D01*
X0097007Y0084270D01*
X0097015Y0084239D01*
X0097026Y0084209D01*
X0097040Y0084181D01*
X0097057Y0084154D01*
X0097077Y0084129D01*
X0097099Y0084106D01*
X0097124Y0084086D01*
X0097150Y0084068D01*
X0097179Y0084054D01*
X0097208Y0084042D01*
X0097333Y0084000D02*
X0098167Y0084667D01*
X0098292Y0084624D02*
X0098321Y0084612D01*
X0098350Y0084598D01*
X0098376Y0084580D01*
X0098401Y0084560D01*
X0098423Y0084537D01*
X0098443Y0084512D01*
X0098460Y0084485D01*
X0098474Y0084457D01*
X0098485Y0084427D01*
X0098493Y0084396D01*
X0098498Y0084365D01*
X0098500Y0084333D01*
X0098498Y0084301D01*
X0098493Y0084270D01*
X0098485Y0084239D01*
X0098474Y0084209D01*
X0098460Y0084181D01*
X0098443Y0084154D01*
X0098423Y0084129D01*
X0098401Y0084106D01*
X0098376Y0084086D01*
X0098350Y0084068D01*
X0098321Y0084054D01*
X0098292Y0084042D01*
X0098292Y0084625D02*
X0098235Y0084651D01*
X0098177Y0084674D01*
X0098118Y0084694D01*
X0098058Y0084711D01*
X0097997Y0084725D01*
X0097936Y0084736D01*
X0097874Y0084744D01*
X0097812Y0084748D01*
X0097750Y0084750D01*
X0097750Y0083917D02*
X0097812Y0083919D01*
X0097874Y0083923D01*
X0097936Y0083931D01*
X0097997Y0083942D01*
X0098058Y0083956D01*
X0098118Y0083973D01*
X0098177Y0083993D01*
X0098235Y0084016D01*
X0098292Y0084042D01*
X0097750Y0083917D02*
X0097688Y0083919D01*
X0097626Y0083923D01*
X0097564Y0083931D01*
X0097503Y0083942D01*
X0097442Y0083956D01*
X0097382Y0083973D01*
X0097323Y0083993D01*
X0097265Y0084016D01*
X0097208Y0084042D01*
X0097000Y0081045D02*
X0098500Y0081045D01*
X0069750Y0080767D02*
X0069333Y0080767D01*
X0069250Y0080767D02*
X0068917Y0080100D01*
X0069750Y0080100D02*
X0069750Y0081600D01*
X0069333Y0081600D01*
X0069293Y0081598D01*
X0069254Y0081592D01*
X0069216Y0081583D01*
X0069178Y0081570D01*
X0069142Y0081554D01*
X0069108Y0081534D01*
X0069075Y0081511D01*
X0069045Y0081485D01*
X0069018Y0081456D01*
X0068993Y0081425D01*
X0068972Y0081392D01*
X0068954Y0081356D01*
X0068939Y0081319D01*
X0068928Y0081281D01*
X0068920Y0081242D01*
X0068916Y0081203D01*
X0068916Y0081163D01*
X0068920Y0081124D01*
X0068928Y0081085D01*
X0068939Y0081047D01*
X0068954Y0081010D01*
X0068972Y0080975D01*
X0068993Y0080941D01*
X0069018Y0080910D01*
X0069045Y0080881D01*
X0069075Y0080855D01*
X0069108Y0080832D01*
X0069142Y0080812D01*
X0069178Y0080796D01*
X0069216Y0080783D01*
X0069254Y0080774D01*
X0069293Y0080768D01*
X0069333Y0080766D01*
X0068319Y0080517D02*
X0068317Y0080477D01*
X0068311Y0080438D01*
X0068302Y0080400D01*
X0068289Y0080362D01*
X0068273Y0080326D01*
X0068253Y0080292D01*
X0068230Y0080259D01*
X0068204Y0080229D01*
X0068175Y0080202D01*
X0068144Y0080177D01*
X0068111Y0080156D01*
X0068075Y0080138D01*
X0068038Y0080123D01*
X0068000Y0080112D01*
X0067961Y0080104D01*
X0067922Y0080100D01*
X0067882Y0080100D01*
X0067843Y0080104D01*
X0067804Y0080112D01*
X0067766Y0080123D01*
X0067729Y0080138D01*
X0067694Y0080156D01*
X0067660Y0080177D01*
X0067629Y0080202D01*
X0067600Y0080229D01*
X0067574Y0080259D01*
X0067551Y0080292D01*
X0067531Y0080326D01*
X0067515Y0080362D01*
X0067502Y0080400D01*
X0067493Y0080438D01*
X0067487Y0080477D01*
X0067485Y0080517D01*
X0067487Y0080557D01*
X0067493Y0080596D01*
X0067502Y0080634D01*
X0067515Y0080672D01*
X0067531Y0080708D01*
X0067551Y0080742D01*
X0067574Y0080775D01*
X0067600Y0080805D01*
X0067629Y0080832D01*
X0067660Y0080857D01*
X0067694Y0080878D01*
X0067729Y0080896D01*
X0067766Y0080911D01*
X0067804Y0080922D01*
X0067843Y0080930D01*
X0067882Y0080934D01*
X0067922Y0080934D01*
X0067961Y0080930D01*
X0068000Y0080922D01*
X0068038Y0080911D01*
X0068075Y0080896D01*
X0068111Y0080878D01*
X0068144Y0080857D01*
X0068175Y0080832D01*
X0068204Y0080805D01*
X0068230Y0080775D01*
X0068253Y0080742D01*
X0068273Y0080708D01*
X0068289Y0080672D01*
X0068302Y0080634D01*
X0068311Y0080596D01*
X0068317Y0080557D01*
X0068319Y0080517D01*
X0068235Y0081267D02*
X0068233Y0081232D01*
X0068228Y0081198D01*
X0068219Y0081164D01*
X0068206Y0081132D01*
X0068190Y0081101D01*
X0068171Y0081071D01*
X0068149Y0081044D01*
X0068125Y0081020D01*
X0068098Y0080998D01*
X0068069Y0080979D01*
X0068037Y0080963D01*
X0068005Y0080950D01*
X0067971Y0080941D01*
X0067937Y0080936D01*
X0067902Y0080934D01*
X0067867Y0080936D01*
X0067833Y0080941D01*
X0067799Y0080950D01*
X0067767Y0080963D01*
X0067736Y0080979D01*
X0067706Y0080998D01*
X0067679Y0081020D01*
X0067655Y0081044D01*
X0067633Y0081071D01*
X0067614Y0081101D01*
X0067598Y0081132D01*
X0067585Y0081164D01*
X0067576Y0081198D01*
X0067571Y0081232D01*
X0067569Y0081267D01*
X0067571Y0081302D01*
X0067576Y0081336D01*
X0067585Y0081370D01*
X0067598Y0081402D01*
X0067614Y0081434D01*
X0067633Y0081463D01*
X0067655Y0081490D01*
X0067679Y0081514D01*
X0067706Y0081536D01*
X0067736Y0081555D01*
X0067767Y0081571D01*
X0067799Y0081584D01*
X0067833Y0081593D01*
X0067867Y0081598D01*
X0067902Y0081600D01*
X0067937Y0081598D01*
X0067971Y0081593D01*
X0068005Y0081584D01*
X0068037Y0081571D01*
X0068069Y0081555D01*
X0068098Y0081536D01*
X0068125Y0081514D01*
X0068149Y0081490D01*
X0068171Y0081463D01*
X0068190Y0081434D01*
X0068206Y0081402D01*
X0068219Y0081370D01*
X0068228Y0081336D01*
X0068233Y0081302D01*
X0068235Y0081267D01*
X0082667Y0055250D02*
X0082750Y0055250D01*
X0082785Y0055248D01*
X0082819Y0055243D01*
X0082853Y0055234D01*
X0082885Y0055221D01*
X0082917Y0055205D01*
X0082946Y0055186D01*
X0082973Y0055164D01*
X0082997Y0055140D01*
X0083019Y0055113D01*
X0083038Y0055084D01*
X0083054Y0055052D01*
X0083067Y0055020D01*
X0083076Y0054986D01*
X0083081Y0054952D01*
X0083083Y0054917D01*
X0083083Y0054417D01*
X0082667Y0054417D01*
X0082667Y0054416D02*
X0082627Y0054418D01*
X0082588Y0054424D01*
X0082550Y0054433D01*
X0082512Y0054446D01*
X0082476Y0054462D01*
X0082442Y0054482D01*
X0082409Y0054505D01*
X0082379Y0054531D01*
X0082352Y0054560D01*
X0082327Y0054591D01*
X0082306Y0054625D01*
X0082288Y0054660D01*
X0082273Y0054697D01*
X0082262Y0054735D01*
X0082254Y0054774D01*
X0082250Y0054813D01*
X0082250Y0054853D01*
X0082254Y0054892D01*
X0082262Y0054931D01*
X0082273Y0054969D01*
X0082288Y0055006D01*
X0082306Y0055042D01*
X0082327Y0055075D01*
X0082352Y0055106D01*
X0082379Y0055135D01*
X0082409Y0055161D01*
X0082442Y0055184D01*
X0082476Y0055204D01*
X0082512Y0055220D01*
X0082550Y0055233D01*
X0082588Y0055242D01*
X0082627Y0055248D01*
X0082667Y0055250D01*
X0083083Y0054416D02*
X0083133Y0054418D01*
X0083182Y0054423D01*
X0083231Y0054433D01*
X0083280Y0054446D01*
X0083327Y0054462D01*
X0083372Y0054482D01*
X0083416Y0054505D01*
X0083459Y0054532D01*
X0083499Y0054562D01*
X0083537Y0054594D01*
X0083572Y0054629D01*
X0083604Y0054667D01*
X0083634Y0054707D01*
X0083661Y0054749D01*
X0083684Y0054794D01*
X0083704Y0054839D01*
X0083720Y0054886D01*
X0083733Y0054935D01*
X0083743Y0054984D01*
X0083748Y0055033D01*
X0083750Y0055083D01*
X0083750Y0053880D02*
X0083750Y0053546D01*
X0083748Y0053511D01*
X0083743Y0053477D01*
X0083734Y0053443D01*
X0083721Y0053411D01*
X0083705Y0053379D01*
X0083686Y0053350D01*
X0083664Y0053323D01*
X0083640Y0053299D01*
X0083613Y0053277D01*
X0083583Y0053258D01*
X0083552Y0053242D01*
X0083520Y0053229D01*
X0083486Y0053220D01*
X0083452Y0053215D01*
X0083417Y0053213D01*
X0082583Y0053213D01*
X0082548Y0053215D01*
X0082514Y0053220D01*
X0082480Y0053229D01*
X0082448Y0053242D01*
X0082417Y0053258D01*
X0082387Y0053277D01*
X0082360Y0053299D01*
X0082336Y0053323D01*
X0082314Y0053350D01*
X0082295Y0053380D01*
X0082279Y0053411D01*
X0082266Y0053443D01*
X0082257Y0053477D01*
X0082252Y0053511D01*
X0082250Y0053546D01*
X0082250Y0053880D01*
X0074433Y0046611D02*
X0074017Y0046611D01*
X0074017Y0046111D01*
X0074017Y0046612D02*
X0073967Y0046610D01*
X0073918Y0046605D01*
X0073869Y0046595D01*
X0073820Y0046582D01*
X0073773Y0046566D01*
X0073728Y0046546D01*
X0073684Y0046523D01*
X0073641Y0046496D01*
X0073601Y0046466D01*
X0073563Y0046434D01*
X0073528Y0046399D01*
X0073496Y0046361D01*
X0073466Y0046321D01*
X0073439Y0046279D01*
X0073416Y0046234D01*
X0073396Y0046189D01*
X0073380Y0046142D01*
X0073367Y0046093D01*
X0073357Y0046044D01*
X0073352Y0045995D01*
X0073350Y0045945D01*
X0073350Y0045171D02*
X0073350Y0044338D01*
X0074183Y0045046D01*
X0074850Y0044796D02*
X0074848Y0044756D01*
X0074843Y0044716D01*
X0074835Y0044676D01*
X0074823Y0044637D01*
X0074808Y0044600D01*
X0074790Y0044564D01*
X0074769Y0044529D01*
X0074746Y0044496D01*
X0074719Y0044466D01*
X0074690Y0044438D01*
X0074659Y0044412D01*
X0074626Y0044389D01*
X0074591Y0044369D01*
X0074554Y0044351D01*
X0074516Y0044337D01*
X0074183Y0045047D02*
X0074209Y0045072D01*
X0074238Y0045095D01*
X0074268Y0045115D01*
X0074300Y0045132D01*
X0074333Y0045146D01*
X0074368Y0045157D01*
X0074403Y0045165D01*
X0074439Y0045170D01*
X0074475Y0045172D01*
X0074475Y0045171D02*
X0074512Y0045169D01*
X0074548Y0045164D01*
X0074584Y0045155D01*
X0074619Y0045142D01*
X0074652Y0045127D01*
X0074683Y0045108D01*
X0074713Y0045086D01*
X0074740Y0045061D01*
X0074765Y0045034D01*
X0074787Y0045004D01*
X0074806Y0044973D01*
X0074821Y0044940D01*
X0074834Y0044905D01*
X0074843Y0044869D01*
X0074848Y0044833D01*
X0074850Y0044796D01*
X0074433Y0045778D02*
X0074350Y0045778D01*
X0074315Y0045780D01*
X0074281Y0045785D01*
X0074247Y0045794D01*
X0074215Y0045807D01*
X0074184Y0045823D01*
X0074154Y0045842D01*
X0074127Y0045864D01*
X0074103Y0045888D01*
X0074081Y0045915D01*
X0074062Y0045945D01*
X0074046Y0045976D01*
X0074033Y0046008D01*
X0074024Y0046042D01*
X0074019Y0046076D01*
X0074017Y0046111D01*
X0074433Y0045778D02*
X0074473Y0045780D01*
X0074512Y0045786D01*
X0074550Y0045795D01*
X0074588Y0045808D01*
X0074624Y0045824D01*
X0074658Y0045844D01*
X0074691Y0045867D01*
X0074721Y0045893D01*
X0074748Y0045922D01*
X0074773Y0045953D01*
X0074794Y0045987D01*
X0074812Y0046022D01*
X0074827Y0046059D01*
X0074838Y0046097D01*
X0074846Y0046136D01*
X0074850Y0046175D01*
X0074850Y0046215D01*
X0074846Y0046254D01*
X0074838Y0046293D01*
X0074827Y0046331D01*
X0074812Y0046368D01*
X0074794Y0046404D01*
X0074773Y0046437D01*
X0074748Y0046468D01*
X0074721Y0046497D01*
X0074691Y0046523D01*
X0074658Y0046546D01*
X0074624Y0046566D01*
X0074588Y0046582D01*
X0074550Y0046595D01*
X0074512Y0046604D01*
X0074473Y0046610D01*
X0074433Y0046612D01*
X0074433Y0043683D02*
X0073767Y0043683D01*
X0073767Y0043684D02*
X0073729Y0043682D01*
X0073690Y0043677D01*
X0073653Y0043668D01*
X0073616Y0043656D01*
X0073581Y0043640D01*
X0073547Y0043622D01*
X0073516Y0043600D01*
X0073486Y0043575D01*
X0073459Y0043548D01*
X0073434Y0043518D01*
X0073412Y0043487D01*
X0073394Y0043453D01*
X0073378Y0043418D01*
X0073366Y0043381D01*
X0073357Y0043344D01*
X0073352Y0043305D01*
X0073350Y0043267D01*
X0073350Y0042850D01*
X0074850Y0042850D01*
X0074850Y0043267D01*
X0074848Y0043305D01*
X0074843Y0043344D01*
X0074834Y0043381D01*
X0074822Y0043418D01*
X0074806Y0043453D01*
X0074788Y0043487D01*
X0074766Y0043518D01*
X0074741Y0043548D01*
X0074714Y0043575D01*
X0074684Y0043600D01*
X0074653Y0043622D01*
X0074619Y0043640D01*
X0074584Y0043656D01*
X0074547Y0043668D01*
X0074510Y0043677D01*
X0074471Y0043682D01*
X0074433Y0043684D01*
X0082333Y0034750D02*
X0082500Y0034750D01*
X0082535Y0034748D01*
X0082569Y0034743D01*
X0082603Y0034734D01*
X0082635Y0034721D01*
X0082667Y0034705D01*
X0082696Y0034686D01*
X0082723Y0034664D01*
X0082747Y0034640D01*
X0082769Y0034613D01*
X0082788Y0034584D01*
X0082804Y0034552D01*
X0082817Y0034520D01*
X0082826Y0034486D01*
X0082831Y0034452D01*
X0082833Y0034417D01*
X0082833Y0033917D01*
X0083500Y0033917D01*
X0083500Y0034750D01*
X0082333Y0034750D02*
X0082298Y0034748D01*
X0082264Y0034743D01*
X0082230Y0034734D01*
X0082198Y0034721D01*
X0082167Y0034705D01*
X0082137Y0034686D01*
X0082110Y0034664D01*
X0082086Y0034640D01*
X0082064Y0034613D01*
X0082045Y0034584D01*
X0082029Y0034552D01*
X0082016Y0034520D01*
X0082007Y0034486D01*
X0082002Y0034452D01*
X0082000Y0034417D01*
X0082000Y0033917D01*
X0082000Y0033380D02*
X0082000Y0033046D01*
X0082002Y0033011D01*
X0082007Y0032977D01*
X0082016Y0032943D01*
X0082029Y0032911D01*
X0082045Y0032880D01*
X0082064Y0032850D01*
X0082086Y0032823D01*
X0082110Y0032799D01*
X0082137Y0032777D01*
X0082167Y0032758D01*
X0082198Y0032742D01*
X0082230Y0032729D01*
X0082264Y0032720D01*
X0082298Y0032715D01*
X0082333Y0032713D01*
X0083167Y0032713D01*
X0083202Y0032715D01*
X0083236Y0032720D01*
X0083270Y0032729D01*
X0083302Y0032742D01*
X0083333Y0032758D01*
X0083363Y0032777D01*
X0083390Y0032799D01*
X0083414Y0032823D01*
X0083436Y0032850D01*
X0083455Y0032879D01*
X0083471Y0032911D01*
X0083484Y0032943D01*
X0083493Y0032977D01*
X0083498Y0033011D01*
X0083500Y0033046D01*
X0083500Y0033380D01*
D13*
X0086680Y0031800D02*
X0086920Y0031800D01*
X0226800Y0021920D02*
X0226800Y0021680D01*
D14*
X0231690Y0056800D02*
X0231910Y0056800D01*
X0086910Y0051800D02*
X0086690Y0051800D01*
D15*
X0070737Y0055737D02*
X0062863Y0055737D01*
X0062863Y0060855D02*
X0061091Y0060855D01*
X0061091Y0042745D01*
X0062863Y0042745D01*
X0070737Y0042745D02*
X0072509Y0042745D01*
X0072509Y0060855D01*
X0070737Y0060855D01*
X0151091Y0060855D02*
X0151091Y0042745D01*
X0152863Y0042745D01*
X0152863Y0047863D02*
X0160737Y0047863D01*
X0160737Y0042745D02*
X0162509Y0042745D01*
X0162509Y0060855D01*
X0160737Y0060855D01*
X0152863Y0060855D02*
X0151091Y0060855D01*
X0211091Y0055855D02*
X0211091Y0037745D01*
X0212863Y0037745D01*
X0220737Y0037745D02*
X0222509Y0037745D01*
X0222509Y0055855D01*
X0220737Y0055855D01*
X0220737Y0050737D02*
X0212863Y0050737D01*
X0212863Y0055855D02*
X0211091Y0055855D01*
X0291091Y0050855D02*
X0291091Y0032745D01*
X0292863Y0032745D01*
X0292863Y0037863D02*
X0300737Y0037863D01*
X0300737Y0032745D02*
X0302509Y0032745D01*
X0302509Y0050855D01*
X0300737Y0050855D01*
X0292863Y0050855D02*
X0291091Y0050855D01*
D16*
X0264100Y0062500D02*
X0263078Y0062500D01*
X0263589Y0062500D02*
X0263589Y0067100D01*
X0264100Y0067100D02*
X0263078Y0067100D01*
X0261280Y0066078D02*
X0261280Y0063522D01*
X0261278Y0063460D01*
X0261273Y0063399D01*
X0261263Y0063338D01*
X0261250Y0063277D01*
X0261234Y0063218D01*
X0261214Y0063160D01*
X0261190Y0063103D01*
X0261163Y0063047D01*
X0261133Y0062993D01*
X0261099Y0062941D01*
X0261063Y0062892D01*
X0261023Y0062844D01*
X0260981Y0062799D01*
X0260936Y0062757D01*
X0260888Y0062717D01*
X0260839Y0062681D01*
X0260787Y0062647D01*
X0260733Y0062617D01*
X0260677Y0062590D01*
X0260620Y0062566D01*
X0260562Y0062546D01*
X0260503Y0062530D01*
X0260442Y0062517D01*
X0260381Y0062507D01*
X0260320Y0062502D01*
X0260258Y0062500D01*
X0259235Y0062500D01*
X0257517Y0062500D02*
X0254961Y0062500D01*
X0256239Y0062500D02*
X0256239Y0067100D01*
X0257517Y0066078D01*
X0259235Y0067100D02*
X0260258Y0067100D01*
X0260320Y0067098D01*
X0260381Y0067093D01*
X0260442Y0067083D01*
X0260503Y0067070D01*
X0260562Y0067054D01*
X0260620Y0067034D01*
X0260677Y0067010D01*
X0260733Y0066983D01*
X0260787Y0066953D01*
X0260839Y0066919D01*
X0260888Y0066883D01*
X0260936Y0066843D01*
X0260981Y0066801D01*
X0261023Y0066756D01*
X0261063Y0066708D01*
X0261099Y0066659D01*
X0261133Y0066607D01*
X0261163Y0066553D01*
X0261190Y0066497D01*
X0261214Y0066440D01*
X0261234Y0066382D01*
X0261250Y0066323D01*
X0261263Y0066262D01*
X0261273Y0066201D01*
X0261278Y0066140D01*
X0261280Y0066078D01*
X0119100Y0067100D02*
X0118078Y0067100D01*
X0118589Y0067100D02*
X0118589Y0062500D01*
X0119100Y0062500D02*
X0118078Y0062500D01*
X0116280Y0063522D02*
X0116280Y0066078D01*
X0116278Y0066140D01*
X0116273Y0066201D01*
X0116263Y0066262D01*
X0116250Y0066323D01*
X0116234Y0066382D01*
X0116214Y0066440D01*
X0116190Y0066497D01*
X0116163Y0066553D01*
X0116133Y0066607D01*
X0116099Y0066659D01*
X0116063Y0066708D01*
X0116023Y0066756D01*
X0115981Y0066801D01*
X0115936Y0066843D01*
X0115888Y0066883D01*
X0115839Y0066919D01*
X0115787Y0066953D01*
X0115733Y0066983D01*
X0115677Y0067010D01*
X0115620Y0067034D01*
X0115562Y0067054D01*
X0115503Y0067070D01*
X0115442Y0067083D01*
X0115381Y0067093D01*
X0115320Y0067098D01*
X0115258Y0067100D01*
X0114235Y0067100D01*
X0110344Y0065056D02*
X0110297Y0065103D01*
X0110253Y0065153D01*
X0110211Y0065205D01*
X0110172Y0065259D01*
X0110137Y0065315D01*
X0110104Y0065373D01*
X0110074Y0065433D01*
X0110048Y0065494D01*
X0110025Y0065557D01*
X0110006Y0065621D01*
X0109990Y0065685D01*
X0109977Y0065751D01*
X0109968Y0065817D01*
X0109963Y0065883D01*
X0109961Y0065950D01*
X0110344Y0065056D02*
X0112517Y0062500D01*
X0109961Y0062500D01*
X0112516Y0066078D02*
X0112491Y0066148D01*
X0112463Y0066217D01*
X0112432Y0066284D01*
X0112397Y0066350D01*
X0112359Y0066413D01*
X0112317Y0066475D01*
X0112273Y0066535D01*
X0112226Y0066592D01*
X0112176Y0066647D01*
X0112123Y0066699D01*
X0112067Y0066749D01*
X0112010Y0066795D01*
X0111949Y0066839D01*
X0111887Y0066880D01*
X0111823Y0066917D01*
X0111757Y0066951D01*
X0111689Y0066982D01*
X0111620Y0067009D01*
X0111550Y0067033D01*
X0111479Y0067054D01*
X0111406Y0067070D01*
X0111333Y0067083D01*
X0111259Y0067093D01*
X0111185Y0067098D01*
X0111111Y0067100D01*
X0111044Y0067098D01*
X0110977Y0067092D01*
X0110911Y0067083D01*
X0110846Y0067069D01*
X0110781Y0067052D01*
X0110718Y0067031D01*
X0110656Y0067006D01*
X0110595Y0066978D01*
X0110536Y0066946D01*
X0110479Y0066911D01*
X0110424Y0066872D01*
X0110372Y0066831D01*
X0110322Y0066786D01*
X0110275Y0066739D01*
X0110230Y0066689D01*
X0110189Y0066637D01*
X0110150Y0066582D01*
X0110115Y0066525D01*
X0110083Y0066466D01*
X0110055Y0066405D01*
X0110030Y0066343D01*
X0110009Y0066280D01*
X0109992Y0066215D01*
X0109978Y0066150D01*
X0109969Y0066084D01*
X0109963Y0066017D01*
X0109961Y0065950D01*
X0114235Y0062500D02*
X0115258Y0062500D01*
X0115320Y0062502D01*
X0115381Y0062507D01*
X0115442Y0062517D01*
X0115503Y0062530D01*
X0115562Y0062546D01*
X0115620Y0062566D01*
X0115677Y0062590D01*
X0115733Y0062617D01*
X0115787Y0062647D01*
X0115839Y0062681D01*
X0115888Y0062717D01*
X0115936Y0062757D01*
X0115981Y0062799D01*
X0116023Y0062844D01*
X0116063Y0062892D01*
X0116099Y0062941D01*
X0116133Y0062993D01*
X0116163Y0063047D01*
X0116190Y0063103D01*
X0116214Y0063160D01*
X0116234Y0063218D01*
X0116250Y0063277D01*
X0116263Y0063338D01*
X0116273Y0063399D01*
X0116278Y0063460D01*
X0116280Y0063522D01*
D17*
X0064100Y0106400D03*
X0264100Y0096400D03*
D18*
X0264550Y0100850D02*
X0262050Y0100850D01*
X0264550Y0100850D02*
X0262425Y0103350D01*
X0263175Y0105350D02*
X0263248Y0105348D01*
X0263320Y0105343D01*
X0263392Y0105334D01*
X0263464Y0105321D01*
X0263535Y0105305D01*
X0263605Y0105285D01*
X0263673Y0105261D01*
X0263741Y0105235D01*
X0263807Y0105204D01*
X0263872Y0105171D01*
X0263934Y0105134D01*
X0263995Y0105095D01*
X0264054Y0105052D01*
X0264111Y0105006D01*
X0264165Y0104958D01*
X0264216Y0104907D01*
X0264266Y0104853D01*
X0264312Y0104797D01*
X0264355Y0104739D01*
X0264396Y0104678D01*
X0264433Y0104616D01*
X0264467Y0104552D01*
X0264498Y0104486D01*
X0264526Y0104419D01*
X0264550Y0104350D01*
X0262425Y0103350D02*
X0262379Y0103396D01*
X0262335Y0103445D01*
X0262295Y0103496D01*
X0262257Y0103549D01*
X0262222Y0103604D01*
X0262190Y0103661D01*
X0262161Y0103719D01*
X0262135Y0103779D01*
X0262113Y0103841D01*
X0262094Y0103903D01*
X0262078Y0103966D01*
X0262066Y0104030D01*
X0262057Y0104095D01*
X0262052Y0104160D01*
X0262050Y0104225D01*
X0262052Y0104290D01*
X0262058Y0104356D01*
X0262067Y0104420D01*
X0262080Y0104484D01*
X0262097Y0104548D01*
X0262118Y0104610D01*
X0262142Y0104671D01*
X0262170Y0104730D01*
X0262201Y0104788D01*
X0262235Y0104843D01*
X0262273Y0104897D01*
X0262313Y0104948D01*
X0262357Y0104997D01*
X0262403Y0105043D01*
X0262452Y0105087D01*
X0262503Y0105127D01*
X0262557Y0105165D01*
X0262613Y0105199D01*
X0262670Y0105230D01*
X0262729Y0105258D01*
X0262790Y0105282D01*
X0262852Y0105303D01*
X0262916Y0105320D01*
X0262980Y0105333D01*
X0263044Y0105342D01*
X0263110Y0105348D01*
X0263175Y0105350D01*
X0266405Y0104100D02*
X0266405Y0102100D01*
X0266905Y0101850D02*
X0265905Y0100850D01*
X0266405Y0102100D02*
X0266407Y0102031D01*
X0266413Y0101962D01*
X0266422Y0101894D01*
X0266435Y0101827D01*
X0266452Y0101760D01*
X0266473Y0101694D01*
X0266497Y0101630D01*
X0266525Y0101567D01*
X0266556Y0101505D01*
X0266590Y0101445D01*
X0266628Y0101388D01*
X0266669Y0101332D01*
X0266712Y0101279D01*
X0266759Y0101228D01*
X0266808Y0101180D01*
X0266860Y0101135D01*
X0266915Y0101093D01*
X0266971Y0101054D01*
X0267030Y0101017D01*
X0267091Y0100985D01*
X0267153Y0100955D01*
X0267217Y0100929D01*
X0267282Y0100907D01*
X0267348Y0100888D01*
X0267415Y0100873D01*
X0267483Y0100862D01*
X0267552Y0100854D01*
X0267621Y0100850D01*
X0267689Y0100850D01*
X0267758Y0100854D01*
X0267827Y0100862D01*
X0267895Y0100873D01*
X0267962Y0100888D01*
X0268028Y0100907D01*
X0268093Y0100929D01*
X0268157Y0100955D01*
X0268219Y0100985D01*
X0268280Y0101017D01*
X0268339Y0101054D01*
X0268395Y0101093D01*
X0268450Y0101135D01*
X0268502Y0101180D01*
X0268551Y0101228D01*
X0268598Y0101279D01*
X0268641Y0101332D01*
X0268682Y0101388D01*
X0268720Y0101445D01*
X0268754Y0101505D01*
X0268785Y0101567D01*
X0268813Y0101630D01*
X0268837Y0101694D01*
X0268858Y0101760D01*
X0268875Y0101827D01*
X0268888Y0101894D01*
X0268897Y0101962D01*
X0268903Y0102031D01*
X0268905Y0102100D01*
X0268905Y0104100D01*
X0268903Y0104169D01*
X0268897Y0104238D01*
X0268888Y0104306D01*
X0268875Y0104373D01*
X0268858Y0104440D01*
X0268837Y0104506D01*
X0268813Y0104570D01*
X0268785Y0104633D01*
X0268754Y0104695D01*
X0268720Y0104755D01*
X0268682Y0104812D01*
X0268641Y0104868D01*
X0268598Y0104921D01*
X0268551Y0104972D01*
X0268502Y0105020D01*
X0268450Y0105065D01*
X0268395Y0105107D01*
X0268339Y0105146D01*
X0268280Y0105183D01*
X0268219Y0105215D01*
X0268157Y0105245D01*
X0268093Y0105271D01*
X0268028Y0105293D01*
X0267962Y0105312D01*
X0267895Y0105327D01*
X0267827Y0105338D01*
X0267758Y0105346D01*
X0267689Y0105350D01*
X0267621Y0105350D01*
X0267552Y0105346D01*
X0267483Y0105338D01*
X0267415Y0105327D01*
X0267348Y0105312D01*
X0267282Y0105293D01*
X0267217Y0105271D01*
X0267153Y0105245D01*
X0267091Y0105215D01*
X0267030Y0105183D01*
X0266971Y0105146D01*
X0266915Y0105107D01*
X0266860Y0105065D01*
X0266808Y0105020D01*
X0266759Y0104972D01*
X0266712Y0104921D01*
X0266669Y0104868D01*
X0266628Y0104812D01*
X0266590Y0104755D01*
X0266556Y0104695D01*
X0266525Y0104633D01*
X0266497Y0104570D01*
X0266473Y0104506D01*
X0266452Y0104440D01*
X0266435Y0104373D01*
X0266422Y0104306D01*
X0266413Y0104238D01*
X0266407Y0104169D01*
X0266405Y0104100D01*
X0266050Y0015922D02*
X0266052Y0015970D01*
X0266058Y0016018D01*
X0266067Y0016066D01*
X0266081Y0016112D01*
X0266098Y0016157D01*
X0266119Y0016201D01*
X0266143Y0016243D01*
X0266170Y0016282D01*
X0266201Y0016320D01*
X0266234Y0016355D01*
X0266271Y0016387D01*
X0266309Y0016416D01*
X0266350Y0016442D01*
X0266393Y0016464D01*
X0266437Y0016483D01*
X0266483Y0016498D01*
X0266530Y0016510D01*
X0266578Y0016518D01*
X0266626Y0016522D01*
X0266674Y0016522D01*
X0266722Y0016518D01*
X0266770Y0016510D01*
X0266817Y0016498D01*
X0266863Y0016483D01*
X0266907Y0016464D01*
X0266950Y0016442D01*
X0266991Y0016416D01*
X0267029Y0016387D01*
X0267066Y0016355D01*
X0267099Y0016320D01*
X0267130Y0016282D01*
X0267157Y0016243D01*
X0267181Y0016201D01*
X0267202Y0016157D01*
X0267219Y0016112D01*
X0267233Y0016066D01*
X0267242Y0016018D01*
X0267248Y0015970D01*
X0267250Y0015922D01*
X0267250Y0015022D01*
X0266050Y0015322D02*
X0266050Y0015922D01*
X0266050Y0015772D02*
X0266048Y0015826D01*
X0266042Y0015879D01*
X0266033Y0015931D01*
X0266020Y0015983D01*
X0266003Y0016034D01*
X0265982Y0016084D01*
X0265958Y0016131D01*
X0265931Y0016177D01*
X0265900Y0016221D01*
X0265867Y0016263D01*
X0265830Y0016302D01*
X0265791Y0016339D01*
X0265749Y0016372D01*
X0265705Y0016403D01*
X0265659Y0016430D01*
X0265612Y0016454D01*
X0265562Y0016475D01*
X0265511Y0016492D01*
X0265459Y0016505D01*
X0265407Y0016514D01*
X0265354Y0016520D01*
X0265300Y0016522D01*
X0265246Y0016520D01*
X0265193Y0016514D01*
X0265141Y0016505D01*
X0265089Y0016492D01*
X0265038Y0016475D01*
X0264988Y0016454D01*
X0264941Y0016430D01*
X0264895Y0016403D01*
X0264851Y0016372D01*
X0264809Y0016339D01*
X0264770Y0016302D01*
X0264733Y0016263D01*
X0264700Y0016221D01*
X0264669Y0016177D01*
X0264642Y0016131D01*
X0264618Y0016084D01*
X0264597Y0016034D01*
X0264580Y0015983D01*
X0264567Y0015931D01*
X0264558Y0015879D01*
X0264552Y0015826D01*
X0264550Y0015772D01*
X0264550Y0015022D01*
X0265675Y0013459D02*
X0265900Y0013084D01*
X0266125Y0012709D01*
X0265000Y0012484D02*
X0264968Y0012541D01*
X0264939Y0012600D01*
X0264913Y0012661D01*
X0264891Y0012723D01*
X0264872Y0012786D01*
X0264857Y0012850D01*
X0264845Y0012915D01*
X0264837Y0012980D01*
X0264832Y0013046D01*
X0264831Y0013112D01*
X0264834Y0013178D01*
X0264840Y0013243D01*
X0264850Y0013309D01*
X0264550Y0013084D02*
X0267250Y0013084D01*
X0266950Y0012859D02*
X0266940Y0012819D01*
X0266927Y0012779D01*
X0266910Y0012741D01*
X0266890Y0012705D01*
X0266867Y0012670D01*
X0266840Y0012638D01*
X0266811Y0012609D01*
X0266778Y0012582D01*
X0266744Y0012559D01*
X0266708Y0012538D01*
X0266669Y0012522D01*
X0266630Y0012509D01*
X0266589Y0012499D01*
X0266548Y0012494D01*
X0266506Y0012492D01*
X0266465Y0012494D01*
X0266423Y0012500D01*
X0266383Y0012510D01*
X0266343Y0012524D01*
X0266305Y0012541D01*
X0266269Y0012562D01*
X0266235Y0012586D01*
X0266203Y0012613D01*
X0266174Y0012642D01*
X0266148Y0012675D01*
X0266125Y0012710D01*
X0266950Y0012859D02*
X0266960Y0012925D01*
X0266966Y0012990D01*
X0266969Y0013056D01*
X0266968Y0013122D01*
X0266963Y0013188D01*
X0266955Y0013253D01*
X0266943Y0013318D01*
X0266928Y0013382D01*
X0266909Y0013445D01*
X0266887Y0013507D01*
X0266861Y0013568D01*
X0266832Y0013627D01*
X0266800Y0013684D01*
X0265675Y0013458D02*
X0265652Y0013493D01*
X0265626Y0013526D01*
X0265597Y0013555D01*
X0265565Y0013582D01*
X0265531Y0013606D01*
X0265495Y0013627D01*
X0265457Y0013644D01*
X0265417Y0013658D01*
X0265377Y0013668D01*
X0265335Y0013674D01*
X0265294Y0013676D01*
X0265252Y0013674D01*
X0265211Y0013669D01*
X0265170Y0013659D01*
X0265131Y0013646D01*
X0265092Y0013630D01*
X0265056Y0013609D01*
X0265022Y0013586D01*
X0264989Y0013559D01*
X0264960Y0013530D01*
X0264933Y0013498D01*
X0264910Y0013463D01*
X0264890Y0013427D01*
X0264873Y0013389D01*
X0264860Y0013349D01*
X0264850Y0013309D01*
X0265300Y0011050D02*
X0267250Y0011050D01*
X0267250Y0009550D02*
X0265300Y0009550D01*
X0265246Y0009552D01*
X0265193Y0009558D01*
X0265141Y0009567D01*
X0265089Y0009580D01*
X0265038Y0009597D01*
X0264988Y0009618D01*
X0264941Y0009642D01*
X0264895Y0009669D01*
X0264851Y0009700D01*
X0264809Y0009733D01*
X0264770Y0009770D01*
X0264733Y0009809D01*
X0264700Y0009851D01*
X0264669Y0009895D01*
X0264642Y0009941D01*
X0264618Y0009988D01*
X0264597Y0010038D01*
X0264580Y0010089D01*
X0264567Y0010141D01*
X0264558Y0010193D01*
X0264552Y0010246D01*
X0264550Y0010300D01*
X0264552Y0010354D01*
X0264558Y0010407D01*
X0264567Y0010459D01*
X0264580Y0010511D01*
X0264597Y0010562D01*
X0264618Y0010612D01*
X0264642Y0010659D01*
X0264669Y0010705D01*
X0264700Y0010749D01*
X0264733Y0010791D01*
X0264770Y0010830D01*
X0264809Y0010867D01*
X0264851Y0010900D01*
X0264895Y0010931D01*
X0264941Y0010958D01*
X0264988Y0010982D01*
X0265038Y0011003D01*
X0265089Y0011020D01*
X0265141Y0011033D01*
X0265193Y0011042D01*
X0265246Y0011048D01*
X0265300Y0011050D01*
X0122250Y0011050D02*
X0120300Y0011050D01*
X0120246Y0011048D01*
X0120193Y0011042D01*
X0120141Y0011033D01*
X0120089Y0011020D01*
X0120038Y0011003D01*
X0119988Y0010982D01*
X0119941Y0010958D01*
X0119895Y0010931D01*
X0119851Y0010900D01*
X0119809Y0010867D01*
X0119770Y0010830D01*
X0119733Y0010791D01*
X0119700Y0010749D01*
X0119669Y0010705D01*
X0119642Y0010659D01*
X0119618Y0010612D01*
X0119597Y0010562D01*
X0119580Y0010511D01*
X0119567Y0010459D01*
X0119558Y0010407D01*
X0119552Y0010354D01*
X0119550Y0010300D01*
X0119552Y0010246D01*
X0119558Y0010193D01*
X0119567Y0010141D01*
X0119580Y0010089D01*
X0119597Y0010038D01*
X0119618Y0009988D01*
X0119642Y0009941D01*
X0119669Y0009895D01*
X0119700Y0009851D01*
X0119733Y0009809D01*
X0119770Y0009770D01*
X0119809Y0009733D01*
X0119851Y0009700D01*
X0119895Y0009669D01*
X0119941Y0009642D01*
X0119988Y0009618D01*
X0120038Y0009597D01*
X0120089Y0009580D01*
X0120141Y0009567D01*
X0120193Y0009558D01*
X0120246Y0009552D01*
X0120300Y0009550D01*
X0122250Y0009550D01*
X0121125Y0012709D02*
X0120900Y0013084D01*
X0120675Y0013459D01*
X0121800Y0013684D02*
X0121832Y0013627D01*
X0121861Y0013568D01*
X0121887Y0013507D01*
X0121909Y0013445D01*
X0121928Y0013382D01*
X0121943Y0013318D01*
X0121955Y0013253D01*
X0121963Y0013188D01*
X0121968Y0013122D01*
X0121969Y0013056D01*
X0121966Y0012990D01*
X0121960Y0012925D01*
X0121950Y0012859D01*
X0122250Y0013084D02*
X0119550Y0013084D01*
X0119850Y0013309D02*
X0119860Y0013349D01*
X0119873Y0013389D01*
X0119890Y0013427D01*
X0119910Y0013463D01*
X0119933Y0013498D01*
X0119960Y0013530D01*
X0119989Y0013559D01*
X0120022Y0013586D01*
X0120056Y0013609D01*
X0120092Y0013630D01*
X0120131Y0013646D01*
X0120170Y0013659D01*
X0120211Y0013669D01*
X0120252Y0013674D01*
X0120294Y0013676D01*
X0120335Y0013674D01*
X0120377Y0013668D01*
X0120417Y0013658D01*
X0120457Y0013644D01*
X0120495Y0013627D01*
X0120531Y0013606D01*
X0120565Y0013582D01*
X0120597Y0013555D01*
X0120626Y0013526D01*
X0120652Y0013493D01*
X0120675Y0013458D01*
X0119850Y0013309D02*
X0119840Y0013243D01*
X0119834Y0013178D01*
X0119831Y0013112D01*
X0119832Y0013046D01*
X0119837Y0012980D01*
X0119845Y0012915D01*
X0119857Y0012850D01*
X0119872Y0012786D01*
X0119891Y0012723D01*
X0119913Y0012661D01*
X0119939Y0012600D01*
X0119968Y0012541D01*
X0120000Y0012484D01*
X0121125Y0012710D02*
X0121148Y0012675D01*
X0121174Y0012642D01*
X0121203Y0012613D01*
X0121235Y0012586D01*
X0121269Y0012562D01*
X0121305Y0012541D01*
X0121343Y0012524D01*
X0121383Y0012510D01*
X0121423Y0012500D01*
X0121465Y0012494D01*
X0121506Y0012492D01*
X0121548Y0012494D01*
X0121589Y0012499D01*
X0121630Y0012509D01*
X0121669Y0012522D01*
X0121708Y0012538D01*
X0121744Y0012559D01*
X0121778Y0012582D01*
X0121811Y0012609D01*
X0121840Y0012638D01*
X0121867Y0012670D01*
X0121890Y0012705D01*
X0121910Y0012741D01*
X0121927Y0012779D01*
X0121940Y0012819D01*
X0121950Y0012859D01*
X0122250Y0015622D02*
X0120150Y0015022D01*
X0120150Y0016522D01*
X0120750Y0016072D02*
X0119550Y0016072D01*
X0065905Y0110850D02*
X0066905Y0111850D01*
X0066405Y0112100D02*
X0066405Y0114100D01*
X0066407Y0114169D01*
X0066413Y0114238D01*
X0066422Y0114306D01*
X0066435Y0114373D01*
X0066452Y0114440D01*
X0066473Y0114506D01*
X0066497Y0114570D01*
X0066525Y0114633D01*
X0066556Y0114695D01*
X0066590Y0114755D01*
X0066628Y0114812D01*
X0066669Y0114868D01*
X0066712Y0114921D01*
X0066759Y0114972D01*
X0066808Y0115020D01*
X0066860Y0115065D01*
X0066915Y0115107D01*
X0066971Y0115146D01*
X0067030Y0115183D01*
X0067091Y0115215D01*
X0067153Y0115245D01*
X0067217Y0115271D01*
X0067282Y0115293D01*
X0067348Y0115312D01*
X0067415Y0115327D01*
X0067483Y0115338D01*
X0067552Y0115346D01*
X0067621Y0115350D01*
X0067689Y0115350D01*
X0067758Y0115346D01*
X0067827Y0115338D01*
X0067895Y0115327D01*
X0067962Y0115312D01*
X0068028Y0115293D01*
X0068093Y0115271D01*
X0068157Y0115245D01*
X0068219Y0115215D01*
X0068280Y0115183D01*
X0068339Y0115146D01*
X0068395Y0115107D01*
X0068450Y0115065D01*
X0068502Y0115020D01*
X0068551Y0114972D01*
X0068598Y0114921D01*
X0068641Y0114868D01*
X0068682Y0114812D01*
X0068720Y0114755D01*
X0068754Y0114695D01*
X0068785Y0114633D01*
X0068813Y0114570D01*
X0068837Y0114506D01*
X0068858Y0114440D01*
X0068875Y0114373D01*
X0068888Y0114306D01*
X0068897Y0114238D01*
X0068903Y0114169D01*
X0068905Y0114100D01*
X0068905Y0112100D01*
X0068903Y0112031D01*
X0068897Y0111962D01*
X0068888Y0111894D01*
X0068875Y0111827D01*
X0068858Y0111760D01*
X0068837Y0111694D01*
X0068813Y0111630D01*
X0068785Y0111567D01*
X0068754Y0111505D01*
X0068720Y0111445D01*
X0068682Y0111388D01*
X0068641Y0111332D01*
X0068598Y0111279D01*
X0068551Y0111228D01*
X0068502Y0111180D01*
X0068450Y0111135D01*
X0068395Y0111093D01*
X0068339Y0111054D01*
X0068280Y0111017D01*
X0068219Y0110985D01*
X0068157Y0110955D01*
X0068093Y0110929D01*
X0068028Y0110907D01*
X0067962Y0110888D01*
X0067895Y0110873D01*
X0067827Y0110862D01*
X0067758Y0110854D01*
X0067689Y0110850D01*
X0067621Y0110850D01*
X0067552Y0110854D01*
X0067483Y0110862D01*
X0067415Y0110873D01*
X0067348Y0110888D01*
X0067282Y0110907D01*
X0067217Y0110929D01*
X0067153Y0110955D01*
X0067091Y0110985D01*
X0067030Y0111017D01*
X0066971Y0111054D01*
X0066915Y0111093D01*
X0066860Y0111135D01*
X0066808Y0111180D01*
X0066759Y0111228D01*
X0066712Y0111279D01*
X0066669Y0111332D01*
X0066628Y0111388D01*
X0066590Y0111445D01*
X0066556Y0111505D01*
X0066525Y0111567D01*
X0066497Y0111630D01*
X0066473Y0111694D01*
X0066452Y0111760D01*
X0066435Y0111827D01*
X0066422Y0111894D01*
X0066413Y0111962D01*
X0066407Y0112031D01*
X0066405Y0112100D01*
X0064550Y0110850D02*
X0062050Y0110850D01*
X0063300Y0110850D02*
X0063300Y0115350D01*
X0064550Y0114350D01*
D19*
X0081800Y0093300D03*
X0281800Y0083300D03*
D20*
X0264550Y0085800D03*
X0299050Y0085800D03*
X0099050Y0095800D03*
X0064550Y0095800D03*
D21*
X0076800Y0095800D03*
X0086800Y0095800D03*
X0276800Y0085800D03*
X0286800Y0085800D03*
D22*
X0262509Y0023690D02*
X0260146Y0023690D01*
X0262509Y0023690D02*
X0262509Y0015225D01*
X0251091Y0015225D02*
X0251091Y0023690D01*
X0253454Y0023690D01*
X0117509Y0023690D02*
X0117509Y0015225D01*
X0106091Y0015225D02*
X0106091Y0023690D01*
X0108454Y0023690D01*
X0115146Y0023690D02*
X0117509Y0023690D01*
M02*
