%
M48
M72
T01C0.01378
T02C0.03200
T03C0.04200
T04C0.05512
T05C0.13000
T06C0.15748
%
T01
X71800Y51800
X101800Y66800
X136800Y46800
X101800Y31800
X176800Y71800
X231800Y71800
X251800Y71800
X281800Y66800
X306800Y66800
X311800Y106800
X231800Y41800
T02
X103300Y252300
X113300Y252300
X139300Y234800
X149300Y234800
X159800Y254800
X169800Y254800
X186800Y261800
X196800Y261800
X214800Y254300
X224800Y254300
X234800Y233800
X244800Y233800
X273300Y246300
X283300Y246300
X248800Y286300
X238800Y286300
X196800Y301800
X186800Y301800
X148800Y288800
X138800Y288800
X141800Y206800
X131800Y206800
X101800Y205800
X91800Y205800
X138300Y180800
X148300Y180800
X157800Y159800
X167800Y159800
X187800Y151800
X197800Y151800
X216800Y160800
X226800Y160800
X234800Y180300
X244800Y180300
X270300Y161300
X280300Y161300
X247800Y127300
X237800Y127300
X276800Y99300
X271800Y91800
X281800Y91800
X197800Y111800
X187800Y111800
X143800Y127800
X133800Y127800
X126800Y96800
X121800Y89300
X116800Y96800
X111800Y164300
X101800Y164300
X241800Y206800
X251800Y206800
X281800Y206300
X291800Y206300
T03
X321800Y19200
X321800Y31800
X321800Y44400
X321800Y119200
X321800Y131800
X321800Y144400
T04
X346918Y139950
X346918Y123650
X346918Y69950
X346918Y53650
T05
X21800Y21800
X21800Y296800
X371800Y296800
X376800Y21800
T06
X375816Y131800
X375816Y61800
M30
