G75*
%MOIN*%
%OFA0B0*%
%FSLAX25Y25*%
%IPPOS*%
%LPD*%
%AMOC8*
5,1,8,0,0,1.08239X$1,22.5*
%
%ADD10C,0.00000*%
%ADD11C,0.07800*%
%ADD12C,0.06400*%
%ADD13C,0.16148*%
%ADD14R,0.08668X0.08668*%
%ADD15R,0.06700X0.06700*%
D10*
X0001800Y0001800D02*
X0001800Y0316761D01*
X0395501Y0316761D01*
X0395501Y0001800D01*
X0001800Y0001800D01*
X0372942Y0041800D02*
X0372944Y0041993D01*
X0372951Y0042186D01*
X0372963Y0042379D01*
X0372980Y0042572D01*
X0373001Y0042764D01*
X0373027Y0042955D01*
X0373058Y0043146D01*
X0373093Y0043336D01*
X0373133Y0043525D01*
X0373178Y0043713D01*
X0373227Y0043900D01*
X0373281Y0044086D01*
X0373339Y0044270D01*
X0373402Y0044453D01*
X0373470Y0044634D01*
X0373541Y0044813D01*
X0373618Y0044991D01*
X0373698Y0045167D01*
X0373783Y0045340D01*
X0373872Y0045512D01*
X0373965Y0045681D01*
X0374062Y0045848D01*
X0374164Y0046013D01*
X0374269Y0046175D01*
X0374378Y0046334D01*
X0374492Y0046491D01*
X0374609Y0046644D01*
X0374729Y0046795D01*
X0374854Y0046943D01*
X0374982Y0047088D01*
X0375113Y0047229D01*
X0375248Y0047368D01*
X0375387Y0047503D01*
X0375528Y0047634D01*
X0375673Y0047762D01*
X0375821Y0047887D01*
X0375972Y0048007D01*
X0376125Y0048124D01*
X0376282Y0048238D01*
X0376441Y0048347D01*
X0376603Y0048452D01*
X0376768Y0048554D01*
X0376935Y0048651D01*
X0377104Y0048744D01*
X0377276Y0048833D01*
X0377449Y0048918D01*
X0377625Y0048998D01*
X0377803Y0049075D01*
X0377982Y0049146D01*
X0378163Y0049214D01*
X0378346Y0049277D01*
X0378530Y0049335D01*
X0378716Y0049389D01*
X0378903Y0049438D01*
X0379091Y0049483D01*
X0379280Y0049523D01*
X0379470Y0049558D01*
X0379661Y0049589D01*
X0379852Y0049615D01*
X0380044Y0049636D01*
X0380237Y0049653D01*
X0380430Y0049665D01*
X0380623Y0049672D01*
X0380816Y0049674D01*
X0381009Y0049672D01*
X0381202Y0049665D01*
X0381395Y0049653D01*
X0381588Y0049636D01*
X0381780Y0049615D01*
X0381971Y0049589D01*
X0382162Y0049558D01*
X0382352Y0049523D01*
X0382541Y0049483D01*
X0382729Y0049438D01*
X0382916Y0049389D01*
X0383102Y0049335D01*
X0383286Y0049277D01*
X0383469Y0049214D01*
X0383650Y0049146D01*
X0383829Y0049075D01*
X0384007Y0048998D01*
X0384183Y0048918D01*
X0384356Y0048833D01*
X0384528Y0048744D01*
X0384697Y0048651D01*
X0384864Y0048554D01*
X0385029Y0048452D01*
X0385191Y0048347D01*
X0385350Y0048238D01*
X0385507Y0048124D01*
X0385660Y0048007D01*
X0385811Y0047887D01*
X0385959Y0047762D01*
X0386104Y0047634D01*
X0386245Y0047503D01*
X0386384Y0047368D01*
X0386519Y0047229D01*
X0386650Y0047088D01*
X0386778Y0046943D01*
X0386903Y0046795D01*
X0387023Y0046644D01*
X0387140Y0046491D01*
X0387254Y0046334D01*
X0387363Y0046175D01*
X0387468Y0046013D01*
X0387570Y0045848D01*
X0387667Y0045681D01*
X0387760Y0045512D01*
X0387849Y0045340D01*
X0387934Y0045167D01*
X0388014Y0044991D01*
X0388091Y0044813D01*
X0388162Y0044634D01*
X0388230Y0044453D01*
X0388293Y0044270D01*
X0388351Y0044086D01*
X0388405Y0043900D01*
X0388454Y0043713D01*
X0388499Y0043525D01*
X0388539Y0043336D01*
X0388574Y0043146D01*
X0388605Y0042955D01*
X0388631Y0042764D01*
X0388652Y0042572D01*
X0388669Y0042379D01*
X0388681Y0042186D01*
X0388688Y0041993D01*
X0388690Y0041800D01*
X0388688Y0041607D01*
X0388681Y0041414D01*
X0388669Y0041221D01*
X0388652Y0041028D01*
X0388631Y0040836D01*
X0388605Y0040645D01*
X0388574Y0040454D01*
X0388539Y0040264D01*
X0388499Y0040075D01*
X0388454Y0039887D01*
X0388405Y0039700D01*
X0388351Y0039514D01*
X0388293Y0039330D01*
X0388230Y0039147D01*
X0388162Y0038966D01*
X0388091Y0038787D01*
X0388014Y0038609D01*
X0387934Y0038433D01*
X0387849Y0038260D01*
X0387760Y0038088D01*
X0387667Y0037919D01*
X0387570Y0037752D01*
X0387468Y0037587D01*
X0387363Y0037425D01*
X0387254Y0037266D01*
X0387140Y0037109D01*
X0387023Y0036956D01*
X0386903Y0036805D01*
X0386778Y0036657D01*
X0386650Y0036512D01*
X0386519Y0036371D01*
X0386384Y0036232D01*
X0386245Y0036097D01*
X0386104Y0035966D01*
X0385959Y0035838D01*
X0385811Y0035713D01*
X0385660Y0035593D01*
X0385507Y0035476D01*
X0385350Y0035362D01*
X0385191Y0035253D01*
X0385029Y0035148D01*
X0384864Y0035046D01*
X0384697Y0034949D01*
X0384528Y0034856D01*
X0384356Y0034767D01*
X0384183Y0034682D01*
X0384007Y0034602D01*
X0383829Y0034525D01*
X0383650Y0034454D01*
X0383469Y0034386D01*
X0383286Y0034323D01*
X0383102Y0034265D01*
X0382916Y0034211D01*
X0382729Y0034162D01*
X0382541Y0034117D01*
X0382352Y0034077D01*
X0382162Y0034042D01*
X0381971Y0034011D01*
X0381780Y0033985D01*
X0381588Y0033964D01*
X0381395Y0033947D01*
X0381202Y0033935D01*
X0381009Y0033928D01*
X0380816Y0033926D01*
X0380623Y0033928D01*
X0380430Y0033935D01*
X0380237Y0033947D01*
X0380044Y0033964D01*
X0379852Y0033985D01*
X0379661Y0034011D01*
X0379470Y0034042D01*
X0379280Y0034077D01*
X0379091Y0034117D01*
X0378903Y0034162D01*
X0378716Y0034211D01*
X0378530Y0034265D01*
X0378346Y0034323D01*
X0378163Y0034386D01*
X0377982Y0034454D01*
X0377803Y0034525D01*
X0377625Y0034602D01*
X0377449Y0034682D01*
X0377276Y0034767D01*
X0377104Y0034856D01*
X0376935Y0034949D01*
X0376768Y0035046D01*
X0376603Y0035148D01*
X0376441Y0035253D01*
X0376282Y0035362D01*
X0376125Y0035476D01*
X0375972Y0035593D01*
X0375821Y0035713D01*
X0375673Y0035838D01*
X0375528Y0035966D01*
X0375387Y0036097D01*
X0375248Y0036232D01*
X0375113Y0036371D01*
X0374982Y0036512D01*
X0374854Y0036657D01*
X0374729Y0036805D01*
X0374609Y0036956D01*
X0374492Y0037109D01*
X0374378Y0037266D01*
X0374269Y0037425D01*
X0374164Y0037587D01*
X0374062Y0037752D01*
X0373965Y0037919D01*
X0373872Y0038088D01*
X0373783Y0038260D01*
X0373698Y0038433D01*
X0373618Y0038609D01*
X0373541Y0038787D01*
X0373470Y0038966D01*
X0373402Y0039147D01*
X0373339Y0039330D01*
X0373281Y0039514D01*
X0373227Y0039700D01*
X0373178Y0039887D01*
X0373133Y0040075D01*
X0373093Y0040264D01*
X0373058Y0040454D01*
X0373027Y0040645D01*
X0373001Y0040836D01*
X0372980Y0041028D01*
X0372963Y0041221D01*
X0372951Y0041414D01*
X0372944Y0041607D01*
X0372942Y0041800D01*
X0372942Y0146800D02*
X0372944Y0146993D01*
X0372951Y0147186D01*
X0372963Y0147379D01*
X0372980Y0147572D01*
X0373001Y0147764D01*
X0373027Y0147955D01*
X0373058Y0148146D01*
X0373093Y0148336D01*
X0373133Y0148525D01*
X0373178Y0148713D01*
X0373227Y0148900D01*
X0373281Y0149086D01*
X0373339Y0149270D01*
X0373402Y0149453D01*
X0373470Y0149634D01*
X0373541Y0149813D01*
X0373618Y0149991D01*
X0373698Y0150167D01*
X0373783Y0150340D01*
X0373872Y0150512D01*
X0373965Y0150681D01*
X0374062Y0150848D01*
X0374164Y0151013D01*
X0374269Y0151175D01*
X0374378Y0151334D01*
X0374492Y0151491D01*
X0374609Y0151644D01*
X0374729Y0151795D01*
X0374854Y0151943D01*
X0374982Y0152088D01*
X0375113Y0152229D01*
X0375248Y0152368D01*
X0375387Y0152503D01*
X0375528Y0152634D01*
X0375673Y0152762D01*
X0375821Y0152887D01*
X0375972Y0153007D01*
X0376125Y0153124D01*
X0376282Y0153238D01*
X0376441Y0153347D01*
X0376603Y0153452D01*
X0376768Y0153554D01*
X0376935Y0153651D01*
X0377104Y0153744D01*
X0377276Y0153833D01*
X0377449Y0153918D01*
X0377625Y0153998D01*
X0377803Y0154075D01*
X0377982Y0154146D01*
X0378163Y0154214D01*
X0378346Y0154277D01*
X0378530Y0154335D01*
X0378716Y0154389D01*
X0378903Y0154438D01*
X0379091Y0154483D01*
X0379280Y0154523D01*
X0379470Y0154558D01*
X0379661Y0154589D01*
X0379852Y0154615D01*
X0380044Y0154636D01*
X0380237Y0154653D01*
X0380430Y0154665D01*
X0380623Y0154672D01*
X0380816Y0154674D01*
X0381009Y0154672D01*
X0381202Y0154665D01*
X0381395Y0154653D01*
X0381588Y0154636D01*
X0381780Y0154615D01*
X0381971Y0154589D01*
X0382162Y0154558D01*
X0382352Y0154523D01*
X0382541Y0154483D01*
X0382729Y0154438D01*
X0382916Y0154389D01*
X0383102Y0154335D01*
X0383286Y0154277D01*
X0383469Y0154214D01*
X0383650Y0154146D01*
X0383829Y0154075D01*
X0384007Y0153998D01*
X0384183Y0153918D01*
X0384356Y0153833D01*
X0384528Y0153744D01*
X0384697Y0153651D01*
X0384864Y0153554D01*
X0385029Y0153452D01*
X0385191Y0153347D01*
X0385350Y0153238D01*
X0385507Y0153124D01*
X0385660Y0153007D01*
X0385811Y0152887D01*
X0385959Y0152762D01*
X0386104Y0152634D01*
X0386245Y0152503D01*
X0386384Y0152368D01*
X0386519Y0152229D01*
X0386650Y0152088D01*
X0386778Y0151943D01*
X0386903Y0151795D01*
X0387023Y0151644D01*
X0387140Y0151491D01*
X0387254Y0151334D01*
X0387363Y0151175D01*
X0387468Y0151013D01*
X0387570Y0150848D01*
X0387667Y0150681D01*
X0387760Y0150512D01*
X0387849Y0150340D01*
X0387934Y0150167D01*
X0388014Y0149991D01*
X0388091Y0149813D01*
X0388162Y0149634D01*
X0388230Y0149453D01*
X0388293Y0149270D01*
X0388351Y0149086D01*
X0388405Y0148900D01*
X0388454Y0148713D01*
X0388499Y0148525D01*
X0388539Y0148336D01*
X0388574Y0148146D01*
X0388605Y0147955D01*
X0388631Y0147764D01*
X0388652Y0147572D01*
X0388669Y0147379D01*
X0388681Y0147186D01*
X0388688Y0146993D01*
X0388690Y0146800D01*
X0388688Y0146607D01*
X0388681Y0146414D01*
X0388669Y0146221D01*
X0388652Y0146028D01*
X0388631Y0145836D01*
X0388605Y0145645D01*
X0388574Y0145454D01*
X0388539Y0145264D01*
X0388499Y0145075D01*
X0388454Y0144887D01*
X0388405Y0144700D01*
X0388351Y0144514D01*
X0388293Y0144330D01*
X0388230Y0144147D01*
X0388162Y0143966D01*
X0388091Y0143787D01*
X0388014Y0143609D01*
X0387934Y0143433D01*
X0387849Y0143260D01*
X0387760Y0143088D01*
X0387667Y0142919D01*
X0387570Y0142752D01*
X0387468Y0142587D01*
X0387363Y0142425D01*
X0387254Y0142266D01*
X0387140Y0142109D01*
X0387023Y0141956D01*
X0386903Y0141805D01*
X0386778Y0141657D01*
X0386650Y0141512D01*
X0386519Y0141371D01*
X0386384Y0141232D01*
X0386245Y0141097D01*
X0386104Y0140966D01*
X0385959Y0140838D01*
X0385811Y0140713D01*
X0385660Y0140593D01*
X0385507Y0140476D01*
X0385350Y0140362D01*
X0385191Y0140253D01*
X0385029Y0140148D01*
X0384864Y0140046D01*
X0384697Y0139949D01*
X0384528Y0139856D01*
X0384356Y0139767D01*
X0384183Y0139682D01*
X0384007Y0139602D01*
X0383829Y0139525D01*
X0383650Y0139454D01*
X0383469Y0139386D01*
X0383286Y0139323D01*
X0383102Y0139265D01*
X0382916Y0139211D01*
X0382729Y0139162D01*
X0382541Y0139117D01*
X0382352Y0139077D01*
X0382162Y0139042D01*
X0381971Y0139011D01*
X0381780Y0138985D01*
X0381588Y0138964D01*
X0381395Y0138947D01*
X0381202Y0138935D01*
X0381009Y0138928D01*
X0380816Y0138926D01*
X0380623Y0138928D01*
X0380430Y0138935D01*
X0380237Y0138947D01*
X0380044Y0138964D01*
X0379852Y0138985D01*
X0379661Y0139011D01*
X0379470Y0139042D01*
X0379280Y0139077D01*
X0379091Y0139117D01*
X0378903Y0139162D01*
X0378716Y0139211D01*
X0378530Y0139265D01*
X0378346Y0139323D01*
X0378163Y0139386D01*
X0377982Y0139454D01*
X0377803Y0139525D01*
X0377625Y0139602D01*
X0377449Y0139682D01*
X0377276Y0139767D01*
X0377104Y0139856D01*
X0376935Y0139949D01*
X0376768Y0140046D01*
X0376603Y0140148D01*
X0376441Y0140253D01*
X0376282Y0140362D01*
X0376125Y0140476D01*
X0375972Y0140593D01*
X0375821Y0140713D01*
X0375673Y0140838D01*
X0375528Y0140966D01*
X0375387Y0141097D01*
X0375248Y0141232D01*
X0375113Y0141371D01*
X0374982Y0141512D01*
X0374854Y0141657D01*
X0374729Y0141805D01*
X0374609Y0141956D01*
X0374492Y0142109D01*
X0374378Y0142266D01*
X0374269Y0142425D01*
X0374164Y0142587D01*
X0374062Y0142752D01*
X0373965Y0142919D01*
X0373872Y0143088D01*
X0373783Y0143260D01*
X0373698Y0143433D01*
X0373618Y0143609D01*
X0373541Y0143787D01*
X0373470Y0143966D01*
X0373402Y0144147D01*
X0373339Y0144330D01*
X0373281Y0144514D01*
X0373227Y0144700D01*
X0373178Y0144887D01*
X0373133Y0145075D01*
X0373093Y0145264D01*
X0373058Y0145454D01*
X0373027Y0145645D01*
X0373001Y0145836D01*
X0372980Y0146028D01*
X0372963Y0146221D01*
X0372951Y0146414D01*
X0372944Y0146607D01*
X0372942Y0146800D01*
D11*
X0291800Y0206300D03*
X0281800Y0206300D03*
X0251800Y0206800D03*
X0241800Y0206800D03*
X0244800Y0180300D03*
X0234800Y0180300D03*
X0226800Y0160800D03*
X0216800Y0160800D03*
X0197800Y0151800D03*
X0187800Y0151800D03*
X0167800Y0159800D03*
X0157800Y0159800D03*
X0148300Y0180800D03*
X0138300Y0180800D03*
X0111800Y0164300D03*
X0101800Y0164300D03*
X0133800Y0127800D03*
X0143800Y0127800D03*
X0187800Y0111800D03*
X0197800Y0111800D03*
X0237800Y0127300D03*
X0247800Y0127300D03*
X0270300Y0161300D03*
X0280300Y0161300D03*
X0244800Y0233800D03*
X0234800Y0233800D03*
X0224800Y0254300D03*
X0214800Y0254300D03*
X0196800Y0261800D03*
X0186800Y0261800D03*
X0169800Y0254800D03*
X0159800Y0254800D03*
X0149300Y0234800D03*
X0139300Y0234800D03*
X0113300Y0252300D03*
X0103300Y0252300D03*
X0138800Y0288800D03*
X0148800Y0288800D03*
X0186800Y0301800D03*
X0196800Y0301800D03*
X0238800Y0286300D03*
X0248800Y0286300D03*
X0273300Y0246300D03*
X0283300Y0246300D03*
X0141800Y0206800D03*
X0131800Y0206800D03*
X0101800Y0205800D03*
X0091800Y0205800D03*
D12*
X0091800Y0104800D02*
X0091800Y0098800D01*
X0081800Y0098800D02*
X0081800Y0104800D01*
X0071800Y0104800D02*
X0071800Y0098800D01*
X0271800Y0094800D02*
X0271800Y0088800D01*
X0281800Y0088800D02*
X0281800Y0094800D01*
X0291800Y0094800D02*
X0291800Y0088800D01*
D13*
X0380816Y0041800D03*
X0380816Y0146800D03*
D14*
X0351918Y0133650D03*
X0351918Y0159950D03*
X0351918Y0054950D03*
X0351918Y0028650D03*
D15*
X0321800Y0031800D03*
X0321800Y0019200D03*
X0321800Y0044400D03*
X0321800Y0119200D03*
X0321800Y0131800D03*
X0321800Y0144400D03*
M02*
