G75*
%MOIN*%
%OFA0B0*%
%FSLAX25Y25*%
%IPPOS*%
%LPD*%
%AMOC8*
5,1,8,0,0,1.08239X$1,22.5*
%
%ADD10C,0.00000*%
%ADD11C,0.07400*%
%ADD12R,0.06300X0.06300*%
%ADD13R,0.08268X0.08268*%
%ADD14OC8,0.05200*%
%ADD15C,0.02578*%
%ADD16C,0.01600*%
%ADD17C,0.00600*%
%ADD18C,0.01200*%
%ADD19C,0.02400*%
D10*
X0001800Y0001800D02*
X0001800Y0316761D01*
X0395501Y0316761D01*
X0395501Y0001800D01*
X0001800Y0001800D01*
X0015300Y0021800D02*
X0015302Y0021961D01*
X0015308Y0022121D01*
X0015318Y0022282D01*
X0015332Y0022442D01*
X0015350Y0022602D01*
X0015371Y0022761D01*
X0015397Y0022920D01*
X0015427Y0023078D01*
X0015460Y0023235D01*
X0015498Y0023392D01*
X0015539Y0023547D01*
X0015584Y0023701D01*
X0015633Y0023854D01*
X0015686Y0024006D01*
X0015742Y0024157D01*
X0015803Y0024306D01*
X0015866Y0024454D01*
X0015934Y0024600D01*
X0016005Y0024744D01*
X0016079Y0024886D01*
X0016157Y0025027D01*
X0016239Y0025165D01*
X0016324Y0025302D01*
X0016412Y0025436D01*
X0016504Y0025568D01*
X0016599Y0025698D01*
X0016697Y0025826D01*
X0016798Y0025951D01*
X0016902Y0026073D01*
X0017009Y0026193D01*
X0017119Y0026310D01*
X0017232Y0026425D01*
X0017348Y0026536D01*
X0017467Y0026645D01*
X0017588Y0026750D01*
X0017712Y0026853D01*
X0017838Y0026953D01*
X0017966Y0027049D01*
X0018097Y0027142D01*
X0018231Y0027232D01*
X0018366Y0027319D01*
X0018504Y0027402D01*
X0018643Y0027482D01*
X0018785Y0027558D01*
X0018928Y0027631D01*
X0019073Y0027700D01*
X0019220Y0027766D01*
X0019368Y0027828D01*
X0019518Y0027886D01*
X0019669Y0027941D01*
X0019822Y0027992D01*
X0019976Y0028039D01*
X0020131Y0028082D01*
X0020287Y0028121D01*
X0020443Y0028157D01*
X0020601Y0028188D01*
X0020759Y0028216D01*
X0020918Y0028240D01*
X0021078Y0028260D01*
X0021238Y0028276D01*
X0021398Y0028288D01*
X0021559Y0028296D01*
X0021720Y0028300D01*
X0021880Y0028300D01*
X0022041Y0028296D01*
X0022202Y0028288D01*
X0022362Y0028276D01*
X0022522Y0028260D01*
X0022682Y0028240D01*
X0022841Y0028216D01*
X0022999Y0028188D01*
X0023157Y0028157D01*
X0023313Y0028121D01*
X0023469Y0028082D01*
X0023624Y0028039D01*
X0023778Y0027992D01*
X0023931Y0027941D01*
X0024082Y0027886D01*
X0024232Y0027828D01*
X0024380Y0027766D01*
X0024527Y0027700D01*
X0024672Y0027631D01*
X0024815Y0027558D01*
X0024957Y0027482D01*
X0025096Y0027402D01*
X0025234Y0027319D01*
X0025369Y0027232D01*
X0025503Y0027142D01*
X0025634Y0027049D01*
X0025762Y0026953D01*
X0025888Y0026853D01*
X0026012Y0026750D01*
X0026133Y0026645D01*
X0026252Y0026536D01*
X0026368Y0026425D01*
X0026481Y0026310D01*
X0026591Y0026193D01*
X0026698Y0026073D01*
X0026802Y0025951D01*
X0026903Y0025826D01*
X0027001Y0025698D01*
X0027096Y0025568D01*
X0027188Y0025436D01*
X0027276Y0025302D01*
X0027361Y0025165D01*
X0027443Y0025027D01*
X0027521Y0024886D01*
X0027595Y0024744D01*
X0027666Y0024600D01*
X0027734Y0024454D01*
X0027797Y0024306D01*
X0027858Y0024157D01*
X0027914Y0024006D01*
X0027967Y0023854D01*
X0028016Y0023701D01*
X0028061Y0023547D01*
X0028102Y0023392D01*
X0028140Y0023235D01*
X0028173Y0023078D01*
X0028203Y0022920D01*
X0028229Y0022761D01*
X0028250Y0022602D01*
X0028268Y0022442D01*
X0028282Y0022282D01*
X0028292Y0022121D01*
X0028298Y0021961D01*
X0028300Y0021800D01*
X0028298Y0021639D01*
X0028292Y0021479D01*
X0028282Y0021318D01*
X0028268Y0021158D01*
X0028250Y0020998D01*
X0028229Y0020839D01*
X0028203Y0020680D01*
X0028173Y0020522D01*
X0028140Y0020365D01*
X0028102Y0020208D01*
X0028061Y0020053D01*
X0028016Y0019899D01*
X0027967Y0019746D01*
X0027914Y0019594D01*
X0027858Y0019443D01*
X0027797Y0019294D01*
X0027734Y0019146D01*
X0027666Y0019000D01*
X0027595Y0018856D01*
X0027521Y0018714D01*
X0027443Y0018573D01*
X0027361Y0018435D01*
X0027276Y0018298D01*
X0027188Y0018164D01*
X0027096Y0018032D01*
X0027001Y0017902D01*
X0026903Y0017774D01*
X0026802Y0017649D01*
X0026698Y0017527D01*
X0026591Y0017407D01*
X0026481Y0017290D01*
X0026368Y0017175D01*
X0026252Y0017064D01*
X0026133Y0016955D01*
X0026012Y0016850D01*
X0025888Y0016747D01*
X0025762Y0016647D01*
X0025634Y0016551D01*
X0025503Y0016458D01*
X0025369Y0016368D01*
X0025234Y0016281D01*
X0025096Y0016198D01*
X0024957Y0016118D01*
X0024815Y0016042D01*
X0024672Y0015969D01*
X0024527Y0015900D01*
X0024380Y0015834D01*
X0024232Y0015772D01*
X0024082Y0015714D01*
X0023931Y0015659D01*
X0023778Y0015608D01*
X0023624Y0015561D01*
X0023469Y0015518D01*
X0023313Y0015479D01*
X0023157Y0015443D01*
X0022999Y0015412D01*
X0022841Y0015384D01*
X0022682Y0015360D01*
X0022522Y0015340D01*
X0022362Y0015324D01*
X0022202Y0015312D01*
X0022041Y0015304D01*
X0021880Y0015300D01*
X0021720Y0015300D01*
X0021559Y0015304D01*
X0021398Y0015312D01*
X0021238Y0015324D01*
X0021078Y0015340D01*
X0020918Y0015360D01*
X0020759Y0015384D01*
X0020601Y0015412D01*
X0020443Y0015443D01*
X0020287Y0015479D01*
X0020131Y0015518D01*
X0019976Y0015561D01*
X0019822Y0015608D01*
X0019669Y0015659D01*
X0019518Y0015714D01*
X0019368Y0015772D01*
X0019220Y0015834D01*
X0019073Y0015900D01*
X0018928Y0015969D01*
X0018785Y0016042D01*
X0018643Y0016118D01*
X0018504Y0016198D01*
X0018366Y0016281D01*
X0018231Y0016368D01*
X0018097Y0016458D01*
X0017966Y0016551D01*
X0017838Y0016647D01*
X0017712Y0016747D01*
X0017588Y0016850D01*
X0017467Y0016955D01*
X0017348Y0017064D01*
X0017232Y0017175D01*
X0017119Y0017290D01*
X0017009Y0017407D01*
X0016902Y0017527D01*
X0016798Y0017649D01*
X0016697Y0017774D01*
X0016599Y0017902D01*
X0016504Y0018032D01*
X0016412Y0018164D01*
X0016324Y0018298D01*
X0016239Y0018435D01*
X0016157Y0018573D01*
X0016079Y0018714D01*
X0016005Y0018856D01*
X0015934Y0019000D01*
X0015866Y0019146D01*
X0015803Y0019294D01*
X0015742Y0019443D01*
X0015686Y0019594D01*
X0015633Y0019746D01*
X0015584Y0019899D01*
X0015539Y0020053D01*
X0015498Y0020208D01*
X0015460Y0020365D01*
X0015427Y0020522D01*
X0015397Y0020680D01*
X0015371Y0020839D01*
X0015350Y0020998D01*
X0015332Y0021158D01*
X0015318Y0021318D01*
X0015308Y0021479D01*
X0015302Y0021639D01*
X0015300Y0021800D01*
X0015300Y0296800D02*
X0015302Y0296961D01*
X0015308Y0297121D01*
X0015318Y0297282D01*
X0015332Y0297442D01*
X0015350Y0297602D01*
X0015371Y0297761D01*
X0015397Y0297920D01*
X0015427Y0298078D01*
X0015460Y0298235D01*
X0015498Y0298392D01*
X0015539Y0298547D01*
X0015584Y0298701D01*
X0015633Y0298854D01*
X0015686Y0299006D01*
X0015742Y0299157D01*
X0015803Y0299306D01*
X0015866Y0299454D01*
X0015934Y0299600D01*
X0016005Y0299744D01*
X0016079Y0299886D01*
X0016157Y0300027D01*
X0016239Y0300165D01*
X0016324Y0300302D01*
X0016412Y0300436D01*
X0016504Y0300568D01*
X0016599Y0300698D01*
X0016697Y0300826D01*
X0016798Y0300951D01*
X0016902Y0301073D01*
X0017009Y0301193D01*
X0017119Y0301310D01*
X0017232Y0301425D01*
X0017348Y0301536D01*
X0017467Y0301645D01*
X0017588Y0301750D01*
X0017712Y0301853D01*
X0017838Y0301953D01*
X0017966Y0302049D01*
X0018097Y0302142D01*
X0018231Y0302232D01*
X0018366Y0302319D01*
X0018504Y0302402D01*
X0018643Y0302482D01*
X0018785Y0302558D01*
X0018928Y0302631D01*
X0019073Y0302700D01*
X0019220Y0302766D01*
X0019368Y0302828D01*
X0019518Y0302886D01*
X0019669Y0302941D01*
X0019822Y0302992D01*
X0019976Y0303039D01*
X0020131Y0303082D01*
X0020287Y0303121D01*
X0020443Y0303157D01*
X0020601Y0303188D01*
X0020759Y0303216D01*
X0020918Y0303240D01*
X0021078Y0303260D01*
X0021238Y0303276D01*
X0021398Y0303288D01*
X0021559Y0303296D01*
X0021720Y0303300D01*
X0021880Y0303300D01*
X0022041Y0303296D01*
X0022202Y0303288D01*
X0022362Y0303276D01*
X0022522Y0303260D01*
X0022682Y0303240D01*
X0022841Y0303216D01*
X0022999Y0303188D01*
X0023157Y0303157D01*
X0023313Y0303121D01*
X0023469Y0303082D01*
X0023624Y0303039D01*
X0023778Y0302992D01*
X0023931Y0302941D01*
X0024082Y0302886D01*
X0024232Y0302828D01*
X0024380Y0302766D01*
X0024527Y0302700D01*
X0024672Y0302631D01*
X0024815Y0302558D01*
X0024957Y0302482D01*
X0025096Y0302402D01*
X0025234Y0302319D01*
X0025369Y0302232D01*
X0025503Y0302142D01*
X0025634Y0302049D01*
X0025762Y0301953D01*
X0025888Y0301853D01*
X0026012Y0301750D01*
X0026133Y0301645D01*
X0026252Y0301536D01*
X0026368Y0301425D01*
X0026481Y0301310D01*
X0026591Y0301193D01*
X0026698Y0301073D01*
X0026802Y0300951D01*
X0026903Y0300826D01*
X0027001Y0300698D01*
X0027096Y0300568D01*
X0027188Y0300436D01*
X0027276Y0300302D01*
X0027361Y0300165D01*
X0027443Y0300027D01*
X0027521Y0299886D01*
X0027595Y0299744D01*
X0027666Y0299600D01*
X0027734Y0299454D01*
X0027797Y0299306D01*
X0027858Y0299157D01*
X0027914Y0299006D01*
X0027967Y0298854D01*
X0028016Y0298701D01*
X0028061Y0298547D01*
X0028102Y0298392D01*
X0028140Y0298235D01*
X0028173Y0298078D01*
X0028203Y0297920D01*
X0028229Y0297761D01*
X0028250Y0297602D01*
X0028268Y0297442D01*
X0028282Y0297282D01*
X0028292Y0297121D01*
X0028298Y0296961D01*
X0028300Y0296800D01*
X0028298Y0296639D01*
X0028292Y0296479D01*
X0028282Y0296318D01*
X0028268Y0296158D01*
X0028250Y0295998D01*
X0028229Y0295839D01*
X0028203Y0295680D01*
X0028173Y0295522D01*
X0028140Y0295365D01*
X0028102Y0295208D01*
X0028061Y0295053D01*
X0028016Y0294899D01*
X0027967Y0294746D01*
X0027914Y0294594D01*
X0027858Y0294443D01*
X0027797Y0294294D01*
X0027734Y0294146D01*
X0027666Y0294000D01*
X0027595Y0293856D01*
X0027521Y0293714D01*
X0027443Y0293573D01*
X0027361Y0293435D01*
X0027276Y0293298D01*
X0027188Y0293164D01*
X0027096Y0293032D01*
X0027001Y0292902D01*
X0026903Y0292774D01*
X0026802Y0292649D01*
X0026698Y0292527D01*
X0026591Y0292407D01*
X0026481Y0292290D01*
X0026368Y0292175D01*
X0026252Y0292064D01*
X0026133Y0291955D01*
X0026012Y0291850D01*
X0025888Y0291747D01*
X0025762Y0291647D01*
X0025634Y0291551D01*
X0025503Y0291458D01*
X0025369Y0291368D01*
X0025234Y0291281D01*
X0025096Y0291198D01*
X0024957Y0291118D01*
X0024815Y0291042D01*
X0024672Y0290969D01*
X0024527Y0290900D01*
X0024380Y0290834D01*
X0024232Y0290772D01*
X0024082Y0290714D01*
X0023931Y0290659D01*
X0023778Y0290608D01*
X0023624Y0290561D01*
X0023469Y0290518D01*
X0023313Y0290479D01*
X0023157Y0290443D01*
X0022999Y0290412D01*
X0022841Y0290384D01*
X0022682Y0290360D01*
X0022522Y0290340D01*
X0022362Y0290324D01*
X0022202Y0290312D01*
X0022041Y0290304D01*
X0021880Y0290300D01*
X0021720Y0290300D01*
X0021559Y0290304D01*
X0021398Y0290312D01*
X0021238Y0290324D01*
X0021078Y0290340D01*
X0020918Y0290360D01*
X0020759Y0290384D01*
X0020601Y0290412D01*
X0020443Y0290443D01*
X0020287Y0290479D01*
X0020131Y0290518D01*
X0019976Y0290561D01*
X0019822Y0290608D01*
X0019669Y0290659D01*
X0019518Y0290714D01*
X0019368Y0290772D01*
X0019220Y0290834D01*
X0019073Y0290900D01*
X0018928Y0290969D01*
X0018785Y0291042D01*
X0018643Y0291118D01*
X0018504Y0291198D01*
X0018366Y0291281D01*
X0018231Y0291368D01*
X0018097Y0291458D01*
X0017966Y0291551D01*
X0017838Y0291647D01*
X0017712Y0291747D01*
X0017588Y0291850D01*
X0017467Y0291955D01*
X0017348Y0292064D01*
X0017232Y0292175D01*
X0017119Y0292290D01*
X0017009Y0292407D01*
X0016902Y0292527D01*
X0016798Y0292649D01*
X0016697Y0292774D01*
X0016599Y0292902D01*
X0016504Y0293032D01*
X0016412Y0293164D01*
X0016324Y0293298D01*
X0016239Y0293435D01*
X0016157Y0293573D01*
X0016079Y0293714D01*
X0016005Y0293856D01*
X0015934Y0294000D01*
X0015866Y0294146D01*
X0015803Y0294294D01*
X0015742Y0294443D01*
X0015686Y0294594D01*
X0015633Y0294746D01*
X0015584Y0294899D01*
X0015539Y0295053D01*
X0015498Y0295208D01*
X0015460Y0295365D01*
X0015427Y0295522D01*
X0015397Y0295680D01*
X0015371Y0295839D01*
X0015350Y0295998D01*
X0015332Y0296158D01*
X0015318Y0296318D01*
X0015308Y0296479D01*
X0015302Y0296639D01*
X0015300Y0296800D01*
X0365300Y0296800D02*
X0365302Y0296961D01*
X0365308Y0297121D01*
X0365318Y0297282D01*
X0365332Y0297442D01*
X0365350Y0297602D01*
X0365371Y0297761D01*
X0365397Y0297920D01*
X0365427Y0298078D01*
X0365460Y0298235D01*
X0365498Y0298392D01*
X0365539Y0298547D01*
X0365584Y0298701D01*
X0365633Y0298854D01*
X0365686Y0299006D01*
X0365742Y0299157D01*
X0365803Y0299306D01*
X0365866Y0299454D01*
X0365934Y0299600D01*
X0366005Y0299744D01*
X0366079Y0299886D01*
X0366157Y0300027D01*
X0366239Y0300165D01*
X0366324Y0300302D01*
X0366412Y0300436D01*
X0366504Y0300568D01*
X0366599Y0300698D01*
X0366697Y0300826D01*
X0366798Y0300951D01*
X0366902Y0301073D01*
X0367009Y0301193D01*
X0367119Y0301310D01*
X0367232Y0301425D01*
X0367348Y0301536D01*
X0367467Y0301645D01*
X0367588Y0301750D01*
X0367712Y0301853D01*
X0367838Y0301953D01*
X0367966Y0302049D01*
X0368097Y0302142D01*
X0368231Y0302232D01*
X0368366Y0302319D01*
X0368504Y0302402D01*
X0368643Y0302482D01*
X0368785Y0302558D01*
X0368928Y0302631D01*
X0369073Y0302700D01*
X0369220Y0302766D01*
X0369368Y0302828D01*
X0369518Y0302886D01*
X0369669Y0302941D01*
X0369822Y0302992D01*
X0369976Y0303039D01*
X0370131Y0303082D01*
X0370287Y0303121D01*
X0370443Y0303157D01*
X0370601Y0303188D01*
X0370759Y0303216D01*
X0370918Y0303240D01*
X0371078Y0303260D01*
X0371238Y0303276D01*
X0371398Y0303288D01*
X0371559Y0303296D01*
X0371720Y0303300D01*
X0371880Y0303300D01*
X0372041Y0303296D01*
X0372202Y0303288D01*
X0372362Y0303276D01*
X0372522Y0303260D01*
X0372682Y0303240D01*
X0372841Y0303216D01*
X0372999Y0303188D01*
X0373157Y0303157D01*
X0373313Y0303121D01*
X0373469Y0303082D01*
X0373624Y0303039D01*
X0373778Y0302992D01*
X0373931Y0302941D01*
X0374082Y0302886D01*
X0374232Y0302828D01*
X0374380Y0302766D01*
X0374527Y0302700D01*
X0374672Y0302631D01*
X0374815Y0302558D01*
X0374957Y0302482D01*
X0375096Y0302402D01*
X0375234Y0302319D01*
X0375369Y0302232D01*
X0375503Y0302142D01*
X0375634Y0302049D01*
X0375762Y0301953D01*
X0375888Y0301853D01*
X0376012Y0301750D01*
X0376133Y0301645D01*
X0376252Y0301536D01*
X0376368Y0301425D01*
X0376481Y0301310D01*
X0376591Y0301193D01*
X0376698Y0301073D01*
X0376802Y0300951D01*
X0376903Y0300826D01*
X0377001Y0300698D01*
X0377096Y0300568D01*
X0377188Y0300436D01*
X0377276Y0300302D01*
X0377361Y0300165D01*
X0377443Y0300027D01*
X0377521Y0299886D01*
X0377595Y0299744D01*
X0377666Y0299600D01*
X0377734Y0299454D01*
X0377797Y0299306D01*
X0377858Y0299157D01*
X0377914Y0299006D01*
X0377967Y0298854D01*
X0378016Y0298701D01*
X0378061Y0298547D01*
X0378102Y0298392D01*
X0378140Y0298235D01*
X0378173Y0298078D01*
X0378203Y0297920D01*
X0378229Y0297761D01*
X0378250Y0297602D01*
X0378268Y0297442D01*
X0378282Y0297282D01*
X0378292Y0297121D01*
X0378298Y0296961D01*
X0378300Y0296800D01*
X0378298Y0296639D01*
X0378292Y0296479D01*
X0378282Y0296318D01*
X0378268Y0296158D01*
X0378250Y0295998D01*
X0378229Y0295839D01*
X0378203Y0295680D01*
X0378173Y0295522D01*
X0378140Y0295365D01*
X0378102Y0295208D01*
X0378061Y0295053D01*
X0378016Y0294899D01*
X0377967Y0294746D01*
X0377914Y0294594D01*
X0377858Y0294443D01*
X0377797Y0294294D01*
X0377734Y0294146D01*
X0377666Y0294000D01*
X0377595Y0293856D01*
X0377521Y0293714D01*
X0377443Y0293573D01*
X0377361Y0293435D01*
X0377276Y0293298D01*
X0377188Y0293164D01*
X0377096Y0293032D01*
X0377001Y0292902D01*
X0376903Y0292774D01*
X0376802Y0292649D01*
X0376698Y0292527D01*
X0376591Y0292407D01*
X0376481Y0292290D01*
X0376368Y0292175D01*
X0376252Y0292064D01*
X0376133Y0291955D01*
X0376012Y0291850D01*
X0375888Y0291747D01*
X0375762Y0291647D01*
X0375634Y0291551D01*
X0375503Y0291458D01*
X0375369Y0291368D01*
X0375234Y0291281D01*
X0375096Y0291198D01*
X0374957Y0291118D01*
X0374815Y0291042D01*
X0374672Y0290969D01*
X0374527Y0290900D01*
X0374380Y0290834D01*
X0374232Y0290772D01*
X0374082Y0290714D01*
X0373931Y0290659D01*
X0373778Y0290608D01*
X0373624Y0290561D01*
X0373469Y0290518D01*
X0373313Y0290479D01*
X0373157Y0290443D01*
X0372999Y0290412D01*
X0372841Y0290384D01*
X0372682Y0290360D01*
X0372522Y0290340D01*
X0372362Y0290324D01*
X0372202Y0290312D01*
X0372041Y0290304D01*
X0371880Y0290300D01*
X0371720Y0290300D01*
X0371559Y0290304D01*
X0371398Y0290312D01*
X0371238Y0290324D01*
X0371078Y0290340D01*
X0370918Y0290360D01*
X0370759Y0290384D01*
X0370601Y0290412D01*
X0370443Y0290443D01*
X0370287Y0290479D01*
X0370131Y0290518D01*
X0369976Y0290561D01*
X0369822Y0290608D01*
X0369669Y0290659D01*
X0369518Y0290714D01*
X0369368Y0290772D01*
X0369220Y0290834D01*
X0369073Y0290900D01*
X0368928Y0290969D01*
X0368785Y0291042D01*
X0368643Y0291118D01*
X0368504Y0291198D01*
X0368366Y0291281D01*
X0368231Y0291368D01*
X0368097Y0291458D01*
X0367966Y0291551D01*
X0367838Y0291647D01*
X0367712Y0291747D01*
X0367588Y0291850D01*
X0367467Y0291955D01*
X0367348Y0292064D01*
X0367232Y0292175D01*
X0367119Y0292290D01*
X0367009Y0292407D01*
X0366902Y0292527D01*
X0366798Y0292649D01*
X0366697Y0292774D01*
X0366599Y0292902D01*
X0366504Y0293032D01*
X0366412Y0293164D01*
X0366324Y0293298D01*
X0366239Y0293435D01*
X0366157Y0293573D01*
X0366079Y0293714D01*
X0366005Y0293856D01*
X0365934Y0294000D01*
X0365866Y0294146D01*
X0365803Y0294294D01*
X0365742Y0294443D01*
X0365686Y0294594D01*
X0365633Y0294746D01*
X0365584Y0294899D01*
X0365539Y0295053D01*
X0365498Y0295208D01*
X0365460Y0295365D01*
X0365427Y0295522D01*
X0365397Y0295680D01*
X0365371Y0295839D01*
X0365350Y0295998D01*
X0365332Y0296158D01*
X0365318Y0296318D01*
X0365308Y0296479D01*
X0365302Y0296639D01*
X0365300Y0296800D01*
X0367942Y0131800D02*
X0367944Y0131993D01*
X0367951Y0132186D01*
X0367963Y0132379D01*
X0367980Y0132572D01*
X0368001Y0132764D01*
X0368027Y0132955D01*
X0368058Y0133146D01*
X0368093Y0133336D01*
X0368133Y0133525D01*
X0368178Y0133713D01*
X0368227Y0133900D01*
X0368281Y0134086D01*
X0368339Y0134270D01*
X0368402Y0134453D01*
X0368470Y0134634D01*
X0368541Y0134813D01*
X0368618Y0134991D01*
X0368698Y0135167D01*
X0368783Y0135340D01*
X0368872Y0135512D01*
X0368965Y0135681D01*
X0369062Y0135848D01*
X0369164Y0136013D01*
X0369269Y0136175D01*
X0369378Y0136334D01*
X0369492Y0136491D01*
X0369609Y0136644D01*
X0369729Y0136795D01*
X0369854Y0136943D01*
X0369982Y0137088D01*
X0370113Y0137229D01*
X0370248Y0137368D01*
X0370387Y0137503D01*
X0370528Y0137634D01*
X0370673Y0137762D01*
X0370821Y0137887D01*
X0370972Y0138007D01*
X0371125Y0138124D01*
X0371282Y0138238D01*
X0371441Y0138347D01*
X0371603Y0138452D01*
X0371768Y0138554D01*
X0371935Y0138651D01*
X0372104Y0138744D01*
X0372276Y0138833D01*
X0372449Y0138918D01*
X0372625Y0138998D01*
X0372803Y0139075D01*
X0372982Y0139146D01*
X0373163Y0139214D01*
X0373346Y0139277D01*
X0373530Y0139335D01*
X0373716Y0139389D01*
X0373903Y0139438D01*
X0374091Y0139483D01*
X0374280Y0139523D01*
X0374470Y0139558D01*
X0374661Y0139589D01*
X0374852Y0139615D01*
X0375044Y0139636D01*
X0375237Y0139653D01*
X0375430Y0139665D01*
X0375623Y0139672D01*
X0375816Y0139674D01*
X0376009Y0139672D01*
X0376202Y0139665D01*
X0376395Y0139653D01*
X0376588Y0139636D01*
X0376780Y0139615D01*
X0376971Y0139589D01*
X0377162Y0139558D01*
X0377352Y0139523D01*
X0377541Y0139483D01*
X0377729Y0139438D01*
X0377916Y0139389D01*
X0378102Y0139335D01*
X0378286Y0139277D01*
X0378469Y0139214D01*
X0378650Y0139146D01*
X0378829Y0139075D01*
X0379007Y0138998D01*
X0379183Y0138918D01*
X0379356Y0138833D01*
X0379528Y0138744D01*
X0379697Y0138651D01*
X0379864Y0138554D01*
X0380029Y0138452D01*
X0380191Y0138347D01*
X0380350Y0138238D01*
X0380507Y0138124D01*
X0380660Y0138007D01*
X0380811Y0137887D01*
X0380959Y0137762D01*
X0381104Y0137634D01*
X0381245Y0137503D01*
X0381384Y0137368D01*
X0381519Y0137229D01*
X0381650Y0137088D01*
X0381778Y0136943D01*
X0381903Y0136795D01*
X0382023Y0136644D01*
X0382140Y0136491D01*
X0382254Y0136334D01*
X0382363Y0136175D01*
X0382468Y0136013D01*
X0382570Y0135848D01*
X0382667Y0135681D01*
X0382760Y0135512D01*
X0382849Y0135340D01*
X0382934Y0135167D01*
X0383014Y0134991D01*
X0383091Y0134813D01*
X0383162Y0134634D01*
X0383230Y0134453D01*
X0383293Y0134270D01*
X0383351Y0134086D01*
X0383405Y0133900D01*
X0383454Y0133713D01*
X0383499Y0133525D01*
X0383539Y0133336D01*
X0383574Y0133146D01*
X0383605Y0132955D01*
X0383631Y0132764D01*
X0383652Y0132572D01*
X0383669Y0132379D01*
X0383681Y0132186D01*
X0383688Y0131993D01*
X0383690Y0131800D01*
X0383688Y0131607D01*
X0383681Y0131414D01*
X0383669Y0131221D01*
X0383652Y0131028D01*
X0383631Y0130836D01*
X0383605Y0130645D01*
X0383574Y0130454D01*
X0383539Y0130264D01*
X0383499Y0130075D01*
X0383454Y0129887D01*
X0383405Y0129700D01*
X0383351Y0129514D01*
X0383293Y0129330D01*
X0383230Y0129147D01*
X0383162Y0128966D01*
X0383091Y0128787D01*
X0383014Y0128609D01*
X0382934Y0128433D01*
X0382849Y0128260D01*
X0382760Y0128088D01*
X0382667Y0127919D01*
X0382570Y0127752D01*
X0382468Y0127587D01*
X0382363Y0127425D01*
X0382254Y0127266D01*
X0382140Y0127109D01*
X0382023Y0126956D01*
X0381903Y0126805D01*
X0381778Y0126657D01*
X0381650Y0126512D01*
X0381519Y0126371D01*
X0381384Y0126232D01*
X0381245Y0126097D01*
X0381104Y0125966D01*
X0380959Y0125838D01*
X0380811Y0125713D01*
X0380660Y0125593D01*
X0380507Y0125476D01*
X0380350Y0125362D01*
X0380191Y0125253D01*
X0380029Y0125148D01*
X0379864Y0125046D01*
X0379697Y0124949D01*
X0379528Y0124856D01*
X0379356Y0124767D01*
X0379183Y0124682D01*
X0379007Y0124602D01*
X0378829Y0124525D01*
X0378650Y0124454D01*
X0378469Y0124386D01*
X0378286Y0124323D01*
X0378102Y0124265D01*
X0377916Y0124211D01*
X0377729Y0124162D01*
X0377541Y0124117D01*
X0377352Y0124077D01*
X0377162Y0124042D01*
X0376971Y0124011D01*
X0376780Y0123985D01*
X0376588Y0123964D01*
X0376395Y0123947D01*
X0376202Y0123935D01*
X0376009Y0123928D01*
X0375816Y0123926D01*
X0375623Y0123928D01*
X0375430Y0123935D01*
X0375237Y0123947D01*
X0375044Y0123964D01*
X0374852Y0123985D01*
X0374661Y0124011D01*
X0374470Y0124042D01*
X0374280Y0124077D01*
X0374091Y0124117D01*
X0373903Y0124162D01*
X0373716Y0124211D01*
X0373530Y0124265D01*
X0373346Y0124323D01*
X0373163Y0124386D01*
X0372982Y0124454D01*
X0372803Y0124525D01*
X0372625Y0124602D01*
X0372449Y0124682D01*
X0372276Y0124767D01*
X0372104Y0124856D01*
X0371935Y0124949D01*
X0371768Y0125046D01*
X0371603Y0125148D01*
X0371441Y0125253D01*
X0371282Y0125362D01*
X0371125Y0125476D01*
X0370972Y0125593D01*
X0370821Y0125713D01*
X0370673Y0125838D01*
X0370528Y0125966D01*
X0370387Y0126097D01*
X0370248Y0126232D01*
X0370113Y0126371D01*
X0369982Y0126512D01*
X0369854Y0126657D01*
X0369729Y0126805D01*
X0369609Y0126956D01*
X0369492Y0127109D01*
X0369378Y0127266D01*
X0369269Y0127425D01*
X0369164Y0127587D01*
X0369062Y0127752D01*
X0368965Y0127919D01*
X0368872Y0128088D01*
X0368783Y0128260D01*
X0368698Y0128433D01*
X0368618Y0128609D01*
X0368541Y0128787D01*
X0368470Y0128966D01*
X0368402Y0129147D01*
X0368339Y0129330D01*
X0368281Y0129514D01*
X0368227Y0129700D01*
X0368178Y0129887D01*
X0368133Y0130075D01*
X0368093Y0130264D01*
X0368058Y0130454D01*
X0368027Y0130645D01*
X0368001Y0130836D01*
X0367980Y0131028D01*
X0367963Y0131221D01*
X0367951Y0131414D01*
X0367944Y0131607D01*
X0367942Y0131800D01*
X0367942Y0061800D02*
X0367944Y0061993D01*
X0367951Y0062186D01*
X0367963Y0062379D01*
X0367980Y0062572D01*
X0368001Y0062764D01*
X0368027Y0062955D01*
X0368058Y0063146D01*
X0368093Y0063336D01*
X0368133Y0063525D01*
X0368178Y0063713D01*
X0368227Y0063900D01*
X0368281Y0064086D01*
X0368339Y0064270D01*
X0368402Y0064453D01*
X0368470Y0064634D01*
X0368541Y0064813D01*
X0368618Y0064991D01*
X0368698Y0065167D01*
X0368783Y0065340D01*
X0368872Y0065512D01*
X0368965Y0065681D01*
X0369062Y0065848D01*
X0369164Y0066013D01*
X0369269Y0066175D01*
X0369378Y0066334D01*
X0369492Y0066491D01*
X0369609Y0066644D01*
X0369729Y0066795D01*
X0369854Y0066943D01*
X0369982Y0067088D01*
X0370113Y0067229D01*
X0370248Y0067368D01*
X0370387Y0067503D01*
X0370528Y0067634D01*
X0370673Y0067762D01*
X0370821Y0067887D01*
X0370972Y0068007D01*
X0371125Y0068124D01*
X0371282Y0068238D01*
X0371441Y0068347D01*
X0371603Y0068452D01*
X0371768Y0068554D01*
X0371935Y0068651D01*
X0372104Y0068744D01*
X0372276Y0068833D01*
X0372449Y0068918D01*
X0372625Y0068998D01*
X0372803Y0069075D01*
X0372982Y0069146D01*
X0373163Y0069214D01*
X0373346Y0069277D01*
X0373530Y0069335D01*
X0373716Y0069389D01*
X0373903Y0069438D01*
X0374091Y0069483D01*
X0374280Y0069523D01*
X0374470Y0069558D01*
X0374661Y0069589D01*
X0374852Y0069615D01*
X0375044Y0069636D01*
X0375237Y0069653D01*
X0375430Y0069665D01*
X0375623Y0069672D01*
X0375816Y0069674D01*
X0376009Y0069672D01*
X0376202Y0069665D01*
X0376395Y0069653D01*
X0376588Y0069636D01*
X0376780Y0069615D01*
X0376971Y0069589D01*
X0377162Y0069558D01*
X0377352Y0069523D01*
X0377541Y0069483D01*
X0377729Y0069438D01*
X0377916Y0069389D01*
X0378102Y0069335D01*
X0378286Y0069277D01*
X0378469Y0069214D01*
X0378650Y0069146D01*
X0378829Y0069075D01*
X0379007Y0068998D01*
X0379183Y0068918D01*
X0379356Y0068833D01*
X0379528Y0068744D01*
X0379697Y0068651D01*
X0379864Y0068554D01*
X0380029Y0068452D01*
X0380191Y0068347D01*
X0380350Y0068238D01*
X0380507Y0068124D01*
X0380660Y0068007D01*
X0380811Y0067887D01*
X0380959Y0067762D01*
X0381104Y0067634D01*
X0381245Y0067503D01*
X0381384Y0067368D01*
X0381519Y0067229D01*
X0381650Y0067088D01*
X0381778Y0066943D01*
X0381903Y0066795D01*
X0382023Y0066644D01*
X0382140Y0066491D01*
X0382254Y0066334D01*
X0382363Y0066175D01*
X0382468Y0066013D01*
X0382570Y0065848D01*
X0382667Y0065681D01*
X0382760Y0065512D01*
X0382849Y0065340D01*
X0382934Y0065167D01*
X0383014Y0064991D01*
X0383091Y0064813D01*
X0383162Y0064634D01*
X0383230Y0064453D01*
X0383293Y0064270D01*
X0383351Y0064086D01*
X0383405Y0063900D01*
X0383454Y0063713D01*
X0383499Y0063525D01*
X0383539Y0063336D01*
X0383574Y0063146D01*
X0383605Y0062955D01*
X0383631Y0062764D01*
X0383652Y0062572D01*
X0383669Y0062379D01*
X0383681Y0062186D01*
X0383688Y0061993D01*
X0383690Y0061800D01*
X0383688Y0061607D01*
X0383681Y0061414D01*
X0383669Y0061221D01*
X0383652Y0061028D01*
X0383631Y0060836D01*
X0383605Y0060645D01*
X0383574Y0060454D01*
X0383539Y0060264D01*
X0383499Y0060075D01*
X0383454Y0059887D01*
X0383405Y0059700D01*
X0383351Y0059514D01*
X0383293Y0059330D01*
X0383230Y0059147D01*
X0383162Y0058966D01*
X0383091Y0058787D01*
X0383014Y0058609D01*
X0382934Y0058433D01*
X0382849Y0058260D01*
X0382760Y0058088D01*
X0382667Y0057919D01*
X0382570Y0057752D01*
X0382468Y0057587D01*
X0382363Y0057425D01*
X0382254Y0057266D01*
X0382140Y0057109D01*
X0382023Y0056956D01*
X0381903Y0056805D01*
X0381778Y0056657D01*
X0381650Y0056512D01*
X0381519Y0056371D01*
X0381384Y0056232D01*
X0381245Y0056097D01*
X0381104Y0055966D01*
X0380959Y0055838D01*
X0380811Y0055713D01*
X0380660Y0055593D01*
X0380507Y0055476D01*
X0380350Y0055362D01*
X0380191Y0055253D01*
X0380029Y0055148D01*
X0379864Y0055046D01*
X0379697Y0054949D01*
X0379528Y0054856D01*
X0379356Y0054767D01*
X0379183Y0054682D01*
X0379007Y0054602D01*
X0378829Y0054525D01*
X0378650Y0054454D01*
X0378469Y0054386D01*
X0378286Y0054323D01*
X0378102Y0054265D01*
X0377916Y0054211D01*
X0377729Y0054162D01*
X0377541Y0054117D01*
X0377352Y0054077D01*
X0377162Y0054042D01*
X0376971Y0054011D01*
X0376780Y0053985D01*
X0376588Y0053964D01*
X0376395Y0053947D01*
X0376202Y0053935D01*
X0376009Y0053928D01*
X0375816Y0053926D01*
X0375623Y0053928D01*
X0375430Y0053935D01*
X0375237Y0053947D01*
X0375044Y0053964D01*
X0374852Y0053985D01*
X0374661Y0054011D01*
X0374470Y0054042D01*
X0374280Y0054077D01*
X0374091Y0054117D01*
X0373903Y0054162D01*
X0373716Y0054211D01*
X0373530Y0054265D01*
X0373346Y0054323D01*
X0373163Y0054386D01*
X0372982Y0054454D01*
X0372803Y0054525D01*
X0372625Y0054602D01*
X0372449Y0054682D01*
X0372276Y0054767D01*
X0372104Y0054856D01*
X0371935Y0054949D01*
X0371768Y0055046D01*
X0371603Y0055148D01*
X0371441Y0055253D01*
X0371282Y0055362D01*
X0371125Y0055476D01*
X0370972Y0055593D01*
X0370821Y0055713D01*
X0370673Y0055838D01*
X0370528Y0055966D01*
X0370387Y0056097D01*
X0370248Y0056232D01*
X0370113Y0056371D01*
X0369982Y0056512D01*
X0369854Y0056657D01*
X0369729Y0056805D01*
X0369609Y0056956D01*
X0369492Y0057109D01*
X0369378Y0057266D01*
X0369269Y0057425D01*
X0369164Y0057587D01*
X0369062Y0057752D01*
X0368965Y0057919D01*
X0368872Y0058088D01*
X0368783Y0058260D01*
X0368698Y0058433D01*
X0368618Y0058609D01*
X0368541Y0058787D01*
X0368470Y0058966D01*
X0368402Y0059147D01*
X0368339Y0059330D01*
X0368281Y0059514D01*
X0368227Y0059700D01*
X0368178Y0059887D01*
X0368133Y0060075D01*
X0368093Y0060264D01*
X0368058Y0060454D01*
X0368027Y0060645D01*
X0368001Y0060836D01*
X0367980Y0061028D01*
X0367963Y0061221D01*
X0367951Y0061414D01*
X0367944Y0061607D01*
X0367942Y0061800D01*
X0370300Y0021800D02*
X0370302Y0021961D01*
X0370308Y0022121D01*
X0370318Y0022282D01*
X0370332Y0022442D01*
X0370350Y0022602D01*
X0370371Y0022761D01*
X0370397Y0022920D01*
X0370427Y0023078D01*
X0370460Y0023235D01*
X0370498Y0023392D01*
X0370539Y0023547D01*
X0370584Y0023701D01*
X0370633Y0023854D01*
X0370686Y0024006D01*
X0370742Y0024157D01*
X0370803Y0024306D01*
X0370866Y0024454D01*
X0370934Y0024600D01*
X0371005Y0024744D01*
X0371079Y0024886D01*
X0371157Y0025027D01*
X0371239Y0025165D01*
X0371324Y0025302D01*
X0371412Y0025436D01*
X0371504Y0025568D01*
X0371599Y0025698D01*
X0371697Y0025826D01*
X0371798Y0025951D01*
X0371902Y0026073D01*
X0372009Y0026193D01*
X0372119Y0026310D01*
X0372232Y0026425D01*
X0372348Y0026536D01*
X0372467Y0026645D01*
X0372588Y0026750D01*
X0372712Y0026853D01*
X0372838Y0026953D01*
X0372966Y0027049D01*
X0373097Y0027142D01*
X0373231Y0027232D01*
X0373366Y0027319D01*
X0373504Y0027402D01*
X0373643Y0027482D01*
X0373785Y0027558D01*
X0373928Y0027631D01*
X0374073Y0027700D01*
X0374220Y0027766D01*
X0374368Y0027828D01*
X0374518Y0027886D01*
X0374669Y0027941D01*
X0374822Y0027992D01*
X0374976Y0028039D01*
X0375131Y0028082D01*
X0375287Y0028121D01*
X0375443Y0028157D01*
X0375601Y0028188D01*
X0375759Y0028216D01*
X0375918Y0028240D01*
X0376078Y0028260D01*
X0376238Y0028276D01*
X0376398Y0028288D01*
X0376559Y0028296D01*
X0376720Y0028300D01*
X0376880Y0028300D01*
X0377041Y0028296D01*
X0377202Y0028288D01*
X0377362Y0028276D01*
X0377522Y0028260D01*
X0377682Y0028240D01*
X0377841Y0028216D01*
X0377999Y0028188D01*
X0378157Y0028157D01*
X0378313Y0028121D01*
X0378469Y0028082D01*
X0378624Y0028039D01*
X0378778Y0027992D01*
X0378931Y0027941D01*
X0379082Y0027886D01*
X0379232Y0027828D01*
X0379380Y0027766D01*
X0379527Y0027700D01*
X0379672Y0027631D01*
X0379815Y0027558D01*
X0379957Y0027482D01*
X0380096Y0027402D01*
X0380234Y0027319D01*
X0380369Y0027232D01*
X0380503Y0027142D01*
X0380634Y0027049D01*
X0380762Y0026953D01*
X0380888Y0026853D01*
X0381012Y0026750D01*
X0381133Y0026645D01*
X0381252Y0026536D01*
X0381368Y0026425D01*
X0381481Y0026310D01*
X0381591Y0026193D01*
X0381698Y0026073D01*
X0381802Y0025951D01*
X0381903Y0025826D01*
X0382001Y0025698D01*
X0382096Y0025568D01*
X0382188Y0025436D01*
X0382276Y0025302D01*
X0382361Y0025165D01*
X0382443Y0025027D01*
X0382521Y0024886D01*
X0382595Y0024744D01*
X0382666Y0024600D01*
X0382734Y0024454D01*
X0382797Y0024306D01*
X0382858Y0024157D01*
X0382914Y0024006D01*
X0382967Y0023854D01*
X0383016Y0023701D01*
X0383061Y0023547D01*
X0383102Y0023392D01*
X0383140Y0023235D01*
X0383173Y0023078D01*
X0383203Y0022920D01*
X0383229Y0022761D01*
X0383250Y0022602D01*
X0383268Y0022442D01*
X0383282Y0022282D01*
X0383292Y0022121D01*
X0383298Y0021961D01*
X0383300Y0021800D01*
X0383298Y0021639D01*
X0383292Y0021479D01*
X0383282Y0021318D01*
X0383268Y0021158D01*
X0383250Y0020998D01*
X0383229Y0020839D01*
X0383203Y0020680D01*
X0383173Y0020522D01*
X0383140Y0020365D01*
X0383102Y0020208D01*
X0383061Y0020053D01*
X0383016Y0019899D01*
X0382967Y0019746D01*
X0382914Y0019594D01*
X0382858Y0019443D01*
X0382797Y0019294D01*
X0382734Y0019146D01*
X0382666Y0019000D01*
X0382595Y0018856D01*
X0382521Y0018714D01*
X0382443Y0018573D01*
X0382361Y0018435D01*
X0382276Y0018298D01*
X0382188Y0018164D01*
X0382096Y0018032D01*
X0382001Y0017902D01*
X0381903Y0017774D01*
X0381802Y0017649D01*
X0381698Y0017527D01*
X0381591Y0017407D01*
X0381481Y0017290D01*
X0381368Y0017175D01*
X0381252Y0017064D01*
X0381133Y0016955D01*
X0381012Y0016850D01*
X0380888Y0016747D01*
X0380762Y0016647D01*
X0380634Y0016551D01*
X0380503Y0016458D01*
X0380369Y0016368D01*
X0380234Y0016281D01*
X0380096Y0016198D01*
X0379957Y0016118D01*
X0379815Y0016042D01*
X0379672Y0015969D01*
X0379527Y0015900D01*
X0379380Y0015834D01*
X0379232Y0015772D01*
X0379082Y0015714D01*
X0378931Y0015659D01*
X0378778Y0015608D01*
X0378624Y0015561D01*
X0378469Y0015518D01*
X0378313Y0015479D01*
X0378157Y0015443D01*
X0377999Y0015412D01*
X0377841Y0015384D01*
X0377682Y0015360D01*
X0377522Y0015340D01*
X0377362Y0015324D01*
X0377202Y0015312D01*
X0377041Y0015304D01*
X0376880Y0015300D01*
X0376720Y0015300D01*
X0376559Y0015304D01*
X0376398Y0015312D01*
X0376238Y0015324D01*
X0376078Y0015340D01*
X0375918Y0015360D01*
X0375759Y0015384D01*
X0375601Y0015412D01*
X0375443Y0015443D01*
X0375287Y0015479D01*
X0375131Y0015518D01*
X0374976Y0015561D01*
X0374822Y0015608D01*
X0374669Y0015659D01*
X0374518Y0015714D01*
X0374368Y0015772D01*
X0374220Y0015834D01*
X0374073Y0015900D01*
X0373928Y0015969D01*
X0373785Y0016042D01*
X0373643Y0016118D01*
X0373504Y0016198D01*
X0373366Y0016281D01*
X0373231Y0016368D01*
X0373097Y0016458D01*
X0372966Y0016551D01*
X0372838Y0016647D01*
X0372712Y0016747D01*
X0372588Y0016850D01*
X0372467Y0016955D01*
X0372348Y0017064D01*
X0372232Y0017175D01*
X0372119Y0017290D01*
X0372009Y0017407D01*
X0371902Y0017527D01*
X0371798Y0017649D01*
X0371697Y0017774D01*
X0371599Y0017902D01*
X0371504Y0018032D01*
X0371412Y0018164D01*
X0371324Y0018298D01*
X0371239Y0018435D01*
X0371157Y0018573D01*
X0371079Y0018714D01*
X0371005Y0018856D01*
X0370934Y0019000D01*
X0370866Y0019146D01*
X0370803Y0019294D01*
X0370742Y0019443D01*
X0370686Y0019594D01*
X0370633Y0019746D01*
X0370584Y0019899D01*
X0370539Y0020053D01*
X0370498Y0020208D01*
X0370460Y0020365D01*
X0370427Y0020522D01*
X0370397Y0020680D01*
X0370371Y0020839D01*
X0370350Y0020998D01*
X0370332Y0021158D01*
X0370318Y0021318D01*
X0370308Y0021479D01*
X0370302Y0021639D01*
X0370300Y0021800D01*
D11*
X0247800Y0127300D03*
X0237800Y0127300D03*
X0197800Y0111800D03*
X0187800Y0111800D03*
X0143800Y0127800D03*
X0133800Y0127800D03*
X0157800Y0159800D03*
X0167800Y0159800D03*
X0187800Y0151800D03*
X0197800Y0151800D03*
X0216800Y0160800D03*
X0226800Y0160800D03*
X0234800Y0180300D03*
X0244800Y0180300D03*
X0270300Y0161300D03*
X0280300Y0161300D03*
X0281800Y0206300D03*
X0291800Y0206300D03*
X0251800Y0206800D03*
X0241800Y0206800D03*
X0244800Y0233800D03*
X0234800Y0233800D03*
X0224800Y0254300D03*
X0214800Y0254300D03*
X0196800Y0261800D03*
X0186800Y0261800D03*
X0169800Y0254800D03*
X0159800Y0254800D03*
X0149300Y0234800D03*
X0139300Y0234800D03*
X0113300Y0252300D03*
X0103300Y0252300D03*
X0138800Y0288800D03*
X0148800Y0288800D03*
X0186800Y0301800D03*
X0196800Y0301800D03*
X0238800Y0286300D03*
X0248800Y0286300D03*
X0273300Y0246300D03*
X0283300Y0246300D03*
X0148300Y0180800D03*
X0138300Y0180800D03*
X0111800Y0164300D03*
X0101800Y0164300D03*
X0101800Y0205800D03*
X0091800Y0205800D03*
X0131800Y0206800D03*
X0141800Y0206800D03*
D12*
X0321800Y0144400D03*
X0321800Y0131800D03*
X0321800Y0119200D03*
X0321800Y0044400D03*
X0321800Y0031800D03*
X0321800Y0019200D03*
D13*
X0346918Y0053650D03*
X0346918Y0069950D03*
X0346918Y0123650D03*
X0346918Y0139950D03*
D14*
X0281800Y0091800D03*
X0276800Y0099300D03*
X0271800Y0091800D03*
X0126800Y0096800D03*
X0121800Y0089300D03*
X0116800Y0096800D03*
D15*
X0101800Y0066800D03*
X0071800Y0051800D03*
X0101800Y0031800D03*
X0136800Y0046800D03*
X0176800Y0071800D03*
X0231800Y0071800D03*
X0251800Y0071800D03*
X0281800Y0066800D03*
X0306800Y0066800D03*
X0311800Y0106800D03*
X0231800Y0041800D03*
D16*
X0231800Y0071800D01*
X0232997Y0074689D02*
X0243775Y0063911D01*
X0282997Y0063911D01*
X0285886Y0066800D01*
X0306800Y0066800D01*
X0281800Y0066800D02*
X0256800Y0066800D01*
X0251800Y0071800D01*
X0232997Y0074689D02*
X0108911Y0074689D01*
X0108911Y0088911D01*
X0116800Y0096800D01*
X0133800Y0127800D02*
X0149800Y0111800D01*
X0187800Y0111800D01*
X0190587Y0111800D01*
X0195687Y0106700D01*
X0199912Y0106700D01*
X0220512Y0127300D01*
X0237800Y0127300D01*
X0258300Y0106800D01*
X0311800Y0106800D01*
X0321800Y0131800D02*
X0338769Y0131800D01*
X0346918Y0123650D01*
X0323650Y0133650D02*
X0321800Y0131800D01*
X0280300Y0161300D02*
X0280300Y0204800D01*
X0281744Y0206244D01*
X0283300Y0207800D01*
X0283300Y0246300D01*
X0280513Y0246300D01*
X0275413Y0251400D01*
X0273700Y0251400D01*
X0238800Y0286300D01*
X0202300Y0286300D01*
X0186800Y0301800D01*
X0151800Y0301800D01*
X0138800Y0288800D01*
X0138800Y0277800D01*
X0113300Y0252300D01*
X0113300Y0217300D01*
X0101800Y0205800D01*
X0091800Y0205800D02*
X0091800Y0184300D01*
X0111800Y0164300D01*
X0111800Y0159800D01*
X0143800Y0127800D01*
X0181800Y0127800D01*
X0197800Y0111800D01*
X0197800Y0151800D02*
X0216800Y0151800D01*
X0225800Y0160800D01*
X0226800Y0160800D01*
X0234800Y0168800D01*
X0234800Y0180300D01*
X0241800Y0187300D01*
X0241800Y0206800D01*
X0251800Y0206800D02*
X0251800Y0187300D01*
X0244800Y0180300D01*
X0270300Y0161300D02*
X0270300Y0243300D01*
X0273300Y0246300D01*
X0234800Y0233800D02*
X0234800Y0223800D01*
X0251800Y0206800D01*
X0281744Y0206244D02*
X0281800Y0206300D01*
X0234800Y0233800D02*
X0214800Y0253800D01*
X0214800Y0254300D01*
X0212400Y0256700D01*
X0194687Y0256700D01*
X0189587Y0261800D01*
X0186800Y0261800D01*
X0174700Y0249700D01*
X0167688Y0249700D01*
X0162588Y0254800D01*
X0159800Y0254800D01*
X0149300Y0244300D01*
X0149300Y0234800D01*
X0141800Y0227300D01*
X0141800Y0206800D01*
X0131800Y0206800D02*
X0131800Y0227300D01*
X0139300Y0234800D01*
X0131800Y0206800D02*
X0148300Y0190300D01*
X0148300Y0180800D01*
X0167800Y0161300D01*
X0167800Y0159800D01*
X0165800Y0151800D02*
X0157800Y0159800D01*
X0157800Y0161300D01*
X0138300Y0180800D01*
X0165800Y0151800D02*
X0187800Y0151800D01*
X0196800Y0160800D01*
X0216800Y0160800D01*
X0247800Y0138800D02*
X0270300Y0161300D01*
X0247800Y0138800D02*
X0247800Y0127300D01*
X0176800Y0071800D02*
X0229400Y0019200D01*
X0321800Y0019200D01*
X0325068Y0031800D02*
X0346918Y0053650D01*
X0133800Y0127800D02*
X0133800Y0132300D01*
X0101800Y0164300D01*
X0091800Y0205800D02*
X0103300Y0217300D01*
X0103300Y0252300D01*
X0101800Y0066800D02*
X0101800Y0031800D01*
D17*
X0103989Y0031726D02*
X0214470Y0031726D01*
X0213872Y0032324D02*
X0103989Y0032324D01*
X0103989Y0032707D02*
X0103500Y0033196D01*
X0103500Y0065404D01*
X0103989Y0065893D01*
X0103989Y0067707D01*
X0102707Y0068989D01*
X0100893Y0068989D01*
X0099611Y0067707D01*
X0099611Y0065893D01*
X0100100Y0065404D01*
X0100100Y0033196D01*
X0099611Y0032707D01*
X0099611Y0030893D01*
X0100893Y0029611D01*
X0102707Y0029611D01*
X0103989Y0030893D01*
X0103989Y0032707D01*
X0103773Y0032923D02*
X0213273Y0032923D01*
X0212675Y0033521D02*
X0103500Y0033521D01*
X0103500Y0034120D02*
X0212076Y0034120D01*
X0211478Y0034718D02*
X0103500Y0034718D01*
X0103500Y0035317D02*
X0210879Y0035317D01*
X0210281Y0035915D02*
X0103500Y0035915D01*
X0103500Y0036514D02*
X0209682Y0036514D01*
X0209084Y0037112D02*
X0103500Y0037112D01*
X0103500Y0037711D02*
X0208485Y0037711D01*
X0207887Y0038309D02*
X0103500Y0038309D01*
X0103500Y0038908D02*
X0207288Y0038908D01*
X0206690Y0039506D02*
X0103500Y0039506D01*
X0103500Y0040105D02*
X0206091Y0040105D01*
X0205493Y0040703D02*
X0103500Y0040703D01*
X0103500Y0041302D02*
X0204894Y0041302D01*
X0204296Y0041900D02*
X0103500Y0041900D01*
X0103500Y0042499D02*
X0203697Y0042499D01*
X0203099Y0043097D02*
X0103500Y0043097D01*
X0103500Y0043696D02*
X0202500Y0043696D01*
X0201902Y0044294D02*
X0103500Y0044294D01*
X0103500Y0044893D02*
X0201303Y0044893D01*
X0200705Y0045491D02*
X0103500Y0045491D01*
X0103500Y0046090D02*
X0200106Y0046090D01*
X0199507Y0046688D02*
X0103500Y0046688D01*
X0103500Y0047287D02*
X0198909Y0047287D01*
X0198310Y0047885D02*
X0103500Y0047885D01*
X0103500Y0048484D02*
X0197712Y0048484D01*
X0197113Y0049082D02*
X0103500Y0049082D01*
X0103500Y0049681D02*
X0196515Y0049681D01*
X0195916Y0050279D02*
X0103500Y0050279D01*
X0103500Y0050878D02*
X0195318Y0050878D01*
X0194719Y0051476D02*
X0103500Y0051476D01*
X0103500Y0052075D02*
X0194121Y0052075D01*
X0193522Y0052673D02*
X0103500Y0052673D01*
X0103500Y0053272D02*
X0192924Y0053272D01*
X0192325Y0053870D02*
X0103500Y0053870D01*
X0103500Y0054469D02*
X0191727Y0054469D01*
X0191128Y0055068D02*
X0103500Y0055068D01*
X0103500Y0055666D02*
X0190530Y0055666D01*
X0189931Y0056265D02*
X0103500Y0056265D01*
X0103500Y0056863D02*
X0189333Y0056863D01*
X0188734Y0057462D02*
X0103500Y0057462D01*
X0103500Y0058060D02*
X0188136Y0058060D01*
X0187537Y0058659D02*
X0103500Y0058659D01*
X0103500Y0059257D02*
X0186939Y0059257D01*
X0186340Y0059856D02*
X0103500Y0059856D01*
X0103500Y0060454D02*
X0185742Y0060454D01*
X0185143Y0061053D02*
X0103500Y0061053D01*
X0103500Y0061651D02*
X0184545Y0061651D01*
X0183946Y0062250D02*
X0103500Y0062250D01*
X0103500Y0062848D02*
X0183348Y0062848D01*
X0182749Y0063447D02*
X0103500Y0063447D01*
X0103500Y0064045D02*
X0182151Y0064045D01*
X0181552Y0064644D02*
X0103500Y0064644D01*
X0103500Y0065242D02*
X0180954Y0065242D01*
X0180355Y0065841D02*
X0103936Y0065841D01*
X0103989Y0066439D02*
X0179757Y0066439D01*
X0179158Y0067038D02*
X0103989Y0067038D01*
X0103989Y0067636D02*
X0178560Y0067636D01*
X0177961Y0068235D02*
X0103461Y0068235D01*
X0102862Y0068833D02*
X0177363Y0068833D01*
X0176764Y0069432D02*
X0085535Y0069432D01*
X0086276Y0070030D02*
X0175474Y0070030D01*
X0175893Y0069611D02*
X0176585Y0069611D01*
X0228696Y0017500D01*
X0317750Y0017500D01*
X0317750Y0015677D01*
X0318277Y0015150D01*
X0325323Y0015150D01*
X0325850Y0015677D01*
X0325850Y0022723D01*
X0325323Y0023250D01*
X0318277Y0023250D01*
X0317750Y0022723D01*
X0317750Y0020900D01*
X0230104Y0020900D01*
X0178989Y0072015D01*
X0178989Y0072707D01*
X0178707Y0072989D01*
X0229893Y0072989D01*
X0229611Y0072707D01*
X0229611Y0070893D01*
X0230100Y0070404D01*
X0230100Y0043196D01*
X0229611Y0042707D01*
X0229611Y0040893D01*
X0230893Y0039611D01*
X0232707Y0039611D01*
X0233989Y0040893D01*
X0233989Y0042707D01*
X0233500Y0043196D01*
X0233500Y0070404D01*
X0233989Y0070893D01*
X0233989Y0071293D01*
X0243070Y0062211D01*
X0283701Y0062211D01*
X0284697Y0063207D01*
X0286590Y0065100D01*
X0305404Y0065100D01*
X0305893Y0064611D01*
X0307707Y0064611D01*
X0308989Y0065893D01*
X0308989Y0067707D01*
X0307707Y0068989D01*
X0305893Y0068989D01*
X0305404Y0068500D01*
X0285181Y0068500D01*
X0283989Y0067307D01*
X0283989Y0067707D01*
X0282707Y0068989D01*
X0280893Y0068989D01*
X0280404Y0068500D01*
X0257504Y0068500D01*
X0253989Y0072015D01*
X0253989Y0072707D01*
X0252707Y0073989D01*
X0250893Y0073989D01*
X0249611Y0072707D01*
X0249611Y0070893D01*
X0250893Y0069611D01*
X0251585Y0069611D01*
X0255585Y0065611D01*
X0244479Y0065611D01*
X0233701Y0076389D01*
X0110611Y0076389D01*
X0110611Y0088207D01*
X0115704Y0093300D01*
X0118250Y0093300D01*
X0120300Y0095350D01*
X0120300Y0097512D01*
X0143193Y0116002D01*
X0149096Y0110100D01*
X0150504Y0110100D01*
X0183525Y0110100D01*
X0183900Y0109194D01*
X0185194Y0107900D01*
X0186885Y0107200D01*
X0188715Y0107200D01*
X0190406Y0107900D01*
X0191244Y0108739D01*
X0194983Y0105000D01*
X0200617Y0105000D01*
X0221217Y0125600D01*
X0233525Y0125600D01*
X0233900Y0124694D01*
X0235194Y0123400D01*
X0236885Y0122700D01*
X0238715Y0122700D01*
X0239621Y0123075D01*
X0257596Y0105100D01*
X0310404Y0105100D01*
X0310893Y0104611D01*
X0312707Y0104611D01*
X0313989Y0105893D01*
X0313989Y0107707D01*
X0312707Y0108989D01*
X0310893Y0108989D01*
X0310404Y0108500D01*
X0259004Y0108500D01*
X0242025Y0125479D01*
X0242400Y0126385D01*
X0242400Y0128215D01*
X0241700Y0129906D01*
X0240406Y0131200D01*
X0238715Y0131900D01*
X0236885Y0131900D01*
X0235194Y0131200D01*
X0233900Y0129906D01*
X0233525Y0129000D01*
X0219808Y0129000D01*
X0202400Y0111592D01*
X0202400Y0112715D01*
X0201700Y0114406D01*
X0200406Y0115700D01*
X0198715Y0116400D01*
X0196885Y0116400D01*
X0195979Y0116025D01*
X0182504Y0129500D01*
X0159905Y0129500D01*
X0184074Y0149021D01*
X0185194Y0147900D01*
X0186885Y0147200D01*
X0188715Y0147200D01*
X0190406Y0147900D01*
X0191700Y0149194D01*
X0192400Y0150885D01*
X0192400Y0152715D01*
X0192025Y0153621D01*
X0197504Y0159100D01*
X0212525Y0159100D01*
X0212900Y0158194D01*
X0214194Y0156900D01*
X0215885Y0156200D01*
X0217715Y0156200D01*
X0219406Y0156900D01*
X0220700Y0158194D01*
X0221400Y0159885D01*
X0221400Y0161715D01*
X0220700Y0163406D01*
X0219406Y0164700D01*
X0217715Y0165400D01*
X0215885Y0165400D01*
X0214194Y0164700D01*
X0212900Y0163406D01*
X0212525Y0162500D01*
X0200762Y0162500D01*
X0240100Y0194273D01*
X0240100Y0188004D01*
X0236621Y0184525D01*
X0235715Y0184900D01*
X0233885Y0184900D01*
X0232194Y0184200D01*
X0230900Y0182906D01*
X0230200Y0181215D01*
X0230200Y0179385D01*
X0230900Y0177694D01*
X0232194Y0176400D01*
X0233100Y0176025D01*
X0233100Y0169504D01*
X0228621Y0165025D01*
X0227715Y0165400D01*
X0225885Y0165400D01*
X0224194Y0164700D01*
X0222900Y0163406D01*
X0222200Y0161715D01*
X0222200Y0159885D01*
X0222282Y0159686D01*
X0216096Y0153500D01*
X0202075Y0153500D01*
X0201700Y0154406D01*
X0200406Y0155700D01*
X0198715Y0156400D01*
X0196885Y0156400D01*
X0195194Y0155700D01*
X0193900Y0154406D01*
X0193200Y0152715D01*
X0193200Y0150885D01*
X0193900Y0149194D01*
X0195194Y0147900D01*
X0196885Y0147200D01*
X0198715Y0147200D01*
X0200406Y0147900D01*
X0201700Y0149194D01*
X0202075Y0150100D01*
X0217504Y0150100D01*
X0218500Y0151096D01*
X0224272Y0156868D01*
X0225885Y0156200D01*
X0227715Y0156200D01*
X0229406Y0156900D01*
X0230700Y0158194D01*
X0231400Y0159885D01*
X0231400Y0161715D01*
X0231025Y0162621D01*
X0236500Y0168096D01*
X0236500Y0176025D01*
X0237406Y0176400D01*
X0238700Y0177694D01*
X0239400Y0179385D01*
X0239400Y0181215D01*
X0239025Y0182121D01*
X0243500Y0186596D01*
X0243500Y0197019D01*
X0250100Y0202350D01*
X0250100Y0188004D01*
X0246621Y0184525D01*
X0245715Y0184900D01*
X0243885Y0184900D01*
X0242194Y0184200D01*
X0240900Y0182906D01*
X0240200Y0181215D01*
X0240200Y0179385D01*
X0240900Y0177694D01*
X0242194Y0176400D01*
X0243885Y0175700D01*
X0245715Y0175700D01*
X0247406Y0176400D01*
X0248700Y0177694D01*
X0249400Y0179385D01*
X0249400Y0181215D01*
X0249025Y0182121D01*
X0253500Y0186596D01*
X0253500Y0202525D01*
X0254406Y0202900D01*
X0255700Y0204194D01*
X0256400Y0205885D01*
X0256400Y0207438D01*
X0268600Y0217292D01*
X0268600Y0165575D01*
X0267694Y0165200D01*
X0266400Y0163906D01*
X0265700Y0162215D01*
X0265700Y0160385D01*
X0266075Y0159479D01*
X0246100Y0139504D01*
X0246100Y0131575D01*
X0245194Y0131200D01*
X0243900Y0129906D01*
X0243200Y0128215D01*
X0243200Y0126385D01*
X0243900Y0124694D01*
X0245194Y0123400D01*
X0246885Y0122700D01*
X0248715Y0122700D01*
X0250406Y0123400D01*
X0251700Y0124694D01*
X0252400Y0126385D01*
X0252400Y0128215D01*
X0251700Y0129906D01*
X0250406Y0131200D01*
X0249500Y0131575D01*
X0249500Y0138096D01*
X0268479Y0157075D01*
X0269385Y0156700D01*
X0271215Y0156700D01*
X0272906Y0157400D01*
X0274200Y0158694D01*
X0274900Y0160385D01*
X0274900Y0162215D01*
X0274200Y0163906D01*
X0272906Y0165200D01*
X0272000Y0165575D01*
X0272000Y0220038D01*
X0281600Y0227792D01*
X0281600Y0210900D01*
X0280885Y0210900D01*
X0279194Y0210200D01*
X0277900Y0208906D01*
X0277200Y0207215D01*
X0277200Y0205385D01*
X0277900Y0203694D01*
X0278600Y0202995D01*
X0278600Y0165575D01*
X0277694Y0165200D01*
X0276400Y0163906D01*
X0275700Y0162215D01*
X0275700Y0160385D01*
X0276400Y0158694D01*
X0277694Y0157400D01*
X0279385Y0156700D01*
X0281215Y0156700D01*
X0282906Y0157400D01*
X0284200Y0158694D01*
X0284900Y0160385D01*
X0284900Y0162215D01*
X0284200Y0163906D01*
X0282906Y0165200D01*
X0282000Y0165575D01*
X0282000Y0201700D01*
X0282715Y0201700D01*
X0284406Y0202400D01*
X0285700Y0203694D01*
X0286400Y0205385D01*
X0286400Y0207215D01*
X0285700Y0208906D01*
X0285000Y0209605D01*
X0285000Y0230538D01*
X0364118Y0294441D01*
X0365018Y0292268D01*
X0367268Y0290018D01*
X0367268Y0290018D01*
X0370209Y0288800D01*
X0373391Y0288800D01*
X0376332Y0290018D01*
X0378582Y0292268D01*
X0378582Y0292268D01*
X0379800Y0295209D01*
X0379800Y0298391D01*
X0378582Y0301332D01*
X0376332Y0303582D01*
X0376332Y0303582D01*
X0375739Y0303828D01*
X0390142Y0315461D01*
X0394201Y0315461D01*
X0394201Y0003100D01*
X0003409Y0003100D01*
X0017861Y0014772D01*
X0020209Y0013800D01*
X0023391Y0013800D01*
X0026332Y0015018D01*
X0028582Y0017268D01*
X0028582Y0017268D01*
X0029800Y0020209D01*
X0029800Y0023391D01*
X0029482Y0024159D01*
X0107211Y0086940D01*
X0107211Y0073985D01*
X0108207Y0072989D01*
X0174893Y0072989D01*
X0174611Y0072707D01*
X0174611Y0070893D01*
X0175893Y0069611D01*
X0174876Y0070629D02*
X0087017Y0070629D01*
X0087758Y0071227D02*
X0174611Y0071227D01*
X0174611Y0071826D02*
X0088499Y0071826D01*
X0089240Y0072424D02*
X0174611Y0072424D01*
X0178989Y0072424D02*
X0229611Y0072424D01*
X0229611Y0071826D02*
X0179178Y0071826D01*
X0179777Y0071227D02*
X0229611Y0071227D01*
X0229876Y0070629D02*
X0180375Y0070629D01*
X0180974Y0070030D02*
X0230100Y0070030D01*
X0230100Y0069432D02*
X0181572Y0069432D01*
X0182171Y0068833D02*
X0230100Y0068833D01*
X0230100Y0068235D02*
X0182769Y0068235D01*
X0183368Y0067636D02*
X0230100Y0067636D01*
X0230100Y0067038D02*
X0183966Y0067038D01*
X0184565Y0066439D02*
X0230100Y0066439D01*
X0230100Y0065841D02*
X0185163Y0065841D01*
X0185762Y0065242D02*
X0230100Y0065242D01*
X0230100Y0064644D02*
X0186360Y0064644D01*
X0186959Y0064045D02*
X0230100Y0064045D01*
X0230100Y0063447D02*
X0187557Y0063447D01*
X0188156Y0062848D02*
X0230100Y0062848D01*
X0230100Y0062250D02*
X0188755Y0062250D01*
X0189353Y0061651D02*
X0230100Y0061651D01*
X0230100Y0061053D02*
X0189952Y0061053D01*
X0190550Y0060454D02*
X0230100Y0060454D01*
X0230100Y0059856D02*
X0191149Y0059856D01*
X0191747Y0059257D02*
X0230100Y0059257D01*
X0230100Y0058659D02*
X0192346Y0058659D01*
X0192944Y0058060D02*
X0230100Y0058060D01*
X0230100Y0057462D02*
X0193543Y0057462D01*
X0194141Y0056863D02*
X0230100Y0056863D01*
X0230100Y0056265D02*
X0194740Y0056265D01*
X0195338Y0055666D02*
X0230100Y0055666D01*
X0230100Y0055068D02*
X0195937Y0055068D01*
X0196535Y0054469D02*
X0230100Y0054469D01*
X0230100Y0053870D02*
X0197134Y0053870D01*
X0197732Y0053272D02*
X0230100Y0053272D01*
X0230100Y0052673D02*
X0198331Y0052673D01*
X0198929Y0052075D02*
X0230100Y0052075D01*
X0230100Y0051476D02*
X0199528Y0051476D01*
X0200126Y0050878D02*
X0230100Y0050878D01*
X0230100Y0050279D02*
X0200725Y0050279D01*
X0201323Y0049681D02*
X0230100Y0049681D01*
X0230100Y0049082D02*
X0201922Y0049082D01*
X0202520Y0048484D02*
X0230100Y0048484D01*
X0230100Y0047885D02*
X0203119Y0047885D01*
X0203717Y0047287D02*
X0230100Y0047287D01*
X0230100Y0046688D02*
X0204316Y0046688D01*
X0204914Y0046090D02*
X0230100Y0046090D01*
X0230100Y0045491D02*
X0205513Y0045491D01*
X0206111Y0044893D02*
X0230100Y0044893D01*
X0230100Y0044294D02*
X0206710Y0044294D01*
X0207308Y0043696D02*
X0230100Y0043696D01*
X0230002Y0043097D02*
X0207907Y0043097D01*
X0208505Y0042499D02*
X0229611Y0042499D01*
X0229611Y0041900D02*
X0209104Y0041900D01*
X0209702Y0041302D02*
X0229611Y0041302D01*
X0229801Y0040703D02*
X0210301Y0040703D01*
X0210899Y0040105D02*
X0230400Y0040105D01*
X0233200Y0040105D02*
X0330968Y0040105D01*
X0330370Y0039506D02*
X0211498Y0039506D01*
X0212096Y0038908D02*
X0329771Y0038908D01*
X0329173Y0038309D02*
X0212695Y0038309D01*
X0213293Y0037711D02*
X0328574Y0037711D01*
X0327976Y0037112D02*
X0213892Y0037112D01*
X0214490Y0036514D02*
X0327377Y0036514D01*
X0326779Y0035915D02*
X0215089Y0035915D01*
X0215688Y0035317D02*
X0317750Y0035317D01*
X0317750Y0035323D02*
X0317750Y0028277D01*
X0318277Y0027750D01*
X0325323Y0027750D01*
X0325850Y0028277D01*
X0325850Y0029700D01*
X0325938Y0029700D01*
X0327168Y0030930D01*
X0327168Y0031496D01*
X0344288Y0048617D01*
X0351425Y0048617D01*
X0351952Y0049144D01*
X0351952Y0058157D01*
X0351425Y0058684D01*
X0342411Y0058684D01*
X0341884Y0058157D01*
X0341884Y0051021D01*
X0325850Y0034986D01*
X0325850Y0035323D01*
X0325323Y0035850D01*
X0318277Y0035850D01*
X0317750Y0035323D01*
X0317750Y0034718D02*
X0216286Y0034718D01*
X0216885Y0034120D02*
X0317750Y0034120D01*
X0317750Y0033521D02*
X0217483Y0033521D01*
X0218082Y0032923D02*
X0317750Y0032923D01*
X0317750Y0032324D02*
X0218680Y0032324D01*
X0219279Y0031726D02*
X0317750Y0031726D01*
X0317750Y0031127D02*
X0219877Y0031127D01*
X0220476Y0030529D02*
X0317750Y0030529D01*
X0317750Y0029930D02*
X0221074Y0029930D01*
X0221673Y0029332D02*
X0317750Y0029332D01*
X0317750Y0028733D02*
X0222271Y0028733D01*
X0222870Y0028134D02*
X0317893Y0028134D01*
X0317775Y0022748D02*
X0228256Y0022748D01*
X0227658Y0023346D02*
X0368800Y0023346D01*
X0368800Y0023391D02*
X0368800Y0020209D01*
X0370018Y0017268D01*
X0372268Y0015018D01*
X0372268Y0015018D01*
X0375209Y0013800D01*
X0377090Y0013800D01*
X0378391Y0013800D01*
X0378391Y0013800D01*
X0381332Y0015018D01*
X0383582Y0017268D01*
X0383582Y0017268D01*
X0384800Y0020209D01*
X0384800Y0023391D01*
X0383582Y0026332D01*
X0381332Y0028582D01*
X0381332Y0028582D01*
X0378391Y0029800D01*
X0375209Y0029800D01*
X0372268Y0028582D01*
X0370018Y0026332D01*
X0370018Y0026332D01*
X0368800Y0023391D01*
X0369029Y0023945D02*
X0227059Y0023945D01*
X0226461Y0024543D02*
X0369277Y0024543D01*
X0369525Y0025142D02*
X0225862Y0025142D01*
X0225264Y0025740D02*
X0369773Y0025740D01*
X0370025Y0026339D02*
X0224665Y0026339D01*
X0224067Y0026937D02*
X0370624Y0026937D01*
X0371222Y0027536D02*
X0223468Y0027536D01*
X0221054Y0025142D02*
X0030700Y0025142D01*
X0031441Y0025740D02*
X0220455Y0025740D01*
X0219857Y0026339D02*
X0032182Y0026339D01*
X0032923Y0026937D02*
X0219258Y0026937D01*
X0218660Y0027536D02*
X0033664Y0027536D01*
X0034405Y0028134D02*
X0218061Y0028134D01*
X0217463Y0028733D02*
X0035146Y0028733D01*
X0035887Y0029332D02*
X0216864Y0029332D01*
X0216266Y0029930D02*
X0103026Y0029930D01*
X0103624Y0030529D02*
X0215667Y0030529D01*
X0215069Y0031127D02*
X0103989Y0031127D01*
X0100574Y0029930D02*
X0036628Y0029930D01*
X0037369Y0030529D02*
X0099976Y0030529D01*
X0099611Y0031127D02*
X0038110Y0031127D01*
X0038851Y0031726D02*
X0099611Y0031726D01*
X0099611Y0032324D02*
X0039592Y0032324D01*
X0040333Y0032923D02*
X0099827Y0032923D01*
X0100100Y0033521D02*
X0041074Y0033521D01*
X0041815Y0034120D02*
X0100100Y0034120D01*
X0100100Y0034718D02*
X0042556Y0034718D01*
X0043297Y0035317D02*
X0100100Y0035317D01*
X0100100Y0035915D02*
X0044038Y0035915D01*
X0044779Y0036514D02*
X0100100Y0036514D01*
X0100100Y0037112D02*
X0045520Y0037112D01*
X0046261Y0037711D02*
X0100100Y0037711D01*
X0100100Y0038309D02*
X0047002Y0038309D01*
X0047743Y0038908D02*
X0100100Y0038908D01*
X0100100Y0039506D02*
X0048484Y0039506D01*
X0049225Y0040105D02*
X0100100Y0040105D01*
X0100100Y0040703D02*
X0049966Y0040703D01*
X0050707Y0041302D02*
X0100100Y0041302D01*
X0100100Y0041900D02*
X0051448Y0041900D01*
X0052189Y0042499D02*
X0100100Y0042499D01*
X0100100Y0043097D02*
X0052930Y0043097D01*
X0053671Y0043696D02*
X0100100Y0043696D01*
X0100100Y0044294D02*
X0054412Y0044294D01*
X0055153Y0044893D02*
X0100100Y0044893D01*
X0100100Y0045491D02*
X0055894Y0045491D01*
X0056635Y0046090D02*
X0100100Y0046090D01*
X0100100Y0046688D02*
X0057376Y0046688D01*
X0058117Y0047287D02*
X0100100Y0047287D01*
X0100100Y0047885D02*
X0058858Y0047885D01*
X0059599Y0048484D02*
X0100100Y0048484D01*
X0100100Y0049082D02*
X0060340Y0049082D01*
X0061081Y0049681D02*
X0100100Y0049681D01*
X0100100Y0050279D02*
X0061822Y0050279D01*
X0062563Y0050878D02*
X0100100Y0050878D01*
X0100100Y0051476D02*
X0063304Y0051476D01*
X0064045Y0052075D02*
X0100100Y0052075D01*
X0100100Y0052673D02*
X0064786Y0052673D01*
X0065527Y0053272D02*
X0100100Y0053272D01*
X0100100Y0053870D02*
X0066268Y0053870D01*
X0067009Y0054469D02*
X0100100Y0054469D01*
X0100100Y0055068D02*
X0067750Y0055068D01*
X0068491Y0055666D02*
X0100100Y0055666D01*
X0100100Y0056265D02*
X0069232Y0056265D01*
X0069973Y0056863D02*
X0100100Y0056863D01*
X0100100Y0057462D02*
X0070714Y0057462D01*
X0071455Y0058060D02*
X0100100Y0058060D01*
X0100100Y0058659D02*
X0072196Y0058659D01*
X0072937Y0059257D02*
X0100100Y0059257D01*
X0100100Y0059856D02*
X0073678Y0059856D01*
X0074419Y0060454D02*
X0100100Y0060454D01*
X0100100Y0061053D02*
X0075160Y0061053D01*
X0075901Y0061651D02*
X0100100Y0061651D01*
X0100100Y0062250D02*
X0076642Y0062250D01*
X0077383Y0062848D02*
X0100100Y0062848D01*
X0100100Y0063447D02*
X0078124Y0063447D01*
X0078865Y0064045D02*
X0100100Y0064045D01*
X0100100Y0064644D02*
X0079606Y0064644D01*
X0080347Y0065242D02*
X0100100Y0065242D01*
X0099664Y0065841D02*
X0081088Y0065841D01*
X0081830Y0066439D02*
X0099611Y0066439D01*
X0099611Y0067038D02*
X0082571Y0067038D01*
X0083312Y0067636D02*
X0099611Y0067636D01*
X0100139Y0068235D02*
X0084053Y0068235D01*
X0084794Y0068833D02*
X0100738Y0068833D01*
X0108173Y0073023D02*
X0089981Y0073023D01*
X0090722Y0073621D02*
X0107574Y0073621D01*
X0107211Y0074220D02*
X0091463Y0074220D01*
X0092204Y0074818D02*
X0107211Y0074818D01*
X0107211Y0075417D02*
X0092945Y0075417D01*
X0093686Y0076015D02*
X0107211Y0076015D01*
X0107211Y0076614D02*
X0094427Y0076614D01*
X0095168Y0077212D02*
X0107211Y0077212D01*
X0107211Y0077811D02*
X0095909Y0077811D01*
X0096650Y0078409D02*
X0107211Y0078409D01*
X0107211Y0079008D02*
X0097391Y0079008D01*
X0098132Y0079606D02*
X0107211Y0079606D01*
X0107211Y0080205D02*
X0098873Y0080205D01*
X0099614Y0080803D02*
X0107211Y0080803D01*
X0107211Y0081402D02*
X0100355Y0081402D01*
X0101096Y0082001D02*
X0107211Y0082001D01*
X0107211Y0082599D02*
X0101837Y0082599D01*
X0102578Y0083198D02*
X0107211Y0083198D01*
X0107211Y0083796D02*
X0103319Y0083796D01*
X0104060Y0084395D02*
X0107211Y0084395D01*
X0107211Y0084993D02*
X0104801Y0084993D01*
X0105542Y0085592D02*
X0107211Y0085592D01*
X0107211Y0086190D02*
X0106283Y0086190D01*
X0107024Y0086789D02*
X0107211Y0086789D01*
X0110611Y0086789D02*
X0119362Y0086789D01*
X0118763Y0087387D02*
X0110611Y0087387D01*
X0110611Y0087986D02*
X0118300Y0087986D01*
X0118300Y0087850D02*
X0120350Y0085800D01*
X0123250Y0085800D01*
X0125300Y0087850D01*
X0125300Y0090750D01*
X0123250Y0092800D01*
X0120350Y0092800D01*
X0118300Y0090750D01*
X0118300Y0087850D01*
X0118300Y0088584D02*
X0110988Y0088584D01*
X0111587Y0089183D02*
X0118300Y0089183D01*
X0118300Y0089781D02*
X0112185Y0089781D01*
X0112784Y0090380D02*
X0118300Y0090380D01*
X0118528Y0090978D02*
X0113382Y0090978D01*
X0113981Y0091577D02*
X0119127Y0091577D01*
X0119725Y0092175D02*
X0114579Y0092175D01*
X0115178Y0092774D02*
X0120324Y0092774D01*
X0118920Y0093971D02*
X0124680Y0093971D01*
X0125278Y0093372D02*
X0118322Y0093372D01*
X0119519Y0094569D02*
X0124081Y0094569D01*
X0123482Y0095168D02*
X0120118Y0095168D01*
X0120300Y0095766D02*
X0123300Y0095766D01*
X0123300Y0095350D02*
X0123300Y0098250D01*
X0125350Y0100300D01*
X0128250Y0100300D01*
X0130300Y0098250D01*
X0130300Y0095350D01*
X0128250Y0093300D01*
X0125350Y0093300D01*
X0123300Y0095350D01*
X0123300Y0096365D02*
X0120300Y0096365D01*
X0120300Y0096963D02*
X0123300Y0096963D01*
X0123300Y0097562D02*
X0120362Y0097562D01*
X0121103Y0098160D02*
X0123300Y0098160D01*
X0123809Y0098759D02*
X0121844Y0098759D01*
X0122585Y0099357D02*
X0124408Y0099357D01*
X0125006Y0099956D02*
X0123326Y0099956D01*
X0124067Y0100554D02*
X0273300Y0100554D01*
X0273300Y0100750D02*
X0273300Y0097850D01*
X0275350Y0095800D01*
X0278250Y0095800D01*
X0280300Y0097850D01*
X0280300Y0100750D01*
X0278250Y0102800D01*
X0275350Y0102800D01*
X0273300Y0100750D01*
X0273703Y0101153D02*
X0124808Y0101153D01*
X0125549Y0101751D02*
X0274302Y0101751D01*
X0274900Y0102350D02*
X0126290Y0102350D01*
X0127031Y0102948D02*
X0394201Y0102948D01*
X0394201Y0102350D02*
X0278700Y0102350D01*
X0279298Y0101751D02*
X0394201Y0101751D01*
X0394201Y0101153D02*
X0279897Y0101153D01*
X0280300Y0100554D02*
X0394201Y0100554D01*
X0394201Y0099956D02*
X0280300Y0099956D01*
X0280300Y0099357D02*
X0394201Y0099357D01*
X0394201Y0098759D02*
X0280300Y0098759D01*
X0280300Y0098160D02*
X0394201Y0098160D01*
X0394201Y0097562D02*
X0280012Y0097562D01*
X0279413Y0096963D02*
X0394201Y0096963D01*
X0394201Y0096365D02*
X0278815Y0096365D01*
X0280218Y0095168D02*
X0273382Y0095168D01*
X0273250Y0095300D02*
X0270350Y0095300D01*
X0268300Y0093250D01*
X0268300Y0090350D01*
X0270350Y0088300D01*
X0273250Y0088300D01*
X0275300Y0090350D01*
X0275300Y0093250D01*
X0273250Y0095300D01*
X0273980Y0094569D02*
X0279620Y0094569D01*
X0279021Y0093971D02*
X0274579Y0093971D01*
X0275177Y0093372D02*
X0278422Y0093372D01*
X0278300Y0093250D02*
X0278300Y0090350D01*
X0280350Y0088300D01*
X0283250Y0088300D01*
X0285300Y0090350D01*
X0285300Y0093250D01*
X0283250Y0095300D01*
X0280350Y0095300D01*
X0278300Y0093250D01*
X0278300Y0092774D02*
X0275300Y0092774D01*
X0275300Y0092175D02*
X0278300Y0092175D01*
X0278300Y0091577D02*
X0275300Y0091577D01*
X0275300Y0090978D02*
X0278300Y0090978D01*
X0278300Y0090380D02*
X0275300Y0090380D01*
X0274731Y0089781D02*
X0278869Y0089781D01*
X0279468Y0089183D02*
X0274132Y0089183D01*
X0273534Y0088584D02*
X0280066Y0088584D01*
X0283534Y0088584D02*
X0394201Y0088584D01*
X0394201Y0087986D02*
X0125300Y0087986D01*
X0125300Y0088584D02*
X0270066Y0088584D01*
X0269468Y0089183D02*
X0125300Y0089183D01*
X0125300Y0089781D02*
X0268869Y0089781D01*
X0268300Y0090380D02*
X0125300Y0090380D01*
X0125072Y0090978D02*
X0268300Y0090978D01*
X0268300Y0091577D02*
X0124473Y0091577D01*
X0123875Y0092175D02*
X0268300Y0092175D01*
X0268300Y0092774D02*
X0123276Y0092774D01*
X0128322Y0093372D02*
X0268422Y0093372D01*
X0269021Y0093971D02*
X0128920Y0093971D01*
X0129519Y0094569D02*
X0269620Y0094569D01*
X0270218Y0095168D02*
X0130118Y0095168D01*
X0130300Y0095766D02*
X0394201Y0095766D01*
X0394201Y0095168D02*
X0283382Y0095168D01*
X0283980Y0094569D02*
X0394201Y0094569D01*
X0394201Y0093971D02*
X0284579Y0093971D01*
X0285177Y0093372D02*
X0394201Y0093372D01*
X0394201Y0092774D02*
X0285300Y0092774D01*
X0285300Y0092175D02*
X0394201Y0092175D01*
X0394201Y0091577D02*
X0285300Y0091577D01*
X0285300Y0090978D02*
X0394201Y0090978D01*
X0394201Y0090380D02*
X0285300Y0090380D01*
X0284731Y0089781D02*
X0394201Y0089781D01*
X0394201Y0089183D02*
X0284132Y0089183D01*
X0274785Y0096365D02*
X0130300Y0096365D01*
X0130300Y0096963D02*
X0274187Y0096963D01*
X0273588Y0097562D02*
X0130300Y0097562D01*
X0130300Y0098160D02*
X0273300Y0098160D01*
X0273300Y0098759D02*
X0129791Y0098759D01*
X0129192Y0099357D02*
X0273300Y0099357D01*
X0273300Y0099956D02*
X0128594Y0099956D01*
X0127772Y0103547D02*
X0394201Y0103547D01*
X0394201Y0104145D02*
X0128513Y0104145D01*
X0129254Y0104744D02*
X0310760Y0104744D01*
X0312840Y0104744D02*
X0394201Y0104744D01*
X0394201Y0105342D02*
X0313438Y0105342D01*
X0313989Y0105941D02*
X0394201Y0105941D01*
X0394201Y0106539D02*
X0313989Y0106539D01*
X0313989Y0107138D02*
X0394201Y0107138D01*
X0394201Y0107737D02*
X0313959Y0107737D01*
X0313361Y0108335D02*
X0394201Y0108335D01*
X0394201Y0108934D02*
X0312762Y0108934D01*
X0310838Y0108934D02*
X0258571Y0108934D01*
X0257972Y0109532D02*
X0394201Y0109532D01*
X0394201Y0110131D02*
X0257374Y0110131D01*
X0256775Y0110729D02*
X0394201Y0110729D01*
X0394201Y0111328D02*
X0256177Y0111328D01*
X0255578Y0111926D02*
X0394201Y0111926D01*
X0394201Y0112525D02*
X0254980Y0112525D01*
X0254381Y0113123D02*
X0394201Y0113123D01*
X0394201Y0113722D02*
X0253783Y0113722D01*
X0253184Y0114320D02*
X0394201Y0114320D01*
X0394201Y0114919D02*
X0252586Y0114919D01*
X0251987Y0115517D02*
X0317910Y0115517D01*
X0317750Y0115677D02*
X0318277Y0115150D01*
X0325323Y0115150D01*
X0325850Y0115677D01*
X0325850Y0122723D01*
X0325323Y0123250D01*
X0318277Y0123250D01*
X0317750Y0122723D01*
X0317750Y0115677D01*
X0317750Y0116116D02*
X0251388Y0116116D01*
X0250790Y0116714D02*
X0317750Y0116714D01*
X0317750Y0117313D02*
X0250191Y0117313D01*
X0249593Y0117911D02*
X0317750Y0117911D01*
X0317750Y0118510D02*
X0248994Y0118510D01*
X0248396Y0119108D02*
X0317750Y0119108D01*
X0317750Y0119707D02*
X0247797Y0119707D01*
X0247199Y0120305D02*
X0317750Y0120305D01*
X0317750Y0120904D02*
X0246600Y0120904D01*
X0246002Y0121502D02*
X0317750Y0121502D01*
X0317750Y0122101D02*
X0245403Y0122101D01*
X0244805Y0122699D02*
X0317750Y0122699D01*
X0318277Y0127750D02*
X0325323Y0127750D01*
X0325850Y0128277D01*
X0325850Y0130100D01*
X0338064Y0130100D01*
X0341884Y0126280D01*
X0341884Y0119144D01*
X0342411Y0118617D01*
X0351425Y0118617D01*
X0351952Y0119144D01*
X0351952Y0128157D01*
X0351425Y0128684D01*
X0344288Y0128684D01*
X0367176Y0128684D01*
X0367424Y0128086D02*
X0351952Y0128086D01*
X0351952Y0127487D02*
X0367672Y0127487D01*
X0367920Y0126889D02*
X0351952Y0126889D01*
X0351952Y0126290D02*
X0368351Y0126290D01*
X0368038Y0126603D02*
X0370619Y0124023D01*
X0373991Y0122626D01*
X0377641Y0122626D01*
X0381012Y0124023D01*
X0383593Y0126603D01*
X0384990Y0129975D01*
X0384990Y0133625D01*
X0383593Y0136997D01*
X0381012Y0139577D01*
X0377641Y0140974D01*
X0373991Y0140974D01*
X0370619Y0139577D01*
X0368038Y0136997D01*
X0366642Y0133625D01*
X0366642Y0129975D01*
X0368038Y0126603D01*
X0368950Y0125692D02*
X0351952Y0125692D01*
X0351952Y0125093D02*
X0369548Y0125093D01*
X0370147Y0124495D02*
X0351952Y0124495D01*
X0351952Y0123896D02*
X0370924Y0123896D01*
X0372369Y0123298D02*
X0351952Y0123298D01*
X0351952Y0122699D02*
X0373814Y0122699D01*
X0377818Y0122699D02*
X0394201Y0122699D01*
X0394201Y0122101D02*
X0351952Y0122101D01*
X0351952Y0121502D02*
X0394201Y0121502D01*
X0394201Y0120904D02*
X0351952Y0120904D01*
X0351952Y0120305D02*
X0394201Y0120305D01*
X0394201Y0119707D02*
X0351952Y0119707D01*
X0351916Y0119108D02*
X0394201Y0119108D01*
X0394201Y0118510D02*
X0325850Y0118510D01*
X0325850Y0119108D02*
X0341920Y0119108D01*
X0341884Y0119707D02*
X0325850Y0119707D01*
X0325850Y0120305D02*
X0341884Y0120305D01*
X0341884Y0120904D02*
X0325850Y0120904D01*
X0325850Y0121502D02*
X0341884Y0121502D01*
X0341884Y0122101D02*
X0325850Y0122101D01*
X0325850Y0122699D02*
X0341884Y0122699D01*
X0341884Y0123298D02*
X0250158Y0123298D01*
X0250902Y0123896D02*
X0341884Y0123896D01*
X0341884Y0124495D02*
X0251500Y0124495D01*
X0251865Y0125093D02*
X0341884Y0125093D01*
X0341884Y0125692D02*
X0252113Y0125692D01*
X0252361Y0126290D02*
X0341874Y0126290D01*
X0341275Y0126889D02*
X0252400Y0126889D01*
X0252400Y0127487D02*
X0340677Y0127487D01*
X0340078Y0128086D02*
X0325659Y0128086D01*
X0325850Y0128684D02*
X0339480Y0128684D01*
X0338881Y0129283D02*
X0325850Y0129283D01*
X0325850Y0129881D02*
X0338283Y0129881D01*
X0340697Y0132275D02*
X0366642Y0132275D01*
X0366642Y0131677D02*
X0341296Y0131677D01*
X0341894Y0131078D02*
X0366642Y0131078D01*
X0366642Y0130480D02*
X0342493Y0130480D01*
X0343091Y0129881D02*
X0366681Y0129881D01*
X0366928Y0129283D02*
X0343690Y0129283D01*
X0344288Y0128684D02*
X0339473Y0133500D01*
X0325850Y0133500D01*
X0325850Y0135323D01*
X0325323Y0135850D01*
X0318277Y0135850D01*
X0317750Y0135323D01*
X0317750Y0128277D01*
X0318277Y0127750D01*
X0317941Y0128086D02*
X0252400Y0128086D01*
X0252206Y0128684D02*
X0317750Y0128684D01*
X0317750Y0129283D02*
X0251958Y0129283D01*
X0251710Y0129881D02*
X0317750Y0129881D01*
X0317750Y0130480D02*
X0251125Y0130480D01*
X0250527Y0131078D02*
X0317750Y0131078D01*
X0317750Y0131677D02*
X0249500Y0131677D01*
X0249500Y0132275D02*
X0317750Y0132275D01*
X0317750Y0132874D02*
X0249500Y0132874D01*
X0249500Y0133472D02*
X0317750Y0133472D01*
X0317750Y0134071D02*
X0249500Y0134071D01*
X0249500Y0134670D02*
X0317750Y0134670D01*
X0317750Y0135268D02*
X0249500Y0135268D01*
X0249500Y0135867D02*
X0341484Y0135867D01*
X0341484Y0135645D02*
X0341573Y0135314D01*
X0341744Y0135018D01*
X0341986Y0134775D01*
X0342282Y0134604D01*
X0342613Y0134516D01*
X0346618Y0134516D01*
X0346618Y0139650D01*
X0341484Y0139650D01*
X0341484Y0135645D01*
X0341599Y0135268D02*
X0325850Y0135268D01*
X0325850Y0134670D02*
X0342170Y0134670D01*
X0341484Y0136465D02*
X0249500Y0136465D01*
X0249500Y0137064D02*
X0341484Y0137064D01*
X0341484Y0137662D02*
X0249500Y0137662D01*
X0249665Y0138261D02*
X0341484Y0138261D01*
X0341484Y0138859D02*
X0250263Y0138859D01*
X0250862Y0139458D02*
X0341484Y0139458D01*
X0341484Y0140250D02*
X0341484Y0144255D01*
X0341573Y0144585D01*
X0341744Y0144882D01*
X0341986Y0145124D01*
X0342282Y0145295D01*
X0342613Y0145383D01*
X0346618Y0145383D01*
X0346618Y0140250D01*
X0347218Y0140250D01*
X0347218Y0145383D01*
X0351223Y0145383D01*
X0351554Y0145295D01*
X0351850Y0145124D01*
X0352092Y0144882D01*
X0352263Y0144585D01*
X0352352Y0144255D01*
X0352352Y0140250D01*
X0347218Y0140250D01*
X0347218Y0139650D01*
X0352352Y0139650D01*
X0352352Y0135645D01*
X0352263Y0135314D01*
X0352092Y0135018D01*
X0351850Y0134775D01*
X0351554Y0134604D01*
X0351223Y0134516D01*
X0347218Y0134516D01*
X0347218Y0139650D01*
X0346618Y0139650D01*
X0346618Y0140250D01*
X0341484Y0140250D01*
X0341484Y0140655D02*
X0325627Y0140655D01*
X0325850Y0140877D02*
X0325850Y0147923D01*
X0325323Y0148450D01*
X0318277Y0148450D01*
X0317750Y0147923D01*
X0317750Y0140877D01*
X0318277Y0140350D01*
X0325323Y0140350D01*
X0325850Y0140877D01*
X0325850Y0141253D02*
X0341484Y0141253D01*
X0341484Y0141852D02*
X0325850Y0141852D01*
X0325850Y0142450D02*
X0341484Y0142450D01*
X0341484Y0143049D02*
X0325850Y0143049D01*
X0325850Y0143647D02*
X0341484Y0143647D01*
X0341484Y0144246D02*
X0325850Y0144246D01*
X0325850Y0144844D02*
X0341722Y0144844D01*
X0346618Y0144844D02*
X0347218Y0144844D01*
X0347218Y0144246D02*
X0346618Y0144246D01*
X0346618Y0143647D02*
X0347218Y0143647D01*
X0347218Y0143049D02*
X0346618Y0143049D01*
X0346618Y0142450D02*
X0347218Y0142450D01*
X0347218Y0141852D02*
X0346618Y0141852D01*
X0346618Y0141253D02*
X0347218Y0141253D01*
X0347218Y0140655D02*
X0346618Y0140655D01*
X0346618Y0140056D02*
X0251460Y0140056D01*
X0252059Y0140655D02*
X0317973Y0140655D01*
X0317750Y0141253D02*
X0252657Y0141253D01*
X0253256Y0141852D02*
X0317750Y0141852D01*
X0317750Y0142450D02*
X0253854Y0142450D01*
X0254453Y0143049D02*
X0317750Y0143049D01*
X0317750Y0143647D02*
X0255051Y0143647D01*
X0255650Y0144246D02*
X0317750Y0144246D01*
X0317750Y0144844D02*
X0256248Y0144844D01*
X0256847Y0145443D02*
X0317750Y0145443D01*
X0317750Y0146041D02*
X0257445Y0146041D01*
X0258044Y0146640D02*
X0317750Y0146640D01*
X0317750Y0147238D02*
X0258642Y0147238D01*
X0259241Y0147837D02*
X0317750Y0147837D01*
X0318262Y0148435D02*
X0259839Y0148435D01*
X0260438Y0149034D02*
X0394201Y0149034D01*
X0394201Y0149632D02*
X0261036Y0149632D01*
X0261635Y0150231D02*
X0394201Y0150231D01*
X0394201Y0150829D02*
X0262233Y0150829D01*
X0262832Y0151428D02*
X0394201Y0151428D01*
X0394201Y0152026D02*
X0263430Y0152026D01*
X0264029Y0152625D02*
X0394201Y0152625D01*
X0394201Y0153223D02*
X0264628Y0153223D01*
X0265226Y0153822D02*
X0394201Y0153822D01*
X0394201Y0154420D02*
X0265825Y0154420D01*
X0266423Y0155019D02*
X0394201Y0155019D01*
X0394201Y0155617D02*
X0267022Y0155617D01*
X0267620Y0156216D02*
X0394201Y0156216D01*
X0394201Y0156814D02*
X0281491Y0156814D01*
X0282918Y0157413D02*
X0394201Y0157413D01*
X0394201Y0158011D02*
X0283517Y0158011D01*
X0284115Y0158610D02*
X0394201Y0158610D01*
X0394201Y0159208D02*
X0284413Y0159208D01*
X0284661Y0159807D02*
X0394201Y0159807D01*
X0394201Y0160405D02*
X0284900Y0160405D01*
X0284900Y0161004D02*
X0394201Y0161004D01*
X0394201Y0161603D02*
X0284900Y0161603D01*
X0284900Y0162201D02*
X0394201Y0162201D01*
X0394201Y0162800D02*
X0284658Y0162800D01*
X0284410Y0163398D02*
X0394201Y0163398D01*
X0394201Y0163997D02*
X0284109Y0163997D01*
X0283510Y0164595D02*
X0394201Y0164595D01*
X0394201Y0165194D02*
X0282912Y0165194D01*
X0282000Y0165792D02*
X0394201Y0165792D01*
X0394201Y0166391D02*
X0282000Y0166391D01*
X0282000Y0166989D02*
X0394201Y0166989D01*
X0394201Y0167588D02*
X0282000Y0167588D01*
X0282000Y0168186D02*
X0394201Y0168186D01*
X0394201Y0168785D02*
X0282000Y0168785D01*
X0282000Y0169383D02*
X0394201Y0169383D01*
X0394201Y0169982D02*
X0282000Y0169982D01*
X0282000Y0170580D02*
X0394201Y0170580D01*
X0394201Y0171179D02*
X0282000Y0171179D01*
X0282000Y0171777D02*
X0394201Y0171777D01*
X0394201Y0172376D02*
X0282000Y0172376D01*
X0282000Y0172974D02*
X0394201Y0172974D01*
X0394201Y0173573D02*
X0282000Y0173573D01*
X0282000Y0174171D02*
X0394201Y0174171D01*
X0394201Y0174770D02*
X0282000Y0174770D01*
X0282000Y0175368D02*
X0394201Y0175368D01*
X0394201Y0175967D02*
X0282000Y0175967D01*
X0282000Y0176565D02*
X0394201Y0176565D01*
X0394201Y0177164D02*
X0282000Y0177164D01*
X0282000Y0177762D02*
X0394201Y0177762D01*
X0394201Y0178361D02*
X0282000Y0178361D01*
X0282000Y0178959D02*
X0394201Y0178959D01*
X0394201Y0179558D02*
X0282000Y0179558D01*
X0282000Y0180156D02*
X0394201Y0180156D01*
X0394201Y0180755D02*
X0282000Y0180755D01*
X0282000Y0181353D02*
X0394201Y0181353D01*
X0394201Y0181952D02*
X0282000Y0181952D01*
X0282000Y0182550D02*
X0394201Y0182550D01*
X0394201Y0183149D02*
X0282000Y0183149D01*
X0282000Y0183747D02*
X0394201Y0183747D01*
X0394201Y0184346D02*
X0282000Y0184346D01*
X0282000Y0184944D02*
X0394201Y0184944D01*
X0394201Y0185543D02*
X0282000Y0185543D01*
X0282000Y0186141D02*
X0394201Y0186141D01*
X0394201Y0186740D02*
X0282000Y0186740D01*
X0282000Y0187339D02*
X0394201Y0187339D01*
X0394201Y0187937D02*
X0282000Y0187937D01*
X0282000Y0188536D02*
X0394201Y0188536D01*
X0394201Y0189134D02*
X0282000Y0189134D01*
X0282000Y0189733D02*
X0394201Y0189733D01*
X0394201Y0190331D02*
X0282000Y0190331D01*
X0282000Y0190930D02*
X0394201Y0190930D01*
X0394201Y0191528D02*
X0282000Y0191528D01*
X0282000Y0192127D02*
X0394201Y0192127D01*
X0394201Y0192725D02*
X0282000Y0192725D01*
X0282000Y0193324D02*
X0394201Y0193324D01*
X0394201Y0193922D02*
X0282000Y0193922D01*
X0282000Y0194521D02*
X0394201Y0194521D01*
X0394201Y0195119D02*
X0282000Y0195119D01*
X0282000Y0195718D02*
X0394201Y0195718D01*
X0394201Y0196316D02*
X0282000Y0196316D01*
X0282000Y0196915D02*
X0394201Y0196915D01*
X0394201Y0197513D02*
X0282000Y0197513D01*
X0282000Y0198112D02*
X0394201Y0198112D01*
X0394201Y0198710D02*
X0282000Y0198710D01*
X0282000Y0199309D02*
X0394201Y0199309D01*
X0394201Y0199907D02*
X0282000Y0199907D01*
X0282000Y0200506D02*
X0394201Y0200506D01*
X0394201Y0201104D02*
X0282000Y0201104D01*
X0282722Y0201703D02*
X0289809Y0201703D01*
X0289881Y0201666D02*
X0290629Y0201423D01*
X0291406Y0201300D01*
X0291500Y0201300D01*
X0291500Y0206000D01*
X0292100Y0206000D01*
X0292100Y0206600D01*
X0296800Y0206600D01*
X0296800Y0206694D01*
X0296677Y0207471D01*
X0296434Y0208219D01*
X0296076Y0208921D01*
X0295614Y0209557D01*
X0295057Y0210114D01*
X0294421Y0210576D01*
X0293719Y0210934D01*
X0292971Y0211177D01*
X0292194Y0211300D01*
X0292100Y0211300D01*
X0292100Y0206600D01*
X0291500Y0206600D01*
X0291500Y0211300D01*
X0291406Y0211300D01*
X0290629Y0211177D01*
X0289881Y0210934D01*
X0289179Y0210576D01*
X0288543Y0210114D01*
X0287986Y0209557D01*
X0287524Y0208921D01*
X0287166Y0208219D01*
X0286923Y0207471D01*
X0286800Y0206694D01*
X0286800Y0206600D01*
X0291500Y0206600D01*
X0291500Y0206000D01*
X0286800Y0206000D01*
X0286800Y0205906D01*
X0286923Y0205129D01*
X0287166Y0204381D01*
X0287524Y0203679D01*
X0287986Y0203043D01*
X0288543Y0202486D01*
X0289179Y0202024D01*
X0289881Y0201666D01*
X0288797Y0202301D02*
X0284167Y0202301D01*
X0284905Y0202900D02*
X0288129Y0202900D01*
X0287655Y0203498D02*
X0285504Y0203498D01*
X0285866Y0204097D02*
X0287311Y0204097D01*
X0287064Y0204695D02*
X0286114Y0204695D01*
X0286362Y0205294D02*
X0286897Y0205294D01*
X0286802Y0205892D02*
X0286400Y0205892D01*
X0286400Y0206491D02*
X0291500Y0206491D01*
X0291500Y0207089D02*
X0292100Y0207089D01*
X0292100Y0206491D02*
X0394201Y0206491D01*
X0394201Y0207089D02*
X0296737Y0207089D01*
X0296606Y0207688D02*
X0394201Y0207688D01*
X0394201Y0208286D02*
X0296400Y0208286D01*
X0296095Y0208885D02*
X0394201Y0208885D01*
X0394201Y0209483D02*
X0295667Y0209483D01*
X0295089Y0210082D02*
X0394201Y0210082D01*
X0394201Y0210680D02*
X0294216Y0210680D01*
X0292326Y0211279D02*
X0394201Y0211279D01*
X0394201Y0211877D02*
X0285000Y0211877D01*
X0285000Y0211279D02*
X0291274Y0211279D01*
X0291500Y0211279D02*
X0292100Y0211279D01*
X0292100Y0210680D02*
X0291500Y0210680D01*
X0291500Y0210082D02*
X0292100Y0210082D01*
X0292100Y0209483D02*
X0291500Y0209483D01*
X0291500Y0208885D02*
X0292100Y0208885D01*
X0292100Y0208286D02*
X0291500Y0208286D01*
X0291500Y0207688D02*
X0292100Y0207688D01*
X0292100Y0206000D02*
X0296800Y0206000D01*
X0296800Y0205906D01*
X0296677Y0205129D01*
X0296434Y0204381D01*
X0296076Y0203679D01*
X0295614Y0203043D01*
X0295057Y0202486D01*
X0294421Y0202024D01*
X0293719Y0201666D01*
X0292971Y0201423D01*
X0292194Y0201300D01*
X0292100Y0201300D01*
X0292100Y0206000D01*
X0292100Y0205892D02*
X0291500Y0205892D01*
X0291500Y0205294D02*
X0292100Y0205294D01*
X0292100Y0204695D02*
X0291500Y0204695D01*
X0291500Y0204097D02*
X0292100Y0204097D01*
X0292100Y0203498D02*
X0291500Y0203498D01*
X0291500Y0202900D02*
X0292100Y0202900D01*
X0292100Y0202301D02*
X0291500Y0202301D01*
X0291500Y0201703D02*
X0292100Y0201703D01*
X0293791Y0201703D02*
X0394201Y0201703D01*
X0394201Y0202301D02*
X0294803Y0202301D01*
X0295471Y0202900D02*
X0394201Y0202900D01*
X0394201Y0203498D02*
X0295945Y0203498D01*
X0296289Y0204097D02*
X0394201Y0204097D01*
X0394201Y0204695D02*
X0296536Y0204695D01*
X0296703Y0205294D02*
X0394201Y0205294D01*
X0394201Y0205892D02*
X0296798Y0205892D01*
X0289384Y0210680D02*
X0285000Y0210680D01*
X0285000Y0210082D02*
X0288511Y0210082D01*
X0287933Y0209483D02*
X0285122Y0209483D01*
X0285708Y0208885D02*
X0287505Y0208885D01*
X0287200Y0208286D02*
X0285956Y0208286D01*
X0286204Y0207688D02*
X0286994Y0207688D01*
X0286863Y0207089D02*
X0286400Y0207089D01*
X0285000Y0212476D02*
X0394201Y0212476D01*
X0394201Y0213074D02*
X0285000Y0213074D01*
X0285000Y0213673D02*
X0394201Y0213673D01*
X0394201Y0214272D02*
X0285000Y0214272D01*
X0285000Y0214870D02*
X0394201Y0214870D01*
X0394201Y0215469D02*
X0285000Y0215469D01*
X0285000Y0216067D02*
X0394201Y0216067D01*
X0394201Y0216666D02*
X0285000Y0216666D01*
X0285000Y0217264D02*
X0394201Y0217264D01*
X0394201Y0217863D02*
X0285000Y0217863D01*
X0285000Y0218461D02*
X0394201Y0218461D01*
X0394201Y0219060D02*
X0285000Y0219060D01*
X0285000Y0219658D02*
X0394201Y0219658D01*
X0394201Y0220257D02*
X0285000Y0220257D01*
X0285000Y0220855D02*
X0394201Y0220855D01*
X0394201Y0221454D02*
X0285000Y0221454D01*
X0285000Y0222052D02*
X0394201Y0222052D01*
X0394201Y0222651D02*
X0285000Y0222651D01*
X0285000Y0223249D02*
X0394201Y0223249D01*
X0394201Y0223848D02*
X0285000Y0223848D01*
X0285000Y0224446D02*
X0394201Y0224446D01*
X0394201Y0225045D02*
X0285000Y0225045D01*
X0285000Y0225643D02*
X0394201Y0225643D01*
X0394201Y0226242D02*
X0285000Y0226242D01*
X0285000Y0226840D02*
X0394201Y0226840D01*
X0394201Y0227439D02*
X0285000Y0227439D01*
X0285000Y0228037D02*
X0394201Y0228037D01*
X0394201Y0228636D02*
X0285000Y0228636D01*
X0285000Y0229234D02*
X0394201Y0229234D01*
X0394201Y0229833D02*
X0285000Y0229833D01*
X0285000Y0230431D02*
X0394201Y0230431D01*
X0394201Y0231030D02*
X0285608Y0231030D01*
X0286349Y0231628D02*
X0394201Y0231628D01*
X0394201Y0232227D02*
X0287090Y0232227D01*
X0287831Y0232825D02*
X0394201Y0232825D01*
X0394201Y0233424D02*
X0288572Y0233424D01*
X0289313Y0234022D02*
X0394201Y0234022D01*
X0394201Y0234621D02*
X0290054Y0234621D01*
X0290795Y0235219D02*
X0394201Y0235219D01*
X0394201Y0235818D02*
X0291536Y0235818D01*
X0292277Y0236416D02*
X0394201Y0236416D01*
X0394201Y0237015D02*
X0293019Y0237015D01*
X0293760Y0237613D02*
X0394201Y0237613D01*
X0394201Y0238212D02*
X0294501Y0238212D01*
X0295242Y0238810D02*
X0394201Y0238810D01*
X0394201Y0239409D02*
X0295983Y0239409D01*
X0296724Y0240008D02*
X0394201Y0240008D01*
X0394201Y0240606D02*
X0297465Y0240606D01*
X0298206Y0241205D02*
X0394201Y0241205D01*
X0394201Y0241803D02*
X0298947Y0241803D01*
X0299688Y0242402D02*
X0394201Y0242402D01*
X0394201Y0243000D02*
X0300429Y0243000D01*
X0301170Y0243599D02*
X0394201Y0243599D01*
X0394201Y0244197D02*
X0301911Y0244197D01*
X0302652Y0244796D02*
X0394201Y0244796D01*
X0394201Y0245394D02*
X0303393Y0245394D01*
X0304134Y0245993D02*
X0394201Y0245993D01*
X0394201Y0246591D02*
X0304875Y0246591D01*
X0305616Y0247190D02*
X0394201Y0247190D01*
X0394201Y0247788D02*
X0306357Y0247788D01*
X0307098Y0248387D02*
X0394201Y0248387D01*
X0394201Y0248985D02*
X0307839Y0248985D01*
X0308580Y0249584D02*
X0394201Y0249584D01*
X0394201Y0250182D02*
X0309321Y0250182D01*
X0310062Y0250781D02*
X0394201Y0250781D01*
X0394201Y0251379D02*
X0310803Y0251379D01*
X0311544Y0251978D02*
X0394201Y0251978D01*
X0394201Y0252576D02*
X0312285Y0252576D01*
X0313026Y0253175D02*
X0394201Y0253175D01*
X0394201Y0253773D02*
X0313767Y0253773D01*
X0314508Y0254372D02*
X0394201Y0254372D01*
X0394201Y0254970D02*
X0315249Y0254970D01*
X0315990Y0255569D02*
X0394201Y0255569D01*
X0394201Y0256167D02*
X0316731Y0256167D01*
X0317472Y0256766D02*
X0394201Y0256766D01*
X0394201Y0257364D02*
X0318213Y0257364D01*
X0318954Y0257963D02*
X0394201Y0257963D01*
X0394201Y0258561D02*
X0319695Y0258561D01*
X0320436Y0259160D02*
X0394201Y0259160D01*
X0394201Y0259758D02*
X0321177Y0259758D01*
X0321918Y0260357D02*
X0394201Y0260357D01*
X0394201Y0260955D02*
X0322659Y0260955D01*
X0323400Y0261554D02*
X0394201Y0261554D01*
X0394201Y0262152D02*
X0324141Y0262152D01*
X0324882Y0262751D02*
X0394201Y0262751D01*
X0394201Y0263349D02*
X0325623Y0263349D01*
X0326364Y0263948D02*
X0394201Y0263948D01*
X0394201Y0264546D02*
X0327105Y0264546D01*
X0327846Y0265145D02*
X0394201Y0265145D01*
X0394201Y0265743D02*
X0328587Y0265743D01*
X0329328Y0266342D02*
X0394201Y0266342D01*
X0394201Y0266941D02*
X0330069Y0266941D01*
X0330810Y0267539D02*
X0394201Y0267539D01*
X0394201Y0268138D02*
X0331551Y0268138D01*
X0332292Y0268736D02*
X0394201Y0268736D01*
X0394201Y0269335D02*
X0333033Y0269335D01*
X0333774Y0269933D02*
X0394201Y0269933D01*
X0394201Y0270532D02*
X0334515Y0270532D01*
X0335256Y0271130D02*
X0394201Y0271130D01*
X0394201Y0271729D02*
X0335997Y0271729D01*
X0336738Y0272327D02*
X0394201Y0272327D01*
X0394201Y0272926D02*
X0337479Y0272926D01*
X0338220Y0273524D02*
X0394201Y0273524D01*
X0394201Y0274123D02*
X0338961Y0274123D01*
X0339702Y0274721D02*
X0394201Y0274721D01*
X0394201Y0275320D02*
X0340443Y0275320D01*
X0341184Y0275918D02*
X0394201Y0275918D01*
X0394201Y0276517D02*
X0341925Y0276517D01*
X0342666Y0277115D02*
X0394201Y0277115D01*
X0394201Y0277714D02*
X0343407Y0277714D01*
X0344148Y0278312D02*
X0394201Y0278312D01*
X0394201Y0278911D02*
X0344889Y0278911D01*
X0345630Y0279509D02*
X0394201Y0279509D01*
X0394201Y0280108D02*
X0346372Y0280108D01*
X0347113Y0280706D02*
X0394201Y0280706D01*
X0394201Y0281305D02*
X0347854Y0281305D01*
X0348595Y0281903D02*
X0394201Y0281903D01*
X0394201Y0282502D02*
X0349336Y0282502D01*
X0350077Y0283100D02*
X0394201Y0283100D01*
X0394201Y0283699D02*
X0350818Y0283699D01*
X0351559Y0284297D02*
X0394201Y0284297D01*
X0394201Y0284896D02*
X0352300Y0284896D01*
X0353041Y0285494D02*
X0394201Y0285494D01*
X0394201Y0286093D02*
X0353782Y0286093D01*
X0354523Y0286691D02*
X0394201Y0286691D01*
X0394201Y0287290D02*
X0355264Y0287290D01*
X0356005Y0287888D02*
X0394201Y0287888D01*
X0394201Y0288487D02*
X0356746Y0288487D01*
X0357487Y0289085D02*
X0369520Y0289085D01*
X0368075Y0289684D02*
X0358228Y0289684D01*
X0358969Y0290282D02*
X0367004Y0290282D01*
X0366405Y0290881D02*
X0359710Y0290881D01*
X0360451Y0291479D02*
X0365807Y0291479D01*
X0365208Y0292078D02*
X0361192Y0292078D01*
X0361933Y0292677D02*
X0364849Y0292677D01*
X0365018Y0292268D02*
X0365018Y0292268D01*
X0364601Y0293275D02*
X0362674Y0293275D01*
X0363415Y0293874D02*
X0364353Y0293874D01*
X0374080Y0289085D02*
X0394201Y0289085D01*
X0394201Y0289684D02*
X0375525Y0289684D01*
X0376332Y0290018D02*
X0376332Y0290018D01*
X0376596Y0290282D02*
X0394201Y0290282D01*
X0394201Y0290881D02*
X0377195Y0290881D01*
X0377793Y0291479D02*
X0394201Y0291479D01*
X0394201Y0292078D02*
X0378392Y0292078D01*
X0378751Y0292677D02*
X0394201Y0292677D01*
X0394201Y0293275D02*
X0378999Y0293275D01*
X0379247Y0293874D02*
X0394201Y0293874D01*
X0394201Y0294472D02*
X0379495Y0294472D01*
X0379743Y0295071D02*
X0394201Y0295071D01*
X0394201Y0295669D02*
X0379800Y0295669D01*
X0379800Y0296268D02*
X0394201Y0296268D01*
X0394201Y0296866D02*
X0379800Y0296866D01*
X0379800Y0297465D02*
X0394201Y0297465D01*
X0394201Y0298063D02*
X0379800Y0298063D01*
X0379688Y0298662D02*
X0394201Y0298662D01*
X0394201Y0299260D02*
X0379440Y0299260D01*
X0379192Y0299859D02*
X0394201Y0299859D01*
X0394201Y0300457D02*
X0378944Y0300457D01*
X0378696Y0301056D02*
X0394201Y0301056D01*
X0394201Y0301654D02*
X0378260Y0301654D01*
X0378582Y0301332D02*
X0378582Y0301332D01*
X0377661Y0302253D02*
X0394201Y0302253D01*
X0394201Y0302851D02*
X0377062Y0302851D01*
X0376464Y0303450D02*
X0394201Y0303450D01*
X0394201Y0304048D02*
X0376012Y0304048D01*
X0376753Y0304647D02*
X0394201Y0304647D01*
X0394201Y0305245D02*
X0377494Y0305245D01*
X0378235Y0305844D02*
X0394201Y0305844D01*
X0394201Y0306442D02*
X0378976Y0306442D01*
X0379717Y0307041D02*
X0394201Y0307041D01*
X0394201Y0307639D02*
X0380458Y0307639D01*
X0381199Y0308238D02*
X0394201Y0308238D01*
X0394201Y0308836D02*
X0381940Y0308836D01*
X0382681Y0309435D02*
X0394201Y0309435D01*
X0394201Y0310033D02*
X0383422Y0310033D01*
X0384163Y0310632D02*
X0394201Y0310632D01*
X0394201Y0311230D02*
X0384904Y0311230D01*
X0385645Y0311829D02*
X0394201Y0311829D01*
X0394201Y0312427D02*
X0386386Y0312427D01*
X0387127Y0313026D02*
X0394201Y0313026D01*
X0394201Y0313624D02*
X0387868Y0313624D01*
X0388609Y0314223D02*
X0394201Y0314223D01*
X0394201Y0314821D02*
X0389350Y0314821D01*
X0390091Y0315420D02*
X0394201Y0315420D01*
X0281600Y0227439D02*
X0281162Y0227439D01*
X0281600Y0226840D02*
X0280421Y0226840D01*
X0279680Y0226242D02*
X0281600Y0226242D01*
X0281600Y0225643D02*
X0278939Y0225643D01*
X0278198Y0225045D02*
X0281600Y0225045D01*
X0281600Y0224446D02*
X0277457Y0224446D01*
X0276716Y0223848D02*
X0281600Y0223848D01*
X0281600Y0223249D02*
X0275975Y0223249D01*
X0275234Y0222651D02*
X0281600Y0222651D01*
X0281600Y0222052D02*
X0274493Y0222052D01*
X0273752Y0221454D02*
X0281600Y0221454D01*
X0281600Y0220855D02*
X0273011Y0220855D01*
X0272270Y0220257D02*
X0281600Y0220257D01*
X0281600Y0219658D02*
X0272000Y0219658D01*
X0272000Y0219060D02*
X0281600Y0219060D01*
X0281600Y0218461D02*
X0272000Y0218461D01*
X0272000Y0217863D02*
X0281600Y0217863D01*
X0281600Y0217264D02*
X0272000Y0217264D01*
X0272000Y0216666D02*
X0281600Y0216666D01*
X0281600Y0216067D02*
X0272000Y0216067D01*
X0272000Y0215469D02*
X0281600Y0215469D01*
X0281600Y0214870D02*
X0272000Y0214870D01*
X0272000Y0214272D02*
X0281600Y0214272D01*
X0281600Y0213673D02*
X0272000Y0213673D01*
X0272000Y0213074D02*
X0281600Y0213074D01*
X0281600Y0212476D02*
X0272000Y0212476D01*
X0272000Y0211877D02*
X0281600Y0211877D01*
X0281600Y0211279D02*
X0272000Y0211279D01*
X0272000Y0210680D02*
X0280355Y0210680D01*
X0279077Y0210082D02*
X0272000Y0210082D01*
X0272000Y0209483D02*
X0278478Y0209483D01*
X0277892Y0208885D02*
X0272000Y0208885D01*
X0272000Y0208286D02*
X0277644Y0208286D01*
X0277396Y0207688D02*
X0272000Y0207688D01*
X0272000Y0207089D02*
X0277200Y0207089D01*
X0277200Y0206491D02*
X0272000Y0206491D01*
X0272000Y0205892D02*
X0277200Y0205892D01*
X0277238Y0205294D02*
X0272000Y0205294D01*
X0272000Y0204695D02*
X0277486Y0204695D01*
X0277734Y0204097D02*
X0272000Y0204097D01*
X0272000Y0203498D02*
X0278096Y0203498D01*
X0278600Y0202900D02*
X0272000Y0202900D01*
X0272000Y0202301D02*
X0278600Y0202301D01*
X0278600Y0201703D02*
X0272000Y0201703D01*
X0272000Y0201104D02*
X0278600Y0201104D01*
X0278600Y0200506D02*
X0272000Y0200506D01*
X0272000Y0199907D02*
X0278600Y0199907D01*
X0278600Y0199309D02*
X0272000Y0199309D01*
X0272000Y0198710D02*
X0278600Y0198710D01*
X0278600Y0198112D02*
X0272000Y0198112D01*
X0272000Y0197513D02*
X0278600Y0197513D01*
X0278600Y0196915D02*
X0272000Y0196915D01*
X0272000Y0196316D02*
X0278600Y0196316D01*
X0278600Y0195718D02*
X0272000Y0195718D01*
X0272000Y0195119D02*
X0278600Y0195119D01*
X0278600Y0194521D02*
X0272000Y0194521D01*
X0272000Y0193922D02*
X0278600Y0193922D01*
X0278600Y0193324D02*
X0272000Y0193324D01*
X0272000Y0192725D02*
X0278600Y0192725D01*
X0278600Y0192127D02*
X0272000Y0192127D01*
X0272000Y0191528D02*
X0278600Y0191528D01*
X0278600Y0190930D02*
X0272000Y0190930D01*
X0272000Y0190331D02*
X0278600Y0190331D01*
X0278600Y0189733D02*
X0272000Y0189733D01*
X0272000Y0189134D02*
X0278600Y0189134D01*
X0278600Y0188536D02*
X0272000Y0188536D01*
X0272000Y0187937D02*
X0278600Y0187937D01*
X0278600Y0187339D02*
X0272000Y0187339D01*
X0272000Y0186740D02*
X0278600Y0186740D01*
X0278600Y0186141D02*
X0272000Y0186141D01*
X0272000Y0185543D02*
X0278600Y0185543D01*
X0278600Y0184944D02*
X0272000Y0184944D01*
X0272000Y0184346D02*
X0278600Y0184346D01*
X0278600Y0183747D02*
X0272000Y0183747D01*
X0272000Y0183149D02*
X0278600Y0183149D01*
X0278600Y0182550D02*
X0272000Y0182550D01*
X0272000Y0181952D02*
X0278600Y0181952D01*
X0278600Y0181353D02*
X0272000Y0181353D01*
X0272000Y0180755D02*
X0278600Y0180755D01*
X0278600Y0180156D02*
X0272000Y0180156D01*
X0272000Y0179558D02*
X0278600Y0179558D01*
X0278600Y0178959D02*
X0272000Y0178959D01*
X0272000Y0178361D02*
X0278600Y0178361D01*
X0278600Y0177762D02*
X0272000Y0177762D01*
X0272000Y0177164D02*
X0278600Y0177164D01*
X0278600Y0176565D02*
X0272000Y0176565D01*
X0272000Y0175967D02*
X0278600Y0175967D01*
X0278600Y0175368D02*
X0272000Y0175368D01*
X0272000Y0174770D02*
X0278600Y0174770D01*
X0278600Y0174171D02*
X0272000Y0174171D01*
X0272000Y0173573D02*
X0278600Y0173573D01*
X0278600Y0172974D02*
X0272000Y0172974D01*
X0272000Y0172376D02*
X0278600Y0172376D01*
X0278600Y0171777D02*
X0272000Y0171777D01*
X0272000Y0171179D02*
X0278600Y0171179D01*
X0278600Y0170580D02*
X0272000Y0170580D01*
X0272000Y0169982D02*
X0278600Y0169982D01*
X0278600Y0169383D02*
X0272000Y0169383D01*
X0272000Y0168785D02*
X0278600Y0168785D01*
X0278600Y0168186D02*
X0272000Y0168186D01*
X0272000Y0167588D02*
X0278600Y0167588D01*
X0278600Y0166989D02*
X0272000Y0166989D01*
X0272000Y0166391D02*
X0278600Y0166391D01*
X0278600Y0165792D02*
X0272000Y0165792D01*
X0272912Y0165194D02*
X0277688Y0165194D01*
X0277090Y0164595D02*
X0273510Y0164595D01*
X0274109Y0163997D02*
X0276491Y0163997D01*
X0276190Y0163398D02*
X0274410Y0163398D01*
X0274658Y0162800D02*
X0275942Y0162800D01*
X0275700Y0162201D02*
X0274900Y0162201D01*
X0274900Y0161603D02*
X0275700Y0161603D01*
X0275700Y0161004D02*
X0274900Y0161004D01*
X0274900Y0160405D02*
X0275700Y0160405D01*
X0275939Y0159807D02*
X0274661Y0159807D01*
X0274413Y0159208D02*
X0276187Y0159208D01*
X0276485Y0158610D02*
X0274115Y0158610D01*
X0273517Y0158011D02*
X0277083Y0158011D01*
X0277682Y0157413D02*
X0272918Y0157413D01*
X0271491Y0156814D02*
X0279109Y0156814D01*
X0269109Y0156814D02*
X0268219Y0156814D01*
X0265804Y0159208D02*
X0231120Y0159208D01*
X0230872Y0158610D02*
X0265206Y0158610D01*
X0264607Y0158011D02*
X0230517Y0158011D01*
X0229918Y0157413D02*
X0264009Y0157413D01*
X0263410Y0156814D02*
X0229198Y0156814D01*
X0227753Y0156216D02*
X0262812Y0156216D01*
X0262213Y0155617D02*
X0223022Y0155617D01*
X0223620Y0156216D02*
X0225847Y0156216D01*
X0224402Y0156814D02*
X0224219Y0156814D01*
X0222423Y0155019D02*
X0261615Y0155019D01*
X0261016Y0154420D02*
X0221825Y0154420D01*
X0221226Y0153822D02*
X0260418Y0153822D01*
X0259819Y0153223D02*
X0220628Y0153223D01*
X0220029Y0152625D02*
X0259221Y0152625D01*
X0258622Y0152026D02*
X0219430Y0152026D01*
X0218832Y0151428D02*
X0258024Y0151428D01*
X0257425Y0150829D02*
X0218233Y0150829D01*
X0217635Y0150231D02*
X0256827Y0150231D01*
X0256228Y0149632D02*
X0201881Y0149632D01*
X0201539Y0149034D02*
X0255630Y0149034D01*
X0255031Y0148435D02*
X0200941Y0148435D01*
X0200252Y0147837D02*
X0254433Y0147837D01*
X0253834Y0147238D02*
X0198807Y0147238D01*
X0196793Y0147238D02*
X0188807Y0147238D01*
X0190252Y0147837D02*
X0195348Y0147837D01*
X0194659Y0148435D02*
X0190941Y0148435D01*
X0191539Y0149034D02*
X0194061Y0149034D01*
X0193719Y0149632D02*
X0191881Y0149632D01*
X0192129Y0150231D02*
X0193471Y0150231D01*
X0193223Y0150829D02*
X0192377Y0150829D01*
X0192400Y0151428D02*
X0193200Y0151428D01*
X0193200Y0152026D02*
X0192400Y0152026D01*
X0192400Y0152625D02*
X0193200Y0152625D01*
X0193411Y0153223D02*
X0192189Y0153223D01*
X0192226Y0153822D02*
X0193658Y0153822D01*
X0193915Y0154420D02*
X0192825Y0154420D01*
X0193423Y0155019D02*
X0194514Y0155019D01*
X0194022Y0155617D02*
X0195112Y0155617D01*
X0194620Y0156216D02*
X0196441Y0156216D01*
X0195817Y0157413D02*
X0213682Y0157413D01*
X0213083Y0158011D02*
X0196416Y0158011D01*
X0197014Y0158610D02*
X0212728Y0158610D01*
X0214402Y0156814D02*
X0195219Y0156814D01*
X0199159Y0156216D02*
X0215847Y0156216D01*
X0217753Y0156216D02*
X0218812Y0156216D01*
X0219198Y0156814D02*
X0219410Y0156814D01*
X0219918Y0157413D02*
X0220009Y0157413D01*
X0220517Y0158011D02*
X0220607Y0158011D01*
X0220872Y0158610D02*
X0221206Y0158610D01*
X0221120Y0159208D02*
X0221804Y0159208D01*
X0222232Y0159807D02*
X0221368Y0159807D01*
X0221400Y0160405D02*
X0222200Y0160405D01*
X0222200Y0161004D02*
X0221400Y0161004D01*
X0221400Y0161603D02*
X0222200Y0161603D01*
X0222401Y0162201D02*
X0221199Y0162201D01*
X0220951Y0162800D02*
X0222649Y0162800D01*
X0222897Y0163398D02*
X0220703Y0163398D01*
X0220109Y0163997D02*
X0223491Y0163997D01*
X0224090Y0164595D02*
X0219510Y0164595D01*
X0218213Y0165194D02*
X0225387Y0165194D01*
X0228213Y0165194D02*
X0228789Y0165194D01*
X0229388Y0165792D02*
X0204838Y0165792D01*
X0205579Y0166391D02*
X0229986Y0166391D01*
X0230585Y0166989D02*
X0206320Y0166989D01*
X0207061Y0167588D02*
X0231183Y0167588D01*
X0231782Y0168186D02*
X0207802Y0168186D01*
X0208543Y0168785D02*
X0232381Y0168785D01*
X0232979Y0169383D02*
X0209284Y0169383D01*
X0210025Y0169982D02*
X0233100Y0169982D01*
X0233100Y0170580D02*
X0210766Y0170580D01*
X0211507Y0171179D02*
X0233100Y0171179D01*
X0233100Y0171777D02*
X0212248Y0171777D01*
X0212989Y0172376D02*
X0233100Y0172376D01*
X0233100Y0172974D02*
X0213730Y0172974D01*
X0214471Y0173573D02*
X0233100Y0173573D01*
X0233100Y0174171D02*
X0215212Y0174171D01*
X0215953Y0174770D02*
X0233100Y0174770D01*
X0233100Y0175368D02*
X0216694Y0175368D01*
X0217435Y0175967D02*
X0233100Y0175967D01*
X0232029Y0176565D02*
X0218176Y0176565D01*
X0218917Y0177164D02*
X0231431Y0177164D01*
X0230872Y0177762D02*
X0219658Y0177762D01*
X0220399Y0178361D02*
X0230624Y0178361D01*
X0230376Y0178959D02*
X0221140Y0178959D01*
X0221881Y0179558D02*
X0230200Y0179558D01*
X0230200Y0180156D02*
X0222622Y0180156D01*
X0223363Y0180755D02*
X0230200Y0180755D01*
X0230257Y0181353D02*
X0224104Y0181353D01*
X0224845Y0181952D02*
X0230505Y0181952D01*
X0230753Y0182550D02*
X0225586Y0182550D01*
X0226327Y0183149D02*
X0231144Y0183149D01*
X0231742Y0183747D02*
X0227068Y0183747D01*
X0227809Y0184346D02*
X0232547Y0184346D01*
X0230773Y0186740D02*
X0238836Y0186740D01*
X0239434Y0187339D02*
X0231514Y0187339D01*
X0232255Y0187937D02*
X0240033Y0187937D01*
X0240100Y0188536D02*
X0232996Y0188536D01*
X0233737Y0189134D02*
X0240100Y0189134D01*
X0240100Y0189733D02*
X0234478Y0189733D01*
X0235219Y0190331D02*
X0240100Y0190331D01*
X0240100Y0190930D02*
X0235960Y0190930D01*
X0236701Y0191528D02*
X0240100Y0191528D01*
X0240100Y0192127D02*
X0237442Y0192127D01*
X0238183Y0192725D02*
X0240100Y0192725D01*
X0240100Y0193324D02*
X0238924Y0193324D01*
X0239665Y0193922D02*
X0240100Y0193922D01*
X0243500Y0193922D02*
X0250100Y0193922D01*
X0250100Y0193324D02*
X0243500Y0193324D01*
X0243500Y0192725D02*
X0250100Y0192725D01*
X0250100Y0192127D02*
X0243500Y0192127D01*
X0243500Y0191528D02*
X0250100Y0191528D01*
X0250100Y0190930D02*
X0243500Y0190930D01*
X0243500Y0190331D02*
X0250100Y0190331D01*
X0250100Y0189733D02*
X0243500Y0189733D01*
X0243500Y0189134D02*
X0250100Y0189134D01*
X0250100Y0188536D02*
X0243500Y0188536D01*
X0243500Y0187937D02*
X0250033Y0187937D01*
X0249434Y0187339D02*
X0243500Y0187339D01*
X0243500Y0186740D02*
X0248836Y0186740D01*
X0248237Y0186141D02*
X0243046Y0186141D01*
X0242447Y0185543D02*
X0247639Y0185543D01*
X0247040Y0184944D02*
X0241849Y0184944D01*
X0241250Y0184346D02*
X0242547Y0184346D01*
X0241742Y0183747D02*
X0240652Y0183747D01*
X0241144Y0183149D02*
X0240053Y0183149D01*
X0239455Y0182550D02*
X0240753Y0182550D01*
X0240505Y0181952D02*
X0239095Y0181952D01*
X0239343Y0181353D02*
X0240257Y0181353D01*
X0240200Y0180755D02*
X0239400Y0180755D01*
X0239400Y0180156D02*
X0240200Y0180156D01*
X0240200Y0179558D02*
X0239400Y0179558D01*
X0239224Y0178959D02*
X0240376Y0178959D01*
X0240624Y0178361D02*
X0238976Y0178361D01*
X0238728Y0177762D02*
X0240872Y0177762D01*
X0241431Y0177164D02*
X0238169Y0177164D01*
X0237571Y0176565D02*
X0242029Y0176565D01*
X0243241Y0175967D02*
X0236500Y0175967D01*
X0236500Y0175368D02*
X0268600Y0175368D01*
X0268600Y0174770D02*
X0236500Y0174770D01*
X0236500Y0174171D02*
X0268600Y0174171D01*
X0268600Y0173573D02*
X0236500Y0173573D01*
X0236500Y0172974D02*
X0268600Y0172974D01*
X0268600Y0172376D02*
X0236500Y0172376D01*
X0236500Y0171777D02*
X0268600Y0171777D01*
X0268600Y0171179D02*
X0236500Y0171179D01*
X0236500Y0170580D02*
X0268600Y0170580D01*
X0268600Y0169982D02*
X0236500Y0169982D01*
X0236500Y0169383D02*
X0268600Y0169383D01*
X0268600Y0168785D02*
X0236500Y0168785D01*
X0236500Y0168186D02*
X0268600Y0168186D01*
X0268600Y0167588D02*
X0235992Y0167588D01*
X0235393Y0166989D02*
X0268600Y0166989D01*
X0268600Y0166391D02*
X0234795Y0166391D01*
X0234196Y0165792D02*
X0268600Y0165792D01*
X0267688Y0165194D02*
X0233598Y0165194D01*
X0232999Y0164595D02*
X0267090Y0164595D01*
X0266491Y0163997D02*
X0232401Y0163997D01*
X0231802Y0163398D02*
X0266190Y0163398D01*
X0265942Y0162800D02*
X0231204Y0162800D01*
X0231199Y0162201D02*
X0265700Y0162201D01*
X0265700Y0161603D02*
X0231400Y0161603D01*
X0231400Y0161004D02*
X0265700Y0161004D01*
X0265700Y0160405D02*
X0231400Y0160405D01*
X0231368Y0159807D02*
X0265939Y0159807D01*
X0253236Y0146640D02*
X0181125Y0146640D01*
X0180384Y0146041D02*
X0252637Y0146041D01*
X0252039Y0145443D02*
X0179643Y0145443D01*
X0178902Y0144844D02*
X0251440Y0144844D01*
X0250842Y0144246D02*
X0178161Y0144246D01*
X0177420Y0143647D02*
X0250243Y0143647D01*
X0249645Y0143049D02*
X0176679Y0143049D01*
X0175938Y0142450D02*
X0249046Y0142450D01*
X0248448Y0141852D02*
X0175197Y0141852D01*
X0174456Y0141253D02*
X0247849Y0141253D01*
X0247250Y0140655D02*
X0173715Y0140655D01*
X0172974Y0140056D02*
X0246652Y0140056D01*
X0246100Y0139458D02*
X0172233Y0139458D01*
X0171492Y0138859D02*
X0246100Y0138859D01*
X0246100Y0138261D02*
X0170751Y0138261D01*
X0170010Y0137662D02*
X0246100Y0137662D01*
X0246100Y0137064D02*
X0169269Y0137064D01*
X0168528Y0136465D02*
X0246100Y0136465D01*
X0246100Y0135867D02*
X0167787Y0135867D01*
X0167046Y0135268D02*
X0246100Y0135268D01*
X0246100Y0134670D02*
X0166305Y0134670D01*
X0165564Y0134071D02*
X0246100Y0134071D01*
X0246100Y0133472D02*
X0164823Y0133472D01*
X0164082Y0132874D02*
X0246100Y0132874D01*
X0246100Y0132275D02*
X0163341Y0132275D01*
X0162600Y0131677D02*
X0236347Y0131677D01*
X0235073Y0131078D02*
X0161859Y0131078D01*
X0161118Y0130480D02*
X0234475Y0130480D01*
X0233890Y0129881D02*
X0160377Y0129881D01*
X0144277Y0114919D02*
X0141852Y0114919D01*
X0142593Y0115517D02*
X0143679Y0115517D01*
X0144876Y0114320D02*
X0141111Y0114320D01*
X0140370Y0113722D02*
X0145474Y0113722D01*
X0146073Y0113123D02*
X0139629Y0113123D01*
X0138888Y0112525D02*
X0146671Y0112525D01*
X0147270Y0111926D02*
X0138147Y0111926D01*
X0137406Y0111328D02*
X0147868Y0111328D01*
X0148467Y0110729D02*
X0136665Y0110729D01*
X0135924Y0110131D02*
X0149065Y0110131D01*
X0135183Y0109532D02*
X0183760Y0109532D01*
X0184161Y0108934D02*
X0134441Y0108934D01*
X0133700Y0108335D02*
X0184760Y0108335D01*
X0185590Y0107737D02*
X0132959Y0107737D01*
X0132218Y0107138D02*
X0192845Y0107138D01*
X0192247Y0107737D02*
X0190010Y0107737D01*
X0190840Y0108335D02*
X0191648Y0108335D01*
X0193444Y0106539D02*
X0131477Y0106539D01*
X0130736Y0105941D02*
X0194042Y0105941D01*
X0194641Y0105342D02*
X0129995Y0105342D01*
X0124837Y0087387D02*
X0394201Y0087387D01*
X0394201Y0086789D02*
X0124238Y0086789D01*
X0123640Y0086190D02*
X0394201Y0086190D01*
X0394201Y0085592D02*
X0110611Y0085592D01*
X0110611Y0086190D02*
X0119960Y0086190D01*
X0110611Y0084993D02*
X0394201Y0084993D01*
X0394201Y0084395D02*
X0110611Y0084395D01*
X0110611Y0083796D02*
X0394201Y0083796D01*
X0394201Y0083198D02*
X0110611Y0083198D01*
X0110611Y0082599D02*
X0394201Y0082599D01*
X0394201Y0082001D02*
X0110611Y0082001D01*
X0110611Y0081402D02*
X0394201Y0081402D01*
X0394201Y0080803D02*
X0110611Y0080803D01*
X0110611Y0080205D02*
X0394201Y0080205D01*
X0394201Y0079606D02*
X0110611Y0079606D01*
X0110611Y0079008D02*
X0394201Y0079008D01*
X0394201Y0078409D02*
X0110611Y0078409D01*
X0110611Y0077811D02*
X0394201Y0077811D01*
X0394201Y0077212D02*
X0110611Y0077212D01*
X0110611Y0076614D02*
X0394201Y0076614D01*
X0394201Y0076015D02*
X0234074Y0076015D01*
X0234673Y0075417D02*
X0394201Y0075417D01*
X0394201Y0074818D02*
X0352129Y0074818D01*
X0352092Y0074882D02*
X0351850Y0075124D01*
X0351554Y0075295D01*
X0351223Y0075383D01*
X0347218Y0075383D01*
X0347218Y0070250D01*
X0346618Y0070250D01*
X0346618Y0075383D01*
X0342613Y0075383D01*
X0342282Y0075295D01*
X0341986Y0075124D01*
X0341744Y0074882D01*
X0341573Y0074585D01*
X0341484Y0074255D01*
X0341484Y0070250D01*
X0346618Y0070250D01*
X0346618Y0069650D01*
X0341484Y0069650D01*
X0341484Y0065645D01*
X0341573Y0065314D01*
X0341744Y0065018D01*
X0341986Y0064775D01*
X0342282Y0064604D01*
X0342613Y0064516D01*
X0346618Y0064516D01*
X0346618Y0069650D01*
X0347218Y0069650D01*
X0347218Y0070250D01*
X0352352Y0070250D01*
X0352352Y0074255D01*
X0352263Y0074585D01*
X0352092Y0074882D01*
X0352352Y0074220D02*
X0394201Y0074220D01*
X0394201Y0073621D02*
X0352352Y0073621D01*
X0352352Y0073023D02*
X0394201Y0073023D01*
X0394201Y0072424D02*
X0352352Y0072424D01*
X0352352Y0071826D02*
X0394201Y0071826D01*
X0394201Y0071227D02*
X0352352Y0071227D01*
X0352352Y0070629D02*
X0373158Y0070629D01*
X0373991Y0070974D02*
X0370619Y0069577D01*
X0368038Y0066997D01*
X0366642Y0063625D01*
X0366642Y0059975D01*
X0368038Y0056603D01*
X0370619Y0054023D01*
X0373991Y0052626D01*
X0377641Y0052626D01*
X0381012Y0054023D01*
X0383593Y0056603D01*
X0384990Y0059975D01*
X0384990Y0063625D01*
X0383593Y0066997D01*
X0381012Y0069577D01*
X0377641Y0070974D01*
X0373991Y0070974D01*
X0371713Y0070030D02*
X0347218Y0070030D01*
X0347218Y0069650D02*
X0352352Y0069650D01*
X0352352Y0065645D01*
X0352263Y0065314D01*
X0352092Y0065018D01*
X0351850Y0064775D01*
X0351554Y0064604D01*
X0351223Y0064516D01*
X0347218Y0064516D01*
X0347218Y0069650D01*
X0347218Y0069432D02*
X0346618Y0069432D01*
X0346618Y0070030D02*
X0255974Y0070030D01*
X0256572Y0069432D02*
X0341484Y0069432D01*
X0341484Y0068833D02*
X0307862Y0068833D01*
X0308461Y0068235D02*
X0341484Y0068235D01*
X0341484Y0067636D02*
X0308989Y0067636D01*
X0308989Y0067038D02*
X0341484Y0067038D01*
X0341484Y0066439D02*
X0308989Y0066439D01*
X0308936Y0065841D02*
X0341484Y0065841D01*
X0341614Y0065242D02*
X0308338Y0065242D01*
X0307739Y0064644D02*
X0342214Y0064644D01*
X0346618Y0064644D02*
X0347218Y0064644D01*
X0347218Y0065242D02*
X0346618Y0065242D01*
X0346618Y0065841D02*
X0347218Y0065841D01*
X0347218Y0066439D02*
X0346618Y0066439D01*
X0346618Y0067038D02*
X0347218Y0067038D01*
X0347218Y0067636D02*
X0346618Y0067636D01*
X0346618Y0068235D02*
X0347218Y0068235D01*
X0347218Y0068833D02*
X0346618Y0068833D01*
X0346618Y0070629D02*
X0347218Y0070629D01*
X0347218Y0071227D02*
X0346618Y0071227D01*
X0346618Y0071826D02*
X0347218Y0071826D01*
X0347218Y0072424D02*
X0346618Y0072424D01*
X0346618Y0073023D02*
X0347218Y0073023D01*
X0347218Y0073621D02*
X0346618Y0073621D01*
X0346618Y0074220D02*
X0347218Y0074220D01*
X0347218Y0074818D02*
X0346618Y0074818D01*
X0341707Y0074818D02*
X0235271Y0074818D01*
X0235870Y0074220D02*
X0341484Y0074220D01*
X0341484Y0073621D02*
X0253074Y0073621D01*
X0253673Y0073023D02*
X0341484Y0073023D01*
X0341484Y0072424D02*
X0253989Y0072424D01*
X0254178Y0071826D02*
X0341484Y0071826D01*
X0341484Y0071227D02*
X0254777Y0071227D01*
X0255375Y0070629D02*
X0341484Y0070629D01*
X0352352Y0069432D02*
X0370474Y0069432D01*
X0369875Y0068833D02*
X0352352Y0068833D01*
X0352352Y0068235D02*
X0369276Y0068235D01*
X0368678Y0067636D02*
X0352352Y0067636D01*
X0352352Y0067038D02*
X0368079Y0067038D01*
X0367807Y0066439D02*
X0352352Y0066439D01*
X0352352Y0065841D02*
X0367560Y0065841D01*
X0367312Y0065242D02*
X0352222Y0065242D01*
X0351622Y0064644D02*
X0367064Y0064644D01*
X0366816Y0064045D02*
X0285535Y0064045D01*
X0284936Y0063447D02*
X0366642Y0063447D01*
X0366642Y0062848D02*
X0284338Y0062848D01*
X0284697Y0063207D02*
X0284697Y0063207D01*
X0283739Y0062250D02*
X0366642Y0062250D01*
X0366642Y0061651D02*
X0233500Y0061651D01*
X0233500Y0061053D02*
X0366642Y0061053D01*
X0366642Y0060454D02*
X0233500Y0060454D01*
X0233500Y0059856D02*
X0366691Y0059856D01*
X0366939Y0059257D02*
X0233500Y0059257D01*
X0233500Y0058659D02*
X0342386Y0058659D01*
X0341884Y0058060D02*
X0233500Y0058060D01*
X0233500Y0057462D02*
X0341884Y0057462D01*
X0341884Y0056863D02*
X0233500Y0056863D01*
X0233500Y0056265D02*
X0341884Y0056265D01*
X0341884Y0055666D02*
X0233500Y0055666D01*
X0233500Y0055068D02*
X0341884Y0055068D01*
X0341884Y0054469D02*
X0233500Y0054469D01*
X0233500Y0053870D02*
X0341884Y0053870D01*
X0341884Y0053272D02*
X0233500Y0053272D01*
X0233500Y0052673D02*
X0341884Y0052673D01*
X0341884Y0052075D02*
X0233500Y0052075D01*
X0233500Y0051476D02*
X0341884Y0051476D01*
X0341741Y0050878D02*
X0233500Y0050878D01*
X0233500Y0050279D02*
X0341143Y0050279D01*
X0340544Y0049681D02*
X0233500Y0049681D01*
X0233500Y0049082D02*
X0339946Y0049082D01*
X0339347Y0048484D02*
X0233500Y0048484D01*
X0233500Y0047885D02*
X0317750Y0047885D01*
X0317750Y0047923D02*
X0317750Y0040877D01*
X0318277Y0040350D01*
X0325323Y0040350D01*
X0325850Y0040877D01*
X0325850Y0047923D01*
X0325323Y0048450D01*
X0318277Y0048450D01*
X0317750Y0047923D01*
X0317750Y0047287D02*
X0233500Y0047287D01*
X0233500Y0046688D02*
X0317750Y0046688D01*
X0317750Y0046090D02*
X0233500Y0046090D01*
X0233500Y0045491D02*
X0317750Y0045491D01*
X0317750Y0044893D02*
X0233500Y0044893D01*
X0233500Y0044294D02*
X0317750Y0044294D01*
X0317750Y0043696D02*
X0233500Y0043696D01*
X0233598Y0043097D02*
X0317750Y0043097D01*
X0317750Y0042499D02*
X0233989Y0042499D01*
X0233989Y0041900D02*
X0317750Y0041900D01*
X0317750Y0041302D02*
X0233989Y0041302D01*
X0233799Y0040703D02*
X0317924Y0040703D01*
X0325676Y0040703D02*
X0331567Y0040703D01*
X0332165Y0041302D02*
X0325850Y0041302D01*
X0325850Y0041900D02*
X0332764Y0041900D01*
X0333362Y0042499D02*
X0325850Y0042499D01*
X0325850Y0043097D02*
X0333961Y0043097D01*
X0334559Y0043696D02*
X0325850Y0043696D01*
X0325850Y0044294D02*
X0335158Y0044294D01*
X0335756Y0044893D02*
X0325850Y0044893D01*
X0325850Y0045491D02*
X0336355Y0045491D01*
X0336953Y0046090D02*
X0325850Y0046090D01*
X0325850Y0046688D02*
X0337552Y0046688D01*
X0338150Y0047287D02*
X0325850Y0047287D01*
X0325850Y0047885D02*
X0338749Y0047885D01*
X0341163Y0045491D02*
X0394201Y0045491D01*
X0394201Y0044893D02*
X0340565Y0044893D01*
X0339966Y0044294D02*
X0394201Y0044294D01*
X0394201Y0043696D02*
X0339368Y0043696D01*
X0338769Y0043097D02*
X0394201Y0043097D01*
X0394201Y0042499D02*
X0338171Y0042499D01*
X0337572Y0041900D02*
X0394201Y0041900D01*
X0394201Y0041302D02*
X0336974Y0041302D01*
X0336375Y0040703D02*
X0394201Y0040703D01*
X0394201Y0040105D02*
X0335777Y0040105D01*
X0335178Y0039506D02*
X0394201Y0039506D01*
X0394201Y0038908D02*
X0334580Y0038908D01*
X0333981Y0038309D02*
X0394201Y0038309D01*
X0394201Y0037711D02*
X0333383Y0037711D01*
X0332784Y0037112D02*
X0394201Y0037112D01*
X0394201Y0036514D02*
X0332186Y0036514D01*
X0331587Y0035915D02*
X0394201Y0035915D01*
X0394201Y0035317D02*
X0330989Y0035317D01*
X0330390Y0034718D02*
X0394201Y0034718D01*
X0394201Y0034120D02*
X0329791Y0034120D01*
X0329193Y0033521D02*
X0394201Y0033521D01*
X0394201Y0032923D02*
X0328594Y0032923D01*
X0327996Y0032324D02*
X0394201Y0032324D01*
X0394201Y0031726D02*
X0327397Y0031726D01*
X0327168Y0031127D02*
X0394201Y0031127D01*
X0394201Y0030529D02*
X0326766Y0030529D01*
X0326168Y0029930D02*
X0394201Y0029930D01*
X0394201Y0029332D02*
X0379522Y0029332D01*
X0380967Y0028733D02*
X0394201Y0028733D01*
X0394201Y0028134D02*
X0381779Y0028134D01*
X0382378Y0027536D02*
X0394201Y0027536D01*
X0394201Y0026937D02*
X0382976Y0026937D01*
X0383575Y0026339D02*
X0394201Y0026339D01*
X0394201Y0025740D02*
X0383827Y0025740D01*
X0383582Y0026332D02*
X0383582Y0026332D01*
X0384075Y0025142D02*
X0394201Y0025142D01*
X0394201Y0024543D02*
X0384323Y0024543D01*
X0384571Y0023945D02*
X0394201Y0023945D01*
X0394201Y0023346D02*
X0384800Y0023346D01*
X0384800Y0022748D02*
X0394201Y0022748D01*
X0394201Y0022149D02*
X0384800Y0022149D01*
X0384800Y0021551D02*
X0394201Y0021551D01*
X0394201Y0020952D02*
X0384800Y0020952D01*
X0384800Y0020354D02*
X0394201Y0020354D01*
X0394201Y0019755D02*
X0384612Y0019755D01*
X0384364Y0019157D02*
X0394201Y0019157D01*
X0394201Y0018558D02*
X0384116Y0018558D01*
X0383868Y0017960D02*
X0394201Y0017960D01*
X0394201Y0017361D02*
X0383621Y0017361D01*
X0383076Y0016763D02*
X0394201Y0016763D01*
X0394201Y0016164D02*
X0382478Y0016164D01*
X0381879Y0015566D02*
X0394201Y0015566D01*
X0394201Y0014967D02*
X0381209Y0014967D01*
X0381332Y0015018D02*
X0381332Y0015018D01*
X0379764Y0014369D02*
X0394201Y0014369D01*
X0394201Y0013770D02*
X0016620Y0013770D01*
X0015879Y0013172D02*
X0394201Y0013172D01*
X0394201Y0012573D02*
X0015138Y0012573D01*
X0014397Y0011975D02*
X0394201Y0011975D01*
X0394201Y0011376D02*
X0013656Y0011376D01*
X0012915Y0010778D02*
X0394201Y0010778D01*
X0394201Y0010179D02*
X0012174Y0010179D01*
X0011433Y0009581D02*
X0394201Y0009581D01*
X0394201Y0008982D02*
X0010692Y0008982D01*
X0009951Y0008384D02*
X0394201Y0008384D01*
X0394201Y0007785D02*
X0009210Y0007785D01*
X0008469Y0007187D02*
X0394201Y0007187D01*
X0394201Y0006588D02*
X0007728Y0006588D01*
X0006987Y0005990D02*
X0394201Y0005990D01*
X0394201Y0005391D02*
X0006246Y0005391D01*
X0005505Y0004793D02*
X0394201Y0004793D01*
X0394201Y0004194D02*
X0004764Y0004194D01*
X0004023Y0003596D02*
X0394201Y0003596D01*
X0373836Y0014369D02*
X0024764Y0014369D01*
X0026209Y0014967D02*
X0372391Y0014967D01*
X0371721Y0015566D02*
X0325739Y0015566D01*
X0325850Y0016164D02*
X0371122Y0016164D01*
X0370523Y0016763D02*
X0325850Y0016763D01*
X0325850Y0017361D02*
X0369979Y0017361D01*
X0370018Y0017268D02*
X0370018Y0017268D01*
X0369732Y0017960D02*
X0325850Y0017960D01*
X0325850Y0018558D02*
X0369484Y0018558D01*
X0369236Y0019157D02*
X0325850Y0019157D01*
X0325850Y0019755D02*
X0368988Y0019755D01*
X0368800Y0020354D02*
X0325850Y0020354D01*
X0325850Y0020952D02*
X0368800Y0020952D01*
X0368800Y0021551D02*
X0325850Y0021551D01*
X0325850Y0022149D02*
X0368800Y0022149D01*
X0368800Y0022748D02*
X0325825Y0022748D01*
X0325707Y0028134D02*
X0371821Y0028134D01*
X0372268Y0028582D02*
X0372268Y0028582D01*
X0372633Y0028733D02*
X0325850Y0028733D01*
X0325850Y0029332D02*
X0374078Y0029332D01*
X0394201Y0046090D02*
X0341762Y0046090D01*
X0342360Y0046688D02*
X0394201Y0046688D01*
X0394201Y0047287D02*
X0342959Y0047287D01*
X0343557Y0047885D02*
X0394201Y0047885D01*
X0394201Y0048484D02*
X0344156Y0048484D01*
X0351891Y0049082D02*
X0394201Y0049082D01*
X0394201Y0049681D02*
X0351952Y0049681D01*
X0351952Y0050279D02*
X0394201Y0050279D01*
X0394201Y0050878D02*
X0351952Y0050878D01*
X0351952Y0051476D02*
X0394201Y0051476D01*
X0394201Y0052075D02*
X0351952Y0052075D01*
X0351952Y0052673D02*
X0373876Y0052673D01*
X0372431Y0053272D02*
X0351952Y0053272D01*
X0351952Y0053870D02*
X0370986Y0053870D01*
X0370173Y0054469D02*
X0351952Y0054469D01*
X0351952Y0055068D02*
X0369574Y0055068D01*
X0368976Y0055666D02*
X0351952Y0055666D01*
X0351952Y0056265D02*
X0368377Y0056265D01*
X0367931Y0056863D02*
X0351952Y0056863D01*
X0351952Y0057462D02*
X0367683Y0057462D01*
X0367435Y0058060D02*
X0351952Y0058060D01*
X0351450Y0058659D02*
X0367187Y0058659D01*
X0377755Y0052673D02*
X0394201Y0052673D01*
X0394201Y0053272D02*
X0379200Y0053272D01*
X0380645Y0053870D02*
X0394201Y0053870D01*
X0394201Y0054469D02*
X0381459Y0054469D01*
X0382057Y0055068D02*
X0394201Y0055068D01*
X0394201Y0055666D02*
X0382656Y0055666D01*
X0383254Y0056265D02*
X0394201Y0056265D01*
X0394201Y0056863D02*
X0383701Y0056863D01*
X0383949Y0057462D02*
X0394201Y0057462D01*
X0394201Y0058060D02*
X0384196Y0058060D01*
X0384444Y0058659D02*
X0394201Y0058659D01*
X0394201Y0059257D02*
X0384692Y0059257D01*
X0384940Y0059856D02*
X0394201Y0059856D01*
X0394201Y0060454D02*
X0384990Y0060454D01*
X0384990Y0061053D02*
X0394201Y0061053D01*
X0394201Y0061651D02*
X0384990Y0061651D01*
X0384990Y0062250D02*
X0394201Y0062250D01*
X0394201Y0062848D02*
X0384990Y0062848D01*
X0384990Y0063447D02*
X0394201Y0063447D01*
X0394201Y0064045D02*
X0384816Y0064045D01*
X0384568Y0064644D02*
X0394201Y0064644D01*
X0394201Y0065242D02*
X0384320Y0065242D01*
X0384072Y0065841D02*
X0394201Y0065841D01*
X0394201Y0066439D02*
X0383824Y0066439D01*
X0383552Y0067038D02*
X0394201Y0067038D01*
X0394201Y0067636D02*
X0382954Y0067636D01*
X0382355Y0068235D02*
X0394201Y0068235D01*
X0394201Y0068833D02*
X0381756Y0068833D01*
X0381158Y0069432D02*
X0394201Y0069432D01*
X0394201Y0070030D02*
X0379919Y0070030D01*
X0378474Y0070629D02*
X0394201Y0070629D01*
X0394201Y0115517D02*
X0325690Y0115517D01*
X0325850Y0116116D02*
X0394201Y0116116D01*
X0394201Y0116714D02*
X0325850Y0116714D01*
X0325850Y0117313D02*
X0394201Y0117313D01*
X0394201Y0117911D02*
X0325850Y0117911D01*
X0340099Y0132874D02*
X0366642Y0132874D01*
X0366642Y0133472D02*
X0339500Y0133472D01*
X0346618Y0134670D02*
X0347218Y0134670D01*
X0347218Y0135268D02*
X0346618Y0135268D01*
X0346618Y0135867D02*
X0347218Y0135867D01*
X0347218Y0136465D02*
X0346618Y0136465D01*
X0346618Y0137064D02*
X0347218Y0137064D01*
X0347218Y0137662D02*
X0346618Y0137662D01*
X0346618Y0138261D02*
X0347218Y0138261D01*
X0347218Y0138859D02*
X0346618Y0138859D01*
X0346618Y0139458D02*
X0347218Y0139458D01*
X0347218Y0140056D02*
X0371775Y0140056D01*
X0370499Y0139458D02*
X0352352Y0139458D01*
X0352352Y0138859D02*
X0369901Y0138859D01*
X0369302Y0138261D02*
X0352352Y0138261D01*
X0352352Y0137662D02*
X0368704Y0137662D01*
X0368105Y0137064D02*
X0352352Y0137064D01*
X0352352Y0136465D02*
X0367818Y0136465D01*
X0367570Y0135867D02*
X0352352Y0135867D01*
X0352237Y0135268D02*
X0367322Y0135268D01*
X0367074Y0134670D02*
X0351667Y0134670D01*
X0352352Y0140655D02*
X0373220Y0140655D01*
X0378412Y0140655D02*
X0394201Y0140655D01*
X0394201Y0141253D02*
X0352352Y0141253D01*
X0352352Y0141852D02*
X0394201Y0141852D01*
X0394201Y0142450D02*
X0352352Y0142450D01*
X0352352Y0143049D02*
X0394201Y0143049D01*
X0394201Y0143647D02*
X0352352Y0143647D01*
X0352352Y0144246D02*
X0394201Y0144246D01*
X0394201Y0144844D02*
X0352114Y0144844D01*
X0366827Y0134071D02*
X0325850Y0134071D01*
X0325850Y0145443D02*
X0394201Y0145443D01*
X0394201Y0146041D02*
X0325850Y0146041D01*
X0325850Y0146640D02*
X0394201Y0146640D01*
X0394201Y0147238D02*
X0325850Y0147238D01*
X0325850Y0147837D02*
X0394201Y0147837D01*
X0394201Y0148435D02*
X0325338Y0148435D01*
X0379857Y0140056D02*
X0394201Y0140056D01*
X0394201Y0139458D02*
X0381132Y0139458D01*
X0381731Y0138859D02*
X0394201Y0138859D01*
X0394201Y0138261D02*
X0382329Y0138261D01*
X0382928Y0137662D02*
X0394201Y0137662D01*
X0394201Y0137064D02*
X0383526Y0137064D01*
X0383813Y0136465D02*
X0394201Y0136465D01*
X0394201Y0135867D02*
X0384061Y0135867D01*
X0384309Y0135268D02*
X0394201Y0135268D01*
X0394201Y0134670D02*
X0384557Y0134670D01*
X0384805Y0134071D02*
X0394201Y0134071D01*
X0394201Y0133472D02*
X0384990Y0133472D01*
X0384990Y0132874D02*
X0394201Y0132874D01*
X0394201Y0132275D02*
X0384990Y0132275D01*
X0384990Y0131677D02*
X0394201Y0131677D01*
X0394201Y0131078D02*
X0384990Y0131078D01*
X0384990Y0130480D02*
X0394201Y0130480D01*
X0394201Y0129881D02*
X0384951Y0129881D01*
X0384703Y0129283D02*
X0394201Y0129283D01*
X0394201Y0128684D02*
X0384455Y0128684D01*
X0384207Y0128086D02*
X0394201Y0128086D01*
X0394201Y0127487D02*
X0383959Y0127487D01*
X0383711Y0126889D02*
X0394201Y0126889D01*
X0394201Y0126290D02*
X0383280Y0126290D01*
X0382682Y0125692D02*
X0394201Y0125692D01*
X0394201Y0125093D02*
X0382083Y0125093D01*
X0381485Y0124495D02*
X0394201Y0124495D01*
X0394201Y0123896D02*
X0380707Y0123896D01*
X0379262Y0123298D02*
X0394201Y0123298D01*
X0305738Y0068833D02*
X0282862Y0068833D01*
X0283461Y0068235D02*
X0284916Y0068235D01*
X0284318Y0067636D02*
X0283989Y0067636D01*
X0280738Y0068833D02*
X0257171Y0068833D01*
X0254757Y0066439D02*
X0243651Y0066439D01*
X0244249Y0065841D02*
X0255355Y0065841D01*
X0254158Y0067038D02*
X0243052Y0067038D01*
X0242454Y0067636D02*
X0253560Y0067636D01*
X0252961Y0068235D02*
X0241855Y0068235D01*
X0241257Y0068833D02*
X0252363Y0068833D01*
X0251764Y0069432D02*
X0240658Y0069432D01*
X0240059Y0070030D02*
X0250474Y0070030D01*
X0249876Y0070629D02*
X0239461Y0070629D01*
X0238862Y0071227D02*
X0249611Y0071227D01*
X0249611Y0071826D02*
X0238264Y0071826D01*
X0237665Y0072424D02*
X0249611Y0072424D01*
X0249927Y0073023D02*
X0237067Y0073023D01*
X0236468Y0073621D02*
X0250526Y0073621D01*
X0241236Y0064045D02*
X0233500Y0064045D01*
X0233500Y0063447D02*
X0241835Y0063447D01*
X0242433Y0062848D02*
X0233500Y0062848D01*
X0233500Y0062250D02*
X0243032Y0062250D01*
X0240638Y0064644D02*
X0233500Y0064644D01*
X0233500Y0065242D02*
X0240039Y0065242D01*
X0239441Y0065841D02*
X0233500Y0065841D01*
X0233500Y0066439D02*
X0238842Y0066439D01*
X0238244Y0067038D02*
X0233500Y0067038D01*
X0233500Y0067636D02*
X0237645Y0067636D01*
X0237047Y0068235D02*
X0233500Y0068235D01*
X0233500Y0068833D02*
X0236448Y0068833D01*
X0235850Y0069432D02*
X0233500Y0069432D01*
X0233500Y0070030D02*
X0235251Y0070030D01*
X0234653Y0070629D02*
X0233724Y0070629D01*
X0233989Y0071227D02*
X0234054Y0071227D01*
X0257353Y0105342D02*
X0200959Y0105342D01*
X0201558Y0105941D02*
X0256755Y0105941D01*
X0256156Y0106539D02*
X0202156Y0106539D01*
X0202755Y0107138D02*
X0255558Y0107138D01*
X0254959Y0107737D02*
X0203353Y0107737D01*
X0203952Y0108335D02*
X0254361Y0108335D01*
X0253762Y0108934D02*
X0204550Y0108934D01*
X0205149Y0109532D02*
X0253164Y0109532D01*
X0252565Y0110131D02*
X0205747Y0110131D01*
X0206346Y0110729D02*
X0251967Y0110729D01*
X0251368Y0111328D02*
X0206944Y0111328D01*
X0207543Y0111926D02*
X0250770Y0111926D01*
X0250171Y0112525D02*
X0208141Y0112525D01*
X0208740Y0113123D02*
X0249573Y0113123D01*
X0248974Y0113722D02*
X0209338Y0113722D01*
X0209937Y0114320D02*
X0248376Y0114320D01*
X0247777Y0114919D02*
X0210535Y0114919D01*
X0211134Y0115517D02*
X0247179Y0115517D01*
X0246580Y0116116D02*
X0211732Y0116116D01*
X0212331Y0116714D02*
X0245982Y0116714D01*
X0245383Y0117313D02*
X0212929Y0117313D01*
X0213528Y0117911D02*
X0244785Y0117911D01*
X0244186Y0118510D02*
X0214126Y0118510D01*
X0214725Y0119108D02*
X0243588Y0119108D01*
X0242989Y0119707D02*
X0215323Y0119707D01*
X0215922Y0120305D02*
X0242391Y0120305D01*
X0241792Y0120904D02*
X0216520Y0120904D01*
X0217119Y0121502D02*
X0241194Y0121502D01*
X0240595Y0122101D02*
X0217717Y0122101D01*
X0218316Y0122699D02*
X0239997Y0122699D01*
X0242411Y0125093D02*
X0243735Y0125093D01*
X0243487Y0125692D02*
X0242113Y0125692D01*
X0242361Y0126290D02*
X0243239Y0126290D01*
X0243200Y0126889D02*
X0242400Y0126889D01*
X0242400Y0127487D02*
X0243200Y0127487D01*
X0243200Y0128086D02*
X0242400Y0128086D01*
X0242206Y0128684D02*
X0243394Y0128684D01*
X0243642Y0129283D02*
X0241958Y0129283D01*
X0241710Y0129881D02*
X0243890Y0129881D01*
X0244475Y0130480D02*
X0241125Y0130480D01*
X0240527Y0131078D02*
X0245073Y0131078D01*
X0246100Y0131677D02*
X0239253Y0131677D01*
X0233642Y0129283D02*
X0182721Y0129283D01*
X0183320Y0128684D02*
X0219493Y0128684D01*
X0218894Y0128086D02*
X0183918Y0128086D01*
X0184517Y0127487D02*
X0218296Y0127487D01*
X0217697Y0126889D02*
X0185115Y0126889D01*
X0185714Y0126290D02*
X0217099Y0126290D01*
X0216500Y0125692D02*
X0186312Y0125692D01*
X0186911Y0125093D02*
X0215902Y0125093D01*
X0215303Y0124495D02*
X0187509Y0124495D01*
X0188108Y0123896D02*
X0214705Y0123896D01*
X0214106Y0123298D02*
X0188706Y0123298D01*
X0189305Y0122699D02*
X0213508Y0122699D01*
X0212909Y0122101D02*
X0189903Y0122101D01*
X0190502Y0121502D02*
X0212311Y0121502D01*
X0211712Y0120904D02*
X0191100Y0120904D01*
X0191699Y0120305D02*
X0211114Y0120305D01*
X0210515Y0119707D02*
X0192297Y0119707D01*
X0192896Y0119108D02*
X0209917Y0119108D01*
X0209318Y0118510D02*
X0193494Y0118510D01*
X0194093Y0117911D02*
X0208720Y0117911D01*
X0208121Y0117313D02*
X0194691Y0117313D01*
X0195290Y0116714D02*
X0207523Y0116714D01*
X0206924Y0116116D02*
X0199401Y0116116D01*
X0200588Y0115517D02*
X0206326Y0115517D01*
X0205727Y0114919D02*
X0201187Y0114919D01*
X0201735Y0114320D02*
X0205128Y0114320D01*
X0204530Y0113722D02*
X0201983Y0113722D01*
X0202231Y0113123D02*
X0203931Y0113123D01*
X0203333Y0112525D02*
X0202400Y0112525D01*
X0202400Y0111926D02*
X0202734Y0111926D01*
X0196199Y0116116D02*
X0195888Y0116116D01*
X0218914Y0123298D02*
X0235442Y0123298D01*
X0234698Y0123896D02*
X0219513Y0123896D01*
X0220111Y0124495D02*
X0234100Y0124495D01*
X0233735Y0125093D02*
X0220710Y0125093D01*
X0243009Y0124495D02*
X0244100Y0124495D01*
X0243608Y0123896D02*
X0244698Y0123896D01*
X0244206Y0123298D02*
X0245442Y0123298D01*
X0216418Y0153822D02*
X0201942Y0153822D01*
X0201685Y0154420D02*
X0217016Y0154420D01*
X0217615Y0155019D02*
X0201086Y0155019D01*
X0200488Y0155617D02*
X0218213Y0155617D01*
X0212649Y0162800D02*
X0201133Y0162800D01*
X0201874Y0163398D02*
X0212897Y0163398D01*
X0213491Y0163997D02*
X0202615Y0163997D01*
X0203356Y0164595D02*
X0214090Y0164595D01*
X0215387Y0165194D02*
X0204097Y0165194D01*
X0186793Y0147238D02*
X0181866Y0147238D01*
X0182607Y0147837D02*
X0185348Y0147837D01*
X0184659Y0148435D02*
X0183348Y0148435D01*
X0228550Y0184944D02*
X0237040Y0184944D01*
X0237639Y0185543D02*
X0229291Y0185543D01*
X0230032Y0186141D02*
X0238237Y0186141D01*
X0249095Y0181952D02*
X0268600Y0181952D01*
X0268600Y0182550D02*
X0249455Y0182550D01*
X0250053Y0183149D02*
X0268600Y0183149D01*
X0268600Y0183747D02*
X0250652Y0183747D01*
X0251250Y0184346D02*
X0268600Y0184346D01*
X0268600Y0184944D02*
X0251849Y0184944D01*
X0252447Y0185543D02*
X0268600Y0185543D01*
X0268600Y0186141D02*
X0253046Y0186141D01*
X0253500Y0186740D02*
X0268600Y0186740D01*
X0268600Y0187339D02*
X0253500Y0187339D01*
X0253500Y0187937D02*
X0268600Y0187937D01*
X0268600Y0188536D02*
X0253500Y0188536D01*
X0253500Y0189134D02*
X0268600Y0189134D01*
X0268600Y0189733D02*
X0253500Y0189733D01*
X0253500Y0190331D02*
X0268600Y0190331D01*
X0268600Y0190930D02*
X0253500Y0190930D01*
X0253500Y0191528D02*
X0268600Y0191528D01*
X0268600Y0192127D02*
X0253500Y0192127D01*
X0253500Y0192725D02*
X0268600Y0192725D01*
X0268600Y0193324D02*
X0253500Y0193324D01*
X0253500Y0193922D02*
X0268600Y0193922D01*
X0268600Y0194521D02*
X0253500Y0194521D01*
X0253500Y0195119D02*
X0268600Y0195119D01*
X0268600Y0195718D02*
X0253500Y0195718D01*
X0253500Y0196316D02*
X0268600Y0196316D01*
X0268600Y0196915D02*
X0253500Y0196915D01*
X0253500Y0197513D02*
X0268600Y0197513D01*
X0268600Y0198112D02*
X0253500Y0198112D01*
X0253500Y0198710D02*
X0268600Y0198710D01*
X0268600Y0199309D02*
X0253500Y0199309D01*
X0253500Y0199907D02*
X0268600Y0199907D01*
X0268600Y0200506D02*
X0253500Y0200506D01*
X0253500Y0201104D02*
X0268600Y0201104D01*
X0268600Y0201703D02*
X0253500Y0201703D01*
X0253500Y0202301D02*
X0268600Y0202301D01*
X0268600Y0202900D02*
X0254404Y0202900D01*
X0255004Y0203498D02*
X0268600Y0203498D01*
X0268600Y0204097D02*
X0255602Y0204097D01*
X0255907Y0204695D02*
X0268600Y0204695D01*
X0268600Y0205294D02*
X0256155Y0205294D01*
X0256400Y0205892D02*
X0268600Y0205892D01*
X0268600Y0206491D02*
X0256400Y0206491D01*
X0256400Y0207089D02*
X0268600Y0207089D01*
X0268600Y0207688D02*
X0256709Y0207688D01*
X0257450Y0208286D02*
X0268600Y0208286D01*
X0268600Y0208885D02*
X0258191Y0208885D01*
X0258932Y0209483D02*
X0268600Y0209483D01*
X0268600Y0210082D02*
X0259673Y0210082D01*
X0260414Y0210680D02*
X0268600Y0210680D01*
X0268600Y0211279D02*
X0261155Y0211279D01*
X0261896Y0211877D02*
X0268600Y0211877D01*
X0268600Y0212476D02*
X0262637Y0212476D01*
X0263378Y0213074D02*
X0268600Y0213074D01*
X0268600Y0213673D02*
X0264119Y0213673D01*
X0264860Y0214272D02*
X0268600Y0214272D01*
X0268600Y0214870D02*
X0265601Y0214870D01*
X0266342Y0215469D02*
X0268600Y0215469D01*
X0268600Y0216067D02*
X0267083Y0216067D01*
X0267824Y0216666D02*
X0268600Y0216666D01*
X0268600Y0217264D02*
X0268565Y0217264D01*
X0250100Y0202301D02*
X0250040Y0202301D01*
X0250100Y0201703D02*
X0249299Y0201703D01*
X0248558Y0201104D02*
X0250100Y0201104D01*
X0250100Y0200506D02*
X0247817Y0200506D01*
X0247076Y0199907D02*
X0250100Y0199907D01*
X0250100Y0199309D02*
X0246335Y0199309D01*
X0245594Y0198710D02*
X0250100Y0198710D01*
X0250100Y0198112D02*
X0244853Y0198112D01*
X0244112Y0197513D02*
X0250100Y0197513D01*
X0250100Y0196915D02*
X0243500Y0196915D01*
X0243500Y0196316D02*
X0250100Y0196316D01*
X0250100Y0195718D02*
X0243500Y0195718D01*
X0243500Y0195119D02*
X0250100Y0195119D01*
X0250100Y0194521D02*
X0243500Y0194521D01*
X0249343Y0181353D02*
X0268600Y0181353D01*
X0268600Y0180755D02*
X0249400Y0180755D01*
X0249400Y0180156D02*
X0268600Y0180156D01*
X0268600Y0179558D02*
X0249400Y0179558D01*
X0249224Y0178959D02*
X0268600Y0178959D01*
X0268600Y0178361D02*
X0248976Y0178361D01*
X0248728Y0177762D02*
X0268600Y0177762D01*
X0268600Y0177164D02*
X0248169Y0177164D01*
X0247571Y0176565D02*
X0268600Y0176565D01*
X0268600Y0175967D02*
X0246359Y0175967D01*
X0286133Y0064644D02*
X0305861Y0064644D01*
X0325850Y0035317D02*
X0326180Y0035317D01*
X0317750Y0022149D02*
X0228855Y0022149D01*
X0229453Y0021551D02*
X0317750Y0021551D01*
X0317750Y0020952D02*
X0230052Y0020952D01*
X0227638Y0018558D02*
X0029116Y0018558D01*
X0028868Y0017960D02*
X0228236Y0017960D01*
X0227039Y0019157D02*
X0029364Y0019157D01*
X0029612Y0019755D02*
X0226440Y0019755D01*
X0225842Y0020354D02*
X0029800Y0020354D01*
X0029800Y0020952D02*
X0225243Y0020952D01*
X0224645Y0021551D02*
X0029800Y0021551D01*
X0029800Y0022149D02*
X0224046Y0022149D01*
X0223448Y0022748D02*
X0029800Y0022748D01*
X0029800Y0023346D02*
X0222849Y0023346D01*
X0222251Y0023945D02*
X0029571Y0023945D01*
X0029959Y0024543D02*
X0221652Y0024543D01*
X0317750Y0017361D02*
X0028621Y0017361D01*
X0028076Y0016763D02*
X0317750Y0016763D01*
X0317750Y0016164D02*
X0027478Y0016164D01*
X0026879Y0015566D02*
X0317861Y0015566D01*
X0026332Y0015018D02*
X0026332Y0015018D01*
X0018836Y0014369D02*
X0017361Y0014369D01*
D18*
X0071800Y0051800D02*
X0094289Y0029311D01*
X0102831Y0029311D01*
X0120320Y0046800D01*
X0136800Y0046800D01*
D19*
X0321800Y0031800D02*
X0325068Y0031800D01*
M02*
