G75*
%MOIN*%
%OFA0B0*%
%FSLAX25Y25*%
%IPPOS*%
%LPD*%
%AMOC8*
5,1,8,0,0,1.08239X$1,22.5*
%
%ADD10C,0.00000*%
%ADD11R,0.06337X0.06337*%
%ADD12C,0.06337*%
%ADD13C,0.13195*%
%ADD14C,0.11030*%
%ADD15C,0.16148*%
%ADD16R,0.08668X0.08668*%
%ADD17C,0.13400*%
D10*
X0005157Y0001000D02*
X0005157Y0288402D01*
X0241378Y0288402D01*
X0241378Y0001000D01*
X0005157Y0001000D01*
X0011748Y0015469D02*
X0011750Y0015630D01*
X0011756Y0015790D01*
X0011766Y0015951D01*
X0011780Y0016111D01*
X0011798Y0016271D01*
X0011819Y0016430D01*
X0011845Y0016589D01*
X0011875Y0016747D01*
X0011908Y0016904D01*
X0011946Y0017061D01*
X0011987Y0017216D01*
X0012032Y0017370D01*
X0012081Y0017523D01*
X0012134Y0017675D01*
X0012190Y0017826D01*
X0012251Y0017975D01*
X0012314Y0018123D01*
X0012382Y0018269D01*
X0012453Y0018413D01*
X0012527Y0018555D01*
X0012605Y0018696D01*
X0012687Y0018834D01*
X0012772Y0018971D01*
X0012860Y0019105D01*
X0012952Y0019237D01*
X0013047Y0019367D01*
X0013145Y0019495D01*
X0013246Y0019620D01*
X0013350Y0019742D01*
X0013457Y0019862D01*
X0013567Y0019979D01*
X0013680Y0020094D01*
X0013796Y0020205D01*
X0013915Y0020314D01*
X0014036Y0020419D01*
X0014160Y0020522D01*
X0014286Y0020622D01*
X0014414Y0020718D01*
X0014545Y0020811D01*
X0014679Y0020901D01*
X0014814Y0020988D01*
X0014952Y0021071D01*
X0015091Y0021151D01*
X0015233Y0021227D01*
X0015376Y0021300D01*
X0015521Y0021369D01*
X0015668Y0021435D01*
X0015816Y0021497D01*
X0015966Y0021555D01*
X0016117Y0021610D01*
X0016270Y0021661D01*
X0016424Y0021708D01*
X0016579Y0021751D01*
X0016735Y0021790D01*
X0016891Y0021826D01*
X0017049Y0021857D01*
X0017207Y0021885D01*
X0017366Y0021909D01*
X0017526Y0021929D01*
X0017686Y0021945D01*
X0017846Y0021957D01*
X0018007Y0021965D01*
X0018168Y0021969D01*
X0018328Y0021969D01*
X0018489Y0021965D01*
X0018650Y0021957D01*
X0018810Y0021945D01*
X0018970Y0021929D01*
X0019130Y0021909D01*
X0019289Y0021885D01*
X0019447Y0021857D01*
X0019605Y0021826D01*
X0019761Y0021790D01*
X0019917Y0021751D01*
X0020072Y0021708D01*
X0020226Y0021661D01*
X0020379Y0021610D01*
X0020530Y0021555D01*
X0020680Y0021497D01*
X0020828Y0021435D01*
X0020975Y0021369D01*
X0021120Y0021300D01*
X0021263Y0021227D01*
X0021405Y0021151D01*
X0021544Y0021071D01*
X0021682Y0020988D01*
X0021817Y0020901D01*
X0021951Y0020811D01*
X0022082Y0020718D01*
X0022210Y0020622D01*
X0022336Y0020522D01*
X0022460Y0020419D01*
X0022581Y0020314D01*
X0022700Y0020205D01*
X0022816Y0020094D01*
X0022929Y0019979D01*
X0023039Y0019862D01*
X0023146Y0019742D01*
X0023250Y0019620D01*
X0023351Y0019495D01*
X0023449Y0019367D01*
X0023544Y0019237D01*
X0023636Y0019105D01*
X0023724Y0018971D01*
X0023809Y0018834D01*
X0023891Y0018696D01*
X0023969Y0018555D01*
X0024043Y0018413D01*
X0024114Y0018269D01*
X0024182Y0018123D01*
X0024245Y0017975D01*
X0024306Y0017826D01*
X0024362Y0017675D01*
X0024415Y0017523D01*
X0024464Y0017370D01*
X0024509Y0017216D01*
X0024550Y0017061D01*
X0024588Y0016904D01*
X0024621Y0016747D01*
X0024651Y0016589D01*
X0024677Y0016430D01*
X0024698Y0016271D01*
X0024716Y0016111D01*
X0024730Y0015951D01*
X0024740Y0015790D01*
X0024746Y0015630D01*
X0024748Y0015469D01*
X0024746Y0015308D01*
X0024740Y0015148D01*
X0024730Y0014987D01*
X0024716Y0014827D01*
X0024698Y0014667D01*
X0024677Y0014508D01*
X0024651Y0014349D01*
X0024621Y0014191D01*
X0024588Y0014034D01*
X0024550Y0013877D01*
X0024509Y0013722D01*
X0024464Y0013568D01*
X0024415Y0013415D01*
X0024362Y0013263D01*
X0024306Y0013112D01*
X0024245Y0012963D01*
X0024182Y0012815D01*
X0024114Y0012669D01*
X0024043Y0012525D01*
X0023969Y0012383D01*
X0023891Y0012242D01*
X0023809Y0012104D01*
X0023724Y0011967D01*
X0023636Y0011833D01*
X0023544Y0011701D01*
X0023449Y0011571D01*
X0023351Y0011443D01*
X0023250Y0011318D01*
X0023146Y0011196D01*
X0023039Y0011076D01*
X0022929Y0010959D01*
X0022816Y0010844D01*
X0022700Y0010733D01*
X0022581Y0010624D01*
X0022460Y0010519D01*
X0022336Y0010416D01*
X0022210Y0010316D01*
X0022082Y0010220D01*
X0021951Y0010127D01*
X0021817Y0010037D01*
X0021682Y0009950D01*
X0021544Y0009867D01*
X0021405Y0009787D01*
X0021263Y0009711D01*
X0021120Y0009638D01*
X0020975Y0009569D01*
X0020828Y0009503D01*
X0020680Y0009441D01*
X0020530Y0009383D01*
X0020379Y0009328D01*
X0020226Y0009277D01*
X0020072Y0009230D01*
X0019917Y0009187D01*
X0019761Y0009148D01*
X0019605Y0009112D01*
X0019447Y0009081D01*
X0019289Y0009053D01*
X0019130Y0009029D01*
X0018970Y0009009D01*
X0018810Y0008993D01*
X0018650Y0008981D01*
X0018489Y0008973D01*
X0018328Y0008969D01*
X0018168Y0008969D01*
X0018007Y0008973D01*
X0017846Y0008981D01*
X0017686Y0008993D01*
X0017526Y0009009D01*
X0017366Y0009029D01*
X0017207Y0009053D01*
X0017049Y0009081D01*
X0016891Y0009112D01*
X0016735Y0009148D01*
X0016579Y0009187D01*
X0016424Y0009230D01*
X0016270Y0009277D01*
X0016117Y0009328D01*
X0015966Y0009383D01*
X0015816Y0009441D01*
X0015668Y0009503D01*
X0015521Y0009569D01*
X0015376Y0009638D01*
X0015233Y0009711D01*
X0015091Y0009787D01*
X0014952Y0009867D01*
X0014814Y0009950D01*
X0014679Y0010037D01*
X0014545Y0010127D01*
X0014414Y0010220D01*
X0014286Y0010316D01*
X0014160Y0010416D01*
X0014036Y0010519D01*
X0013915Y0010624D01*
X0013796Y0010733D01*
X0013680Y0010844D01*
X0013567Y0010959D01*
X0013457Y0011076D01*
X0013350Y0011196D01*
X0013246Y0011318D01*
X0013145Y0011443D01*
X0013047Y0011571D01*
X0012952Y0011701D01*
X0012860Y0011833D01*
X0012772Y0011967D01*
X0012687Y0012104D01*
X0012605Y0012242D01*
X0012527Y0012383D01*
X0012453Y0012525D01*
X0012382Y0012669D01*
X0012314Y0012815D01*
X0012251Y0012963D01*
X0012190Y0013112D01*
X0012134Y0013263D01*
X0012081Y0013415D01*
X0012032Y0013568D01*
X0011987Y0013722D01*
X0011946Y0013877D01*
X0011908Y0014034D01*
X0011875Y0014191D01*
X0011845Y0014349D01*
X0011819Y0014508D01*
X0011798Y0014667D01*
X0011780Y0014827D01*
X0011766Y0014987D01*
X0011756Y0015148D01*
X0011750Y0015308D01*
X0011748Y0015469D01*
X0018799Y0055311D02*
X0018801Y0055504D01*
X0018808Y0055697D01*
X0018820Y0055890D01*
X0018837Y0056083D01*
X0018858Y0056275D01*
X0018884Y0056466D01*
X0018915Y0056657D01*
X0018950Y0056847D01*
X0018990Y0057036D01*
X0019035Y0057224D01*
X0019084Y0057411D01*
X0019138Y0057597D01*
X0019196Y0057781D01*
X0019259Y0057964D01*
X0019327Y0058145D01*
X0019398Y0058324D01*
X0019475Y0058502D01*
X0019555Y0058678D01*
X0019640Y0058851D01*
X0019729Y0059023D01*
X0019822Y0059192D01*
X0019919Y0059359D01*
X0020021Y0059524D01*
X0020126Y0059686D01*
X0020235Y0059845D01*
X0020349Y0060002D01*
X0020466Y0060155D01*
X0020586Y0060306D01*
X0020711Y0060454D01*
X0020839Y0060599D01*
X0020970Y0060740D01*
X0021105Y0060879D01*
X0021244Y0061014D01*
X0021385Y0061145D01*
X0021530Y0061273D01*
X0021678Y0061398D01*
X0021829Y0061518D01*
X0021982Y0061635D01*
X0022139Y0061749D01*
X0022298Y0061858D01*
X0022460Y0061963D01*
X0022625Y0062065D01*
X0022792Y0062162D01*
X0022961Y0062255D01*
X0023133Y0062344D01*
X0023306Y0062429D01*
X0023482Y0062509D01*
X0023660Y0062586D01*
X0023839Y0062657D01*
X0024020Y0062725D01*
X0024203Y0062788D01*
X0024387Y0062846D01*
X0024573Y0062900D01*
X0024760Y0062949D01*
X0024948Y0062994D01*
X0025137Y0063034D01*
X0025327Y0063069D01*
X0025518Y0063100D01*
X0025709Y0063126D01*
X0025901Y0063147D01*
X0026094Y0063164D01*
X0026287Y0063176D01*
X0026480Y0063183D01*
X0026673Y0063185D01*
X0026866Y0063183D01*
X0027059Y0063176D01*
X0027252Y0063164D01*
X0027445Y0063147D01*
X0027637Y0063126D01*
X0027828Y0063100D01*
X0028019Y0063069D01*
X0028209Y0063034D01*
X0028398Y0062994D01*
X0028586Y0062949D01*
X0028773Y0062900D01*
X0028959Y0062846D01*
X0029143Y0062788D01*
X0029326Y0062725D01*
X0029507Y0062657D01*
X0029686Y0062586D01*
X0029864Y0062509D01*
X0030040Y0062429D01*
X0030213Y0062344D01*
X0030385Y0062255D01*
X0030554Y0062162D01*
X0030721Y0062065D01*
X0030886Y0061963D01*
X0031048Y0061858D01*
X0031207Y0061749D01*
X0031364Y0061635D01*
X0031517Y0061518D01*
X0031668Y0061398D01*
X0031816Y0061273D01*
X0031961Y0061145D01*
X0032102Y0061014D01*
X0032241Y0060879D01*
X0032376Y0060740D01*
X0032507Y0060599D01*
X0032635Y0060454D01*
X0032760Y0060306D01*
X0032880Y0060155D01*
X0032997Y0060002D01*
X0033111Y0059845D01*
X0033220Y0059686D01*
X0033325Y0059524D01*
X0033427Y0059359D01*
X0033524Y0059192D01*
X0033617Y0059023D01*
X0033706Y0058851D01*
X0033791Y0058678D01*
X0033871Y0058502D01*
X0033948Y0058324D01*
X0034019Y0058145D01*
X0034087Y0057964D01*
X0034150Y0057781D01*
X0034208Y0057597D01*
X0034262Y0057411D01*
X0034311Y0057224D01*
X0034356Y0057036D01*
X0034396Y0056847D01*
X0034431Y0056657D01*
X0034462Y0056466D01*
X0034488Y0056275D01*
X0034509Y0056083D01*
X0034526Y0055890D01*
X0034538Y0055697D01*
X0034545Y0055504D01*
X0034547Y0055311D01*
X0034545Y0055118D01*
X0034538Y0054925D01*
X0034526Y0054732D01*
X0034509Y0054539D01*
X0034488Y0054347D01*
X0034462Y0054156D01*
X0034431Y0053965D01*
X0034396Y0053775D01*
X0034356Y0053586D01*
X0034311Y0053398D01*
X0034262Y0053211D01*
X0034208Y0053025D01*
X0034150Y0052841D01*
X0034087Y0052658D01*
X0034019Y0052477D01*
X0033948Y0052298D01*
X0033871Y0052120D01*
X0033791Y0051944D01*
X0033706Y0051771D01*
X0033617Y0051599D01*
X0033524Y0051430D01*
X0033427Y0051263D01*
X0033325Y0051098D01*
X0033220Y0050936D01*
X0033111Y0050777D01*
X0032997Y0050620D01*
X0032880Y0050467D01*
X0032760Y0050316D01*
X0032635Y0050168D01*
X0032507Y0050023D01*
X0032376Y0049882D01*
X0032241Y0049743D01*
X0032102Y0049608D01*
X0031961Y0049477D01*
X0031816Y0049349D01*
X0031668Y0049224D01*
X0031517Y0049104D01*
X0031364Y0048987D01*
X0031207Y0048873D01*
X0031048Y0048764D01*
X0030886Y0048659D01*
X0030721Y0048557D01*
X0030554Y0048460D01*
X0030385Y0048367D01*
X0030213Y0048278D01*
X0030040Y0048193D01*
X0029864Y0048113D01*
X0029686Y0048036D01*
X0029507Y0047965D01*
X0029326Y0047897D01*
X0029143Y0047834D01*
X0028959Y0047776D01*
X0028773Y0047722D01*
X0028586Y0047673D01*
X0028398Y0047628D01*
X0028209Y0047588D01*
X0028019Y0047553D01*
X0027828Y0047522D01*
X0027637Y0047496D01*
X0027445Y0047475D01*
X0027252Y0047458D01*
X0027059Y0047446D01*
X0026866Y0047439D01*
X0026673Y0047437D01*
X0026480Y0047439D01*
X0026287Y0047446D01*
X0026094Y0047458D01*
X0025901Y0047475D01*
X0025709Y0047496D01*
X0025518Y0047522D01*
X0025327Y0047553D01*
X0025137Y0047588D01*
X0024948Y0047628D01*
X0024760Y0047673D01*
X0024573Y0047722D01*
X0024387Y0047776D01*
X0024203Y0047834D01*
X0024020Y0047897D01*
X0023839Y0047965D01*
X0023660Y0048036D01*
X0023482Y0048113D01*
X0023306Y0048193D01*
X0023133Y0048278D01*
X0022961Y0048367D01*
X0022792Y0048460D01*
X0022625Y0048557D01*
X0022460Y0048659D01*
X0022298Y0048764D01*
X0022139Y0048873D01*
X0021982Y0048987D01*
X0021829Y0049104D01*
X0021678Y0049224D01*
X0021530Y0049349D01*
X0021385Y0049477D01*
X0021244Y0049608D01*
X0021105Y0049743D01*
X0020970Y0049882D01*
X0020839Y0050023D01*
X0020711Y0050168D01*
X0020586Y0050316D01*
X0020466Y0050467D01*
X0020349Y0050620D01*
X0020235Y0050777D01*
X0020126Y0050936D01*
X0020021Y0051098D01*
X0019919Y0051263D01*
X0019822Y0051430D01*
X0019729Y0051599D01*
X0019640Y0051771D01*
X0019555Y0051944D01*
X0019475Y0052120D01*
X0019398Y0052298D01*
X0019327Y0052477D01*
X0019259Y0052658D01*
X0019196Y0052841D01*
X0019138Y0053025D01*
X0019084Y0053211D01*
X0019035Y0053398D01*
X0018990Y0053586D01*
X0018950Y0053775D01*
X0018915Y0053965D01*
X0018884Y0054156D01*
X0018858Y0054347D01*
X0018837Y0054539D01*
X0018820Y0054732D01*
X0018808Y0054925D01*
X0018801Y0055118D01*
X0018799Y0055311D01*
X0018110Y0116413D02*
X0018112Y0116606D01*
X0018119Y0116799D01*
X0018131Y0116992D01*
X0018148Y0117185D01*
X0018169Y0117377D01*
X0018195Y0117568D01*
X0018226Y0117759D01*
X0018261Y0117949D01*
X0018301Y0118138D01*
X0018346Y0118326D01*
X0018395Y0118513D01*
X0018449Y0118699D01*
X0018507Y0118883D01*
X0018570Y0119066D01*
X0018638Y0119247D01*
X0018709Y0119426D01*
X0018786Y0119604D01*
X0018866Y0119780D01*
X0018951Y0119953D01*
X0019040Y0120125D01*
X0019133Y0120294D01*
X0019230Y0120461D01*
X0019332Y0120626D01*
X0019437Y0120788D01*
X0019546Y0120947D01*
X0019660Y0121104D01*
X0019777Y0121257D01*
X0019897Y0121408D01*
X0020022Y0121556D01*
X0020150Y0121701D01*
X0020281Y0121842D01*
X0020416Y0121981D01*
X0020555Y0122116D01*
X0020696Y0122247D01*
X0020841Y0122375D01*
X0020989Y0122500D01*
X0021140Y0122620D01*
X0021293Y0122737D01*
X0021450Y0122851D01*
X0021609Y0122960D01*
X0021771Y0123065D01*
X0021936Y0123167D01*
X0022103Y0123264D01*
X0022272Y0123357D01*
X0022444Y0123446D01*
X0022617Y0123531D01*
X0022793Y0123611D01*
X0022971Y0123688D01*
X0023150Y0123759D01*
X0023331Y0123827D01*
X0023514Y0123890D01*
X0023698Y0123948D01*
X0023884Y0124002D01*
X0024071Y0124051D01*
X0024259Y0124096D01*
X0024448Y0124136D01*
X0024638Y0124171D01*
X0024829Y0124202D01*
X0025020Y0124228D01*
X0025212Y0124249D01*
X0025405Y0124266D01*
X0025598Y0124278D01*
X0025791Y0124285D01*
X0025984Y0124287D01*
X0026177Y0124285D01*
X0026370Y0124278D01*
X0026563Y0124266D01*
X0026756Y0124249D01*
X0026948Y0124228D01*
X0027139Y0124202D01*
X0027330Y0124171D01*
X0027520Y0124136D01*
X0027709Y0124096D01*
X0027897Y0124051D01*
X0028084Y0124002D01*
X0028270Y0123948D01*
X0028454Y0123890D01*
X0028637Y0123827D01*
X0028818Y0123759D01*
X0028997Y0123688D01*
X0029175Y0123611D01*
X0029351Y0123531D01*
X0029524Y0123446D01*
X0029696Y0123357D01*
X0029865Y0123264D01*
X0030032Y0123167D01*
X0030197Y0123065D01*
X0030359Y0122960D01*
X0030518Y0122851D01*
X0030675Y0122737D01*
X0030828Y0122620D01*
X0030979Y0122500D01*
X0031127Y0122375D01*
X0031272Y0122247D01*
X0031413Y0122116D01*
X0031552Y0121981D01*
X0031687Y0121842D01*
X0031818Y0121701D01*
X0031946Y0121556D01*
X0032071Y0121408D01*
X0032191Y0121257D01*
X0032308Y0121104D01*
X0032422Y0120947D01*
X0032531Y0120788D01*
X0032636Y0120626D01*
X0032738Y0120461D01*
X0032835Y0120294D01*
X0032928Y0120125D01*
X0033017Y0119953D01*
X0033102Y0119780D01*
X0033182Y0119604D01*
X0033259Y0119426D01*
X0033330Y0119247D01*
X0033398Y0119066D01*
X0033461Y0118883D01*
X0033519Y0118699D01*
X0033573Y0118513D01*
X0033622Y0118326D01*
X0033667Y0118138D01*
X0033707Y0117949D01*
X0033742Y0117759D01*
X0033773Y0117568D01*
X0033799Y0117377D01*
X0033820Y0117185D01*
X0033837Y0116992D01*
X0033849Y0116799D01*
X0033856Y0116606D01*
X0033858Y0116413D01*
X0033856Y0116220D01*
X0033849Y0116027D01*
X0033837Y0115834D01*
X0033820Y0115641D01*
X0033799Y0115449D01*
X0033773Y0115258D01*
X0033742Y0115067D01*
X0033707Y0114877D01*
X0033667Y0114688D01*
X0033622Y0114500D01*
X0033573Y0114313D01*
X0033519Y0114127D01*
X0033461Y0113943D01*
X0033398Y0113760D01*
X0033330Y0113579D01*
X0033259Y0113400D01*
X0033182Y0113222D01*
X0033102Y0113046D01*
X0033017Y0112873D01*
X0032928Y0112701D01*
X0032835Y0112532D01*
X0032738Y0112365D01*
X0032636Y0112200D01*
X0032531Y0112038D01*
X0032422Y0111879D01*
X0032308Y0111722D01*
X0032191Y0111569D01*
X0032071Y0111418D01*
X0031946Y0111270D01*
X0031818Y0111125D01*
X0031687Y0110984D01*
X0031552Y0110845D01*
X0031413Y0110710D01*
X0031272Y0110579D01*
X0031127Y0110451D01*
X0030979Y0110326D01*
X0030828Y0110206D01*
X0030675Y0110089D01*
X0030518Y0109975D01*
X0030359Y0109866D01*
X0030197Y0109761D01*
X0030032Y0109659D01*
X0029865Y0109562D01*
X0029696Y0109469D01*
X0029524Y0109380D01*
X0029351Y0109295D01*
X0029175Y0109215D01*
X0028997Y0109138D01*
X0028818Y0109067D01*
X0028637Y0108999D01*
X0028454Y0108936D01*
X0028270Y0108878D01*
X0028084Y0108824D01*
X0027897Y0108775D01*
X0027709Y0108730D01*
X0027520Y0108690D01*
X0027330Y0108655D01*
X0027139Y0108624D01*
X0026948Y0108598D01*
X0026756Y0108577D01*
X0026563Y0108560D01*
X0026370Y0108548D01*
X0026177Y0108541D01*
X0025984Y0108539D01*
X0025791Y0108541D01*
X0025598Y0108548D01*
X0025405Y0108560D01*
X0025212Y0108577D01*
X0025020Y0108598D01*
X0024829Y0108624D01*
X0024638Y0108655D01*
X0024448Y0108690D01*
X0024259Y0108730D01*
X0024071Y0108775D01*
X0023884Y0108824D01*
X0023698Y0108878D01*
X0023514Y0108936D01*
X0023331Y0108999D01*
X0023150Y0109067D01*
X0022971Y0109138D01*
X0022793Y0109215D01*
X0022617Y0109295D01*
X0022444Y0109380D01*
X0022272Y0109469D01*
X0022103Y0109562D01*
X0021936Y0109659D01*
X0021771Y0109761D01*
X0021609Y0109866D01*
X0021450Y0109975D01*
X0021293Y0110089D01*
X0021140Y0110206D01*
X0020989Y0110326D01*
X0020841Y0110451D01*
X0020696Y0110579D01*
X0020555Y0110710D01*
X0020416Y0110845D01*
X0020281Y0110984D01*
X0020150Y0111125D01*
X0020022Y0111270D01*
X0019897Y0111418D01*
X0019777Y0111569D01*
X0019660Y0111722D01*
X0019546Y0111879D01*
X0019437Y0112038D01*
X0019332Y0112200D01*
X0019230Y0112365D01*
X0019133Y0112532D01*
X0019040Y0112701D01*
X0018951Y0112873D01*
X0018866Y0113046D01*
X0018786Y0113222D01*
X0018709Y0113400D01*
X0018638Y0113579D01*
X0018570Y0113760D01*
X0018507Y0113943D01*
X0018449Y0114127D01*
X0018395Y0114313D01*
X0018346Y0114500D01*
X0018301Y0114688D01*
X0018261Y0114877D01*
X0018226Y0115067D01*
X0018195Y0115258D01*
X0018169Y0115449D01*
X0018148Y0115641D01*
X0018131Y0115834D01*
X0018119Y0116027D01*
X0018112Y0116220D01*
X0018110Y0116413D01*
X0018799Y0176118D02*
X0018801Y0176311D01*
X0018808Y0176504D01*
X0018820Y0176697D01*
X0018837Y0176890D01*
X0018858Y0177082D01*
X0018884Y0177273D01*
X0018915Y0177464D01*
X0018950Y0177654D01*
X0018990Y0177843D01*
X0019035Y0178031D01*
X0019084Y0178218D01*
X0019138Y0178404D01*
X0019196Y0178588D01*
X0019259Y0178771D01*
X0019327Y0178952D01*
X0019398Y0179131D01*
X0019475Y0179309D01*
X0019555Y0179485D01*
X0019640Y0179658D01*
X0019729Y0179830D01*
X0019822Y0179999D01*
X0019919Y0180166D01*
X0020021Y0180331D01*
X0020126Y0180493D01*
X0020235Y0180652D01*
X0020349Y0180809D01*
X0020466Y0180962D01*
X0020586Y0181113D01*
X0020711Y0181261D01*
X0020839Y0181406D01*
X0020970Y0181547D01*
X0021105Y0181686D01*
X0021244Y0181821D01*
X0021385Y0181952D01*
X0021530Y0182080D01*
X0021678Y0182205D01*
X0021829Y0182325D01*
X0021982Y0182442D01*
X0022139Y0182556D01*
X0022298Y0182665D01*
X0022460Y0182770D01*
X0022625Y0182872D01*
X0022792Y0182969D01*
X0022961Y0183062D01*
X0023133Y0183151D01*
X0023306Y0183236D01*
X0023482Y0183316D01*
X0023660Y0183393D01*
X0023839Y0183464D01*
X0024020Y0183532D01*
X0024203Y0183595D01*
X0024387Y0183653D01*
X0024573Y0183707D01*
X0024760Y0183756D01*
X0024948Y0183801D01*
X0025137Y0183841D01*
X0025327Y0183876D01*
X0025518Y0183907D01*
X0025709Y0183933D01*
X0025901Y0183954D01*
X0026094Y0183971D01*
X0026287Y0183983D01*
X0026480Y0183990D01*
X0026673Y0183992D01*
X0026866Y0183990D01*
X0027059Y0183983D01*
X0027252Y0183971D01*
X0027445Y0183954D01*
X0027637Y0183933D01*
X0027828Y0183907D01*
X0028019Y0183876D01*
X0028209Y0183841D01*
X0028398Y0183801D01*
X0028586Y0183756D01*
X0028773Y0183707D01*
X0028959Y0183653D01*
X0029143Y0183595D01*
X0029326Y0183532D01*
X0029507Y0183464D01*
X0029686Y0183393D01*
X0029864Y0183316D01*
X0030040Y0183236D01*
X0030213Y0183151D01*
X0030385Y0183062D01*
X0030554Y0182969D01*
X0030721Y0182872D01*
X0030886Y0182770D01*
X0031048Y0182665D01*
X0031207Y0182556D01*
X0031364Y0182442D01*
X0031517Y0182325D01*
X0031668Y0182205D01*
X0031816Y0182080D01*
X0031961Y0181952D01*
X0032102Y0181821D01*
X0032241Y0181686D01*
X0032376Y0181547D01*
X0032507Y0181406D01*
X0032635Y0181261D01*
X0032760Y0181113D01*
X0032880Y0180962D01*
X0032997Y0180809D01*
X0033111Y0180652D01*
X0033220Y0180493D01*
X0033325Y0180331D01*
X0033427Y0180166D01*
X0033524Y0179999D01*
X0033617Y0179830D01*
X0033706Y0179658D01*
X0033791Y0179485D01*
X0033871Y0179309D01*
X0033948Y0179131D01*
X0034019Y0178952D01*
X0034087Y0178771D01*
X0034150Y0178588D01*
X0034208Y0178404D01*
X0034262Y0178218D01*
X0034311Y0178031D01*
X0034356Y0177843D01*
X0034396Y0177654D01*
X0034431Y0177464D01*
X0034462Y0177273D01*
X0034488Y0177082D01*
X0034509Y0176890D01*
X0034526Y0176697D01*
X0034538Y0176504D01*
X0034545Y0176311D01*
X0034547Y0176118D01*
X0034545Y0175925D01*
X0034538Y0175732D01*
X0034526Y0175539D01*
X0034509Y0175346D01*
X0034488Y0175154D01*
X0034462Y0174963D01*
X0034431Y0174772D01*
X0034396Y0174582D01*
X0034356Y0174393D01*
X0034311Y0174205D01*
X0034262Y0174018D01*
X0034208Y0173832D01*
X0034150Y0173648D01*
X0034087Y0173465D01*
X0034019Y0173284D01*
X0033948Y0173105D01*
X0033871Y0172927D01*
X0033791Y0172751D01*
X0033706Y0172578D01*
X0033617Y0172406D01*
X0033524Y0172237D01*
X0033427Y0172070D01*
X0033325Y0171905D01*
X0033220Y0171743D01*
X0033111Y0171584D01*
X0032997Y0171427D01*
X0032880Y0171274D01*
X0032760Y0171123D01*
X0032635Y0170975D01*
X0032507Y0170830D01*
X0032376Y0170689D01*
X0032241Y0170550D01*
X0032102Y0170415D01*
X0031961Y0170284D01*
X0031816Y0170156D01*
X0031668Y0170031D01*
X0031517Y0169911D01*
X0031364Y0169794D01*
X0031207Y0169680D01*
X0031048Y0169571D01*
X0030886Y0169466D01*
X0030721Y0169364D01*
X0030554Y0169267D01*
X0030385Y0169174D01*
X0030213Y0169085D01*
X0030040Y0169000D01*
X0029864Y0168920D01*
X0029686Y0168843D01*
X0029507Y0168772D01*
X0029326Y0168704D01*
X0029143Y0168641D01*
X0028959Y0168583D01*
X0028773Y0168529D01*
X0028586Y0168480D01*
X0028398Y0168435D01*
X0028209Y0168395D01*
X0028019Y0168360D01*
X0027828Y0168329D01*
X0027637Y0168303D01*
X0027445Y0168282D01*
X0027252Y0168265D01*
X0027059Y0168253D01*
X0026866Y0168246D01*
X0026673Y0168244D01*
X0026480Y0168246D01*
X0026287Y0168253D01*
X0026094Y0168265D01*
X0025901Y0168282D01*
X0025709Y0168303D01*
X0025518Y0168329D01*
X0025327Y0168360D01*
X0025137Y0168395D01*
X0024948Y0168435D01*
X0024760Y0168480D01*
X0024573Y0168529D01*
X0024387Y0168583D01*
X0024203Y0168641D01*
X0024020Y0168704D01*
X0023839Y0168772D01*
X0023660Y0168843D01*
X0023482Y0168920D01*
X0023306Y0169000D01*
X0023133Y0169085D01*
X0022961Y0169174D01*
X0022792Y0169267D01*
X0022625Y0169364D01*
X0022460Y0169466D01*
X0022298Y0169571D01*
X0022139Y0169680D01*
X0021982Y0169794D01*
X0021829Y0169911D01*
X0021678Y0170031D01*
X0021530Y0170156D01*
X0021385Y0170284D01*
X0021244Y0170415D01*
X0021105Y0170550D01*
X0020970Y0170689D01*
X0020839Y0170830D01*
X0020711Y0170975D01*
X0020586Y0171123D01*
X0020466Y0171274D01*
X0020349Y0171427D01*
X0020235Y0171584D01*
X0020126Y0171743D01*
X0020021Y0171905D01*
X0019919Y0172070D01*
X0019822Y0172237D01*
X0019729Y0172406D01*
X0019640Y0172578D01*
X0019555Y0172751D01*
X0019475Y0172927D01*
X0019398Y0173105D01*
X0019327Y0173284D01*
X0019259Y0173465D01*
X0019196Y0173648D01*
X0019138Y0173832D01*
X0019084Y0174018D01*
X0019035Y0174205D01*
X0018990Y0174393D01*
X0018950Y0174582D01*
X0018915Y0174772D01*
X0018884Y0174963D01*
X0018858Y0175154D01*
X0018837Y0175346D01*
X0018820Y0175539D01*
X0018808Y0175732D01*
X0018801Y0175925D01*
X0018799Y0176118D01*
X0018110Y0233598D02*
X0018112Y0233791D01*
X0018119Y0233984D01*
X0018131Y0234177D01*
X0018148Y0234370D01*
X0018169Y0234562D01*
X0018195Y0234753D01*
X0018226Y0234944D01*
X0018261Y0235134D01*
X0018301Y0235323D01*
X0018346Y0235511D01*
X0018395Y0235698D01*
X0018449Y0235884D01*
X0018507Y0236068D01*
X0018570Y0236251D01*
X0018638Y0236432D01*
X0018709Y0236611D01*
X0018786Y0236789D01*
X0018866Y0236965D01*
X0018951Y0237138D01*
X0019040Y0237310D01*
X0019133Y0237479D01*
X0019230Y0237646D01*
X0019332Y0237811D01*
X0019437Y0237973D01*
X0019546Y0238132D01*
X0019660Y0238289D01*
X0019777Y0238442D01*
X0019897Y0238593D01*
X0020022Y0238741D01*
X0020150Y0238886D01*
X0020281Y0239027D01*
X0020416Y0239166D01*
X0020555Y0239301D01*
X0020696Y0239432D01*
X0020841Y0239560D01*
X0020989Y0239685D01*
X0021140Y0239805D01*
X0021293Y0239922D01*
X0021450Y0240036D01*
X0021609Y0240145D01*
X0021771Y0240250D01*
X0021936Y0240352D01*
X0022103Y0240449D01*
X0022272Y0240542D01*
X0022444Y0240631D01*
X0022617Y0240716D01*
X0022793Y0240796D01*
X0022971Y0240873D01*
X0023150Y0240944D01*
X0023331Y0241012D01*
X0023514Y0241075D01*
X0023698Y0241133D01*
X0023884Y0241187D01*
X0024071Y0241236D01*
X0024259Y0241281D01*
X0024448Y0241321D01*
X0024638Y0241356D01*
X0024829Y0241387D01*
X0025020Y0241413D01*
X0025212Y0241434D01*
X0025405Y0241451D01*
X0025598Y0241463D01*
X0025791Y0241470D01*
X0025984Y0241472D01*
X0026177Y0241470D01*
X0026370Y0241463D01*
X0026563Y0241451D01*
X0026756Y0241434D01*
X0026948Y0241413D01*
X0027139Y0241387D01*
X0027330Y0241356D01*
X0027520Y0241321D01*
X0027709Y0241281D01*
X0027897Y0241236D01*
X0028084Y0241187D01*
X0028270Y0241133D01*
X0028454Y0241075D01*
X0028637Y0241012D01*
X0028818Y0240944D01*
X0028997Y0240873D01*
X0029175Y0240796D01*
X0029351Y0240716D01*
X0029524Y0240631D01*
X0029696Y0240542D01*
X0029865Y0240449D01*
X0030032Y0240352D01*
X0030197Y0240250D01*
X0030359Y0240145D01*
X0030518Y0240036D01*
X0030675Y0239922D01*
X0030828Y0239805D01*
X0030979Y0239685D01*
X0031127Y0239560D01*
X0031272Y0239432D01*
X0031413Y0239301D01*
X0031552Y0239166D01*
X0031687Y0239027D01*
X0031818Y0238886D01*
X0031946Y0238741D01*
X0032071Y0238593D01*
X0032191Y0238442D01*
X0032308Y0238289D01*
X0032422Y0238132D01*
X0032531Y0237973D01*
X0032636Y0237811D01*
X0032738Y0237646D01*
X0032835Y0237479D01*
X0032928Y0237310D01*
X0033017Y0237138D01*
X0033102Y0236965D01*
X0033182Y0236789D01*
X0033259Y0236611D01*
X0033330Y0236432D01*
X0033398Y0236251D01*
X0033461Y0236068D01*
X0033519Y0235884D01*
X0033573Y0235698D01*
X0033622Y0235511D01*
X0033667Y0235323D01*
X0033707Y0235134D01*
X0033742Y0234944D01*
X0033773Y0234753D01*
X0033799Y0234562D01*
X0033820Y0234370D01*
X0033837Y0234177D01*
X0033849Y0233984D01*
X0033856Y0233791D01*
X0033858Y0233598D01*
X0033856Y0233405D01*
X0033849Y0233212D01*
X0033837Y0233019D01*
X0033820Y0232826D01*
X0033799Y0232634D01*
X0033773Y0232443D01*
X0033742Y0232252D01*
X0033707Y0232062D01*
X0033667Y0231873D01*
X0033622Y0231685D01*
X0033573Y0231498D01*
X0033519Y0231312D01*
X0033461Y0231128D01*
X0033398Y0230945D01*
X0033330Y0230764D01*
X0033259Y0230585D01*
X0033182Y0230407D01*
X0033102Y0230231D01*
X0033017Y0230058D01*
X0032928Y0229886D01*
X0032835Y0229717D01*
X0032738Y0229550D01*
X0032636Y0229385D01*
X0032531Y0229223D01*
X0032422Y0229064D01*
X0032308Y0228907D01*
X0032191Y0228754D01*
X0032071Y0228603D01*
X0031946Y0228455D01*
X0031818Y0228310D01*
X0031687Y0228169D01*
X0031552Y0228030D01*
X0031413Y0227895D01*
X0031272Y0227764D01*
X0031127Y0227636D01*
X0030979Y0227511D01*
X0030828Y0227391D01*
X0030675Y0227274D01*
X0030518Y0227160D01*
X0030359Y0227051D01*
X0030197Y0226946D01*
X0030032Y0226844D01*
X0029865Y0226747D01*
X0029696Y0226654D01*
X0029524Y0226565D01*
X0029351Y0226480D01*
X0029175Y0226400D01*
X0028997Y0226323D01*
X0028818Y0226252D01*
X0028637Y0226184D01*
X0028454Y0226121D01*
X0028270Y0226063D01*
X0028084Y0226009D01*
X0027897Y0225960D01*
X0027709Y0225915D01*
X0027520Y0225875D01*
X0027330Y0225840D01*
X0027139Y0225809D01*
X0026948Y0225783D01*
X0026756Y0225762D01*
X0026563Y0225745D01*
X0026370Y0225733D01*
X0026177Y0225726D01*
X0025984Y0225724D01*
X0025791Y0225726D01*
X0025598Y0225733D01*
X0025405Y0225745D01*
X0025212Y0225762D01*
X0025020Y0225783D01*
X0024829Y0225809D01*
X0024638Y0225840D01*
X0024448Y0225875D01*
X0024259Y0225915D01*
X0024071Y0225960D01*
X0023884Y0226009D01*
X0023698Y0226063D01*
X0023514Y0226121D01*
X0023331Y0226184D01*
X0023150Y0226252D01*
X0022971Y0226323D01*
X0022793Y0226400D01*
X0022617Y0226480D01*
X0022444Y0226565D01*
X0022272Y0226654D01*
X0022103Y0226747D01*
X0021936Y0226844D01*
X0021771Y0226946D01*
X0021609Y0227051D01*
X0021450Y0227160D01*
X0021293Y0227274D01*
X0021140Y0227391D01*
X0020989Y0227511D01*
X0020841Y0227636D01*
X0020696Y0227764D01*
X0020555Y0227895D01*
X0020416Y0228030D01*
X0020281Y0228169D01*
X0020150Y0228310D01*
X0020022Y0228455D01*
X0019897Y0228603D01*
X0019777Y0228754D01*
X0019660Y0228907D01*
X0019546Y0229064D01*
X0019437Y0229223D01*
X0019332Y0229385D01*
X0019230Y0229550D01*
X0019133Y0229717D01*
X0019040Y0229886D01*
X0018951Y0230058D01*
X0018866Y0230231D01*
X0018786Y0230407D01*
X0018709Y0230585D01*
X0018638Y0230764D01*
X0018570Y0230945D01*
X0018507Y0231128D01*
X0018449Y0231312D01*
X0018395Y0231498D01*
X0018346Y0231685D01*
X0018301Y0231873D01*
X0018261Y0232062D01*
X0018226Y0232252D01*
X0018195Y0232443D01*
X0018169Y0232634D01*
X0018148Y0232826D01*
X0018131Y0233019D01*
X0018119Y0233212D01*
X0018112Y0233405D01*
X0018110Y0233598D01*
X0013815Y0275902D02*
X0013817Y0276063D01*
X0013823Y0276223D01*
X0013833Y0276384D01*
X0013847Y0276544D01*
X0013865Y0276704D01*
X0013886Y0276863D01*
X0013912Y0277022D01*
X0013942Y0277180D01*
X0013975Y0277337D01*
X0014013Y0277494D01*
X0014054Y0277649D01*
X0014099Y0277803D01*
X0014148Y0277956D01*
X0014201Y0278108D01*
X0014257Y0278259D01*
X0014318Y0278408D01*
X0014381Y0278556D01*
X0014449Y0278702D01*
X0014520Y0278846D01*
X0014594Y0278988D01*
X0014672Y0279129D01*
X0014754Y0279267D01*
X0014839Y0279404D01*
X0014927Y0279538D01*
X0015019Y0279670D01*
X0015114Y0279800D01*
X0015212Y0279928D01*
X0015313Y0280053D01*
X0015417Y0280175D01*
X0015524Y0280295D01*
X0015634Y0280412D01*
X0015747Y0280527D01*
X0015863Y0280638D01*
X0015982Y0280747D01*
X0016103Y0280852D01*
X0016227Y0280955D01*
X0016353Y0281055D01*
X0016481Y0281151D01*
X0016612Y0281244D01*
X0016746Y0281334D01*
X0016881Y0281421D01*
X0017019Y0281504D01*
X0017158Y0281584D01*
X0017300Y0281660D01*
X0017443Y0281733D01*
X0017588Y0281802D01*
X0017735Y0281868D01*
X0017883Y0281930D01*
X0018033Y0281988D01*
X0018184Y0282043D01*
X0018337Y0282094D01*
X0018491Y0282141D01*
X0018646Y0282184D01*
X0018802Y0282223D01*
X0018958Y0282259D01*
X0019116Y0282290D01*
X0019274Y0282318D01*
X0019433Y0282342D01*
X0019593Y0282362D01*
X0019753Y0282378D01*
X0019913Y0282390D01*
X0020074Y0282398D01*
X0020235Y0282402D01*
X0020395Y0282402D01*
X0020556Y0282398D01*
X0020717Y0282390D01*
X0020877Y0282378D01*
X0021037Y0282362D01*
X0021197Y0282342D01*
X0021356Y0282318D01*
X0021514Y0282290D01*
X0021672Y0282259D01*
X0021828Y0282223D01*
X0021984Y0282184D01*
X0022139Y0282141D01*
X0022293Y0282094D01*
X0022446Y0282043D01*
X0022597Y0281988D01*
X0022747Y0281930D01*
X0022895Y0281868D01*
X0023042Y0281802D01*
X0023187Y0281733D01*
X0023330Y0281660D01*
X0023472Y0281584D01*
X0023611Y0281504D01*
X0023749Y0281421D01*
X0023884Y0281334D01*
X0024018Y0281244D01*
X0024149Y0281151D01*
X0024277Y0281055D01*
X0024403Y0280955D01*
X0024527Y0280852D01*
X0024648Y0280747D01*
X0024767Y0280638D01*
X0024883Y0280527D01*
X0024996Y0280412D01*
X0025106Y0280295D01*
X0025213Y0280175D01*
X0025317Y0280053D01*
X0025418Y0279928D01*
X0025516Y0279800D01*
X0025611Y0279670D01*
X0025703Y0279538D01*
X0025791Y0279404D01*
X0025876Y0279267D01*
X0025958Y0279129D01*
X0026036Y0278988D01*
X0026110Y0278846D01*
X0026181Y0278702D01*
X0026249Y0278556D01*
X0026312Y0278408D01*
X0026373Y0278259D01*
X0026429Y0278108D01*
X0026482Y0277956D01*
X0026531Y0277803D01*
X0026576Y0277649D01*
X0026617Y0277494D01*
X0026655Y0277337D01*
X0026688Y0277180D01*
X0026718Y0277022D01*
X0026744Y0276863D01*
X0026765Y0276704D01*
X0026783Y0276544D01*
X0026797Y0276384D01*
X0026807Y0276223D01*
X0026813Y0276063D01*
X0026815Y0275902D01*
X0026813Y0275741D01*
X0026807Y0275581D01*
X0026797Y0275420D01*
X0026783Y0275260D01*
X0026765Y0275100D01*
X0026744Y0274941D01*
X0026718Y0274782D01*
X0026688Y0274624D01*
X0026655Y0274467D01*
X0026617Y0274310D01*
X0026576Y0274155D01*
X0026531Y0274001D01*
X0026482Y0273848D01*
X0026429Y0273696D01*
X0026373Y0273545D01*
X0026312Y0273396D01*
X0026249Y0273248D01*
X0026181Y0273102D01*
X0026110Y0272958D01*
X0026036Y0272816D01*
X0025958Y0272675D01*
X0025876Y0272537D01*
X0025791Y0272400D01*
X0025703Y0272266D01*
X0025611Y0272134D01*
X0025516Y0272004D01*
X0025418Y0271876D01*
X0025317Y0271751D01*
X0025213Y0271629D01*
X0025106Y0271509D01*
X0024996Y0271392D01*
X0024883Y0271277D01*
X0024767Y0271166D01*
X0024648Y0271057D01*
X0024527Y0270952D01*
X0024403Y0270849D01*
X0024277Y0270749D01*
X0024149Y0270653D01*
X0024018Y0270560D01*
X0023884Y0270470D01*
X0023749Y0270383D01*
X0023611Y0270300D01*
X0023472Y0270220D01*
X0023330Y0270144D01*
X0023187Y0270071D01*
X0023042Y0270002D01*
X0022895Y0269936D01*
X0022747Y0269874D01*
X0022597Y0269816D01*
X0022446Y0269761D01*
X0022293Y0269710D01*
X0022139Y0269663D01*
X0021984Y0269620D01*
X0021828Y0269581D01*
X0021672Y0269545D01*
X0021514Y0269514D01*
X0021356Y0269486D01*
X0021197Y0269462D01*
X0021037Y0269442D01*
X0020877Y0269426D01*
X0020717Y0269414D01*
X0020556Y0269406D01*
X0020395Y0269402D01*
X0020235Y0269402D01*
X0020074Y0269406D01*
X0019913Y0269414D01*
X0019753Y0269426D01*
X0019593Y0269442D01*
X0019433Y0269462D01*
X0019274Y0269486D01*
X0019116Y0269514D01*
X0018958Y0269545D01*
X0018802Y0269581D01*
X0018646Y0269620D01*
X0018491Y0269663D01*
X0018337Y0269710D01*
X0018184Y0269761D01*
X0018033Y0269816D01*
X0017883Y0269874D01*
X0017735Y0269936D01*
X0017588Y0270002D01*
X0017443Y0270071D01*
X0017300Y0270144D01*
X0017158Y0270220D01*
X0017019Y0270300D01*
X0016881Y0270383D01*
X0016746Y0270470D01*
X0016612Y0270560D01*
X0016481Y0270653D01*
X0016353Y0270749D01*
X0016227Y0270849D01*
X0016103Y0270952D01*
X0015982Y0271057D01*
X0015863Y0271166D01*
X0015747Y0271277D01*
X0015634Y0271392D01*
X0015524Y0271509D01*
X0015417Y0271629D01*
X0015313Y0271751D01*
X0015212Y0271876D01*
X0015114Y0272004D01*
X0015019Y0272134D01*
X0014927Y0272266D01*
X0014839Y0272400D01*
X0014754Y0272537D01*
X0014672Y0272675D01*
X0014594Y0272816D01*
X0014520Y0272958D01*
X0014449Y0273102D01*
X0014381Y0273248D01*
X0014318Y0273396D01*
X0014257Y0273545D01*
X0014201Y0273696D01*
X0014148Y0273848D01*
X0014099Y0274001D01*
X0014054Y0274155D01*
X0014013Y0274310D01*
X0013975Y0274467D01*
X0013942Y0274624D01*
X0013912Y0274782D01*
X0013886Y0274941D01*
X0013865Y0275100D01*
X0013847Y0275260D01*
X0013833Y0275420D01*
X0013823Y0275581D01*
X0013817Y0275741D01*
X0013815Y0275902D01*
X0215256Y0178421D02*
X0215258Y0178581D01*
X0215264Y0178740D01*
X0215274Y0178899D01*
X0215288Y0179058D01*
X0215306Y0179217D01*
X0215327Y0179375D01*
X0215353Y0179532D01*
X0215383Y0179689D01*
X0215416Y0179845D01*
X0215454Y0180000D01*
X0215495Y0180154D01*
X0215540Y0180307D01*
X0215589Y0180459D01*
X0215642Y0180609D01*
X0215698Y0180758D01*
X0215758Y0180906D01*
X0215822Y0181052D01*
X0215890Y0181197D01*
X0215961Y0181340D01*
X0216035Y0181481D01*
X0216113Y0181620D01*
X0216195Y0181757D01*
X0216280Y0181892D01*
X0216368Y0182025D01*
X0216459Y0182156D01*
X0216554Y0182284D01*
X0216652Y0182410D01*
X0216753Y0182534D01*
X0216857Y0182654D01*
X0216964Y0182773D01*
X0217074Y0182888D01*
X0217187Y0183001D01*
X0217302Y0183111D01*
X0217421Y0183218D01*
X0217541Y0183322D01*
X0217665Y0183423D01*
X0217791Y0183521D01*
X0217919Y0183616D01*
X0218050Y0183707D01*
X0218183Y0183795D01*
X0218318Y0183880D01*
X0218455Y0183962D01*
X0218594Y0184040D01*
X0218735Y0184114D01*
X0218878Y0184185D01*
X0219023Y0184253D01*
X0219169Y0184317D01*
X0219317Y0184377D01*
X0219466Y0184433D01*
X0219616Y0184486D01*
X0219768Y0184535D01*
X0219921Y0184580D01*
X0220075Y0184621D01*
X0220230Y0184659D01*
X0220386Y0184692D01*
X0220543Y0184722D01*
X0220700Y0184748D01*
X0220858Y0184769D01*
X0221017Y0184787D01*
X0221176Y0184801D01*
X0221335Y0184811D01*
X0221494Y0184817D01*
X0221654Y0184819D01*
X0221814Y0184817D01*
X0221973Y0184811D01*
X0222132Y0184801D01*
X0222291Y0184787D01*
X0222450Y0184769D01*
X0222608Y0184748D01*
X0222765Y0184722D01*
X0222922Y0184692D01*
X0223078Y0184659D01*
X0223233Y0184621D01*
X0223387Y0184580D01*
X0223540Y0184535D01*
X0223692Y0184486D01*
X0223842Y0184433D01*
X0223991Y0184377D01*
X0224139Y0184317D01*
X0224285Y0184253D01*
X0224430Y0184185D01*
X0224573Y0184114D01*
X0224714Y0184040D01*
X0224853Y0183962D01*
X0224990Y0183880D01*
X0225125Y0183795D01*
X0225258Y0183707D01*
X0225389Y0183616D01*
X0225517Y0183521D01*
X0225643Y0183423D01*
X0225767Y0183322D01*
X0225887Y0183218D01*
X0226006Y0183111D01*
X0226121Y0183001D01*
X0226234Y0182888D01*
X0226344Y0182773D01*
X0226451Y0182654D01*
X0226555Y0182534D01*
X0226656Y0182410D01*
X0226754Y0182284D01*
X0226849Y0182156D01*
X0226940Y0182025D01*
X0227028Y0181892D01*
X0227113Y0181757D01*
X0227195Y0181620D01*
X0227273Y0181481D01*
X0227347Y0181340D01*
X0227418Y0181197D01*
X0227486Y0181052D01*
X0227550Y0180906D01*
X0227610Y0180758D01*
X0227666Y0180609D01*
X0227719Y0180459D01*
X0227768Y0180307D01*
X0227813Y0180154D01*
X0227854Y0180000D01*
X0227892Y0179845D01*
X0227925Y0179689D01*
X0227955Y0179532D01*
X0227981Y0179375D01*
X0228002Y0179217D01*
X0228020Y0179058D01*
X0228034Y0178899D01*
X0228044Y0178740D01*
X0228050Y0178581D01*
X0228052Y0178421D01*
X0228050Y0178261D01*
X0228044Y0178102D01*
X0228034Y0177943D01*
X0228020Y0177784D01*
X0228002Y0177625D01*
X0227981Y0177467D01*
X0227955Y0177310D01*
X0227925Y0177153D01*
X0227892Y0176997D01*
X0227854Y0176842D01*
X0227813Y0176688D01*
X0227768Y0176535D01*
X0227719Y0176383D01*
X0227666Y0176233D01*
X0227610Y0176084D01*
X0227550Y0175936D01*
X0227486Y0175790D01*
X0227418Y0175645D01*
X0227347Y0175502D01*
X0227273Y0175361D01*
X0227195Y0175222D01*
X0227113Y0175085D01*
X0227028Y0174950D01*
X0226940Y0174817D01*
X0226849Y0174686D01*
X0226754Y0174558D01*
X0226656Y0174432D01*
X0226555Y0174308D01*
X0226451Y0174188D01*
X0226344Y0174069D01*
X0226234Y0173954D01*
X0226121Y0173841D01*
X0226006Y0173731D01*
X0225887Y0173624D01*
X0225767Y0173520D01*
X0225643Y0173419D01*
X0225517Y0173321D01*
X0225389Y0173226D01*
X0225258Y0173135D01*
X0225125Y0173047D01*
X0224990Y0172962D01*
X0224853Y0172880D01*
X0224714Y0172802D01*
X0224573Y0172728D01*
X0224430Y0172657D01*
X0224285Y0172589D01*
X0224139Y0172525D01*
X0223991Y0172465D01*
X0223842Y0172409D01*
X0223692Y0172356D01*
X0223540Y0172307D01*
X0223387Y0172262D01*
X0223233Y0172221D01*
X0223078Y0172183D01*
X0222922Y0172150D01*
X0222765Y0172120D01*
X0222608Y0172094D01*
X0222450Y0172073D01*
X0222291Y0172055D01*
X0222132Y0172041D01*
X0221973Y0172031D01*
X0221814Y0172025D01*
X0221654Y0172023D01*
X0221494Y0172025D01*
X0221335Y0172031D01*
X0221176Y0172041D01*
X0221017Y0172055D01*
X0220858Y0172073D01*
X0220700Y0172094D01*
X0220543Y0172120D01*
X0220386Y0172150D01*
X0220230Y0172183D01*
X0220075Y0172221D01*
X0219921Y0172262D01*
X0219768Y0172307D01*
X0219616Y0172356D01*
X0219466Y0172409D01*
X0219317Y0172465D01*
X0219169Y0172525D01*
X0219023Y0172589D01*
X0218878Y0172657D01*
X0218735Y0172728D01*
X0218594Y0172802D01*
X0218455Y0172880D01*
X0218318Y0172962D01*
X0218183Y0173047D01*
X0218050Y0173135D01*
X0217919Y0173226D01*
X0217791Y0173321D01*
X0217665Y0173419D01*
X0217541Y0173520D01*
X0217421Y0173624D01*
X0217302Y0173731D01*
X0217187Y0173841D01*
X0217074Y0173954D01*
X0216964Y0174069D01*
X0216857Y0174188D01*
X0216753Y0174308D01*
X0216652Y0174432D01*
X0216554Y0174558D01*
X0216459Y0174686D01*
X0216368Y0174817D01*
X0216280Y0174950D01*
X0216195Y0175085D01*
X0216113Y0175222D01*
X0216035Y0175361D01*
X0215961Y0175502D01*
X0215890Y0175645D01*
X0215822Y0175790D01*
X0215758Y0175936D01*
X0215698Y0176084D01*
X0215642Y0176233D01*
X0215589Y0176383D01*
X0215540Y0176535D01*
X0215495Y0176688D01*
X0215454Y0176842D01*
X0215416Y0176997D01*
X0215383Y0177153D01*
X0215353Y0177310D01*
X0215327Y0177467D01*
X0215306Y0177625D01*
X0215288Y0177784D01*
X0215274Y0177943D01*
X0215264Y0178102D01*
X0215258Y0178261D01*
X0215256Y0178421D01*
X0215256Y0128421D02*
X0215258Y0128581D01*
X0215264Y0128740D01*
X0215274Y0128899D01*
X0215288Y0129058D01*
X0215306Y0129217D01*
X0215327Y0129375D01*
X0215353Y0129532D01*
X0215383Y0129689D01*
X0215416Y0129845D01*
X0215454Y0130000D01*
X0215495Y0130154D01*
X0215540Y0130307D01*
X0215589Y0130459D01*
X0215642Y0130609D01*
X0215698Y0130758D01*
X0215758Y0130906D01*
X0215822Y0131052D01*
X0215890Y0131197D01*
X0215961Y0131340D01*
X0216035Y0131481D01*
X0216113Y0131620D01*
X0216195Y0131757D01*
X0216280Y0131892D01*
X0216368Y0132025D01*
X0216459Y0132156D01*
X0216554Y0132284D01*
X0216652Y0132410D01*
X0216753Y0132534D01*
X0216857Y0132654D01*
X0216964Y0132773D01*
X0217074Y0132888D01*
X0217187Y0133001D01*
X0217302Y0133111D01*
X0217421Y0133218D01*
X0217541Y0133322D01*
X0217665Y0133423D01*
X0217791Y0133521D01*
X0217919Y0133616D01*
X0218050Y0133707D01*
X0218183Y0133795D01*
X0218318Y0133880D01*
X0218455Y0133962D01*
X0218594Y0134040D01*
X0218735Y0134114D01*
X0218878Y0134185D01*
X0219023Y0134253D01*
X0219169Y0134317D01*
X0219317Y0134377D01*
X0219466Y0134433D01*
X0219616Y0134486D01*
X0219768Y0134535D01*
X0219921Y0134580D01*
X0220075Y0134621D01*
X0220230Y0134659D01*
X0220386Y0134692D01*
X0220543Y0134722D01*
X0220700Y0134748D01*
X0220858Y0134769D01*
X0221017Y0134787D01*
X0221176Y0134801D01*
X0221335Y0134811D01*
X0221494Y0134817D01*
X0221654Y0134819D01*
X0221814Y0134817D01*
X0221973Y0134811D01*
X0222132Y0134801D01*
X0222291Y0134787D01*
X0222450Y0134769D01*
X0222608Y0134748D01*
X0222765Y0134722D01*
X0222922Y0134692D01*
X0223078Y0134659D01*
X0223233Y0134621D01*
X0223387Y0134580D01*
X0223540Y0134535D01*
X0223692Y0134486D01*
X0223842Y0134433D01*
X0223991Y0134377D01*
X0224139Y0134317D01*
X0224285Y0134253D01*
X0224430Y0134185D01*
X0224573Y0134114D01*
X0224714Y0134040D01*
X0224853Y0133962D01*
X0224990Y0133880D01*
X0225125Y0133795D01*
X0225258Y0133707D01*
X0225389Y0133616D01*
X0225517Y0133521D01*
X0225643Y0133423D01*
X0225767Y0133322D01*
X0225887Y0133218D01*
X0226006Y0133111D01*
X0226121Y0133001D01*
X0226234Y0132888D01*
X0226344Y0132773D01*
X0226451Y0132654D01*
X0226555Y0132534D01*
X0226656Y0132410D01*
X0226754Y0132284D01*
X0226849Y0132156D01*
X0226940Y0132025D01*
X0227028Y0131892D01*
X0227113Y0131757D01*
X0227195Y0131620D01*
X0227273Y0131481D01*
X0227347Y0131340D01*
X0227418Y0131197D01*
X0227486Y0131052D01*
X0227550Y0130906D01*
X0227610Y0130758D01*
X0227666Y0130609D01*
X0227719Y0130459D01*
X0227768Y0130307D01*
X0227813Y0130154D01*
X0227854Y0130000D01*
X0227892Y0129845D01*
X0227925Y0129689D01*
X0227955Y0129532D01*
X0227981Y0129375D01*
X0228002Y0129217D01*
X0228020Y0129058D01*
X0228034Y0128899D01*
X0228044Y0128740D01*
X0228050Y0128581D01*
X0228052Y0128421D01*
X0228050Y0128261D01*
X0228044Y0128102D01*
X0228034Y0127943D01*
X0228020Y0127784D01*
X0228002Y0127625D01*
X0227981Y0127467D01*
X0227955Y0127310D01*
X0227925Y0127153D01*
X0227892Y0126997D01*
X0227854Y0126842D01*
X0227813Y0126688D01*
X0227768Y0126535D01*
X0227719Y0126383D01*
X0227666Y0126233D01*
X0227610Y0126084D01*
X0227550Y0125936D01*
X0227486Y0125790D01*
X0227418Y0125645D01*
X0227347Y0125502D01*
X0227273Y0125361D01*
X0227195Y0125222D01*
X0227113Y0125085D01*
X0227028Y0124950D01*
X0226940Y0124817D01*
X0226849Y0124686D01*
X0226754Y0124558D01*
X0226656Y0124432D01*
X0226555Y0124308D01*
X0226451Y0124188D01*
X0226344Y0124069D01*
X0226234Y0123954D01*
X0226121Y0123841D01*
X0226006Y0123731D01*
X0225887Y0123624D01*
X0225767Y0123520D01*
X0225643Y0123419D01*
X0225517Y0123321D01*
X0225389Y0123226D01*
X0225258Y0123135D01*
X0225125Y0123047D01*
X0224990Y0122962D01*
X0224853Y0122880D01*
X0224714Y0122802D01*
X0224573Y0122728D01*
X0224430Y0122657D01*
X0224285Y0122589D01*
X0224139Y0122525D01*
X0223991Y0122465D01*
X0223842Y0122409D01*
X0223692Y0122356D01*
X0223540Y0122307D01*
X0223387Y0122262D01*
X0223233Y0122221D01*
X0223078Y0122183D01*
X0222922Y0122150D01*
X0222765Y0122120D01*
X0222608Y0122094D01*
X0222450Y0122073D01*
X0222291Y0122055D01*
X0222132Y0122041D01*
X0221973Y0122031D01*
X0221814Y0122025D01*
X0221654Y0122023D01*
X0221494Y0122025D01*
X0221335Y0122031D01*
X0221176Y0122041D01*
X0221017Y0122055D01*
X0220858Y0122073D01*
X0220700Y0122094D01*
X0220543Y0122120D01*
X0220386Y0122150D01*
X0220230Y0122183D01*
X0220075Y0122221D01*
X0219921Y0122262D01*
X0219768Y0122307D01*
X0219616Y0122356D01*
X0219466Y0122409D01*
X0219317Y0122465D01*
X0219169Y0122525D01*
X0219023Y0122589D01*
X0218878Y0122657D01*
X0218735Y0122728D01*
X0218594Y0122802D01*
X0218455Y0122880D01*
X0218318Y0122962D01*
X0218183Y0123047D01*
X0218050Y0123135D01*
X0217919Y0123226D01*
X0217791Y0123321D01*
X0217665Y0123419D01*
X0217541Y0123520D01*
X0217421Y0123624D01*
X0217302Y0123731D01*
X0217187Y0123841D01*
X0217074Y0123954D01*
X0216964Y0124069D01*
X0216857Y0124188D01*
X0216753Y0124308D01*
X0216652Y0124432D01*
X0216554Y0124558D01*
X0216459Y0124686D01*
X0216368Y0124817D01*
X0216280Y0124950D01*
X0216195Y0125085D01*
X0216113Y0125222D01*
X0216035Y0125361D01*
X0215961Y0125502D01*
X0215890Y0125645D01*
X0215822Y0125790D01*
X0215758Y0125936D01*
X0215698Y0126084D01*
X0215642Y0126233D01*
X0215589Y0126383D01*
X0215540Y0126535D01*
X0215495Y0126688D01*
X0215454Y0126842D01*
X0215416Y0126997D01*
X0215383Y0127153D01*
X0215353Y0127310D01*
X0215327Y0127467D01*
X0215306Y0127625D01*
X0215288Y0127784D01*
X0215274Y0127943D01*
X0215264Y0128102D01*
X0215258Y0128261D01*
X0215256Y0128421D01*
X0220508Y0014780D02*
X0220510Y0014941D01*
X0220516Y0015101D01*
X0220526Y0015262D01*
X0220540Y0015422D01*
X0220558Y0015582D01*
X0220579Y0015741D01*
X0220605Y0015900D01*
X0220635Y0016058D01*
X0220668Y0016215D01*
X0220706Y0016372D01*
X0220747Y0016527D01*
X0220792Y0016681D01*
X0220841Y0016834D01*
X0220894Y0016986D01*
X0220950Y0017137D01*
X0221011Y0017286D01*
X0221074Y0017434D01*
X0221142Y0017580D01*
X0221213Y0017724D01*
X0221287Y0017866D01*
X0221365Y0018007D01*
X0221447Y0018145D01*
X0221532Y0018282D01*
X0221620Y0018416D01*
X0221712Y0018548D01*
X0221807Y0018678D01*
X0221905Y0018806D01*
X0222006Y0018931D01*
X0222110Y0019053D01*
X0222217Y0019173D01*
X0222327Y0019290D01*
X0222440Y0019405D01*
X0222556Y0019516D01*
X0222675Y0019625D01*
X0222796Y0019730D01*
X0222920Y0019833D01*
X0223046Y0019933D01*
X0223174Y0020029D01*
X0223305Y0020122D01*
X0223439Y0020212D01*
X0223574Y0020299D01*
X0223712Y0020382D01*
X0223851Y0020462D01*
X0223993Y0020538D01*
X0224136Y0020611D01*
X0224281Y0020680D01*
X0224428Y0020746D01*
X0224576Y0020808D01*
X0224726Y0020866D01*
X0224877Y0020921D01*
X0225030Y0020972D01*
X0225184Y0021019D01*
X0225339Y0021062D01*
X0225495Y0021101D01*
X0225651Y0021137D01*
X0225809Y0021168D01*
X0225967Y0021196D01*
X0226126Y0021220D01*
X0226286Y0021240D01*
X0226446Y0021256D01*
X0226606Y0021268D01*
X0226767Y0021276D01*
X0226928Y0021280D01*
X0227088Y0021280D01*
X0227249Y0021276D01*
X0227410Y0021268D01*
X0227570Y0021256D01*
X0227730Y0021240D01*
X0227890Y0021220D01*
X0228049Y0021196D01*
X0228207Y0021168D01*
X0228365Y0021137D01*
X0228521Y0021101D01*
X0228677Y0021062D01*
X0228832Y0021019D01*
X0228986Y0020972D01*
X0229139Y0020921D01*
X0229290Y0020866D01*
X0229440Y0020808D01*
X0229588Y0020746D01*
X0229735Y0020680D01*
X0229880Y0020611D01*
X0230023Y0020538D01*
X0230165Y0020462D01*
X0230304Y0020382D01*
X0230442Y0020299D01*
X0230577Y0020212D01*
X0230711Y0020122D01*
X0230842Y0020029D01*
X0230970Y0019933D01*
X0231096Y0019833D01*
X0231220Y0019730D01*
X0231341Y0019625D01*
X0231460Y0019516D01*
X0231576Y0019405D01*
X0231689Y0019290D01*
X0231799Y0019173D01*
X0231906Y0019053D01*
X0232010Y0018931D01*
X0232111Y0018806D01*
X0232209Y0018678D01*
X0232304Y0018548D01*
X0232396Y0018416D01*
X0232484Y0018282D01*
X0232569Y0018145D01*
X0232651Y0018007D01*
X0232729Y0017866D01*
X0232803Y0017724D01*
X0232874Y0017580D01*
X0232942Y0017434D01*
X0233005Y0017286D01*
X0233066Y0017137D01*
X0233122Y0016986D01*
X0233175Y0016834D01*
X0233224Y0016681D01*
X0233269Y0016527D01*
X0233310Y0016372D01*
X0233348Y0016215D01*
X0233381Y0016058D01*
X0233411Y0015900D01*
X0233437Y0015741D01*
X0233458Y0015582D01*
X0233476Y0015422D01*
X0233490Y0015262D01*
X0233500Y0015101D01*
X0233506Y0014941D01*
X0233508Y0014780D01*
X0233506Y0014619D01*
X0233500Y0014459D01*
X0233490Y0014298D01*
X0233476Y0014138D01*
X0233458Y0013978D01*
X0233437Y0013819D01*
X0233411Y0013660D01*
X0233381Y0013502D01*
X0233348Y0013345D01*
X0233310Y0013188D01*
X0233269Y0013033D01*
X0233224Y0012879D01*
X0233175Y0012726D01*
X0233122Y0012574D01*
X0233066Y0012423D01*
X0233005Y0012274D01*
X0232942Y0012126D01*
X0232874Y0011980D01*
X0232803Y0011836D01*
X0232729Y0011694D01*
X0232651Y0011553D01*
X0232569Y0011415D01*
X0232484Y0011278D01*
X0232396Y0011144D01*
X0232304Y0011012D01*
X0232209Y0010882D01*
X0232111Y0010754D01*
X0232010Y0010629D01*
X0231906Y0010507D01*
X0231799Y0010387D01*
X0231689Y0010270D01*
X0231576Y0010155D01*
X0231460Y0010044D01*
X0231341Y0009935D01*
X0231220Y0009830D01*
X0231096Y0009727D01*
X0230970Y0009627D01*
X0230842Y0009531D01*
X0230711Y0009438D01*
X0230577Y0009348D01*
X0230442Y0009261D01*
X0230304Y0009178D01*
X0230165Y0009098D01*
X0230023Y0009022D01*
X0229880Y0008949D01*
X0229735Y0008880D01*
X0229588Y0008814D01*
X0229440Y0008752D01*
X0229290Y0008694D01*
X0229139Y0008639D01*
X0228986Y0008588D01*
X0228832Y0008541D01*
X0228677Y0008498D01*
X0228521Y0008459D01*
X0228365Y0008423D01*
X0228207Y0008392D01*
X0228049Y0008364D01*
X0227890Y0008340D01*
X0227730Y0008320D01*
X0227570Y0008304D01*
X0227410Y0008292D01*
X0227249Y0008284D01*
X0227088Y0008280D01*
X0226928Y0008280D01*
X0226767Y0008284D01*
X0226606Y0008292D01*
X0226446Y0008304D01*
X0226286Y0008320D01*
X0226126Y0008340D01*
X0225967Y0008364D01*
X0225809Y0008392D01*
X0225651Y0008423D01*
X0225495Y0008459D01*
X0225339Y0008498D01*
X0225184Y0008541D01*
X0225030Y0008588D01*
X0224877Y0008639D01*
X0224726Y0008694D01*
X0224576Y0008752D01*
X0224428Y0008814D01*
X0224281Y0008880D01*
X0224136Y0008949D01*
X0223993Y0009022D01*
X0223851Y0009098D01*
X0223712Y0009178D01*
X0223574Y0009261D01*
X0223439Y0009348D01*
X0223305Y0009438D01*
X0223174Y0009531D01*
X0223046Y0009627D01*
X0222920Y0009727D01*
X0222796Y0009830D01*
X0222675Y0009935D01*
X0222556Y0010044D01*
X0222440Y0010155D01*
X0222327Y0010270D01*
X0222217Y0010387D01*
X0222110Y0010507D01*
X0222006Y0010629D01*
X0221905Y0010754D01*
X0221807Y0010882D01*
X0221712Y0011012D01*
X0221620Y0011144D01*
X0221532Y0011278D01*
X0221447Y0011415D01*
X0221365Y0011553D01*
X0221287Y0011694D01*
X0221213Y0011836D01*
X0221142Y0011980D01*
X0221074Y0012126D01*
X0221011Y0012274D01*
X0220950Y0012423D01*
X0220894Y0012574D01*
X0220841Y0012726D01*
X0220792Y0012879D01*
X0220747Y0013033D01*
X0220706Y0013188D01*
X0220668Y0013345D01*
X0220635Y0013502D01*
X0220605Y0013660D01*
X0220579Y0013819D01*
X0220558Y0013978D01*
X0220540Y0014138D01*
X0220526Y0014298D01*
X0220516Y0014459D01*
X0220510Y0014619D01*
X0220508Y0014780D01*
X0218441Y0273835D02*
X0218443Y0273996D01*
X0218449Y0274156D01*
X0218459Y0274317D01*
X0218473Y0274477D01*
X0218491Y0274637D01*
X0218512Y0274796D01*
X0218538Y0274955D01*
X0218568Y0275113D01*
X0218601Y0275270D01*
X0218639Y0275427D01*
X0218680Y0275582D01*
X0218725Y0275736D01*
X0218774Y0275889D01*
X0218827Y0276041D01*
X0218883Y0276192D01*
X0218944Y0276341D01*
X0219007Y0276489D01*
X0219075Y0276635D01*
X0219146Y0276779D01*
X0219220Y0276921D01*
X0219298Y0277062D01*
X0219380Y0277200D01*
X0219465Y0277337D01*
X0219553Y0277471D01*
X0219645Y0277603D01*
X0219740Y0277733D01*
X0219838Y0277861D01*
X0219939Y0277986D01*
X0220043Y0278108D01*
X0220150Y0278228D01*
X0220260Y0278345D01*
X0220373Y0278460D01*
X0220489Y0278571D01*
X0220608Y0278680D01*
X0220729Y0278785D01*
X0220853Y0278888D01*
X0220979Y0278988D01*
X0221107Y0279084D01*
X0221238Y0279177D01*
X0221372Y0279267D01*
X0221507Y0279354D01*
X0221645Y0279437D01*
X0221784Y0279517D01*
X0221926Y0279593D01*
X0222069Y0279666D01*
X0222214Y0279735D01*
X0222361Y0279801D01*
X0222509Y0279863D01*
X0222659Y0279921D01*
X0222810Y0279976D01*
X0222963Y0280027D01*
X0223117Y0280074D01*
X0223272Y0280117D01*
X0223428Y0280156D01*
X0223584Y0280192D01*
X0223742Y0280223D01*
X0223900Y0280251D01*
X0224059Y0280275D01*
X0224219Y0280295D01*
X0224379Y0280311D01*
X0224539Y0280323D01*
X0224700Y0280331D01*
X0224861Y0280335D01*
X0225021Y0280335D01*
X0225182Y0280331D01*
X0225343Y0280323D01*
X0225503Y0280311D01*
X0225663Y0280295D01*
X0225823Y0280275D01*
X0225982Y0280251D01*
X0226140Y0280223D01*
X0226298Y0280192D01*
X0226454Y0280156D01*
X0226610Y0280117D01*
X0226765Y0280074D01*
X0226919Y0280027D01*
X0227072Y0279976D01*
X0227223Y0279921D01*
X0227373Y0279863D01*
X0227521Y0279801D01*
X0227668Y0279735D01*
X0227813Y0279666D01*
X0227956Y0279593D01*
X0228098Y0279517D01*
X0228237Y0279437D01*
X0228375Y0279354D01*
X0228510Y0279267D01*
X0228644Y0279177D01*
X0228775Y0279084D01*
X0228903Y0278988D01*
X0229029Y0278888D01*
X0229153Y0278785D01*
X0229274Y0278680D01*
X0229393Y0278571D01*
X0229509Y0278460D01*
X0229622Y0278345D01*
X0229732Y0278228D01*
X0229839Y0278108D01*
X0229943Y0277986D01*
X0230044Y0277861D01*
X0230142Y0277733D01*
X0230237Y0277603D01*
X0230329Y0277471D01*
X0230417Y0277337D01*
X0230502Y0277200D01*
X0230584Y0277062D01*
X0230662Y0276921D01*
X0230736Y0276779D01*
X0230807Y0276635D01*
X0230875Y0276489D01*
X0230938Y0276341D01*
X0230999Y0276192D01*
X0231055Y0276041D01*
X0231108Y0275889D01*
X0231157Y0275736D01*
X0231202Y0275582D01*
X0231243Y0275427D01*
X0231281Y0275270D01*
X0231314Y0275113D01*
X0231344Y0274955D01*
X0231370Y0274796D01*
X0231391Y0274637D01*
X0231409Y0274477D01*
X0231423Y0274317D01*
X0231433Y0274156D01*
X0231439Y0273996D01*
X0231441Y0273835D01*
X0231439Y0273674D01*
X0231433Y0273514D01*
X0231423Y0273353D01*
X0231409Y0273193D01*
X0231391Y0273033D01*
X0231370Y0272874D01*
X0231344Y0272715D01*
X0231314Y0272557D01*
X0231281Y0272400D01*
X0231243Y0272243D01*
X0231202Y0272088D01*
X0231157Y0271934D01*
X0231108Y0271781D01*
X0231055Y0271629D01*
X0230999Y0271478D01*
X0230938Y0271329D01*
X0230875Y0271181D01*
X0230807Y0271035D01*
X0230736Y0270891D01*
X0230662Y0270749D01*
X0230584Y0270608D01*
X0230502Y0270470D01*
X0230417Y0270333D01*
X0230329Y0270199D01*
X0230237Y0270067D01*
X0230142Y0269937D01*
X0230044Y0269809D01*
X0229943Y0269684D01*
X0229839Y0269562D01*
X0229732Y0269442D01*
X0229622Y0269325D01*
X0229509Y0269210D01*
X0229393Y0269099D01*
X0229274Y0268990D01*
X0229153Y0268885D01*
X0229029Y0268782D01*
X0228903Y0268682D01*
X0228775Y0268586D01*
X0228644Y0268493D01*
X0228510Y0268403D01*
X0228375Y0268316D01*
X0228237Y0268233D01*
X0228098Y0268153D01*
X0227956Y0268077D01*
X0227813Y0268004D01*
X0227668Y0267935D01*
X0227521Y0267869D01*
X0227373Y0267807D01*
X0227223Y0267749D01*
X0227072Y0267694D01*
X0226919Y0267643D01*
X0226765Y0267596D01*
X0226610Y0267553D01*
X0226454Y0267514D01*
X0226298Y0267478D01*
X0226140Y0267447D01*
X0225982Y0267419D01*
X0225823Y0267395D01*
X0225663Y0267375D01*
X0225503Y0267359D01*
X0225343Y0267347D01*
X0225182Y0267339D01*
X0225021Y0267335D01*
X0224861Y0267335D01*
X0224700Y0267339D01*
X0224539Y0267347D01*
X0224379Y0267359D01*
X0224219Y0267375D01*
X0224059Y0267395D01*
X0223900Y0267419D01*
X0223742Y0267447D01*
X0223584Y0267478D01*
X0223428Y0267514D01*
X0223272Y0267553D01*
X0223117Y0267596D01*
X0222963Y0267643D01*
X0222810Y0267694D01*
X0222659Y0267749D01*
X0222509Y0267807D01*
X0222361Y0267869D01*
X0222214Y0267935D01*
X0222069Y0268004D01*
X0221926Y0268077D01*
X0221784Y0268153D01*
X0221645Y0268233D01*
X0221507Y0268316D01*
X0221372Y0268403D01*
X0221238Y0268493D01*
X0221107Y0268586D01*
X0220979Y0268682D01*
X0220853Y0268782D01*
X0220729Y0268885D01*
X0220608Y0268990D01*
X0220489Y0269099D01*
X0220373Y0269210D01*
X0220260Y0269325D01*
X0220150Y0269442D01*
X0220043Y0269562D01*
X0219939Y0269684D01*
X0219838Y0269809D01*
X0219740Y0269937D01*
X0219645Y0270067D01*
X0219553Y0270199D01*
X0219465Y0270333D01*
X0219380Y0270470D01*
X0219298Y0270608D01*
X0219220Y0270749D01*
X0219146Y0270891D01*
X0219075Y0271035D01*
X0219007Y0271181D01*
X0218944Y0271329D01*
X0218883Y0271478D01*
X0218827Y0271629D01*
X0218774Y0271781D01*
X0218725Y0271934D01*
X0218680Y0272088D01*
X0218639Y0272243D01*
X0218601Y0272400D01*
X0218568Y0272557D01*
X0218538Y0272715D01*
X0218512Y0272874D01*
X0218491Y0273033D01*
X0218473Y0273193D01*
X0218459Y0273353D01*
X0218449Y0273514D01*
X0218443Y0273674D01*
X0218441Y0273835D01*
D11*
X0211654Y0167516D03*
D12*
X0211654Y0159484D03*
X0211654Y0151453D03*
X0211654Y0143421D03*
X0204646Y0139406D03*
X0204646Y0147437D03*
X0204646Y0155469D03*
X0204646Y0163500D03*
X0185669Y0171413D03*
X0185669Y0180429D03*
X0185669Y0135429D03*
X0185669Y0126413D03*
D13*
X0221654Y0128421D03*
X0221654Y0178421D03*
D14*
X0208150Y0185429D03*
X0208150Y0121413D03*
D15*
X0025984Y0116413D03*
X0026673Y0176118D03*
X0025984Y0233598D03*
X0026673Y0055311D03*
D16*
X0055571Y0042161D03*
X0055571Y0068461D03*
X0054882Y0103264D03*
X0054882Y0129563D03*
X0055571Y0162969D03*
X0055571Y0189268D03*
X0054882Y0220449D03*
X0054882Y0246748D03*
D17*
X0020315Y0275902D03*
X0224941Y0273835D03*
X0227008Y0014780D03*
X0018248Y0015469D03*
M02*
