%
M48
M72
T01C0.01378
T02C0.03937
T03C0.05512
T04C0.07087
T05C0.12795
T06C0.13000
T07C0.15748
%
T01
X116083Y74031
X199449Y189091
T02
X185669Y126413
X185669Y135429
X204646Y139406
X204646Y147437
X204646Y155469
X204646Y163500
X211654Y159484
X211654Y167516
X211654Y151453
X211654Y143421
X185669Y171413
X185669Y180429
T03
X55571Y42161
X55571Y68461
X54882Y103264
X54882Y129563
X55571Y162969
X55571Y189268
X54882Y220449
X54882Y246748
T04
X208150Y121413
X208150Y185429
T05
X221654Y178421
X221654Y128421
T06
X20315Y275902
X18248Y15469
X224941Y273835
X227008Y14780
T07
X26673Y55311
X25984Y116413
X26673Y176118
X25984Y233598
M30
