%
M48
M72
T01C0.03937
T02C0.05512
T03C0.07087
T04C0.12795
T05C0.13000
T06C0.15748
%
T01
X125705Y143638
X125705Y152654
X144681Y156630
X144681Y164661
X144681Y172693
X144681Y180724
X151689Y176709
X151689Y184740
X151689Y168677
X151689Y160646
X125705Y188638
X125705Y197654
T02
X66571Y78795
X66571Y52496
X66571Y117496
X66571Y143795
X66571Y182496
X66571Y208795
X66571Y242496
X66571Y268795
T03
X148185Y202654
X148185Y138638
T04
X161689Y145646
X161689Y195646
T05
X20291Y16157
X20291Y297260
X176000Y16846
X176000Y297949
T06
X37673Y255646
X37673Y195646
X37673Y130646
X37673Y65646
M30
