%
M48
M72
T01C0.03937
T02C0.05512
T03C0.07087
T04C0.12795
T05C0.13000
T06C0.15748
%
T01
X36807Y191669
X36807Y182654
X55783Y174740
X55783Y166709
X55783Y158677
X55783Y150646
X62791Y154661
X62791Y162693
X62791Y170724
X62791Y178756
X36807Y146669
X36807Y137654
T02
X147654Y251571
X147654Y225272
X147654Y196571
X147654Y170272
X147654Y116571
X147654Y90272
X147654Y61571
X147654Y35272
T03
X59287Y132654
X59287Y196669
T04
X72791Y189661
X72791Y139661
T05
X16157Y16157
X16157Y271768
X221472Y16157
X222161Y271768
T06
X176551Y48421
X176551Y103421
X176551Y183421
X176551Y238421
M30
