G75*
%MOIN*%
%OFA0B0*%
%FSLAX25Y25*%
%IPPOS*%
%LPD*%
%AMOC8*
5,1,8,0,0,1.08239X$1,22.5*
%
%ADD10C,0.00000*%
%ADD11R,0.08268X0.08268*%
%ADD12R,0.05937X0.05937*%
%ADD13C,0.05937*%
%ADD14C,0.10630*%
%ADD15C,0.02000*%
D10*
X0001000Y0001000D02*
X0001000Y0287024D01*
X0236236Y0287024D01*
X0236236Y0001000D01*
X0001000Y0001000D01*
X0009657Y0016157D02*
X0009659Y0016318D01*
X0009665Y0016478D01*
X0009675Y0016639D01*
X0009689Y0016799D01*
X0009707Y0016959D01*
X0009728Y0017118D01*
X0009754Y0017277D01*
X0009784Y0017435D01*
X0009817Y0017592D01*
X0009855Y0017749D01*
X0009896Y0017904D01*
X0009941Y0018058D01*
X0009990Y0018211D01*
X0010043Y0018363D01*
X0010099Y0018514D01*
X0010160Y0018663D01*
X0010223Y0018811D01*
X0010291Y0018957D01*
X0010362Y0019101D01*
X0010436Y0019243D01*
X0010514Y0019384D01*
X0010596Y0019522D01*
X0010681Y0019659D01*
X0010769Y0019793D01*
X0010861Y0019925D01*
X0010956Y0020055D01*
X0011054Y0020183D01*
X0011155Y0020308D01*
X0011259Y0020430D01*
X0011366Y0020550D01*
X0011476Y0020667D01*
X0011589Y0020782D01*
X0011705Y0020893D01*
X0011824Y0021002D01*
X0011945Y0021107D01*
X0012069Y0021210D01*
X0012195Y0021310D01*
X0012323Y0021406D01*
X0012454Y0021499D01*
X0012588Y0021589D01*
X0012723Y0021676D01*
X0012861Y0021759D01*
X0013000Y0021839D01*
X0013142Y0021915D01*
X0013285Y0021988D01*
X0013430Y0022057D01*
X0013577Y0022123D01*
X0013725Y0022185D01*
X0013875Y0022243D01*
X0014026Y0022298D01*
X0014179Y0022349D01*
X0014333Y0022396D01*
X0014488Y0022439D01*
X0014644Y0022478D01*
X0014800Y0022514D01*
X0014958Y0022545D01*
X0015116Y0022573D01*
X0015275Y0022597D01*
X0015435Y0022617D01*
X0015595Y0022633D01*
X0015755Y0022645D01*
X0015916Y0022653D01*
X0016077Y0022657D01*
X0016237Y0022657D01*
X0016398Y0022653D01*
X0016559Y0022645D01*
X0016719Y0022633D01*
X0016879Y0022617D01*
X0017039Y0022597D01*
X0017198Y0022573D01*
X0017356Y0022545D01*
X0017514Y0022514D01*
X0017670Y0022478D01*
X0017826Y0022439D01*
X0017981Y0022396D01*
X0018135Y0022349D01*
X0018288Y0022298D01*
X0018439Y0022243D01*
X0018589Y0022185D01*
X0018737Y0022123D01*
X0018884Y0022057D01*
X0019029Y0021988D01*
X0019172Y0021915D01*
X0019314Y0021839D01*
X0019453Y0021759D01*
X0019591Y0021676D01*
X0019726Y0021589D01*
X0019860Y0021499D01*
X0019991Y0021406D01*
X0020119Y0021310D01*
X0020245Y0021210D01*
X0020369Y0021107D01*
X0020490Y0021002D01*
X0020609Y0020893D01*
X0020725Y0020782D01*
X0020838Y0020667D01*
X0020948Y0020550D01*
X0021055Y0020430D01*
X0021159Y0020308D01*
X0021260Y0020183D01*
X0021358Y0020055D01*
X0021453Y0019925D01*
X0021545Y0019793D01*
X0021633Y0019659D01*
X0021718Y0019522D01*
X0021800Y0019384D01*
X0021878Y0019243D01*
X0021952Y0019101D01*
X0022023Y0018957D01*
X0022091Y0018811D01*
X0022154Y0018663D01*
X0022215Y0018514D01*
X0022271Y0018363D01*
X0022324Y0018211D01*
X0022373Y0018058D01*
X0022418Y0017904D01*
X0022459Y0017749D01*
X0022497Y0017592D01*
X0022530Y0017435D01*
X0022560Y0017277D01*
X0022586Y0017118D01*
X0022607Y0016959D01*
X0022625Y0016799D01*
X0022639Y0016639D01*
X0022649Y0016478D01*
X0022655Y0016318D01*
X0022657Y0016157D01*
X0022655Y0015996D01*
X0022649Y0015836D01*
X0022639Y0015675D01*
X0022625Y0015515D01*
X0022607Y0015355D01*
X0022586Y0015196D01*
X0022560Y0015037D01*
X0022530Y0014879D01*
X0022497Y0014722D01*
X0022459Y0014565D01*
X0022418Y0014410D01*
X0022373Y0014256D01*
X0022324Y0014103D01*
X0022271Y0013951D01*
X0022215Y0013800D01*
X0022154Y0013651D01*
X0022091Y0013503D01*
X0022023Y0013357D01*
X0021952Y0013213D01*
X0021878Y0013071D01*
X0021800Y0012930D01*
X0021718Y0012792D01*
X0021633Y0012655D01*
X0021545Y0012521D01*
X0021453Y0012389D01*
X0021358Y0012259D01*
X0021260Y0012131D01*
X0021159Y0012006D01*
X0021055Y0011884D01*
X0020948Y0011764D01*
X0020838Y0011647D01*
X0020725Y0011532D01*
X0020609Y0011421D01*
X0020490Y0011312D01*
X0020369Y0011207D01*
X0020245Y0011104D01*
X0020119Y0011004D01*
X0019991Y0010908D01*
X0019860Y0010815D01*
X0019726Y0010725D01*
X0019591Y0010638D01*
X0019453Y0010555D01*
X0019314Y0010475D01*
X0019172Y0010399D01*
X0019029Y0010326D01*
X0018884Y0010257D01*
X0018737Y0010191D01*
X0018589Y0010129D01*
X0018439Y0010071D01*
X0018288Y0010016D01*
X0018135Y0009965D01*
X0017981Y0009918D01*
X0017826Y0009875D01*
X0017670Y0009836D01*
X0017514Y0009800D01*
X0017356Y0009769D01*
X0017198Y0009741D01*
X0017039Y0009717D01*
X0016879Y0009697D01*
X0016719Y0009681D01*
X0016559Y0009669D01*
X0016398Y0009661D01*
X0016237Y0009657D01*
X0016077Y0009657D01*
X0015916Y0009661D01*
X0015755Y0009669D01*
X0015595Y0009681D01*
X0015435Y0009697D01*
X0015275Y0009717D01*
X0015116Y0009741D01*
X0014958Y0009769D01*
X0014800Y0009800D01*
X0014644Y0009836D01*
X0014488Y0009875D01*
X0014333Y0009918D01*
X0014179Y0009965D01*
X0014026Y0010016D01*
X0013875Y0010071D01*
X0013725Y0010129D01*
X0013577Y0010191D01*
X0013430Y0010257D01*
X0013285Y0010326D01*
X0013142Y0010399D01*
X0013000Y0010475D01*
X0012861Y0010555D01*
X0012723Y0010638D01*
X0012588Y0010725D01*
X0012454Y0010815D01*
X0012323Y0010908D01*
X0012195Y0011004D01*
X0012069Y0011104D01*
X0011945Y0011207D01*
X0011824Y0011312D01*
X0011705Y0011421D01*
X0011589Y0011532D01*
X0011476Y0011647D01*
X0011366Y0011764D01*
X0011259Y0011884D01*
X0011155Y0012006D01*
X0011054Y0012131D01*
X0010956Y0012259D01*
X0010861Y0012389D01*
X0010769Y0012521D01*
X0010681Y0012655D01*
X0010596Y0012792D01*
X0010514Y0012930D01*
X0010436Y0013071D01*
X0010362Y0013213D01*
X0010291Y0013357D01*
X0010223Y0013503D01*
X0010160Y0013651D01*
X0010099Y0013800D01*
X0010043Y0013951D01*
X0009990Y0014103D01*
X0009941Y0014256D01*
X0009896Y0014410D01*
X0009855Y0014565D01*
X0009817Y0014722D01*
X0009784Y0014879D01*
X0009754Y0015037D01*
X0009728Y0015196D01*
X0009707Y0015355D01*
X0009689Y0015515D01*
X0009675Y0015675D01*
X0009665Y0015836D01*
X0009659Y0015996D01*
X0009657Y0016157D01*
X0066393Y0139661D02*
X0066395Y0139821D01*
X0066401Y0139980D01*
X0066411Y0140139D01*
X0066425Y0140298D01*
X0066443Y0140457D01*
X0066464Y0140615D01*
X0066490Y0140772D01*
X0066520Y0140929D01*
X0066553Y0141085D01*
X0066591Y0141240D01*
X0066632Y0141394D01*
X0066677Y0141547D01*
X0066726Y0141699D01*
X0066779Y0141849D01*
X0066835Y0141998D01*
X0066895Y0142146D01*
X0066959Y0142292D01*
X0067027Y0142437D01*
X0067098Y0142580D01*
X0067172Y0142721D01*
X0067250Y0142860D01*
X0067332Y0142997D01*
X0067417Y0143132D01*
X0067505Y0143265D01*
X0067596Y0143396D01*
X0067691Y0143524D01*
X0067789Y0143650D01*
X0067890Y0143774D01*
X0067994Y0143894D01*
X0068101Y0144013D01*
X0068211Y0144128D01*
X0068324Y0144241D01*
X0068439Y0144351D01*
X0068558Y0144458D01*
X0068678Y0144562D01*
X0068802Y0144663D01*
X0068928Y0144761D01*
X0069056Y0144856D01*
X0069187Y0144947D01*
X0069320Y0145035D01*
X0069455Y0145120D01*
X0069592Y0145202D01*
X0069731Y0145280D01*
X0069872Y0145354D01*
X0070015Y0145425D01*
X0070160Y0145493D01*
X0070306Y0145557D01*
X0070454Y0145617D01*
X0070603Y0145673D01*
X0070753Y0145726D01*
X0070905Y0145775D01*
X0071058Y0145820D01*
X0071212Y0145861D01*
X0071367Y0145899D01*
X0071523Y0145932D01*
X0071680Y0145962D01*
X0071837Y0145988D01*
X0071995Y0146009D01*
X0072154Y0146027D01*
X0072313Y0146041D01*
X0072472Y0146051D01*
X0072631Y0146057D01*
X0072791Y0146059D01*
X0072951Y0146057D01*
X0073110Y0146051D01*
X0073269Y0146041D01*
X0073428Y0146027D01*
X0073587Y0146009D01*
X0073745Y0145988D01*
X0073902Y0145962D01*
X0074059Y0145932D01*
X0074215Y0145899D01*
X0074370Y0145861D01*
X0074524Y0145820D01*
X0074677Y0145775D01*
X0074829Y0145726D01*
X0074979Y0145673D01*
X0075128Y0145617D01*
X0075276Y0145557D01*
X0075422Y0145493D01*
X0075567Y0145425D01*
X0075710Y0145354D01*
X0075851Y0145280D01*
X0075990Y0145202D01*
X0076127Y0145120D01*
X0076262Y0145035D01*
X0076395Y0144947D01*
X0076526Y0144856D01*
X0076654Y0144761D01*
X0076780Y0144663D01*
X0076904Y0144562D01*
X0077024Y0144458D01*
X0077143Y0144351D01*
X0077258Y0144241D01*
X0077371Y0144128D01*
X0077481Y0144013D01*
X0077588Y0143894D01*
X0077692Y0143774D01*
X0077793Y0143650D01*
X0077891Y0143524D01*
X0077986Y0143396D01*
X0078077Y0143265D01*
X0078165Y0143132D01*
X0078250Y0142997D01*
X0078332Y0142860D01*
X0078410Y0142721D01*
X0078484Y0142580D01*
X0078555Y0142437D01*
X0078623Y0142292D01*
X0078687Y0142146D01*
X0078747Y0141998D01*
X0078803Y0141849D01*
X0078856Y0141699D01*
X0078905Y0141547D01*
X0078950Y0141394D01*
X0078991Y0141240D01*
X0079029Y0141085D01*
X0079062Y0140929D01*
X0079092Y0140772D01*
X0079118Y0140615D01*
X0079139Y0140457D01*
X0079157Y0140298D01*
X0079171Y0140139D01*
X0079181Y0139980D01*
X0079187Y0139821D01*
X0079189Y0139661D01*
X0079187Y0139501D01*
X0079181Y0139342D01*
X0079171Y0139183D01*
X0079157Y0139024D01*
X0079139Y0138865D01*
X0079118Y0138707D01*
X0079092Y0138550D01*
X0079062Y0138393D01*
X0079029Y0138237D01*
X0078991Y0138082D01*
X0078950Y0137928D01*
X0078905Y0137775D01*
X0078856Y0137623D01*
X0078803Y0137473D01*
X0078747Y0137324D01*
X0078687Y0137176D01*
X0078623Y0137030D01*
X0078555Y0136885D01*
X0078484Y0136742D01*
X0078410Y0136601D01*
X0078332Y0136462D01*
X0078250Y0136325D01*
X0078165Y0136190D01*
X0078077Y0136057D01*
X0077986Y0135926D01*
X0077891Y0135798D01*
X0077793Y0135672D01*
X0077692Y0135548D01*
X0077588Y0135428D01*
X0077481Y0135309D01*
X0077371Y0135194D01*
X0077258Y0135081D01*
X0077143Y0134971D01*
X0077024Y0134864D01*
X0076904Y0134760D01*
X0076780Y0134659D01*
X0076654Y0134561D01*
X0076526Y0134466D01*
X0076395Y0134375D01*
X0076262Y0134287D01*
X0076127Y0134202D01*
X0075990Y0134120D01*
X0075851Y0134042D01*
X0075710Y0133968D01*
X0075567Y0133897D01*
X0075422Y0133829D01*
X0075276Y0133765D01*
X0075128Y0133705D01*
X0074979Y0133649D01*
X0074829Y0133596D01*
X0074677Y0133547D01*
X0074524Y0133502D01*
X0074370Y0133461D01*
X0074215Y0133423D01*
X0074059Y0133390D01*
X0073902Y0133360D01*
X0073745Y0133334D01*
X0073587Y0133313D01*
X0073428Y0133295D01*
X0073269Y0133281D01*
X0073110Y0133271D01*
X0072951Y0133265D01*
X0072791Y0133263D01*
X0072631Y0133265D01*
X0072472Y0133271D01*
X0072313Y0133281D01*
X0072154Y0133295D01*
X0071995Y0133313D01*
X0071837Y0133334D01*
X0071680Y0133360D01*
X0071523Y0133390D01*
X0071367Y0133423D01*
X0071212Y0133461D01*
X0071058Y0133502D01*
X0070905Y0133547D01*
X0070753Y0133596D01*
X0070603Y0133649D01*
X0070454Y0133705D01*
X0070306Y0133765D01*
X0070160Y0133829D01*
X0070015Y0133897D01*
X0069872Y0133968D01*
X0069731Y0134042D01*
X0069592Y0134120D01*
X0069455Y0134202D01*
X0069320Y0134287D01*
X0069187Y0134375D01*
X0069056Y0134466D01*
X0068928Y0134561D01*
X0068802Y0134659D01*
X0068678Y0134760D01*
X0068558Y0134864D01*
X0068439Y0134971D01*
X0068324Y0135081D01*
X0068211Y0135194D01*
X0068101Y0135309D01*
X0067994Y0135428D01*
X0067890Y0135548D01*
X0067789Y0135672D01*
X0067691Y0135798D01*
X0067596Y0135926D01*
X0067505Y0136057D01*
X0067417Y0136190D01*
X0067332Y0136325D01*
X0067250Y0136462D01*
X0067172Y0136601D01*
X0067098Y0136742D01*
X0067027Y0136885D01*
X0066959Y0137030D01*
X0066895Y0137176D01*
X0066835Y0137324D01*
X0066779Y0137473D01*
X0066726Y0137623D01*
X0066677Y0137775D01*
X0066632Y0137928D01*
X0066591Y0138082D01*
X0066553Y0138237D01*
X0066520Y0138393D01*
X0066490Y0138550D01*
X0066464Y0138707D01*
X0066443Y0138865D01*
X0066425Y0139024D01*
X0066411Y0139183D01*
X0066401Y0139342D01*
X0066395Y0139501D01*
X0066393Y0139661D01*
X0066393Y0189661D02*
X0066395Y0189821D01*
X0066401Y0189980D01*
X0066411Y0190139D01*
X0066425Y0190298D01*
X0066443Y0190457D01*
X0066464Y0190615D01*
X0066490Y0190772D01*
X0066520Y0190929D01*
X0066553Y0191085D01*
X0066591Y0191240D01*
X0066632Y0191394D01*
X0066677Y0191547D01*
X0066726Y0191699D01*
X0066779Y0191849D01*
X0066835Y0191998D01*
X0066895Y0192146D01*
X0066959Y0192292D01*
X0067027Y0192437D01*
X0067098Y0192580D01*
X0067172Y0192721D01*
X0067250Y0192860D01*
X0067332Y0192997D01*
X0067417Y0193132D01*
X0067505Y0193265D01*
X0067596Y0193396D01*
X0067691Y0193524D01*
X0067789Y0193650D01*
X0067890Y0193774D01*
X0067994Y0193894D01*
X0068101Y0194013D01*
X0068211Y0194128D01*
X0068324Y0194241D01*
X0068439Y0194351D01*
X0068558Y0194458D01*
X0068678Y0194562D01*
X0068802Y0194663D01*
X0068928Y0194761D01*
X0069056Y0194856D01*
X0069187Y0194947D01*
X0069320Y0195035D01*
X0069455Y0195120D01*
X0069592Y0195202D01*
X0069731Y0195280D01*
X0069872Y0195354D01*
X0070015Y0195425D01*
X0070160Y0195493D01*
X0070306Y0195557D01*
X0070454Y0195617D01*
X0070603Y0195673D01*
X0070753Y0195726D01*
X0070905Y0195775D01*
X0071058Y0195820D01*
X0071212Y0195861D01*
X0071367Y0195899D01*
X0071523Y0195932D01*
X0071680Y0195962D01*
X0071837Y0195988D01*
X0071995Y0196009D01*
X0072154Y0196027D01*
X0072313Y0196041D01*
X0072472Y0196051D01*
X0072631Y0196057D01*
X0072791Y0196059D01*
X0072951Y0196057D01*
X0073110Y0196051D01*
X0073269Y0196041D01*
X0073428Y0196027D01*
X0073587Y0196009D01*
X0073745Y0195988D01*
X0073902Y0195962D01*
X0074059Y0195932D01*
X0074215Y0195899D01*
X0074370Y0195861D01*
X0074524Y0195820D01*
X0074677Y0195775D01*
X0074829Y0195726D01*
X0074979Y0195673D01*
X0075128Y0195617D01*
X0075276Y0195557D01*
X0075422Y0195493D01*
X0075567Y0195425D01*
X0075710Y0195354D01*
X0075851Y0195280D01*
X0075990Y0195202D01*
X0076127Y0195120D01*
X0076262Y0195035D01*
X0076395Y0194947D01*
X0076526Y0194856D01*
X0076654Y0194761D01*
X0076780Y0194663D01*
X0076904Y0194562D01*
X0077024Y0194458D01*
X0077143Y0194351D01*
X0077258Y0194241D01*
X0077371Y0194128D01*
X0077481Y0194013D01*
X0077588Y0193894D01*
X0077692Y0193774D01*
X0077793Y0193650D01*
X0077891Y0193524D01*
X0077986Y0193396D01*
X0078077Y0193265D01*
X0078165Y0193132D01*
X0078250Y0192997D01*
X0078332Y0192860D01*
X0078410Y0192721D01*
X0078484Y0192580D01*
X0078555Y0192437D01*
X0078623Y0192292D01*
X0078687Y0192146D01*
X0078747Y0191998D01*
X0078803Y0191849D01*
X0078856Y0191699D01*
X0078905Y0191547D01*
X0078950Y0191394D01*
X0078991Y0191240D01*
X0079029Y0191085D01*
X0079062Y0190929D01*
X0079092Y0190772D01*
X0079118Y0190615D01*
X0079139Y0190457D01*
X0079157Y0190298D01*
X0079171Y0190139D01*
X0079181Y0189980D01*
X0079187Y0189821D01*
X0079189Y0189661D01*
X0079187Y0189501D01*
X0079181Y0189342D01*
X0079171Y0189183D01*
X0079157Y0189024D01*
X0079139Y0188865D01*
X0079118Y0188707D01*
X0079092Y0188550D01*
X0079062Y0188393D01*
X0079029Y0188237D01*
X0078991Y0188082D01*
X0078950Y0187928D01*
X0078905Y0187775D01*
X0078856Y0187623D01*
X0078803Y0187473D01*
X0078747Y0187324D01*
X0078687Y0187176D01*
X0078623Y0187030D01*
X0078555Y0186885D01*
X0078484Y0186742D01*
X0078410Y0186601D01*
X0078332Y0186462D01*
X0078250Y0186325D01*
X0078165Y0186190D01*
X0078077Y0186057D01*
X0077986Y0185926D01*
X0077891Y0185798D01*
X0077793Y0185672D01*
X0077692Y0185548D01*
X0077588Y0185428D01*
X0077481Y0185309D01*
X0077371Y0185194D01*
X0077258Y0185081D01*
X0077143Y0184971D01*
X0077024Y0184864D01*
X0076904Y0184760D01*
X0076780Y0184659D01*
X0076654Y0184561D01*
X0076526Y0184466D01*
X0076395Y0184375D01*
X0076262Y0184287D01*
X0076127Y0184202D01*
X0075990Y0184120D01*
X0075851Y0184042D01*
X0075710Y0183968D01*
X0075567Y0183897D01*
X0075422Y0183829D01*
X0075276Y0183765D01*
X0075128Y0183705D01*
X0074979Y0183649D01*
X0074829Y0183596D01*
X0074677Y0183547D01*
X0074524Y0183502D01*
X0074370Y0183461D01*
X0074215Y0183423D01*
X0074059Y0183390D01*
X0073902Y0183360D01*
X0073745Y0183334D01*
X0073587Y0183313D01*
X0073428Y0183295D01*
X0073269Y0183281D01*
X0073110Y0183271D01*
X0072951Y0183265D01*
X0072791Y0183263D01*
X0072631Y0183265D01*
X0072472Y0183271D01*
X0072313Y0183281D01*
X0072154Y0183295D01*
X0071995Y0183313D01*
X0071837Y0183334D01*
X0071680Y0183360D01*
X0071523Y0183390D01*
X0071367Y0183423D01*
X0071212Y0183461D01*
X0071058Y0183502D01*
X0070905Y0183547D01*
X0070753Y0183596D01*
X0070603Y0183649D01*
X0070454Y0183705D01*
X0070306Y0183765D01*
X0070160Y0183829D01*
X0070015Y0183897D01*
X0069872Y0183968D01*
X0069731Y0184042D01*
X0069592Y0184120D01*
X0069455Y0184202D01*
X0069320Y0184287D01*
X0069187Y0184375D01*
X0069056Y0184466D01*
X0068928Y0184561D01*
X0068802Y0184659D01*
X0068678Y0184760D01*
X0068558Y0184864D01*
X0068439Y0184971D01*
X0068324Y0185081D01*
X0068211Y0185194D01*
X0068101Y0185309D01*
X0067994Y0185428D01*
X0067890Y0185548D01*
X0067789Y0185672D01*
X0067691Y0185798D01*
X0067596Y0185926D01*
X0067505Y0186057D01*
X0067417Y0186190D01*
X0067332Y0186325D01*
X0067250Y0186462D01*
X0067172Y0186601D01*
X0067098Y0186742D01*
X0067027Y0186885D01*
X0066959Y0187030D01*
X0066895Y0187176D01*
X0066835Y0187324D01*
X0066779Y0187473D01*
X0066726Y0187623D01*
X0066677Y0187775D01*
X0066632Y0187928D01*
X0066591Y0188082D01*
X0066553Y0188237D01*
X0066520Y0188393D01*
X0066490Y0188550D01*
X0066464Y0188707D01*
X0066443Y0188865D01*
X0066425Y0189024D01*
X0066411Y0189183D01*
X0066401Y0189342D01*
X0066395Y0189501D01*
X0066393Y0189661D01*
X0009657Y0271768D02*
X0009659Y0271929D01*
X0009665Y0272089D01*
X0009675Y0272250D01*
X0009689Y0272410D01*
X0009707Y0272570D01*
X0009728Y0272729D01*
X0009754Y0272888D01*
X0009784Y0273046D01*
X0009817Y0273203D01*
X0009855Y0273360D01*
X0009896Y0273515D01*
X0009941Y0273669D01*
X0009990Y0273822D01*
X0010043Y0273974D01*
X0010099Y0274125D01*
X0010160Y0274274D01*
X0010223Y0274422D01*
X0010291Y0274568D01*
X0010362Y0274712D01*
X0010436Y0274854D01*
X0010514Y0274995D01*
X0010596Y0275133D01*
X0010681Y0275270D01*
X0010769Y0275404D01*
X0010861Y0275536D01*
X0010956Y0275666D01*
X0011054Y0275794D01*
X0011155Y0275919D01*
X0011259Y0276041D01*
X0011366Y0276161D01*
X0011476Y0276278D01*
X0011589Y0276393D01*
X0011705Y0276504D01*
X0011824Y0276613D01*
X0011945Y0276718D01*
X0012069Y0276821D01*
X0012195Y0276921D01*
X0012323Y0277017D01*
X0012454Y0277110D01*
X0012588Y0277200D01*
X0012723Y0277287D01*
X0012861Y0277370D01*
X0013000Y0277450D01*
X0013142Y0277526D01*
X0013285Y0277599D01*
X0013430Y0277668D01*
X0013577Y0277734D01*
X0013725Y0277796D01*
X0013875Y0277854D01*
X0014026Y0277909D01*
X0014179Y0277960D01*
X0014333Y0278007D01*
X0014488Y0278050D01*
X0014644Y0278089D01*
X0014800Y0278125D01*
X0014958Y0278156D01*
X0015116Y0278184D01*
X0015275Y0278208D01*
X0015435Y0278228D01*
X0015595Y0278244D01*
X0015755Y0278256D01*
X0015916Y0278264D01*
X0016077Y0278268D01*
X0016237Y0278268D01*
X0016398Y0278264D01*
X0016559Y0278256D01*
X0016719Y0278244D01*
X0016879Y0278228D01*
X0017039Y0278208D01*
X0017198Y0278184D01*
X0017356Y0278156D01*
X0017514Y0278125D01*
X0017670Y0278089D01*
X0017826Y0278050D01*
X0017981Y0278007D01*
X0018135Y0277960D01*
X0018288Y0277909D01*
X0018439Y0277854D01*
X0018589Y0277796D01*
X0018737Y0277734D01*
X0018884Y0277668D01*
X0019029Y0277599D01*
X0019172Y0277526D01*
X0019314Y0277450D01*
X0019453Y0277370D01*
X0019591Y0277287D01*
X0019726Y0277200D01*
X0019860Y0277110D01*
X0019991Y0277017D01*
X0020119Y0276921D01*
X0020245Y0276821D01*
X0020369Y0276718D01*
X0020490Y0276613D01*
X0020609Y0276504D01*
X0020725Y0276393D01*
X0020838Y0276278D01*
X0020948Y0276161D01*
X0021055Y0276041D01*
X0021159Y0275919D01*
X0021260Y0275794D01*
X0021358Y0275666D01*
X0021453Y0275536D01*
X0021545Y0275404D01*
X0021633Y0275270D01*
X0021718Y0275133D01*
X0021800Y0274995D01*
X0021878Y0274854D01*
X0021952Y0274712D01*
X0022023Y0274568D01*
X0022091Y0274422D01*
X0022154Y0274274D01*
X0022215Y0274125D01*
X0022271Y0273974D01*
X0022324Y0273822D01*
X0022373Y0273669D01*
X0022418Y0273515D01*
X0022459Y0273360D01*
X0022497Y0273203D01*
X0022530Y0273046D01*
X0022560Y0272888D01*
X0022586Y0272729D01*
X0022607Y0272570D01*
X0022625Y0272410D01*
X0022639Y0272250D01*
X0022649Y0272089D01*
X0022655Y0271929D01*
X0022657Y0271768D01*
X0022655Y0271607D01*
X0022649Y0271447D01*
X0022639Y0271286D01*
X0022625Y0271126D01*
X0022607Y0270966D01*
X0022586Y0270807D01*
X0022560Y0270648D01*
X0022530Y0270490D01*
X0022497Y0270333D01*
X0022459Y0270176D01*
X0022418Y0270021D01*
X0022373Y0269867D01*
X0022324Y0269714D01*
X0022271Y0269562D01*
X0022215Y0269411D01*
X0022154Y0269262D01*
X0022091Y0269114D01*
X0022023Y0268968D01*
X0021952Y0268824D01*
X0021878Y0268682D01*
X0021800Y0268541D01*
X0021718Y0268403D01*
X0021633Y0268266D01*
X0021545Y0268132D01*
X0021453Y0268000D01*
X0021358Y0267870D01*
X0021260Y0267742D01*
X0021159Y0267617D01*
X0021055Y0267495D01*
X0020948Y0267375D01*
X0020838Y0267258D01*
X0020725Y0267143D01*
X0020609Y0267032D01*
X0020490Y0266923D01*
X0020369Y0266818D01*
X0020245Y0266715D01*
X0020119Y0266615D01*
X0019991Y0266519D01*
X0019860Y0266426D01*
X0019726Y0266336D01*
X0019591Y0266249D01*
X0019453Y0266166D01*
X0019314Y0266086D01*
X0019172Y0266010D01*
X0019029Y0265937D01*
X0018884Y0265868D01*
X0018737Y0265802D01*
X0018589Y0265740D01*
X0018439Y0265682D01*
X0018288Y0265627D01*
X0018135Y0265576D01*
X0017981Y0265529D01*
X0017826Y0265486D01*
X0017670Y0265447D01*
X0017514Y0265411D01*
X0017356Y0265380D01*
X0017198Y0265352D01*
X0017039Y0265328D01*
X0016879Y0265308D01*
X0016719Y0265292D01*
X0016559Y0265280D01*
X0016398Y0265272D01*
X0016237Y0265268D01*
X0016077Y0265268D01*
X0015916Y0265272D01*
X0015755Y0265280D01*
X0015595Y0265292D01*
X0015435Y0265308D01*
X0015275Y0265328D01*
X0015116Y0265352D01*
X0014958Y0265380D01*
X0014800Y0265411D01*
X0014644Y0265447D01*
X0014488Y0265486D01*
X0014333Y0265529D01*
X0014179Y0265576D01*
X0014026Y0265627D01*
X0013875Y0265682D01*
X0013725Y0265740D01*
X0013577Y0265802D01*
X0013430Y0265868D01*
X0013285Y0265937D01*
X0013142Y0266010D01*
X0013000Y0266086D01*
X0012861Y0266166D01*
X0012723Y0266249D01*
X0012588Y0266336D01*
X0012454Y0266426D01*
X0012323Y0266519D01*
X0012195Y0266615D01*
X0012069Y0266715D01*
X0011945Y0266818D01*
X0011824Y0266923D01*
X0011705Y0267032D01*
X0011589Y0267143D01*
X0011476Y0267258D01*
X0011366Y0267375D01*
X0011259Y0267495D01*
X0011155Y0267617D01*
X0011054Y0267742D01*
X0010956Y0267870D01*
X0010861Y0268000D01*
X0010769Y0268132D01*
X0010681Y0268266D01*
X0010596Y0268403D01*
X0010514Y0268541D01*
X0010436Y0268682D01*
X0010362Y0268824D01*
X0010291Y0268968D01*
X0010223Y0269114D01*
X0010160Y0269262D01*
X0010099Y0269411D01*
X0010043Y0269562D01*
X0009990Y0269714D01*
X0009941Y0269867D01*
X0009896Y0270021D01*
X0009855Y0270176D01*
X0009817Y0270333D01*
X0009784Y0270490D01*
X0009754Y0270648D01*
X0009728Y0270807D01*
X0009707Y0270966D01*
X0009689Y0271126D01*
X0009675Y0271286D01*
X0009665Y0271447D01*
X0009659Y0271607D01*
X0009657Y0271768D01*
X0168677Y0238421D02*
X0168679Y0238614D01*
X0168686Y0238807D01*
X0168698Y0239000D01*
X0168715Y0239193D01*
X0168736Y0239385D01*
X0168762Y0239576D01*
X0168793Y0239767D01*
X0168828Y0239957D01*
X0168868Y0240146D01*
X0168913Y0240334D01*
X0168962Y0240521D01*
X0169016Y0240707D01*
X0169074Y0240891D01*
X0169137Y0241074D01*
X0169205Y0241255D01*
X0169276Y0241434D01*
X0169353Y0241612D01*
X0169433Y0241788D01*
X0169518Y0241961D01*
X0169607Y0242133D01*
X0169700Y0242302D01*
X0169797Y0242469D01*
X0169899Y0242634D01*
X0170004Y0242796D01*
X0170113Y0242955D01*
X0170227Y0243112D01*
X0170344Y0243265D01*
X0170464Y0243416D01*
X0170589Y0243564D01*
X0170717Y0243709D01*
X0170848Y0243850D01*
X0170983Y0243989D01*
X0171122Y0244124D01*
X0171263Y0244255D01*
X0171408Y0244383D01*
X0171556Y0244508D01*
X0171707Y0244628D01*
X0171860Y0244745D01*
X0172017Y0244859D01*
X0172176Y0244968D01*
X0172338Y0245073D01*
X0172503Y0245175D01*
X0172670Y0245272D01*
X0172839Y0245365D01*
X0173011Y0245454D01*
X0173184Y0245539D01*
X0173360Y0245619D01*
X0173538Y0245696D01*
X0173717Y0245767D01*
X0173898Y0245835D01*
X0174081Y0245898D01*
X0174265Y0245956D01*
X0174451Y0246010D01*
X0174638Y0246059D01*
X0174826Y0246104D01*
X0175015Y0246144D01*
X0175205Y0246179D01*
X0175396Y0246210D01*
X0175587Y0246236D01*
X0175779Y0246257D01*
X0175972Y0246274D01*
X0176165Y0246286D01*
X0176358Y0246293D01*
X0176551Y0246295D01*
X0176744Y0246293D01*
X0176937Y0246286D01*
X0177130Y0246274D01*
X0177323Y0246257D01*
X0177515Y0246236D01*
X0177706Y0246210D01*
X0177897Y0246179D01*
X0178087Y0246144D01*
X0178276Y0246104D01*
X0178464Y0246059D01*
X0178651Y0246010D01*
X0178837Y0245956D01*
X0179021Y0245898D01*
X0179204Y0245835D01*
X0179385Y0245767D01*
X0179564Y0245696D01*
X0179742Y0245619D01*
X0179918Y0245539D01*
X0180091Y0245454D01*
X0180263Y0245365D01*
X0180432Y0245272D01*
X0180599Y0245175D01*
X0180764Y0245073D01*
X0180926Y0244968D01*
X0181085Y0244859D01*
X0181242Y0244745D01*
X0181395Y0244628D01*
X0181546Y0244508D01*
X0181694Y0244383D01*
X0181839Y0244255D01*
X0181980Y0244124D01*
X0182119Y0243989D01*
X0182254Y0243850D01*
X0182385Y0243709D01*
X0182513Y0243564D01*
X0182638Y0243416D01*
X0182758Y0243265D01*
X0182875Y0243112D01*
X0182989Y0242955D01*
X0183098Y0242796D01*
X0183203Y0242634D01*
X0183305Y0242469D01*
X0183402Y0242302D01*
X0183495Y0242133D01*
X0183584Y0241961D01*
X0183669Y0241788D01*
X0183749Y0241612D01*
X0183826Y0241434D01*
X0183897Y0241255D01*
X0183965Y0241074D01*
X0184028Y0240891D01*
X0184086Y0240707D01*
X0184140Y0240521D01*
X0184189Y0240334D01*
X0184234Y0240146D01*
X0184274Y0239957D01*
X0184309Y0239767D01*
X0184340Y0239576D01*
X0184366Y0239385D01*
X0184387Y0239193D01*
X0184404Y0239000D01*
X0184416Y0238807D01*
X0184423Y0238614D01*
X0184425Y0238421D01*
X0184423Y0238228D01*
X0184416Y0238035D01*
X0184404Y0237842D01*
X0184387Y0237649D01*
X0184366Y0237457D01*
X0184340Y0237266D01*
X0184309Y0237075D01*
X0184274Y0236885D01*
X0184234Y0236696D01*
X0184189Y0236508D01*
X0184140Y0236321D01*
X0184086Y0236135D01*
X0184028Y0235951D01*
X0183965Y0235768D01*
X0183897Y0235587D01*
X0183826Y0235408D01*
X0183749Y0235230D01*
X0183669Y0235054D01*
X0183584Y0234881D01*
X0183495Y0234709D01*
X0183402Y0234540D01*
X0183305Y0234373D01*
X0183203Y0234208D01*
X0183098Y0234046D01*
X0182989Y0233887D01*
X0182875Y0233730D01*
X0182758Y0233577D01*
X0182638Y0233426D01*
X0182513Y0233278D01*
X0182385Y0233133D01*
X0182254Y0232992D01*
X0182119Y0232853D01*
X0181980Y0232718D01*
X0181839Y0232587D01*
X0181694Y0232459D01*
X0181546Y0232334D01*
X0181395Y0232214D01*
X0181242Y0232097D01*
X0181085Y0231983D01*
X0180926Y0231874D01*
X0180764Y0231769D01*
X0180599Y0231667D01*
X0180432Y0231570D01*
X0180263Y0231477D01*
X0180091Y0231388D01*
X0179918Y0231303D01*
X0179742Y0231223D01*
X0179564Y0231146D01*
X0179385Y0231075D01*
X0179204Y0231007D01*
X0179021Y0230944D01*
X0178837Y0230886D01*
X0178651Y0230832D01*
X0178464Y0230783D01*
X0178276Y0230738D01*
X0178087Y0230698D01*
X0177897Y0230663D01*
X0177706Y0230632D01*
X0177515Y0230606D01*
X0177323Y0230585D01*
X0177130Y0230568D01*
X0176937Y0230556D01*
X0176744Y0230549D01*
X0176551Y0230547D01*
X0176358Y0230549D01*
X0176165Y0230556D01*
X0175972Y0230568D01*
X0175779Y0230585D01*
X0175587Y0230606D01*
X0175396Y0230632D01*
X0175205Y0230663D01*
X0175015Y0230698D01*
X0174826Y0230738D01*
X0174638Y0230783D01*
X0174451Y0230832D01*
X0174265Y0230886D01*
X0174081Y0230944D01*
X0173898Y0231007D01*
X0173717Y0231075D01*
X0173538Y0231146D01*
X0173360Y0231223D01*
X0173184Y0231303D01*
X0173011Y0231388D01*
X0172839Y0231477D01*
X0172670Y0231570D01*
X0172503Y0231667D01*
X0172338Y0231769D01*
X0172176Y0231874D01*
X0172017Y0231983D01*
X0171860Y0232097D01*
X0171707Y0232214D01*
X0171556Y0232334D01*
X0171408Y0232459D01*
X0171263Y0232587D01*
X0171122Y0232718D01*
X0170983Y0232853D01*
X0170848Y0232992D01*
X0170717Y0233133D01*
X0170589Y0233278D01*
X0170464Y0233426D01*
X0170344Y0233577D01*
X0170227Y0233730D01*
X0170113Y0233887D01*
X0170004Y0234046D01*
X0169899Y0234208D01*
X0169797Y0234373D01*
X0169700Y0234540D01*
X0169607Y0234709D01*
X0169518Y0234881D01*
X0169433Y0235054D01*
X0169353Y0235230D01*
X0169276Y0235408D01*
X0169205Y0235587D01*
X0169137Y0235768D01*
X0169074Y0235951D01*
X0169016Y0236135D01*
X0168962Y0236321D01*
X0168913Y0236508D01*
X0168868Y0236696D01*
X0168828Y0236885D01*
X0168793Y0237075D01*
X0168762Y0237266D01*
X0168736Y0237457D01*
X0168715Y0237649D01*
X0168698Y0237842D01*
X0168686Y0238035D01*
X0168679Y0238228D01*
X0168677Y0238421D01*
X0168677Y0183421D02*
X0168679Y0183614D01*
X0168686Y0183807D01*
X0168698Y0184000D01*
X0168715Y0184193D01*
X0168736Y0184385D01*
X0168762Y0184576D01*
X0168793Y0184767D01*
X0168828Y0184957D01*
X0168868Y0185146D01*
X0168913Y0185334D01*
X0168962Y0185521D01*
X0169016Y0185707D01*
X0169074Y0185891D01*
X0169137Y0186074D01*
X0169205Y0186255D01*
X0169276Y0186434D01*
X0169353Y0186612D01*
X0169433Y0186788D01*
X0169518Y0186961D01*
X0169607Y0187133D01*
X0169700Y0187302D01*
X0169797Y0187469D01*
X0169899Y0187634D01*
X0170004Y0187796D01*
X0170113Y0187955D01*
X0170227Y0188112D01*
X0170344Y0188265D01*
X0170464Y0188416D01*
X0170589Y0188564D01*
X0170717Y0188709D01*
X0170848Y0188850D01*
X0170983Y0188989D01*
X0171122Y0189124D01*
X0171263Y0189255D01*
X0171408Y0189383D01*
X0171556Y0189508D01*
X0171707Y0189628D01*
X0171860Y0189745D01*
X0172017Y0189859D01*
X0172176Y0189968D01*
X0172338Y0190073D01*
X0172503Y0190175D01*
X0172670Y0190272D01*
X0172839Y0190365D01*
X0173011Y0190454D01*
X0173184Y0190539D01*
X0173360Y0190619D01*
X0173538Y0190696D01*
X0173717Y0190767D01*
X0173898Y0190835D01*
X0174081Y0190898D01*
X0174265Y0190956D01*
X0174451Y0191010D01*
X0174638Y0191059D01*
X0174826Y0191104D01*
X0175015Y0191144D01*
X0175205Y0191179D01*
X0175396Y0191210D01*
X0175587Y0191236D01*
X0175779Y0191257D01*
X0175972Y0191274D01*
X0176165Y0191286D01*
X0176358Y0191293D01*
X0176551Y0191295D01*
X0176744Y0191293D01*
X0176937Y0191286D01*
X0177130Y0191274D01*
X0177323Y0191257D01*
X0177515Y0191236D01*
X0177706Y0191210D01*
X0177897Y0191179D01*
X0178087Y0191144D01*
X0178276Y0191104D01*
X0178464Y0191059D01*
X0178651Y0191010D01*
X0178837Y0190956D01*
X0179021Y0190898D01*
X0179204Y0190835D01*
X0179385Y0190767D01*
X0179564Y0190696D01*
X0179742Y0190619D01*
X0179918Y0190539D01*
X0180091Y0190454D01*
X0180263Y0190365D01*
X0180432Y0190272D01*
X0180599Y0190175D01*
X0180764Y0190073D01*
X0180926Y0189968D01*
X0181085Y0189859D01*
X0181242Y0189745D01*
X0181395Y0189628D01*
X0181546Y0189508D01*
X0181694Y0189383D01*
X0181839Y0189255D01*
X0181980Y0189124D01*
X0182119Y0188989D01*
X0182254Y0188850D01*
X0182385Y0188709D01*
X0182513Y0188564D01*
X0182638Y0188416D01*
X0182758Y0188265D01*
X0182875Y0188112D01*
X0182989Y0187955D01*
X0183098Y0187796D01*
X0183203Y0187634D01*
X0183305Y0187469D01*
X0183402Y0187302D01*
X0183495Y0187133D01*
X0183584Y0186961D01*
X0183669Y0186788D01*
X0183749Y0186612D01*
X0183826Y0186434D01*
X0183897Y0186255D01*
X0183965Y0186074D01*
X0184028Y0185891D01*
X0184086Y0185707D01*
X0184140Y0185521D01*
X0184189Y0185334D01*
X0184234Y0185146D01*
X0184274Y0184957D01*
X0184309Y0184767D01*
X0184340Y0184576D01*
X0184366Y0184385D01*
X0184387Y0184193D01*
X0184404Y0184000D01*
X0184416Y0183807D01*
X0184423Y0183614D01*
X0184425Y0183421D01*
X0184423Y0183228D01*
X0184416Y0183035D01*
X0184404Y0182842D01*
X0184387Y0182649D01*
X0184366Y0182457D01*
X0184340Y0182266D01*
X0184309Y0182075D01*
X0184274Y0181885D01*
X0184234Y0181696D01*
X0184189Y0181508D01*
X0184140Y0181321D01*
X0184086Y0181135D01*
X0184028Y0180951D01*
X0183965Y0180768D01*
X0183897Y0180587D01*
X0183826Y0180408D01*
X0183749Y0180230D01*
X0183669Y0180054D01*
X0183584Y0179881D01*
X0183495Y0179709D01*
X0183402Y0179540D01*
X0183305Y0179373D01*
X0183203Y0179208D01*
X0183098Y0179046D01*
X0182989Y0178887D01*
X0182875Y0178730D01*
X0182758Y0178577D01*
X0182638Y0178426D01*
X0182513Y0178278D01*
X0182385Y0178133D01*
X0182254Y0177992D01*
X0182119Y0177853D01*
X0181980Y0177718D01*
X0181839Y0177587D01*
X0181694Y0177459D01*
X0181546Y0177334D01*
X0181395Y0177214D01*
X0181242Y0177097D01*
X0181085Y0176983D01*
X0180926Y0176874D01*
X0180764Y0176769D01*
X0180599Y0176667D01*
X0180432Y0176570D01*
X0180263Y0176477D01*
X0180091Y0176388D01*
X0179918Y0176303D01*
X0179742Y0176223D01*
X0179564Y0176146D01*
X0179385Y0176075D01*
X0179204Y0176007D01*
X0179021Y0175944D01*
X0178837Y0175886D01*
X0178651Y0175832D01*
X0178464Y0175783D01*
X0178276Y0175738D01*
X0178087Y0175698D01*
X0177897Y0175663D01*
X0177706Y0175632D01*
X0177515Y0175606D01*
X0177323Y0175585D01*
X0177130Y0175568D01*
X0176937Y0175556D01*
X0176744Y0175549D01*
X0176551Y0175547D01*
X0176358Y0175549D01*
X0176165Y0175556D01*
X0175972Y0175568D01*
X0175779Y0175585D01*
X0175587Y0175606D01*
X0175396Y0175632D01*
X0175205Y0175663D01*
X0175015Y0175698D01*
X0174826Y0175738D01*
X0174638Y0175783D01*
X0174451Y0175832D01*
X0174265Y0175886D01*
X0174081Y0175944D01*
X0173898Y0176007D01*
X0173717Y0176075D01*
X0173538Y0176146D01*
X0173360Y0176223D01*
X0173184Y0176303D01*
X0173011Y0176388D01*
X0172839Y0176477D01*
X0172670Y0176570D01*
X0172503Y0176667D01*
X0172338Y0176769D01*
X0172176Y0176874D01*
X0172017Y0176983D01*
X0171860Y0177097D01*
X0171707Y0177214D01*
X0171556Y0177334D01*
X0171408Y0177459D01*
X0171263Y0177587D01*
X0171122Y0177718D01*
X0170983Y0177853D01*
X0170848Y0177992D01*
X0170717Y0178133D01*
X0170589Y0178278D01*
X0170464Y0178426D01*
X0170344Y0178577D01*
X0170227Y0178730D01*
X0170113Y0178887D01*
X0170004Y0179046D01*
X0169899Y0179208D01*
X0169797Y0179373D01*
X0169700Y0179540D01*
X0169607Y0179709D01*
X0169518Y0179881D01*
X0169433Y0180054D01*
X0169353Y0180230D01*
X0169276Y0180408D01*
X0169205Y0180587D01*
X0169137Y0180768D01*
X0169074Y0180951D01*
X0169016Y0181135D01*
X0168962Y0181321D01*
X0168913Y0181508D01*
X0168868Y0181696D01*
X0168828Y0181885D01*
X0168793Y0182075D01*
X0168762Y0182266D01*
X0168736Y0182457D01*
X0168715Y0182649D01*
X0168698Y0182842D01*
X0168686Y0183035D01*
X0168679Y0183228D01*
X0168677Y0183421D01*
X0168677Y0103421D02*
X0168679Y0103614D01*
X0168686Y0103807D01*
X0168698Y0104000D01*
X0168715Y0104193D01*
X0168736Y0104385D01*
X0168762Y0104576D01*
X0168793Y0104767D01*
X0168828Y0104957D01*
X0168868Y0105146D01*
X0168913Y0105334D01*
X0168962Y0105521D01*
X0169016Y0105707D01*
X0169074Y0105891D01*
X0169137Y0106074D01*
X0169205Y0106255D01*
X0169276Y0106434D01*
X0169353Y0106612D01*
X0169433Y0106788D01*
X0169518Y0106961D01*
X0169607Y0107133D01*
X0169700Y0107302D01*
X0169797Y0107469D01*
X0169899Y0107634D01*
X0170004Y0107796D01*
X0170113Y0107955D01*
X0170227Y0108112D01*
X0170344Y0108265D01*
X0170464Y0108416D01*
X0170589Y0108564D01*
X0170717Y0108709D01*
X0170848Y0108850D01*
X0170983Y0108989D01*
X0171122Y0109124D01*
X0171263Y0109255D01*
X0171408Y0109383D01*
X0171556Y0109508D01*
X0171707Y0109628D01*
X0171860Y0109745D01*
X0172017Y0109859D01*
X0172176Y0109968D01*
X0172338Y0110073D01*
X0172503Y0110175D01*
X0172670Y0110272D01*
X0172839Y0110365D01*
X0173011Y0110454D01*
X0173184Y0110539D01*
X0173360Y0110619D01*
X0173538Y0110696D01*
X0173717Y0110767D01*
X0173898Y0110835D01*
X0174081Y0110898D01*
X0174265Y0110956D01*
X0174451Y0111010D01*
X0174638Y0111059D01*
X0174826Y0111104D01*
X0175015Y0111144D01*
X0175205Y0111179D01*
X0175396Y0111210D01*
X0175587Y0111236D01*
X0175779Y0111257D01*
X0175972Y0111274D01*
X0176165Y0111286D01*
X0176358Y0111293D01*
X0176551Y0111295D01*
X0176744Y0111293D01*
X0176937Y0111286D01*
X0177130Y0111274D01*
X0177323Y0111257D01*
X0177515Y0111236D01*
X0177706Y0111210D01*
X0177897Y0111179D01*
X0178087Y0111144D01*
X0178276Y0111104D01*
X0178464Y0111059D01*
X0178651Y0111010D01*
X0178837Y0110956D01*
X0179021Y0110898D01*
X0179204Y0110835D01*
X0179385Y0110767D01*
X0179564Y0110696D01*
X0179742Y0110619D01*
X0179918Y0110539D01*
X0180091Y0110454D01*
X0180263Y0110365D01*
X0180432Y0110272D01*
X0180599Y0110175D01*
X0180764Y0110073D01*
X0180926Y0109968D01*
X0181085Y0109859D01*
X0181242Y0109745D01*
X0181395Y0109628D01*
X0181546Y0109508D01*
X0181694Y0109383D01*
X0181839Y0109255D01*
X0181980Y0109124D01*
X0182119Y0108989D01*
X0182254Y0108850D01*
X0182385Y0108709D01*
X0182513Y0108564D01*
X0182638Y0108416D01*
X0182758Y0108265D01*
X0182875Y0108112D01*
X0182989Y0107955D01*
X0183098Y0107796D01*
X0183203Y0107634D01*
X0183305Y0107469D01*
X0183402Y0107302D01*
X0183495Y0107133D01*
X0183584Y0106961D01*
X0183669Y0106788D01*
X0183749Y0106612D01*
X0183826Y0106434D01*
X0183897Y0106255D01*
X0183965Y0106074D01*
X0184028Y0105891D01*
X0184086Y0105707D01*
X0184140Y0105521D01*
X0184189Y0105334D01*
X0184234Y0105146D01*
X0184274Y0104957D01*
X0184309Y0104767D01*
X0184340Y0104576D01*
X0184366Y0104385D01*
X0184387Y0104193D01*
X0184404Y0104000D01*
X0184416Y0103807D01*
X0184423Y0103614D01*
X0184425Y0103421D01*
X0184423Y0103228D01*
X0184416Y0103035D01*
X0184404Y0102842D01*
X0184387Y0102649D01*
X0184366Y0102457D01*
X0184340Y0102266D01*
X0184309Y0102075D01*
X0184274Y0101885D01*
X0184234Y0101696D01*
X0184189Y0101508D01*
X0184140Y0101321D01*
X0184086Y0101135D01*
X0184028Y0100951D01*
X0183965Y0100768D01*
X0183897Y0100587D01*
X0183826Y0100408D01*
X0183749Y0100230D01*
X0183669Y0100054D01*
X0183584Y0099881D01*
X0183495Y0099709D01*
X0183402Y0099540D01*
X0183305Y0099373D01*
X0183203Y0099208D01*
X0183098Y0099046D01*
X0182989Y0098887D01*
X0182875Y0098730D01*
X0182758Y0098577D01*
X0182638Y0098426D01*
X0182513Y0098278D01*
X0182385Y0098133D01*
X0182254Y0097992D01*
X0182119Y0097853D01*
X0181980Y0097718D01*
X0181839Y0097587D01*
X0181694Y0097459D01*
X0181546Y0097334D01*
X0181395Y0097214D01*
X0181242Y0097097D01*
X0181085Y0096983D01*
X0180926Y0096874D01*
X0180764Y0096769D01*
X0180599Y0096667D01*
X0180432Y0096570D01*
X0180263Y0096477D01*
X0180091Y0096388D01*
X0179918Y0096303D01*
X0179742Y0096223D01*
X0179564Y0096146D01*
X0179385Y0096075D01*
X0179204Y0096007D01*
X0179021Y0095944D01*
X0178837Y0095886D01*
X0178651Y0095832D01*
X0178464Y0095783D01*
X0178276Y0095738D01*
X0178087Y0095698D01*
X0177897Y0095663D01*
X0177706Y0095632D01*
X0177515Y0095606D01*
X0177323Y0095585D01*
X0177130Y0095568D01*
X0176937Y0095556D01*
X0176744Y0095549D01*
X0176551Y0095547D01*
X0176358Y0095549D01*
X0176165Y0095556D01*
X0175972Y0095568D01*
X0175779Y0095585D01*
X0175587Y0095606D01*
X0175396Y0095632D01*
X0175205Y0095663D01*
X0175015Y0095698D01*
X0174826Y0095738D01*
X0174638Y0095783D01*
X0174451Y0095832D01*
X0174265Y0095886D01*
X0174081Y0095944D01*
X0173898Y0096007D01*
X0173717Y0096075D01*
X0173538Y0096146D01*
X0173360Y0096223D01*
X0173184Y0096303D01*
X0173011Y0096388D01*
X0172839Y0096477D01*
X0172670Y0096570D01*
X0172503Y0096667D01*
X0172338Y0096769D01*
X0172176Y0096874D01*
X0172017Y0096983D01*
X0171860Y0097097D01*
X0171707Y0097214D01*
X0171556Y0097334D01*
X0171408Y0097459D01*
X0171263Y0097587D01*
X0171122Y0097718D01*
X0170983Y0097853D01*
X0170848Y0097992D01*
X0170717Y0098133D01*
X0170589Y0098278D01*
X0170464Y0098426D01*
X0170344Y0098577D01*
X0170227Y0098730D01*
X0170113Y0098887D01*
X0170004Y0099046D01*
X0169899Y0099208D01*
X0169797Y0099373D01*
X0169700Y0099540D01*
X0169607Y0099709D01*
X0169518Y0099881D01*
X0169433Y0100054D01*
X0169353Y0100230D01*
X0169276Y0100408D01*
X0169205Y0100587D01*
X0169137Y0100768D01*
X0169074Y0100951D01*
X0169016Y0101135D01*
X0168962Y0101321D01*
X0168913Y0101508D01*
X0168868Y0101696D01*
X0168828Y0101885D01*
X0168793Y0102075D01*
X0168762Y0102266D01*
X0168736Y0102457D01*
X0168715Y0102649D01*
X0168698Y0102842D01*
X0168686Y0103035D01*
X0168679Y0103228D01*
X0168677Y0103421D01*
X0168677Y0048421D02*
X0168679Y0048614D01*
X0168686Y0048807D01*
X0168698Y0049000D01*
X0168715Y0049193D01*
X0168736Y0049385D01*
X0168762Y0049576D01*
X0168793Y0049767D01*
X0168828Y0049957D01*
X0168868Y0050146D01*
X0168913Y0050334D01*
X0168962Y0050521D01*
X0169016Y0050707D01*
X0169074Y0050891D01*
X0169137Y0051074D01*
X0169205Y0051255D01*
X0169276Y0051434D01*
X0169353Y0051612D01*
X0169433Y0051788D01*
X0169518Y0051961D01*
X0169607Y0052133D01*
X0169700Y0052302D01*
X0169797Y0052469D01*
X0169899Y0052634D01*
X0170004Y0052796D01*
X0170113Y0052955D01*
X0170227Y0053112D01*
X0170344Y0053265D01*
X0170464Y0053416D01*
X0170589Y0053564D01*
X0170717Y0053709D01*
X0170848Y0053850D01*
X0170983Y0053989D01*
X0171122Y0054124D01*
X0171263Y0054255D01*
X0171408Y0054383D01*
X0171556Y0054508D01*
X0171707Y0054628D01*
X0171860Y0054745D01*
X0172017Y0054859D01*
X0172176Y0054968D01*
X0172338Y0055073D01*
X0172503Y0055175D01*
X0172670Y0055272D01*
X0172839Y0055365D01*
X0173011Y0055454D01*
X0173184Y0055539D01*
X0173360Y0055619D01*
X0173538Y0055696D01*
X0173717Y0055767D01*
X0173898Y0055835D01*
X0174081Y0055898D01*
X0174265Y0055956D01*
X0174451Y0056010D01*
X0174638Y0056059D01*
X0174826Y0056104D01*
X0175015Y0056144D01*
X0175205Y0056179D01*
X0175396Y0056210D01*
X0175587Y0056236D01*
X0175779Y0056257D01*
X0175972Y0056274D01*
X0176165Y0056286D01*
X0176358Y0056293D01*
X0176551Y0056295D01*
X0176744Y0056293D01*
X0176937Y0056286D01*
X0177130Y0056274D01*
X0177323Y0056257D01*
X0177515Y0056236D01*
X0177706Y0056210D01*
X0177897Y0056179D01*
X0178087Y0056144D01*
X0178276Y0056104D01*
X0178464Y0056059D01*
X0178651Y0056010D01*
X0178837Y0055956D01*
X0179021Y0055898D01*
X0179204Y0055835D01*
X0179385Y0055767D01*
X0179564Y0055696D01*
X0179742Y0055619D01*
X0179918Y0055539D01*
X0180091Y0055454D01*
X0180263Y0055365D01*
X0180432Y0055272D01*
X0180599Y0055175D01*
X0180764Y0055073D01*
X0180926Y0054968D01*
X0181085Y0054859D01*
X0181242Y0054745D01*
X0181395Y0054628D01*
X0181546Y0054508D01*
X0181694Y0054383D01*
X0181839Y0054255D01*
X0181980Y0054124D01*
X0182119Y0053989D01*
X0182254Y0053850D01*
X0182385Y0053709D01*
X0182513Y0053564D01*
X0182638Y0053416D01*
X0182758Y0053265D01*
X0182875Y0053112D01*
X0182989Y0052955D01*
X0183098Y0052796D01*
X0183203Y0052634D01*
X0183305Y0052469D01*
X0183402Y0052302D01*
X0183495Y0052133D01*
X0183584Y0051961D01*
X0183669Y0051788D01*
X0183749Y0051612D01*
X0183826Y0051434D01*
X0183897Y0051255D01*
X0183965Y0051074D01*
X0184028Y0050891D01*
X0184086Y0050707D01*
X0184140Y0050521D01*
X0184189Y0050334D01*
X0184234Y0050146D01*
X0184274Y0049957D01*
X0184309Y0049767D01*
X0184340Y0049576D01*
X0184366Y0049385D01*
X0184387Y0049193D01*
X0184404Y0049000D01*
X0184416Y0048807D01*
X0184423Y0048614D01*
X0184425Y0048421D01*
X0184423Y0048228D01*
X0184416Y0048035D01*
X0184404Y0047842D01*
X0184387Y0047649D01*
X0184366Y0047457D01*
X0184340Y0047266D01*
X0184309Y0047075D01*
X0184274Y0046885D01*
X0184234Y0046696D01*
X0184189Y0046508D01*
X0184140Y0046321D01*
X0184086Y0046135D01*
X0184028Y0045951D01*
X0183965Y0045768D01*
X0183897Y0045587D01*
X0183826Y0045408D01*
X0183749Y0045230D01*
X0183669Y0045054D01*
X0183584Y0044881D01*
X0183495Y0044709D01*
X0183402Y0044540D01*
X0183305Y0044373D01*
X0183203Y0044208D01*
X0183098Y0044046D01*
X0182989Y0043887D01*
X0182875Y0043730D01*
X0182758Y0043577D01*
X0182638Y0043426D01*
X0182513Y0043278D01*
X0182385Y0043133D01*
X0182254Y0042992D01*
X0182119Y0042853D01*
X0181980Y0042718D01*
X0181839Y0042587D01*
X0181694Y0042459D01*
X0181546Y0042334D01*
X0181395Y0042214D01*
X0181242Y0042097D01*
X0181085Y0041983D01*
X0180926Y0041874D01*
X0180764Y0041769D01*
X0180599Y0041667D01*
X0180432Y0041570D01*
X0180263Y0041477D01*
X0180091Y0041388D01*
X0179918Y0041303D01*
X0179742Y0041223D01*
X0179564Y0041146D01*
X0179385Y0041075D01*
X0179204Y0041007D01*
X0179021Y0040944D01*
X0178837Y0040886D01*
X0178651Y0040832D01*
X0178464Y0040783D01*
X0178276Y0040738D01*
X0178087Y0040698D01*
X0177897Y0040663D01*
X0177706Y0040632D01*
X0177515Y0040606D01*
X0177323Y0040585D01*
X0177130Y0040568D01*
X0176937Y0040556D01*
X0176744Y0040549D01*
X0176551Y0040547D01*
X0176358Y0040549D01*
X0176165Y0040556D01*
X0175972Y0040568D01*
X0175779Y0040585D01*
X0175587Y0040606D01*
X0175396Y0040632D01*
X0175205Y0040663D01*
X0175015Y0040698D01*
X0174826Y0040738D01*
X0174638Y0040783D01*
X0174451Y0040832D01*
X0174265Y0040886D01*
X0174081Y0040944D01*
X0173898Y0041007D01*
X0173717Y0041075D01*
X0173538Y0041146D01*
X0173360Y0041223D01*
X0173184Y0041303D01*
X0173011Y0041388D01*
X0172839Y0041477D01*
X0172670Y0041570D01*
X0172503Y0041667D01*
X0172338Y0041769D01*
X0172176Y0041874D01*
X0172017Y0041983D01*
X0171860Y0042097D01*
X0171707Y0042214D01*
X0171556Y0042334D01*
X0171408Y0042459D01*
X0171263Y0042587D01*
X0171122Y0042718D01*
X0170983Y0042853D01*
X0170848Y0042992D01*
X0170717Y0043133D01*
X0170589Y0043278D01*
X0170464Y0043426D01*
X0170344Y0043577D01*
X0170227Y0043730D01*
X0170113Y0043887D01*
X0170004Y0044046D01*
X0169899Y0044208D01*
X0169797Y0044373D01*
X0169700Y0044540D01*
X0169607Y0044709D01*
X0169518Y0044881D01*
X0169433Y0045054D01*
X0169353Y0045230D01*
X0169276Y0045408D01*
X0169205Y0045587D01*
X0169137Y0045768D01*
X0169074Y0045951D01*
X0169016Y0046135D01*
X0168962Y0046321D01*
X0168913Y0046508D01*
X0168868Y0046696D01*
X0168828Y0046885D01*
X0168793Y0047075D01*
X0168762Y0047266D01*
X0168736Y0047457D01*
X0168715Y0047649D01*
X0168698Y0047842D01*
X0168686Y0048035D01*
X0168679Y0048228D01*
X0168677Y0048421D01*
X0214972Y0016157D02*
X0214974Y0016318D01*
X0214980Y0016478D01*
X0214990Y0016639D01*
X0215004Y0016799D01*
X0215022Y0016959D01*
X0215043Y0017118D01*
X0215069Y0017277D01*
X0215099Y0017435D01*
X0215132Y0017592D01*
X0215170Y0017749D01*
X0215211Y0017904D01*
X0215256Y0018058D01*
X0215305Y0018211D01*
X0215358Y0018363D01*
X0215414Y0018514D01*
X0215475Y0018663D01*
X0215538Y0018811D01*
X0215606Y0018957D01*
X0215677Y0019101D01*
X0215751Y0019243D01*
X0215829Y0019384D01*
X0215911Y0019522D01*
X0215996Y0019659D01*
X0216084Y0019793D01*
X0216176Y0019925D01*
X0216271Y0020055D01*
X0216369Y0020183D01*
X0216470Y0020308D01*
X0216574Y0020430D01*
X0216681Y0020550D01*
X0216791Y0020667D01*
X0216904Y0020782D01*
X0217020Y0020893D01*
X0217139Y0021002D01*
X0217260Y0021107D01*
X0217384Y0021210D01*
X0217510Y0021310D01*
X0217638Y0021406D01*
X0217769Y0021499D01*
X0217903Y0021589D01*
X0218038Y0021676D01*
X0218176Y0021759D01*
X0218315Y0021839D01*
X0218457Y0021915D01*
X0218600Y0021988D01*
X0218745Y0022057D01*
X0218892Y0022123D01*
X0219040Y0022185D01*
X0219190Y0022243D01*
X0219341Y0022298D01*
X0219494Y0022349D01*
X0219648Y0022396D01*
X0219803Y0022439D01*
X0219959Y0022478D01*
X0220115Y0022514D01*
X0220273Y0022545D01*
X0220431Y0022573D01*
X0220590Y0022597D01*
X0220750Y0022617D01*
X0220910Y0022633D01*
X0221070Y0022645D01*
X0221231Y0022653D01*
X0221392Y0022657D01*
X0221552Y0022657D01*
X0221713Y0022653D01*
X0221874Y0022645D01*
X0222034Y0022633D01*
X0222194Y0022617D01*
X0222354Y0022597D01*
X0222513Y0022573D01*
X0222671Y0022545D01*
X0222829Y0022514D01*
X0222985Y0022478D01*
X0223141Y0022439D01*
X0223296Y0022396D01*
X0223450Y0022349D01*
X0223603Y0022298D01*
X0223754Y0022243D01*
X0223904Y0022185D01*
X0224052Y0022123D01*
X0224199Y0022057D01*
X0224344Y0021988D01*
X0224487Y0021915D01*
X0224629Y0021839D01*
X0224768Y0021759D01*
X0224906Y0021676D01*
X0225041Y0021589D01*
X0225175Y0021499D01*
X0225306Y0021406D01*
X0225434Y0021310D01*
X0225560Y0021210D01*
X0225684Y0021107D01*
X0225805Y0021002D01*
X0225924Y0020893D01*
X0226040Y0020782D01*
X0226153Y0020667D01*
X0226263Y0020550D01*
X0226370Y0020430D01*
X0226474Y0020308D01*
X0226575Y0020183D01*
X0226673Y0020055D01*
X0226768Y0019925D01*
X0226860Y0019793D01*
X0226948Y0019659D01*
X0227033Y0019522D01*
X0227115Y0019384D01*
X0227193Y0019243D01*
X0227267Y0019101D01*
X0227338Y0018957D01*
X0227406Y0018811D01*
X0227469Y0018663D01*
X0227530Y0018514D01*
X0227586Y0018363D01*
X0227639Y0018211D01*
X0227688Y0018058D01*
X0227733Y0017904D01*
X0227774Y0017749D01*
X0227812Y0017592D01*
X0227845Y0017435D01*
X0227875Y0017277D01*
X0227901Y0017118D01*
X0227922Y0016959D01*
X0227940Y0016799D01*
X0227954Y0016639D01*
X0227964Y0016478D01*
X0227970Y0016318D01*
X0227972Y0016157D01*
X0227970Y0015996D01*
X0227964Y0015836D01*
X0227954Y0015675D01*
X0227940Y0015515D01*
X0227922Y0015355D01*
X0227901Y0015196D01*
X0227875Y0015037D01*
X0227845Y0014879D01*
X0227812Y0014722D01*
X0227774Y0014565D01*
X0227733Y0014410D01*
X0227688Y0014256D01*
X0227639Y0014103D01*
X0227586Y0013951D01*
X0227530Y0013800D01*
X0227469Y0013651D01*
X0227406Y0013503D01*
X0227338Y0013357D01*
X0227267Y0013213D01*
X0227193Y0013071D01*
X0227115Y0012930D01*
X0227033Y0012792D01*
X0226948Y0012655D01*
X0226860Y0012521D01*
X0226768Y0012389D01*
X0226673Y0012259D01*
X0226575Y0012131D01*
X0226474Y0012006D01*
X0226370Y0011884D01*
X0226263Y0011764D01*
X0226153Y0011647D01*
X0226040Y0011532D01*
X0225924Y0011421D01*
X0225805Y0011312D01*
X0225684Y0011207D01*
X0225560Y0011104D01*
X0225434Y0011004D01*
X0225306Y0010908D01*
X0225175Y0010815D01*
X0225041Y0010725D01*
X0224906Y0010638D01*
X0224768Y0010555D01*
X0224629Y0010475D01*
X0224487Y0010399D01*
X0224344Y0010326D01*
X0224199Y0010257D01*
X0224052Y0010191D01*
X0223904Y0010129D01*
X0223754Y0010071D01*
X0223603Y0010016D01*
X0223450Y0009965D01*
X0223296Y0009918D01*
X0223141Y0009875D01*
X0222985Y0009836D01*
X0222829Y0009800D01*
X0222671Y0009769D01*
X0222513Y0009741D01*
X0222354Y0009717D01*
X0222194Y0009697D01*
X0222034Y0009681D01*
X0221874Y0009669D01*
X0221713Y0009661D01*
X0221552Y0009657D01*
X0221392Y0009657D01*
X0221231Y0009661D01*
X0221070Y0009669D01*
X0220910Y0009681D01*
X0220750Y0009697D01*
X0220590Y0009717D01*
X0220431Y0009741D01*
X0220273Y0009769D01*
X0220115Y0009800D01*
X0219959Y0009836D01*
X0219803Y0009875D01*
X0219648Y0009918D01*
X0219494Y0009965D01*
X0219341Y0010016D01*
X0219190Y0010071D01*
X0219040Y0010129D01*
X0218892Y0010191D01*
X0218745Y0010257D01*
X0218600Y0010326D01*
X0218457Y0010399D01*
X0218315Y0010475D01*
X0218176Y0010555D01*
X0218038Y0010638D01*
X0217903Y0010725D01*
X0217769Y0010815D01*
X0217638Y0010908D01*
X0217510Y0011004D01*
X0217384Y0011104D01*
X0217260Y0011207D01*
X0217139Y0011312D01*
X0217020Y0011421D01*
X0216904Y0011532D01*
X0216791Y0011647D01*
X0216681Y0011764D01*
X0216574Y0011884D01*
X0216470Y0012006D01*
X0216369Y0012131D01*
X0216271Y0012259D01*
X0216176Y0012389D01*
X0216084Y0012521D01*
X0215996Y0012655D01*
X0215911Y0012792D01*
X0215829Y0012930D01*
X0215751Y0013071D01*
X0215677Y0013213D01*
X0215606Y0013357D01*
X0215538Y0013503D01*
X0215475Y0013651D01*
X0215414Y0013800D01*
X0215358Y0013951D01*
X0215305Y0014103D01*
X0215256Y0014256D01*
X0215211Y0014410D01*
X0215170Y0014565D01*
X0215132Y0014722D01*
X0215099Y0014879D01*
X0215069Y0015037D01*
X0215043Y0015196D01*
X0215022Y0015355D01*
X0215004Y0015515D01*
X0214990Y0015675D01*
X0214980Y0015836D01*
X0214974Y0015996D01*
X0214972Y0016157D01*
X0215661Y0271768D02*
X0215663Y0271929D01*
X0215669Y0272089D01*
X0215679Y0272250D01*
X0215693Y0272410D01*
X0215711Y0272570D01*
X0215732Y0272729D01*
X0215758Y0272888D01*
X0215788Y0273046D01*
X0215821Y0273203D01*
X0215859Y0273360D01*
X0215900Y0273515D01*
X0215945Y0273669D01*
X0215994Y0273822D01*
X0216047Y0273974D01*
X0216103Y0274125D01*
X0216164Y0274274D01*
X0216227Y0274422D01*
X0216295Y0274568D01*
X0216366Y0274712D01*
X0216440Y0274854D01*
X0216518Y0274995D01*
X0216600Y0275133D01*
X0216685Y0275270D01*
X0216773Y0275404D01*
X0216865Y0275536D01*
X0216960Y0275666D01*
X0217058Y0275794D01*
X0217159Y0275919D01*
X0217263Y0276041D01*
X0217370Y0276161D01*
X0217480Y0276278D01*
X0217593Y0276393D01*
X0217709Y0276504D01*
X0217828Y0276613D01*
X0217949Y0276718D01*
X0218073Y0276821D01*
X0218199Y0276921D01*
X0218327Y0277017D01*
X0218458Y0277110D01*
X0218592Y0277200D01*
X0218727Y0277287D01*
X0218865Y0277370D01*
X0219004Y0277450D01*
X0219146Y0277526D01*
X0219289Y0277599D01*
X0219434Y0277668D01*
X0219581Y0277734D01*
X0219729Y0277796D01*
X0219879Y0277854D01*
X0220030Y0277909D01*
X0220183Y0277960D01*
X0220337Y0278007D01*
X0220492Y0278050D01*
X0220648Y0278089D01*
X0220804Y0278125D01*
X0220962Y0278156D01*
X0221120Y0278184D01*
X0221279Y0278208D01*
X0221439Y0278228D01*
X0221599Y0278244D01*
X0221759Y0278256D01*
X0221920Y0278264D01*
X0222081Y0278268D01*
X0222241Y0278268D01*
X0222402Y0278264D01*
X0222563Y0278256D01*
X0222723Y0278244D01*
X0222883Y0278228D01*
X0223043Y0278208D01*
X0223202Y0278184D01*
X0223360Y0278156D01*
X0223518Y0278125D01*
X0223674Y0278089D01*
X0223830Y0278050D01*
X0223985Y0278007D01*
X0224139Y0277960D01*
X0224292Y0277909D01*
X0224443Y0277854D01*
X0224593Y0277796D01*
X0224741Y0277734D01*
X0224888Y0277668D01*
X0225033Y0277599D01*
X0225176Y0277526D01*
X0225318Y0277450D01*
X0225457Y0277370D01*
X0225595Y0277287D01*
X0225730Y0277200D01*
X0225864Y0277110D01*
X0225995Y0277017D01*
X0226123Y0276921D01*
X0226249Y0276821D01*
X0226373Y0276718D01*
X0226494Y0276613D01*
X0226613Y0276504D01*
X0226729Y0276393D01*
X0226842Y0276278D01*
X0226952Y0276161D01*
X0227059Y0276041D01*
X0227163Y0275919D01*
X0227264Y0275794D01*
X0227362Y0275666D01*
X0227457Y0275536D01*
X0227549Y0275404D01*
X0227637Y0275270D01*
X0227722Y0275133D01*
X0227804Y0274995D01*
X0227882Y0274854D01*
X0227956Y0274712D01*
X0228027Y0274568D01*
X0228095Y0274422D01*
X0228158Y0274274D01*
X0228219Y0274125D01*
X0228275Y0273974D01*
X0228328Y0273822D01*
X0228377Y0273669D01*
X0228422Y0273515D01*
X0228463Y0273360D01*
X0228501Y0273203D01*
X0228534Y0273046D01*
X0228564Y0272888D01*
X0228590Y0272729D01*
X0228611Y0272570D01*
X0228629Y0272410D01*
X0228643Y0272250D01*
X0228653Y0272089D01*
X0228659Y0271929D01*
X0228661Y0271768D01*
X0228659Y0271607D01*
X0228653Y0271447D01*
X0228643Y0271286D01*
X0228629Y0271126D01*
X0228611Y0270966D01*
X0228590Y0270807D01*
X0228564Y0270648D01*
X0228534Y0270490D01*
X0228501Y0270333D01*
X0228463Y0270176D01*
X0228422Y0270021D01*
X0228377Y0269867D01*
X0228328Y0269714D01*
X0228275Y0269562D01*
X0228219Y0269411D01*
X0228158Y0269262D01*
X0228095Y0269114D01*
X0228027Y0268968D01*
X0227956Y0268824D01*
X0227882Y0268682D01*
X0227804Y0268541D01*
X0227722Y0268403D01*
X0227637Y0268266D01*
X0227549Y0268132D01*
X0227457Y0268000D01*
X0227362Y0267870D01*
X0227264Y0267742D01*
X0227163Y0267617D01*
X0227059Y0267495D01*
X0226952Y0267375D01*
X0226842Y0267258D01*
X0226729Y0267143D01*
X0226613Y0267032D01*
X0226494Y0266923D01*
X0226373Y0266818D01*
X0226249Y0266715D01*
X0226123Y0266615D01*
X0225995Y0266519D01*
X0225864Y0266426D01*
X0225730Y0266336D01*
X0225595Y0266249D01*
X0225457Y0266166D01*
X0225318Y0266086D01*
X0225176Y0266010D01*
X0225033Y0265937D01*
X0224888Y0265868D01*
X0224741Y0265802D01*
X0224593Y0265740D01*
X0224443Y0265682D01*
X0224292Y0265627D01*
X0224139Y0265576D01*
X0223985Y0265529D01*
X0223830Y0265486D01*
X0223674Y0265447D01*
X0223518Y0265411D01*
X0223360Y0265380D01*
X0223202Y0265352D01*
X0223043Y0265328D01*
X0222883Y0265308D01*
X0222723Y0265292D01*
X0222563Y0265280D01*
X0222402Y0265272D01*
X0222241Y0265268D01*
X0222081Y0265268D01*
X0221920Y0265272D01*
X0221759Y0265280D01*
X0221599Y0265292D01*
X0221439Y0265308D01*
X0221279Y0265328D01*
X0221120Y0265352D01*
X0220962Y0265380D01*
X0220804Y0265411D01*
X0220648Y0265447D01*
X0220492Y0265486D01*
X0220337Y0265529D01*
X0220183Y0265576D01*
X0220030Y0265627D01*
X0219879Y0265682D01*
X0219729Y0265740D01*
X0219581Y0265802D01*
X0219434Y0265868D01*
X0219289Y0265937D01*
X0219146Y0266010D01*
X0219004Y0266086D01*
X0218865Y0266166D01*
X0218727Y0266249D01*
X0218592Y0266336D01*
X0218458Y0266426D01*
X0218327Y0266519D01*
X0218199Y0266615D01*
X0218073Y0266715D01*
X0217949Y0266818D01*
X0217828Y0266923D01*
X0217709Y0267032D01*
X0217593Y0267143D01*
X0217480Y0267258D01*
X0217370Y0267375D01*
X0217263Y0267495D01*
X0217159Y0267617D01*
X0217058Y0267742D01*
X0216960Y0267870D01*
X0216865Y0268000D01*
X0216773Y0268132D01*
X0216685Y0268266D01*
X0216600Y0268403D01*
X0216518Y0268541D01*
X0216440Y0268682D01*
X0216366Y0268824D01*
X0216295Y0268968D01*
X0216227Y0269114D01*
X0216164Y0269262D01*
X0216103Y0269411D01*
X0216047Y0269562D01*
X0215994Y0269714D01*
X0215945Y0269867D01*
X0215900Y0270021D01*
X0215859Y0270176D01*
X0215821Y0270333D01*
X0215788Y0270490D01*
X0215758Y0270648D01*
X0215732Y0270807D01*
X0215711Y0270966D01*
X0215693Y0271126D01*
X0215679Y0271286D01*
X0215669Y0271447D01*
X0215663Y0271607D01*
X0215661Y0271768D01*
D11*
X0147654Y0251571D03*
X0147654Y0225272D03*
X0147654Y0196571D03*
X0147654Y0170272D03*
X0147654Y0116571D03*
X0147654Y0090272D03*
X0147654Y0061571D03*
X0147654Y0035272D03*
D12*
X0062791Y0178756D03*
D13*
X0062791Y0170724D03*
X0062791Y0162693D03*
X0062791Y0154661D03*
X0055783Y0150646D03*
X0055783Y0158677D03*
X0055783Y0166709D03*
X0055783Y0174740D03*
X0036807Y0182654D03*
X0036807Y0191669D03*
X0036807Y0146669D03*
X0036807Y0137654D03*
D14*
X0059287Y0132654D03*
X0059287Y0196669D03*
D15*
X0042339Y0211827D02*
X0132398Y0211827D01*
X0147654Y0196571D01*
X0145685Y0172555D02*
X0147654Y0170587D01*
X0147654Y0170272D01*
X0140075Y0162693D01*
X0062791Y0162693D01*
X0062791Y0154661D02*
X0066394Y0151059D01*
X0077512Y0151059D01*
X0112001Y0116571D01*
X0147654Y0116571D01*
X0147654Y0061571D02*
X0144957Y0058874D01*
X0129150Y0058874D01*
X0062285Y0125739D01*
X0056423Y0125739D01*
X0052372Y0129789D01*
X0052372Y0135518D01*
X0055783Y0138929D01*
X0055783Y0150646D01*
X0055783Y0158677D02*
X0050862Y0163598D01*
X0043028Y0163598D01*
X0042339Y0164287D01*
X0042339Y0211827D01*
M02*
