%
M48
M72
T01C0.01378
T02C0.03937
T03C0.05512
T04C0.07087
T05C0.12795
T06C0.13000
T07C0.15748
%
T01
X115925Y74031
X199291Y189091
T02
X185512Y126413
X185512Y135429
X204488Y139406
X204488Y147437
X204488Y155469
X204488Y163500
X211496Y159484
X211496Y167516
X211496Y151453
X211496Y143421
X185512Y171413
X185512Y180429
T03
X54882Y45902
X54882Y62201
X54882Y106531
X54882Y122831
X55571Y172673
X55571Y188972
X54882Y229858
X54882Y246157
T04
X207992Y121413
X207992Y185429
T05
X221496Y178421
X221496Y128421
T06
X20157Y275902
X18091Y15469
X224783Y273835
X226850Y14780
T07
X25984Y54051
X25984Y114681
X26673Y180823
X25984Y238008
M30
