G75*
%MOIN*%
%OFA0B0*%
%FSLAX25Y25*%
%IPPOS*%
%LPD*%
%AMOC8*
5,1,8,0,0,1.08239X$1,22.5*
%
%ADD10C,0.00000*%
%ADD11R,0.06337X0.06337*%
%ADD12C,0.06337*%
%ADD13C,0.13195*%
%ADD14C,0.11030*%
%ADD15C,0.13400*%
%ADD16C,0.16148*%
%ADD17R,0.08668X0.08668*%
D10*
X0005000Y0001000D02*
X0005000Y0288402D01*
X0241220Y0288402D01*
X0241220Y0001000D01*
X0005000Y0001000D01*
X0011591Y0015469D02*
X0011593Y0015630D01*
X0011599Y0015790D01*
X0011609Y0015951D01*
X0011623Y0016111D01*
X0011641Y0016271D01*
X0011662Y0016430D01*
X0011688Y0016589D01*
X0011718Y0016747D01*
X0011751Y0016904D01*
X0011789Y0017061D01*
X0011830Y0017216D01*
X0011875Y0017370D01*
X0011924Y0017523D01*
X0011977Y0017675D01*
X0012033Y0017826D01*
X0012094Y0017975D01*
X0012157Y0018123D01*
X0012225Y0018269D01*
X0012296Y0018413D01*
X0012370Y0018555D01*
X0012448Y0018696D01*
X0012530Y0018834D01*
X0012615Y0018971D01*
X0012703Y0019105D01*
X0012795Y0019237D01*
X0012890Y0019367D01*
X0012988Y0019495D01*
X0013089Y0019620D01*
X0013193Y0019742D01*
X0013300Y0019862D01*
X0013410Y0019979D01*
X0013523Y0020094D01*
X0013639Y0020205D01*
X0013758Y0020314D01*
X0013879Y0020419D01*
X0014003Y0020522D01*
X0014129Y0020622D01*
X0014257Y0020718D01*
X0014388Y0020811D01*
X0014522Y0020901D01*
X0014657Y0020988D01*
X0014795Y0021071D01*
X0014934Y0021151D01*
X0015076Y0021227D01*
X0015219Y0021300D01*
X0015364Y0021369D01*
X0015511Y0021435D01*
X0015659Y0021497D01*
X0015809Y0021555D01*
X0015960Y0021610D01*
X0016113Y0021661D01*
X0016267Y0021708D01*
X0016422Y0021751D01*
X0016578Y0021790D01*
X0016734Y0021826D01*
X0016892Y0021857D01*
X0017050Y0021885D01*
X0017209Y0021909D01*
X0017369Y0021929D01*
X0017529Y0021945D01*
X0017689Y0021957D01*
X0017850Y0021965D01*
X0018011Y0021969D01*
X0018171Y0021969D01*
X0018332Y0021965D01*
X0018493Y0021957D01*
X0018653Y0021945D01*
X0018813Y0021929D01*
X0018973Y0021909D01*
X0019132Y0021885D01*
X0019290Y0021857D01*
X0019448Y0021826D01*
X0019604Y0021790D01*
X0019760Y0021751D01*
X0019915Y0021708D01*
X0020069Y0021661D01*
X0020222Y0021610D01*
X0020373Y0021555D01*
X0020523Y0021497D01*
X0020671Y0021435D01*
X0020818Y0021369D01*
X0020963Y0021300D01*
X0021106Y0021227D01*
X0021248Y0021151D01*
X0021387Y0021071D01*
X0021525Y0020988D01*
X0021660Y0020901D01*
X0021794Y0020811D01*
X0021925Y0020718D01*
X0022053Y0020622D01*
X0022179Y0020522D01*
X0022303Y0020419D01*
X0022424Y0020314D01*
X0022543Y0020205D01*
X0022659Y0020094D01*
X0022772Y0019979D01*
X0022882Y0019862D01*
X0022989Y0019742D01*
X0023093Y0019620D01*
X0023194Y0019495D01*
X0023292Y0019367D01*
X0023387Y0019237D01*
X0023479Y0019105D01*
X0023567Y0018971D01*
X0023652Y0018834D01*
X0023734Y0018696D01*
X0023812Y0018555D01*
X0023886Y0018413D01*
X0023957Y0018269D01*
X0024025Y0018123D01*
X0024088Y0017975D01*
X0024149Y0017826D01*
X0024205Y0017675D01*
X0024258Y0017523D01*
X0024307Y0017370D01*
X0024352Y0017216D01*
X0024393Y0017061D01*
X0024431Y0016904D01*
X0024464Y0016747D01*
X0024494Y0016589D01*
X0024520Y0016430D01*
X0024541Y0016271D01*
X0024559Y0016111D01*
X0024573Y0015951D01*
X0024583Y0015790D01*
X0024589Y0015630D01*
X0024591Y0015469D01*
X0024589Y0015308D01*
X0024583Y0015148D01*
X0024573Y0014987D01*
X0024559Y0014827D01*
X0024541Y0014667D01*
X0024520Y0014508D01*
X0024494Y0014349D01*
X0024464Y0014191D01*
X0024431Y0014034D01*
X0024393Y0013877D01*
X0024352Y0013722D01*
X0024307Y0013568D01*
X0024258Y0013415D01*
X0024205Y0013263D01*
X0024149Y0013112D01*
X0024088Y0012963D01*
X0024025Y0012815D01*
X0023957Y0012669D01*
X0023886Y0012525D01*
X0023812Y0012383D01*
X0023734Y0012242D01*
X0023652Y0012104D01*
X0023567Y0011967D01*
X0023479Y0011833D01*
X0023387Y0011701D01*
X0023292Y0011571D01*
X0023194Y0011443D01*
X0023093Y0011318D01*
X0022989Y0011196D01*
X0022882Y0011076D01*
X0022772Y0010959D01*
X0022659Y0010844D01*
X0022543Y0010733D01*
X0022424Y0010624D01*
X0022303Y0010519D01*
X0022179Y0010416D01*
X0022053Y0010316D01*
X0021925Y0010220D01*
X0021794Y0010127D01*
X0021660Y0010037D01*
X0021525Y0009950D01*
X0021387Y0009867D01*
X0021248Y0009787D01*
X0021106Y0009711D01*
X0020963Y0009638D01*
X0020818Y0009569D01*
X0020671Y0009503D01*
X0020523Y0009441D01*
X0020373Y0009383D01*
X0020222Y0009328D01*
X0020069Y0009277D01*
X0019915Y0009230D01*
X0019760Y0009187D01*
X0019604Y0009148D01*
X0019448Y0009112D01*
X0019290Y0009081D01*
X0019132Y0009053D01*
X0018973Y0009029D01*
X0018813Y0009009D01*
X0018653Y0008993D01*
X0018493Y0008981D01*
X0018332Y0008973D01*
X0018171Y0008969D01*
X0018011Y0008969D01*
X0017850Y0008973D01*
X0017689Y0008981D01*
X0017529Y0008993D01*
X0017369Y0009009D01*
X0017209Y0009029D01*
X0017050Y0009053D01*
X0016892Y0009081D01*
X0016734Y0009112D01*
X0016578Y0009148D01*
X0016422Y0009187D01*
X0016267Y0009230D01*
X0016113Y0009277D01*
X0015960Y0009328D01*
X0015809Y0009383D01*
X0015659Y0009441D01*
X0015511Y0009503D01*
X0015364Y0009569D01*
X0015219Y0009638D01*
X0015076Y0009711D01*
X0014934Y0009787D01*
X0014795Y0009867D01*
X0014657Y0009950D01*
X0014522Y0010037D01*
X0014388Y0010127D01*
X0014257Y0010220D01*
X0014129Y0010316D01*
X0014003Y0010416D01*
X0013879Y0010519D01*
X0013758Y0010624D01*
X0013639Y0010733D01*
X0013523Y0010844D01*
X0013410Y0010959D01*
X0013300Y0011076D01*
X0013193Y0011196D01*
X0013089Y0011318D01*
X0012988Y0011443D01*
X0012890Y0011571D01*
X0012795Y0011701D01*
X0012703Y0011833D01*
X0012615Y0011967D01*
X0012530Y0012104D01*
X0012448Y0012242D01*
X0012370Y0012383D01*
X0012296Y0012525D01*
X0012225Y0012669D01*
X0012157Y0012815D01*
X0012094Y0012963D01*
X0012033Y0013112D01*
X0011977Y0013263D01*
X0011924Y0013415D01*
X0011875Y0013568D01*
X0011830Y0013722D01*
X0011789Y0013877D01*
X0011751Y0014034D01*
X0011718Y0014191D01*
X0011688Y0014349D01*
X0011662Y0014508D01*
X0011641Y0014667D01*
X0011623Y0014827D01*
X0011609Y0014987D01*
X0011599Y0015148D01*
X0011593Y0015308D01*
X0011591Y0015469D01*
X0018110Y0054051D02*
X0018112Y0054244D01*
X0018119Y0054437D01*
X0018131Y0054630D01*
X0018148Y0054823D01*
X0018169Y0055015D01*
X0018195Y0055206D01*
X0018226Y0055397D01*
X0018261Y0055587D01*
X0018301Y0055776D01*
X0018346Y0055964D01*
X0018395Y0056151D01*
X0018449Y0056337D01*
X0018507Y0056521D01*
X0018570Y0056704D01*
X0018638Y0056885D01*
X0018709Y0057064D01*
X0018786Y0057242D01*
X0018866Y0057418D01*
X0018951Y0057591D01*
X0019040Y0057763D01*
X0019133Y0057932D01*
X0019230Y0058099D01*
X0019332Y0058264D01*
X0019437Y0058426D01*
X0019546Y0058585D01*
X0019660Y0058742D01*
X0019777Y0058895D01*
X0019897Y0059046D01*
X0020022Y0059194D01*
X0020150Y0059339D01*
X0020281Y0059480D01*
X0020416Y0059619D01*
X0020555Y0059754D01*
X0020696Y0059885D01*
X0020841Y0060013D01*
X0020989Y0060138D01*
X0021140Y0060258D01*
X0021293Y0060375D01*
X0021450Y0060489D01*
X0021609Y0060598D01*
X0021771Y0060703D01*
X0021936Y0060805D01*
X0022103Y0060902D01*
X0022272Y0060995D01*
X0022444Y0061084D01*
X0022617Y0061169D01*
X0022793Y0061249D01*
X0022971Y0061326D01*
X0023150Y0061397D01*
X0023331Y0061465D01*
X0023514Y0061528D01*
X0023698Y0061586D01*
X0023884Y0061640D01*
X0024071Y0061689D01*
X0024259Y0061734D01*
X0024448Y0061774D01*
X0024638Y0061809D01*
X0024829Y0061840D01*
X0025020Y0061866D01*
X0025212Y0061887D01*
X0025405Y0061904D01*
X0025598Y0061916D01*
X0025791Y0061923D01*
X0025984Y0061925D01*
X0026177Y0061923D01*
X0026370Y0061916D01*
X0026563Y0061904D01*
X0026756Y0061887D01*
X0026948Y0061866D01*
X0027139Y0061840D01*
X0027330Y0061809D01*
X0027520Y0061774D01*
X0027709Y0061734D01*
X0027897Y0061689D01*
X0028084Y0061640D01*
X0028270Y0061586D01*
X0028454Y0061528D01*
X0028637Y0061465D01*
X0028818Y0061397D01*
X0028997Y0061326D01*
X0029175Y0061249D01*
X0029351Y0061169D01*
X0029524Y0061084D01*
X0029696Y0060995D01*
X0029865Y0060902D01*
X0030032Y0060805D01*
X0030197Y0060703D01*
X0030359Y0060598D01*
X0030518Y0060489D01*
X0030675Y0060375D01*
X0030828Y0060258D01*
X0030979Y0060138D01*
X0031127Y0060013D01*
X0031272Y0059885D01*
X0031413Y0059754D01*
X0031552Y0059619D01*
X0031687Y0059480D01*
X0031818Y0059339D01*
X0031946Y0059194D01*
X0032071Y0059046D01*
X0032191Y0058895D01*
X0032308Y0058742D01*
X0032422Y0058585D01*
X0032531Y0058426D01*
X0032636Y0058264D01*
X0032738Y0058099D01*
X0032835Y0057932D01*
X0032928Y0057763D01*
X0033017Y0057591D01*
X0033102Y0057418D01*
X0033182Y0057242D01*
X0033259Y0057064D01*
X0033330Y0056885D01*
X0033398Y0056704D01*
X0033461Y0056521D01*
X0033519Y0056337D01*
X0033573Y0056151D01*
X0033622Y0055964D01*
X0033667Y0055776D01*
X0033707Y0055587D01*
X0033742Y0055397D01*
X0033773Y0055206D01*
X0033799Y0055015D01*
X0033820Y0054823D01*
X0033837Y0054630D01*
X0033849Y0054437D01*
X0033856Y0054244D01*
X0033858Y0054051D01*
X0033856Y0053858D01*
X0033849Y0053665D01*
X0033837Y0053472D01*
X0033820Y0053279D01*
X0033799Y0053087D01*
X0033773Y0052896D01*
X0033742Y0052705D01*
X0033707Y0052515D01*
X0033667Y0052326D01*
X0033622Y0052138D01*
X0033573Y0051951D01*
X0033519Y0051765D01*
X0033461Y0051581D01*
X0033398Y0051398D01*
X0033330Y0051217D01*
X0033259Y0051038D01*
X0033182Y0050860D01*
X0033102Y0050684D01*
X0033017Y0050511D01*
X0032928Y0050339D01*
X0032835Y0050170D01*
X0032738Y0050003D01*
X0032636Y0049838D01*
X0032531Y0049676D01*
X0032422Y0049517D01*
X0032308Y0049360D01*
X0032191Y0049207D01*
X0032071Y0049056D01*
X0031946Y0048908D01*
X0031818Y0048763D01*
X0031687Y0048622D01*
X0031552Y0048483D01*
X0031413Y0048348D01*
X0031272Y0048217D01*
X0031127Y0048089D01*
X0030979Y0047964D01*
X0030828Y0047844D01*
X0030675Y0047727D01*
X0030518Y0047613D01*
X0030359Y0047504D01*
X0030197Y0047399D01*
X0030032Y0047297D01*
X0029865Y0047200D01*
X0029696Y0047107D01*
X0029524Y0047018D01*
X0029351Y0046933D01*
X0029175Y0046853D01*
X0028997Y0046776D01*
X0028818Y0046705D01*
X0028637Y0046637D01*
X0028454Y0046574D01*
X0028270Y0046516D01*
X0028084Y0046462D01*
X0027897Y0046413D01*
X0027709Y0046368D01*
X0027520Y0046328D01*
X0027330Y0046293D01*
X0027139Y0046262D01*
X0026948Y0046236D01*
X0026756Y0046215D01*
X0026563Y0046198D01*
X0026370Y0046186D01*
X0026177Y0046179D01*
X0025984Y0046177D01*
X0025791Y0046179D01*
X0025598Y0046186D01*
X0025405Y0046198D01*
X0025212Y0046215D01*
X0025020Y0046236D01*
X0024829Y0046262D01*
X0024638Y0046293D01*
X0024448Y0046328D01*
X0024259Y0046368D01*
X0024071Y0046413D01*
X0023884Y0046462D01*
X0023698Y0046516D01*
X0023514Y0046574D01*
X0023331Y0046637D01*
X0023150Y0046705D01*
X0022971Y0046776D01*
X0022793Y0046853D01*
X0022617Y0046933D01*
X0022444Y0047018D01*
X0022272Y0047107D01*
X0022103Y0047200D01*
X0021936Y0047297D01*
X0021771Y0047399D01*
X0021609Y0047504D01*
X0021450Y0047613D01*
X0021293Y0047727D01*
X0021140Y0047844D01*
X0020989Y0047964D01*
X0020841Y0048089D01*
X0020696Y0048217D01*
X0020555Y0048348D01*
X0020416Y0048483D01*
X0020281Y0048622D01*
X0020150Y0048763D01*
X0020022Y0048908D01*
X0019897Y0049056D01*
X0019777Y0049207D01*
X0019660Y0049360D01*
X0019546Y0049517D01*
X0019437Y0049676D01*
X0019332Y0049838D01*
X0019230Y0050003D01*
X0019133Y0050170D01*
X0019040Y0050339D01*
X0018951Y0050511D01*
X0018866Y0050684D01*
X0018786Y0050860D01*
X0018709Y0051038D01*
X0018638Y0051217D01*
X0018570Y0051398D01*
X0018507Y0051581D01*
X0018449Y0051765D01*
X0018395Y0051951D01*
X0018346Y0052138D01*
X0018301Y0052326D01*
X0018261Y0052515D01*
X0018226Y0052705D01*
X0018195Y0052896D01*
X0018169Y0053087D01*
X0018148Y0053279D01*
X0018131Y0053472D01*
X0018119Y0053665D01*
X0018112Y0053858D01*
X0018110Y0054051D01*
X0018110Y0114681D02*
X0018112Y0114874D01*
X0018119Y0115067D01*
X0018131Y0115260D01*
X0018148Y0115453D01*
X0018169Y0115645D01*
X0018195Y0115836D01*
X0018226Y0116027D01*
X0018261Y0116217D01*
X0018301Y0116406D01*
X0018346Y0116594D01*
X0018395Y0116781D01*
X0018449Y0116967D01*
X0018507Y0117151D01*
X0018570Y0117334D01*
X0018638Y0117515D01*
X0018709Y0117694D01*
X0018786Y0117872D01*
X0018866Y0118048D01*
X0018951Y0118221D01*
X0019040Y0118393D01*
X0019133Y0118562D01*
X0019230Y0118729D01*
X0019332Y0118894D01*
X0019437Y0119056D01*
X0019546Y0119215D01*
X0019660Y0119372D01*
X0019777Y0119525D01*
X0019897Y0119676D01*
X0020022Y0119824D01*
X0020150Y0119969D01*
X0020281Y0120110D01*
X0020416Y0120249D01*
X0020555Y0120384D01*
X0020696Y0120515D01*
X0020841Y0120643D01*
X0020989Y0120768D01*
X0021140Y0120888D01*
X0021293Y0121005D01*
X0021450Y0121119D01*
X0021609Y0121228D01*
X0021771Y0121333D01*
X0021936Y0121435D01*
X0022103Y0121532D01*
X0022272Y0121625D01*
X0022444Y0121714D01*
X0022617Y0121799D01*
X0022793Y0121879D01*
X0022971Y0121956D01*
X0023150Y0122027D01*
X0023331Y0122095D01*
X0023514Y0122158D01*
X0023698Y0122216D01*
X0023884Y0122270D01*
X0024071Y0122319D01*
X0024259Y0122364D01*
X0024448Y0122404D01*
X0024638Y0122439D01*
X0024829Y0122470D01*
X0025020Y0122496D01*
X0025212Y0122517D01*
X0025405Y0122534D01*
X0025598Y0122546D01*
X0025791Y0122553D01*
X0025984Y0122555D01*
X0026177Y0122553D01*
X0026370Y0122546D01*
X0026563Y0122534D01*
X0026756Y0122517D01*
X0026948Y0122496D01*
X0027139Y0122470D01*
X0027330Y0122439D01*
X0027520Y0122404D01*
X0027709Y0122364D01*
X0027897Y0122319D01*
X0028084Y0122270D01*
X0028270Y0122216D01*
X0028454Y0122158D01*
X0028637Y0122095D01*
X0028818Y0122027D01*
X0028997Y0121956D01*
X0029175Y0121879D01*
X0029351Y0121799D01*
X0029524Y0121714D01*
X0029696Y0121625D01*
X0029865Y0121532D01*
X0030032Y0121435D01*
X0030197Y0121333D01*
X0030359Y0121228D01*
X0030518Y0121119D01*
X0030675Y0121005D01*
X0030828Y0120888D01*
X0030979Y0120768D01*
X0031127Y0120643D01*
X0031272Y0120515D01*
X0031413Y0120384D01*
X0031552Y0120249D01*
X0031687Y0120110D01*
X0031818Y0119969D01*
X0031946Y0119824D01*
X0032071Y0119676D01*
X0032191Y0119525D01*
X0032308Y0119372D01*
X0032422Y0119215D01*
X0032531Y0119056D01*
X0032636Y0118894D01*
X0032738Y0118729D01*
X0032835Y0118562D01*
X0032928Y0118393D01*
X0033017Y0118221D01*
X0033102Y0118048D01*
X0033182Y0117872D01*
X0033259Y0117694D01*
X0033330Y0117515D01*
X0033398Y0117334D01*
X0033461Y0117151D01*
X0033519Y0116967D01*
X0033573Y0116781D01*
X0033622Y0116594D01*
X0033667Y0116406D01*
X0033707Y0116217D01*
X0033742Y0116027D01*
X0033773Y0115836D01*
X0033799Y0115645D01*
X0033820Y0115453D01*
X0033837Y0115260D01*
X0033849Y0115067D01*
X0033856Y0114874D01*
X0033858Y0114681D01*
X0033856Y0114488D01*
X0033849Y0114295D01*
X0033837Y0114102D01*
X0033820Y0113909D01*
X0033799Y0113717D01*
X0033773Y0113526D01*
X0033742Y0113335D01*
X0033707Y0113145D01*
X0033667Y0112956D01*
X0033622Y0112768D01*
X0033573Y0112581D01*
X0033519Y0112395D01*
X0033461Y0112211D01*
X0033398Y0112028D01*
X0033330Y0111847D01*
X0033259Y0111668D01*
X0033182Y0111490D01*
X0033102Y0111314D01*
X0033017Y0111141D01*
X0032928Y0110969D01*
X0032835Y0110800D01*
X0032738Y0110633D01*
X0032636Y0110468D01*
X0032531Y0110306D01*
X0032422Y0110147D01*
X0032308Y0109990D01*
X0032191Y0109837D01*
X0032071Y0109686D01*
X0031946Y0109538D01*
X0031818Y0109393D01*
X0031687Y0109252D01*
X0031552Y0109113D01*
X0031413Y0108978D01*
X0031272Y0108847D01*
X0031127Y0108719D01*
X0030979Y0108594D01*
X0030828Y0108474D01*
X0030675Y0108357D01*
X0030518Y0108243D01*
X0030359Y0108134D01*
X0030197Y0108029D01*
X0030032Y0107927D01*
X0029865Y0107830D01*
X0029696Y0107737D01*
X0029524Y0107648D01*
X0029351Y0107563D01*
X0029175Y0107483D01*
X0028997Y0107406D01*
X0028818Y0107335D01*
X0028637Y0107267D01*
X0028454Y0107204D01*
X0028270Y0107146D01*
X0028084Y0107092D01*
X0027897Y0107043D01*
X0027709Y0106998D01*
X0027520Y0106958D01*
X0027330Y0106923D01*
X0027139Y0106892D01*
X0026948Y0106866D01*
X0026756Y0106845D01*
X0026563Y0106828D01*
X0026370Y0106816D01*
X0026177Y0106809D01*
X0025984Y0106807D01*
X0025791Y0106809D01*
X0025598Y0106816D01*
X0025405Y0106828D01*
X0025212Y0106845D01*
X0025020Y0106866D01*
X0024829Y0106892D01*
X0024638Y0106923D01*
X0024448Y0106958D01*
X0024259Y0106998D01*
X0024071Y0107043D01*
X0023884Y0107092D01*
X0023698Y0107146D01*
X0023514Y0107204D01*
X0023331Y0107267D01*
X0023150Y0107335D01*
X0022971Y0107406D01*
X0022793Y0107483D01*
X0022617Y0107563D01*
X0022444Y0107648D01*
X0022272Y0107737D01*
X0022103Y0107830D01*
X0021936Y0107927D01*
X0021771Y0108029D01*
X0021609Y0108134D01*
X0021450Y0108243D01*
X0021293Y0108357D01*
X0021140Y0108474D01*
X0020989Y0108594D01*
X0020841Y0108719D01*
X0020696Y0108847D01*
X0020555Y0108978D01*
X0020416Y0109113D01*
X0020281Y0109252D01*
X0020150Y0109393D01*
X0020022Y0109538D01*
X0019897Y0109686D01*
X0019777Y0109837D01*
X0019660Y0109990D01*
X0019546Y0110147D01*
X0019437Y0110306D01*
X0019332Y0110468D01*
X0019230Y0110633D01*
X0019133Y0110800D01*
X0019040Y0110969D01*
X0018951Y0111141D01*
X0018866Y0111314D01*
X0018786Y0111490D01*
X0018709Y0111668D01*
X0018638Y0111847D01*
X0018570Y0112028D01*
X0018507Y0112211D01*
X0018449Y0112395D01*
X0018395Y0112581D01*
X0018346Y0112768D01*
X0018301Y0112956D01*
X0018261Y0113145D01*
X0018226Y0113335D01*
X0018195Y0113526D01*
X0018169Y0113717D01*
X0018148Y0113909D01*
X0018131Y0114102D01*
X0018119Y0114295D01*
X0018112Y0114488D01*
X0018110Y0114681D01*
X0018799Y0180823D02*
X0018801Y0181016D01*
X0018808Y0181209D01*
X0018820Y0181402D01*
X0018837Y0181595D01*
X0018858Y0181787D01*
X0018884Y0181978D01*
X0018915Y0182169D01*
X0018950Y0182359D01*
X0018990Y0182548D01*
X0019035Y0182736D01*
X0019084Y0182923D01*
X0019138Y0183109D01*
X0019196Y0183293D01*
X0019259Y0183476D01*
X0019327Y0183657D01*
X0019398Y0183836D01*
X0019475Y0184014D01*
X0019555Y0184190D01*
X0019640Y0184363D01*
X0019729Y0184535D01*
X0019822Y0184704D01*
X0019919Y0184871D01*
X0020021Y0185036D01*
X0020126Y0185198D01*
X0020235Y0185357D01*
X0020349Y0185514D01*
X0020466Y0185667D01*
X0020586Y0185818D01*
X0020711Y0185966D01*
X0020839Y0186111D01*
X0020970Y0186252D01*
X0021105Y0186391D01*
X0021244Y0186526D01*
X0021385Y0186657D01*
X0021530Y0186785D01*
X0021678Y0186910D01*
X0021829Y0187030D01*
X0021982Y0187147D01*
X0022139Y0187261D01*
X0022298Y0187370D01*
X0022460Y0187475D01*
X0022625Y0187577D01*
X0022792Y0187674D01*
X0022961Y0187767D01*
X0023133Y0187856D01*
X0023306Y0187941D01*
X0023482Y0188021D01*
X0023660Y0188098D01*
X0023839Y0188169D01*
X0024020Y0188237D01*
X0024203Y0188300D01*
X0024387Y0188358D01*
X0024573Y0188412D01*
X0024760Y0188461D01*
X0024948Y0188506D01*
X0025137Y0188546D01*
X0025327Y0188581D01*
X0025518Y0188612D01*
X0025709Y0188638D01*
X0025901Y0188659D01*
X0026094Y0188676D01*
X0026287Y0188688D01*
X0026480Y0188695D01*
X0026673Y0188697D01*
X0026866Y0188695D01*
X0027059Y0188688D01*
X0027252Y0188676D01*
X0027445Y0188659D01*
X0027637Y0188638D01*
X0027828Y0188612D01*
X0028019Y0188581D01*
X0028209Y0188546D01*
X0028398Y0188506D01*
X0028586Y0188461D01*
X0028773Y0188412D01*
X0028959Y0188358D01*
X0029143Y0188300D01*
X0029326Y0188237D01*
X0029507Y0188169D01*
X0029686Y0188098D01*
X0029864Y0188021D01*
X0030040Y0187941D01*
X0030213Y0187856D01*
X0030385Y0187767D01*
X0030554Y0187674D01*
X0030721Y0187577D01*
X0030886Y0187475D01*
X0031048Y0187370D01*
X0031207Y0187261D01*
X0031364Y0187147D01*
X0031517Y0187030D01*
X0031668Y0186910D01*
X0031816Y0186785D01*
X0031961Y0186657D01*
X0032102Y0186526D01*
X0032241Y0186391D01*
X0032376Y0186252D01*
X0032507Y0186111D01*
X0032635Y0185966D01*
X0032760Y0185818D01*
X0032880Y0185667D01*
X0032997Y0185514D01*
X0033111Y0185357D01*
X0033220Y0185198D01*
X0033325Y0185036D01*
X0033427Y0184871D01*
X0033524Y0184704D01*
X0033617Y0184535D01*
X0033706Y0184363D01*
X0033791Y0184190D01*
X0033871Y0184014D01*
X0033948Y0183836D01*
X0034019Y0183657D01*
X0034087Y0183476D01*
X0034150Y0183293D01*
X0034208Y0183109D01*
X0034262Y0182923D01*
X0034311Y0182736D01*
X0034356Y0182548D01*
X0034396Y0182359D01*
X0034431Y0182169D01*
X0034462Y0181978D01*
X0034488Y0181787D01*
X0034509Y0181595D01*
X0034526Y0181402D01*
X0034538Y0181209D01*
X0034545Y0181016D01*
X0034547Y0180823D01*
X0034545Y0180630D01*
X0034538Y0180437D01*
X0034526Y0180244D01*
X0034509Y0180051D01*
X0034488Y0179859D01*
X0034462Y0179668D01*
X0034431Y0179477D01*
X0034396Y0179287D01*
X0034356Y0179098D01*
X0034311Y0178910D01*
X0034262Y0178723D01*
X0034208Y0178537D01*
X0034150Y0178353D01*
X0034087Y0178170D01*
X0034019Y0177989D01*
X0033948Y0177810D01*
X0033871Y0177632D01*
X0033791Y0177456D01*
X0033706Y0177283D01*
X0033617Y0177111D01*
X0033524Y0176942D01*
X0033427Y0176775D01*
X0033325Y0176610D01*
X0033220Y0176448D01*
X0033111Y0176289D01*
X0032997Y0176132D01*
X0032880Y0175979D01*
X0032760Y0175828D01*
X0032635Y0175680D01*
X0032507Y0175535D01*
X0032376Y0175394D01*
X0032241Y0175255D01*
X0032102Y0175120D01*
X0031961Y0174989D01*
X0031816Y0174861D01*
X0031668Y0174736D01*
X0031517Y0174616D01*
X0031364Y0174499D01*
X0031207Y0174385D01*
X0031048Y0174276D01*
X0030886Y0174171D01*
X0030721Y0174069D01*
X0030554Y0173972D01*
X0030385Y0173879D01*
X0030213Y0173790D01*
X0030040Y0173705D01*
X0029864Y0173625D01*
X0029686Y0173548D01*
X0029507Y0173477D01*
X0029326Y0173409D01*
X0029143Y0173346D01*
X0028959Y0173288D01*
X0028773Y0173234D01*
X0028586Y0173185D01*
X0028398Y0173140D01*
X0028209Y0173100D01*
X0028019Y0173065D01*
X0027828Y0173034D01*
X0027637Y0173008D01*
X0027445Y0172987D01*
X0027252Y0172970D01*
X0027059Y0172958D01*
X0026866Y0172951D01*
X0026673Y0172949D01*
X0026480Y0172951D01*
X0026287Y0172958D01*
X0026094Y0172970D01*
X0025901Y0172987D01*
X0025709Y0173008D01*
X0025518Y0173034D01*
X0025327Y0173065D01*
X0025137Y0173100D01*
X0024948Y0173140D01*
X0024760Y0173185D01*
X0024573Y0173234D01*
X0024387Y0173288D01*
X0024203Y0173346D01*
X0024020Y0173409D01*
X0023839Y0173477D01*
X0023660Y0173548D01*
X0023482Y0173625D01*
X0023306Y0173705D01*
X0023133Y0173790D01*
X0022961Y0173879D01*
X0022792Y0173972D01*
X0022625Y0174069D01*
X0022460Y0174171D01*
X0022298Y0174276D01*
X0022139Y0174385D01*
X0021982Y0174499D01*
X0021829Y0174616D01*
X0021678Y0174736D01*
X0021530Y0174861D01*
X0021385Y0174989D01*
X0021244Y0175120D01*
X0021105Y0175255D01*
X0020970Y0175394D01*
X0020839Y0175535D01*
X0020711Y0175680D01*
X0020586Y0175828D01*
X0020466Y0175979D01*
X0020349Y0176132D01*
X0020235Y0176289D01*
X0020126Y0176448D01*
X0020021Y0176610D01*
X0019919Y0176775D01*
X0019822Y0176942D01*
X0019729Y0177111D01*
X0019640Y0177283D01*
X0019555Y0177456D01*
X0019475Y0177632D01*
X0019398Y0177810D01*
X0019327Y0177989D01*
X0019259Y0178170D01*
X0019196Y0178353D01*
X0019138Y0178537D01*
X0019084Y0178723D01*
X0019035Y0178910D01*
X0018990Y0179098D01*
X0018950Y0179287D01*
X0018915Y0179477D01*
X0018884Y0179668D01*
X0018858Y0179859D01*
X0018837Y0180051D01*
X0018820Y0180244D01*
X0018808Y0180437D01*
X0018801Y0180630D01*
X0018799Y0180823D01*
X0018110Y0238008D02*
X0018112Y0238201D01*
X0018119Y0238394D01*
X0018131Y0238587D01*
X0018148Y0238780D01*
X0018169Y0238972D01*
X0018195Y0239163D01*
X0018226Y0239354D01*
X0018261Y0239544D01*
X0018301Y0239733D01*
X0018346Y0239921D01*
X0018395Y0240108D01*
X0018449Y0240294D01*
X0018507Y0240478D01*
X0018570Y0240661D01*
X0018638Y0240842D01*
X0018709Y0241021D01*
X0018786Y0241199D01*
X0018866Y0241375D01*
X0018951Y0241548D01*
X0019040Y0241720D01*
X0019133Y0241889D01*
X0019230Y0242056D01*
X0019332Y0242221D01*
X0019437Y0242383D01*
X0019546Y0242542D01*
X0019660Y0242699D01*
X0019777Y0242852D01*
X0019897Y0243003D01*
X0020022Y0243151D01*
X0020150Y0243296D01*
X0020281Y0243437D01*
X0020416Y0243576D01*
X0020555Y0243711D01*
X0020696Y0243842D01*
X0020841Y0243970D01*
X0020989Y0244095D01*
X0021140Y0244215D01*
X0021293Y0244332D01*
X0021450Y0244446D01*
X0021609Y0244555D01*
X0021771Y0244660D01*
X0021936Y0244762D01*
X0022103Y0244859D01*
X0022272Y0244952D01*
X0022444Y0245041D01*
X0022617Y0245126D01*
X0022793Y0245206D01*
X0022971Y0245283D01*
X0023150Y0245354D01*
X0023331Y0245422D01*
X0023514Y0245485D01*
X0023698Y0245543D01*
X0023884Y0245597D01*
X0024071Y0245646D01*
X0024259Y0245691D01*
X0024448Y0245731D01*
X0024638Y0245766D01*
X0024829Y0245797D01*
X0025020Y0245823D01*
X0025212Y0245844D01*
X0025405Y0245861D01*
X0025598Y0245873D01*
X0025791Y0245880D01*
X0025984Y0245882D01*
X0026177Y0245880D01*
X0026370Y0245873D01*
X0026563Y0245861D01*
X0026756Y0245844D01*
X0026948Y0245823D01*
X0027139Y0245797D01*
X0027330Y0245766D01*
X0027520Y0245731D01*
X0027709Y0245691D01*
X0027897Y0245646D01*
X0028084Y0245597D01*
X0028270Y0245543D01*
X0028454Y0245485D01*
X0028637Y0245422D01*
X0028818Y0245354D01*
X0028997Y0245283D01*
X0029175Y0245206D01*
X0029351Y0245126D01*
X0029524Y0245041D01*
X0029696Y0244952D01*
X0029865Y0244859D01*
X0030032Y0244762D01*
X0030197Y0244660D01*
X0030359Y0244555D01*
X0030518Y0244446D01*
X0030675Y0244332D01*
X0030828Y0244215D01*
X0030979Y0244095D01*
X0031127Y0243970D01*
X0031272Y0243842D01*
X0031413Y0243711D01*
X0031552Y0243576D01*
X0031687Y0243437D01*
X0031818Y0243296D01*
X0031946Y0243151D01*
X0032071Y0243003D01*
X0032191Y0242852D01*
X0032308Y0242699D01*
X0032422Y0242542D01*
X0032531Y0242383D01*
X0032636Y0242221D01*
X0032738Y0242056D01*
X0032835Y0241889D01*
X0032928Y0241720D01*
X0033017Y0241548D01*
X0033102Y0241375D01*
X0033182Y0241199D01*
X0033259Y0241021D01*
X0033330Y0240842D01*
X0033398Y0240661D01*
X0033461Y0240478D01*
X0033519Y0240294D01*
X0033573Y0240108D01*
X0033622Y0239921D01*
X0033667Y0239733D01*
X0033707Y0239544D01*
X0033742Y0239354D01*
X0033773Y0239163D01*
X0033799Y0238972D01*
X0033820Y0238780D01*
X0033837Y0238587D01*
X0033849Y0238394D01*
X0033856Y0238201D01*
X0033858Y0238008D01*
X0033856Y0237815D01*
X0033849Y0237622D01*
X0033837Y0237429D01*
X0033820Y0237236D01*
X0033799Y0237044D01*
X0033773Y0236853D01*
X0033742Y0236662D01*
X0033707Y0236472D01*
X0033667Y0236283D01*
X0033622Y0236095D01*
X0033573Y0235908D01*
X0033519Y0235722D01*
X0033461Y0235538D01*
X0033398Y0235355D01*
X0033330Y0235174D01*
X0033259Y0234995D01*
X0033182Y0234817D01*
X0033102Y0234641D01*
X0033017Y0234468D01*
X0032928Y0234296D01*
X0032835Y0234127D01*
X0032738Y0233960D01*
X0032636Y0233795D01*
X0032531Y0233633D01*
X0032422Y0233474D01*
X0032308Y0233317D01*
X0032191Y0233164D01*
X0032071Y0233013D01*
X0031946Y0232865D01*
X0031818Y0232720D01*
X0031687Y0232579D01*
X0031552Y0232440D01*
X0031413Y0232305D01*
X0031272Y0232174D01*
X0031127Y0232046D01*
X0030979Y0231921D01*
X0030828Y0231801D01*
X0030675Y0231684D01*
X0030518Y0231570D01*
X0030359Y0231461D01*
X0030197Y0231356D01*
X0030032Y0231254D01*
X0029865Y0231157D01*
X0029696Y0231064D01*
X0029524Y0230975D01*
X0029351Y0230890D01*
X0029175Y0230810D01*
X0028997Y0230733D01*
X0028818Y0230662D01*
X0028637Y0230594D01*
X0028454Y0230531D01*
X0028270Y0230473D01*
X0028084Y0230419D01*
X0027897Y0230370D01*
X0027709Y0230325D01*
X0027520Y0230285D01*
X0027330Y0230250D01*
X0027139Y0230219D01*
X0026948Y0230193D01*
X0026756Y0230172D01*
X0026563Y0230155D01*
X0026370Y0230143D01*
X0026177Y0230136D01*
X0025984Y0230134D01*
X0025791Y0230136D01*
X0025598Y0230143D01*
X0025405Y0230155D01*
X0025212Y0230172D01*
X0025020Y0230193D01*
X0024829Y0230219D01*
X0024638Y0230250D01*
X0024448Y0230285D01*
X0024259Y0230325D01*
X0024071Y0230370D01*
X0023884Y0230419D01*
X0023698Y0230473D01*
X0023514Y0230531D01*
X0023331Y0230594D01*
X0023150Y0230662D01*
X0022971Y0230733D01*
X0022793Y0230810D01*
X0022617Y0230890D01*
X0022444Y0230975D01*
X0022272Y0231064D01*
X0022103Y0231157D01*
X0021936Y0231254D01*
X0021771Y0231356D01*
X0021609Y0231461D01*
X0021450Y0231570D01*
X0021293Y0231684D01*
X0021140Y0231801D01*
X0020989Y0231921D01*
X0020841Y0232046D01*
X0020696Y0232174D01*
X0020555Y0232305D01*
X0020416Y0232440D01*
X0020281Y0232579D01*
X0020150Y0232720D01*
X0020022Y0232865D01*
X0019897Y0233013D01*
X0019777Y0233164D01*
X0019660Y0233317D01*
X0019546Y0233474D01*
X0019437Y0233633D01*
X0019332Y0233795D01*
X0019230Y0233960D01*
X0019133Y0234127D01*
X0019040Y0234296D01*
X0018951Y0234468D01*
X0018866Y0234641D01*
X0018786Y0234817D01*
X0018709Y0234995D01*
X0018638Y0235174D01*
X0018570Y0235355D01*
X0018507Y0235538D01*
X0018449Y0235722D01*
X0018395Y0235908D01*
X0018346Y0236095D01*
X0018301Y0236283D01*
X0018261Y0236472D01*
X0018226Y0236662D01*
X0018195Y0236853D01*
X0018169Y0237044D01*
X0018148Y0237236D01*
X0018131Y0237429D01*
X0018119Y0237622D01*
X0018112Y0237815D01*
X0018110Y0238008D01*
X0013657Y0275902D02*
X0013659Y0276063D01*
X0013665Y0276223D01*
X0013675Y0276384D01*
X0013689Y0276544D01*
X0013707Y0276704D01*
X0013728Y0276863D01*
X0013754Y0277022D01*
X0013784Y0277180D01*
X0013817Y0277337D01*
X0013855Y0277494D01*
X0013896Y0277649D01*
X0013941Y0277803D01*
X0013990Y0277956D01*
X0014043Y0278108D01*
X0014099Y0278259D01*
X0014160Y0278408D01*
X0014223Y0278556D01*
X0014291Y0278702D01*
X0014362Y0278846D01*
X0014436Y0278988D01*
X0014514Y0279129D01*
X0014596Y0279267D01*
X0014681Y0279404D01*
X0014769Y0279538D01*
X0014861Y0279670D01*
X0014956Y0279800D01*
X0015054Y0279928D01*
X0015155Y0280053D01*
X0015259Y0280175D01*
X0015366Y0280295D01*
X0015476Y0280412D01*
X0015589Y0280527D01*
X0015705Y0280638D01*
X0015824Y0280747D01*
X0015945Y0280852D01*
X0016069Y0280955D01*
X0016195Y0281055D01*
X0016323Y0281151D01*
X0016454Y0281244D01*
X0016588Y0281334D01*
X0016723Y0281421D01*
X0016861Y0281504D01*
X0017000Y0281584D01*
X0017142Y0281660D01*
X0017285Y0281733D01*
X0017430Y0281802D01*
X0017577Y0281868D01*
X0017725Y0281930D01*
X0017875Y0281988D01*
X0018026Y0282043D01*
X0018179Y0282094D01*
X0018333Y0282141D01*
X0018488Y0282184D01*
X0018644Y0282223D01*
X0018800Y0282259D01*
X0018958Y0282290D01*
X0019116Y0282318D01*
X0019275Y0282342D01*
X0019435Y0282362D01*
X0019595Y0282378D01*
X0019755Y0282390D01*
X0019916Y0282398D01*
X0020077Y0282402D01*
X0020237Y0282402D01*
X0020398Y0282398D01*
X0020559Y0282390D01*
X0020719Y0282378D01*
X0020879Y0282362D01*
X0021039Y0282342D01*
X0021198Y0282318D01*
X0021356Y0282290D01*
X0021514Y0282259D01*
X0021670Y0282223D01*
X0021826Y0282184D01*
X0021981Y0282141D01*
X0022135Y0282094D01*
X0022288Y0282043D01*
X0022439Y0281988D01*
X0022589Y0281930D01*
X0022737Y0281868D01*
X0022884Y0281802D01*
X0023029Y0281733D01*
X0023172Y0281660D01*
X0023314Y0281584D01*
X0023453Y0281504D01*
X0023591Y0281421D01*
X0023726Y0281334D01*
X0023860Y0281244D01*
X0023991Y0281151D01*
X0024119Y0281055D01*
X0024245Y0280955D01*
X0024369Y0280852D01*
X0024490Y0280747D01*
X0024609Y0280638D01*
X0024725Y0280527D01*
X0024838Y0280412D01*
X0024948Y0280295D01*
X0025055Y0280175D01*
X0025159Y0280053D01*
X0025260Y0279928D01*
X0025358Y0279800D01*
X0025453Y0279670D01*
X0025545Y0279538D01*
X0025633Y0279404D01*
X0025718Y0279267D01*
X0025800Y0279129D01*
X0025878Y0278988D01*
X0025952Y0278846D01*
X0026023Y0278702D01*
X0026091Y0278556D01*
X0026154Y0278408D01*
X0026215Y0278259D01*
X0026271Y0278108D01*
X0026324Y0277956D01*
X0026373Y0277803D01*
X0026418Y0277649D01*
X0026459Y0277494D01*
X0026497Y0277337D01*
X0026530Y0277180D01*
X0026560Y0277022D01*
X0026586Y0276863D01*
X0026607Y0276704D01*
X0026625Y0276544D01*
X0026639Y0276384D01*
X0026649Y0276223D01*
X0026655Y0276063D01*
X0026657Y0275902D01*
X0026655Y0275741D01*
X0026649Y0275581D01*
X0026639Y0275420D01*
X0026625Y0275260D01*
X0026607Y0275100D01*
X0026586Y0274941D01*
X0026560Y0274782D01*
X0026530Y0274624D01*
X0026497Y0274467D01*
X0026459Y0274310D01*
X0026418Y0274155D01*
X0026373Y0274001D01*
X0026324Y0273848D01*
X0026271Y0273696D01*
X0026215Y0273545D01*
X0026154Y0273396D01*
X0026091Y0273248D01*
X0026023Y0273102D01*
X0025952Y0272958D01*
X0025878Y0272816D01*
X0025800Y0272675D01*
X0025718Y0272537D01*
X0025633Y0272400D01*
X0025545Y0272266D01*
X0025453Y0272134D01*
X0025358Y0272004D01*
X0025260Y0271876D01*
X0025159Y0271751D01*
X0025055Y0271629D01*
X0024948Y0271509D01*
X0024838Y0271392D01*
X0024725Y0271277D01*
X0024609Y0271166D01*
X0024490Y0271057D01*
X0024369Y0270952D01*
X0024245Y0270849D01*
X0024119Y0270749D01*
X0023991Y0270653D01*
X0023860Y0270560D01*
X0023726Y0270470D01*
X0023591Y0270383D01*
X0023453Y0270300D01*
X0023314Y0270220D01*
X0023172Y0270144D01*
X0023029Y0270071D01*
X0022884Y0270002D01*
X0022737Y0269936D01*
X0022589Y0269874D01*
X0022439Y0269816D01*
X0022288Y0269761D01*
X0022135Y0269710D01*
X0021981Y0269663D01*
X0021826Y0269620D01*
X0021670Y0269581D01*
X0021514Y0269545D01*
X0021356Y0269514D01*
X0021198Y0269486D01*
X0021039Y0269462D01*
X0020879Y0269442D01*
X0020719Y0269426D01*
X0020559Y0269414D01*
X0020398Y0269406D01*
X0020237Y0269402D01*
X0020077Y0269402D01*
X0019916Y0269406D01*
X0019755Y0269414D01*
X0019595Y0269426D01*
X0019435Y0269442D01*
X0019275Y0269462D01*
X0019116Y0269486D01*
X0018958Y0269514D01*
X0018800Y0269545D01*
X0018644Y0269581D01*
X0018488Y0269620D01*
X0018333Y0269663D01*
X0018179Y0269710D01*
X0018026Y0269761D01*
X0017875Y0269816D01*
X0017725Y0269874D01*
X0017577Y0269936D01*
X0017430Y0270002D01*
X0017285Y0270071D01*
X0017142Y0270144D01*
X0017000Y0270220D01*
X0016861Y0270300D01*
X0016723Y0270383D01*
X0016588Y0270470D01*
X0016454Y0270560D01*
X0016323Y0270653D01*
X0016195Y0270749D01*
X0016069Y0270849D01*
X0015945Y0270952D01*
X0015824Y0271057D01*
X0015705Y0271166D01*
X0015589Y0271277D01*
X0015476Y0271392D01*
X0015366Y0271509D01*
X0015259Y0271629D01*
X0015155Y0271751D01*
X0015054Y0271876D01*
X0014956Y0272004D01*
X0014861Y0272134D01*
X0014769Y0272266D01*
X0014681Y0272400D01*
X0014596Y0272537D01*
X0014514Y0272675D01*
X0014436Y0272816D01*
X0014362Y0272958D01*
X0014291Y0273102D01*
X0014223Y0273248D01*
X0014160Y0273396D01*
X0014099Y0273545D01*
X0014043Y0273696D01*
X0013990Y0273848D01*
X0013941Y0274001D01*
X0013896Y0274155D01*
X0013855Y0274310D01*
X0013817Y0274467D01*
X0013784Y0274624D01*
X0013754Y0274782D01*
X0013728Y0274941D01*
X0013707Y0275100D01*
X0013689Y0275260D01*
X0013675Y0275420D01*
X0013665Y0275581D01*
X0013659Y0275741D01*
X0013657Y0275902D01*
X0215098Y0178421D02*
X0215100Y0178581D01*
X0215106Y0178740D01*
X0215116Y0178899D01*
X0215130Y0179058D01*
X0215148Y0179217D01*
X0215169Y0179375D01*
X0215195Y0179532D01*
X0215225Y0179689D01*
X0215258Y0179845D01*
X0215296Y0180000D01*
X0215337Y0180154D01*
X0215382Y0180307D01*
X0215431Y0180459D01*
X0215484Y0180609D01*
X0215540Y0180758D01*
X0215600Y0180906D01*
X0215664Y0181052D01*
X0215732Y0181197D01*
X0215803Y0181340D01*
X0215877Y0181481D01*
X0215955Y0181620D01*
X0216037Y0181757D01*
X0216122Y0181892D01*
X0216210Y0182025D01*
X0216301Y0182156D01*
X0216396Y0182284D01*
X0216494Y0182410D01*
X0216595Y0182534D01*
X0216699Y0182654D01*
X0216806Y0182773D01*
X0216916Y0182888D01*
X0217029Y0183001D01*
X0217144Y0183111D01*
X0217263Y0183218D01*
X0217383Y0183322D01*
X0217507Y0183423D01*
X0217633Y0183521D01*
X0217761Y0183616D01*
X0217892Y0183707D01*
X0218025Y0183795D01*
X0218160Y0183880D01*
X0218297Y0183962D01*
X0218436Y0184040D01*
X0218577Y0184114D01*
X0218720Y0184185D01*
X0218865Y0184253D01*
X0219011Y0184317D01*
X0219159Y0184377D01*
X0219308Y0184433D01*
X0219458Y0184486D01*
X0219610Y0184535D01*
X0219763Y0184580D01*
X0219917Y0184621D01*
X0220072Y0184659D01*
X0220228Y0184692D01*
X0220385Y0184722D01*
X0220542Y0184748D01*
X0220700Y0184769D01*
X0220859Y0184787D01*
X0221018Y0184801D01*
X0221177Y0184811D01*
X0221336Y0184817D01*
X0221496Y0184819D01*
X0221656Y0184817D01*
X0221815Y0184811D01*
X0221974Y0184801D01*
X0222133Y0184787D01*
X0222292Y0184769D01*
X0222450Y0184748D01*
X0222607Y0184722D01*
X0222764Y0184692D01*
X0222920Y0184659D01*
X0223075Y0184621D01*
X0223229Y0184580D01*
X0223382Y0184535D01*
X0223534Y0184486D01*
X0223684Y0184433D01*
X0223833Y0184377D01*
X0223981Y0184317D01*
X0224127Y0184253D01*
X0224272Y0184185D01*
X0224415Y0184114D01*
X0224556Y0184040D01*
X0224695Y0183962D01*
X0224832Y0183880D01*
X0224967Y0183795D01*
X0225100Y0183707D01*
X0225231Y0183616D01*
X0225359Y0183521D01*
X0225485Y0183423D01*
X0225609Y0183322D01*
X0225729Y0183218D01*
X0225848Y0183111D01*
X0225963Y0183001D01*
X0226076Y0182888D01*
X0226186Y0182773D01*
X0226293Y0182654D01*
X0226397Y0182534D01*
X0226498Y0182410D01*
X0226596Y0182284D01*
X0226691Y0182156D01*
X0226782Y0182025D01*
X0226870Y0181892D01*
X0226955Y0181757D01*
X0227037Y0181620D01*
X0227115Y0181481D01*
X0227189Y0181340D01*
X0227260Y0181197D01*
X0227328Y0181052D01*
X0227392Y0180906D01*
X0227452Y0180758D01*
X0227508Y0180609D01*
X0227561Y0180459D01*
X0227610Y0180307D01*
X0227655Y0180154D01*
X0227696Y0180000D01*
X0227734Y0179845D01*
X0227767Y0179689D01*
X0227797Y0179532D01*
X0227823Y0179375D01*
X0227844Y0179217D01*
X0227862Y0179058D01*
X0227876Y0178899D01*
X0227886Y0178740D01*
X0227892Y0178581D01*
X0227894Y0178421D01*
X0227892Y0178261D01*
X0227886Y0178102D01*
X0227876Y0177943D01*
X0227862Y0177784D01*
X0227844Y0177625D01*
X0227823Y0177467D01*
X0227797Y0177310D01*
X0227767Y0177153D01*
X0227734Y0176997D01*
X0227696Y0176842D01*
X0227655Y0176688D01*
X0227610Y0176535D01*
X0227561Y0176383D01*
X0227508Y0176233D01*
X0227452Y0176084D01*
X0227392Y0175936D01*
X0227328Y0175790D01*
X0227260Y0175645D01*
X0227189Y0175502D01*
X0227115Y0175361D01*
X0227037Y0175222D01*
X0226955Y0175085D01*
X0226870Y0174950D01*
X0226782Y0174817D01*
X0226691Y0174686D01*
X0226596Y0174558D01*
X0226498Y0174432D01*
X0226397Y0174308D01*
X0226293Y0174188D01*
X0226186Y0174069D01*
X0226076Y0173954D01*
X0225963Y0173841D01*
X0225848Y0173731D01*
X0225729Y0173624D01*
X0225609Y0173520D01*
X0225485Y0173419D01*
X0225359Y0173321D01*
X0225231Y0173226D01*
X0225100Y0173135D01*
X0224967Y0173047D01*
X0224832Y0172962D01*
X0224695Y0172880D01*
X0224556Y0172802D01*
X0224415Y0172728D01*
X0224272Y0172657D01*
X0224127Y0172589D01*
X0223981Y0172525D01*
X0223833Y0172465D01*
X0223684Y0172409D01*
X0223534Y0172356D01*
X0223382Y0172307D01*
X0223229Y0172262D01*
X0223075Y0172221D01*
X0222920Y0172183D01*
X0222764Y0172150D01*
X0222607Y0172120D01*
X0222450Y0172094D01*
X0222292Y0172073D01*
X0222133Y0172055D01*
X0221974Y0172041D01*
X0221815Y0172031D01*
X0221656Y0172025D01*
X0221496Y0172023D01*
X0221336Y0172025D01*
X0221177Y0172031D01*
X0221018Y0172041D01*
X0220859Y0172055D01*
X0220700Y0172073D01*
X0220542Y0172094D01*
X0220385Y0172120D01*
X0220228Y0172150D01*
X0220072Y0172183D01*
X0219917Y0172221D01*
X0219763Y0172262D01*
X0219610Y0172307D01*
X0219458Y0172356D01*
X0219308Y0172409D01*
X0219159Y0172465D01*
X0219011Y0172525D01*
X0218865Y0172589D01*
X0218720Y0172657D01*
X0218577Y0172728D01*
X0218436Y0172802D01*
X0218297Y0172880D01*
X0218160Y0172962D01*
X0218025Y0173047D01*
X0217892Y0173135D01*
X0217761Y0173226D01*
X0217633Y0173321D01*
X0217507Y0173419D01*
X0217383Y0173520D01*
X0217263Y0173624D01*
X0217144Y0173731D01*
X0217029Y0173841D01*
X0216916Y0173954D01*
X0216806Y0174069D01*
X0216699Y0174188D01*
X0216595Y0174308D01*
X0216494Y0174432D01*
X0216396Y0174558D01*
X0216301Y0174686D01*
X0216210Y0174817D01*
X0216122Y0174950D01*
X0216037Y0175085D01*
X0215955Y0175222D01*
X0215877Y0175361D01*
X0215803Y0175502D01*
X0215732Y0175645D01*
X0215664Y0175790D01*
X0215600Y0175936D01*
X0215540Y0176084D01*
X0215484Y0176233D01*
X0215431Y0176383D01*
X0215382Y0176535D01*
X0215337Y0176688D01*
X0215296Y0176842D01*
X0215258Y0176997D01*
X0215225Y0177153D01*
X0215195Y0177310D01*
X0215169Y0177467D01*
X0215148Y0177625D01*
X0215130Y0177784D01*
X0215116Y0177943D01*
X0215106Y0178102D01*
X0215100Y0178261D01*
X0215098Y0178421D01*
X0215098Y0128421D02*
X0215100Y0128581D01*
X0215106Y0128740D01*
X0215116Y0128899D01*
X0215130Y0129058D01*
X0215148Y0129217D01*
X0215169Y0129375D01*
X0215195Y0129532D01*
X0215225Y0129689D01*
X0215258Y0129845D01*
X0215296Y0130000D01*
X0215337Y0130154D01*
X0215382Y0130307D01*
X0215431Y0130459D01*
X0215484Y0130609D01*
X0215540Y0130758D01*
X0215600Y0130906D01*
X0215664Y0131052D01*
X0215732Y0131197D01*
X0215803Y0131340D01*
X0215877Y0131481D01*
X0215955Y0131620D01*
X0216037Y0131757D01*
X0216122Y0131892D01*
X0216210Y0132025D01*
X0216301Y0132156D01*
X0216396Y0132284D01*
X0216494Y0132410D01*
X0216595Y0132534D01*
X0216699Y0132654D01*
X0216806Y0132773D01*
X0216916Y0132888D01*
X0217029Y0133001D01*
X0217144Y0133111D01*
X0217263Y0133218D01*
X0217383Y0133322D01*
X0217507Y0133423D01*
X0217633Y0133521D01*
X0217761Y0133616D01*
X0217892Y0133707D01*
X0218025Y0133795D01*
X0218160Y0133880D01*
X0218297Y0133962D01*
X0218436Y0134040D01*
X0218577Y0134114D01*
X0218720Y0134185D01*
X0218865Y0134253D01*
X0219011Y0134317D01*
X0219159Y0134377D01*
X0219308Y0134433D01*
X0219458Y0134486D01*
X0219610Y0134535D01*
X0219763Y0134580D01*
X0219917Y0134621D01*
X0220072Y0134659D01*
X0220228Y0134692D01*
X0220385Y0134722D01*
X0220542Y0134748D01*
X0220700Y0134769D01*
X0220859Y0134787D01*
X0221018Y0134801D01*
X0221177Y0134811D01*
X0221336Y0134817D01*
X0221496Y0134819D01*
X0221656Y0134817D01*
X0221815Y0134811D01*
X0221974Y0134801D01*
X0222133Y0134787D01*
X0222292Y0134769D01*
X0222450Y0134748D01*
X0222607Y0134722D01*
X0222764Y0134692D01*
X0222920Y0134659D01*
X0223075Y0134621D01*
X0223229Y0134580D01*
X0223382Y0134535D01*
X0223534Y0134486D01*
X0223684Y0134433D01*
X0223833Y0134377D01*
X0223981Y0134317D01*
X0224127Y0134253D01*
X0224272Y0134185D01*
X0224415Y0134114D01*
X0224556Y0134040D01*
X0224695Y0133962D01*
X0224832Y0133880D01*
X0224967Y0133795D01*
X0225100Y0133707D01*
X0225231Y0133616D01*
X0225359Y0133521D01*
X0225485Y0133423D01*
X0225609Y0133322D01*
X0225729Y0133218D01*
X0225848Y0133111D01*
X0225963Y0133001D01*
X0226076Y0132888D01*
X0226186Y0132773D01*
X0226293Y0132654D01*
X0226397Y0132534D01*
X0226498Y0132410D01*
X0226596Y0132284D01*
X0226691Y0132156D01*
X0226782Y0132025D01*
X0226870Y0131892D01*
X0226955Y0131757D01*
X0227037Y0131620D01*
X0227115Y0131481D01*
X0227189Y0131340D01*
X0227260Y0131197D01*
X0227328Y0131052D01*
X0227392Y0130906D01*
X0227452Y0130758D01*
X0227508Y0130609D01*
X0227561Y0130459D01*
X0227610Y0130307D01*
X0227655Y0130154D01*
X0227696Y0130000D01*
X0227734Y0129845D01*
X0227767Y0129689D01*
X0227797Y0129532D01*
X0227823Y0129375D01*
X0227844Y0129217D01*
X0227862Y0129058D01*
X0227876Y0128899D01*
X0227886Y0128740D01*
X0227892Y0128581D01*
X0227894Y0128421D01*
X0227892Y0128261D01*
X0227886Y0128102D01*
X0227876Y0127943D01*
X0227862Y0127784D01*
X0227844Y0127625D01*
X0227823Y0127467D01*
X0227797Y0127310D01*
X0227767Y0127153D01*
X0227734Y0126997D01*
X0227696Y0126842D01*
X0227655Y0126688D01*
X0227610Y0126535D01*
X0227561Y0126383D01*
X0227508Y0126233D01*
X0227452Y0126084D01*
X0227392Y0125936D01*
X0227328Y0125790D01*
X0227260Y0125645D01*
X0227189Y0125502D01*
X0227115Y0125361D01*
X0227037Y0125222D01*
X0226955Y0125085D01*
X0226870Y0124950D01*
X0226782Y0124817D01*
X0226691Y0124686D01*
X0226596Y0124558D01*
X0226498Y0124432D01*
X0226397Y0124308D01*
X0226293Y0124188D01*
X0226186Y0124069D01*
X0226076Y0123954D01*
X0225963Y0123841D01*
X0225848Y0123731D01*
X0225729Y0123624D01*
X0225609Y0123520D01*
X0225485Y0123419D01*
X0225359Y0123321D01*
X0225231Y0123226D01*
X0225100Y0123135D01*
X0224967Y0123047D01*
X0224832Y0122962D01*
X0224695Y0122880D01*
X0224556Y0122802D01*
X0224415Y0122728D01*
X0224272Y0122657D01*
X0224127Y0122589D01*
X0223981Y0122525D01*
X0223833Y0122465D01*
X0223684Y0122409D01*
X0223534Y0122356D01*
X0223382Y0122307D01*
X0223229Y0122262D01*
X0223075Y0122221D01*
X0222920Y0122183D01*
X0222764Y0122150D01*
X0222607Y0122120D01*
X0222450Y0122094D01*
X0222292Y0122073D01*
X0222133Y0122055D01*
X0221974Y0122041D01*
X0221815Y0122031D01*
X0221656Y0122025D01*
X0221496Y0122023D01*
X0221336Y0122025D01*
X0221177Y0122031D01*
X0221018Y0122041D01*
X0220859Y0122055D01*
X0220700Y0122073D01*
X0220542Y0122094D01*
X0220385Y0122120D01*
X0220228Y0122150D01*
X0220072Y0122183D01*
X0219917Y0122221D01*
X0219763Y0122262D01*
X0219610Y0122307D01*
X0219458Y0122356D01*
X0219308Y0122409D01*
X0219159Y0122465D01*
X0219011Y0122525D01*
X0218865Y0122589D01*
X0218720Y0122657D01*
X0218577Y0122728D01*
X0218436Y0122802D01*
X0218297Y0122880D01*
X0218160Y0122962D01*
X0218025Y0123047D01*
X0217892Y0123135D01*
X0217761Y0123226D01*
X0217633Y0123321D01*
X0217507Y0123419D01*
X0217383Y0123520D01*
X0217263Y0123624D01*
X0217144Y0123731D01*
X0217029Y0123841D01*
X0216916Y0123954D01*
X0216806Y0124069D01*
X0216699Y0124188D01*
X0216595Y0124308D01*
X0216494Y0124432D01*
X0216396Y0124558D01*
X0216301Y0124686D01*
X0216210Y0124817D01*
X0216122Y0124950D01*
X0216037Y0125085D01*
X0215955Y0125222D01*
X0215877Y0125361D01*
X0215803Y0125502D01*
X0215732Y0125645D01*
X0215664Y0125790D01*
X0215600Y0125936D01*
X0215540Y0126084D01*
X0215484Y0126233D01*
X0215431Y0126383D01*
X0215382Y0126535D01*
X0215337Y0126688D01*
X0215296Y0126842D01*
X0215258Y0126997D01*
X0215225Y0127153D01*
X0215195Y0127310D01*
X0215169Y0127467D01*
X0215148Y0127625D01*
X0215130Y0127784D01*
X0215116Y0127943D01*
X0215106Y0128102D01*
X0215100Y0128261D01*
X0215098Y0128421D01*
X0220350Y0014780D02*
X0220352Y0014941D01*
X0220358Y0015101D01*
X0220368Y0015262D01*
X0220382Y0015422D01*
X0220400Y0015582D01*
X0220421Y0015741D01*
X0220447Y0015900D01*
X0220477Y0016058D01*
X0220510Y0016215D01*
X0220548Y0016372D01*
X0220589Y0016527D01*
X0220634Y0016681D01*
X0220683Y0016834D01*
X0220736Y0016986D01*
X0220792Y0017137D01*
X0220853Y0017286D01*
X0220916Y0017434D01*
X0220984Y0017580D01*
X0221055Y0017724D01*
X0221129Y0017866D01*
X0221207Y0018007D01*
X0221289Y0018145D01*
X0221374Y0018282D01*
X0221462Y0018416D01*
X0221554Y0018548D01*
X0221649Y0018678D01*
X0221747Y0018806D01*
X0221848Y0018931D01*
X0221952Y0019053D01*
X0222059Y0019173D01*
X0222169Y0019290D01*
X0222282Y0019405D01*
X0222398Y0019516D01*
X0222517Y0019625D01*
X0222638Y0019730D01*
X0222762Y0019833D01*
X0222888Y0019933D01*
X0223016Y0020029D01*
X0223147Y0020122D01*
X0223281Y0020212D01*
X0223416Y0020299D01*
X0223554Y0020382D01*
X0223693Y0020462D01*
X0223835Y0020538D01*
X0223978Y0020611D01*
X0224123Y0020680D01*
X0224270Y0020746D01*
X0224418Y0020808D01*
X0224568Y0020866D01*
X0224719Y0020921D01*
X0224872Y0020972D01*
X0225026Y0021019D01*
X0225181Y0021062D01*
X0225337Y0021101D01*
X0225493Y0021137D01*
X0225651Y0021168D01*
X0225809Y0021196D01*
X0225968Y0021220D01*
X0226128Y0021240D01*
X0226288Y0021256D01*
X0226448Y0021268D01*
X0226609Y0021276D01*
X0226770Y0021280D01*
X0226930Y0021280D01*
X0227091Y0021276D01*
X0227252Y0021268D01*
X0227412Y0021256D01*
X0227572Y0021240D01*
X0227732Y0021220D01*
X0227891Y0021196D01*
X0228049Y0021168D01*
X0228207Y0021137D01*
X0228363Y0021101D01*
X0228519Y0021062D01*
X0228674Y0021019D01*
X0228828Y0020972D01*
X0228981Y0020921D01*
X0229132Y0020866D01*
X0229282Y0020808D01*
X0229430Y0020746D01*
X0229577Y0020680D01*
X0229722Y0020611D01*
X0229865Y0020538D01*
X0230007Y0020462D01*
X0230146Y0020382D01*
X0230284Y0020299D01*
X0230419Y0020212D01*
X0230553Y0020122D01*
X0230684Y0020029D01*
X0230812Y0019933D01*
X0230938Y0019833D01*
X0231062Y0019730D01*
X0231183Y0019625D01*
X0231302Y0019516D01*
X0231418Y0019405D01*
X0231531Y0019290D01*
X0231641Y0019173D01*
X0231748Y0019053D01*
X0231852Y0018931D01*
X0231953Y0018806D01*
X0232051Y0018678D01*
X0232146Y0018548D01*
X0232238Y0018416D01*
X0232326Y0018282D01*
X0232411Y0018145D01*
X0232493Y0018007D01*
X0232571Y0017866D01*
X0232645Y0017724D01*
X0232716Y0017580D01*
X0232784Y0017434D01*
X0232847Y0017286D01*
X0232908Y0017137D01*
X0232964Y0016986D01*
X0233017Y0016834D01*
X0233066Y0016681D01*
X0233111Y0016527D01*
X0233152Y0016372D01*
X0233190Y0016215D01*
X0233223Y0016058D01*
X0233253Y0015900D01*
X0233279Y0015741D01*
X0233300Y0015582D01*
X0233318Y0015422D01*
X0233332Y0015262D01*
X0233342Y0015101D01*
X0233348Y0014941D01*
X0233350Y0014780D01*
X0233348Y0014619D01*
X0233342Y0014459D01*
X0233332Y0014298D01*
X0233318Y0014138D01*
X0233300Y0013978D01*
X0233279Y0013819D01*
X0233253Y0013660D01*
X0233223Y0013502D01*
X0233190Y0013345D01*
X0233152Y0013188D01*
X0233111Y0013033D01*
X0233066Y0012879D01*
X0233017Y0012726D01*
X0232964Y0012574D01*
X0232908Y0012423D01*
X0232847Y0012274D01*
X0232784Y0012126D01*
X0232716Y0011980D01*
X0232645Y0011836D01*
X0232571Y0011694D01*
X0232493Y0011553D01*
X0232411Y0011415D01*
X0232326Y0011278D01*
X0232238Y0011144D01*
X0232146Y0011012D01*
X0232051Y0010882D01*
X0231953Y0010754D01*
X0231852Y0010629D01*
X0231748Y0010507D01*
X0231641Y0010387D01*
X0231531Y0010270D01*
X0231418Y0010155D01*
X0231302Y0010044D01*
X0231183Y0009935D01*
X0231062Y0009830D01*
X0230938Y0009727D01*
X0230812Y0009627D01*
X0230684Y0009531D01*
X0230553Y0009438D01*
X0230419Y0009348D01*
X0230284Y0009261D01*
X0230146Y0009178D01*
X0230007Y0009098D01*
X0229865Y0009022D01*
X0229722Y0008949D01*
X0229577Y0008880D01*
X0229430Y0008814D01*
X0229282Y0008752D01*
X0229132Y0008694D01*
X0228981Y0008639D01*
X0228828Y0008588D01*
X0228674Y0008541D01*
X0228519Y0008498D01*
X0228363Y0008459D01*
X0228207Y0008423D01*
X0228049Y0008392D01*
X0227891Y0008364D01*
X0227732Y0008340D01*
X0227572Y0008320D01*
X0227412Y0008304D01*
X0227252Y0008292D01*
X0227091Y0008284D01*
X0226930Y0008280D01*
X0226770Y0008280D01*
X0226609Y0008284D01*
X0226448Y0008292D01*
X0226288Y0008304D01*
X0226128Y0008320D01*
X0225968Y0008340D01*
X0225809Y0008364D01*
X0225651Y0008392D01*
X0225493Y0008423D01*
X0225337Y0008459D01*
X0225181Y0008498D01*
X0225026Y0008541D01*
X0224872Y0008588D01*
X0224719Y0008639D01*
X0224568Y0008694D01*
X0224418Y0008752D01*
X0224270Y0008814D01*
X0224123Y0008880D01*
X0223978Y0008949D01*
X0223835Y0009022D01*
X0223693Y0009098D01*
X0223554Y0009178D01*
X0223416Y0009261D01*
X0223281Y0009348D01*
X0223147Y0009438D01*
X0223016Y0009531D01*
X0222888Y0009627D01*
X0222762Y0009727D01*
X0222638Y0009830D01*
X0222517Y0009935D01*
X0222398Y0010044D01*
X0222282Y0010155D01*
X0222169Y0010270D01*
X0222059Y0010387D01*
X0221952Y0010507D01*
X0221848Y0010629D01*
X0221747Y0010754D01*
X0221649Y0010882D01*
X0221554Y0011012D01*
X0221462Y0011144D01*
X0221374Y0011278D01*
X0221289Y0011415D01*
X0221207Y0011553D01*
X0221129Y0011694D01*
X0221055Y0011836D01*
X0220984Y0011980D01*
X0220916Y0012126D01*
X0220853Y0012274D01*
X0220792Y0012423D01*
X0220736Y0012574D01*
X0220683Y0012726D01*
X0220634Y0012879D01*
X0220589Y0013033D01*
X0220548Y0013188D01*
X0220510Y0013345D01*
X0220477Y0013502D01*
X0220447Y0013660D01*
X0220421Y0013819D01*
X0220400Y0013978D01*
X0220382Y0014138D01*
X0220368Y0014298D01*
X0220358Y0014459D01*
X0220352Y0014619D01*
X0220350Y0014780D01*
X0218283Y0273835D02*
X0218285Y0273996D01*
X0218291Y0274156D01*
X0218301Y0274317D01*
X0218315Y0274477D01*
X0218333Y0274637D01*
X0218354Y0274796D01*
X0218380Y0274955D01*
X0218410Y0275113D01*
X0218443Y0275270D01*
X0218481Y0275427D01*
X0218522Y0275582D01*
X0218567Y0275736D01*
X0218616Y0275889D01*
X0218669Y0276041D01*
X0218725Y0276192D01*
X0218786Y0276341D01*
X0218849Y0276489D01*
X0218917Y0276635D01*
X0218988Y0276779D01*
X0219062Y0276921D01*
X0219140Y0277062D01*
X0219222Y0277200D01*
X0219307Y0277337D01*
X0219395Y0277471D01*
X0219487Y0277603D01*
X0219582Y0277733D01*
X0219680Y0277861D01*
X0219781Y0277986D01*
X0219885Y0278108D01*
X0219992Y0278228D01*
X0220102Y0278345D01*
X0220215Y0278460D01*
X0220331Y0278571D01*
X0220450Y0278680D01*
X0220571Y0278785D01*
X0220695Y0278888D01*
X0220821Y0278988D01*
X0220949Y0279084D01*
X0221080Y0279177D01*
X0221214Y0279267D01*
X0221349Y0279354D01*
X0221487Y0279437D01*
X0221626Y0279517D01*
X0221768Y0279593D01*
X0221911Y0279666D01*
X0222056Y0279735D01*
X0222203Y0279801D01*
X0222351Y0279863D01*
X0222501Y0279921D01*
X0222652Y0279976D01*
X0222805Y0280027D01*
X0222959Y0280074D01*
X0223114Y0280117D01*
X0223270Y0280156D01*
X0223426Y0280192D01*
X0223584Y0280223D01*
X0223742Y0280251D01*
X0223901Y0280275D01*
X0224061Y0280295D01*
X0224221Y0280311D01*
X0224381Y0280323D01*
X0224542Y0280331D01*
X0224703Y0280335D01*
X0224863Y0280335D01*
X0225024Y0280331D01*
X0225185Y0280323D01*
X0225345Y0280311D01*
X0225505Y0280295D01*
X0225665Y0280275D01*
X0225824Y0280251D01*
X0225982Y0280223D01*
X0226140Y0280192D01*
X0226296Y0280156D01*
X0226452Y0280117D01*
X0226607Y0280074D01*
X0226761Y0280027D01*
X0226914Y0279976D01*
X0227065Y0279921D01*
X0227215Y0279863D01*
X0227363Y0279801D01*
X0227510Y0279735D01*
X0227655Y0279666D01*
X0227798Y0279593D01*
X0227940Y0279517D01*
X0228079Y0279437D01*
X0228217Y0279354D01*
X0228352Y0279267D01*
X0228486Y0279177D01*
X0228617Y0279084D01*
X0228745Y0278988D01*
X0228871Y0278888D01*
X0228995Y0278785D01*
X0229116Y0278680D01*
X0229235Y0278571D01*
X0229351Y0278460D01*
X0229464Y0278345D01*
X0229574Y0278228D01*
X0229681Y0278108D01*
X0229785Y0277986D01*
X0229886Y0277861D01*
X0229984Y0277733D01*
X0230079Y0277603D01*
X0230171Y0277471D01*
X0230259Y0277337D01*
X0230344Y0277200D01*
X0230426Y0277062D01*
X0230504Y0276921D01*
X0230578Y0276779D01*
X0230649Y0276635D01*
X0230717Y0276489D01*
X0230780Y0276341D01*
X0230841Y0276192D01*
X0230897Y0276041D01*
X0230950Y0275889D01*
X0230999Y0275736D01*
X0231044Y0275582D01*
X0231085Y0275427D01*
X0231123Y0275270D01*
X0231156Y0275113D01*
X0231186Y0274955D01*
X0231212Y0274796D01*
X0231233Y0274637D01*
X0231251Y0274477D01*
X0231265Y0274317D01*
X0231275Y0274156D01*
X0231281Y0273996D01*
X0231283Y0273835D01*
X0231281Y0273674D01*
X0231275Y0273514D01*
X0231265Y0273353D01*
X0231251Y0273193D01*
X0231233Y0273033D01*
X0231212Y0272874D01*
X0231186Y0272715D01*
X0231156Y0272557D01*
X0231123Y0272400D01*
X0231085Y0272243D01*
X0231044Y0272088D01*
X0230999Y0271934D01*
X0230950Y0271781D01*
X0230897Y0271629D01*
X0230841Y0271478D01*
X0230780Y0271329D01*
X0230717Y0271181D01*
X0230649Y0271035D01*
X0230578Y0270891D01*
X0230504Y0270749D01*
X0230426Y0270608D01*
X0230344Y0270470D01*
X0230259Y0270333D01*
X0230171Y0270199D01*
X0230079Y0270067D01*
X0229984Y0269937D01*
X0229886Y0269809D01*
X0229785Y0269684D01*
X0229681Y0269562D01*
X0229574Y0269442D01*
X0229464Y0269325D01*
X0229351Y0269210D01*
X0229235Y0269099D01*
X0229116Y0268990D01*
X0228995Y0268885D01*
X0228871Y0268782D01*
X0228745Y0268682D01*
X0228617Y0268586D01*
X0228486Y0268493D01*
X0228352Y0268403D01*
X0228217Y0268316D01*
X0228079Y0268233D01*
X0227940Y0268153D01*
X0227798Y0268077D01*
X0227655Y0268004D01*
X0227510Y0267935D01*
X0227363Y0267869D01*
X0227215Y0267807D01*
X0227065Y0267749D01*
X0226914Y0267694D01*
X0226761Y0267643D01*
X0226607Y0267596D01*
X0226452Y0267553D01*
X0226296Y0267514D01*
X0226140Y0267478D01*
X0225982Y0267447D01*
X0225824Y0267419D01*
X0225665Y0267395D01*
X0225505Y0267375D01*
X0225345Y0267359D01*
X0225185Y0267347D01*
X0225024Y0267339D01*
X0224863Y0267335D01*
X0224703Y0267335D01*
X0224542Y0267339D01*
X0224381Y0267347D01*
X0224221Y0267359D01*
X0224061Y0267375D01*
X0223901Y0267395D01*
X0223742Y0267419D01*
X0223584Y0267447D01*
X0223426Y0267478D01*
X0223270Y0267514D01*
X0223114Y0267553D01*
X0222959Y0267596D01*
X0222805Y0267643D01*
X0222652Y0267694D01*
X0222501Y0267749D01*
X0222351Y0267807D01*
X0222203Y0267869D01*
X0222056Y0267935D01*
X0221911Y0268004D01*
X0221768Y0268077D01*
X0221626Y0268153D01*
X0221487Y0268233D01*
X0221349Y0268316D01*
X0221214Y0268403D01*
X0221080Y0268493D01*
X0220949Y0268586D01*
X0220821Y0268682D01*
X0220695Y0268782D01*
X0220571Y0268885D01*
X0220450Y0268990D01*
X0220331Y0269099D01*
X0220215Y0269210D01*
X0220102Y0269325D01*
X0219992Y0269442D01*
X0219885Y0269562D01*
X0219781Y0269684D01*
X0219680Y0269809D01*
X0219582Y0269937D01*
X0219487Y0270067D01*
X0219395Y0270199D01*
X0219307Y0270333D01*
X0219222Y0270470D01*
X0219140Y0270608D01*
X0219062Y0270749D01*
X0218988Y0270891D01*
X0218917Y0271035D01*
X0218849Y0271181D01*
X0218786Y0271329D01*
X0218725Y0271478D01*
X0218669Y0271629D01*
X0218616Y0271781D01*
X0218567Y0271934D01*
X0218522Y0272088D01*
X0218481Y0272243D01*
X0218443Y0272400D01*
X0218410Y0272557D01*
X0218380Y0272715D01*
X0218354Y0272874D01*
X0218333Y0273033D01*
X0218315Y0273193D01*
X0218301Y0273353D01*
X0218291Y0273514D01*
X0218285Y0273674D01*
X0218283Y0273835D01*
D11*
X0211496Y0167516D03*
D12*
X0211496Y0159484D03*
X0211496Y0151453D03*
X0211496Y0143421D03*
X0204488Y0139406D03*
X0204488Y0147437D03*
X0204488Y0155469D03*
X0204488Y0163500D03*
X0185512Y0171413D03*
X0185512Y0180429D03*
X0185512Y0135429D03*
X0185512Y0126413D03*
D13*
X0221496Y0128421D03*
X0221496Y0178421D03*
D14*
X0207992Y0185429D03*
X0207992Y0121413D03*
D15*
X0226850Y0014780D03*
X0018091Y0015469D03*
X0224783Y0273835D03*
X0020157Y0275902D03*
D16*
X0025984Y0238008D03*
X0026673Y0180823D03*
X0025984Y0114681D03*
X0025984Y0054051D03*
D17*
X0054882Y0045902D03*
X0054882Y0062201D03*
X0054882Y0106531D03*
X0054882Y0122831D03*
X0055571Y0172673D03*
X0055571Y0188972D03*
X0054882Y0229858D03*
X0054882Y0246157D03*
M02*
