G75*
%MOIN*%
%OFA0B0*%
%FSLAX25Y25*%
%IPPOS*%
%LPD*%
%AMOC8*
5,1,8,0,0,1.08239X$1,22.5*
%
%ADD10C,0.00000*%
%ADD11C,0.00800*%
%ADD12C,0.00100*%
%ADD13C,0.00600*%
%ADD14C,0.00500*%
%ADD15C,0.00400*%
%ADD16C,0.02200*%
%ADD17C,0.01500*%
%ADD18C,0.01000*%
D10*
X0001300Y0022263D02*
X0001300Y0337223D01*
X0395001Y0337223D01*
X0395001Y0022263D01*
X0001300Y0022263D01*
X0014485Y0041948D02*
X0014487Y0042109D01*
X0014493Y0042269D01*
X0014503Y0042430D01*
X0014517Y0042590D01*
X0014535Y0042750D01*
X0014556Y0042909D01*
X0014582Y0043068D01*
X0014612Y0043226D01*
X0014645Y0043383D01*
X0014683Y0043540D01*
X0014724Y0043695D01*
X0014769Y0043849D01*
X0014818Y0044002D01*
X0014871Y0044154D01*
X0014927Y0044305D01*
X0014988Y0044454D01*
X0015051Y0044602D01*
X0015119Y0044748D01*
X0015190Y0044892D01*
X0015264Y0045034D01*
X0015342Y0045175D01*
X0015424Y0045313D01*
X0015509Y0045450D01*
X0015597Y0045584D01*
X0015689Y0045716D01*
X0015784Y0045846D01*
X0015882Y0045974D01*
X0015983Y0046099D01*
X0016087Y0046221D01*
X0016194Y0046341D01*
X0016304Y0046458D01*
X0016417Y0046573D01*
X0016533Y0046684D01*
X0016652Y0046793D01*
X0016773Y0046898D01*
X0016897Y0047001D01*
X0017023Y0047101D01*
X0017151Y0047197D01*
X0017282Y0047290D01*
X0017416Y0047380D01*
X0017551Y0047467D01*
X0017689Y0047550D01*
X0017828Y0047630D01*
X0017970Y0047706D01*
X0018113Y0047779D01*
X0018258Y0047848D01*
X0018405Y0047914D01*
X0018553Y0047976D01*
X0018703Y0048034D01*
X0018854Y0048089D01*
X0019007Y0048140D01*
X0019161Y0048187D01*
X0019316Y0048230D01*
X0019472Y0048269D01*
X0019628Y0048305D01*
X0019786Y0048336D01*
X0019944Y0048364D01*
X0020103Y0048388D01*
X0020263Y0048408D01*
X0020423Y0048424D01*
X0020583Y0048436D01*
X0020744Y0048444D01*
X0020905Y0048448D01*
X0021065Y0048448D01*
X0021226Y0048444D01*
X0021387Y0048436D01*
X0021547Y0048424D01*
X0021707Y0048408D01*
X0021867Y0048388D01*
X0022026Y0048364D01*
X0022184Y0048336D01*
X0022342Y0048305D01*
X0022498Y0048269D01*
X0022654Y0048230D01*
X0022809Y0048187D01*
X0022963Y0048140D01*
X0023116Y0048089D01*
X0023267Y0048034D01*
X0023417Y0047976D01*
X0023565Y0047914D01*
X0023712Y0047848D01*
X0023857Y0047779D01*
X0024000Y0047706D01*
X0024142Y0047630D01*
X0024281Y0047550D01*
X0024419Y0047467D01*
X0024554Y0047380D01*
X0024688Y0047290D01*
X0024819Y0047197D01*
X0024947Y0047101D01*
X0025073Y0047001D01*
X0025197Y0046898D01*
X0025318Y0046793D01*
X0025437Y0046684D01*
X0025553Y0046573D01*
X0025666Y0046458D01*
X0025776Y0046341D01*
X0025883Y0046221D01*
X0025987Y0046099D01*
X0026088Y0045974D01*
X0026186Y0045846D01*
X0026281Y0045716D01*
X0026373Y0045584D01*
X0026461Y0045450D01*
X0026546Y0045313D01*
X0026628Y0045175D01*
X0026706Y0045034D01*
X0026780Y0044892D01*
X0026851Y0044748D01*
X0026919Y0044602D01*
X0026982Y0044454D01*
X0027043Y0044305D01*
X0027099Y0044154D01*
X0027152Y0044002D01*
X0027201Y0043849D01*
X0027246Y0043695D01*
X0027287Y0043540D01*
X0027325Y0043383D01*
X0027358Y0043226D01*
X0027388Y0043068D01*
X0027414Y0042909D01*
X0027435Y0042750D01*
X0027453Y0042590D01*
X0027467Y0042430D01*
X0027477Y0042269D01*
X0027483Y0042109D01*
X0027485Y0041948D01*
X0027483Y0041787D01*
X0027477Y0041627D01*
X0027467Y0041466D01*
X0027453Y0041306D01*
X0027435Y0041146D01*
X0027414Y0040987D01*
X0027388Y0040828D01*
X0027358Y0040670D01*
X0027325Y0040513D01*
X0027287Y0040356D01*
X0027246Y0040201D01*
X0027201Y0040047D01*
X0027152Y0039894D01*
X0027099Y0039742D01*
X0027043Y0039591D01*
X0026982Y0039442D01*
X0026919Y0039294D01*
X0026851Y0039148D01*
X0026780Y0039004D01*
X0026706Y0038862D01*
X0026628Y0038721D01*
X0026546Y0038583D01*
X0026461Y0038446D01*
X0026373Y0038312D01*
X0026281Y0038180D01*
X0026186Y0038050D01*
X0026088Y0037922D01*
X0025987Y0037797D01*
X0025883Y0037675D01*
X0025776Y0037555D01*
X0025666Y0037438D01*
X0025553Y0037323D01*
X0025437Y0037212D01*
X0025318Y0037103D01*
X0025197Y0036998D01*
X0025073Y0036895D01*
X0024947Y0036795D01*
X0024819Y0036699D01*
X0024688Y0036606D01*
X0024554Y0036516D01*
X0024419Y0036429D01*
X0024281Y0036346D01*
X0024142Y0036266D01*
X0024000Y0036190D01*
X0023857Y0036117D01*
X0023712Y0036048D01*
X0023565Y0035982D01*
X0023417Y0035920D01*
X0023267Y0035862D01*
X0023116Y0035807D01*
X0022963Y0035756D01*
X0022809Y0035709D01*
X0022654Y0035666D01*
X0022498Y0035627D01*
X0022342Y0035591D01*
X0022184Y0035560D01*
X0022026Y0035532D01*
X0021867Y0035508D01*
X0021707Y0035488D01*
X0021547Y0035472D01*
X0021387Y0035460D01*
X0021226Y0035452D01*
X0021065Y0035448D01*
X0020905Y0035448D01*
X0020744Y0035452D01*
X0020583Y0035460D01*
X0020423Y0035472D01*
X0020263Y0035488D01*
X0020103Y0035508D01*
X0019944Y0035532D01*
X0019786Y0035560D01*
X0019628Y0035591D01*
X0019472Y0035627D01*
X0019316Y0035666D01*
X0019161Y0035709D01*
X0019007Y0035756D01*
X0018854Y0035807D01*
X0018703Y0035862D01*
X0018553Y0035920D01*
X0018405Y0035982D01*
X0018258Y0036048D01*
X0018113Y0036117D01*
X0017970Y0036190D01*
X0017828Y0036266D01*
X0017689Y0036346D01*
X0017551Y0036429D01*
X0017416Y0036516D01*
X0017282Y0036606D01*
X0017151Y0036699D01*
X0017023Y0036795D01*
X0016897Y0036895D01*
X0016773Y0036998D01*
X0016652Y0037103D01*
X0016533Y0037212D01*
X0016417Y0037323D01*
X0016304Y0037438D01*
X0016194Y0037555D01*
X0016087Y0037675D01*
X0015983Y0037797D01*
X0015882Y0037922D01*
X0015784Y0038050D01*
X0015689Y0038180D01*
X0015597Y0038312D01*
X0015509Y0038446D01*
X0015424Y0038583D01*
X0015342Y0038721D01*
X0015264Y0038862D01*
X0015190Y0039004D01*
X0015119Y0039148D01*
X0015051Y0039294D01*
X0014988Y0039442D01*
X0014927Y0039591D01*
X0014871Y0039742D01*
X0014818Y0039894D01*
X0014769Y0040047D01*
X0014724Y0040201D01*
X0014683Y0040356D01*
X0014645Y0040513D01*
X0014612Y0040670D01*
X0014582Y0040828D01*
X0014556Y0040987D01*
X0014535Y0041146D01*
X0014517Y0041306D01*
X0014503Y0041466D01*
X0014493Y0041627D01*
X0014487Y0041787D01*
X0014485Y0041948D01*
X0010548Y0321475D02*
X0010550Y0321636D01*
X0010556Y0321796D01*
X0010566Y0321957D01*
X0010580Y0322117D01*
X0010598Y0322277D01*
X0010619Y0322436D01*
X0010645Y0322595D01*
X0010675Y0322753D01*
X0010708Y0322910D01*
X0010746Y0323067D01*
X0010787Y0323222D01*
X0010832Y0323376D01*
X0010881Y0323529D01*
X0010934Y0323681D01*
X0010990Y0323832D01*
X0011051Y0323981D01*
X0011114Y0324129D01*
X0011182Y0324275D01*
X0011253Y0324419D01*
X0011327Y0324561D01*
X0011405Y0324702D01*
X0011487Y0324840D01*
X0011572Y0324977D01*
X0011660Y0325111D01*
X0011752Y0325243D01*
X0011847Y0325373D01*
X0011945Y0325501D01*
X0012046Y0325626D01*
X0012150Y0325748D01*
X0012257Y0325868D01*
X0012367Y0325985D01*
X0012480Y0326100D01*
X0012596Y0326211D01*
X0012715Y0326320D01*
X0012836Y0326425D01*
X0012960Y0326528D01*
X0013086Y0326628D01*
X0013214Y0326724D01*
X0013345Y0326817D01*
X0013479Y0326907D01*
X0013614Y0326994D01*
X0013752Y0327077D01*
X0013891Y0327157D01*
X0014033Y0327233D01*
X0014176Y0327306D01*
X0014321Y0327375D01*
X0014468Y0327441D01*
X0014616Y0327503D01*
X0014766Y0327561D01*
X0014917Y0327616D01*
X0015070Y0327667D01*
X0015224Y0327714D01*
X0015379Y0327757D01*
X0015535Y0327796D01*
X0015691Y0327832D01*
X0015849Y0327863D01*
X0016007Y0327891D01*
X0016166Y0327915D01*
X0016326Y0327935D01*
X0016486Y0327951D01*
X0016646Y0327963D01*
X0016807Y0327971D01*
X0016968Y0327975D01*
X0017128Y0327975D01*
X0017289Y0327971D01*
X0017450Y0327963D01*
X0017610Y0327951D01*
X0017770Y0327935D01*
X0017930Y0327915D01*
X0018089Y0327891D01*
X0018247Y0327863D01*
X0018405Y0327832D01*
X0018561Y0327796D01*
X0018717Y0327757D01*
X0018872Y0327714D01*
X0019026Y0327667D01*
X0019179Y0327616D01*
X0019330Y0327561D01*
X0019480Y0327503D01*
X0019628Y0327441D01*
X0019775Y0327375D01*
X0019920Y0327306D01*
X0020063Y0327233D01*
X0020205Y0327157D01*
X0020344Y0327077D01*
X0020482Y0326994D01*
X0020617Y0326907D01*
X0020751Y0326817D01*
X0020882Y0326724D01*
X0021010Y0326628D01*
X0021136Y0326528D01*
X0021260Y0326425D01*
X0021381Y0326320D01*
X0021500Y0326211D01*
X0021616Y0326100D01*
X0021729Y0325985D01*
X0021839Y0325868D01*
X0021946Y0325748D01*
X0022050Y0325626D01*
X0022151Y0325501D01*
X0022249Y0325373D01*
X0022344Y0325243D01*
X0022436Y0325111D01*
X0022524Y0324977D01*
X0022609Y0324840D01*
X0022691Y0324702D01*
X0022769Y0324561D01*
X0022843Y0324419D01*
X0022914Y0324275D01*
X0022982Y0324129D01*
X0023045Y0323981D01*
X0023106Y0323832D01*
X0023162Y0323681D01*
X0023215Y0323529D01*
X0023264Y0323376D01*
X0023309Y0323222D01*
X0023350Y0323067D01*
X0023388Y0322910D01*
X0023421Y0322753D01*
X0023451Y0322595D01*
X0023477Y0322436D01*
X0023498Y0322277D01*
X0023516Y0322117D01*
X0023530Y0321957D01*
X0023540Y0321796D01*
X0023546Y0321636D01*
X0023548Y0321475D01*
X0023546Y0321314D01*
X0023540Y0321154D01*
X0023530Y0320993D01*
X0023516Y0320833D01*
X0023498Y0320673D01*
X0023477Y0320514D01*
X0023451Y0320355D01*
X0023421Y0320197D01*
X0023388Y0320040D01*
X0023350Y0319883D01*
X0023309Y0319728D01*
X0023264Y0319574D01*
X0023215Y0319421D01*
X0023162Y0319269D01*
X0023106Y0319118D01*
X0023045Y0318969D01*
X0022982Y0318821D01*
X0022914Y0318675D01*
X0022843Y0318531D01*
X0022769Y0318389D01*
X0022691Y0318248D01*
X0022609Y0318110D01*
X0022524Y0317973D01*
X0022436Y0317839D01*
X0022344Y0317707D01*
X0022249Y0317577D01*
X0022151Y0317449D01*
X0022050Y0317324D01*
X0021946Y0317202D01*
X0021839Y0317082D01*
X0021729Y0316965D01*
X0021616Y0316850D01*
X0021500Y0316739D01*
X0021381Y0316630D01*
X0021260Y0316525D01*
X0021136Y0316422D01*
X0021010Y0316322D01*
X0020882Y0316226D01*
X0020751Y0316133D01*
X0020617Y0316043D01*
X0020482Y0315956D01*
X0020344Y0315873D01*
X0020205Y0315793D01*
X0020063Y0315717D01*
X0019920Y0315644D01*
X0019775Y0315575D01*
X0019628Y0315509D01*
X0019480Y0315447D01*
X0019330Y0315389D01*
X0019179Y0315334D01*
X0019026Y0315283D01*
X0018872Y0315236D01*
X0018717Y0315193D01*
X0018561Y0315154D01*
X0018405Y0315118D01*
X0018247Y0315087D01*
X0018089Y0315059D01*
X0017930Y0315035D01*
X0017770Y0315015D01*
X0017610Y0314999D01*
X0017450Y0314987D01*
X0017289Y0314979D01*
X0017128Y0314975D01*
X0016968Y0314975D01*
X0016807Y0314979D01*
X0016646Y0314987D01*
X0016486Y0314999D01*
X0016326Y0315015D01*
X0016166Y0315035D01*
X0016007Y0315059D01*
X0015849Y0315087D01*
X0015691Y0315118D01*
X0015535Y0315154D01*
X0015379Y0315193D01*
X0015224Y0315236D01*
X0015070Y0315283D01*
X0014917Y0315334D01*
X0014766Y0315389D01*
X0014616Y0315447D01*
X0014468Y0315509D01*
X0014321Y0315575D01*
X0014176Y0315644D01*
X0014033Y0315717D01*
X0013891Y0315793D01*
X0013752Y0315873D01*
X0013614Y0315956D01*
X0013479Y0316043D01*
X0013345Y0316133D01*
X0013214Y0316226D01*
X0013086Y0316322D01*
X0012960Y0316422D01*
X0012836Y0316525D01*
X0012715Y0316630D01*
X0012596Y0316739D01*
X0012480Y0316850D01*
X0012367Y0316965D01*
X0012257Y0317082D01*
X0012150Y0317202D01*
X0012046Y0317324D01*
X0011945Y0317449D01*
X0011847Y0317577D01*
X0011752Y0317707D01*
X0011660Y0317839D01*
X0011572Y0317973D01*
X0011487Y0318110D01*
X0011405Y0318248D01*
X0011327Y0318389D01*
X0011253Y0318531D01*
X0011182Y0318675D01*
X0011114Y0318821D01*
X0011051Y0318969D01*
X0010990Y0319118D01*
X0010934Y0319269D01*
X0010881Y0319421D01*
X0010832Y0319574D01*
X0010787Y0319728D01*
X0010746Y0319883D01*
X0010708Y0320040D01*
X0010675Y0320197D01*
X0010645Y0320355D01*
X0010619Y0320514D01*
X0010598Y0320673D01*
X0010580Y0320833D01*
X0010566Y0320993D01*
X0010556Y0321154D01*
X0010550Y0321314D01*
X0010548Y0321475D01*
X0368816Y0041948D02*
X0368818Y0042109D01*
X0368824Y0042269D01*
X0368834Y0042430D01*
X0368848Y0042590D01*
X0368866Y0042750D01*
X0368887Y0042909D01*
X0368913Y0043068D01*
X0368943Y0043226D01*
X0368976Y0043383D01*
X0369014Y0043540D01*
X0369055Y0043695D01*
X0369100Y0043849D01*
X0369149Y0044002D01*
X0369202Y0044154D01*
X0369258Y0044305D01*
X0369319Y0044454D01*
X0369382Y0044602D01*
X0369450Y0044748D01*
X0369521Y0044892D01*
X0369595Y0045034D01*
X0369673Y0045175D01*
X0369755Y0045313D01*
X0369840Y0045450D01*
X0369928Y0045584D01*
X0370020Y0045716D01*
X0370115Y0045846D01*
X0370213Y0045974D01*
X0370314Y0046099D01*
X0370418Y0046221D01*
X0370525Y0046341D01*
X0370635Y0046458D01*
X0370748Y0046573D01*
X0370864Y0046684D01*
X0370983Y0046793D01*
X0371104Y0046898D01*
X0371228Y0047001D01*
X0371354Y0047101D01*
X0371482Y0047197D01*
X0371613Y0047290D01*
X0371747Y0047380D01*
X0371882Y0047467D01*
X0372020Y0047550D01*
X0372159Y0047630D01*
X0372301Y0047706D01*
X0372444Y0047779D01*
X0372589Y0047848D01*
X0372736Y0047914D01*
X0372884Y0047976D01*
X0373034Y0048034D01*
X0373185Y0048089D01*
X0373338Y0048140D01*
X0373492Y0048187D01*
X0373647Y0048230D01*
X0373803Y0048269D01*
X0373959Y0048305D01*
X0374117Y0048336D01*
X0374275Y0048364D01*
X0374434Y0048388D01*
X0374594Y0048408D01*
X0374754Y0048424D01*
X0374914Y0048436D01*
X0375075Y0048444D01*
X0375236Y0048448D01*
X0375396Y0048448D01*
X0375557Y0048444D01*
X0375718Y0048436D01*
X0375878Y0048424D01*
X0376038Y0048408D01*
X0376198Y0048388D01*
X0376357Y0048364D01*
X0376515Y0048336D01*
X0376673Y0048305D01*
X0376829Y0048269D01*
X0376985Y0048230D01*
X0377140Y0048187D01*
X0377294Y0048140D01*
X0377447Y0048089D01*
X0377598Y0048034D01*
X0377748Y0047976D01*
X0377896Y0047914D01*
X0378043Y0047848D01*
X0378188Y0047779D01*
X0378331Y0047706D01*
X0378473Y0047630D01*
X0378612Y0047550D01*
X0378750Y0047467D01*
X0378885Y0047380D01*
X0379019Y0047290D01*
X0379150Y0047197D01*
X0379278Y0047101D01*
X0379404Y0047001D01*
X0379528Y0046898D01*
X0379649Y0046793D01*
X0379768Y0046684D01*
X0379884Y0046573D01*
X0379997Y0046458D01*
X0380107Y0046341D01*
X0380214Y0046221D01*
X0380318Y0046099D01*
X0380419Y0045974D01*
X0380517Y0045846D01*
X0380612Y0045716D01*
X0380704Y0045584D01*
X0380792Y0045450D01*
X0380877Y0045313D01*
X0380959Y0045175D01*
X0381037Y0045034D01*
X0381111Y0044892D01*
X0381182Y0044748D01*
X0381250Y0044602D01*
X0381313Y0044454D01*
X0381374Y0044305D01*
X0381430Y0044154D01*
X0381483Y0044002D01*
X0381532Y0043849D01*
X0381577Y0043695D01*
X0381618Y0043540D01*
X0381656Y0043383D01*
X0381689Y0043226D01*
X0381719Y0043068D01*
X0381745Y0042909D01*
X0381766Y0042750D01*
X0381784Y0042590D01*
X0381798Y0042430D01*
X0381808Y0042269D01*
X0381814Y0042109D01*
X0381816Y0041948D01*
X0381814Y0041787D01*
X0381808Y0041627D01*
X0381798Y0041466D01*
X0381784Y0041306D01*
X0381766Y0041146D01*
X0381745Y0040987D01*
X0381719Y0040828D01*
X0381689Y0040670D01*
X0381656Y0040513D01*
X0381618Y0040356D01*
X0381577Y0040201D01*
X0381532Y0040047D01*
X0381483Y0039894D01*
X0381430Y0039742D01*
X0381374Y0039591D01*
X0381313Y0039442D01*
X0381250Y0039294D01*
X0381182Y0039148D01*
X0381111Y0039004D01*
X0381037Y0038862D01*
X0380959Y0038721D01*
X0380877Y0038583D01*
X0380792Y0038446D01*
X0380704Y0038312D01*
X0380612Y0038180D01*
X0380517Y0038050D01*
X0380419Y0037922D01*
X0380318Y0037797D01*
X0380214Y0037675D01*
X0380107Y0037555D01*
X0379997Y0037438D01*
X0379884Y0037323D01*
X0379768Y0037212D01*
X0379649Y0037103D01*
X0379528Y0036998D01*
X0379404Y0036895D01*
X0379278Y0036795D01*
X0379150Y0036699D01*
X0379019Y0036606D01*
X0378885Y0036516D01*
X0378750Y0036429D01*
X0378612Y0036346D01*
X0378473Y0036266D01*
X0378331Y0036190D01*
X0378188Y0036117D01*
X0378043Y0036048D01*
X0377896Y0035982D01*
X0377748Y0035920D01*
X0377598Y0035862D01*
X0377447Y0035807D01*
X0377294Y0035756D01*
X0377140Y0035709D01*
X0376985Y0035666D01*
X0376829Y0035627D01*
X0376673Y0035591D01*
X0376515Y0035560D01*
X0376357Y0035532D01*
X0376198Y0035508D01*
X0376038Y0035488D01*
X0375878Y0035472D01*
X0375718Y0035460D01*
X0375557Y0035452D01*
X0375396Y0035448D01*
X0375236Y0035448D01*
X0375075Y0035452D01*
X0374914Y0035460D01*
X0374754Y0035472D01*
X0374594Y0035488D01*
X0374434Y0035508D01*
X0374275Y0035532D01*
X0374117Y0035560D01*
X0373959Y0035591D01*
X0373803Y0035627D01*
X0373647Y0035666D01*
X0373492Y0035709D01*
X0373338Y0035756D01*
X0373185Y0035807D01*
X0373034Y0035862D01*
X0372884Y0035920D01*
X0372736Y0035982D01*
X0372589Y0036048D01*
X0372444Y0036117D01*
X0372301Y0036190D01*
X0372159Y0036266D01*
X0372020Y0036346D01*
X0371882Y0036429D01*
X0371747Y0036516D01*
X0371613Y0036606D01*
X0371482Y0036699D01*
X0371354Y0036795D01*
X0371228Y0036895D01*
X0371104Y0036998D01*
X0370983Y0037103D01*
X0370864Y0037212D01*
X0370748Y0037323D01*
X0370635Y0037438D01*
X0370525Y0037555D01*
X0370418Y0037675D01*
X0370314Y0037797D01*
X0370213Y0037922D01*
X0370115Y0038050D01*
X0370020Y0038180D01*
X0369928Y0038312D01*
X0369840Y0038446D01*
X0369755Y0038583D01*
X0369673Y0038721D01*
X0369595Y0038862D01*
X0369521Y0039004D01*
X0369450Y0039148D01*
X0369382Y0039294D01*
X0369319Y0039442D01*
X0369258Y0039591D01*
X0369202Y0039742D01*
X0369149Y0039894D01*
X0369100Y0040047D01*
X0369055Y0040201D01*
X0369014Y0040356D01*
X0368976Y0040513D01*
X0368943Y0040670D01*
X0368913Y0040828D01*
X0368887Y0040987D01*
X0368866Y0041146D01*
X0368848Y0041306D01*
X0368834Y0041466D01*
X0368824Y0041627D01*
X0368818Y0041787D01*
X0368816Y0041948D01*
X0372442Y0094822D02*
X0372444Y0095015D01*
X0372451Y0095208D01*
X0372463Y0095401D01*
X0372480Y0095594D01*
X0372501Y0095786D01*
X0372527Y0095977D01*
X0372558Y0096168D01*
X0372593Y0096358D01*
X0372633Y0096547D01*
X0372678Y0096735D01*
X0372727Y0096922D01*
X0372781Y0097108D01*
X0372839Y0097292D01*
X0372902Y0097475D01*
X0372970Y0097656D01*
X0373041Y0097835D01*
X0373118Y0098013D01*
X0373198Y0098189D01*
X0373283Y0098362D01*
X0373372Y0098534D01*
X0373465Y0098703D01*
X0373562Y0098870D01*
X0373664Y0099035D01*
X0373769Y0099197D01*
X0373878Y0099356D01*
X0373992Y0099513D01*
X0374109Y0099666D01*
X0374229Y0099817D01*
X0374354Y0099965D01*
X0374482Y0100110D01*
X0374613Y0100251D01*
X0374748Y0100390D01*
X0374887Y0100525D01*
X0375028Y0100656D01*
X0375173Y0100784D01*
X0375321Y0100909D01*
X0375472Y0101029D01*
X0375625Y0101146D01*
X0375782Y0101260D01*
X0375941Y0101369D01*
X0376103Y0101474D01*
X0376268Y0101576D01*
X0376435Y0101673D01*
X0376604Y0101766D01*
X0376776Y0101855D01*
X0376949Y0101940D01*
X0377125Y0102020D01*
X0377303Y0102097D01*
X0377482Y0102168D01*
X0377663Y0102236D01*
X0377846Y0102299D01*
X0378030Y0102357D01*
X0378216Y0102411D01*
X0378403Y0102460D01*
X0378591Y0102505D01*
X0378780Y0102545D01*
X0378970Y0102580D01*
X0379161Y0102611D01*
X0379352Y0102637D01*
X0379544Y0102658D01*
X0379737Y0102675D01*
X0379930Y0102687D01*
X0380123Y0102694D01*
X0380316Y0102696D01*
X0380509Y0102694D01*
X0380702Y0102687D01*
X0380895Y0102675D01*
X0381088Y0102658D01*
X0381280Y0102637D01*
X0381471Y0102611D01*
X0381662Y0102580D01*
X0381852Y0102545D01*
X0382041Y0102505D01*
X0382229Y0102460D01*
X0382416Y0102411D01*
X0382602Y0102357D01*
X0382786Y0102299D01*
X0382969Y0102236D01*
X0383150Y0102168D01*
X0383329Y0102097D01*
X0383507Y0102020D01*
X0383683Y0101940D01*
X0383856Y0101855D01*
X0384028Y0101766D01*
X0384197Y0101673D01*
X0384364Y0101576D01*
X0384529Y0101474D01*
X0384691Y0101369D01*
X0384850Y0101260D01*
X0385007Y0101146D01*
X0385160Y0101029D01*
X0385311Y0100909D01*
X0385459Y0100784D01*
X0385604Y0100656D01*
X0385745Y0100525D01*
X0385884Y0100390D01*
X0386019Y0100251D01*
X0386150Y0100110D01*
X0386278Y0099965D01*
X0386403Y0099817D01*
X0386523Y0099666D01*
X0386640Y0099513D01*
X0386754Y0099356D01*
X0386863Y0099197D01*
X0386968Y0099035D01*
X0387070Y0098870D01*
X0387167Y0098703D01*
X0387260Y0098534D01*
X0387349Y0098362D01*
X0387434Y0098189D01*
X0387514Y0098013D01*
X0387591Y0097835D01*
X0387662Y0097656D01*
X0387730Y0097475D01*
X0387793Y0097292D01*
X0387851Y0097108D01*
X0387905Y0096922D01*
X0387954Y0096735D01*
X0387999Y0096547D01*
X0388039Y0096358D01*
X0388074Y0096168D01*
X0388105Y0095977D01*
X0388131Y0095786D01*
X0388152Y0095594D01*
X0388169Y0095401D01*
X0388181Y0095208D01*
X0388188Y0095015D01*
X0388190Y0094822D01*
X0388188Y0094629D01*
X0388181Y0094436D01*
X0388169Y0094243D01*
X0388152Y0094050D01*
X0388131Y0093858D01*
X0388105Y0093667D01*
X0388074Y0093476D01*
X0388039Y0093286D01*
X0387999Y0093097D01*
X0387954Y0092909D01*
X0387905Y0092722D01*
X0387851Y0092536D01*
X0387793Y0092352D01*
X0387730Y0092169D01*
X0387662Y0091988D01*
X0387591Y0091809D01*
X0387514Y0091631D01*
X0387434Y0091455D01*
X0387349Y0091282D01*
X0387260Y0091110D01*
X0387167Y0090941D01*
X0387070Y0090774D01*
X0386968Y0090609D01*
X0386863Y0090447D01*
X0386754Y0090288D01*
X0386640Y0090131D01*
X0386523Y0089978D01*
X0386403Y0089827D01*
X0386278Y0089679D01*
X0386150Y0089534D01*
X0386019Y0089393D01*
X0385884Y0089254D01*
X0385745Y0089119D01*
X0385604Y0088988D01*
X0385459Y0088860D01*
X0385311Y0088735D01*
X0385160Y0088615D01*
X0385007Y0088498D01*
X0384850Y0088384D01*
X0384691Y0088275D01*
X0384529Y0088170D01*
X0384364Y0088068D01*
X0384197Y0087971D01*
X0384028Y0087878D01*
X0383856Y0087789D01*
X0383683Y0087704D01*
X0383507Y0087624D01*
X0383329Y0087547D01*
X0383150Y0087476D01*
X0382969Y0087408D01*
X0382786Y0087345D01*
X0382602Y0087287D01*
X0382416Y0087233D01*
X0382229Y0087184D01*
X0382041Y0087139D01*
X0381852Y0087099D01*
X0381662Y0087064D01*
X0381471Y0087033D01*
X0381280Y0087007D01*
X0381088Y0086986D01*
X0380895Y0086969D01*
X0380702Y0086957D01*
X0380509Y0086950D01*
X0380316Y0086948D01*
X0380123Y0086950D01*
X0379930Y0086957D01*
X0379737Y0086969D01*
X0379544Y0086986D01*
X0379352Y0087007D01*
X0379161Y0087033D01*
X0378970Y0087064D01*
X0378780Y0087099D01*
X0378591Y0087139D01*
X0378403Y0087184D01*
X0378216Y0087233D01*
X0378030Y0087287D01*
X0377846Y0087345D01*
X0377663Y0087408D01*
X0377482Y0087476D01*
X0377303Y0087547D01*
X0377125Y0087624D01*
X0376949Y0087704D01*
X0376776Y0087789D01*
X0376604Y0087878D01*
X0376435Y0087971D01*
X0376268Y0088068D01*
X0376103Y0088170D01*
X0375941Y0088275D01*
X0375782Y0088384D01*
X0375625Y0088498D01*
X0375472Y0088615D01*
X0375321Y0088735D01*
X0375173Y0088860D01*
X0375028Y0088988D01*
X0374887Y0089119D01*
X0374748Y0089254D01*
X0374613Y0089393D01*
X0374482Y0089534D01*
X0374354Y0089679D01*
X0374229Y0089827D01*
X0374109Y0089978D01*
X0373992Y0090131D01*
X0373878Y0090288D01*
X0373769Y0090447D01*
X0373664Y0090609D01*
X0373562Y0090774D01*
X0373465Y0090941D01*
X0373372Y0091110D01*
X0373283Y0091282D01*
X0373198Y0091455D01*
X0373118Y0091631D01*
X0373041Y0091809D01*
X0372970Y0091988D01*
X0372902Y0092169D01*
X0372839Y0092352D01*
X0372781Y0092536D01*
X0372727Y0092722D01*
X0372678Y0092909D01*
X0372633Y0093097D01*
X0372593Y0093286D01*
X0372558Y0093476D01*
X0372527Y0093667D01*
X0372501Y0093858D01*
X0372480Y0094050D01*
X0372463Y0094243D01*
X0372451Y0094436D01*
X0372444Y0094629D01*
X0372442Y0094822D01*
X0372442Y0276514D02*
X0372444Y0276707D01*
X0372451Y0276900D01*
X0372463Y0277093D01*
X0372480Y0277286D01*
X0372501Y0277478D01*
X0372527Y0277669D01*
X0372558Y0277860D01*
X0372593Y0278050D01*
X0372633Y0278239D01*
X0372678Y0278427D01*
X0372727Y0278614D01*
X0372781Y0278800D01*
X0372839Y0278984D01*
X0372902Y0279167D01*
X0372970Y0279348D01*
X0373041Y0279527D01*
X0373118Y0279705D01*
X0373198Y0279881D01*
X0373283Y0280054D01*
X0373372Y0280226D01*
X0373465Y0280395D01*
X0373562Y0280562D01*
X0373664Y0280727D01*
X0373769Y0280889D01*
X0373878Y0281048D01*
X0373992Y0281205D01*
X0374109Y0281358D01*
X0374229Y0281509D01*
X0374354Y0281657D01*
X0374482Y0281802D01*
X0374613Y0281943D01*
X0374748Y0282082D01*
X0374887Y0282217D01*
X0375028Y0282348D01*
X0375173Y0282476D01*
X0375321Y0282601D01*
X0375472Y0282721D01*
X0375625Y0282838D01*
X0375782Y0282952D01*
X0375941Y0283061D01*
X0376103Y0283166D01*
X0376268Y0283268D01*
X0376435Y0283365D01*
X0376604Y0283458D01*
X0376776Y0283547D01*
X0376949Y0283632D01*
X0377125Y0283712D01*
X0377303Y0283789D01*
X0377482Y0283860D01*
X0377663Y0283928D01*
X0377846Y0283991D01*
X0378030Y0284049D01*
X0378216Y0284103D01*
X0378403Y0284152D01*
X0378591Y0284197D01*
X0378780Y0284237D01*
X0378970Y0284272D01*
X0379161Y0284303D01*
X0379352Y0284329D01*
X0379544Y0284350D01*
X0379737Y0284367D01*
X0379930Y0284379D01*
X0380123Y0284386D01*
X0380316Y0284388D01*
X0380509Y0284386D01*
X0380702Y0284379D01*
X0380895Y0284367D01*
X0381088Y0284350D01*
X0381280Y0284329D01*
X0381471Y0284303D01*
X0381662Y0284272D01*
X0381852Y0284237D01*
X0382041Y0284197D01*
X0382229Y0284152D01*
X0382416Y0284103D01*
X0382602Y0284049D01*
X0382786Y0283991D01*
X0382969Y0283928D01*
X0383150Y0283860D01*
X0383329Y0283789D01*
X0383507Y0283712D01*
X0383683Y0283632D01*
X0383856Y0283547D01*
X0384028Y0283458D01*
X0384197Y0283365D01*
X0384364Y0283268D01*
X0384529Y0283166D01*
X0384691Y0283061D01*
X0384850Y0282952D01*
X0385007Y0282838D01*
X0385160Y0282721D01*
X0385311Y0282601D01*
X0385459Y0282476D01*
X0385604Y0282348D01*
X0385745Y0282217D01*
X0385884Y0282082D01*
X0386019Y0281943D01*
X0386150Y0281802D01*
X0386278Y0281657D01*
X0386403Y0281509D01*
X0386523Y0281358D01*
X0386640Y0281205D01*
X0386754Y0281048D01*
X0386863Y0280889D01*
X0386968Y0280727D01*
X0387070Y0280562D01*
X0387167Y0280395D01*
X0387260Y0280226D01*
X0387349Y0280054D01*
X0387434Y0279881D01*
X0387514Y0279705D01*
X0387591Y0279527D01*
X0387662Y0279348D01*
X0387730Y0279167D01*
X0387793Y0278984D01*
X0387851Y0278800D01*
X0387905Y0278614D01*
X0387954Y0278427D01*
X0387999Y0278239D01*
X0388039Y0278050D01*
X0388074Y0277860D01*
X0388105Y0277669D01*
X0388131Y0277478D01*
X0388152Y0277286D01*
X0388169Y0277093D01*
X0388181Y0276900D01*
X0388188Y0276707D01*
X0388190Y0276514D01*
X0388188Y0276321D01*
X0388181Y0276128D01*
X0388169Y0275935D01*
X0388152Y0275742D01*
X0388131Y0275550D01*
X0388105Y0275359D01*
X0388074Y0275168D01*
X0388039Y0274978D01*
X0387999Y0274789D01*
X0387954Y0274601D01*
X0387905Y0274414D01*
X0387851Y0274228D01*
X0387793Y0274044D01*
X0387730Y0273861D01*
X0387662Y0273680D01*
X0387591Y0273501D01*
X0387514Y0273323D01*
X0387434Y0273147D01*
X0387349Y0272974D01*
X0387260Y0272802D01*
X0387167Y0272633D01*
X0387070Y0272466D01*
X0386968Y0272301D01*
X0386863Y0272139D01*
X0386754Y0271980D01*
X0386640Y0271823D01*
X0386523Y0271670D01*
X0386403Y0271519D01*
X0386278Y0271371D01*
X0386150Y0271226D01*
X0386019Y0271085D01*
X0385884Y0270946D01*
X0385745Y0270811D01*
X0385604Y0270680D01*
X0385459Y0270552D01*
X0385311Y0270427D01*
X0385160Y0270307D01*
X0385007Y0270190D01*
X0384850Y0270076D01*
X0384691Y0269967D01*
X0384529Y0269862D01*
X0384364Y0269760D01*
X0384197Y0269663D01*
X0384028Y0269570D01*
X0383856Y0269481D01*
X0383683Y0269396D01*
X0383507Y0269316D01*
X0383329Y0269239D01*
X0383150Y0269168D01*
X0382969Y0269100D01*
X0382786Y0269037D01*
X0382602Y0268979D01*
X0382416Y0268925D01*
X0382229Y0268876D01*
X0382041Y0268831D01*
X0381852Y0268791D01*
X0381662Y0268756D01*
X0381471Y0268725D01*
X0381280Y0268699D01*
X0381088Y0268678D01*
X0380895Y0268661D01*
X0380702Y0268649D01*
X0380509Y0268642D01*
X0380316Y0268640D01*
X0380123Y0268642D01*
X0379930Y0268649D01*
X0379737Y0268661D01*
X0379544Y0268678D01*
X0379352Y0268699D01*
X0379161Y0268725D01*
X0378970Y0268756D01*
X0378780Y0268791D01*
X0378591Y0268831D01*
X0378403Y0268876D01*
X0378216Y0268925D01*
X0378030Y0268979D01*
X0377846Y0269037D01*
X0377663Y0269100D01*
X0377482Y0269168D01*
X0377303Y0269239D01*
X0377125Y0269316D01*
X0376949Y0269396D01*
X0376776Y0269481D01*
X0376604Y0269570D01*
X0376435Y0269663D01*
X0376268Y0269760D01*
X0376103Y0269862D01*
X0375941Y0269967D01*
X0375782Y0270076D01*
X0375625Y0270190D01*
X0375472Y0270307D01*
X0375321Y0270427D01*
X0375173Y0270552D01*
X0375028Y0270680D01*
X0374887Y0270811D01*
X0374748Y0270946D01*
X0374613Y0271085D01*
X0374482Y0271226D01*
X0374354Y0271371D01*
X0374229Y0271519D01*
X0374109Y0271670D01*
X0373992Y0271823D01*
X0373878Y0271980D01*
X0373769Y0272139D01*
X0373664Y0272301D01*
X0373562Y0272466D01*
X0373465Y0272633D01*
X0373372Y0272802D01*
X0373283Y0272974D01*
X0373198Y0273147D01*
X0373118Y0273323D01*
X0373041Y0273501D01*
X0372970Y0273680D01*
X0372902Y0273861D01*
X0372839Y0274044D01*
X0372781Y0274228D01*
X0372727Y0274414D01*
X0372678Y0274601D01*
X0372633Y0274789D01*
X0372593Y0274978D01*
X0372558Y0275168D01*
X0372527Y0275359D01*
X0372501Y0275550D01*
X0372480Y0275742D01*
X0372463Y0275935D01*
X0372451Y0276128D01*
X0372444Y0276321D01*
X0372442Y0276514D01*
X0372753Y0321475D02*
X0372755Y0321636D01*
X0372761Y0321796D01*
X0372771Y0321957D01*
X0372785Y0322117D01*
X0372803Y0322277D01*
X0372824Y0322436D01*
X0372850Y0322595D01*
X0372880Y0322753D01*
X0372913Y0322910D01*
X0372951Y0323067D01*
X0372992Y0323222D01*
X0373037Y0323376D01*
X0373086Y0323529D01*
X0373139Y0323681D01*
X0373195Y0323832D01*
X0373256Y0323981D01*
X0373319Y0324129D01*
X0373387Y0324275D01*
X0373458Y0324419D01*
X0373532Y0324561D01*
X0373610Y0324702D01*
X0373692Y0324840D01*
X0373777Y0324977D01*
X0373865Y0325111D01*
X0373957Y0325243D01*
X0374052Y0325373D01*
X0374150Y0325501D01*
X0374251Y0325626D01*
X0374355Y0325748D01*
X0374462Y0325868D01*
X0374572Y0325985D01*
X0374685Y0326100D01*
X0374801Y0326211D01*
X0374920Y0326320D01*
X0375041Y0326425D01*
X0375165Y0326528D01*
X0375291Y0326628D01*
X0375419Y0326724D01*
X0375550Y0326817D01*
X0375684Y0326907D01*
X0375819Y0326994D01*
X0375957Y0327077D01*
X0376096Y0327157D01*
X0376238Y0327233D01*
X0376381Y0327306D01*
X0376526Y0327375D01*
X0376673Y0327441D01*
X0376821Y0327503D01*
X0376971Y0327561D01*
X0377122Y0327616D01*
X0377275Y0327667D01*
X0377429Y0327714D01*
X0377584Y0327757D01*
X0377740Y0327796D01*
X0377896Y0327832D01*
X0378054Y0327863D01*
X0378212Y0327891D01*
X0378371Y0327915D01*
X0378531Y0327935D01*
X0378691Y0327951D01*
X0378851Y0327963D01*
X0379012Y0327971D01*
X0379173Y0327975D01*
X0379333Y0327975D01*
X0379494Y0327971D01*
X0379655Y0327963D01*
X0379815Y0327951D01*
X0379975Y0327935D01*
X0380135Y0327915D01*
X0380294Y0327891D01*
X0380452Y0327863D01*
X0380610Y0327832D01*
X0380766Y0327796D01*
X0380922Y0327757D01*
X0381077Y0327714D01*
X0381231Y0327667D01*
X0381384Y0327616D01*
X0381535Y0327561D01*
X0381685Y0327503D01*
X0381833Y0327441D01*
X0381980Y0327375D01*
X0382125Y0327306D01*
X0382268Y0327233D01*
X0382410Y0327157D01*
X0382549Y0327077D01*
X0382687Y0326994D01*
X0382822Y0326907D01*
X0382956Y0326817D01*
X0383087Y0326724D01*
X0383215Y0326628D01*
X0383341Y0326528D01*
X0383465Y0326425D01*
X0383586Y0326320D01*
X0383705Y0326211D01*
X0383821Y0326100D01*
X0383934Y0325985D01*
X0384044Y0325868D01*
X0384151Y0325748D01*
X0384255Y0325626D01*
X0384356Y0325501D01*
X0384454Y0325373D01*
X0384549Y0325243D01*
X0384641Y0325111D01*
X0384729Y0324977D01*
X0384814Y0324840D01*
X0384896Y0324702D01*
X0384974Y0324561D01*
X0385048Y0324419D01*
X0385119Y0324275D01*
X0385187Y0324129D01*
X0385250Y0323981D01*
X0385311Y0323832D01*
X0385367Y0323681D01*
X0385420Y0323529D01*
X0385469Y0323376D01*
X0385514Y0323222D01*
X0385555Y0323067D01*
X0385593Y0322910D01*
X0385626Y0322753D01*
X0385656Y0322595D01*
X0385682Y0322436D01*
X0385703Y0322277D01*
X0385721Y0322117D01*
X0385735Y0321957D01*
X0385745Y0321796D01*
X0385751Y0321636D01*
X0385753Y0321475D01*
X0385751Y0321314D01*
X0385745Y0321154D01*
X0385735Y0320993D01*
X0385721Y0320833D01*
X0385703Y0320673D01*
X0385682Y0320514D01*
X0385656Y0320355D01*
X0385626Y0320197D01*
X0385593Y0320040D01*
X0385555Y0319883D01*
X0385514Y0319728D01*
X0385469Y0319574D01*
X0385420Y0319421D01*
X0385367Y0319269D01*
X0385311Y0319118D01*
X0385250Y0318969D01*
X0385187Y0318821D01*
X0385119Y0318675D01*
X0385048Y0318531D01*
X0384974Y0318389D01*
X0384896Y0318248D01*
X0384814Y0318110D01*
X0384729Y0317973D01*
X0384641Y0317839D01*
X0384549Y0317707D01*
X0384454Y0317577D01*
X0384356Y0317449D01*
X0384255Y0317324D01*
X0384151Y0317202D01*
X0384044Y0317082D01*
X0383934Y0316965D01*
X0383821Y0316850D01*
X0383705Y0316739D01*
X0383586Y0316630D01*
X0383465Y0316525D01*
X0383341Y0316422D01*
X0383215Y0316322D01*
X0383087Y0316226D01*
X0382956Y0316133D01*
X0382822Y0316043D01*
X0382687Y0315956D01*
X0382549Y0315873D01*
X0382410Y0315793D01*
X0382268Y0315717D01*
X0382125Y0315644D01*
X0381980Y0315575D01*
X0381833Y0315509D01*
X0381685Y0315447D01*
X0381535Y0315389D01*
X0381384Y0315334D01*
X0381231Y0315283D01*
X0381077Y0315236D01*
X0380922Y0315193D01*
X0380766Y0315154D01*
X0380610Y0315118D01*
X0380452Y0315087D01*
X0380294Y0315059D01*
X0380135Y0315035D01*
X0379975Y0315015D01*
X0379815Y0314999D01*
X0379655Y0314987D01*
X0379494Y0314979D01*
X0379333Y0314975D01*
X0379173Y0314975D01*
X0379012Y0314979D01*
X0378851Y0314987D01*
X0378691Y0314999D01*
X0378531Y0315015D01*
X0378371Y0315035D01*
X0378212Y0315059D01*
X0378054Y0315087D01*
X0377896Y0315118D01*
X0377740Y0315154D01*
X0377584Y0315193D01*
X0377429Y0315236D01*
X0377275Y0315283D01*
X0377122Y0315334D01*
X0376971Y0315389D01*
X0376821Y0315447D01*
X0376673Y0315509D01*
X0376526Y0315575D01*
X0376381Y0315644D01*
X0376238Y0315717D01*
X0376096Y0315793D01*
X0375957Y0315873D01*
X0375819Y0315956D01*
X0375684Y0316043D01*
X0375550Y0316133D01*
X0375419Y0316226D01*
X0375291Y0316322D01*
X0375165Y0316422D01*
X0375041Y0316525D01*
X0374920Y0316630D01*
X0374801Y0316739D01*
X0374685Y0316850D01*
X0374572Y0316965D01*
X0374462Y0317082D01*
X0374355Y0317202D01*
X0374251Y0317324D01*
X0374150Y0317449D01*
X0374052Y0317577D01*
X0373957Y0317707D01*
X0373865Y0317839D01*
X0373777Y0317973D01*
X0373692Y0318110D01*
X0373610Y0318248D01*
X0373532Y0318389D01*
X0373458Y0318531D01*
X0373387Y0318675D01*
X0373319Y0318821D01*
X0373256Y0318969D01*
X0373195Y0319118D01*
X0373139Y0319269D01*
X0373086Y0319421D01*
X0373037Y0319574D01*
X0372992Y0319728D01*
X0372951Y0319883D01*
X0372913Y0320040D01*
X0372880Y0320197D01*
X0372850Y0320355D01*
X0372824Y0320514D01*
X0372803Y0320673D01*
X0372785Y0320833D01*
X0372771Y0320993D01*
X0372761Y0321154D01*
X0372755Y0321314D01*
X0372753Y0321475D01*
D11*
X0133800Y0212263D02*
X0118800Y0212263D01*
X0140591Y0086318D02*
X0140591Y0068207D01*
X0142363Y0068207D01*
X0150237Y0068207D02*
X0152009Y0068207D01*
X0152009Y0086318D01*
X0150237Y0086318D01*
X0142363Y0086318D02*
X0140591Y0086318D01*
X0142363Y0081200D02*
X0150237Y0081200D01*
X0205591Y0086318D02*
X0205591Y0068207D01*
X0207363Y0068207D01*
X0215237Y0068207D02*
X0217009Y0068207D01*
X0217009Y0086318D01*
X0215237Y0086318D01*
X0207363Y0086318D02*
X0205591Y0086318D01*
X0207363Y0073326D02*
X0215237Y0073326D01*
X0290591Y0068207D02*
X0292363Y0068207D01*
X0290591Y0068207D02*
X0290591Y0086318D01*
X0292363Y0086318D01*
X0292363Y0081200D02*
X0300237Y0081200D01*
X0300237Y0086318D02*
X0302009Y0086318D01*
X0302009Y0068207D01*
X0300237Y0068207D01*
X0077009Y0068207D02*
X0077009Y0086318D01*
X0075237Y0086318D01*
X0067363Y0086318D02*
X0065591Y0086318D01*
X0065591Y0068207D01*
X0067363Y0068207D01*
X0067363Y0073326D02*
X0075237Y0073326D01*
X0075237Y0068207D02*
X0077009Y0068207D01*
D12*
X0081833Y0073175D02*
X0082667Y0073175D01*
X0082667Y0073176D02*
X0082702Y0073178D01*
X0082736Y0073183D01*
X0082770Y0073192D01*
X0082802Y0073205D01*
X0082833Y0073221D01*
X0082863Y0073240D01*
X0082890Y0073262D01*
X0082914Y0073286D01*
X0082936Y0073313D01*
X0082955Y0073342D01*
X0082971Y0073374D01*
X0082984Y0073406D01*
X0082993Y0073440D01*
X0082998Y0073474D01*
X0083000Y0073509D01*
X0083000Y0073842D01*
X0082333Y0074379D02*
X0081917Y0074379D01*
X0082333Y0074379D02*
X0082333Y0074879D01*
X0082333Y0074379D02*
X0082383Y0074381D01*
X0082432Y0074386D01*
X0082481Y0074396D01*
X0082530Y0074409D01*
X0082577Y0074425D01*
X0082622Y0074445D01*
X0082666Y0074468D01*
X0082709Y0074495D01*
X0082749Y0074525D01*
X0082787Y0074557D01*
X0082822Y0074592D01*
X0082854Y0074630D01*
X0082884Y0074670D01*
X0082911Y0074712D01*
X0082934Y0074757D01*
X0082954Y0074802D01*
X0082970Y0074849D01*
X0082983Y0074898D01*
X0082993Y0074947D01*
X0082998Y0074996D01*
X0083000Y0075046D01*
X0082000Y0075213D02*
X0081917Y0075213D01*
X0082000Y0075212D02*
X0082035Y0075210D01*
X0082069Y0075205D01*
X0082103Y0075196D01*
X0082135Y0075183D01*
X0082167Y0075167D01*
X0082196Y0075148D01*
X0082223Y0075126D01*
X0082247Y0075102D01*
X0082269Y0075075D01*
X0082288Y0075046D01*
X0082304Y0075014D01*
X0082317Y0074982D01*
X0082326Y0074948D01*
X0082331Y0074914D01*
X0082333Y0074879D01*
X0081917Y0075213D02*
X0081877Y0075211D01*
X0081838Y0075205D01*
X0081800Y0075196D01*
X0081762Y0075183D01*
X0081726Y0075167D01*
X0081692Y0075147D01*
X0081659Y0075124D01*
X0081629Y0075098D01*
X0081602Y0075069D01*
X0081577Y0075038D01*
X0081556Y0075005D01*
X0081538Y0074969D01*
X0081523Y0074932D01*
X0081512Y0074894D01*
X0081504Y0074855D01*
X0081500Y0074816D01*
X0081500Y0074776D01*
X0081504Y0074737D01*
X0081512Y0074698D01*
X0081523Y0074660D01*
X0081538Y0074623D01*
X0081556Y0074588D01*
X0081577Y0074554D01*
X0081602Y0074523D01*
X0081629Y0074494D01*
X0081659Y0074468D01*
X0081692Y0074445D01*
X0081726Y0074425D01*
X0081762Y0074409D01*
X0081800Y0074396D01*
X0081838Y0074387D01*
X0081877Y0074381D01*
X0081917Y0074379D01*
X0081500Y0073842D02*
X0081500Y0073509D01*
X0081502Y0073474D01*
X0081507Y0073440D01*
X0081516Y0073406D01*
X0081529Y0073374D01*
X0081545Y0073343D01*
X0081564Y0073313D01*
X0081586Y0073286D01*
X0081610Y0073262D01*
X0081637Y0073240D01*
X0081667Y0073221D01*
X0081698Y0073205D01*
X0081730Y0073192D01*
X0081764Y0073183D01*
X0081798Y0073178D01*
X0081833Y0073176D01*
X0064750Y0082451D02*
X0064750Y0082868D01*
X0064748Y0082906D01*
X0064743Y0082945D01*
X0064734Y0082982D01*
X0064722Y0083019D01*
X0064706Y0083054D01*
X0064688Y0083088D01*
X0064666Y0083119D01*
X0064641Y0083149D01*
X0064614Y0083176D01*
X0064584Y0083201D01*
X0064553Y0083223D01*
X0064519Y0083241D01*
X0064484Y0083257D01*
X0064447Y0083269D01*
X0064410Y0083278D01*
X0064371Y0083283D01*
X0064333Y0083285D01*
X0063667Y0083285D01*
X0063629Y0083283D01*
X0063590Y0083278D01*
X0063553Y0083269D01*
X0063516Y0083257D01*
X0063481Y0083241D01*
X0063447Y0083223D01*
X0063416Y0083201D01*
X0063386Y0083176D01*
X0063359Y0083149D01*
X0063334Y0083119D01*
X0063312Y0083088D01*
X0063294Y0083054D01*
X0063278Y0083019D01*
X0063266Y0082982D01*
X0063257Y0082945D01*
X0063252Y0082906D01*
X0063250Y0082868D01*
X0063250Y0082451D01*
X0064750Y0082451D01*
X0064750Y0083939D02*
X0064750Y0084439D01*
X0064748Y0084474D01*
X0064743Y0084508D01*
X0064734Y0084542D01*
X0064721Y0084574D01*
X0064705Y0084606D01*
X0064686Y0084635D01*
X0064664Y0084662D01*
X0064640Y0084686D01*
X0064613Y0084708D01*
X0064584Y0084727D01*
X0064552Y0084743D01*
X0064520Y0084756D01*
X0064486Y0084765D01*
X0064452Y0084770D01*
X0064417Y0084772D01*
X0064382Y0084770D01*
X0064348Y0084765D01*
X0064314Y0084756D01*
X0064282Y0084743D01*
X0064251Y0084727D01*
X0064221Y0084708D01*
X0064194Y0084686D01*
X0064170Y0084662D01*
X0064148Y0084635D01*
X0064129Y0084606D01*
X0064113Y0084574D01*
X0064100Y0084542D01*
X0064091Y0084508D01*
X0064086Y0084474D01*
X0064084Y0084439D01*
X0064083Y0084439D02*
X0064083Y0084106D01*
X0064084Y0084356D02*
X0064082Y0084396D01*
X0064076Y0084435D01*
X0064067Y0084473D01*
X0064054Y0084511D01*
X0064038Y0084547D01*
X0064018Y0084581D01*
X0063995Y0084614D01*
X0063969Y0084644D01*
X0063940Y0084671D01*
X0063909Y0084696D01*
X0063876Y0084717D01*
X0063840Y0084735D01*
X0063803Y0084750D01*
X0063765Y0084761D01*
X0063726Y0084769D01*
X0063687Y0084773D01*
X0063647Y0084773D01*
X0063608Y0084769D01*
X0063569Y0084761D01*
X0063531Y0084750D01*
X0063494Y0084735D01*
X0063459Y0084717D01*
X0063425Y0084696D01*
X0063394Y0084671D01*
X0063365Y0084644D01*
X0063339Y0084614D01*
X0063316Y0084581D01*
X0063296Y0084547D01*
X0063280Y0084511D01*
X0063267Y0084473D01*
X0063258Y0084435D01*
X0063252Y0084396D01*
X0063250Y0084356D01*
X0063250Y0083939D01*
X0063250Y0085379D02*
X0063250Y0086213D01*
X0063250Y0085379D02*
X0064083Y0086088D01*
X0064750Y0085838D02*
X0064748Y0085798D01*
X0064743Y0085758D01*
X0064735Y0085718D01*
X0064723Y0085679D01*
X0064708Y0085642D01*
X0064690Y0085606D01*
X0064669Y0085571D01*
X0064646Y0085538D01*
X0064619Y0085508D01*
X0064590Y0085480D01*
X0064559Y0085454D01*
X0064526Y0085431D01*
X0064491Y0085411D01*
X0064454Y0085393D01*
X0064416Y0085379D01*
X0064083Y0086088D02*
X0064109Y0086113D01*
X0064138Y0086136D01*
X0064168Y0086156D01*
X0064200Y0086173D01*
X0064233Y0086187D01*
X0064268Y0086198D01*
X0064303Y0086206D01*
X0064339Y0086211D01*
X0064375Y0086213D01*
X0064412Y0086211D01*
X0064448Y0086206D01*
X0064484Y0086197D01*
X0064519Y0086184D01*
X0064552Y0086169D01*
X0064583Y0086150D01*
X0064613Y0086128D01*
X0064640Y0086103D01*
X0064665Y0086076D01*
X0064687Y0086046D01*
X0064706Y0086015D01*
X0064721Y0085982D01*
X0064734Y0085947D01*
X0064743Y0085911D01*
X0064748Y0085875D01*
X0064750Y0085838D01*
X0073350Y0122463D02*
X0074183Y0122463D01*
X0073767Y0122463D02*
X0073767Y0123963D01*
X0074183Y0123629D01*
X0075207Y0123963D02*
X0075207Y0122463D01*
X0075623Y0122463D02*
X0074790Y0122463D01*
X0076222Y0122463D02*
X0076555Y0123129D01*
X0076638Y0123129D02*
X0077055Y0123129D01*
X0076638Y0123129D02*
X0076598Y0123131D01*
X0076559Y0123137D01*
X0076521Y0123146D01*
X0076483Y0123159D01*
X0076447Y0123175D01*
X0076413Y0123195D01*
X0076380Y0123218D01*
X0076350Y0123244D01*
X0076323Y0123273D01*
X0076298Y0123304D01*
X0076277Y0123338D01*
X0076259Y0123373D01*
X0076244Y0123410D01*
X0076233Y0123448D01*
X0076225Y0123487D01*
X0076221Y0123526D01*
X0076221Y0123566D01*
X0076225Y0123605D01*
X0076233Y0123644D01*
X0076244Y0123682D01*
X0076259Y0123719D01*
X0076277Y0123755D01*
X0076298Y0123788D01*
X0076323Y0123819D01*
X0076350Y0123848D01*
X0076380Y0123874D01*
X0076413Y0123897D01*
X0076447Y0123917D01*
X0076483Y0123933D01*
X0076521Y0123946D01*
X0076559Y0123955D01*
X0076598Y0123961D01*
X0076638Y0123963D01*
X0077055Y0123963D01*
X0077055Y0122463D01*
X0075623Y0123629D02*
X0075207Y0123963D01*
X0113130Y0101813D02*
X0113130Y0100313D01*
X0113546Y0100313D02*
X0112713Y0100313D01*
X0114083Y0100313D02*
X0114417Y0100313D01*
X0114452Y0100315D01*
X0114486Y0100320D01*
X0114520Y0100329D01*
X0114552Y0100342D01*
X0114584Y0100358D01*
X0114613Y0100377D01*
X0114640Y0100399D01*
X0114664Y0100423D01*
X0114686Y0100450D01*
X0114705Y0100480D01*
X0114721Y0100511D01*
X0114734Y0100543D01*
X0114743Y0100577D01*
X0114748Y0100611D01*
X0114750Y0100646D01*
X0114750Y0101479D01*
X0114748Y0101514D01*
X0114743Y0101548D01*
X0114734Y0101582D01*
X0114721Y0101614D01*
X0114705Y0101645D01*
X0114686Y0101675D01*
X0114664Y0101702D01*
X0114640Y0101726D01*
X0114613Y0101748D01*
X0114584Y0101767D01*
X0114552Y0101783D01*
X0114520Y0101796D01*
X0114486Y0101805D01*
X0114452Y0101810D01*
X0114417Y0101812D01*
X0114417Y0101813D02*
X0114083Y0101813D01*
X0113546Y0101479D02*
X0113130Y0101813D01*
X0149058Y0097671D02*
X0149084Y0097728D01*
X0149107Y0097786D01*
X0149127Y0097845D01*
X0149144Y0097905D01*
X0149158Y0097966D01*
X0149169Y0098027D01*
X0149177Y0098089D01*
X0149181Y0098151D01*
X0149183Y0098213D01*
X0148350Y0098213D02*
X0148352Y0098275D01*
X0148356Y0098337D01*
X0148364Y0098399D01*
X0148375Y0098460D01*
X0148389Y0098521D01*
X0148406Y0098581D01*
X0148426Y0098640D01*
X0148449Y0098698D01*
X0148475Y0098755D01*
X0148433Y0098629D02*
X0149100Y0097796D01*
X0148767Y0097463D02*
X0148735Y0097465D01*
X0148704Y0097470D01*
X0148673Y0097478D01*
X0148643Y0097489D01*
X0148615Y0097503D01*
X0148588Y0097520D01*
X0148563Y0097540D01*
X0148540Y0097562D01*
X0148520Y0097587D01*
X0148502Y0097613D01*
X0148488Y0097642D01*
X0148476Y0097671D01*
X0148767Y0097463D02*
X0148799Y0097465D01*
X0148830Y0097470D01*
X0148861Y0097478D01*
X0148891Y0097489D01*
X0148919Y0097503D01*
X0148946Y0097520D01*
X0148971Y0097540D01*
X0148994Y0097562D01*
X0149014Y0097587D01*
X0149032Y0097613D01*
X0149046Y0097642D01*
X0149058Y0097671D01*
X0148475Y0097671D02*
X0148449Y0097728D01*
X0148426Y0097786D01*
X0148406Y0097845D01*
X0148389Y0097905D01*
X0148375Y0097966D01*
X0148364Y0098027D01*
X0148356Y0098089D01*
X0148352Y0098151D01*
X0148350Y0098213D01*
X0149183Y0098213D02*
X0149181Y0098275D01*
X0149177Y0098337D01*
X0149169Y0098399D01*
X0149158Y0098460D01*
X0149144Y0098521D01*
X0149127Y0098581D01*
X0149107Y0098640D01*
X0149084Y0098698D01*
X0149058Y0098755D01*
X0148767Y0098962D02*
X0148735Y0098960D01*
X0148704Y0098955D01*
X0148673Y0098947D01*
X0148643Y0098936D01*
X0148615Y0098922D01*
X0148588Y0098905D01*
X0148563Y0098885D01*
X0148540Y0098863D01*
X0148520Y0098838D01*
X0148502Y0098812D01*
X0148488Y0098783D01*
X0148476Y0098754D01*
X0148767Y0098962D02*
X0148799Y0098960D01*
X0148830Y0098955D01*
X0148861Y0098947D01*
X0148891Y0098936D01*
X0148919Y0098922D01*
X0148946Y0098905D01*
X0148971Y0098885D01*
X0148994Y0098863D01*
X0149014Y0098838D01*
X0149032Y0098812D01*
X0149046Y0098783D01*
X0149058Y0098754D01*
X0150207Y0098963D02*
X0150207Y0097463D01*
X0150623Y0097463D02*
X0149790Y0097463D01*
X0151222Y0097463D02*
X0151555Y0098129D01*
X0151638Y0098129D02*
X0152055Y0098129D01*
X0151638Y0098129D02*
X0151598Y0098131D01*
X0151559Y0098137D01*
X0151521Y0098146D01*
X0151483Y0098159D01*
X0151447Y0098175D01*
X0151413Y0098195D01*
X0151380Y0098218D01*
X0151350Y0098244D01*
X0151323Y0098273D01*
X0151298Y0098304D01*
X0151277Y0098338D01*
X0151259Y0098373D01*
X0151244Y0098410D01*
X0151233Y0098448D01*
X0151225Y0098487D01*
X0151221Y0098526D01*
X0151221Y0098566D01*
X0151225Y0098605D01*
X0151233Y0098644D01*
X0151244Y0098682D01*
X0151259Y0098719D01*
X0151277Y0098755D01*
X0151298Y0098788D01*
X0151323Y0098819D01*
X0151350Y0098848D01*
X0151380Y0098874D01*
X0151413Y0098897D01*
X0151447Y0098917D01*
X0151483Y0098933D01*
X0151521Y0098946D01*
X0151559Y0098955D01*
X0151598Y0098961D01*
X0151638Y0098963D01*
X0152055Y0098963D01*
X0152055Y0097463D01*
X0150623Y0098629D02*
X0150207Y0098963D01*
X0177167Y0080213D02*
X0177583Y0080213D01*
X0177167Y0080213D02*
X0177167Y0079713D01*
X0177167Y0080213D02*
X0177117Y0080211D01*
X0177068Y0080206D01*
X0177019Y0080196D01*
X0176970Y0080183D01*
X0176923Y0080167D01*
X0176878Y0080147D01*
X0176834Y0080124D01*
X0176791Y0080097D01*
X0176751Y0080067D01*
X0176713Y0080035D01*
X0176678Y0080000D01*
X0176646Y0079962D01*
X0176616Y0079922D01*
X0176589Y0079880D01*
X0176566Y0079835D01*
X0176546Y0079790D01*
X0176530Y0079743D01*
X0176517Y0079694D01*
X0176507Y0079645D01*
X0176502Y0079596D01*
X0176500Y0079546D01*
X0176500Y0078781D02*
X0177167Y0078447D01*
X0177167Y0078364D02*
X0177167Y0077947D01*
X0177166Y0078364D02*
X0177168Y0078404D01*
X0177174Y0078443D01*
X0177183Y0078481D01*
X0177196Y0078519D01*
X0177212Y0078555D01*
X0177232Y0078589D01*
X0177255Y0078622D01*
X0177281Y0078652D01*
X0177310Y0078679D01*
X0177341Y0078704D01*
X0177375Y0078725D01*
X0177410Y0078743D01*
X0177447Y0078758D01*
X0177485Y0078769D01*
X0177524Y0078777D01*
X0177563Y0078781D01*
X0177603Y0078781D01*
X0177642Y0078777D01*
X0177681Y0078769D01*
X0177719Y0078758D01*
X0177756Y0078743D01*
X0177792Y0078725D01*
X0177825Y0078704D01*
X0177856Y0078679D01*
X0177885Y0078652D01*
X0177911Y0078622D01*
X0177934Y0078589D01*
X0177954Y0078555D01*
X0177970Y0078519D01*
X0177983Y0078481D01*
X0177992Y0078443D01*
X0177998Y0078404D01*
X0178000Y0078364D01*
X0178000Y0077947D01*
X0176500Y0077947D01*
X0177500Y0079379D02*
X0177583Y0079379D01*
X0177500Y0079380D02*
X0177465Y0079382D01*
X0177431Y0079387D01*
X0177397Y0079396D01*
X0177365Y0079409D01*
X0177334Y0079425D01*
X0177304Y0079444D01*
X0177277Y0079466D01*
X0177253Y0079490D01*
X0177231Y0079517D01*
X0177212Y0079547D01*
X0177196Y0079578D01*
X0177183Y0079610D01*
X0177174Y0079644D01*
X0177169Y0079678D01*
X0177167Y0079713D01*
X0177583Y0079379D02*
X0177623Y0079381D01*
X0177662Y0079387D01*
X0177700Y0079396D01*
X0177738Y0079409D01*
X0177774Y0079425D01*
X0177808Y0079445D01*
X0177841Y0079468D01*
X0177871Y0079494D01*
X0177898Y0079523D01*
X0177923Y0079554D01*
X0177944Y0079588D01*
X0177962Y0079623D01*
X0177977Y0079660D01*
X0177988Y0079698D01*
X0177996Y0079737D01*
X0178000Y0079776D01*
X0178000Y0079816D01*
X0177996Y0079855D01*
X0177988Y0079894D01*
X0177977Y0079932D01*
X0177962Y0079969D01*
X0177944Y0080005D01*
X0177923Y0080038D01*
X0177898Y0080069D01*
X0177871Y0080098D01*
X0177841Y0080124D01*
X0177808Y0080147D01*
X0177774Y0080167D01*
X0177738Y0080183D01*
X0177700Y0080196D01*
X0177662Y0080205D01*
X0177623Y0080211D01*
X0177583Y0080213D01*
X0154350Y0071657D02*
X0152850Y0071657D01*
X0152850Y0071241D02*
X0152850Y0072074D01*
X0154017Y0071241D02*
X0154350Y0071657D01*
X0154350Y0070301D02*
X0154350Y0069801D01*
X0154350Y0070301D02*
X0154348Y0070336D01*
X0154343Y0070370D01*
X0154334Y0070404D01*
X0154321Y0070436D01*
X0154305Y0070468D01*
X0154286Y0070497D01*
X0154264Y0070524D01*
X0154240Y0070548D01*
X0154213Y0070570D01*
X0154184Y0070589D01*
X0154152Y0070605D01*
X0154120Y0070618D01*
X0154086Y0070627D01*
X0154052Y0070632D01*
X0154017Y0070634D01*
X0153982Y0070632D01*
X0153948Y0070627D01*
X0153914Y0070618D01*
X0153882Y0070605D01*
X0153851Y0070589D01*
X0153821Y0070570D01*
X0153794Y0070548D01*
X0153770Y0070524D01*
X0153748Y0070497D01*
X0153729Y0070468D01*
X0153713Y0070436D01*
X0153700Y0070404D01*
X0153691Y0070370D01*
X0153686Y0070336D01*
X0153684Y0070301D01*
X0153683Y0070301D02*
X0153683Y0069967D01*
X0153684Y0070217D02*
X0153682Y0070257D01*
X0153676Y0070296D01*
X0153667Y0070334D01*
X0153654Y0070372D01*
X0153638Y0070408D01*
X0153618Y0070442D01*
X0153595Y0070475D01*
X0153569Y0070505D01*
X0153540Y0070532D01*
X0153509Y0070557D01*
X0153476Y0070578D01*
X0153440Y0070596D01*
X0153403Y0070611D01*
X0153365Y0070622D01*
X0153326Y0070630D01*
X0153287Y0070634D01*
X0153247Y0070634D01*
X0153208Y0070630D01*
X0153169Y0070622D01*
X0153131Y0070611D01*
X0153094Y0070596D01*
X0153059Y0070578D01*
X0153025Y0070557D01*
X0152994Y0070532D01*
X0152965Y0070505D01*
X0152939Y0070475D01*
X0152916Y0070442D01*
X0152896Y0070408D01*
X0152880Y0070372D01*
X0152867Y0070334D01*
X0152858Y0070296D01*
X0152852Y0070257D01*
X0152850Y0070217D01*
X0152850Y0069801D01*
X0153267Y0069146D02*
X0153933Y0069146D01*
X0153971Y0069144D01*
X0154010Y0069139D01*
X0154047Y0069130D01*
X0154084Y0069118D01*
X0154119Y0069102D01*
X0154153Y0069084D01*
X0154184Y0069062D01*
X0154214Y0069037D01*
X0154241Y0069010D01*
X0154266Y0068980D01*
X0154288Y0068949D01*
X0154306Y0068915D01*
X0154322Y0068880D01*
X0154334Y0068843D01*
X0154343Y0068806D01*
X0154348Y0068767D01*
X0154350Y0068729D01*
X0154350Y0068313D01*
X0152850Y0068313D01*
X0152850Y0068729D01*
X0152852Y0068767D01*
X0152857Y0068806D01*
X0152866Y0068843D01*
X0152878Y0068880D01*
X0152894Y0068915D01*
X0152912Y0068949D01*
X0152934Y0068980D01*
X0152959Y0069010D01*
X0152986Y0069037D01*
X0153016Y0069062D01*
X0153047Y0069084D01*
X0153081Y0069102D01*
X0153116Y0069118D01*
X0153153Y0069130D01*
X0153190Y0069139D01*
X0153229Y0069144D01*
X0153267Y0069146D01*
X0203250Y0082451D02*
X0203250Y0082868D01*
X0203252Y0082906D01*
X0203257Y0082945D01*
X0203266Y0082982D01*
X0203278Y0083019D01*
X0203294Y0083054D01*
X0203312Y0083088D01*
X0203334Y0083119D01*
X0203359Y0083149D01*
X0203386Y0083176D01*
X0203416Y0083201D01*
X0203447Y0083223D01*
X0203481Y0083241D01*
X0203516Y0083257D01*
X0203553Y0083269D01*
X0203590Y0083278D01*
X0203629Y0083283D01*
X0203667Y0083285D01*
X0204333Y0083285D01*
X0204371Y0083283D01*
X0204410Y0083278D01*
X0204447Y0083269D01*
X0204484Y0083257D01*
X0204519Y0083241D01*
X0204553Y0083223D01*
X0204584Y0083201D01*
X0204614Y0083176D01*
X0204641Y0083149D01*
X0204666Y0083119D01*
X0204688Y0083088D01*
X0204706Y0083054D01*
X0204722Y0083019D01*
X0204734Y0082982D01*
X0204743Y0082945D01*
X0204748Y0082906D01*
X0204750Y0082868D01*
X0204750Y0082451D01*
X0203250Y0082451D01*
X0203250Y0083939D02*
X0203250Y0084356D01*
X0203252Y0084396D01*
X0203258Y0084435D01*
X0203267Y0084473D01*
X0203280Y0084511D01*
X0203296Y0084547D01*
X0203316Y0084581D01*
X0203339Y0084614D01*
X0203365Y0084644D01*
X0203394Y0084671D01*
X0203425Y0084696D01*
X0203459Y0084717D01*
X0203494Y0084735D01*
X0203531Y0084750D01*
X0203569Y0084761D01*
X0203608Y0084769D01*
X0203647Y0084773D01*
X0203687Y0084773D01*
X0203726Y0084769D01*
X0203765Y0084761D01*
X0203803Y0084750D01*
X0203840Y0084735D01*
X0203876Y0084717D01*
X0203909Y0084696D01*
X0203940Y0084671D01*
X0203969Y0084644D01*
X0203995Y0084614D01*
X0204018Y0084581D01*
X0204038Y0084547D01*
X0204054Y0084511D01*
X0204067Y0084473D01*
X0204076Y0084435D01*
X0204082Y0084396D01*
X0204084Y0084356D01*
X0204083Y0084439D02*
X0204083Y0084106D01*
X0204084Y0084439D02*
X0204086Y0084474D01*
X0204091Y0084508D01*
X0204100Y0084542D01*
X0204113Y0084574D01*
X0204129Y0084606D01*
X0204148Y0084635D01*
X0204170Y0084662D01*
X0204194Y0084686D01*
X0204221Y0084708D01*
X0204251Y0084727D01*
X0204282Y0084743D01*
X0204314Y0084756D01*
X0204348Y0084765D01*
X0204382Y0084770D01*
X0204417Y0084772D01*
X0204452Y0084770D01*
X0204486Y0084765D01*
X0204520Y0084756D01*
X0204552Y0084743D01*
X0204584Y0084727D01*
X0204613Y0084708D01*
X0204640Y0084686D01*
X0204664Y0084662D01*
X0204686Y0084635D01*
X0204705Y0084606D01*
X0204721Y0084574D01*
X0204734Y0084542D01*
X0204743Y0084508D01*
X0204748Y0084474D01*
X0204750Y0084439D01*
X0204750Y0083939D01*
X0204000Y0086212D02*
X0203938Y0086210D01*
X0203876Y0086206D01*
X0203814Y0086198D01*
X0203753Y0086187D01*
X0203692Y0086173D01*
X0203632Y0086156D01*
X0203573Y0086136D01*
X0203515Y0086113D01*
X0203458Y0086087D01*
X0203429Y0086075D01*
X0203400Y0086061D01*
X0203374Y0086043D01*
X0203349Y0086023D01*
X0203327Y0086000D01*
X0203307Y0085975D01*
X0203290Y0085948D01*
X0203276Y0085920D01*
X0203265Y0085890D01*
X0203257Y0085859D01*
X0203252Y0085828D01*
X0203250Y0085796D01*
X0203252Y0085764D01*
X0203257Y0085733D01*
X0203265Y0085702D01*
X0203276Y0085672D01*
X0203290Y0085644D01*
X0203307Y0085617D01*
X0203327Y0085592D01*
X0203349Y0085569D01*
X0203374Y0085549D01*
X0203400Y0085531D01*
X0203429Y0085517D01*
X0203458Y0085505D01*
X0203583Y0085463D02*
X0204417Y0086129D01*
X0204542Y0086087D02*
X0204571Y0086075D01*
X0204600Y0086061D01*
X0204626Y0086043D01*
X0204651Y0086023D01*
X0204673Y0086000D01*
X0204693Y0085975D01*
X0204710Y0085948D01*
X0204724Y0085920D01*
X0204735Y0085890D01*
X0204743Y0085859D01*
X0204748Y0085828D01*
X0204750Y0085796D01*
X0204748Y0085764D01*
X0204743Y0085733D01*
X0204735Y0085702D01*
X0204724Y0085672D01*
X0204710Y0085644D01*
X0204693Y0085617D01*
X0204673Y0085592D01*
X0204651Y0085569D01*
X0204626Y0085549D01*
X0204600Y0085531D01*
X0204571Y0085517D01*
X0204542Y0085505D01*
X0204542Y0086087D02*
X0204485Y0086113D01*
X0204427Y0086136D01*
X0204368Y0086156D01*
X0204308Y0086173D01*
X0204247Y0086187D01*
X0204186Y0086198D01*
X0204124Y0086206D01*
X0204062Y0086210D01*
X0204000Y0086212D01*
X0204000Y0085379D02*
X0204062Y0085381D01*
X0204124Y0085385D01*
X0204186Y0085393D01*
X0204247Y0085404D01*
X0204308Y0085418D01*
X0204368Y0085435D01*
X0204427Y0085455D01*
X0204485Y0085478D01*
X0204542Y0085504D01*
X0204000Y0085379D02*
X0203938Y0085381D01*
X0203876Y0085385D01*
X0203814Y0085393D01*
X0203753Y0085404D01*
X0203692Y0085418D01*
X0203632Y0085435D01*
X0203573Y0085455D01*
X0203515Y0085478D01*
X0203458Y0085504D01*
X0211500Y0106507D02*
X0213000Y0106507D01*
X0213000Y0106924D01*
X0212998Y0106964D01*
X0212992Y0107003D01*
X0212983Y0107041D01*
X0212970Y0107079D01*
X0212954Y0107115D01*
X0212934Y0107149D01*
X0212911Y0107182D01*
X0212885Y0107212D01*
X0212856Y0107239D01*
X0212825Y0107264D01*
X0212792Y0107285D01*
X0212756Y0107303D01*
X0212719Y0107318D01*
X0212681Y0107329D01*
X0212642Y0107337D01*
X0212603Y0107341D01*
X0212563Y0107341D01*
X0212524Y0107337D01*
X0212485Y0107329D01*
X0212447Y0107318D01*
X0212410Y0107303D01*
X0212375Y0107285D01*
X0212341Y0107264D01*
X0212310Y0107239D01*
X0212281Y0107212D01*
X0212255Y0107182D01*
X0212232Y0107149D01*
X0212212Y0107115D01*
X0212196Y0107079D01*
X0212183Y0107041D01*
X0212174Y0107003D01*
X0212168Y0106964D01*
X0212166Y0106924D01*
X0212167Y0106924D02*
X0212167Y0106507D01*
X0212167Y0107007D02*
X0211500Y0107341D01*
X0211500Y0107939D02*
X0211500Y0108773D01*
X0211500Y0108356D02*
X0213000Y0108356D01*
X0212667Y0107939D01*
X0211833Y0109379D02*
X0211833Y0110213D01*
X0211500Y0109963D02*
X0212167Y0109963D01*
X0211833Y0109379D02*
X0213000Y0109713D01*
X0234933Y0076350D02*
X0235100Y0076350D01*
X0235100Y0076349D02*
X0235135Y0076347D01*
X0235169Y0076342D01*
X0235203Y0076333D01*
X0235235Y0076320D01*
X0235267Y0076304D01*
X0235296Y0076285D01*
X0235323Y0076263D01*
X0235347Y0076239D01*
X0235369Y0076212D01*
X0235388Y0076183D01*
X0235404Y0076151D01*
X0235417Y0076119D01*
X0235426Y0076085D01*
X0235431Y0076051D01*
X0235433Y0076016D01*
X0235433Y0075516D01*
X0236100Y0075516D01*
X0236100Y0076350D01*
X0234933Y0076349D02*
X0234898Y0076347D01*
X0234864Y0076342D01*
X0234830Y0076333D01*
X0234798Y0076320D01*
X0234767Y0076304D01*
X0234737Y0076285D01*
X0234710Y0076263D01*
X0234686Y0076239D01*
X0234664Y0076212D01*
X0234645Y0076183D01*
X0234629Y0076151D01*
X0234616Y0076119D01*
X0234607Y0076085D01*
X0234602Y0076051D01*
X0234600Y0076016D01*
X0234600Y0075516D01*
X0234600Y0074979D02*
X0234600Y0074646D01*
X0234602Y0074611D01*
X0234607Y0074577D01*
X0234616Y0074543D01*
X0234629Y0074511D01*
X0234645Y0074480D01*
X0234664Y0074450D01*
X0234686Y0074423D01*
X0234710Y0074399D01*
X0234737Y0074377D01*
X0234767Y0074358D01*
X0234798Y0074342D01*
X0234830Y0074329D01*
X0234864Y0074320D01*
X0234898Y0074315D01*
X0234933Y0074313D01*
X0235767Y0074313D01*
X0235802Y0074315D01*
X0235836Y0074320D01*
X0235870Y0074329D01*
X0235902Y0074342D01*
X0235933Y0074358D01*
X0235963Y0074377D01*
X0235990Y0074399D01*
X0236014Y0074423D01*
X0236036Y0074450D01*
X0236055Y0074479D01*
X0236071Y0074511D01*
X0236084Y0074543D01*
X0236093Y0074577D01*
X0236098Y0074611D01*
X0236100Y0074646D01*
X0236100Y0074979D01*
X0258267Y0092713D02*
X0258683Y0092713D01*
X0259220Y0092713D02*
X0259554Y0092713D01*
X0259589Y0092715D01*
X0259623Y0092720D01*
X0259657Y0092729D01*
X0259689Y0092742D01*
X0259721Y0092758D01*
X0259750Y0092777D01*
X0259777Y0092799D01*
X0259801Y0092823D01*
X0259823Y0092850D01*
X0259842Y0092880D01*
X0259858Y0092911D01*
X0259871Y0092943D01*
X0259880Y0092977D01*
X0259885Y0093011D01*
X0259887Y0093046D01*
X0259887Y0093879D01*
X0259885Y0093914D01*
X0259880Y0093948D01*
X0259871Y0093982D01*
X0259858Y0094014D01*
X0259842Y0094045D01*
X0259823Y0094075D01*
X0259801Y0094102D01*
X0259777Y0094126D01*
X0259750Y0094148D01*
X0259721Y0094167D01*
X0259689Y0094183D01*
X0259657Y0094196D01*
X0259623Y0094205D01*
X0259589Y0094210D01*
X0259554Y0094212D01*
X0259554Y0094213D02*
X0259220Y0094213D01*
X0258683Y0094213D02*
X0258183Y0094213D01*
X0258183Y0094212D02*
X0258148Y0094210D01*
X0258114Y0094205D01*
X0258080Y0094196D01*
X0258048Y0094183D01*
X0258017Y0094167D01*
X0257987Y0094148D01*
X0257960Y0094126D01*
X0257936Y0094102D01*
X0257914Y0094075D01*
X0257895Y0094046D01*
X0257879Y0094014D01*
X0257866Y0093982D01*
X0257857Y0093948D01*
X0257852Y0093914D01*
X0257850Y0093879D01*
X0257852Y0093844D01*
X0257857Y0093810D01*
X0257866Y0093776D01*
X0257879Y0093744D01*
X0257895Y0093713D01*
X0257914Y0093683D01*
X0257936Y0093656D01*
X0257960Y0093632D01*
X0257987Y0093610D01*
X0258017Y0093591D01*
X0258048Y0093575D01*
X0258080Y0093562D01*
X0258114Y0093553D01*
X0258148Y0093548D01*
X0258183Y0093546D01*
X0258517Y0093546D01*
X0258267Y0093546D02*
X0258227Y0093544D01*
X0258188Y0093538D01*
X0258150Y0093529D01*
X0258112Y0093516D01*
X0258076Y0093500D01*
X0258042Y0093480D01*
X0258009Y0093457D01*
X0257979Y0093431D01*
X0257952Y0093402D01*
X0257927Y0093371D01*
X0257906Y0093338D01*
X0257888Y0093302D01*
X0257873Y0093265D01*
X0257862Y0093227D01*
X0257854Y0093188D01*
X0257850Y0093149D01*
X0257850Y0093109D01*
X0257854Y0093070D01*
X0257862Y0093031D01*
X0257873Y0092993D01*
X0257888Y0092956D01*
X0257906Y0092921D01*
X0257927Y0092887D01*
X0257952Y0092856D01*
X0257979Y0092827D01*
X0258009Y0092801D01*
X0258042Y0092778D01*
X0258076Y0092758D01*
X0258112Y0092742D01*
X0258150Y0092729D01*
X0258188Y0092720D01*
X0258227Y0092714D01*
X0258267Y0092712D01*
X0264600Y0109313D02*
X0266100Y0109313D01*
X0266100Y0109729D01*
X0266098Y0109769D01*
X0266092Y0109808D01*
X0266083Y0109846D01*
X0266070Y0109884D01*
X0266054Y0109920D01*
X0266034Y0109954D01*
X0266011Y0109987D01*
X0265985Y0110017D01*
X0265956Y0110044D01*
X0265925Y0110069D01*
X0265892Y0110090D01*
X0265856Y0110108D01*
X0265819Y0110123D01*
X0265781Y0110134D01*
X0265742Y0110142D01*
X0265703Y0110146D01*
X0265663Y0110146D01*
X0265624Y0110142D01*
X0265585Y0110134D01*
X0265547Y0110123D01*
X0265510Y0110108D01*
X0265475Y0110090D01*
X0265441Y0110069D01*
X0265410Y0110044D01*
X0265381Y0110017D01*
X0265355Y0109987D01*
X0265332Y0109954D01*
X0265312Y0109920D01*
X0265296Y0109884D01*
X0265283Y0109846D01*
X0265274Y0109808D01*
X0265268Y0109769D01*
X0265266Y0109729D01*
X0265267Y0109729D02*
X0265267Y0109313D01*
X0265267Y0109813D02*
X0264600Y0110146D01*
X0265017Y0110744D02*
X0264977Y0110746D01*
X0264938Y0110752D01*
X0264900Y0110761D01*
X0264862Y0110774D01*
X0264826Y0110790D01*
X0264792Y0110810D01*
X0264759Y0110833D01*
X0264729Y0110859D01*
X0264702Y0110888D01*
X0264677Y0110919D01*
X0264656Y0110953D01*
X0264638Y0110988D01*
X0264623Y0111025D01*
X0264612Y0111063D01*
X0264604Y0111102D01*
X0264600Y0111141D01*
X0264600Y0111181D01*
X0264604Y0111220D01*
X0264612Y0111259D01*
X0264623Y0111297D01*
X0264638Y0111334D01*
X0264656Y0111370D01*
X0264677Y0111403D01*
X0264702Y0111434D01*
X0264729Y0111463D01*
X0264759Y0111489D01*
X0264792Y0111512D01*
X0264826Y0111532D01*
X0264862Y0111548D01*
X0264900Y0111561D01*
X0264938Y0111570D01*
X0264977Y0111576D01*
X0265017Y0111578D01*
X0265057Y0111576D01*
X0265096Y0111570D01*
X0265134Y0111561D01*
X0265172Y0111548D01*
X0265208Y0111532D01*
X0265242Y0111512D01*
X0265275Y0111489D01*
X0265305Y0111463D01*
X0265332Y0111434D01*
X0265357Y0111403D01*
X0265378Y0111370D01*
X0265396Y0111334D01*
X0265411Y0111297D01*
X0265422Y0111259D01*
X0265430Y0111220D01*
X0265434Y0111181D01*
X0265434Y0111141D01*
X0265430Y0111102D01*
X0265422Y0111063D01*
X0265411Y0111025D01*
X0265396Y0110988D01*
X0265378Y0110953D01*
X0265357Y0110919D01*
X0265332Y0110888D01*
X0265305Y0110859D01*
X0265275Y0110833D01*
X0265242Y0110810D01*
X0265208Y0110790D01*
X0265172Y0110774D01*
X0265134Y0110761D01*
X0265096Y0110752D01*
X0265057Y0110746D01*
X0265017Y0110744D01*
X0265767Y0110828D02*
X0265732Y0110830D01*
X0265698Y0110835D01*
X0265664Y0110844D01*
X0265632Y0110857D01*
X0265601Y0110873D01*
X0265571Y0110892D01*
X0265544Y0110914D01*
X0265520Y0110938D01*
X0265498Y0110965D01*
X0265479Y0110995D01*
X0265463Y0111026D01*
X0265450Y0111058D01*
X0265441Y0111092D01*
X0265436Y0111126D01*
X0265434Y0111161D01*
X0265436Y0111196D01*
X0265441Y0111230D01*
X0265450Y0111264D01*
X0265463Y0111296D01*
X0265479Y0111328D01*
X0265498Y0111357D01*
X0265520Y0111384D01*
X0265544Y0111408D01*
X0265571Y0111430D01*
X0265601Y0111449D01*
X0265632Y0111465D01*
X0265664Y0111478D01*
X0265698Y0111487D01*
X0265732Y0111492D01*
X0265767Y0111494D01*
X0265802Y0111492D01*
X0265836Y0111487D01*
X0265870Y0111478D01*
X0265902Y0111465D01*
X0265934Y0111449D01*
X0265963Y0111430D01*
X0265990Y0111408D01*
X0266014Y0111384D01*
X0266036Y0111357D01*
X0266055Y0111328D01*
X0266071Y0111296D01*
X0266084Y0111264D01*
X0266093Y0111230D01*
X0266098Y0111196D01*
X0266100Y0111161D01*
X0266098Y0111126D01*
X0266093Y0111092D01*
X0266084Y0111058D01*
X0266071Y0111026D01*
X0266055Y0110995D01*
X0266036Y0110965D01*
X0266014Y0110938D01*
X0265990Y0110914D01*
X0265963Y0110892D01*
X0265934Y0110873D01*
X0265902Y0110857D01*
X0265870Y0110844D01*
X0265836Y0110835D01*
X0265802Y0110830D01*
X0265767Y0110828D01*
X0296985Y0102063D02*
X0297402Y0100563D01*
X0298417Y0100563D02*
X0298750Y0101229D01*
X0298833Y0101229D02*
X0299250Y0101229D01*
X0298833Y0101229D02*
X0298793Y0101231D01*
X0298754Y0101237D01*
X0298716Y0101246D01*
X0298678Y0101259D01*
X0298642Y0101275D01*
X0298608Y0101295D01*
X0298575Y0101318D01*
X0298545Y0101344D01*
X0298518Y0101373D01*
X0298493Y0101404D01*
X0298472Y0101438D01*
X0298454Y0101473D01*
X0298439Y0101510D01*
X0298428Y0101548D01*
X0298420Y0101587D01*
X0298416Y0101626D01*
X0298416Y0101666D01*
X0298420Y0101705D01*
X0298428Y0101744D01*
X0298439Y0101782D01*
X0298454Y0101819D01*
X0298472Y0101855D01*
X0298493Y0101888D01*
X0298518Y0101919D01*
X0298545Y0101948D01*
X0298575Y0101974D01*
X0298608Y0101997D01*
X0298642Y0102017D01*
X0298678Y0102033D01*
X0298716Y0102046D01*
X0298754Y0102055D01*
X0298793Y0102061D01*
X0298833Y0102063D01*
X0299250Y0102063D01*
X0299250Y0100563D01*
X0297818Y0101896D02*
X0297818Y0102063D01*
X0296985Y0102063D01*
X0303517Y0072074D02*
X0303933Y0072074D01*
X0303517Y0072074D02*
X0303517Y0071574D01*
X0303517Y0072074D02*
X0303467Y0072072D01*
X0303418Y0072067D01*
X0303369Y0072057D01*
X0303320Y0072044D01*
X0303273Y0072028D01*
X0303228Y0072008D01*
X0303184Y0071985D01*
X0303141Y0071958D01*
X0303101Y0071928D01*
X0303063Y0071896D01*
X0303028Y0071861D01*
X0302996Y0071823D01*
X0302966Y0071783D01*
X0302939Y0071741D01*
X0302916Y0071696D01*
X0302896Y0071651D01*
X0302880Y0071604D01*
X0302867Y0071555D01*
X0302857Y0071506D01*
X0302852Y0071457D01*
X0302850Y0071407D01*
X0302850Y0070634D02*
X0302850Y0069801D01*
X0303683Y0070509D01*
X0304350Y0070259D02*
X0304348Y0070219D01*
X0304343Y0070179D01*
X0304335Y0070139D01*
X0304323Y0070100D01*
X0304308Y0070063D01*
X0304290Y0070027D01*
X0304269Y0069992D01*
X0304246Y0069959D01*
X0304219Y0069929D01*
X0304190Y0069901D01*
X0304159Y0069875D01*
X0304126Y0069852D01*
X0304091Y0069832D01*
X0304054Y0069814D01*
X0304016Y0069800D01*
X0303683Y0070509D02*
X0303709Y0070534D01*
X0303738Y0070557D01*
X0303768Y0070577D01*
X0303800Y0070594D01*
X0303833Y0070608D01*
X0303868Y0070619D01*
X0303903Y0070627D01*
X0303939Y0070632D01*
X0303975Y0070634D01*
X0304012Y0070632D01*
X0304048Y0070627D01*
X0304084Y0070618D01*
X0304119Y0070605D01*
X0304152Y0070590D01*
X0304183Y0070571D01*
X0304213Y0070549D01*
X0304240Y0070524D01*
X0304265Y0070497D01*
X0304287Y0070467D01*
X0304306Y0070436D01*
X0304321Y0070403D01*
X0304334Y0070368D01*
X0304343Y0070332D01*
X0304348Y0070296D01*
X0304350Y0070259D01*
X0303933Y0071241D02*
X0303850Y0071241D01*
X0303815Y0071243D01*
X0303781Y0071248D01*
X0303747Y0071257D01*
X0303715Y0071270D01*
X0303684Y0071286D01*
X0303654Y0071305D01*
X0303627Y0071327D01*
X0303603Y0071351D01*
X0303581Y0071378D01*
X0303562Y0071408D01*
X0303546Y0071439D01*
X0303533Y0071471D01*
X0303524Y0071505D01*
X0303519Y0071539D01*
X0303517Y0071574D01*
X0303933Y0071240D02*
X0303973Y0071242D01*
X0304012Y0071248D01*
X0304050Y0071257D01*
X0304088Y0071270D01*
X0304124Y0071286D01*
X0304158Y0071306D01*
X0304191Y0071329D01*
X0304221Y0071355D01*
X0304248Y0071384D01*
X0304273Y0071415D01*
X0304294Y0071449D01*
X0304312Y0071484D01*
X0304327Y0071521D01*
X0304338Y0071559D01*
X0304346Y0071598D01*
X0304350Y0071637D01*
X0304350Y0071677D01*
X0304346Y0071716D01*
X0304338Y0071755D01*
X0304327Y0071793D01*
X0304312Y0071830D01*
X0304294Y0071866D01*
X0304273Y0071899D01*
X0304248Y0071930D01*
X0304221Y0071959D01*
X0304191Y0071985D01*
X0304158Y0072008D01*
X0304124Y0072028D01*
X0304088Y0072044D01*
X0304050Y0072057D01*
X0304012Y0072066D01*
X0303973Y0072072D01*
X0303933Y0072074D01*
X0303933Y0069146D02*
X0303267Y0069146D01*
X0303229Y0069144D01*
X0303190Y0069139D01*
X0303153Y0069130D01*
X0303116Y0069118D01*
X0303081Y0069102D01*
X0303047Y0069084D01*
X0303016Y0069062D01*
X0302986Y0069037D01*
X0302959Y0069010D01*
X0302934Y0068980D01*
X0302912Y0068949D01*
X0302894Y0068915D01*
X0302878Y0068880D01*
X0302866Y0068843D01*
X0302857Y0068806D01*
X0302852Y0068767D01*
X0302850Y0068729D01*
X0302850Y0068313D01*
X0304350Y0068313D01*
X0304350Y0068729D01*
X0304348Y0068767D01*
X0304343Y0068806D01*
X0304334Y0068843D01*
X0304322Y0068880D01*
X0304306Y0068915D01*
X0304288Y0068949D01*
X0304266Y0068980D01*
X0304241Y0069010D01*
X0304214Y0069037D01*
X0304184Y0069062D01*
X0304153Y0069084D01*
X0304119Y0069102D01*
X0304084Y0069118D01*
X0304047Y0069130D01*
X0304010Y0069139D01*
X0303971Y0069144D01*
X0303933Y0069146D01*
X0134109Y0211934D02*
X0133569Y0212654D01*
X0133570Y0212653D02*
X0133803Y0212834D01*
X0134031Y0213020D01*
X0134255Y0213212D01*
X0134474Y0213409D01*
X0134688Y0213611D01*
X0134897Y0213819D01*
X0135100Y0214032D01*
X0135299Y0214249D01*
X0135492Y0214472D01*
X0135680Y0214699D01*
X0135862Y0214930D01*
X0136039Y0215166D01*
X0136209Y0215407D01*
X0136374Y0215651D01*
X0136532Y0215899D01*
X0136685Y0216151D01*
X0136831Y0216407D01*
X0136971Y0216666D01*
X0137105Y0216929D01*
X0137232Y0217194D01*
X0137353Y0217463D01*
X0137467Y0217735D01*
X0137574Y0218009D01*
X0137675Y0218286D01*
X0137769Y0218565D01*
X0137856Y0218847D01*
X0137936Y0219130D01*
X0138009Y0219416D01*
X0138075Y0219703D01*
X0138134Y0219992D01*
X0138186Y0220282D01*
X0138231Y0220573D01*
X0138269Y0220865D01*
X0138299Y0221158D01*
X0138323Y0221452D01*
X0138339Y0221746D01*
X0138348Y0222040D01*
X0138350Y0222335D01*
X0138344Y0222630D01*
X0138332Y0222924D01*
X0138312Y0223218D01*
X0138285Y0223511D01*
X0138251Y0223804D01*
X0138210Y0224096D01*
X0138161Y0224386D01*
X0138106Y0224676D01*
X0138044Y0224963D01*
X0137974Y0225250D01*
X0137897Y0225534D01*
X0137814Y0225817D01*
X0137724Y0226097D01*
X0137627Y0226375D01*
X0137523Y0226651D01*
X0137412Y0226924D01*
X0137295Y0227194D01*
X0137171Y0227462D01*
X0137041Y0227726D01*
X0136904Y0227987D01*
X0136761Y0228244D01*
X0136611Y0228498D01*
X0136456Y0228749D01*
X0136294Y0228995D01*
X0136127Y0229237D01*
X0135953Y0229475D01*
X0135774Y0229709D01*
X0135589Y0229939D01*
X0135399Y0230163D01*
X0135203Y0230384D01*
X0135002Y0230599D01*
X0134795Y0230809D01*
X0134584Y0231014D01*
X0134367Y0231214D01*
X0134146Y0231409D01*
X0133920Y0231598D01*
X0133690Y0231781D01*
X0133455Y0231959D01*
X0133215Y0232131D01*
X0132972Y0232297D01*
X0132725Y0232457D01*
X0132474Y0232611D01*
X0132219Y0232759D01*
X0131960Y0232901D01*
X0131699Y0233036D01*
X0131434Y0233165D01*
X0131166Y0233287D01*
X0130895Y0233403D01*
X0130621Y0233512D01*
X0130345Y0233614D01*
X0130066Y0233709D01*
X0129785Y0233798D01*
X0129502Y0233880D01*
X0129217Y0233955D01*
X0128930Y0234022D01*
X0128642Y0234083D01*
X0128352Y0234137D01*
X0128061Y0234184D01*
X0127769Y0234223D01*
X0127477Y0234255D01*
X0127183Y0234281D01*
X0126889Y0234299D01*
X0126595Y0234309D01*
X0126300Y0234313D01*
X0126005Y0234309D01*
X0125711Y0234299D01*
X0125417Y0234281D01*
X0125123Y0234255D01*
X0124831Y0234223D01*
X0124539Y0234184D01*
X0124248Y0234137D01*
X0123958Y0234083D01*
X0123670Y0234022D01*
X0123383Y0233955D01*
X0123098Y0233880D01*
X0122815Y0233798D01*
X0122534Y0233709D01*
X0122255Y0233614D01*
X0121979Y0233512D01*
X0121705Y0233403D01*
X0121434Y0233287D01*
X0121166Y0233165D01*
X0120901Y0233036D01*
X0120640Y0232901D01*
X0120381Y0232759D01*
X0120126Y0232611D01*
X0119875Y0232457D01*
X0119628Y0232297D01*
X0119385Y0232131D01*
X0119145Y0231959D01*
X0118910Y0231781D01*
X0118680Y0231598D01*
X0118454Y0231409D01*
X0118233Y0231214D01*
X0118016Y0231014D01*
X0117805Y0230809D01*
X0117598Y0230599D01*
X0117397Y0230384D01*
X0117201Y0230163D01*
X0117011Y0229939D01*
X0116826Y0229709D01*
X0116647Y0229475D01*
X0116473Y0229237D01*
X0116306Y0228995D01*
X0116144Y0228749D01*
X0115989Y0228498D01*
X0115839Y0228244D01*
X0115696Y0227987D01*
X0115559Y0227726D01*
X0115429Y0227462D01*
X0115305Y0227194D01*
X0115188Y0226924D01*
X0115077Y0226651D01*
X0114973Y0226375D01*
X0114876Y0226097D01*
X0114786Y0225817D01*
X0114703Y0225534D01*
X0114626Y0225250D01*
X0114556Y0224963D01*
X0114494Y0224676D01*
X0114439Y0224386D01*
X0114390Y0224096D01*
X0114349Y0223804D01*
X0114315Y0223511D01*
X0114288Y0223218D01*
X0114268Y0222924D01*
X0114256Y0222630D01*
X0114250Y0222335D01*
X0114252Y0222040D01*
X0114261Y0221746D01*
X0114277Y0221452D01*
X0114301Y0221158D01*
X0114331Y0220865D01*
X0114369Y0220573D01*
X0114414Y0220282D01*
X0114466Y0219992D01*
X0114525Y0219703D01*
X0114591Y0219416D01*
X0114664Y0219130D01*
X0114744Y0218847D01*
X0114831Y0218565D01*
X0114925Y0218286D01*
X0115026Y0218009D01*
X0115133Y0217735D01*
X0115247Y0217463D01*
X0115368Y0217194D01*
X0115495Y0216929D01*
X0115629Y0216666D01*
X0115769Y0216407D01*
X0115915Y0216151D01*
X0116068Y0215899D01*
X0116226Y0215651D01*
X0116391Y0215407D01*
X0116561Y0215166D01*
X0116738Y0214930D01*
X0116920Y0214699D01*
X0117108Y0214472D01*
X0117301Y0214249D01*
X0117500Y0214032D01*
X0117703Y0213819D01*
X0117912Y0213611D01*
X0118126Y0213409D01*
X0118345Y0213212D01*
X0118569Y0213020D01*
X0118797Y0212834D01*
X0119030Y0212653D01*
X0118491Y0211934D01*
X0118490Y0211933D01*
X0118240Y0212127D01*
X0117994Y0212327D01*
X0117754Y0212533D01*
X0117519Y0212745D01*
X0117289Y0212963D01*
X0117064Y0213186D01*
X0116845Y0213414D01*
X0116631Y0213648D01*
X0116423Y0213887D01*
X0116221Y0214131D01*
X0116026Y0214380D01*
X0115836Y0214634D01*
X0115653Y0214892D01*
X0115476Y0215154D01*
X0115305Y0215421D01*
X0115141Y0215692D01*
X0114984Y0215967D01*
X0114833Y0216245D01*
X0114689Y0216528D01*
X0114553Y0216813D01*
X0114423Y0217102D01*
X0114300Y0217394D01*
X0114185Y0217689D01*
X0114077Y0217986D01*
X0113976Y0218287D01*
X0113882Y0218589D01*
X0113796Y0218894D01*
X0113717Y0219201D01*
X0113646Y0219509D01*
X0113583Y0219819D01*
X0113527Y0220131D01*
X0113478Y0220444D01*
X0113438Y0220758D01*
X0113405Y0221073D01*
X0113380Y0221389D01*
X0113362Y0221705D01*
X0113352Y0222021D01*
X0113350Y0222338D01*
X0113356Y0222655D01*
X0113369Y0222971D01*
X0113391Y0223287D01*
X0113419Y0223602D01*
X0113456Y0223917D01*
X0113500Y0224230D01*
X0113552Y0224543D01*
X0113612Y0224854D01*
X0113679Y0225163D01*
X0113754Y0225471D01*
X0113836Y0225777D01*
X0113925Y0226080D01*
X0114022Y0226382D01*
X0114127Y0226681D01*
X0114239Y0226977D01*
X0114357Y0227271D01*
X0114483Y0227561D01*
X0114616Y0227848D01*
X0114757Y0228133D01*
X0114904Y0228413D01*
X0115057Y0228690D01*
X0115218Y0228963D01*
X0115385Y0229232D01*
X0115559Y0229497D01*
X0115739Y0229757D01*
X0115925Y0230013D01*
X0116118Y0230264D01*
X0116316Y0230511D01*
X0116521Y0230753D01*
X0116731Y0230989D01*
X0116948Y0231221D01*
X0117170Y0231446D01*
X0117397Y0231667D01*
X0117629Y0231882D01*
X0117867Y0232091D01*
X0118110Y0232294D01*
X0118358Y0232492D01*
X0118610Y0232683D01*
X0118867Y0232868D01*
X0119129Y0233046D01*
X0119395Y0233218D01*
X0119664Y0233384D01*
X0119938Y0233543D01*
X0120216Y0233695D01*
X0120497Y0233840D01*
X0120782Y0233979D01*
X0121070Y0234110D01*
X0121362Y0234234D01*
X0121656Y0234352D01*
X0121953Y0234462D01*
X0122252Y0234564D01*
X0122554Y0234659D01*
X0122858Y0234747D01*
X0123165Y0234828D01*
X0123473Y0234901D01*
X0123783Y0234966D01*
X0124094Y0235024D01*
X0124407Y0235074D01*
X0124721Y0235116D01*
X0125035Y0235151D01*
X0125351Y0235178D01*
X0125667Y0235198D01*
X0125983Y0235209D01*
X0126300Y0235213D01*
X0126617Y0235209D01*
X0126933Y0235198D01*
X0127249Y0235178D01*
X0127565Y0235151D01*
X0127879Y0235116D01*
X0128193Y0235074D01*
X0128506Y0235024D01*
X0128817Y0234966D01*
X0129127Y0234901D01*
X0129435Y0234828D01*
X0129742Y0234747D01*
X0130046Y0234659D01*
X0130348Y0234564D01*
X0130647Y0234462D01*
X0130944Y0234352D01*
X0131238Y0234234D01*
X0131530Y0234110D01*
X0131818Y0233979D01*
X0132103Y0233840D01*
X0132384Y0233695D01*
X0132662Y0233543D01*
X0132936Y0233384D01*
X0133205Y0233218D01*
X0133471Y0233046D01*
X0133733Y0232868D01*
X0133990Y0232683D01*
X0134242Y0232492D01*
X0134490Y0232294D01*
X0134733Y0232091D01*
X0134971Y0231882D01*
X0135203Y0231667D01*
X0135430Y0231446D01*
X0135652Y0231221D01*
X0135869Y0230989D01*
X0136079Y0230753D01*
X0136284Y0230511D01*
X0136482Y0230264D01*
X0136675Y0230013D01*
X0136861Y0229757D01*
X0137041Y0229497D01*
X0137215Y0229232D01*
X0137382Y0228963D01*
X0137543Y0228690D01*
X0137696Y0228413D01*
X0137843Y0228133D01*
X0137984Y0227848D01*
X0138117Y0227561D01*
X0138243Y0227271D01*
X0138361Y0226977D01*
X0138473Y0226681D01*
X0138578Y0226382D01*
X0138675Y0226080D01*
X0138764Y0225777D01*
X0138846Y0225471D01*
X0138921Y0225163D01*
X0138988Y0224854D01*
X0139048Y0224543D01*
X0139100Y0224230D01*
X0139144Y0223917D01*
X0139181Y0223602D01*
X0139209Y0223287D01*
X0139231Y0222971D01*
X0139244Y0222655D01*
X0139250Y0222338D01*
X0139248Y0222021D01*
X0139238Y0221705D01*
X0139220Y0221389D01*
X0139195Y0221073D01*
X0139162Y0220758D01*
X0139122Y0220444D01*
X0139073Y0220131D01*
X0139017Y0219819D01*
X0138954Y0219509D01*
X0138883Y0219201D01*
X0138804Y0218894D01*
X0138718Y0218589D01*
X0138624Y0218287D01*
X0138523Y0217986D01*
X0138415Y0217689D01*
X0138300Y0217394D01*
X0138177Y0217102D01*
X0138047Y0216813D01*
X0137911Y0216528D01*
X0137767Y0216245D01*
X0137616Y0215967D01*
X0137459Y0215692D01*
X0137295Y0215421D01*
X0137124Y0215154D01*
X0136947Y0214892D01*
X0136764Y0214634D01*
X0136574Y0214380D01*
X0136379Y0214131D01*
X0136177Y0213887D01*
X0135969Y0213648D01*
X0135755Y0213414D01*
X0135536Y0213186D01*
X0135311Y0212963D01*
X0135081Y0212745D01*
X0134846Y0212533D01*
X0134606Y0212327D01*
X0134360Y0212127D01*
X0134110Y0211933D01*
X0134054Y0212008D01*
X0134302Y0212201D01*
X0134546Y0212400D01*
X0134784Y0212604D01*
X0135018Y0212814D01*
X0135246Y0213030D01*
X0135469Y0213252D01*
X0135687Y0213479D01*
X0135899Y0213711D01*
X0136105Y0213948D01*
X0136306Y0214190D01*
X0136500Y0214438D01*
X0136688Y0214689D01*
X0136870Y0214946D01*
X0137046Y0215206D01*
X0137215Y0215471D01*
X0137378Y0215740D01*
X0137534Y0216013D01*
X0137684Y0216289D01*
X0137826Y0216569D01*
X0137962Y0216853D01*
X0138091Y0217140D01*
X0138213Y0217430D01*
X0138327Y0217722D01*
X0138435Y0218018D01*
X0138535Y0218316D01*
X0138628Y0218616D01*
X0138713Y0218919D01*
X0138791Y0219223D01*
X0138862Y0219529D01*
X0138925Y0219837D01*
X0138981Y0220147D01*
X0139029Y0220457D01*
X0139069Y0220769D01*
X0139102Y0221082D01*
X0139127Y0221395D01*
X0139144Y0221709D01*
X0139154Y0222023D01*
X0139156Y0222338D01*
X0139150Y0222652D01*
X0139137Y0222966D01*
X0139116Y0223280D01*
X0139087Y0223593D01*
X0139051Y0223905D01*
X0139007Y0224216D01*
X0138955Y0224526D01*
X0138896Y0224835D01*
X0138829Y0225142D01*
X0138755Y0225448D01*
X0138674Y0225751D01*
X0138585Y0226053D01*
X0138488Y0226352D01*
X0138385Y0226649D01*
X0138274Y0226943D01*
X0138156Y0227234D01*
X0138031Y0227523D01*
X0137899Y0227808D01*
X0137760Y0228090D01*
X0137614Y0228368D01*
X0137461Y0228643D01*
X0137302Y0228914D01*
X0137136Y0229181D01*
X0136963Y0229444D01*
X0136785Y0229703D01*
X0136600Y0229957D01*
X0136408Y0230206D01*
X0136211Y0230451D01*
X0136008Y0230691D01*
X0135799Y0230926D01*
X0135584Y0231156D01*
X0135364Y0231380D01*
X0135139Y0231599D01*
X0134908Y0231812D01*
X0134672Y0232020D01*
X0134430Y0232222D01*
X0134185Y0232417D01*
X0133934Y0232607D01*
X0133679Y0232791D01*
X0133419Y0232968D01*
X0133155Y0233139D01*
X0132887Y0233303D01*
X0132615Y0233461D01*
X0132340Y0233612D01*
X0132060Y0233756D01*
X0131778Y0233894D01*
X0131492Y0234024D01*
X0131203Y0234148D01*
X0130910Y0234264D01*
X0130616Y0234373D01*
X0130318Y0234475D01*
X0130019Y0234569D01*
X0129716Y0234657D01*
X0129412Y0234737D01*
X0129107Y0234809D01*
X0128799Y0234874D01*
X0128490Y0234931D01*
X0128179Y0234981D01*
X0127868Y0235023D01*
X0127555Y0235058D01*
X0127242Y0235084D01*
X0126928Y0235104D01*
X0126614Y0235115D01*
X0126300Y0235119D01*
X0125986Y0235115D01*
X0125672Y0235104D01*
X0125358Y0235084D01*
X0125045Y0235058D01*
X0124732Y0235023D01*
X0124421Y0234981D01*
X0124110Y0234931D01*
X0123801Y0234874D01*
X0123493Y0234809D01*
X0123188Y0234737D01*
X0122884Y0234657D01*
X0122581Y0234569D01*
X0122282Y0234475D01*
X0121984Y0234373D01*
X0121690Y0234264D01*
X0121397Y0234148D01*
X0121108Y0234024D01*
X0120822Y0233894D01*
X0120540Y0233756D01*
X0120260Y0233612D01*
X0119985Y0233461D01*
X0119713Y0233303D01*
X0119445Y0233139D01*
X0119181Y0232968D01*
X0118921Y0232791D01*
X0118666Y0232607D01*
X0118415Y0232417D01*
X0118170Y0232222D01*
X0117928Y0232020D01*
X0117692Y0231812D01*
X0117461Y0231599D01*
X0117236Y0231380D01*
X0117016Y0231156D01*
X0116801Y0230926D01*
X0116592Y0230691D01*
X0116389Y0230451D01*
X0116192Y0230206D01*
X0116000Y0229957D01*
X0115815Y0229703D01*
X0115637Y0229444D01*
X0115464Y0229181D01*
X0115298Y0228914D01*
X0115139Y0228643D01*
X0114986Y0228368D01*
X0114840Y0228090D01*
X0114701Y0227808D01*
X0114569Y0227523D01*
X0114444Y0227234D01*
X0114326Y0226943D01*
X0114215Y0226649D01*
X0114112Y0226352D01*
X0114015Y0226053D01*
X0113926Y0225751D01*
X0113845Y0225448D01*
X0113771Y0225142D01*
X0113704Y0224835D01*
X0113645Y0224526D01*
X0113593Y0224216D01*
X0113549Y0223905D01*
X0113513Y0223593D01*
X0113484Y0223280D01*
X0113463Y0222966D01*
X0113450Y0222652D01*
X0113444Y0222338D01*
X0113446Y0222023D01*
X0113456Y0221709D01*
X0113473Y0221395D01*
X0113498Y0221082D01*
X0113531Y0220769D01*
X0113571Y0220457D01*
X0113619Y0220147D01*
X0113675Y0219837D01*
X0113738Y0219529D01*
X0113809Y0219223D01*
X0113887Y0218919D01*
X0113972Y0218616D01*
X0114065Y0218316D01*
X0114165Y0218018D01*
X0114273Y0217722D01*
X0114387Y0217430D01*
X0114509Y0217140D01*
X0114638Y0216853D01*
X0114774Y0216569D01*
X0114916Y0216289D01*
X0115066Y0216013D01*
X0115222Y0215740D01*
X0115385Y0215471D01*
X0115554Y0215206D01*
X0115730Y0214946D01*
X0115912Y0214689D01*
X0116100Y0214438D01*
X0116294Y0214190D01*
X0116495Y0213948D01*
X0116701Y0213711D01*
X0116913Y0213479D01*
X0117131Y0213252D01*
X0117354Y0213030D01*
X0117582Y0212814D01*
X0117816Y0212604D01*
X0118054Y0212400D01*
X0118298Y0212201D01*
X0118546Y0212008D01*
X0118603Y0212083D01*
X0118356Y0212275D01*
X0118114Y0212472D01*
X0117877Y0212675D01*
X0117646Y0212884D01*
X0117419Y0213098D01*
X0117197Y0213318D01*
X0116981Y0213543D01*
X0116771Y0213774D01*
X0116566Y0214009D01*
X0116367Y0214250D01*
X0116174Y0214495D01*
X0115988Y0214745D01*
X0115807Y0214999D01*
X0115632Y0215258D01*
X0115464Y0215521D01*
X0115303Y0215788D01*
X0115148Y0216059D01*
X0114999Y0216333D01*
X0114858Y0216611D01*
X0114723Y0216893D01*
X0114595Y0217177D01*
X0114474Y0217465D01*
X0114360Y0217756D01*
X0114254Y0218049D01*
X0114154Y0218345D01*
X0114062Y0218643D01*
X0113977Y0218943D01*
X0113900Y0219246D01*
X0113830Y0219550D01*
X0113767Y0219855D01*
X0113712Y0220162D01*
X0113664Y0220471D01*
X0113624Y0220780D01*
X0113592Y0221091D01*
X0113567Y0221402D01*
X0113550Y0221713D01*
X0113540Y0222025D01*
X0113538Y0222337D01*
X0113544Y0222649D01*
X0113557Y0222961D01*
X0113578Y0223272D01*
X0113606Y0223583D01*
X0113643Y0223893D01*
X0113686Y0224202D01*
X0113737Y0224510D01*
X0113796Y0224817D01*
X0113862Y0225121D01*
X0113936Y0225425D01*
X0114017Y0225726D01*
X0114105Y0226025D01*
X0114201Y0226322D01*
X0114304Y0226617D01*
X0114414Y0226909D01*
X0114531Y0227198D01*
X0114655Y0227485D01*
X0114786Y0227768D01*
X0114924Y0228048D01*
X0115069Y0228324D01*
X0115221Y0228597D01*
X0115379Y0228866D01*
X0115544Y0229131D01*
X0115715Y0229392D01*
X0115892Y0229648D01*
X0116076Y0229901D01*
X0116266Y0230148D01*
X0116461Y0230391D01*
X0116663Y0230630D01*
X0116871Y0230863D01*
X0117084Y0231091D01*
X0117302Y0231313D01*
X0117526Y0231531D01*
X0117755Y0231742D01*
X0117990Y0231948D01*
X0118229Y0232149D01*
X0118473Y0232343D01*
X0118722Y0232531D01*
X0118975Y0232714D01*
X0119233Y0232890D01*
X0119495Y0233059D01*
X0119761Y0233222D01*
X0120031Y0233379D01*
X0120305Y0233529D01*
X0120582Y0233672D01*
X0120862Y0233809D01*
X0121146Y0233938D01*
X0121433Y0234061D01*
X0121723Y0234176D01*
X0122016Y0234284D01*
X0122311Y0234386D01*
X0122609Y0234480D01*
X0122909Y0234566D01*
X0123210Y0234645D01*
X0123514Y0234717D01*
X0123819Y0234782D01*
X0124126Y0234839D01*
X0124434Y0234888D01*
X0124744Y0234930D01*
X0125054Y0234964D01*
X0125365Y0234991D01*
X0125676Y0235010D01*
X0125988Y0235021D01*
X0126300Y0235025D01*
X0126612Y0235021D01*
X0126924Y0235010D01*
X0127235Y0234991D01*
X0127546Y0234964D01*
X0127856Y0234930D01*
X0128166Y0234888D01*
X0128474Y0234839D01*
X0128781Y0234782D01*
X0129086Y0234717D01*
X0129390Y0234645D01*
X0129691Y0234566D01*
X0129991Y0234480D01*
X0130289Y0234386D01*
X0130584Y0234284D01*
X0130877Y0234176D01*
X0131167Y0234061D01*
X0131454Y0233938D01*
X0131738Y0233809D01*
X0132018Y0233672D01*
X0132295Y0233529D01*
X0132569Y0233379D01*
X0132839Y0233222D01*
X0133105Y0233059D01*
X0133367Y0232890D01*
X0133625Y0232714D01*
X0133878Y0232531D01*
X0134127Y0232343D01*
X0134371Y0232149D01*
X0134610Y0231948D01*
X0134845Y0231742D01*
X0135074Y0231531D01*
X0135298Y0231313D01*
X0135516Y0231091D01*
X0135729Y0230863D01*
X0135937Y0230630D01*
X0136139Y0230391D01*
X0136334Y0230148D01*
X0136524Y0229901D01*
X0136708Y0229648D01*
X0136885Y0229392D01*
X0137056Y0229131D01*
X0137221Y0228866D01*
X0137379Y0228597D01*
X0137531Y0228324D01*
X0137676Y0228048D01*
X0137814Y0227768D01*
X0137945Y0227485D01*
X0138069Y0227198D01*
X0138186Y0226909D01*
X0138296Y0226617D01*
X0138399Y0226322D01*
X0138495Y0226025D01*
X0138583Y0225726D01*
X0138664Y0225425D01*
X0138738Y0225121D01*
X0138804Y0224817D01*
X0138863Y0224510D01*
X0138914Y0224202D01*
X0138957Y0223893D01*
X0138994Y0223583D01*
X0139022Y0223272D01*
X0139043Y0222961D01*
X0139056Y0222649D01*
X0139062Y0222337D01*
X0139060Y0222025D01*
X0139050Y0221713D01*
X0139033Y0221402D01*
X0139008Y0221091D01*
X0138976Y0220780D01*
X0138936Y0220471D01*
X0138888Y0220162D01*
X0138833Y0219855D01*
X0138770Y0219550D01*
X0138700Y0219246D01*
X0138623Y0218943D01*
X0138538Y0218643D01*
X0138446Y0218345D01*
X0138346Y0218049D01*
X0138240Y0217756D01*
X0138126Y0217465D01*
X0138005Y0217177D01*
X0137877Y0216893D01*
X0137742Y0216611D01*
X0137601Y0216333D01*
X0137452Y0216059D01*
X0137297Y0215788D01*
X0137136Y0215521D01*
X0136968Y0215258D01*
X0136793Y0214999D01*
X0136612Y0214745D01*
X0136426Y0214495D01*
X0136233Y0214250D01*
X0136034Y0214009D01*
X0135829Y0213774D01*
X0135619Y0213543D01*
X0135403Y0213318D01*
X0135181Y0213098D01*
X0134954Y0212884D01*
X0134723Y0212675D01*
X0134486Y0212472D01*
X0134244Y0212275D01*
X0133997Y0212083D01*
X0133941Y0212159D01*
X0134186Y0212349D01*
X0134426Y0212544D01*
X0134661Y0212746D01*
X0134891Y0212953D01*
X0135116Y0213166D01*
X0135336Y0213384D01*
X0135550Y0213608D01*
X0135759Y0213837D01*
X0135962Y0214070D01*
X0136160Y0214309D01*
X0136351Y0214552D01*
X0136537Y0214801D01*
X0136716Y0215053D01*
X0136889Y0215310D01*
X0137056Y0215571D01*
X0137217Y0215836D01*
X0137370Y0216105D01*
X0137518Y0216377D01*
X0137658Y0216653D01*
X0137792Y0216933D01*
X0137919Y0217215D01*
X0138039Y0217501D01*
X0138152Y0217789D01*
X0138258Y0218080D01*
X0138356Y0218374D01*
X0138448Y0218670D01*
X0138532Y0218968D01*
X0138609Y0219268D01*
X0138678Y0219570D01*
X0138741Y0219873D01*
X0138795Y0220178D01*
X0138843Y0220484D01*
X0138882Y0220792D01*
X0138914Y0221100D01*
X0138939Y0221408D01*
X0138956Y0221718D01*
X0138966Y0222027D01*
X0138968Y0222337D01*
X0138962Y0222647D01*
X0138949Y0222956D01*
X0138928Y0223265D01*
X0138900Y0223574D01*
X0138864Y0223881D01*
X0138821Y0224188D01*
X0138770Y0224494D01*
X0138712Y0224798D01*
X0138646Y0225101D01*
X0138573Y0225402D01*
X0138493Y0225701D01*
X0138405Y0225998D01*
X0138310Y0226293D01*
X0138208Y0226585D01*
X0138099Y0226875D01*
X0137982Y0227162D01*
X0137859Y0227446D01*
X0137729Y0227727D01*
X0137592Y0228005D01*
X0137448Y0228279D01*
X0137298Y0228550D01*
X0137141Y0228817D01*
X0136977Y0229080D01*
X0136807Y0229339D01*
X0136631Y0229594D01*
X0136449Y0229845D01*
X0136260Y0230090D01*
X0136066Y0230332D01*
X0135866Y0230568D01*
X0135660Y0230799D01*
X0135448Y0231026D01*
X0135231Y0231247D01*
X0135009Y0231462D01*
X0134782Y0231673D01*
X0134549Y0231877D01*
X0134311Y0232076D01*
X0134069Y0232269D01*
X0133822Y0232456D01*
X0133571Y0232637D01*
X0133315Y0232811D01*
X0133055Y0232980D01*
X0132791Y0233142D01*
X0132523Y0233297D01*
X0132251Y0233446D01*
X0131976Y0233588D01*
X0131697Y0233724D01*
X0131416Y0233852D01*
X0131131Y0233974D01*
X0130843Y0234088D01*
X0130552Y0234196D01*
X0130259Y0234296D01*
X0129964Y0234390D01*
X0129666Y0234476D01*
X0129367Y0234554D01*
X0129065Y0234625D01*
X0128762Y0234689D01*
X0128458Y0234746D01*
X0128152Y0234795D01*
X0127845Y0234836D01*
X0127537Y0234870D01*
X0127228Y0234897D01*
X0126919Y0234916D01*
X0126610Y0234927D01*
X0126300Y0234931D01*
X0125990Y0234927D01*
X0125681Y0234916D01*
X0125372Y0234897D01*
X0125063Y0234870D01*
X0124755Y0234836D01*
X0124448Y0234795D01*
X0124142Y0234746D01*
X0123838Y0234689D01*
X0123535Y0234625D01*
X0123233Y0234554D01*
X0122934Y0234476D01*
X0122636Y0234390D01*
X0122341Y0234296D01*
X0122048Y0234196D01*
X0121757Y0234088D01*
X0121469Y0233974D01*
X0121184Y0233852D01*
X0120903Y0233724D01*
X0120624Y0233588D01*
X0120349Y0233446D01*
X0120077Y0233297D01*
X0119809Y0233142D01*
X0119545Y0232980D01*
X0119285Y0232811D01*
X0119029Y0232637D01*
X0118778Y0232456D01*
X0118531Y0232269D01*
X0118289Y0232076D01*
X0118051Y0231877D01*
X0117818Y0231673D01*
X0117591Y0231462D01*
X0117369Y0231247D01*
X0117152Y0231026D01*
X0116940Y0230799D01*
X0116734Y0230568D01*
X0116534Y0230332D01*
X0116340Y0230090D01*
X0116151Y0229845D01*
X0115969Y0229594D01*
X0115793Y0229339D01*
X0115623Y0229080D01*
X0115459Y0228817D01*
X0115302Y0228550D01*
X0115152Y0228279D01*
X0115008Y0228005D01*
X0114871Y0227727D01*
X0114741Y0227446D01*
X0114618Y0227162D01*
X0114501Y0226875D01*
X0114392Y0226585D01*
X0114290Y0226293D01*
X0114195Y0225998D01*
X0114107Y0225701D01*
X0114027Y0225402D01*
X0113954Y0225101D01*
X0113888Y0224798D01*
X0113830Y0224494D01*
X0113779Y0224188D01*
X0113736Y0223881D01*
X0113700Y0223574D01*
X0113672Y0223265D01*
X0113651Y0222956D01*
X0113638Y0222647D01*
X0113632Y0222337D01*
X0113634Y0222027D01*
X0113644Y0221718D01*
X0113661Y0221408D01*
X0113686Y0221100D01*
X0113718Y0220792D01*
X0113757Y0220484D01*
X0113805Y0220178D01*
X0113859Y0219873D01*
X0113922Y0219570D01*
X0113991Y0219268D01*
X0114068Y0218968D01*
X0114152Y0218670D01*
X0114244Y0218374D01*
X0114342Y0218080D01*
X0114448Y0217789D01*
X0114561Y0217501D01*
X0114681Y0217215D01*
X0114808Y0216933D01*
X0114942Y0216653D01*
X0115082Y0216377D01*
X0115230Y0216105D01*
X0115383Y0215836D01*
X0115544Y0215571D01*
X0115711Y0215310D01*
X0115884Y0215053D01*
X0116063Y0214801D01*
X0116249Y0214552D01*
X0116440Y0214309D01*
X0116638Y0214070D01*
X0116841Y0213837D01*
X0117050Y0213608D01*
X0117264Y0213384D01*
X0117484Y0213166D01*
X0117709Y0212953D01*
X0117939Y0212746D01*
X0118174Y0212544D01*
X0118414Y0212349D01*
X0118659Y0212159D01*
X0118716Y0212234D01*
X0118473Y0212422D01*
X0118234Y0212617D01*
X0118001Y0212817D01*
X0117773Y0213022D01*
X0117549Y0213234D01*
X0117331Y0213450D01*
X0117118Y0213672D01*
X0116911Y0213899D01*
X0116709Y0214131D01*
X0116513Y0214368D01*
X0116323Y0214610D01*
X0116139Y0214856D01*
X0115961Y0215107D01*
X0115789Y0215362D01*
X0115624Y0215621D01*
X0115464Y0215884D01*
X0115312Y0216151D01*
X0115165Y0216421D01*
X0115026Y0216695D01*
X0114893Y0216972D01*
X0114767Y0217253D01*
X0114648Y0217536D01*
X0114536Y0217823D01*
X0114431Y0218112D01*
X0114333Y0218403D01*
X0114242Y0218697D01*
X0114159Y0218993D01*
X0114082Y0219290D01*
X0114013Y0219590D01*
X0113952Y0219891D01*
X0113897Y0220194D01*
X0113851Y0220498D01*
X0113811Y0220803D01*
X0113779Y0221108D01*
X0113755Y0221415D01*
X0113738Y0221722D01*
X0113728Y0222029D01*
X0113726Y0222337D01*
X0113732Y0222644D01*
X0113745Y0222951D01*
X0113765Y0223258D01*
X0113794Y0223564D01*
X0113829Y0223870D01*
X0113872Y0224174D01*
X0113923Y0224477D01*
X0113980Y0224779D01*
X0114046Y0225080D01*
X0114118Y0225379D01*
X0114198Y0225675D01*
X0114285Y0225970D01*
X0114379Y0226263D01*
X0114481Y0226553D01*
X0114589Y0226841D01*
X0114704Y0227126D01*
X0114827Y0227408D01*
X0114956Y0227687D01*
X0115092Y0227963D01*
X0115235Y0228235D01*
X0115384Y0228504D01*
X0115540Y0228769D01*
X0115702Y0229030D01*
X0115871Y0229287D01*
X0116046Y0229540D01*
X0116227Y0229788D01*
X0116414Y0230032D01*
X0116607Y0230272D01*
X0116805Y0230506D01*
X0117010Y0230736D01*
X0117220Y0230961D01*
X0117435Y0231180D01*
X0117656Y0231394D01*
X0117881Y0231603D01*
X0118112Y0231806D01*
X0118348Y0232003D01*
X0118589Y0232195D01*
X0118834Y0232380D01*
X0119083Y0232560D01*
X0119337Y0232733D01*
X0119595Y0232900D01*
X0119857Y0233061D01*
X0120123Y0233215D01*
X0120393Y0233363D01*
X0120666Y0233504D01*
X0120943Y0233639D01*
X0121222Y0233766D01*
X0121505Y0233887D01*
X0121791Y0234001D01*
X0122079Y0234107D01*
X0122370Y0234207D01*
X0122663Y0234300D01*
X0122959Y0234385D01*
X0123256Y0234463D01*
X0123555Y0234534D01*
X0123856Y0234597D01*
X0124158Y0234653D01*
X0124462Y0234702D01*
X0124767Y0234743D01*
X0125072Y0234777D01*
X0125378Y0234803D01*
X0125685Y0234822D01*
X0125993Y0234833D01*
X0126300Y0234837D01*
X0126607Y0234833D01*
X0126915Y0234822D01*
X0127222Y0234803D01*
X0127528Y0234777D01*
X0127833Y0234743D01*
X0128138Y0234702D01*
X0128442Y0234653D01*
X0128744Y0234597D01*
X0129045Y0234534D01*
X0129344Y0234463D01*
X0129641Y0234385D01*
X0129937Y0234300D01*
X0130230Y0234207D01*
X0130521Y0234107D01*
X0130809Y0234001D01*
X0131095Y0233887D01*
X0131378Y0233766D01*
X0131657Y0233639D01*
X0131934Y0233504D01*
X0132207Y0233363D01*
X0132477Y0233215D01*
X0132743Y0233061D01*
X0133005Y0232900D01*
X0133263Y0232733D01*
X0133517Y0232560D01*
X0133766Y0232380D01*
X0134011Y0232195D01*
X0134252Y0232003D01*
X0134488Y0231806D01*
X0134719Y0231603D01*
X0134944Y0231394D01*
X0135165Y0231180D01*
X0135380Y0230961D01*
X0135590Y0230736D01*
X0135795Y0230506D01*
X0135993Y0230272D01*
X0136186Y0230032D01*
X0136373Y0229788D01*
X0136554Y0229540D01*
X0136729Y0229287D01*
X0136898Y0229030D01*
X0137060Y0228769D01*
X0137216Y0228504D01*
X0137365Y0228235D01*
X0137508Y0227963D01*
X0137644Y0227687D01*
X0137773Y0227408D01*
X0137896Y0227126D01*
X0138011Y0226841D01*
X0138119Y0226553D01*
X0138221Y0226263D01*
X0138315Y0225970D01*
X0138402Y0225675D01*
X0138482Y0225379D01*
X0138554Y0225080D01*
X0138620Y0224779D01*
X0138677Y0224477D01*
X0138728Y0224174D01*
X0138771Y0223870D01*
X0138806Y0223564D01*
X0138835Y0223258D01*
X0138855Y0222951D01*
X0138868Y0222644D01*
X0138874Y0222337D01*
X0138872Y0222029D01*
X0138862Y0221722D01*
X0138845Y0221415D01*
X0138821Y0221108D01*
X0138789Y0220803D01*
X0138749Y0220498D01*
X0138703Y0220194D01*
X0138648Y0219891D01*
X0138587Y0219590D01*
X0138518Y0219290D01*
X0138441Y0218993D01*
X0138358Y0218697D01*
X0138267Y0218403D01*
X0138169Y0218112D01*
X0138064Y0217823D01*
X0137952Y0217536D01*
X0137833Y0217253D01*
X0137707Y0216972D01*
X0137574Y0216695D01*
X0137435Y0216421D01*
X0137288Y0216151D01*
X0137136Y0215884D01*
X0136976Y0215621D01*
X0136811Y0215362D01*
X0136639Y0215107D01*
X0136461Y0214856D01*
X0136277Y0214610D01*
X0136087Y0214368D01*
X0135891Y0214131D01*
X0135689Y0213899D01*
X0135482Y0213672D01*
X0135269Y0213450D01*
X0135051Y0213234D01*
X0134827Y0213022D01*
X0134599Y0212817D01*
X0134366Y0212617D01*
X0134127Y0212422D01*
X0133884Y0212234D01*
X0133828Y0212309D01*
X0134069Y0212496D01*
X0134306Y0212689D01*
X0134537Y0212888D01*
X0134764Y0213092D01*
X0134986Y0213301D01*
X0135202Y0213516D01*
X0135413Y0213737D01*
X0135619Y0213962D01*
X0135819Y0214192D01*
X0136014Y0214428D01*
X0136202Y0214667D01*
X0136385Y0214912D01*
X0136562Y0215161D01*
X0136732Y0215414D01*
X0136897Y0215671D01*
X0137055Y0215932D01*
X0137206Y0216197D01*
X0137351Y0216465D01*
X0137490Y0216737D01*
X0137622Y0217012D01*
X0137747Y0217291D01*
X0137865Y0217572D01*
X0137976Y0217856D01*
X0138080Y0218143D01*
X0138178Y0218432D01*
X0138268Y0218724D01*
X0138351Y0219017D01*
X0138426Y0219313D01*
X0138495Y0219610D01*
X0138556Y0219909D01*
X0138610Y0220210D01*
X0138656Y0220511D01*
X0138696Y0220814D01*
X0138727Y0221117D01*
X0138752Y0221422D01*
X0138768Y0221726D01*
X0138778Y0222031D01*
X0138780Y0222336D01*
X0138774Y0222641D01*
X0138761Y0222946D01*
X0138741Y0223251D01*
X0138713Y0223555D01*
X0138678Y0223858D01*
X0138635Y0224160D01*
X0138585Y0224461D01*
X0138528Y0224761D01*
X0138463Y0225059D01*
X0138391Y0225355D01*
X0138312Y0225650D01*
X0138225Y0225943D01*
X0138132Y0226233D01*
X0138031Y0226521D01*
X0137923Y0226807D01*
X0137809Y0227090D01*
X0137687Y0227370D01*
X0137559Y0227647D01*
X0137424Y0227920D01*
X0137283Y0228190D01*
X0137134Y0228457D01*
X0136980Y0228720D01*
X0136819Y0228979D01*
X0136651Y0229235D01*
X0136478Y0229486D01*
X0136298Y0229732D01*
X0136112Y0229974D01*
X0135921Y0230212D01*
X0135724Y0230445D01*
X0135521Y0230673D01*
X0135312Y0230896D01*
X0135099Y0231114D01*
X0134880Y0231326D01*
X0134656Y0231533D01*
X0134426Y0231735D01*
X0134192Y0231931D01*
X0133954Y0232121D01*
X0133710Y0232305D01*
X0133463Y0232483D01*
X0133211Y0232655D01*
X0132954Y0232821D01*
X0132694Y0232980D01*
X0132430Y0233134D01*
X0132163Y0233280D01*
X0131892Y0233420D01*
X0131617Y0233554D01*
X0131340Y0233680D01*
X0131059Y0233800D01*
X0130775Y0233913D01*
X0130489Y0234019D01*
X0130201Y0234118D01*
X0129910Y0234210D01*
X0129616Y0234294D01*
X0129321Y0234372D01*
X0129024Y0234442D01*
X0128726Y0234505D01*
X0128426Y0234561D01*
X0128124Y0234609D01*
X0127822Y0234650D01*
X0127519Y0234683D01*
X0127215Y0234709D01*
X0126910Y0234728D01*
X0126605Y0234739D01*
X0126300Y0234743D01*
X0125995Y0234739D01*
X0125690Y0234728D01*
X0125385Y0234709D01*
X0125081Y0234683D01*
X0124778Y0234650D01*
X0124476Y0234609D01*
X0124174Y0234561D01*
X0123874Y0234505D01*
X0123576Y0234442D01*
X0123279Y0234372D01*
X0122984Y0234294D01*
X0122690Y0234210D01*
X0122399Y0234118D01*
X0122111Y0234019D01*
X0121825Y0233913D01*
X0121541Y0233800D01*
X0121260Y0233680D01*
X0120983Y0233554D01*
X0120708Y0233420D01*
X0120437Y0233280D01*
X0120170Y0233134D01*
X0119906Y0232980D01*
X0119646Y0232821D01*
X0119389Y0232655D01*
X0119137Y0232483D01*
X0118890Y0232305D01*
X0118646Y0232121D01*
X0118408Y0231931D01*
X0118174Y0231735D01*
X0117944Y0231533D01*
X0117720Y0231326D01*
X0117501Y0231114D01*
X0117288Y0230896D01*
X0117079Y0230673D01*
X0116876Y0230445D01*
X0116679Y0230212D01*
X0116488Y0229974D01*
X0116302Y0229732D01*
X0116122Y0229486D01*
X0115949Y0229235D01*
X0115781Y0228979D01*
X0115620Y0228720D01*
X0115466Y0228457D01*
X0115317Y0228190D01*
X0115176Y0227920D01*
X0115041Y0227647D01*
X0114913Y0227370D01*
X0114791Y0227090D01*
X0114677Y0226807D01*
X0114569Y0226521D01*
X0114468Y0226233D01*
X0114375Y0225943D01*
X0114288Y0225650D01*
X0114209Y0225355D01*
X0114137Y0225059D01*
X0114072Y0224761D01*
X0114015Y0224461D01*
X0113965Y0224160D01*
X0113922Y0223858D01*
X0113887Y0223555D01*
X0113859Y0223251D01*
X0113839Y0222946D01*
X0113826Y0222641D01*
X0113820Y0222336D01*
X0113822Y0222031D01*
X0113832Y0221726D01*
X0113848Y0221422D01*
X0113873Y0221117D01*
X0113904Y0220814D01*
X0113944Y0220511D01*
X0113990Y0220210D01*
X0114044Y0219909D01*
X0114105Y0219610D01*
X0114174Y0219313D01*
X0114249Y0219017D01*
X0114332Y0218724D01*
X0114422Y0218432D01*
X0114520Y0218143D01*
X0114624Y0217856D01*
X0114735Y0217572D01*
X0114853Y0217291D01*
X0114978Y0217012D01*
X0115110Y0216737D01*
X0115249Y0216465D01*
X0115394Y0216197D01*
X0115545Y0215932D01*
X0115703Y0215671D01*
X0115868Y0215414D01*
X0116038Y0215161D01*
X0116215Y0214912D01*
X0116398Y0214667D01*
X0116586Y0214428D01*
X0116781Y0214192D01*
X0116981Y0213962D01*
X0117187Y0213737D01*
X0117398Y0213516D01*
X0117614Y0213301D01*
X0117836Y0213092D01*
X0118063Y0212888D01*
X0118294Y0212689D01*
X0118531Y0212496D01*
X0118772Y0212309D01*
X0118828Y0212384D01*
X0118589Y0212570D01*
X0118354Y0212761D01*
X0118125Y0212958D01*
X0117900Y0213161D01*
X0117679Y0213369D01*
X0117465Y0213583D01*
X0117255Y0213801D01*
X0117051Y0214025D01*
X0116852Y0214253D01*
X0116659Y0214487D01*
X0116472Y0214725D01*
X0116291Y0214967D01*
X0116115Y0215214D01*
X0115946Y0215465D01*
X0115783Y0215721D01*
X0115626Y0215980D01*
X0115476Y0216243D01*
X0115332Y0216509D01*
X0115194Y0216779D01*
X0115063Y0217052D01*
X0114939Y0217328D01*
X0114822Y0217608D01*
X0114712Y0217890D01*
X0114608Y0218174D01*
X0114512Y0218461D01*
X0114422Y0218751D01*
X0114340Y0219042D01*
X0114265Y0219335D01*
X0114197Y0219631D01*
X0114136Y0219927D01*
X0114083Y0220225D01*
X0114037Y0220525D01*
X0113998Y0220825D01*
X0113966Y0221126D01*
X0113942Y0221428D01*
X0113925Y0221731D01*
X0113916Y0222033D01*
X0113914Y0222336D01*
X0113920Y0222639D01*
X0113933Y0222941D01*
X0113953Y0223244D01*
X0113981Y0223545D01*
X0114016Y0223846D01*
X0114058Y0224146D01*
X0114108Y0224445D01*
X0114165Y0224742D01*
X0114229Y0225038D01*
X0114300Y0225332D01*
X0114379Y0225625D01*
X0114465Y0225915D01*
X0114558Y0226204D01*
X0114657Y0226489D01*
X0114764Y0226773D01*
X0114878Y0227053D01*
X0114998Y0227331D01*
X0115126Y0227606D01*
X0115260Y0227878D01*
X0115400Y0228146D01*
X0115547Y0228411D01*
X0115701Y0228672D01*
X0115861Y0228929D01*
X0116027Y0229182D01*
X0116199Y0229431D01*
X0116377Y0229676D01*
X0116562Y0229917D01*
X0116752Y0230152D01*
X0116947Y0230383D01*
X0117149Y0230610D01*
X0117355Y0230831D01*
X0117568Y0231047D01*
X0117785Y0231258D01*
X0118007Y0231463D01*
X0118235Y0231663D01*
X0118467Y0231858D01*
X0118704Y0232046D01*
X0118946Y0232229D01*
X0119191Y0232406D01*
X0119442Y0232577D01*
X0119696Y0232741D01*
X0119954Y0232900D01*
X0120216Y0233052D01*
X0120481Y0233197D01*
X0120750Y0233336D01*
X0121023Y0233469D01*
X0121298Y0233594D01*
X0121577Y0233713D01*
X0121858Y0233825D01*
X0122142Y0233930D01*
X0122429Y0234029D01*
X0122718Y0234120D01*
X0123009Y0234204D01*
X0123302Y0234281D01*
X0123596Y0234350D01*
X0123893Y0234413D01*
X0124190Y0234468D01*
X0124489Y0234516D01*
X0124789Y0234557D01*
X0125091Y0234590D01*
X0125392Y0234616D01*
X0125695Y0234634D01*
X0125997Y0234645D01*
X0126300Y0234649D01*
X0126603Y0234645D01*
X0126905Y0234634D01*
X0127208Y0234616D01*
X0127509Y0234590D01*
X0127811Y0234557D01*
X0128111Y0234516D01*
X0128410Y0234468D01*
X0128707Y0234413D01*
X0129004Y0234350D01*
X0129298Y0234281D01*
X0129591Y0234204D01*
X0129882Y0234120D01*
X0130171Y0234029D01*
X0130458Y0233930D01*
X0130742Y0233825D01*
X0131023Y0233713D01*
X0131302Y0233594D01*
X0131577Y0233469D01*
X0131850Y0233336D01*
X0132119Y0233197D01*
X0132384Y0233052D01*
X0132646Y0232900D01*
X0132904Y0232741D01*
X0133158Y0232577D01*
X0133409Y0232406D01*
X0133654Y0232229D01*
X0133896Y0232046D01*
X0134133Y0231858D01*
X0134365Y0231663D01*
X0134593Y0231463D01*
X0134815Y0231258D01*
X0135032Y0231047D01*
X0135245Y0230831D01*
X0135451Y0230610D01*
X0135653Y0230383D01*
X0135848Y0230152D01*
X0136038Y0229917D01*
X0136223Y0229676D01*
X0136401Y0229431D01*
X0136573Y0229182D01*
X0136739Y0228929D01*
X0136899Y0228672D01*
X0137053Y0228411D01*
X0137200Y0228146D01*
X0137340Y0227878D01*
X0137474Y0227606D01*
X0137602Y0227331D01*
X0137722Y0227053D01*
X0137836Y0226773D01*
X0137943Y0226489D01*
X0138042Y0226204D01*
X0138135Y0225915D01*
X0138221Y0225625D01*
X0138300Y0225332D01*
X0138371Y0225038D01*
X0138435Y0224742D01*
X0138492Y0224445D01*
X0138542Y0224146D01*
X0138584Y0223846D01*
X0138619Y0223545D01*
X0138647Y0223244D01*
X0138667Y0222941D01*
X0138680Y0222639D01*
X0138686Y0222336D01*
X0138684Y0222033D01*
X0138675Y0221731D01*
X0138658Y0221428D01*
X0138634Y0221126D01*
X0138602Y0220825D01*
X0138563Y0220525D01*
X0138517Y0220225D01*
X0138464Y0219927D01*
X0138403Y0219631D01*
X0138335Y0219335D01*
X0138260Y0219042D01*
X0138178Y0218751D01*
X0138088Y0218461D01*
X0137992Y0218174D01*
X0137888Y0217890D01*
X0137778Y0217608D01*
X0137661Y0217328D01*
X0137537Y0217052D01*
X0137406Y0216779D01*
X0137268Y0216509D01*
X0137124Y0216243D01*
X0136974Y0215980D01*
X0136817Y0215721D01*
X0136654Y0215465D01*
X0136485Y0215214D01*
X0136309Y0214967D01*
X0136128Y0214725D01*
X0135941Y0214487D01*
X0135748Y0214253D01*
X0135549Y0214025D01*
X0135345Y0213801D01*
X0135135Y0213583D01*
X0134921Y0213369D01*
X0134700Y0213161D01*
X0134475Y0212958D01*
X0134246Y0212761D01*
X0134011Y0212570D01*
X0133772Y0212384D01*
X0133715Y0212459D01*
X0133953Y0212644D01*
X0134185Y0212834D01*
X0134414Y0213029D01*
X0134637Y0213230D01*
X0134855Y0213437D01*
X0135069Y0213649D01*
X0135277Y0213866D01*
X0135479Y0214088D01*
X0135676Y0214315D01*
X0135868Y0214546D01*
X0136054Y0214782D01*
X0136234Y0215023D01*
X0136408Y0215268D01*
X0136576Y0215517D01*
X0136738Y0215771D01*
X0136893Y0216028D01*
X0137042Y0216289D01*
X0137185Y0216553D01*
X0137322Y0216821D01*
X0137451Y0217092D01*
X0137574Y0217366D01*
X0137691Y0217643D01*
X0137800Y0217923D01*
X0137903Y0218206D01*
X0137999Y0218490D01*
X0138087Y0218778D01*
X0138169Y0219067D01*
X0138244Y0219358D01*
X0138311Y0219651D01*
X0138372Y0219945D01*
X0138425Y0220241D01*
X0138470Y0220538D01*
X0138509Y0220836D01*
X0138540Y0221135D01*
X0138564Y0221435D01*
X0138581Y0221735D01*
X0138590Y0222035D01*
X0138592Y0222336D01*
X0138586Y0222636D01*
X0138574Y0222937D01*
X0138553Y0223236D01*
X0138526Y0223536D01*
X0138491Y0223834D01*
X0138449Y0224132D01*
X0138400Y0224428D01*
X0138343Y0224723D01*
X0138279Y0225017D01*
X0138209Y0225309D01*
X0138131Y0225599D01*
X0138045Y0225888D01*
X0137953Y0226174D01*
X0137854Y0226458D01*
X0137748Y0226739D01*
X0137635Y0227017D01*
X0137516Y0227293D01*
X0137389Y0227566D01*
X0137256Y0227835D01*
X0137117Y0228101D01*
X0136971Y0228364D01*
X0136819Y0228623D01*
X0136660Y0228879D01*
X0136495Y0229130D01*
X0136324Y0229377D01*
X0136147Y0229620D01*
X0135964Y0229859D01*
X0135776Y0230093D01*
X0135582Y0230322D01*
X0135382Y0230546D01*
X0135177Y0230766D01*
X0134966Y0230980D01*
X0134750Y0231190D01*
X0134530Y0231394D01*
X0134304Y0231592D01*
X0134073Y0231785D01*
X0133838Y0231972D01*
X0133599Y0232154D01*
X0133355Y0232329D01*
X0133106Y0232499D01*
X0132854Y0232662D01*
X0132598Y0232819D01*
X0132338Y0232970D01*
X0132074Y0233114D01*
X0131807Y0233252D01*
X0131537Y0233384D01*
X0131264Y0233508D01*
X0130987Y0233626D01*
X0130708Y0233737D01*
X0130426Y0233842D01*
X0130142Y0233939D01*
X0129855Y0234030D01*
X0129566Y0234113D01*
X0129276Y0234189D01*
X0128983Y0234259D01*
X0128689Y0234321D01*
X0128394Y0234375D01*
X0128097Y0234423D01*
X0127799Y0234463D01*
X0127500Y0234496D01*
X0127201Y0234522D01*
X0126901Y0234540D01*
X0126601Y0234551D01*
X0126300Y0234555D01*
X0125999Y0234551D01*
X0125699Y0234540D01*
X0125399Y0234522D01*
X0125100Y0234496D01*
X0124801Y0234463D01*
X0124503Y0234423D01*
X0124206Y0234375D01*
X0123911Y0234321D01*
X0123617Y0234259D01*
X0123324Y0234189D01*
X0123034Y0234113D01*
X0122745Y0234030D01*
X0122458Y0233939D01*
X0122174Y0233842D01*
X0121892Y0233737D01*
X0121613Y0233626D01*
X0121336Y0233508D01*
X0121063Y0233384D01*
X0120793Y0233252D01*
X0120526Y0233114D01*
X0120262Y0232970D01*
X0120002Y0232819D01*
X0119746Y0232662D01*
X0119494Y0232499D01*
X0119245Y0232329D01*
X0119001Y0232154D01*
X0118762Y0231972D01*
X0118527Y0231785D01*
X0118296Y0231592D01*
X0118070Y0231394D01*
X0117850Y0231190D01*
X0117634Y0230980D01*
X0117423Y0230766D01*
X0117218Y0230546D01*
X0117018Y0230322D01*
X0116824Y0230093D01*
X0116636Y0229859D01*
X0116453Y0229620D01*
X0116276Y0229377D01*
X0116105Y0229130D01*
X0115940Y0228879D01*
X0115781Y0228623D01*
X0115629Y0228364D01*
X0115483Y0228101D01*
X0115344Y0227835D01*
X0115211Y0227566D01*
X0115084Y0227293D01*
X0114965Y0227017D01*
X0114852Y0226739D01*
X0114746Y0226458D01*
X0114647Y0226174D01*
X0114555Y0225888D01*
X0114469Y0225599D01*
X0114391Y0225309D01*
X0114321Y0225017D01*
X0114257Y0224723D01*
X0114200Y0224428D01*
X0114151Y0224132D01*
X0114109Y0223834D01*
X0114074Y0223536D01*
X0114047Y0223236D01*
X0114026Y0222937D01*
X0114014Y0222636D01*
X0114008Y0222336D01*
X0114010Y0222035D01*
X0114019Y0221735D01*
X0114036Y0221435D01*
X0114060Y0221135D01*
X0114091Y0220836D01*
X0114130Y0220538D01*
X0114175Y0220241D01*
X0114228Y0219945D01*
X0114289Y0219651D01*
X0114356Y0219358D01*
X0114431Y0219067D01*
X0114513Y0218778D01*
X0114601Y0218490D01*
X0114697Y0218206D01*
X0114800Y0217923D01*
X0114909Y0217643D01*
X0115026Y0217366D01*
X0115149Y0217092D01*
X0115278Y0216821D01*
X0115415Y0216553D01*
X0115558Y0216289D01*
X0115707Y0216028D01*
X0115862Y0215771D01*
X0116024Y0215517D01*
X0116192Y0215268D01*
X0116366Y0215023D01*
X0116546Y0214782D01*
X0116732Y0214546D01*
X0116924Y0214315D01*
X0117121Y0214088D01*
X0117323Y0213866D01*
X0117531Y0213649D01*
X0117745Y0213437D01*
X0117963Y0213230D01*
X0118186Y0213029D01*
X0118415Y0212834D01*
X0118647Y0212644D01*
X0118885Y0212459D01*
X0118941Y0212535D01*
X0118706Y0212717D01*
X0118475Y0212906D01*
X0118248Y0213100D01*
X0118026Y0213300D01*
X0117810Y0213505D01*
X0117598Y0213715D01*
X0117392Y0213930D01*
X0117191Y0214150D01*
X0116995Y0214376D01*
X0116805Y0214605D01*
X0116621Y0214840D01*
X0116442Y0215079D01*
X0116269Y0215322D01*
X0116103Y0215569D01*
X0115942Y0215821D01*
X0115788Y0216076D01*
X0115640Y0216335D01*
X0115498Y0216597D01*
X0115363Y0216863D01*
X0115234Y0217132D01*
X0115112Y0217404D01*
X0114996Y0217679D01*
X0114887Y0217957D01*
X0114786Y0218237D01*
X0114691Y0218520D01*
X0114603Y0218805D01*
X0114522Y0219092D01*
X0114447Y0219380D01*
X0114381Y0219671D01*
X0114321Y0219963D01*
X0114268Y0220257D01*
X0114223Y0220552D01*
X0114184Y0220847D01*
X0114153Y0221144D01*
X0114130Y0221441D01*
X0114113Y0221739D01*
X0114104Y0222037D01*
X0114102Y0222335D01*
X0114108Y0222634D01*
X0114120Y0222932D01*
X0114140Y0223229D01*
X0114168Y0223526D01*
X0114202Y0223822D01*
X0114244Y0224118D01*
X0114293Y0224412D01*
X0114349Y0224705D01*
X0114412Y0224996D01*
X0114483Y0225286D01*
X0114560Y0225574D01*
X0114644Y0225860D01*
X0114736Y0226144D01*
X0114834Y0226426D01*
X0114939Y0226705D01*
X0115051Y0226981D01*
X0115170Y0227255D01*
X0115295Y0227525D01*
X0115427Y0227793D01*
X0115566Y0228057D01*
X0115711Y0228318D01*
X0115862Y0228575D01*
X0116019Y0228828D01*
X0116183Y0229077D01*
X0116353Y0229323D01*
X0116528Y0229564D01*
X0116710Y0229801D01*
X0116897Y0230033D01*
X0117089Y0230260D01*
X0117288Y0230483D01*
X0117491Y0230701D01*
X0117700Y0230914D01*
X0117914Y0231122D01*
X0118134Y0231324D01*
X0118357Y0231521D01*
X0118586Y0231712D01*
X0118820Y0231898D01*
X0119057Y0232078D01*
X0119299Y0232252D01*
X0119546Y0232420D01*
X0119796Y0232582D01*
X0120050Y0232738D01*
X0120308Y0232888D01*
X0120570Y0233031D01*
X0120835Y0233168D01*
X0121103Y0233299D01*
X0121374Y0233422D01*
X0121649Y0233539D01*
X0121926Y0233650D01*
X0122206Y0233753D01*
X0122488Y0233850D01*
X0122772Y0233940D01*
X0123059Y0234022D01*
X0123347Y0234098D01*
X0123637Y0234167D01*
X0123929Y0234228D01*
X0124222Y0234283D01*
X0124517Y0234330D01*
X0124812Y0234370D01*
X0125109Y0234403D01*
X0125406Y0234428D01*
X0125704Y0234446D01*
X0126002Y0234457D01*
X0126300Y0234461D01*
X0126598Y0234457D01*
X0126896Y0234446D01*
X0127194Y0234428D01*
X0127491Y0234403D01*
X0127788Y0234370D01*
X0128083Y0234330D01*
X0128378Y0234283D01*
X0128671Y0234228D01*
X0128963Y0234167D01*
X0129253Y0234098D01*
X0129541Y0234022D01*
X0129828Y0233940D01*
X0130112Y0233850D01*
X0130394Y0233753D01*
X0130674Y0233650D01*
X0130951Y0233539D01*
X0131226Y0233422D01*
X0131497Y0233299D01*
X0131765Y0233168D01*
X0132030Y0233031D01*
X0132292Y0232888D01*
X0132550Y0232738D01*
X0132804Y0232582D01*
X0133054Y0232420D01*
X0133301Y0232252D01*
X0133543Y0232078D01*
X0133780Y0231898D01*
X0134014Y0231712D01*
X0134243Y0231521D01*
X0134466Y0231324D01*
X0134686Y0231122D01*
X0134900Y0230914D01*
X0135109Y0230701D01*
X0135312Y0230483D01*
X0135511Y0230260D01*
X0135703Y0230033D01*
X0135890Y0229801D01*
X0136072Y0229564D01*
X0136247Y0229323D01*
X0136417Y0229077D01*
X0136581Y0228828D01*
X0136738Y0228575D01*
X0136889Y0228318D01*
X0137034Y0228057D01*
X0137173Y0227793D01*
X0137305Y0227525D01*
X0137430Y0227255D01*
X0137549Y0226981D01*
X0137661Y0226705D01*
X0137766Y0226426D01*
X0137864Y0226144D01*
X0137956Y0225860D01*
X0138040Y0225574D01*
X0138117Y0225286D01*
X0138188Y0224996D01*
X0138251Y0224705D01*
X0138307Y0224412D01*
X0138356Y0224118D01*
X0138398Y0223822D01*
X0138432Y0223526D01*
X0138460Y0223229D01*
X0138480Y0222932D01*
X0138492Y0222634D01*
X0138498Y0222335D01*
X0138496Y0222037D01*
X0138487Y0221739D01*
X0138470Y0221441D01*
X0138447Y0221144D01*
X0138416Y0220847D01*
X0138377Y0220552D01*
X0138332Y0220257D01*
X0138279Y0219963D01*
X0138219Y0219671D01*
X0138153Y0219380D01*
X0138078Y0219092D01*
X0137997Y0218805D01*
X0137909Y0218520D01*
X0137814Y0218237D01*
X0137713Y0217957D01*
X0137604Y0217679D01*
X0137488Y0217404D01*
X0137366Y0217132D01*
X0137237Y0216863D01*
X0137102Y0216597D01*
X0136960Y0216335D01*
X0136812Y0216076D01*
X0136658Y0215821D01*
X0136497Y0215569D01*
X0136331Y0215322D01*
X0136158Y0215079D01*
X0135979Y0214840D01*
X0135795Y0214605D01*
X0135605Y0214376D01*
X0135409Y0214150D01*
X0135208Y0213930D01*
X0135002Y0213715D01*
X0134790Y0213505D01*
X0134574Y0213300D01*
X0134352Y0213100D01*
X0134125Y0212906D01*
X0133894Y0212717D01*
X0133659Y0212535D01*
X0133602Y0212610D01*
X0133836Y0212791D01*
X0134065Y0212978D01*
X0134290Y0213171D01*
X0134510Y0213369D01*
X0134725Y0213572D01*
X0134935Y0213781D01*
X0135140Y0213995D01*
X0135339Y0214213D01*
X0135533Y0214437D01*
X0135722Y0214665D01*
X0135905Y0214897D01*
X0136082Y0215134D01*
X0136253Y0215376D01*
X0136419Y0215621D01*
X0136578Y0215870D01*
X0136731Y0216124D01*
X0136878Y0216380D01*
X0137019Y0216641D01*
X0137153Y0216905D01*
X0137281Y0217172D01*
X0137402Y0217442D01*
X0137517Y0217714D01*
X0137625Y0217990D01*
X0137726Y0218268D01*
X0137820Y0218549D01*
X0137907Y0218831D01*
X0137988Y0219116D01*
X0138061Y0219403D01*
X0138128Y0219691D01*
X0138187Y0219981D01*
X0138239Y0220273D01*
X0138284Y0220565D01*
X0138322Y0220859D01*
X0138353Y0221153D01*
X0138377Y0221448D01*
X0138393Y0221743D01*
X0138402Y0222039D01*
X0138404Y0222335D01*
X0138398Y0222631D01*
X0138386Y0222927D01*
X0138366Y0223222D01*
X0138339Y0223517D01*
X0138305Y0223811D01*
X0138263Y0224104D01*
X0138215Y0224396D01*
X0138159Y0224686D01*
X0138096Y0224975D01*
X0138026Y0225263D01*
X0137949Y0225549D01*
X0137866Y0225833D01*
X0137775Y0226114D01*
X0137677Y0226394D01*
X0137573Y0226671D01*
X0137462Y0226945D01*
X0137344Y0227216D01*
X0137220Y0227485D01*
X0137089Y0227750D01*
X0136951Y0228012D01*
X0136808Y0228271D01*
X0136658Y0228526D01*
X0136501Y0228778D01*
X0136339Y0229025D01*
X0136171Y0229268D01*
X0135996Y0229508D01*
X0135816Y0229743D01*
X0135631Y0229973D01*
X0135439Y0230199D01*
X0135243Y0230420D01*
X0135041Y0230636D01*
X0134833Y0230847D01*
X0134621Y0231053D01*
X0134403Y0231254D01*
X0134181Y0231450D01*
X0133954Y0231640D01*
X0133723Y0231824D01*
X0133487Y0232002D01*
X0133247Y0232175D01*
X0133002Y0232342D01*
X0132754Y0232503D01*
X0132501Y0232658D01*
X0132245Y0232806D01*
X0131986Y0232948D01*
X0131723Y0233084D01*
X0131457Y0233214D01*
X0131188Y0233336D01*
X0130915Y0233453D01*
X0130640Y0233562D01*
X0130363Y0233665D01*
X0130083Y0233761D01*
X0129801Y0233850D01*
X0129516Y0233932D01*
X0129230Y0234007D01*
X0128942Y0234075D01*
X0128653Y0234136D01*
X0128362Y0234190D01*
X0128069Y0234237D01*
X0127776Y0234277D01*
X0127482Y0234309D01*
X0127187Y0234334D01*
X0126892Y0234353D01*
X0126596Y0234363D01*
X0126300Y0234367D01*
X0126004Y0234363D01*
X0125708Y0234353D01*
X0125413Y0234334D01*
X0125118Y0234309D01*
X0124824Y0234277D01*
X0124531Y0234237D01*
X0124238Y0234190D01*
X0123947Y0234136D01*
X0123658Y0234075D01*
X0123370Y0234007D01*
X0123084Y0233932D01*
X0122799Y0233850D01*
X0122517Y0233761D01*
X0122237Y0233665D01*
X0121960Y0233562D01*
X0121685Y0233453D01*
X0121412Y0233336D01*
X0121143Y0233214D01*
X0120877Y0233084D01*
X0120614Y0232948D01*
X0120355Y0232806D01*
X0120099Y0232658D01*
X0119846Y0232503D01*
X0119598Y0232342D01*
X0119353Y0232175D01*
X0119113Y0232002D01*
X0118877Y0231824D01*
X0118646Y0231640D01*
X0118419Y0231450D01*
X0118197Y0231254D01*
X0117979Y0231053D01*
X0117767Y0230847D01*
X0117559Y0230636D01*
X0117357Y0230420D01*
X0117161Y0230199D01*
X0116969Y0229973D01*
X0116784Y0229743D01*
X0116604Y0229508D01*
X0116429Y0229268D01*
X0116261Y0229025D01*
X0116099Y0228778D01*
X0115942Y0228526D01*
X0115792Y0228271D01*
X0115649Y0228012D01*
X0115511Y0227750D01*
X0115380Y0227485D01*
X0115256Y0227216D01*
X0115138Y0226945D01*
X0115027Y0226671D01*
X0114923Y0226394D01*
X0114825Y0226114D01*
X0114734Y0225833D01*
X0114651Y0225549D01*
X0114574Y0225263D01*
X0114504Y0224975D01*
X0114441Y0224686D01*
X0114385Y0224396D01*
X0114337Y0224104D01*
X0114295Y0223811D01*
X0114261Y0223517D01*
X0114234Y0223222D01*
X0114214Y0222927D01*
X0114202Y0222631D01*
X0114196Y0222335D01*
X0114198Y0222039D01*
X0114207Y0221743D01*
X0114223Y0221448D01*
X0114247Y0221153D01*
X0114278Y0220859D01*
X0114316Y0220565D01*
X0114361Y0220273D01*
X0114413Y0219981D01*
X0114472Y0219691D01*
X0114539Y0219403D01*
X0114612Y0219116D01*
X0114693Y0218831D01*
X0114780Y0218549D01*
X0114874Y0218268D01*
X0114975Y0217990D01*
X0115083Y0217714D01*
X0115198Y0217442D01*
X0115319Y0217172D01*
X0115447Y0216905D01*
X0115581Y0216641D01*
X0115722Y0216380D01*
X0115869Y0216124D01*
X0116022Y0215870D01*
X0116181Y0215621D01*
X0116347Y0215376D01*
X0116518Y0215134D01*
X0116695Y0214897D01*
X0116878Y0214665D01*
X0117067Y0214437D01*
X0117261Y0214213D01*
X0117460Y0213995D01*
X0117665Y0213781D01*
X0117875Y0213572D01*
X0118090Y0213369D01*
X0118310Y0213171D01*
X0118535Y0212978D01*
X0118764Y0212791D01*
X0118998Y0212610D01*
D13*
X0116300Y0222263D02*
X0116303Y0222508D01*
X0116312Y0222754D01*
X0116327Y0222999D01*
X0116348Y0223243D01*
X0116375Y0223487D01*
X0116408Y0223730D01*
X0116447Y0223973D01*
X0116492Y0224214D01*
X0116543Y0224454D01*
X0116600Y0224693D01*
X0116662Y0224930D01*
X0116731Y0225166D01*
X0116805Y0225400D01*
X0116885Y0225632D01*
X0116970Y0225862D01*
X0117061Y0226090D01*
X0117158Y0226315D01*
X0117260Y0226539D01*
X0117368Y0226759D01*
X0117481Y0226977D01*
X0117599Y0227192D01*
X0117723Y0227404D01*
X0117851Y0227613D01*
X0117985Y0227819D01*
X0118124Y0228021D01*
X0118268Y0228220D01*
X0118417Y0228415D01*
X0118570Y0228607D01*
X0118728Y0228795D01*
X0118890Y0228979D01*
X0119058Y0229158D01*
X0119229Y0229334D01*
X0119405Y0229505D01*
X0119584Y0229673D01*
X0119768Y0229835D01*
X0119956Y0229993D01*
X0120148Y0230146D01*
X0120343Y0230295D01*
X0120542Y0230439D01*
X0120744Y0230578D01*
X0120950Y0230712D01*
X0121159Y0230840D01*
X0121371Y0230964D01*
X0121586Y0231082D01*
X0121804Y0231195D01*
X0122024Y0231303D01*
X0122248Y0231405D01*
X0122473Y0231502D01*
X0122701Y0231593D01*
X0122931Y0231678D01*
X0123163Y0231758D01*
X0123397Y0231832D01*
X0123633Y0231901D01*
X0123870Y0231963D01*
X0124109Y0232020D01*
X0124349Y0232071D01*
X0124590Y0232116D01*
X0124833Y0232155D01*
X0125076Y0232188D01*
X0125320Y0232215D01*
X0125564Y0232236D01*
X0125809Y0232251D01*
X0126055Y0232260D01*
X0126300Y0232263D01*
X0126545Y0232260D01*
X0126791Y0232251D01*
X0127036Y0232236D01*
X0127280Y0232215D01*
X0127524Y0232188D01*
X0127767Y0232155D01*
X0128010Y0232116D01*
X0128251Y0232071D01*
X0128491Y0232020D01*
X0128730Y0231963D01*
X0128967Y0231901D01*
X0129203Y0231832D01*
X0129437Y0231758D01*
X0129669Y0231678D01*
X0129899Y0231593D01*
X0130127Y0231502D01*
X0130352Y0231405D01*
X0130576Y0231303D01*
X0130796Y0231195D01*
X0131014Y0231082D01*
X0131229Y0230964D01*
X0131441Y0230840D01*
X0131650Y0230712D01*
X0131856Y0230578D01*
X0132058Y0230439D01*
X0132257Y0230295D01*
X0132452Y0230146D01*
X0132644Y0229993D01*
X0132832Y0229835D01*
X0133016Y0229673D01*
X0133195Y0229505D01*
X0133371Y0229334D01*
X0133542Y0229158D01*
X0133710Y0228979D01*
X0133872Y0228795D01*
X0134030Y0228607D01*
X0134183Y0228415D01*
X0134332Y0228220D01*
X0134476Y0228021D01*
X0134615Y0227819D01*
X0134749Y0227613D01*
X0134877Y0227404D01*
X0135001Y0227192D01*
X0135119Y0226977D01*
X0135232Y0226759D01*
X0135340Y0226539D01*
X0135442Y0226315D01*
X0135539Y0226090D01*
X0135630Y0225862D01*
X0135715Y0225632D01*
X0135795Y0225400D01*
X0135869Y0225166D01*
X0135938Y0224930D01*
X0136000Y0224693D01*
X0136057Y0224454D01*
X0136108Y0224214D01*
X0136153Y0223973D01*
X0136192Y0223730D01*
X0136225Y0223487D01*
X0136252Y0223243D01*
X0136273Y0222999D01*
X0136288Y0222754D01*
X0136297Y0222508D01*
X0136300Y0222263D01*
X0136297Y0222018D01*
X0136288Y0221772D01*
X0136273Y0221527D01*
X0136252Y0221283D01*
X0136225Y0221039D01*
X0136192Y0220796D01*
X0136153Y0220553D01*
X0136108Y0220312D01*
X0136057Y0220072D01*
X0136000Y0219833D01*
X0135938Y0219596D01*
X0135869Y0219360D01*
X0135795Y0219126D01*
X0135715Y0218894D01*
X0135630Y0218664D01*
X0135539Y0218436D01*
X0135442Y0218211D01*
X0135340Y0217987D01*
X0135232Y0217767D01*
X0135119Y0217549D01*
X0135001Y0217334D01*
X0134877Y0217122D01*
X0134749Y0216913D01*
X0134615Y0216707D01*
X0134476Y0216505D01*
X0134332Y0216306D01*
X0134183Y0216111D01*
X0134030Y0215919D01*
X0133872Y0215731D01*
X0133710Y0215547D01*
X0133542Y0215368D01*
X0133371Y0215192D01*
X0133195Y0215021D01*
X0133016Y0214853D01*
X0132832Y0214691D01*
X0132644Y0214533D01*
X0132452Y0214380D01*
X0132257Y0214231D01*
X0132058Y0214087D01*
X0131856Y0213948D01*
X0131650Y0213814D01*
X0131441Y0213686D01*
X0131229Y0213562D01*
X0131014Y0213444D01*
X0130796Y0213331D01*
X0130576Y0213223D01*
X0130352Y0213121D01*
X0130127Y0213024D01*
X0129899Y0212933D01*
X0129669Y0212848D01*
X0129437Y0212768D01*
X0129203Y0212694D01*
X0128967Y0212625D01*
X0128730Y0212563D01*
X0128491Y0212506D01*
X0128251Y0212455D01*
X0128010Y0212410D01*
X0127767Y0212371D01*
X0127524Y0212338D01*
X0127280Y0212311D01*
X0127036Y0212290D01*
X0126791Y0212275D01*
X0126545Y0212266D01*
X0126300Y0212263D01*
X0126055Y0212266D01*
X0125809Y0212275D01*
X0125564Y0212290D01*
X0125320Y0212311D01*
X0125076Y0212338D01*
X0124833Y0212371D01*
X0124590Y0212410D01*
X0124349Y0212455D01*
X0124109Y0212506D01*
X0123870Y0212563D01*
X0123633Y0212625D01*
X0123397Y0212694D01*
X0123163Y0212768D01*
X0122931Y0212848D01*
X0122701Y0212933D01*
X0122473Y0213024D01*
X0122248Y0213121D01*
X0122024Y0213223D01*
X0121804Y0213331D01*
X0121586Y0213444D01*
X0121371Y0213562D01*
X0121159Y0213686D01*
X0120950Y0213814D01*
X0120744Y0213948D01*
X0120542Y0214087D01*
X0120343Y0214231D01*
X0120148Y0214380D01*
X0119956Y0214533D01*
X0119768Y0214691D01*
X0119584Y0214853D01*
X0119405Y0215021D01*
X0119229Y0215192D01*
X0119058Y0215368D01*
X0118890Y0215547D01*
X0118728Y0215731D01*
X0118570Y0215919D01*
X0118417Y0216111D01*
X0118268Y0216306D01*
X0118124Y0216505D01*
X0117985Y0216707D01*
X0117851Y0216913D01*
X0117723Y0217122D01*
X0117599Y0217334D01*
X0117481Y0217549D01*
X0117368Y0217767D01*
X0117260Y0217987D01*
X0117158Y0218211D01*
X0117061Y0218436D01*
X0116970Y0218664D01*
X0116885Y0218894D01*
X0116805Y0219126D01*
X0116731Y0219360D01*
X0116662Y0219596D01*
X0116600Y0219833D01*
X0116543Y0220072D01*
X0116492Y0220312D01*
X0116447Y0220553D01*
X0116408Y0220796D01*
X0116375Y0221039D01*
X0116348Y0221283D01*
X0116327Y0221527D01*
X0116312Y0221772D01*
X0116303Y0222018D01*
X0116300Y0222263D01*
X0077481Y0129625D02*
X0075119Y0129625D01*
X0075119Y0124900D02*
X0077481Y0124900D01*
X0083938Y0073444D02*
X0083938Y0071081D01*
X0088662Y0071081D02*
X0088662Y0073444D01*
X0150119Y0099900D02*
X0152481Y0099900D01*
X0152481Y0104625D02*
X0150119Y0104625D01*
X0178938Y0078444D02*
X0178938Y0076081D01*
X0183662Y0076081D02*
X0183662Y0078444D01*
X0213938Y0106081D02*
X0213938Y0108444D01*
X0218662Y0108444D02*
X0218662Y0106081D01*
X0228938Y0078444D02*
X0228938Y0076081D01*
X0233662Y0076081D02*
X0233662Y0078444D01*
X0258938Y0111081D02*
X0258938Y0113444D01*
X0263662Y0113444D02*
X0263662Y0111081D01*
X0295119Y0099625D02*
X0297481Y0099625D01*
X0297481Y0094900D02*
X0295119Y0094900D01*
D14*
X0253188Y0095003D02*
X0253188Y0097003D01*
X0253186Y0097072D01*
X0253180Y0097141D01*
X0253171Y0097209D01*
X0253158Y0097276D01*
X0253141Y0097343D01*
X0253120Y0097409D01*
X0253096Y0097473D01*
X0253068Y0097536D01*
X0253037Y0097598D01*
X0253003Y0097658D01*
X0252965Y0097715D01*
X0252924Y0097771D01*
X0252881Y0097824D01*
X0252834Y0097875D01*
X0252785Y0097923D01*
X0252733Y0097968D01*
X0252678Y0098010D01*
X0252622Y0098049D01*
X0252563Y0098086D01*
X0252502Y0098118D01*
X0252440Y0098148D01*
X0252376Y0098174D01*
X0252311Y0098196D01*
X0252245Y0098215D01*
X0252178Y0098230D01*
X0252110Y0098241D01*
X0252041Y0098249D01*
X0251972Y0098253D01*
X0251904Y0098253D01*
X0251835Y0098249D01*
X0251766Y0098241D01*
X0251698Y0098230D01*
X0251631Y0098215D01*
X0251565Y0098196D01*
X0251500Y0098174D01*
X0251436Y0098148D01*
X0251374Y0098118D01*
X0251313Y0098086D01*
X0251254Y0098049D01*
X0251198Y0098010D01*
X0251143Y0097968D01*
X0251091Y0097923D01*
X0251042Y0097875D01*
X0250995Y0097824D01*
X0250952Y0097771D01*
X0250911Y0097715D01*
X0250873Y0097658D01*
X0250839Y0097598D01*
X0250808Y0097536D01*
X0250780Y0097473D01*
X0250756Y0097409D01*
X0250735Y0097343D01*
X0250718Y0097276D01*
X0250705Y0097209D01*
X0250696Y0097141D01*
X0250690Y0097072D01*
X0250688Y0097003D01*
X0250688Y0095003D01*
X0251188Y0094753D02*
X0250188Y0093753D01*
X0248833Y0094753D02*
X0246333Y0094753D01*
X0247083Y0095753D02*
X0247083Y0093753D01*
X0248833Y0094753D02*
X0247833Y0098253D01*
X0244036Y0102003D02*
X0242456Y0102003D01*
X0241830Y0107503D02*
X0225337Y0107503D01*
X0224711Y0102003D02*
X0223131Y0102003D01*
X0232456Y0102003D02*
X0234711Y0102003D01*
X0225337Y0107503D02*
X0225184Y0107304D01*
X0225036Y0107102D01*
X0224893Y0106897D01*
X0224755Y0106688D01*
X0224622Y0106476D01*
X0224494Y0106261D01*
X0224372Y0106043D01*
X0224254Y0105822D01*
X0224142Y0105598D01*
X0224035Y0105372D01*
X0223934Y0105143D01*
X0223838Y0104912D01*
X0223747Y0104678D01*
X0223662Y0104443D01*
X0223583Y0104205D01*
X0223510Y0103966D01*
X0223442Y0103725D01*
X0223380Y0103483D01*
X0223324Y0103239D01*
X0223273Y0102993D01*
X0223229Y0102747D01*
X0223190Y0102500D01*
X0223158Y0102252D01*
X0223131Y0102003D01*
X0223109Y0101748D01*
X0223094Y0101492D01*
X0223086Y0101236D01*
X0223083Y0100979D01*
X0223087Y0100723D01*
X0223097Y0100467D01*
X0223113Y0100211D01*
X0223135Y0099956D01*
X0223164Y0099701D01*
X0223199Y0099447D01*
X0223240Y0099194D01*
X0223287Y0098942D01*
X0223341Y0098692D01*
X0223400Y0098443D01*
X0223466Y0098195D01*
X0223537Y0097949D01*
X0223615Y0097704D01*
X0223698Y0097462D01*
X0223787Y0097222D01*
X0223883Y0096984D01*
X0223984Y0096748D01*
X0224090Y0096515D01*
X0224203Y0096285D01*
X0224321Y0096057D01*
X0224444Y0095833D01*
X0224573Y0095611D01*
X0224707Y0095393D01*
X0224847Y0095178D01*
X0224992Y0094967D01*
X0225142Y0094759D01*
X0225296Y0094555D01*
X0225456Y0094354D01*
X0225621Y0094158D01*
X0225790Y0093966D01*
X0225965Y0093777D01*
X0226143Y0093594D01*
X0226326Y0093414D01*
X0226514Y0093239D01*
X0226705Y0093069D01*
X0226901Y0092904D01*
X0227101Y0092743D01*
X0227304Y0092587D01*
X0227511Y0092437D01*
X0227722Y0092291D01*
X0227937Y0092150D01*
X0228154Y0092015D01*
X0228375Y0091885D01*
X0228599Y0091761D01*
X0228826Y0091642D01*
X0229056Y0091529D01*
X0229289Y0091421D01*
X0229524Y0091319D01*
X0229762Y0091223D01*
X0230001Y0091133D01*
X0230243Y0091048D01*
X0230487Y0090970D01*
X0236680Y0090970D02*
X0236922Y0091048D01*
X0237162Y0091132D01*
X0237400Y0091221D01*
X0237636Y0091316D01*
X0237870Y0091418D01*
X0238101Y0091524D01*
X0238329Y0091637D01*
X0238555Y0091754D01*
X0238778Y0091877D01*
X0238997Y0092006D01*
X0239214Y0092140D01*
X0239427Y0092279D01*
X0239637Y0092423D01*
X0239843Y0092572D01*
X0240045Y0092726D01*
X0240244Y0092885D01*
X0240439Y0093049D01*
X0240630Y0093218D01*
X0240816Y0093391D01*
X0240999Y0093568D01*
X0241177Y0093750D01*
X0241350Y0093936D01*
X0241519Y0094127D01*
X0241683Y0094321D01*
X0241843Y0094519D01*
X0241998Y0094721D01*
X0242147Y0094927D01*
X0242292Y0095136D01*
X0242432Y0095349D01*
X0242566Y0095565D01*
X0242695Y0095785D01*
X0242819Y0096007D01*
X0242938Y0096232D01*
X0243050Y0096460D01*
X0243158Y0096691D01*
X0243259Y0096924D01*
X0243355Y0097160D01*
X0243446Y0097398D01*
X0243530Y0097638D01*
X0243609Y0097880D01*
X0243682Y0098124D01*
X0243748Y0098370D01*
X0243809Y0098617D01*
X0243864Y0098865D01*
X0243913Y0099115D01*
X0243956Y0099366D01*
X0243992Y0099618D01*
X0244023Y0099870D01*
X0244047Y0100124D01*
X0244065Y0100377D01*
X0244077Y0100632D01*
X0244083Y0100886D01*
X0244083Y0101141D01*
X0244077Y0101395D01*
X0244064Y0101649D01*
X0244045Y0101903D01*
X0244020Y0102156D01*
X0243989Y0102409D01*
X0243952Y0102661D01*
X0243909Y0102911D01*
X0243860Y0103161D01*
X0243804Y0103410D01*
X0243743Y0103657D01*
X0243676Y0103902D01*
X0243603Y0104146D01*
X0243524Y0104388D01*
X0243439Y0104627D01*
X0243348Y0104865D01*
X0243251Y0105101D01*
X0243149Y0105334D01*
X0243041Y0105564D01*
X0242928Y0105792D01*
X0242809Y0106017D01*
X0242685Y0106239D01*
X0242555Y0106458D01*
X0242421Y0106674D01*
X0242281Y0106887D01*
X0242135Y0107096D01*
X0241985Y0107301D01*
X0241830Y0107503D01*
X0250688Y0095003D02*
X0250690Y0094934D01*
X0250696Y0094865D01*
X0250705Y0094797D01*
X0250718Y0094730D01*
X0250735Y0094663D01*
X0250756Y0094597D01*
X0250780Y0094533D01*
X0250808Y0094470D01*
X0250839Y0094408D01*
X0250873Y0094348D01*
X0250911Y0094291D01*
X0250952Y0094235D01*
X0250995Y0094182D01*
X0251042Y0094131D01*
X0251091Y0094083D01*
X0251143Y0094038D01*
X0251198Y0093996D01*
X0251254Y0093957D01*
X0251313Y0093920D01*
X0251374Y0093888D01*
X0251436Y0093858D01*
X0251500Y0093832D01*
X0251565Y0093810D01*
X0251631Y0093791D01*
X0251698Y0093776D01*
X0251766Y0093765D01*
X0251835Y0093757D01*
X0251904Y0093753D01*
X0251972Y0093753D01*
X0252041Y0093757D01*
X0252110Y0093765D01*
X0252178Y0093776D01*
X0252245Y0093791D01*
X0252311Y0093810D01*
X0252376Y0093832D01*
X0252440Y0093858D01*
X0252502Y0093888D01*
X0252563Y0093920D01*
X0252622Y0093957D01*
X0252678Y0093996D01*
X0252733Y0094038D01*
X0252785Y0094083D01*
X0252834Y0094131D01*
X0252881Y0094182D01*
X0252924Y0094235D01*
X0252965Y0094291D01*
X0253003Y0094348D01*
X0253037Y0094408D01*
X0253068Y0094470D01*
X0253096Y0094533D01*
X0253120Y0094597D01*
X0253141Y0094663D01*
X0253158Y0094730D01*
X0253171Y0094797D01*
X0253180Y0094865D01*
X0253186Y0094934D01*
X0253188Y0095003D01*
X0251450Y0049513D02*
X0251450Y0048013D01*
X0253550Y0048613D01*
X0252050Y0049063D02*
X0250850Y0049063D01*
X0251975Y0046450D02*
X0252200Y0046075D01*
X0252425Y0045700D01*
X0251300Y0045475D02*
X0251268Y0045532D01*
X0251239Y0045591D01*
X0251213Y0045652D01*
X0251191Y0045714D01*
X0251172Y0045777D01*
X0251157Y0045841D01*
X0251145Y0045906D01*
X0251137Y0045971D01*
X0251132Y0046037D01*
X0251131Y0046103D01*
X0251134Y0046169D01*
X0251140Y0046234D01*
X0251150Y0046300D01*
X0250850Y0046075D02*
X0253550Y0046075D01*
X0253250Y0045849D02*
X0253240Y0045809D01*
X0253227Y0045769D01*
X0253210Y0045731D01*
X0253190Y0045695D01*
X0253167Y0045660D01*
X0253140Y0045628D01*
X0253111Y0045599D01*
X0253078Y0045572D01*
X0253044Y0045549D01*
X0253008Y0045528D01*
X0252969Y0045512D01*
X0252930Y0045499D01*
X0252889Y0045489D01*
X0252848Y0045484D01*
X0252806Y0045482D01*
X0252765Y0045484D01*
X0252723Y0045490D01*
X0252683Y0045500D01*
X0252643Y0045514D01*
X0252605Y0045531D01*
X0252569Y0045552D01*
X0252535Y0045576D01*
X0252503Y0045603D01*
X0252474Y0045632D01*
X0252448Y0045665D01*
X0252425Y0045700D01*
X0253250Y0045849D02*
X0253260Y0045915D01*
X0253266Y0045980D01*
X0253269Y0046046D01*
X0253268Y0046112D01*
X0253263Y0046178D01*
X0253255Y0046243D01*
X0253243Y0046308D01*
X0253228Y0046372D01*
X0253209Y0046435D01*
X0253187Y0046497D01*
X0253161Y0046558D01*
X0253132Y0046617D01*
X0253100Y0046674D01*
X0251975Y0046449D02*
X0251952Y0046484D01*
X0251926Y0046517D01*
X0251897Y0046546D01*
X0251865Y0046573D01*
X0251831Y0046597D01*
X0251795Y0046618D01*
X0251757Y0046635D01*
X0251717Y0046649D01*
X0251677Y0046659D01*
X0251635Y0046665D01*
X0251594Y0046667D01*
X0251552Y0046665D01*
X0251511Y0046660D01*
X0251470Y0046650D01*
X0251431Y0046637D01*
X0251392Y0046621D01*
X0251356Y0046600D01*
X0251322Y0046577D01*
X0251289Y0046550D01*
X0251260Y0046521D01*
X0251233Y0046489D01*
X0251210Y0046454D01*
X0251190Y0046418D01*
X0251173Y0046380D01*
X0251160Y0046340D01*
X0251150Y0046300D01*
X0251600Y0044041D02*
X0253550Y0044041D01*
X0253550Y0042541D02*
X0251600Y0042541D01*
X0251546Y0042543D01*
X0251493Y0042549D01*
X0251441Y0042558D01*
X0251389Y0042571D01*
X0251338Y0042588D01*
X0251288Y0042609D01*
X0251241Y0042633D01*
X0251195Y0042660D01*
X0251151Y0042691D01*
X0251109Y0042724D01*
X0251070Y0042761D01*
X0251033Y0042800D01*
X0251000Y0042842D01*
X0250969Y0042886D01*
X0250942Y0042932D01*
X0250918Y0042979D01*
X0250897Y0043029D01*
X0250880Y0043080D01*
X0250867Y0043132D01*
X0250858Y0043184D01*
X0250852Y0043237D01*
X0250850Y0043291D01*
X0250852Y0043345D01*
X0250858Y0043398D01*
X0250867Y0043450D01*
X0250880Y0043502D01*
X0250897Y0043553D01*
X0250918Y0043603D01*
X0250942Y0043650D01*
X0250969Y0043696D01*
X0251000Y0043740D01*
X0251033Y0043782D01*
X0251070Y0043821D01*
X0251109Y0043858D01*
X0251151Y0043891D01*
X0251195Y0043922D01*
X0251241Y0043949D01*
X0251288Y0043973D01*
X0251338Y0043994D01*
X0251389Y0044011D01*
X0251441Y0044024D01*
X0251493Y0044033D01*
X0251546Y0044039D01*
X0251600Y0044041D01*
X0119330Y0114688D02*
X0119330Y0116688D01*
X0119328Y0116757D01*
X0119322Y0116826D01*
X0119313Y0116894D01*
X0119300Y0116961D01*
X0119283Y0117028D01*
X0119262Y0117094D01*
X0119238Y0117158D01*
X0119210Y0117221D01*
X0119179Y0117283D01*
X0119145Y0117343D01*
X0119107Y0117400D01*
X0119066Y0117456D01*
X0119023Y0117509D01*
X0118976Y0117560D01*
X0118927Y0117608D01*
X0118875Y0117653D01*
X0118820Y0117695D01*
X0118764Y0117734D01*
X0118705Y0117771D01*
X0118644Y0117803D01*
X0118582Y0117833D01*
X0118518Y0117859D01*
X0118453Y0117881D01*
X0118387Y0117900D01*
X0118320Y0117915D01*
X0118252Y0117926D01*
X0118183Y0117934D01*
X0118114Y0117938D01*
X0118046Y0117938D01*
X0117977Y0117934D01*
X0117908Y0117926D01*
X0117840Y0117915D01*
X0117773Y0117900D01*
X0117707Y0117881D01*
X0117642Y0117859D01*
X0117578Y0117833D01*
X0117516Y0117803D01*
X0117455Y0117771D01*
X0117396Y0117734D01*
X0117340Y0117695D01*
X0117285Y0117653D01*
X0117233Y0117608D01*
X0117184Y0117560D01*
X0117137Y0117509D01*
X0117094Y0117456D01*
X0117053Y0117400D01*
X0117015Y0117343D01*
X0116981Y0117283D01*
X0116950Y0117221D01*
X0116922Y0117158D01*
X0116898Y0117094D01*
X0116877Y0117028D01*
X0116860Y0116961D01*
X0116847Y0116894D01*
X0116838Y0116826D01*
X0116832Y0116757D01*
X0116830Y0116688D01*
X0116830Y0114688D01*
X0117330Y0114438D02*
X0116330Y0113438D01*
X0114975Y0113438D02*
X0113725Y0113438D01*
X0113656Y0113440D01*
X0113587Y0113446D01*
X0113519Y0113455D01*
X0113452Y0113468D01*
X0113385Y0113485D01*
X0113319Y0113506D01*
X0113255Y0113530D01*
X0113192Y0113558D01*
X0113130Y0113589D01*
X0113070Y0113623D01*
X0113013Y0113661D01*
X0112957Y0113702D01*
X0112904Y0113745D01*
X0112853Y0113792D01*
X0112805Y0113841D01*
X0112760Y0113893D01*
X0112718Y0113948D01*
X0112679Y0114004D01*
X0112642Y0114063D01*
X0112610Y0114124D01*
X0112580Y0114186D01*
X0112554Y0114250D01*
X0112532Y0114315D01*
X0112513Y0114381D01*
X0112498Y0114448D01*
X0112487Y0114516D01*
X0112479Y0114585D01*
X0112475Y0114654D01*
X0112475Y0114722D01*
X0112479Y0114791D01*
X0112487Y0114860D01*
X0112498Y0114928D01*
X0112513Y0114995D01*
X0112532Y0115061D01*
X0112554Y0115126D01*
X0112580Y0115190D01*
X0112610Y0115252D01*
X0112642Y0115313D01*
X0112679Y0115372D01*
X0112718Y0115428D01*
X0112760Y0115483D01*
X0112805Y0115535D01*
X0112853Y0115584D01*
X0112904Y0115631D01*
X0112957Y0115674D01*
X0113013Y0115715D01*
X0113070Y0115753D01*
X0113130Y0115787D01*
X0113192Y0115818D01*
X0113255Y0115846D01*
X0113319Y0115870D01*
X0113385Y0115891D01*
X0113452Y0115908D01*
X0113519Y0115921D01*
X0113587Y0115930D01*
X0113656Y0115936D01*
X0113725Y0115938D01*
X0113475Y0115938D02*
X0114475Y0115938D01*
X0113475Y0115938D02*
X0113413Y0115940D01*
X0113352Y0115946D01*
X0113291Y0115955D01*
X0113231Y0115968D01*
X0113172Y0115985D01*
X0113114Y0116006D01*
X0113057Y0116030D01*
X0113002Y0116057D01*
X0112949Y0116088D01*
X0112897Y0116122D01*
X0112848Y0116159D01*
X0112801Y0116199D01*
X0112757Y0116242D01*
X0112716Y0116287D01*
X0112677Y0116335D01*
X0112641Y0116386D01*
X0112609Y0116438D01*
X0112580Y0116492D01*
X0112554Y0116548D01*
X0112532Y0116606D01*
X0112513Y0116664D01*
X0112498Y0116724D01*
X0112487Y0116785D01*
X0112479Y0116846D01*
X0112475Y0116907D01*
X0112475Y0116969D01*
X0112479Y0117030D01*
X0112487Y0117091D01*
X0112498Y0117152D01*
X0112513Y0117212D01*
X0112532Y0117270D01*
X0112554Y0117328D01*
X0112580Y0117384D01*
X0112609Y0117438D01*
X0112641Y0117490D01*
X0112677Y0117541D01*
X0112716Y0117589D01*
X0112757Y0117634D01*
X0112801Y0117677D01*
X0112848Y0117717D01*
X0112897Y0117754D01*
X0112949Y0117788D01*
X0113002Y0117819D01*
X0113057Y0117846D01*
X0113114Y0117870D01*
X0113172Y0117891D01*
X0113231Y0117908D01*
X0113291Y0117921D01*
X0113352Y0117930D01*
X0113413Y0117936D01*
X0113475Y0117938D01*
X0114975Y0117938D01*
X0116830Y0114688D02*
X0116832Y0114619D01*
X0116838Y0114550D01*
X0116847Y0114482D01*
X0116860Y0114415D01*
X0116877Y0114348D01*
X0116898Y0114282D01*
X0116922Y0114218D01*
X0116950Y0114155D01*
X0116981Y0114093D01*
X0117015Y0114033D01*
X0117053Y0113976D01*
X0117094Y0113920D01*
X0117137Y0113867D01*
X0117184Y0113816D01*
X0117233Y0113768D01*
X0117285Y0113723D01*
X0117340Y0113681D01*
X0117396Y0113642D01*
X0117455Y0113605D01*
X0117516Y0113573D01*
X0117578Y0113543D01*
X0117642Y0113517D01*
X0117707Y0113495D01*
X0117773Y0113476D01*
X0117840Y0113461D01*
X0117908Y0113450D01*
X0117977Y0113442D01*
X0118046Y0113438D01*
X0118114Y0113438D01*
X0118183Y0113442D01*
X0118252Y0113450D01*
X0118320Y0113461D01*
X0118387Y0113476D01*
X0118453Y0113495D01*
X0118518Y0113517D01*
X0118582Y0113543D01*
X0118644Y0113573D01*
X0118705Y0113605D01*
X0118764Y0113642D01*
X0118820Y0113681D01*
X0118875Y0113723D01*
X0118927Y0113768D01*
X0118976Y0113816D01*
X0119023Y0113867D01*
X0119066Y0113920D01*
X0119107Y0113976D01*
X0119145Y0114033D01*
X0119179Y0114093D01*
X0119210Y0114155D01*
X0119238Y0114218D01*
X0119262Y0114282D01*
X0119283Y0114348D01*
X0119300Y0114415D01*
X0119313Y0114482D01*
X0119322Y0114550D01*
X0119328Y0114619D01*
X0119330Y0114688D01*
X0110178Y0121688D02*
X0108598Y0121688D01*
X0107971Y0127188D02*
X0091479Y0127188D01*
X0090852Y0121688D02*
X0089273Y0121688D01*
X0098598Y0121688D02*
X0100852Y0121688D01*
X0091479Y0127188D02*
X0091326Y0126989D01*
X0091178Y0126787D01*
X0091035Y0126582D01*
X0090897Y0126373D01*
X0090764Y0126161D01*
X0090636Y0125946D01*
X0090514Y0125728D01*
X0090396Y0125507D01*
X0090284Y0125283D01*
X0090177Y0125057D01*
X0090076Y0124828D01*
X0089980Y0124597D01*
X0089889Y0124363D01*
X0089804Y0124128D01*
X0089725Y0123890D01*
X0089652Y0123651D01*
X0089584Y0123410D01*
X0089522Y0123168D01*
X0089466Y0122924D01*
X0089415Y0122678D01*
X0089371Y0122432D01*
X0089332Y0122185D01*
X0089300Y0121937D01*
X0089273Y0121688D01*
X0089251Y0121433D01*
X0089236Y0121177D01*
X0089228Y0120921D01*
X0089225Y0120664D01*
X0089229Y0120408D01*
X0089239Y0120152D01*
X0089255Y0119896D01*
X0089277Y0119641D01*
X0089306Y0119386D01*
X0089341Y0119132D01*
X0089382Y0118879D01*
X0089429Y0118627D01*
X0089483Y0118377D01*
X0089542Y0118128D01*
X0089608Y0117880D01*
X0089679Y0117634D01*
X0089757Y0117389D01*
X0089840Y0117147D01*
X0089929Y0116907D01*
X0090025Y0116669D01*
X0090126Y0116433D01*
X0090232Y0116200D01*
X0090345Y0115970D01*
X0090463Y0115742D01*
X0090586Y0115518D01*
X0090715Y0115296D01*
X0090849Y0115078D01*
X0090989Y0114863D01*
X0091134Y0114652D01*
X0091284Y0114444D01*
X0091438Y0114240D01*
X0091598Y0114039D01*
X0091763Y0113843D01*
X0091932Y0113651D01*
X0092107Y0113462D01*
X0092285Y0113279D01*
X0092468Y0113099D01*
X0092656Y0112924D01*
X0092847Y0112754D01*
X0093043Y0112589D01*
X0093243Y0112428D01*
X0093446Y0112272D01*
X0093653Y0112122D01*
X0093864Y0111976D01*
X0094079Y0111835D01*
X0094296Y0111700D01*
X0094517Y0111570D01*
X0094741Y0111446D01*
X0094968Y0111327D01*
X0095198Y0111214D01*
X0095431Y0111106D01*
X0095666Y0111004D01*
X0095904Y0110908D01*
X0096143Y0110818D01*
X0096385Y0110733D01*
X0096629Y0110655D01*
X0102821Y0110655D02*
X0103063Y0110733D01*
X0103303Y0110817D01*
X0103541Y0110906D01*
X0103777Y0111001D01*
X0104011Y0111103D01*
X0104242Y0111209D01*
X0104470Y0111322D01*
X0104696Y0111439D01*
X0104919Y0111562D01*
X0105138Y0111691D01*
X0105355Y0111825D01*
X0105568Y0111964D01*
X0105778Y0112108D01*
X0105984Y0112257D01*
X0106186Y0112411D01*
X0106385Y0112570D01*
X0106580Y0112734D01*
X0106771Y0112903D01*
X0106957Y0113076D01*
X0107140Y0113253D01*
X0107318Y0113435D01*
X0107491Y0113621D01*
X0107660Y0113812D01*
X0107824Y0114006D01*
X0107984Y0114204D01*
X0108139Y0114406D01*
X0108288Y0114612D01*
X0108433Y0114821D01*
X0108573Y0115034D01*
X0108707Y0115250D01*
X0108836Y0115470D01*
X0108960Y0115692D01*
X0109079Y0115917D01*
X0109191Y0116145D01*
X0109299Y0116376D01*
X0109400Y0116609D01*
X0109496Y0116845D01*
X0109587Y0117083D01*
X0109671Y0117323D01*
X0109750Y0117565D01*
X0109823Y0117809D01*
X0109889Y0118055D01*
X0109950Y0118302D01*
X0110005Y0118550D01*
X0110054Y0118800D01*
X0110097Y0119051D01*
X0110133Y0119303D01*
X0110164Y0119555D01*
X0110188Y0119809D01*
X0110206Y0120062D01*
X0110218Y0120317D01*
X0110224Y0120571D01*
X0110224Y0120826D01*
X0110218Y0121080D01*
X0110205Y0121334D01*
X0110186Y0121588D01*
X0110161Y0121841D01*
X0110130Y0122094D01*
X0110093Y0122346D01*
X0110050Y0122596D01*
X0110001Y0122846D01*
X0109945Y0123095D01*
X0109884Y0123342D01*
X0109817Y0123587D01*
X0109744Y0123831D01*
X0109665Y0124073D01*
X0109580Y0124312D01*
X0109489Y0124550D01*
X0109392Y0124786D01*
X0109290Y0125019D01*
X0109182Y0125249D01*
X0109069Y0125477D01*
X0108950Y0125702D01*
X0108826Y0125924D01*
X0108696Y0126143D01*
X0108562Y0126359D01*
X0108422Y0126572D01*
X0108276Y0126781D01*
X0108126Y0126986D01*
X0107971Y0127188D01*
X0119450Y0197863D02*
X0119450Y0199113D01*
X0119452Y0199181D01*
X0119457Y0199248D01*
X0119466Y0199315D01*
X0119479Y0199382D01*
X0119496Y0199447D01*
X0119515Y0199512D01*
X0119539Y0199576D01*
X0119566Y0199638D01*
X0119596Y0199699D01*
X0119629Y0199757D01*
X0119665Y0199814D01*
X0119705Y0199869D01*
X0119747Y0199922D01*
X0119793Y0199973D01*
X0119840Y0200020D01*
X0119891Y0200066D01*
X0119944Y0200108D01*
X0119999Y0200148D01*
X0120056Y0200184D01*
X0120114Y0200217D01*
X0120175Y0200247D01*
X0120237Y0200274D01*
X0120301Y0200298D01*
X0120366Y0200317D01*
X0120431Y0200334D01*
X0120498Y0200347D01*
X0120565Y0200356D01*
X0120632Y0200361D01*
X0120700Y0200363D01*
X0122700Y0200363D01*
X0122768Y0200361D01*
X0122835Y0200356D01*
X0122902Y0200347D01*
X0122969Y0200334D01*
X0123034Y0200317D01*
X0123099Y0200298D01*
X0123163Y0200274D01*
X0123225Y0200247D01*
X0123286Y0200217D01*
X0123344Y0200184D01*
X0123401Y0200148D01*
X0123456Y0200108D01*
X0123509Y0200066D01*
X0123560Y0200020D01*
X0123607Y0199973D01*
X0123653Y0199922D01*
X0123695Y0199869D01*
X0123735Y0199814D01*
X0123771Y0199757D01*
X0123804Y0199699D01*
X0123834Y0199638D01*
X0123861Y0199576D01*
X0123885Y0199512D01*
X0123904Y0199447D01*
X0123921Y0199382D01*
X0123934Y0199315D01*
X0123943Y0199248D01*
X0123948Y0199181D01*
X0123950Y0199113D01*
X0123950Y0197863D01*
X0119450Y0197863D01*
X0119450Y0202513D02*
X0119450Y0205013D01*
X0119450Y0203763D02*
X0123950Y0203763D01*
X0122950Y0202513D01*
X0119450Y0207013D02*
X0119450Y0209513D01*
X0119450Y0207013D02*
X0121950Y0209138D01*
X0123950Y0208388D02*
X0123948Y0208315D01*
X0123943Y0208243D01*
X0123934Y0208171D01*
X0123921Y0208099D01*
X0123905Y0208028D01*
X0123885Y0207958D01*
X0123861Y0207890D01*
X0123835Y0207822D01*
X0123804Y0207756D01*
X0123771Y0207691D01*
X0123734Y0207629D01*
X0123695Y0207568D01*
X0123652Y0207509D01*
X0123606Y0207452D01*
X0123558Y0207398D01*
X0123507Y0207347D01*
X0123453Y0207297D01*
X0123397Y0207251D01*
X0123339Y0207208D01*
X0123278Y0207167D01*
X0123216Y0207130D01*
X0123152Y0207096D01*
X0123086Y0207065D01*
X0123019Y0207037D01*
X0122950Y0207013D01*
X0121950Y0209137D02*
X0121996Y0209183D01*
X0122045Y0209227D01*
X0122096Y0209267D01*
X0122149Y0209305D01*
X0122204Y0209340D01*
X0122261Y0209372D01*
X0122319Y0209401D01*
X0122379Y0209427D01*
X0122441Y0209449D01*
X0122503Y0209468D01*
X0122566Y0209484D01*
X0122630Y0209496D01*
X0122695Y0209505D01*
X0122760Y0209510D01*
X0122825Y0209512D01*
X0122825Y0209513D02*
X0122890Y0209511D01*
X0122956Y0209505D01*
X0123020Y0209496D01*
X0123084Y0209483D01*
X0123148Y0209466D01*
X0123210Y0209445D01*
X0123271Y0209421D01*
X0123330Y0209393D01*
X0123388Y0209362D01*
X0123443Y0209328D01*
X0123497Y0209290D01*
X0123548Y0209250D01*
X0123597Y0209206D01*
X0123643Y0209160D01*
X0123687Y0209111D01*
X0123727Y0209060D01*
X0123765Y0209006D01*
X0123799Y0208951D01*
X0123830Y0208893D01*
X0123858Y0208834D01*
X0123882Y0208773D01*
X0123903Y0208711D01*
X0123920Y0208647D01*
X0123933Y0208583D01*
X0123942Y0208519D01*
X0123948Y0208453D01*
X0123950Y0208388D01*
X0103550Y0048913D02*
X0103550Y0048013D01*
X0103550Y0048913D02*
X0103548Y0048961D01*
X0103542Y0049009D01*
X0103533Y0049057D01*
X0103519Y0049103D01*
X0103502Y0049148D01*
X0103481Y0049192D01*
X0103457Y0049234D01*
X0103430Y0049273D01*
X0103399Y0049311D01*
X0103366Y0049346D01*
X0103329Y0049378D01*
X0103291Y0049407D01*
X0103250Y0049433D01*
X0103207Y0049455D01*
X0103163Y0049474D01*
X0103117Y0049489D01*
X0103070Y0049501D01*
X0103022Y0049509D01*
X0102974Y0049513D01*
X0102926Y0049513D01*
X0102878Y0049509D01*
X0102830Y0049501D01*
X0102783Y0049489D01*
X0102737Y0049474D01*
X0102693Y0049455D01*
X0102650Y0049433D01*
X0102609Y0049407D01*
X0102571Y0049378D01*
X0102534Y0049346D01*
X0102501Y0049311D01*
X0102470Y0049273D01*
X0102443Y0049234D01*
X0102419Y0049192D01*
X0102398Y0049148D01*
X0102381Y0049103D01*
X0102367Y0049057D01*
X0102358Y0049009D01*
X0102352Y0048961D01*
X0102350Y0048913D01*
X0102350Y0048313D01*
X0102350Y0048763D02*
X0102348Y0048817D01*
X0102342Y0048870D01*
X0102333Y0048922D01*
X0102320Y0048974D01*
X0102303Y0049025D01*
X0102282Y0049075D01*
X0102258Y0049122D01*
X0102231Y0049168D01*
X0102200Y0049212D01*
X0102167Y0049254D01*
X0102130Y0049293D01*
X0102091Y0049330D01*
X0102049Y0049363D01*
X0102005Y0049394D01*
X0101959Y0049421D01*
X0101912Y0049445D01*
X0101862Y0049466D01*
X0101811Y0049483D01*
X0101759Y0049496D01*
X0101707Y0049505D01*
X0101654Y0049511D01*
X0101600Y0049513D01*
X0101546Y0049511D01*
X0101493Y0049505D01*
X0101441Y0049496D01*
X0101389Y0049483D01*
X0101338Y0049466D01*
X0101288Y0049445D01*
X0101241Y0049421D01*
X0101195Y0049394D01*
X0101151Y0049363D01*
X0101109Y0049330D01*
X0101070Y0049293D01*
X0101033Y0049254D01*
X0101000Y0049212D01*
X0100969Y0049168D01*
X0100942Y0049122D01*
X0100918Y0049075D01*
X0100897Y0049025D01*
X0100880Y0048974D01*
X0100867Y0048922D01*
X0100858Y0048870D01*
X0100852Y0048817D01*
X0100850Y0048763D01*
X0100850Y0048013D01*
X0101975Y0046450D02*
X0102200Y0046075D01*
X0102425Y0045700D01*
X0101300Y0045475D02*
X0101268Y0045532D01*
X0101239Y0045591D01*
X0101213Y0045652D01*
X0101191Y0045714D01*
X0101172Y0045777D01*
X0101157Y0045841D01*
X0101145Y0045906D01*
X0101137Y0045971D01*
X0101132Y0046037D01*
X0101131Y0046103D01*
X0101134Y0046169D01*
X0101140Y0046234D01*
X0101150Y0046300D01*
X0100850Y0046075D02*
X0103550Y0046075D01*
X0103250Y0045849D02*
X0103240Y0045809D01*
X0103227Y0045769D01*
X0103210Y0045731D01*
X0103190Y0045695D01*
X0103167Y0045660D01*
X0103140Y0045628D01*
X0103111Y0045599D01*
X0103078Y0045572D01*
X0103044Y0045549D01*
X0103008Y0045528D01*
X0102969Y0045512D01*
X0102930Y0045499D01*
X0102889Y0045489D01*
X0102848Y0045484D01*
X0102806Y0045482D01*
X0102765Y0045484D01*
X0102723Y0045490D01*
X0102683Y0045500D01*
X0102643Y0045514D01*
X0102605Y0045531D01*
X0102569Y0045552D01*
X0102535Y0045576D01*
X0102503Y0045603D01*
X0102474Y0045632D01*
X0102448Y0045665D01*
X0102425Y0045700D01*
X0103250Y0045849D02*
X0103260Y0045915D01*
X0103266Y0045980D01*
X0103269Y0046046D01*
X0103268Y0046112D01*
X0103263Y0046178D01*
X0103255Y0046243D01*
X0103243Y0046308D01*
X0103228Y0046372D01*
X0103209Y0046435D01*
X0103187Y0046497D01*
X0103161Y0046558D01*
X0103132Y0046617D01*
X0103100Y0046674D01*
X0101975Y0046449D02*
X0101952Y0046484D01*
X0101926Y0046517D01*
X0101897Y0046546D01*
X0101865Y0046573D01*
X0101831Y0046597D01*
X0101795Y0046618D01*
X0101757Y0046635D01*
X0101717Y0046649D01*
X0101677Y0046659D01*
X0101635Y0046665D01*
X0101594Y0046667D01*
X0101552Y0046665D01*
X0101511Y0046660D01*
X0101470Y0046650D01*
X0101431Y0046637D01*
X0101392Y0046621D01*
X0101356Y0046600D01*
X0101322Y0046577D01*
X0101289Y0046550D01*
X0101260Y0046521D01*
X0101233Y0046489D01*
X0101210Y0046454D01*
X0101190Y0046418D01*
X0101173Y0046380D01*
X0101160Y0046340D01*
X0101150Y0046300D01*
X0101600Y0044041D02*
X0103550Y0044041D01*
X0103550Y0042541D02*
X0101600Y0042541D01*
X0101546Y0042543D01*
X0101493Y0042549D01*
X0101441Y0042558D01*
X0101389Y0042571D01*
X0101338Y0042588D01*
X0101288Y0042609D01*
X0101241Y0042633D01*
X0101195Y0042660D01*
X0101151Y0042691D01*
X0101109Y0042724D01*
X0101070Y0042761D01*
X0101033Y0042800D01*
X0101000Y0042842D01*
X0100969Y0042886D01*
X0100942Y0042932D01*
X0100918Y0042979D01*
X0100897Y0043029D01*
X0100880Y0043080D01*
X0100867Y0043132D01*
X0100858Y0043184D01*
X0100852Y0043237D01*
X0100850Y0043291D01*
X0100852Y0043345D01*
X0100858Y0043398D01*
X0100867Y0043450D01*
X0100880Y0043502D01*
X0100897Y0043553D01*
X0100918Y0043603D01*
X0100942Y0043650D01*
X0100969Y0043696D01*
X0101000Y0043740D01*
X0101033Y0043782D01*
X0101070Y0043821D01*
X0101109Y0043858D01*
X0101151Y0043891D01*
X0101195Y0043922D01*
X0101241Y0043949D01*
X0101288Y0043973D01*
X0101338Y0043994D01*
X0101389Y0044011D01*
X0101441Y0044024D01*
X0101493Y0044033D01*
X0101546Y0044039D01*
X0101600Y0044041D01*
X0317300Y0255763D02*
X0317300Y0289263D01*
X0325300Y0289263D01*
X0325300Y0255763D01*
X0317300Y0255763D01*
D15*
X0268600Y0092563D02*
X0267578Y0092563D01*
X0268089Y0092563D02*
X0268089Y0087963D01*
X0268600Y0087963D02*
X0267578Y0087963D01*
X0265780Y0088985D02*
X0265780Y0091540D01*
X0265778Y0091602D01*
X0265773Y0091663D01*
X0265763Y0091724D01*
X0265750Y0091785D01*
X0265734Y0091844D01*
X0265714Y0091902D01*
X0265690Y0091959D01*
X0265663Y0092015D01*
X0265633Y0092069D01*
X0265599Y0092121D01*
X0265563Y0092170D01*
X0265523Y0092218D01*
X0265481Y0092263D01*
X0265436Y0092305D01*
X0265388Y0092345D01*
X0265339Y0092381D01*
X0265287Y0092415D01*
X0265233Y0092445D01*
X0265177Y0092472D01*
X0265120Y0092496D01*
X0265062Y0092516D01*
X0265003Y0092532D01*
X0264942Y0092545D01*
X0264881Y0092555D01*
X0264820Y0092560D01*
X0264758Y0092562D01*
X0264758Y0092563D02*
X0263735Y0092563D01*
X0259844Y0090519D02*
X0259797Y0090566D01*
X0259753Y0090616D01*
X0259711Y0090668D01*
X0259672Y0090722D01*
X0259637Y0090778D01*
X0259604Y0090836D01*
X0259574Y0090896D01*
X0259548Y0090957D01*
X0259525Y0091020D01*
X0259506Y0091084D01*
X0259490Y0091148D01*
X0259477Y0091214D01*
X0259468Y0091280D01*
X0259463Y0091346D01*
X0259461Y0091413D01*
X0259844Y0090518D02*
X0262017Y0087963D01*
X0259461Y0087963D01*
X0262016Y0091540D02*
X0261991Y0091610D01*
X0261963Y0091679D01*
X0261932Y0091746D01*
X0261897Y0091812D01*
X0261859Y0091875D01*
X0261817Y0091937D01*
X0261773Y0091997D01*
X0261726Y0092054D01*
X0261676Y0092109D01*
X0261623Y0092161D01*
X0261567Y0092211D01*
X0261510Y0092257D01*
X0261449Y0092301D01*
X0261387Y0092342D01*
X0261323Y0092379D01*
X0261257Y0092413D01*
X0261189Y0092444D01*
X0261120Y0092471D01*
X0261050Y0092495D01*
X0260979Y0092516D01*
X0260906Y0092532D01*
X0260833Y0092545D01*
X0260759Y0092555D01*
X0260685Y0092560D01*
X0260611Y0092562D01*
X0260611Y0092563D02*
X0260544Y0092561D01*
X0260477Y0092555D01*
X0260411Y0092546D01*
X0260346Y0092532D01*
X0260281Y0092515D01*
X0260218Y0092494D01*
X0260156Y0092469D01*
X0260095Y0092441D01*
X0260036Y0092409D01*
X0259979Y0092374D01*
X0259924Y0092335D01*
X0259872Y0092294D01*
X0259822Y0092249D01*
X0259775Y0092202D01*
X0259730Y0092152D01*
X0259689Y0092100D01*
X0259650Y0092045D01*
X0259615Y0091988D01*
X0259583Y0091929D01*
X0259555Y0091868D01*
X0259530Y0091806D01*
X0259509Y0091743D01*
X0259492Y0091678D01*
X0259478Y0091613D01*
X0259469Y0091547D01*
X0259463Y0091480D01*
X0259461Y0091413D01*
X0263735Y0087963D02*
X0264758Y0087963D01*
X0264820Y0087965D01*
X0264881Y0087970D01*
X0264942Y0087980D01*
X0265003Y0087993D01*
X0265062Y0088009D01*
X0265120Y0088029D01*
X0265177Y0088053D01*
X0265233Y0088080D01*
X0265287Y0088110D01*
X0265339Y0088144D01*
X0265388Y0088180D01*
X0265436Y0088220D01*
X0265481Y0088262D01*
X0265523Y0088307D01*
X0265563Y0088355D01*
X0265599Y0088404D01*
X0265633Y0088456D01*
X0265663Y0088510D01*
X0265690Y0088566D01*
X0265714Y0088623D01*
X0265734Y0088681D01*
X0265750Y0088740D01*
X0265763Y0088801D01*
X0265773Y0088862D01*
X0265778Y0088923D01*
X0265780Y0088985D01*
X0118600Y0087963D02*
X0117578Y0087963D01*
X0118089Y0087963D02*
X0118089Y0092563D01*
X0118600Y0092563D02*
X0117578Y0092563D01*
X0115780Y0091540D02*
X0115780Y0088985D01*
X0115778Y0088923D01*
X0115773Y0088862D01*
X0115763Y0088801D01*
X0115750Y0088740D01*
X0115734Y0088681D01*
X0115714Y0088623D01*
X0115690Y0088566D01*
X0115663Y0088510D01*
X0115633Y0088456D01*
X0115599Y0088404D01*
X0115563Y0088355D01*
X0115523Y0088307D01*
X0115481Y0088262D01*
X0115436Y0088220D01*
X0115388Y0088180D01*
X0115339Y0088144D01*
X0115287Y0088110D01*
X0115233Y0088080D01*
X0115177Y0088053D01*
X0115120Y0088029D01*
X0115062Y0088009D01*
X0115003Y0087993D01*
X0114942Y0087980D01*
X0114881Y0087970D01*
X0114820Y0087965D01*
X0114758Y0087963D01*
X0113735Y0087963D01*
X0112017Y0087963D02*
X0109461Y0087963D01*
X0110739Y0087963D02*
X0110739Y0092563D01*
X0112017Y0091540D01*
X0113735Y0092563D02*
X0114758Y0092563D01*
X0114758Y0092562D02*
X0114820Y0092560D01*
X0114881Y0092555D01*
X0114942Y0092545D01*
X0115003Y0092532D01*
X0115062Y0092516D01*
X0115120Y0092496D01*
X0115177Y0092472D01*
X0115233Y0092445D01*
X0115287Y0092415D01*
X0115339Y0092381D01*
X0115388Y0092345D01*
X0115436Y0092305D01*
X0115481Y0092263D01*
X0115523Y0092218D01*
X0115563Y0092170D01*
X0115599Y0092121D01*
X0115633Y0092069D01*
X0115663Y0092015D01*
X0115690Y0091959D01*
X0115714Y0091902D01*
X0115734Y0091844D01*
X0115750Y0091785D01*
X0115763Y0091724D01*
X0115773Y0091663D01*
X0115778Y0091602D01*
X0115780Y0091540D01*
D16*
X0086420Y0072263D02*
X0086180Y0072263D01*
X0231180Y0077263D02*
X0231420Y0077263D01*
D17*
X0261300Y0097153D02*
X0261300Y0097373D01*
X0111300Y0097373D02*
X0111300Y0097153D01*
D18*
X0105591Y0043837D02*
X0105591Y0035373D01*
X0107954Y0035373D01*
X0114646Y0035373D02*
X0117009Y0035373D01*
X0117009Y0043837D01*
X0255591Y0043837D02*
X0255591Y0035373D01*
X0257954Y0035373D01*
X0264646Y0035373D02*
X0267009Y0035373D01*
X0267009Y0043837D01*
M02*
