G75*
%MOIN*%
%OFA0B0*%
%FSLAX25Y25*%
%IPPOS*%
%LPD*%
%AMOC8*
5,1,8,0,0,1.08239X$1,22.5*
%
%ADD10C,0.00000*%
%ADD11R,0.08661X0.02362*%
%ADD12R,0.04724X0.03150*%
%ADD13R,0.04331X0.03937*%
%ADD14R,0.05787X0.05000*%
%ADD15R,0.03150X0.04724*%
%ADD16R,0.04724X0.04724*%
%ADD17R,0.05906X0.06299*%
D10*
X0001300Y0022263D02*
X0001300Y0337223D01*
X0395001Y0337223D01*
X0395001Y0022263D01*
X0001300Y0022263D01*
X0014485Y0041948D02*
X0014487Y0042109D01*
X0014493Y0042269D01*
X0014503Y0042430D01*
X0014517Y0042590D01*
X0014535Y0042750D01*
X0014556Y0042909D01*
X0014582Y0043068D01*
X0014612Y0043226D01*
X0014645Y0043383D01*
X0014683Y0043540D01*
X0014724Y0043695D01*
X0014769Y0043849D01*
X0014818Y0044002D01*
X0014871Y0044154D01*
X0014927Y0044305D01*
X0014988Y0044454D01*
X0015051Y0044602D01*
X0015119Y0044748D01*
X0015190Y0044892D01*
X0015264Y0045034D01*
X0015342Y0045175D01*
X0015424Y0045313D01*
X0015509Y0045450D01*
X0015597Y0045584D01*
X0015689Y0045716D01*
X0015784Y0045846D01*
X0015882Y0045974D01*
X0015983Y0046099D01*
X0016087Y0046221D01*
X0016194Y0046341D01*
X0016304Y0046458D01*
X0016417Y0046573D01*
X0016533Y0046684D01*
X0016652Y0046793D01*
X0016773Y0046898D01*
X0016897Y0047001D01*
X0017023Y0047101D01*
X0017151Y0047197D01*
X0017282Y0047290D01*
X0017416Y0047380D01*
X0017551Y0047467D01*
X0017689Y0047550D01*
X0017828Y0047630D01*
X0017970Y0047706D01*
X0018113Y0047779D01*
X0018258Y0047848D01*
X0018405Y0047914D01*
X0018553Y0047976D01*
X0018703Y0048034D01*
X0018854Y0048089D01*
X0019007Y0048140D01*
X0019161Y0048187D01*
X0019316Y0048230D01*
X0019472Y0048269D01*
X0019628Y0048305D01*
X0019786Y0048336D01*
X0019944Y0048364D01*
X0020103Y0048388D01*
X0020263Y0048408D01*
X0020423Y0048424D01*
X0020583Y0048436D01*
X0020744Y0048444D01*
X0020905Y0048448D01*
X0021065Y0048448D01*
X0021226Y0048444D01*
X0021387Y0048436D01*
X0021547Y0048424D01*
X0021707Y0048408D01*
X0021867Y0048388D01*
X0022026Y0048364D01*
X0022184Y0048336D01*
X0022342Y0048305D01*
X0022498Y0048269D01*
X0022654Y0048230D01*
X0022809Y0048187D01*
X0022963Y0048140D01*
X0023116Y0048089D01*
X0023267Y0048034D01*
X0023417Y0047976D01*
X0023565Y0047914D01*
X0023712Y0047848D01*
X0023857Y0047779D01*
X0024000Y0047706D01*
X0024142Y0047630D01*
X0024281Y0047550D01*
X0024419Y0047467D01*
X0024554Y0047380D01*
X0024688Y0047290D01*
X0024819Y0047197D01*
X0024947Y0047101D01*
X0025073Y0047001D01*
X0025197Y0046898D01*
X0025318Y0046793D01*
X0025437Y0046684D01*
X0025553Y0046573D01*
X0025666Y0046458D01*
X0025776Y0046341D01*
X0025883Y0046221D01*
X0025987Y0046099D01*
X0026088Y0045974D01*
X0026186Y0045846D01*
X0026281Y0045716D01*
X0026373Y0045584D01*
X0026461Y0045450D01*
X0026546Y0045313D01*
X0026628Y0045175D01*
X0026706Y0045034D01*
X0026780Y0044892D01*
X0026851Y0044748D01*
X0026919Y0044602D01*
X0026982Y0044454D01*
X0027043Y0044305D01*
X0027099Y0044154D01*
X0027152Y0044002D01*
X0027201Y0043849D01*
X0027246Y0043695D01*
X0027287Y0043540D01*
X0027325Y0043383D01*
X0027358Y0043226D01*
X0027388Y0043068D01*
X0027414Y0042909D01*
X0027435Y0042750D01*
X0027453Y0042590D01*
X0027467Y0042430D01*
X0027477Y0042269D01*
X0027483Y0042109D01*
X0027485Y0041948D01*
X0027483Y0041787D01*
X0027477Y0041627D01*
X0027467Y0041466D01*
X0027453Y0041306D01*
X0027435Y0041146D01*
X0027414Y0040987D01*
X0027388Y0040828D01*
X0027358Y0040670D01*
X0027325Y0040513D01*
X0027287Y0040356D01*
X0027246Y0040201D01*
X0027201Y0040047D01*
X0027152Y0039894D01*
X0027099Y0039742D01*
X0027043Y0039591D01*
X0026982Y0039442D01*
X0026919Y0039294D01*
X0026851Y0039148D01*
X0026780Y0039004D01*
X0026706Y0038862D01*
X0026628Y0038721D01*
X0026546Y0038583D01*
X0026461Y0038446D01*
X0026373Y0038312D01*
X0026281Y0038180D01*
X0026186Y0038050D01*
X0026088Y0037922D01*
X0025987Y0037797D01*
X0025883Y0037675D01*
X0025776Y0037555D01*
X0025666Y0037438D01*
X0025553Y0037323D01*
X0025437Y0037212D01*
X0025318Y0037103D01*
X0025197Y0036998D01*
X0025073Y0036895D01*
X0024947Y0036795D01*
X0024819Y0036699D01*
X0024688Y0036606D01*
X0024554Y0036516D01*
X0024419Y0036429D01*
X0024281Y0036346D01*
X0024142Y0036266D01*
X0024000Y0036190D01*
X0023857Y0036117D01*
X0023712Y0036048D01*
X0023565Y0035982D01*
X0023417Y0035920D01*
X0023267Y0035862D01*
X0023116Y0035807D01*
X0022963Y0035756D01*
X0022809Y0035709D01*
X0022654Y0035666D01*
X0022498Y0035627D01*
X0022342Y0035591D01*
X0022184Y0035560D01*
X0022026Y0035532D01*
X0021867Y0035508D01*
X0021707Y0035488D01*
X0021547Y0035472D01*
X0021387Y0035460D01*
X0021226Y0035452D01*
X0021065Y0035448D01*
X0020905Y0035448D01*
X0020744Y0035452D01*
X0020583Y0035460D01*
X0020423Y0035472D01*
X0020263Y0035488D01*
X0020103Y0035508D01*
X0019944Y0035532D01*
X0019786Y0035560D01*
X0019628Y0035591D01*
X0019472Y0035627D01*
X0019316Y0035666D01*
X0019161Y0035709D01*
X0019007Y0035756D01*
X0018854Y0035807D01*
X0018703Y0035862D01*
X0018553Y0035920D01*
X0018405Y0035982D01*
X0018258Y0036048D01*
X0018113Y0036117D01*
X0017970Y0036190D01*
X0017828Y0036266D01*
X0017689Y0036346D01*
X0017551Y0036429D01*
X0017416Y0036516D01*
X0017282Y0036606D01*
X0017151Y0036699D01*
X0017023Y0036795D01*
X0016897Y0036895D01*
X0016773Y0036998D01*
X0016652Y0037103D01*
X0016533Y0037212D01*
X0016417Y0037323D01*
X0016304Y0037438D01*
X0016194Y0037555D01*
X0016087Y0037675D01*
X0015983Y0037797D01*
X0015882Y0037922D01*
X0015784Y0038050D01*
X0015689Y0038180D01*
X0015597Y0038312D01*
X0015509Y0038446D01*
X0015424Y0038583D01*
X0015342Y0038721D01*
X0015264Y0038862D01*
X0015190Y0039004D01*
X0015119Y0039148D01*
X0015051Y0039294D01*
X0014988Y0039442D01*
X0014927Y0039591D01*
X0014871Y0039742D01*
X0014818Y0039894D01*
X0014769Y0040047D01*
X0014724Y0040201D01*
X0014683Y0040356D01*
X0014645Y0040513D01*
X0014612Y0040670D01*
X0014582Y0040828D01*
X0014556Y0040987D01*
X0014535Y0041146D01*
X0014517Y0041306D01*
X0014503Y0041466D01*
X0014493Y0041627D01*
X0014487Y0041787D01*
X0014485Y0041948D01*
X0010548Y0321475D02*
X0010550Y0321636D01*
X0010556Y0321796D01*
X0010566Y0321957D01*
X0010580Y0322117D01*
X0010598Y0322277D01*
X0010619Y0322436D01*
X0010645Y0322595D01*
X0010675Y0322753D01*
X0010708Y0322910D01*
X0010746Y0323067D01*
X0010787Y0323222D01*
X0010832Y0323376D01*
X0010881Y0323529D01*
X0010934Y0323681D01*
X0010990Y0323832D01*
X0011051Y0323981D01*
X0011114Y0324129D01*
X0011182Y0324275D01*
X0011253Y0324419D01*
X0011327Y0324561D01*
X0011405Y0324702D01*
X0011487Y0324840D01*
X0011572Y0324977D01*
X0011660Y0325111D01*
X0011752Y0325243D01*
X0011847Y0325373D01*
X0011945Y0325501D01*
X0012046Y0325626D01*
X0012150Y0325748D01*
X0012257Y0325868D01*
X0012367Y0325985D01*
X0012480Y0326100D01*
X0012596Y0326211D01*
X0012715Y0326320D01*
X0012836Y0326425D01*
X0012960Y0326528D01*
X0013086Y0326628D01*
X0013214Y0326724D01*
X0013345Y0326817D01*
X0013479Y0326907D01*
X0013614Y0326994D01*
X0013752Y0327077D01*
X0013891Y0327157D01*
X0014033Y0327233D01*
X0014176Y0327306D01*
X0014321Y0327375D01*
X0014468Y0327441D01*
X0014616Y0327503D01*
X0014766Y0327561D01*
X0014917Y0327616D01*
X0015070Y0327667D01*
X0015224Y0327714D01*
X0015379Y0327757D01*
X0015535Y0327796D01*
X0015691Y0327832D01*
X0015849Y0327863D01*
X0016007Y0327891D01*
X0016166Y0327915D01*
X0016326Y0327935D01*
X0016486Y0327951D01*
X0016646Y0327963D01*
X0016807Y0327971D01*
X0016968Y0327975D01*
X0017128Y0327975D01*
X0017289Y0327971D01*
X0017450Y0327963D01*
X0017610Y0327951D01*
X0017770Y0327935D01*
X0017930Y0327915D01*
X0018089Y0327891D01*
X0018247Y0327863D01*
X0018405Y0327832D01*
X0018561Y0327796D01*
X0018717Y0327757D01*
X0018872Y0327714D01*
X0019026Y0327667D01*
X0019179Y0327616D01*
X0019330Y0327561D01*
X0019480Y0327503D01*
X0019628Y0327441D01*
X0019775Y0327375D01*
X0019920Y0327306D01*
X0020063Y0327233D01*
X0020205Y0327157D01*
X0020344Y0327077D01*
X0020482Y0326994D01*
X0020617Y0326907D01*
X0020751Y0326817D01*
X0020882Y0326724D01*
X0021010Y0326628D01*
X0021136Y0326528D01*
X0021260Y0326425D01*
X0021381Y0326320D01*
X0021500Y0326211D01*
X0021616Y0326100D01*
X0021729Y0325985D01*
X0021839Y0325868D01*
X0021946Y0325748D01*
X0022050Y0325626D01*
X0022151Y0325501D01*
X0022249Y0325373D01*
X0022344Y0325243D01*
X0022436Y0325111D01*
X0022524Y0324977D01*
X0022609Y0324840D01*
X0022691Y0324702D01*
X0022769Y0324561D01*
X0022843Y0324419D01*
X0022914Y0324275D01*
X0022982Y0324129D01*
X0023045Y0323981D01*
X0023106Y0323832D01*
X0023162Y0323681D01*
X0023215Y0323529D01*
X0023264Y0323376D01*
X0023309Y0323222D01*
X0023350Y0323067D01*
X0023388Y0322910D01*
X0023421Y0322753D01*
X0023451Y0322595D01*
X0023477Y0322436D01*
X0023498Y0322277D01*
X0023516Y0322117D01*
X0023530Y0321957D01*
X0023540Y0321796D01*
X0023546Y0321636D01*
X0023548Y0321475D01*
X0023546Y0321314D01*
X0023540Y0321154D01*
X0023530Y0320993D01*
X0023516Y0320833D01*
X0023498Y0320673D01*
X0023477Y0320514D01*
X0023451Y0320355D01*
X0023421Y0320197D01*
X0023388Y0320040D01*
X0023350Y0319883D01*
X0023309Y0319728D01*
X0023264Y0319574D01*
X0023215Y0319421D01*
X0023162Y0319269D01*
X0023106Y0319118D01*
X0023045Y0318969D01*
X0022982Y0318821D01*
X0022914Y0318675D01*
X0022843Y0318531D01*
X0022769Y0318389D01*
X0022691Y0318248D01*
X0022609Y0318110D01*
X0022524Y0317973D01*
X0022436Y0317839D01*
X0022344Y0317707D01*
X0022249Y0317577D01*
X0022151Y0317449D01*
X0022050Y0317324D01*
X0021946Y0317202D01*
X0021839Y0317082D01*
X0021729Y0316965D01*
X0021616Y0316850D01*
X0021500Y0316739D01*
X0021381Y0316630D01*
X0021260Y0316525D01*
X0021136Y0316422D01*
X0021010Y0316322D01*
X0020882Y0316226D01*
X0020751Y0316133D01*
X0020617Y0316043D01*
X0020482Y0315956D01*
X0020344Y0315873D01*
X0020205Y0315793D01*
X0020063Y0315717D01*
X0019920Y0315644D01*
X0019775Y0315575D01*
X0019628Y0315509D01*
X0019480Y0315447D01*
X0019330Y0315389D01*
X0019179Y0315334D01*
X0019026Y0315283D01*
X0018872Y0315236D01*
X0018717Y0315193D01*
X0018561Y0315154D01*
X0018405Y0315118D01*
X0018247Y0315087D01*
X0018089Y0315059D01*
X0017930Y0315035D01*
X0017770Y0315015D01*
X0017610Y0314999D01*
X0017450Y0314987D01*
X0017289Y0314979D01*
X0017128Y0314975D01*
X0016968Y0314975D01*
X0016807Y0314979D01*
X0016646Y0314987D01*
X0016486Y0314999D01*
X0016326Y0315015D01*
X0016166Y0315035D01*
X0016007Y0315059D01*
X0015849Y0315087D01*
X0015691Y0315118D01*
X0015535Y0315154D01*
X0015379Y0315193D01*
X0015224Y0315236D01*
X0015070Y0315283D01*
X0014917Y0315334D01*
X0014766Y0315389D01*
X0014616Y0315447D01*
X0014468Y0315509D01*
X0014321Y0315575D01*
X0014176Y0315644D01*
X0014033Y0315717D01*
X0013891Y0315793D01*
X0013752Y0315873D01*
X0013614Y0315956D01*
X0013479Y0316043D01*
X0013345Y0316133D01*
X0013214Y0316226D01*
X0013086Y0316322D01*
X0012960Y0316422D01*
X0012836Y0316525D01*
X0012715Y0316630D01*
X0012596Y0316739D01*
X0012480Y0316850D01*
X0012367Y0316965D01*
X0012257Y0317082D01*
X0012150Y0317202D01*
X0012046Y0317324D01*
X0011945Y0317449D01*
X0011847Y0317577D01*
X0011752Y0317707D01*
X0011660Y0317839D01*
X0011572Y0317973D01*
X0011487Y0318110D01*
X0011405Y0318248D01*
X0011327Y0318389D01*
X0011253Y0318531D01*
X0011182Y0318675D01*
X0011114Y0318821D01*
X0011051Y0318969D01*
X0010990Y0319118D01*
X0010934Y0319269D01*
X0010881Y0319421D01*
X0010832Y0319574D01*
X0010787Y0319728D01*
X0010746Y0319883D01*
X0010708Y0320040D01*
X0010675Y0320197D01*
X0010645Y0320355D01*
X0010619Y0320514D01*
X0010598Y0320673D01*
X0010580Y0320833D01*
X0010566Y0320993D01*
X0010556Y0321154D01*
X0010550Y0321314D01*
X0010548Y0321475D01*
X0368816Y0041948D02*
X0368818Y0042109D01*
X0368824Y0042269D01*
X0368834Y0042430D01*
X0368848Y0042590D01*
X0368866Y0042750D01*
X0368887Y0042909D01*
X0368913Y0043068D01*
X0368943Y0043226D01*
X0368976Y0043383D01*
X0369014Y0043540D01*
X0369055Y0043695D01*
X0369100Y0043849D01*
X0369149Y0044002D01*
X0369202Y0044154D01*
X0369258Y0044305D01*
X0369319Y0044454D01*
X0369382Y0044602D01*
X0369450Y0044748D01*
X0369521Y0044892D01*
X0369595Y0045034D01*
X0369673Y0045175D01*
X0369755Y0045313D01*
X0369840Y0045450D01*
X0369928Y0045584D01*
X0370020Y0045716D01*
X0370115Y0045846D01*
X0370213Y0045974D01*
X0370314Y0046099D01*
X0370418Y0046221D01*
X0370525Y0046341D01*
X0370635Y0046458D01*
X0370748Y0046573D01*
X0370864Y0046684D01*
X0370983Y0046793D01*
X0371104Y0046898D01*
X0371228Y0047001D01*
X0371354Y0047101D01*
X0371482Y0047197D01*
X0371613Y0047290D01*
X0371747Y0047380D01*
X0371882Y0047467D01*
X0372020Y0047550D01*
X0372159Y0047630D01*
X0372301Y0047706D01*
X0372444Y0047779D01*
X0372589Y0047848D01*
X0372736Y0047914D01*
X0372884Y0047976D01*
X0373034Y0048034D01*
X0373185Y0048089D01*
X0373338Y0048140D01*
X0373492Y0048187D01*
X0373647Y0048230D01*
X0373803Y0048269D01*
X0373959Y0048305D01*
X0374117Y0048336D01*
X0374275Y0048364D01*
X0374434Y0048388D01*
X0374594Y0048408D01*
X0374754Y0048424D01*
X0374914Y0048436D01*
X0375075Y0048444D01*
X0375236Y0048448D01*
X0375396Y0048448D01*
X0375557Y0048444D01*
X0375718Y0048436D01*
X0375878Y0048424D01*
X0376038Y0048408D01*
X0376198Y0048388D01*
X0376357Y0048364D01*
X0376515Y0048336D01*
X0376673Y0048305D01*
X0376829Y0048269D01*
X0376985Y0048230D01*
X0377140Y0048187D01*
X0377294Y0048140D01*
X0377447Y0048089D01*
X0377598Y0048034D01*
X0377748Y0047976D01*
X0377896Y0047914D01*
X0378043Y0047848D01*
X0378188Y0047779D01*
X0378331Y0047706D01*
X0378473Y0047630D01*
X0378612Y0047550D01*
X0378750Y0047467D01*
X0378885Y0047380D01*
X0379019Y0047290D01*
X0379150Y0047197D01*
X0379278Y0047101D01*
X0379404Y0047001D01*
X0379528Y0046898D01*
X0379649Y0046793D01*
X0379768Y0046684D01*
X0379884Y0046573D01*
X0379997Y0046458D01*
X0380107Y0046341D01*
X0380214Y0046221D01*
X0380318Y0046099D01*
X0380419Y0045974D01*
X0380517Y0045846D01*
X0380612Y0045716D01*
X0380704Y0045584D01*
X0380792Y0045450D01*
X0380877Y0045313D01*
X0380959Y0045175D01*
X0381037Y0045034D01*
X0381111Y0044892D01*
X0381182Y0044748D01*
X0381250Y0044602D01*
X0381313Y0044454D01*
X0381374Y0044305D01*
X0381430Y0044154D01*
X0381483Y0044002D01*
X0381532Y0043849D01*
X0381577Y0043695D01*
X0381618Y0043540D01*
X0381656Y0043383D01*
X0381689Y0043226D01*
X0381719Y0043068D01*
X0381745Y0042909D01*
X0381766Y0042750D01*
X0381784Y0042590D01*
X0381798Y0042430D01*
X0381808Y0042269D01*
X0381814Y0042109D01*
X0381816Y0041948D01*
X0381814Y0041787D01*
X0381808Y0041627D01*
X0381798Y0041466D01*
X0381784Y0041306D01*
X0381766Y0041146D01*
X0381745Y0040987D01*
X0381719Y0040828D01*
X0381689Y0040670D01*
X0381656Y0040513D01*
X0381618Y0040356D01*
X0381577Y0040201D01*
X0381532Y0040047D01*
X0381483Y0039894D01*
X0381430Y0039742D01*
X0381374Y0039591D01*
X0381313Y0039442D01*
X0381250Y0039294D01*
X0381182Y0039148D01*
X0381111Y0039004D01*
X0381037Y0038862D01*
X0380959Y0038721D01*
X0380877Y0038583D01*
X0380792Y0038446D01*
X0380704Y0038312D01*
X0380612Y0038180D01*
X0380517Y0038050D01*
X0380419Y0037922D01*
X0380318Y0037797D01*
X0380214Y0037675D01*
X0380107Y0037555D01*
X0379997Y0037438D01*
X0379884Y0037323D01*
X0379768Y0037212D01*
X0379649Y0037103D01*
X0379528Y0036998D01*
X0379404Y0036895D01*
X0379278Y0036795D01*
X0379150Y0036699D01*
X0379019Y0036606D01*
X0378885Y0036516D01*
X0378750Y0036429D01*
X0378612Y0036346D01*
X0378473Y0036266D01*
X0378331Y0036190D01*
X0378188Y0036117D01*
X0378043Y0036048D01*
X0377896Y0035982D01*
X0377748Y0035920D01*
X0377598Y0035862D01*
X0377447Y0035807D01*
X0377294Y0035756D01*
X0377140Y0035709D01*
X0376985Y0035666D01*
X0376829Y0035627D01*
X0376673Y0035591D01*
X0376515Y0035560D01*
X0376357Y0035532D01*
X0376198Y0035508D01*
X0376038Y0035488D01*
X0375878Y0035472D01*
X0375718Y0035460D01*
X0375557Y0035452D01*
X0375396Y0035448D01*
X0375236Y0035448D01*
X0375075Y0035452D01*
X0374914Y0035460D01*
X0374754Y0035472D01*
X0374594Y0035488D01*
X0374434Y0035508D01*
X0374275Y0035532D01*
X0374117Y0035560D01*
X0373959Y0035591D01*
X0373803Y0035627D01*
X0373647Y0035666D01*
X0373492Y0035709D01*
X0373338Y0035756D01*
X0373185Y0035807D01*
X0373034Y0035862D01*
X0372884Y0035920D01*
X0372736Y0035982D01*
X0372589Y0036048D01*
X0372444Y0036117D01*
X0372301Y0036190D01*
X0372159Y0036266D01*
X0372020Y0036346D01*
X0371882Y0036429D01*
X0371747Y0036516D01*
X0371613Y0036606D01*
X0371482Y0036699D01*
X0371354Y0036795D01*
X0371228Y0036895D01*
X0371104Y0036998D01*
X0370983Y0037103D01*
X0370864Y0037212D01*
X0370748Y0037323D01*
X0370635Y0037438D01*
X0370525Y0037555D01*
X0370418Y0037675D01*
X0370314Y0037797D01*
X0370213Y0037922D01*
X0370115Y0038050D01*
X0370020Y0038180D01*
X0369928Y0038312D01*
X0369840Y0038446D01*
X0369755Y0038583D01*
X0369673Y0038721D01*
X0369595Y0038862D01*
X0369521Y0039004D01*
X0369450Y0039148D01*
X0369382Y0039294D01*
X0369319Y0039442D01*
X0369258Y0039591D01*
X0369202Y0039742D01*
X0369149Y0039894D01*
X0369100Y0040047D01*
X0369055Y0040201D01*
X0369014Y0040356D01*
X0368976Y0040513D01*
X0368943Y0040670D01*
X0368913Y0040828D01*
X0368887Y0040987D01*
X0368866Y0041146D01*
X0368848Y0041306D01*
X0368834Y0041466D01*
X0368824Y0041627D01*
X0368818Y0041787D01*
X0368816Y0041948D01*
X0372442Y0094822D02*
X0372444Y0095015D01*
X0372451Y0095208D01*
X0372463Y0095401D01*
X0372480Y0095594D01*
X0372501Y0095786D01*
X0372527Y0095977D01*
X0372558Y0096168D01*
X0372593Y0096358D01*
X0372633Y0096547D01*
X0372678Y0096735D01*
X0372727Y0096922D01*
X0372781Y0097108D01*
X0372839Y0097292D01*
X0372902Y0097475D01*
X0372970Y0097656D01*
X0373041Y0097835D01*
X0373118Y0098013D01*
X0373198Y0098189D01*
X0373283Y0098362D01*
X0373372Y0098534D01*
X0373465Y0098703D01*
X0373562Y0098870D01*
X0373664Y0099035D01*
X0373769Y0099197D01*
X0373878Y0099356D01*
X0373992Y0099513D01*
X0374109Y0099666D01*
X0374229Y0099817D01*
X0374354Y0099965D01*
X0374482Y0100110D01*
X0374613Y0100251D01*
X0374748Y0100390D01*
X0374887Y0100525D01*
X0375028Y0100656D01*
X0375173Y0100784D01*
X0375321Y0100909D01*
X0375472Y0101029D01*
X0375625Y0101146D01*
X0375782Y0101260D01*
X0375941Y0101369D01*
X0376103Y0101474D01*
X0376268Y0101576D01*
X0376435Y0101673D01*
X0376604Y0101766D01*
X0376776Y0101855D01*
X0376949Y0101940D01*
X0377125Y0102020D01*
X0377303Y0102097D01*
X0377482Y0102168D01*
X0377663Y0102236D01*
X0377846Y0102299D01*
X0378030Y0102357D01*
X0378216Y0102411D01*
X0378403Y0102460D01*
X0378591Y0102505D01*
X0378780Y0102545D01*
X0378970Y0102580D01*
X0379161Y0102611D01*
X0379352Y0102637D01*
X0379544Y0102658D01*
X0379737Y0102675D01*
X0379930Y0102687D01*
X0380123Y0102694D01*
X0380316Y0102696D01*
X0380509Y0102694D01*
X0380702Y0102687D01*
X0380895Y0102675D01*
X0381088Y0102658D01*
X0381280Y0102637D01*
X0381471Y0102611D01*
X0381662Y0102580D01*
X0381852Y0102545D01*
X0382041Y0102505D01*
X0382229Y0102460D01*
X0382416Y0102411D01*
X0382602Y0102357D01*
X0382786Y0102299D01*
X0382969Y0102236D01*
X0383150Y0102168D01*
X0383329Y0102097D01*
X0383507Y0102020D01*
X0383683Y0101940D01*
X0383856Y0101855D01*
X0384028Y0101766D01*
X0384197Y0101673D01*
X0384364Y0101576D01*
X0384529Y0101474D01*
X0384691Y0101369D01*
X0384850Y0101260D01*
X0385007Y0101146D01*
X0385160Y0101029D01*
X0385311Y0100909D01*
X0385459Y0100784D01*
X0385604Y0100656D01*
X0385745Y0100525D01*
X0385884Y0100390D01*
X0386019Y0100251D01*
X0386150Y0100110D01*
X0386278Y0099965D01*
X0386403Y0099817D01*
X0386523Y0099666D01*
X0386640Y0099513D01*
X0386754Y0099356D01*
X0386863Y0099197D01*
X0386968Y0099035D01*
X0387070Y0098870D01*
X0387167Y0098703D01*
X0387260Y0098534D01*
X0387349Y0098362D01*
X0387434Y0098189D01*
X0387514Y0098013D01*
X0387591Y0097835D01*
X0387662Y0097656D01*
X0387730Y0097475D01*
X0387793Y0097292D01*
X0387851Y0097108D01*
X0387905Y0096922D01*
X0387954Y0096735D01*
X0387999Y0096547D01*
X0388039Y0096358D01*
X0388074Y0096168D01*
X0388105Y0095977D01*
X0388131Y0095786D01*
X0388152Y0095594D01*
X0388169Y0095401D01*
X0388181Y0095208D01*
X0388188Y0095015D01*
X0388190Y0094822D01*
X0388188Y0094629D01*
X0388181Y0094436D01*
X0388169Y0094243D01*
X0388152Y0094050D01*
X0388131Y0093858D01*
X0388105Y0093667D01*
X0388074Y0093476D01*
X0388039Y0093286D01*
X0387999Y0093097D01*
X0387954Y0092909D01*
X0387905Y0092722D01*
X0387851Y0092536D01*
X0387793Y0092352D01*
X0387730Y0092169D01*
X0387662Y0091988D01*
X0387591Y0091809D01*
X0387514Y0091631D01*
X0387434Y0091455D01*
X0387349Y0091282D01*
X0387260Y0091110D01*
X0387167Y0090941D01*
X0387070Y0090774D01*
X0386968Y0090609D01*
X0386863Y0090447D01*
X0386754Y0090288D01*
X0386640Y0090131D01*
X0386523Y0089978D01*
X0386403Y0089827D01*
X0386278Y0089679D01*
X0386150Y0089534D01*
X0386019Y0089393D01*
X0385884Y0089254D01*
X0385745Y0089119D01*
X0385604Y0088988D01*
X0385459Y0088860D01*
X0385311Y0088735D01*
X0385160Y0088615D01*
X0385007Y0088498D01*
X0384850Y0088384D01*
X0384691Y0088275D01*
X0384529Y0088170D01*
X0384364Y0088068D01*
X0384197Y0087971D01*
X0384028Y0087878D01*
X0383856Y0087789D01*
X0383683Y0087704D01*
X0383507Y0087624D01*
X0383329Y0087547D01*
X0383150Y0087476D01*
X0382969Y0087408D01*
X0382786Y0087345D01*
X0382602Y0087287D01*
X0382416Y0087233D01*
X0382229Y0087184D01*
X0382041Y0087139D01*
X0381852Y0087099D01*
X0381662Y0087064D01*
X0381471Y0087033D01*
X0381280Y0087007D01*
X0381088Y0086986D01*
X0380895Y0086969D01*
X0380702Y0086957D01*
X0380509Y0086950D01*
X0380316Y0086948D01*
X0380123Y0086950D01*
X0379930Y0086957D01*
X0379737Y0086969D01*
X0379544Y0086986D01*
X0379352Y0087007D01*
X0379161Y0087033D01*
X0378970Y0087064D01*
X0378780Y0087099D01*
X0378591Y0087139D01*
X0378403Y0087184D01*
X0378216Y0087233D01*
X0378030Y0087287D01*
X0377846Y0087345D01*
X0377663Y0087408D01*
X0377482Y0087476D01*
X0377303Y0087547D01*
X0377125Y0087624D01*
X0376949Y0087704D01*
X0376776Y0087789D01*
X0376604Y0087878D01*
X0376435Y0087971D01*
X0376268Y0088068D01*
X0376103Y0088170D01*
X0375941Y0088275D01*
X0375782Y0088384D01*
X0375625Y0088498D01*
X0375472Y0088615D01*
X0375321Y0088735D01*
X0375173Y0088860D01*
X0375028Y0088988D01*
X0374887Y0089119D01*
X0374748Y0089254D01*
X0374613Y0089393D01*
X0374482Y0089534D01*
X0374354Y0089679D01*
X0374229Y0089827D01*
X0374109Y0089978D01*
X0373992Y0090131D01*
X0373878Y0090288D01*
X0373769Y0090447D01*
X0373664Y0090609D01*
X0373562Y0090774D01*
X0373465Y0090941D01*
X0373372Y0091110D01*
X0373283Y0091282D01*
X0373198Y0091455D01*
X0373118Y0091631D01*
X0373041Y0091809D01*
X0372970Y0091988D01*
X0372902Y0092169D01*
X0372839Y0092352D01*
X0372781Y0092536D01*
X0372727Y0092722D01*
X0372678Y0092909D01*
X0372633Y0093097D01*
X0372593Y0093286D01*
X0372558Y0093476D01*
X0372527Y0093667D01*
X0372501Y0093858D01*
X0372480Y0094050D01*
X0372463Y0094243D01*
X0372451Y0094436D01*
X0372444Y0094629D01*
X0372442Y0094822D01*
X0372442Y0276514D02*
X0372444Y0276707D01*
X0372451Y0276900D01*
X0372463Y0277093D01*
X0372480Y0277286D01*
X0372501Y0277478D01*
X0372527Y0277669D01*
X0372558Y0277860D01*
X0372593Y0278050D01*
X0372633Y0278239D01*
X0372678Y0278427D01*
X0372727Y0278614D01*
X0372781Y0278800D01*
X0372839Y0278984D01*
X0372902Y0279167D01*
X0372970Y0279348D01*
X0373041Y0279527D01*
X0373118Y0279705D01*
X0373198Y0279881D01*
X0373283Y0280054D01*
X0373372Y0280226D01*
X0373465Y0280395D01*
X0373562Y0280562D01*
X0373664Y0280727D01*
X0373769Y0280889D01*
X0373878Y0281048D01*
X0373992Y0281205D01*
X0374109Y0281358D01*
X0374229Y0281509D01*
X0374354Y0281657D01*
X0374482Y0281802D01*
X0374613Y0281943D01*
X0374748Y0282082D01*
X0374887Y0282217D01*
X0375028Y0282348D01*
X0375173Y0282476D01*
X0375321Y0282601D01*
X0375472Y0282721D01*
X0375625Y0282838D01*
X0375782Y0282952D01*
X0375941Y0283061D01*
X0376103Y0283166D01*
X0376268Y0283268D01*
X0376435Y0283365D01*
X0376604Y0283458D01*
X0376776Y0283547D01*
X0376949Y0283632D01*
X0377125Y0283712D01*
X0377303Y0283789D01*
X0377482Y0283860D01*
X0377663Y0283928D01*
X0377846Y0283991D01*
X0378030Y0284049D01*
X0378216Y0284103D01*
X0378403Y0284152D01*
X0378591Y0284197D01*
X0378780Y0284237D01*
X0378970Y0284272D01*
X0379161Y0284303D01*
X0379352Y0284329D01*
X0379544Y0284350D01*
X0379737Y0284367D01*
X0379930Y0284379D01*
X0380123Y0284386D01*
X0380316Y0284388D01*
X0380509Y0284386D01*
X0380702Y0284379D01*
X0380895Y0284367D01*
X0381088Y0284350D01*
X0381280Y0284329D01*
X0381471Y0284303D01*
X0381662Y0284272D01*
X0381852Y0284237D01*
X0382041Y0284197D01*
X0382229Y0284152D01*
X0382416Y0284103D01*
X0382602Y0284049D01*
X0382786Y0283991D01*
X0382969Y0283928D01*
X0383150Y0283860D01*
X0383329Y0283789D01*
X0383507Y0283712D01*
X0383683Y0283632D01*
X0383856Y0283547D01*
X0384028Y0283458D01*
X0384197Y0283365D01*
X0384364Y0283268D01*
X0384529Y0283166D01*
X0384691Y0283061D01*
X0384850Y0282952D01*
X0385007Y0282838D01*
X0385160Y0282721D01*
X0385311Y0282601D01*
X0385459Y0282476D01*
X0385604Y0282348D01*
X0385745Y0282217D01*
X0385884Y0282082D01*
X0386019Y0281943D01*
X0386150Y0281802D01*
X0386278Y0281657D01*
X0386403Y0281509D01*
X0386523Y0281358D01*
X0386640Y0281205D01*
X0386754Y0281048D01*
X0386863Y0280889D01*
X0386968Y0280727D01*
X0387070Y0280562D01*
X0387167Y0280395D01*
X0387260Y0280226D01*
X0387349Y0280054D01*
X0387434Y0279881D01*
X0387514Y0279705D01*
X0387591Y0279527D01*
X0387662Y0279348D01*
X0387730Y0279167D01*
X0387793Y0278984D01*
X0387851Y0278800D01*
X0387905Y0278614D01*
X0387954Y0278427D01*
X0387999Y0278239D01*
X0388039Y0278050D01*
X0388074Y0277860D01*
X0388105Y0277669D01*
X0388131Y0277478D01*
X0388152Y0277286D01*
X0388169Y0277093D01*
X0388181Y0276900D01*
X0388188Y0276707D01*
X0388190Y0276514D01*
X0388188Y0276321D01*
X0388181Y0276128D01*
X0388169Y0275935D01*
X0388152Y0275742D01*
X0388131Y0275550D01*
X0388105Y0275359D01*
X0388074Y0275168D01*
X0388039Y0274978D01*
X0387999Y0274789D01*
X0387954Y0274601D01*
X0387905Y0274414D01*
X0387851Y0274228D01*
X0387793Y0274044D01*
X0387730Y0273861D01*
X0387662Y0273680D01*
X0387591Y0273501D01*
X0387514Y0273323D01*
X0387434Y0273147D01*
X0387349Y0272974D01*
X0387260Y0272802D01*
X0387167Y0272633D01*
X0387070Y0272466D01*
X0386968Y0272301D01*
X0386863Y0272139D01*
X0386754Y0271980D01*
X0386640Y0271823D01*
X0386523Y0271670D01*
X0386403Y0271519D01*
X0386278Y0271371D01*
X0386150Y0271226D01*
X0386019Y0271085D01*
X0385884Y0270946D01*
X0385745Y0270811D01*
X0385604Y0270680D01*
X0385459Y0270552D01*
X0385311Y0270427D01*
X0385160Y0270307D01*
X0385007Y0270190D01*
X0384850Y0270076D01*
X0384691Y0269967D01*
X0384529Y0269862D01*
X0384364Y0269760D01*
X0384197Y0269663D01*
X0384028Y0269570D01*
X0383856Y0269481D01*
X0383683Y0269396D01*
X0383507Y0269316D01*
X0383329Y0269239D01*
X0383150Y0269168D01*
X0382969Y0269100D01*
X0382786Y0269037D01*
X0382602Y0268979D01*
X0382416Y0268925D01*
X0382229Y0268876D01*
X0382041Y0268831D01*
X0381852Y0268791D01*
X0381662Y0268756D01*
X0381471Y0268725D01*
X0381280Y0268699D01*
X0381088Y0268678D01*
X0380895Y0268661D01*
X0380702Y0268649D01*
X0380509Y0268642D01*
X0380316Y0268640D01*
X0380123Y0268642D01*
X0379930Y0268649D01*
X0379737Y0268661D01*
X0379544Y0268678D01*
X0379352Y0268699D01*
X0379161Y0268725D01*
X0378970Y0268756D01*
X0378780Y0268791D01*
X0378591Y0268831D01*
X0378403Y0268876D01*
X0378216Y0268925D01*
X0378030Y0268979D01*
X0377846Y0269037D01*
X0377663Y0269100D01*
X0377482Y0269168D01*
X0377303Y0269239D01*
X0377125Y0269316D01*
X0376949Y0269396D01*
X0376776Y0269481D01*
X0376604Y0269570D01*
X0376435Y0269663D01*
X0376268Y0269760D01*
X0376103Y0269862D01*
X0375941Y0269967D01*
X0375782Y0270076D01*
X0375625Y0270190D01*
X0375472Y0270307D01*
X0375321Y0270427D01*
X0375173Y0270552D01*
X0375028Y0270680D01*
X0374887Y0270811D01*
X0374748Y0270946D01*
X0374613Y0271085D01*
X0374482Y0271226D01*
X0374354Y0271371D01*
X0374229Y0271519D01*
X0374109Y0271670D01*
X0373992Y0271823D01*
X0373878Y0271980D01*
X0373769Y0272139D01*
X0373664Y0272301D01*
X0373562Y0272466D01*
X0373465Y0272633D01*
X0373372Y0272802D01*
X0373283Y0272974D01*
X0373198Y0273147D01*
X0373118Y0273323D01*
X0373041Y0273501D01*
X0372970Y0273680D01*
X0372902Y0273861D01*
X0372839Y0274044D01*
X0372781Y0274228D01*
X0372727Y0274414D01*
X0372678Y0274601D01*
X0372633Y0274789D01*
X0372593Y0274978D01*
X0372558Y0275168D01*
X0372527Y0275359D01*
X0372501Y0275550D01*
X0372480Y0275742D01*
X0372463Y0275935D01*
X0372451Y0276128D01*
X0372444Y0276321D01*
X0372442Y0276514D01*
X0372753Y0321475D02*
X0372755Y0321636D01*
X0372761Y0321796D01*
X0372771Y0321957D01*
X0372785Y0322117D01*
X0372803Y0322277D01*
X0372824Y0322436D01*
X0372850Y0322595D01*
X0372880Y0322753D01*
X0372913Y0322910D01*
X0372951Y0323067D01*
X0372992Y0323222D01*
X0373037Y0323376D01*
X0373086Y0323529D01*
X0373139Y0323681D01*
X0373195Y0323832D01*
X0373256Y0323981D01*
X0373319Y0324129D01*
X0373387Y0324275D01*
X0373458Y0324419D01*
X0373532Y0324561D01*
X0373610Y0324702D01*
X0373692Y0324840D01*
X0373777Y0324977D01*
X0373865Y0325111D01*
X0373957Y0325243D01*
X0374052Y0325373D01*
X0374150Y0325501D01*
X0374251Y0325626D01*
X0374355Y0325748D01*
X0374462Y0325868D01*
X0374572Y0325985D01*
X0374685Y0326100D01*
X0374801Y0326211D01*
X0374920Y0326320D01*
X0375041Y0326425D01*
X0375165Y0326528D01*
X0375291Y0326628D01*
X0375419Y0326724D01*
X0375550Y0326817D01*
X0375684Y0326907D01*
X0375819Y0326994D01*
X0375957Y0327077D01*
X0376096Y0327157D01*
X0376238Y0327233D01*
X0376381Y0327306D01*
X0376526Y0327375D01*
X0376673Y0327441D01*
X0376821Y0327503D01*
X0376971Y0327561D01*
X0377122Y0327616D01*
X0377275Y0327667D01*
X0377429Y0327714D01*
X0377584Y0327757D01*
X0377740Y0327796D01*
X0377896Y0327832D01*
X0378054Y0327863D01*
X0378212Y0327891D01*
X0378371Y0327915D01*
X0378531Y0327935D01*
X0378691Y0327951D01*
X0378851Y0327963D01*
X0379012Y0327971D01*
X0379173Y0327975D01*
X0379333Y0327975D01*
X0379494Y0327971D01*
X0379655Y0327963D01*
X0379815Y0327951D01*
X0379975Y0327935D01*
X0380135Y0327915D01*
X0380294Y0327891D01*
X0380452Y0327863D01*
X0380610Y0327832D01*
X0380766Y0327796D01*
X0380922Y0327757D01*
X0381077Y0327714D01*
X0381231Y0327667D01*
X0381384Y0327616D01*
X0381535Y0327561D01*
X0381685Y0327503D01*
X0381833Y0327441D01*
X0381980Y0327375D01*
X0382125Y0327306D01*
X0382268Y0327233D01*
X0382410Y0327157D01*
X0382549Y0327077D01*
X0382687Y0326994D01*
X0382822Y0326907D01*
X0382956Y0326817D01*
X0383087Y0326724D01*
X0383215Y0326628D01*
X0383341Y0326528D01*
X0383465Y0326425D01*
X0383586Y0326320D01*
X0383705Y0326211D01*
X0383821Y0326100D01*
X0383934Y0325985D01*
X0384044Y0325868D01*
X0384151Y0325748D01*
X0384255Y0325626D01*
X0384356Y0325501D01*
X0384454Y0325373D01*
X0384549Y0325243D01*
X0384641Y0325111D01*
X0384729Y0324977D01*
X0384814Y0324840D01*
X0384896Y0324702D01*
X0384974Y0324561D01*
X0385048Y0324419D01*
X0385119Y0324275D01*
X0385187Y0324129D01*
X0385250Y0323981D01*
X0385311Y0323832D01*
X0385367Y0323681D01*
X0385420Y0323529D01*
X0385469Y0323376D01*
X0385514Y0323222D01*
X0385555Y0323067D01*
X0385593Y0322910D01*
X0385626Y0322753D01*
X0385656Y0322595D01*
X0385682Y0322436D01*
X0385703Y0322277D01*
X0385721Y0322117D01*
X0385735Y0321957D01*
X0385745Y0321796D01*
X0385751Y0321636D01*
X0385753Y0321475D01*
X0385751Y0321314D01*
X0385745Y0321154D01*
X0385735Y0320993D01*
X0385721Y0320833D01*
X0385703Y0320673D01*
X0385682Y0320514D01*
X0385656Y0320355D01*
X0385626Y0320197D01*
X0385593Y0320040D01*
X0385555Y0319883D01*
X0385514Y0319728D01*
X0385469Y0319574D01*
X0385420Y0319421D01*
X0385367Y0319269D01*
X0385311Y0319118D01*
X0385250Y0318969D01*
X0385187Y0318821D01*
X0385119Y0318675D01*
X0385048Y0318531D01*
X0384974Y0318389D01*
X0384896Y0318248D01*
X0384814Y0318110D01*
X0384729Y0317973D01*
X0384641Y0317839D01*
X0384549Y0317707D01*
X0384454Y0317577D01*
X0384356Y0317449D01*
X0384255Y0317324D01*
X0384151Y0317202D01*
X0384044Y0317082D01*
X0383934Y0316965D01*
X0383821Y0316850D01*
X0383705Y0316739D01*
X0383586Y0316630D01*
X0383465Y0316525D01*
X0383341Y0316422D01*
X0383215Y0316322D01*
X0383087Y0316226D01*
X0382956Y0316133D01*
X0382822Y0316043D01*
X0382687Y0315956D01*
X0382549Y0315873D01*
X0382410Y0315793D01*
X0382268Y0315717D01*
X0382125Y0315644D01*
X0381980Y0315575D01*
X0381833Y0315509D01*
X0381685Y0315447D01*
X0381535Y0315389D01*
X0381384Y0315334D01*
X0381231Y0315283D01*
X0381077Y0315236D01*
X0380922Y0315193D01*
X0380766Y0315154D01*
X0380610Y0315118D01*
X0380452Y0315087D01*
X0380294Y0315059D01*
X0380135Y0315035D01*
X0379975Y0315015D01*
X0379815Y0314999D01*
X0379655Y0314987D01*
X0379494Y0314979D01*
X0379333Y0314975D01*
X0379173Y0314975D01*
X0379012Y0314979D01*
X0378851Y0314987D01*
X0378691Y0314999D01*
X0378531Y0315015D01*
X0378371Y0315035D01*
X0378212Y0315059D01*
X0378054Y0315087D01*
X0377896Y0315118D01*
X0377740Y0315154D01*
X0377584Y0315193D01*
X0377429Y0315236D01*
X0377275Y0315283D01*
X0377122Y0315334D01*
X0376971Y0315389D01*
X0376821Y0315447D01*
X0376673Y0315509D01*
X0376526Y0315575D01*
X0376381Y0315644D01*
X0376238Y0315717D01*
X0376096Y0315793D01*
X0375957Y0315873D01*
X0375819Y0315956D01*
X0375684Y0316043D01*
X0375550Y0316133D01*
X0375419Y0316226D01*
X0375291Y0316322D01*
X0375165Y0316422D01*
X0375041Y0316525D01*
X0374920Y0316630D01*
X0374801Y0316739D01*
X0374685Y0316850D01*
X0374572Y0316965D01*
X0374462Y0317082D01*
X0374355Y0317202D01*
X0374251Y0317324D01*
X0374150Y0317449D01*
X0374052Y0317577D01*
X0373957Y0317707D01*
X0373865Y0317839D01*
X0373777Y0317973D01*
X0373692Y0318110D01*
X0373610Y0318248D01*
X0373532Y0318389D01*
X0373458Y0318531D01*
X0373387Y0318675D01*
X0373319Y0318821D01*
X0373256Y0318969D01*
X0373195Y0319118D01*
X0373139Y0319269D01*
X0373086Y0319421D01*
X0373037Y0319574D01*
X0372992Y0319728D01*
X0372951Y0319883D01*
X0372913Y0320040D01*
X0372880Y0320197D01*
X0372850Y0320355D01*
X0372824Y0320514D01*
X0372803Y0320673D01*
X0372785Y0320833D01*
X0372771Y0320993D01*
X0372761Y0321154D01*
X0372755Y0321314D01*
X0372753Y0321475D01*
D11*
X0271536Y0084763D03*
X0271536Y0079763D03*
X0271536Y0074763D03*
X0271536Y0069763D03*
X0251064Y0069763D03*
X0251064Y0074763D03*
X0251064Y0079763D03*
X0251064Y0084763D03*
X0121536Y0084763D03*
X0121536Y0079763D03*
X0121536Y0074763D03*
X0121536Y0069763D03*
X0101064Y0069763D03*
X0101064Y0074763D03*
X0101064Y0079763D03*
X0101064Y0084763D03*
D12*
X0086300Y0075806D03*
X0086300Y0068719D03*
X0181300Y0073719D03*
X0181300Y0080806D03*
X0216300Y0103719D03*
X0216300Y0110806D03*
X0231300Y0080806D03*
X0231300Y0073719D03*
X0261300Y0108719D03*
X0261300Y0115806D03*
D13*
X0257954Y0097263D03*
X0264646Y0097263D03*
X0114646Y0097263D03*
X0107954Y0097263D03*
D14*
X0071300Y0085727D03*
X0071300Y0068798D03*
X0146300Y0068798D03*
X0146300Y0085727D03*
X0211300Y0085727D03*
X0211300Y0068798D03*
X0296300Y0068798D03*
X0296300Y0085727D03*
D15*
X0292757Y0097263D03*
X0299843Y0097263D03*
X0154843Y0102263D03*
X0147757Y0102263D03*
X0079843Y0127263D03*
X0072757Y0127263D03*
D16*
X0107363Y0049448D03*
X0115237Y0049448D03*
X0257363Y0049448D03*
X0265237Y0049448D03*
D17*
X0261300Y0036357D03*
X0111300Y0036357D03*
M02*
