%
M48
M72
T01C0.01378
T02C0.03200
T03C0.04200
T04C0.05512
T05C0.13000
T06C0.15748
%
T01
X71300Y112263
X96300Y62263
X126300Y57263
X126300Y37263
X135158Y81318
X131300Y97263
X131300Y112263
X221300Y92263
X221300Y67263
X251300Y107263
X271300Y112263
X271300Y97263
X271300Y57263
X276300Y37263
X266300Y147263
T02
X99725Y113188
X94725Y120688
X104725Y120688
X140300Y134263
X140300Y144263
X156300Y165263
X156300Y175263
X134300Y187263
X134300Y197263
X126300Y217263
X126300Y227263
X134800Y248763
X134800Y258763
X157300Y269763
X157300Y279763
X140300Y300763
X140300Y310763
X186300Y312263
X186300Y322263
X186800Y287263
X186800Y277263
X216300Y279263
X216300Y269263
X237300Y258763
X237300Y248763
X246300Y227263
X246300Y217263
X239800Y199263
X239800Y189263
X218300Y176763
X218300Y166763
X234300Y145263
X234300Y135263
X238583Y101003
X233583Y93503
X228583Y101003
X185800Y122263
X185800Y132263
X186300Y157263
X186300Y167263
X102800Y171263
X102800Y181263
X91300Y217763
X91300Y227763
X102300Y262263
X102300Y272263
X234800Y308763
X234800Y298763
X269800Y273263
X269800Y263263
X281800Y227263
X281800Y217263
X269800Y181763
X269800Y171763
T03
X321300Y284863
X321300Y272263
X321300Y259663
X321300Y64863
X321300Y52263
X321300Y39663
T04
X351418Y289664
X351418Y263365
X351418Y107971
X351418Y81672
T05
X20985Y41948
X17048Y321475
X375316Y41948
X379253Y321475
T06
X380316Y94822
X380316Y276514
M30
