G75*
%MOIN*%
%OFA0B0*%
%FSLAX25Y25*%
%IPPOS*%
%LPD*%
%AMOC8*
5,1,8,0,0,1.08239X$1,22.5*
%
%ADD10C,0.00000*%
%ADD11C,0.07400*%
%ADD12R,0.08268X0.08268*%
%ADD13R,0.06300X0.06300*%
%ADD14R,0.03150X0.04724*%
%ADD15R,0.04724X0.03150*%
%ADD16OC8,0.05200*%
%ADD17C,0.02578*%
%ADD18C,0.01600*%
%ADD19C,0.00600*%
D10*
X0001300Y0022263D02*
X0001300Y0337223D01*
X0395001Y0337223D01*
X0395001Y0022263D01*
X0001300Y0022263D01*
X0014485Y0041948D02*
X0014487Y0042109D01*
X0014493Y0042269D01*
X0014503Y0042430D01*
X0014517Y0042590D01*
X0014535Y0042750D01*
X0014556Y0042909D01*
X0014582Y0043068D01*
X0014612Y0043226D01*
X0014645Y0043383D01*
X0014683Y0043540D01*
X0014724Y0043695D01*
X0014769Y0043849D01*
X0014818Y0044002D01*
X0014871Y0044154D01*
X0014927Y0044305D01*
X0014988Y0044454D01*
X0015051Y0044602D01*
X0015119Y0044748D01*
X0015190Y0044892D01*
X0015264Y0045034D01*
X0015342Y0045175D01*
X0015424Y0045313D01*
X0015509Y0045450D01*
X0015597Y0045584D01*
X0015689Y0045716D01*
X0015784Y0045846D01*
X0015882Y0045974D01*
X0015983Y0046099D01*
X0016087Y0046221D01*
X0016194Y0046341D01*
X0016304Y0046458D01*
X0016417Y0046573D01*
X0016533Y0046684D01*
X0016652Y0046793D01*
X0016773Y0046898D01*
X0016897Y0047001D01*
X0017023Y0047101D01*
X0017151Y0047197D01*
X0017282Y0047290D01*
X0017416Y0047380D01*
X0017551Y0047467D01*
X0017689Y0047550D01*
X0017828Y0047630D01*
X0017970Y0047706D01*
X0018113Y0047779D01*
X0018258Y0047848D01*
X0018405Y0047914D01*
X0018553Y0047976D01*
X0018703Y0048034D01*
X0018854Y0048089D01*
X0019007Y0048140D01*
X0019161Y0048187D01*
X0019316Y0048230D01*
X0019472Y0048269D01*
X0019628Y0048305D01*
X0019786Y0048336D01*
X0019944Y0048364D01*
X0020103Y0048388D01*
X0020263Y0048408D01*
X0020423Y0048424D01*
X0020583Y0048436D01*
X0020744Y0048444D01*
X0020905Y0048448D01*
X0021065Y0048448D01*
X0021226Y0048444D01*
X0021387Y0048436D01*
X0021547Y0048424D01*
X0021707Y0048408D01*
X0021867Y0048388D01*
X0022026Y0048364D01*
X0022184Y0048336D01*
X0022342Y0048305D01*
X0022498Y0048269D01*
X0022654Y0048230D01*
X0022809Y0048187D01*
X0022963Y0048140D01*
X0023116Y0048089D01*
X0023267Y0048034D01*
X0023417Y0047976D01*
X0023565Y0047914D01*
X0023712Y0047848D01*
X0023857Y0047779D01*
X0024000Y0047706D01*
X0024142Y0047630D01*
X0024281Y0047550D01*
X0024419Y0047467D01*
X0024554Y0047380D01*
X0024688Y0047290D01*
X0024819Y0047197D01*
X0024947Y0047101D01*
X0025073Y0047001D01*
X0025197Y0046898D01*
X0025318Y0046793D01*
X0025437Y0046684D01*
X0025553Y0046573D01*
X0025666Y0046458D01*
X0025776Y0046341D01*
X0025883Y0046221D01*
X0025987Y0046099D01*
X0026088Y0045974D01*
X0026186Y0045846D01*
X0026281Y0045716D01*
X0026373Y0045584D01*
X0026461Y0045450D01*
X0026546Y0045313D01*
X0026628Y0045175D01*
X0026706Y0045034D01*
X0026780Y0044892D01*
X0026851Y0044748D01*
X0026919Y0044602D01*
X0026982Y0044454D01*
X0027043Y0044305D01*
X0027099Y0044154D01*
X0027152Y0044002D01*
X0027201Y0043849D01*
X0027246Y0043695D01*
X0027287Y0043540D01*
X0027325Y0043383D01*
X0027358Y0043226D01*
X0027388Y0043068D01*
X0027414Y0042909D01*
X0027435Y0042750D01*
X0027453Y0042590D01*
X0027467Y0042430D01*
X0027477Y0042269D01*
X0027483Y0042109D01*
X0027485Y0041948D01*
X0027483Y0041787D01*
X0027477Y0041627D01*
X0027467Y0041466D01*
X0027453Y0041306D01*
X0027435Y0041146D01*
X0027414Y0040987D01*
X0027388Y0040828D01*
X0027358Y0040670D01*
X0027325Y0040513D01*
X0027287Y0040356D01*
X0027246Y0040201D01*
X0027201Y0040047D01*
X0027152Y0039894D01*
X0027099Y0039742D01*
X0027043Y0039591D01*
X0026982Y0039442D01*
X0026919Y0039294D01*
X0026851Y0039148D01*
X0026780Y0039004D01*
X0026706Y0038862D01*
X0026628Y0038721D01*
X0026546Y0038583D01*
X0026461Y0038446D01*
X0026373Y0038312D01*
X0026281Y0038180D01*
X0026186Y0038050D01*
X0026088Y0037922D01*
X0025987Y0037797D01*
X0025883Y0037675D01*
X0025776Y0037555D01*
X0025666Y0037438D01*
X0025553Y0037323D01*
X0025437Y0037212D01*
X0025318Y0037103D01*
X0025197Y0036998D01*
X0025073Y0036895D01*
X0024947Y0036795D01*
X0024819Y0036699D01*
X0024688Y0036606D01*
X0024554Y0036516D01*
X0024419Y0036429D01*
X0024281Y0036346D01*
X0024142Y0036266D01*
X0024000Y0036190D01*
X0023857Y0036117D01*
X0023712Y0036048D01*
X0023565Y0035982D01*
X0023417Y0035920D01*
X0023267Y0035862D01*
X0023116Y0035807D01*
X0022963Y0035756D01*
X0022809Y0035709D01*
X0022654Y0035666D01*
X0022498Y0035627D01*
X0022342Y0035591D01*
X0022184Y0035560D01*
X0022026Y0035532D01*
X0021867Y0035508D01*
X0021707Y0035488D01*
X0021547Y0035472D01*
X0021387Y0035460D01*
X0021226Y0035452D01*
X0021065Y0035448D01*
X0020905Y0035448D01*
X0020744Y0035452D01*
X0020583Y0035460D01*
X0020423Y0035472D01*
X0020263Y0035488D01*
X0020103Y0035508D01*
X0019944Y0035532D01*
X0019786Y0035560D01*
X0019628Y0035591D01*
X0019472Y0035627D01*
X0019316Y0035666D01*
X0019161Y0035709D01*
X0019007Y0035756D01*
X0018854Y0035807D01*
X0018703Y0035862D01*
X0018553Y0035920D01*
X0018405Y0035982D01*
X0018258Y0036048D01*
X0018113Y0036117D01*
X0017970Y0036190D01*
X0017828Y0036266D01*
X0017689Y0036346D01*
X0017551Y0036429D01*
X0017416Y0036516D01*
X0017282Y0036606D01*
X0017151Y0036699D01*
X0017023Y0036795D01*
X0016897Y0036895D01*
X0016773Y0036998D01*
X0016652Y0037103D01*
X0016533Y0037212D01*
X0016417Y0037323D01*
X0016304Y0037438D01*
X0016194Y0037555D01*
X0016087Y0037675D01*
X0015983Y0037797D01*
X0015882Y0037922D01*
X0015784Y0038050D01*
X0015689Y0038180D01*
X0015597Y0038312D01*
X0015509Y0038446D01*
X0015424Y0038583D01*
X0015342Y0038721D01*
X0015264Y0038862D01*
X0015190Y0039004D01*
X0015119Y0039148D01*
X0015051Y0039294D01*
X0014988Y0039442D01*
X0014927Y0039591D01*
X0014871Y0039742D01*
X0014818Y0039894D01*
X0014769Y0040047D01*
X0014724Y0040201D01*
X0014683Y0040356D01*
X0014645Y0040513D01*
X0014612Y0040670D01*
X0014582Y0040828D01*
X0014556Y0040987D01*
X0014535Y0041146D01*
X0014517Y0041306D01*
X0014503Y0041466D01*
X0014493Y0041627D01*
X0014487Y0041787D01*
X0014485Y0041948D01*
X0010548Y0321475D02*
X0010550Y0321636D01*
X0010556Y0321796D01*
X0010566Y0321957D01*
X0010580Y0322117D01*
X0010598Y0322277D01*
X0010619Y0322436D01*
X0010645Y0322595D01*
X0010675Y0322753D01*
X0010708Y0322910D01*
X0010746Y0323067D01*
X0010787Y0323222D01*
X0010832Y0323376D01*
X0010881Y0323529D01*
X0010934Y0323681D01*
X0010990Y0323832D01*
X0011051Y0323981D01*
X0011114Y0324129D01*
X0011182Y0324275D01*
X0011253Y0324419D01*
X0011327Y0324561D01*
X0011405Y0324702D01*
X0011487Y0324840D01*
X0011572Y0324977D01*
X0011660Y0325111D01*
X0011752Y0325243D01*
X0011847Y0325373D01*
X0011945Y0325501D01*
X0012046Y0325626D01*
X0012150Y0325748D01*
X0012257Y0325868D01*
X0012367Y0325985D01*
X0012480Y0326100D01*
X0012596Y0326211D01*
X0012715Y0326320D01*
X0012836Y0326425D01*
X0012960Y0326528D01*
X0013086Y0326628D01*
X0013214Y0326724D01*
X0013345Y0326817D01*
X0013479Y0326907D01*
X0013614Y0326994D01*
X0013752Y0327077D01*
X0013891Y0327157D01*
X0014033Y0327233D01*
X0014176Y0327306D01*
X0014321Y0327375D01*
X0014468Y0327441D01*
X0014616Y0327503D01*
X0014766Y0327561D01*
X0014917Y0327616D01*
X0015070Y0327667D01*
X0015224Y0327714D01*
X0015379Y0327757D01*
X0015535Y0327796D01*
X0015691Y0327832D01*
X0015849Y0327863D01*
X0016007Y0327891D01*
X0016166Y0327915D01*
X0016326Y0327935D01*
X0016486Y0327951D01*
X0016646Y0327963D01*
X0016807Y0327971D01*
X0016968Y0327975D01*
X0017128Y0327975D01*
X0017289Y0327971D01*
X0017450Y0327963D01*
X0017610Y0327951D01*
X0017770Y0327935D01*
X0017930Y0327915D01*
X0018089Y0327891D01*
X0018247Y0327863D01*
X0018405Y0327832D01*
X0018561Y0327796D01*
X0018717Y0327757D01*
X0018872Y0327714D01*
X0019026Y0327667D01*
X0019179Y0327616D01*
X0019330Y0327561D01*
X0019480Y0327503D01*
X0019628Y0327441D01*
X0019775Y0327375D01*
X0019920Y0327306D01*
X0020063Y0327233D01*
X0020205Y0327157D01*
X0020344Y0327077D01*
X0020482Y0326994D01*
X0020617Y0326907D01*
X0020751Y0326817D01*
X0020882Y0326724D01*
X0021010Y0326628D01*
X0021136Y0326528D01*
X0021260Y0326425D01*
X0021381Y0326320D01*
X0021500Y0326211D01*
X0021616Y0326100D01*
X0021729Y0325985D01*
X0021839Y0325868D01*
X0021946Y0325748D01*
X0022050Y0325626D01*
X0022151Y0325501D01*
X0022249Y0325373D01*
X0022344Y0325243D01*
X0022436Y0325111D01*
X0022524Y0324977D01*
X0022609Y0324840D01*
X0022691Y0324702D01*
X0022769Y0324561D01*
X0022843Y0324419D01*
X0022914Y0324275D01*
X0022982Y0324129D01*
X0023045Y0323981D01*
X0023106Y0323832D01*
X0023162Y0323681D01*
X0023215Y0323529D01*
X0023264Y0323376D01*
X0023309Y0323222D01*
X0023350Y0323067D01*
X0023388Y0322910D01*
X0023421Y0322753D01*
X0023451Y0322595D01*
X0023477Y0322436D01*
X0023498Y0322277D01*
X0023516Y0322117D01*
X0023530Y0321957D01*
X0023540Y0321796D01*
X0023546Y0321636D01*
X0023548Y0321475D01*
X0023546Y0321314D01*
X0023540Y0321154D01*
X0023530Y0320993D01*
X0023516Y0320833D01*
X0023498Y0320673D01*
X0023477Y0320514D01*
X0023451Y0320355D01*
X0023421Y0320197D01*
X0023388Y0320040D01*
X0023350Y0319883D01*
X0023309Y0319728D01*
X0023264Y0319574D01*
X0023215Y0319421D01*
X0023162Y0319269D01*
X0023106Y0319118D01*
X0023045Y0318969D01*
X0022982Y0318821D01*
X0022914Y0318675D01*
X0022843Y0318531D01*
X0022769Y0318389D01*
X0022691Y0318248D01*
X0022609Y0318110D01*
X0022524Y0317973D01*
X0022436Y0317839D01*
X0022344Y0317707D01*
X0022249Y0317577D01*
X0022151Y0317449D01*
X0022050Y0317324D01*
X0021946Y0317202D01*
X0021839Y0317082D01*
X0021729Y0316965D01*
X0021616Y0316850D01*
X0021500Y0316739D01*
X0021381Y0316630D01*
X0021260Y0316525D01*
X0021136Y0316422D01*
X0021010Y0316322D01*
X0020882Y0316226D01*
X0020751Y0316133D01*
X0020617Y0316043D01*
X0020482Y0315956D01*
X0020344Y0315873D01*
X0020205Y0315793D01*
X0020063Y0315717D01*
X0019920Y0315644D01*
X0019775Y0315575D01*
X0019628Y0315509D01*
X0019480Y0315447D01*
X0019330Y0315389D01*
X0019179Y0315334D01*
X0019026Y0315283D01*
X0018872Y0315236D01*
X0018717Y0315193D01*
X0018561Y0315154D01*
X0018405Y0315118D01*
X0018247Y0315087D01*
X0018089Y0315059D01*
X0017930Y0315035D01*
X0017770Y0315015D01*
X0017610Y0314999D01*
X0017450Y0314987D01*
X0017289Y0314979D01*
X0017128Y0314975D01*
X0016968Y0314975D01*
X0016807Y0314979D01*
X0016646Y0314987D01*
X0016486Y0314999D01*
X0016326Y0315015D01*
X0016166Y0315035D01*
X0016007Y0315059D01*
X0015849Y0315087D01*
X0015691Y0315118D01*
X0015535Y0315154D01*
X0015379Y0315193D01*
X0015224Y0315236D01*
X0015070Y0315283D01*
X0014917Y0315334D01*
X0014766Y0315389D01*
X0014616Y0315447D01*
X0014468Y0315509D01*
X0014321Y0315575D01*
X0014176Y0315644D01*
X0014033Y0315717D01*
X0013891Y0315793D01*
X0013752Y0315873D01*
X0013614Y0315956D01*
X0013479Y0316043D01*
X0013345Y0316133D01*
X0013214Y0316226D01*
X0013086Y0316322D01*
X0012960Y0316422D01*
X0012836Y0316525D01*
X0012715Y0316630D01*
X0012596Y0316739D01*
X0012480Y0316850D01*
X0012367Y0316965D01*
X0012257Y0317082D01*
X0012150Y0317202D01*
X0012046Y0317324D01*
X0011945Y0317449D01*
X0011847Y0317577D01*
X0011752Y0317707D01*
X0011660Y0317839D01*
X0011572Y0317973D01*
X0011487Y0318110D01*
X0011405Y0318248D01*
X0011327Y0318389D01*
X0011253Y0318531D01*
X0011182Y0318675D01*
X0011114Y0318821D01*
X0011051Y0318969D01*
X0010990Y0319118D01*
X0010934Y0319269D01*
X0010881Y0319421D01*
X0010832Y0319574D01*
X0010787Y0319728D01*
X0010746Y0319883D01*
X0010708Y0320040D01*
X0010675Y0320197D01*
X0010645Y0320355D01*
X0010619Y0320514D01*
X0010598Y0320673D01*
X0010580Y0320833D01*
X0010566Y0320993D01*
X0010556Y0321154D01*
X0010550Y0321314D01*
X0010548Y0321475D01*
X0368816Y0041948D02*
X0368818Y0042109D01*
X0368824Y0042269D01*
X0368834Y0042430D01*
X0368848Y0042590D01*
X0368866Y0042750D01*
X0368887Y0042909D01*
X0368913Y0043068D01*
X0368943Y0043226D01*
X0368976Y0043383D01*
X0369014Y0043540D01*
X0369055Y0043695D01*
X0369100Y0043849D01*
X0369149Y0044002D01*
X0369202Y0044154D01*
X0369258Y0044305D01*
X0369319Y0044454D01*
X0369382Y0044602D01*
X0369450Y0044748D01*
X0369521Y0044892D01*
X0369595Y0045034D01*
X0369673Y0045175D01*
X0369755Y0045313D01*
X0369840Y0045450D01*
X0369928Y0045584D01*
X0370020Y0045716D01*
X0370115Y0045846D01*
X0370213Y0045974D01*
X0370314Y0046099D01*
X0370418Y0046221D01*
X0370525Y0046341D01*
X0370635Y0046458D01*
X0370748Y0046573D01*
X0370864Y0046684D01*
X0370983Y0046793D01*
X0371104Y0046898D01*
X0371228Y0047001D01*
X0371354Y0047101D01*
X0371482Y0047197D01*
X0371613Y0047290D01*
X0371747Y0047380D01*
X0371882Y0047467D01*
X0372020Y0047550D01*
X0372159Y0047630D01*
X0372301Y0047706D01*
X0372444Y0047779D01*
X0372589Y0047848D01*
X0372736Y0047914D01*
X0372884Y0047976D01*
X0373034Y0048034D01*
X0373185Y0048089D01*
X0373338Y0048140D01*
X0373492Y0048187D01*
X0373647Y0048230D01*
X0373803Y0048269D01*
X0373959Y0048305D01*
X0374117Y0048336D01*
X0374275Y0048364D01*
X0374434Y0048388D01*
X0374594Y0048408D01*
X0374754Y0048424D01*
X0374914Y0048436D01*
X0375075Y0048444D01*
X0375236Y0048448D01*
X0375396Y0048448D01*
X0375557Y0048444D01*
X0375718Y0048436D01*
X0375878Y0048424D01*
X0376038Y0048408D01*
X0376198Y0048388D01*
X0376357Y0048364D01*
X0376515Y0048336D01*
X0376673Y0048305D01*
X0376829Y0048269D01*
X0376985Y0048230D01*
X0377140Y0048187D01*
X0377294Y0048140D01*
X0377447Y0048089D01*
X0377598Y0048034D01*
X0377748Y0047976D01*
X0377896Y0047914D01*
X0378043Y0047848D01*
X0378188Y0047779D01*
X0378331Y0047706D01*
X0378473Y0047630D01*
X0378612Y0047550D01*
X0378750Y0047467D01*
X0378885Y0047380D01*
X0379019Y0047290D01*
X0379150Y0047197D01*
X0379278Y0047101D01*
X0379404Y0047001D01*
X0379528Y0046898D01*
X0379649Y0046793D01*
X0379768Y0046684D01*
X0379884Y0046573D01*
X0379997Y0046458D01*
X0380107Y0046341D01*
X0380214Y0046221D01*
X0380318Y0046099D01*
X0380419Y0045974D01*
X0380517Y0045846D01*
X0380612Y0045716D01*
X0380704Y0045584D01*
X0380792Y0045450D01*
X0380877Y0045313D01*
X0380959Y0045175D01*
X0381037Y0045034D01*
X0381111Y0044892D01*
X0381182Y0044748D01*
X0381250Y0044602D01*
X0381313Y0044454D01*
X0381374Y0044305D01*
X0381430Y0044154D01*
X0381483Y0044002D01*
X0381532Y0043849D01*
X0381577Y0043695D01*
X0381618Y0043540D01*
X0381656Y0043383D01*
X0381689Y0043226D01*
X0381719Y0043068D01*
X0381745Y0042909D01*
X0381766Y0042750D01*
X0381784Y0042590D01*
X0381798Y0042430D01*
X0381808Y0042269D01*
X0381814Y0042109D01*
X0381816Y0041948D01*
X0381814Y0041787D01*
X0381808Y0041627D01*
X0381798Y0041466D01*
X0381784Y0041306D01*
X0381766Y0041146D01*
X0381745Y0040987D01*
X0381719Y0040828D01*
X0381689Y0040670D01*
X0381656Y0040513D01*
X0381618Y0040356D01*
X0381577Y0040201D01*
X0381532Y0040047D01*
X0381483Y0039894D01*
X0381430Y0039742D01*
X0381374Y0039591D01*
X0381313Y0039442D01*
X0381250Y0039294D01*
X0381182Y0039148D01*
X0381111Y0039004D01*
X0381037Y0038862D01*
X0380959Y0038721D01*
X0380877Y0038583D01*
X0380792Y0038446D01*
X0380704Y0038312D01*
X0380612Y0038180D01*
X0380517Y0038050D01*
X0380419Y0037922D01*
X0380318Y0037797D01*
X0380214Y0037675D01*
X0380107Y0037555D01*
X0379997Y0037438D01*
X0379884Y0037323D01*
X0379768Y0037212D01*
X0379649Y0037103D01*
X0379528Y0036998D01*
X0379404Y0036895D01*
X0379278Y0036795D01*
X0379150Y0036699D01*
X0379019Y0036606D01*
X0378885Y0036516D01*
X0378750Y0036429D01*
X0378612Y0036346D01*
X0378473Y0036266D01*
X0378331Y0036190D01*
X0378188Y0036117D01*
X0378043Y0036048D01*
X0377896Y0035982D01*
X0377748Y0035920D01*
X0377598Y0035862D01*
X0377447Y0035807D01*
X0377294Y0035756D01*
X0377140Y0035709D01*
X0376985Y0035666D01*
X0376829Y0035627D01*
X0376673Y0035591D01*
X0376515Y0035560D01*
X0376357Y0035532D01*
X0376198Y0035508D01*
X0376038Y0035488D01*
X0375878Y0035472D01*
X0375718Y0035460D01*
X0375557Y0035452D01*
X0375396Y0035448D01*
X0375236Y0035448D01*
X0375075Y0035452D01*
X0374914Y0035460D01*
X0374754Y0035472D01*
X0374594Y0035488D01*
X0374434Y0035508D01*
X0374275Y0035532D01*
X0374117Y0035560D01*
X0373959Y0035591D01*
X0373803Y0035627D01*
X0373647Y0035666D01*
X0373492Y0035709D01*
X0373338Y0035756D01*
X0373185Y0035807D01*
X0373034Y0035862D01*
X0372884Y0035920D01*
X0372736Y0035982D01*
X0372589Y0036048D01*
X0372444Y0036117D01*
X0372301Y0036190D01*
X0372159Y0036266D01*
X0372020Y0036346D01*
X0371882Y0036429D01*
X0371747Y0036516D01*
X0371613Y0036606D01*
X0371482Y0036699D01*
X0371354Y0036795D01*
X0371228Y0036895D01*
X0371104Y0036998D01*
X0370983Y0037103D01*
X0370864Y0037212D01*
X0370748Y0037323D01*
X0370635Y0037438D01*
X0370525Y0037555D01*
X0370418Y0037675D01*
X0370314Y0037797D01*
X0370213Y0037922D01*
X0370115Y0038050D01*
X0370020Y0038180D01*
X0369928Y0038312D01*
X0369840Y0038446D01*
X0369755Y0038583D01*
X0369673Y0038721D01*
X0369595Y0038862D01*
X0369521Y0039004D01*
X0369450Y0039148D01*
X0369382Y0039294D01*
X0369319Y0039442D01*
X0369258Y0039591D01*
X0369202Y0039742D01*
X0369149Y0039894D01*
X0369100Y0040047D01*
X0369055Y0040201D01*
X0369014Y0040356D01*
X0368976Y0040513D01*
X0368943Y0040670D01*
X0368913Y0040828D01*
X0368887Y0040987D01*
X0368866Y0041146D01*
X0368848Y0041306D01*
X0368834Y0041466D01*
X0368824Y0041627D01*
X0368818Y0041787D01*
X0368816Y0041948D01*
X0372442Y0094822D02*
X0372444Y0095015D01*
X0372451Y0095208D01*
X0372463Y0095401D01*
X0372480Y0095594D01*
X0372501Y0095786D01*
X0372527Y0095977D01*
X0372558Y0096168D01*
X0372593Y0096358D01*
X0372633Y0096547D01*
X0372678Y0096735D01*
X0372727Y0096922D01*
X0372781Y0097108D01*
X0372839Y0097292D01*
X0372902Y0097475D01*
X0372970Y0097656D01*
X0373041Y0097835D01*
X0373118Y0098013D01*
X0373198Y0098189D01*
X0373283Y0098362D01*
X0373372Y0098534D01*
X0373465Y0098703D01*
X0373562Y0098870D01*
X0373664Y0099035D01*
X0373769Y0099197D01*
X0373878Y0099356D01*
X0373992Y0099513D01*
X0374109Y0099666D01*
X0374229Y0099817D01*
X0374354Y0099965D01*
X0374482Y0100110D01*
X0374613Y0100251D01*
X0374748Y0100390D01*
X0374887Y0100525D01*
X0375028Y0100656D01*
X0375173Y0100784D01*
X0375321Y0100909D01*
X0375472Y0101029D01*
X0375625Y0101146D01*
X0375782Y0101260D01*
X0375941Y0101369D01*
X0376103Y0101474D01*
X0376268Y0101576D01*
X0376435Y0101673D01*
X0376604Y0101766D01*
X0376776Y0101855D01*
X0376949Y0101940D01*
X0377125Y0102020D01*
X0377303Y0102097D01*
X0377482Y0102168D01*
X0377663Y0102236D01*
X0377846Y0102299D01*
X0378030Y0102357D01*
X0378216Y0102411D01*
X0378403Y0102460D01*
X0378591Y0102505D01*
X0378780Y0102545D01*
X0378970Y0102580D01*
X0379161Y0102611D01*
X0379352Y0102637D01*
X0379544Y0102658D01*
X0379737Y0102675D01*
X0379930Y0102687D01*
X0380123Y0102694D01*
X0380316Y0102696D01*
X0380509Y0102694D01*
X0380702Y0102687D01*
X0380895Y0102675D01*
X0381088Y0102658D01*
X0381280Y0102637D01*
X0381471Y0102611D01*
X0381662Y0102580D01*
X0381852Y0102545D01*
X0382041Y0102505D01*
X0382229Y0102460D01*
X0382416Y0102411D01*
X0382602Y0102357D01*
X0382786Y0102299D01*
X0382969Y0102236D01*
X0383150Y0102168D01*
X0383329Y0102097D01*
X0383507Y0102020D01*
X0383683Y0101940D01*
X0383856Y0101855D01*
X0384028Y0101766D01*
X0384197Y0101673D01*
X0384364Y0101576D01*
X0384529Y0101474D01*
X0384691Y0101369D01*
X0384850Y0101260D01*
X0385007Y0101146D01*
X0385160Y0101029D01*
X0385311Y0100909D01*
X0385459Y0100784D01*
X0385604Y0100656D01*
X0385745Y0100525D01*
X0385884Y0100390D01*
X0386019Y0100251D01*
X0386150Y0100110D01*
X0386278Y0099965D01*
X0386403Y0099817D01*
X0386523Y0099666D01*
X0386640Y0099513D01*
X0386754Y0099356D01*
X0386863Y0099197D01*
X0386968Y0099035D01*
X0387070Y0098870D01*
X0387167Y0098703D01*
X0387260Y0098534D01*
X0387349Y0098362D01*
X0387434Y0098189D01*
X0387514Y0098013D01*
X0387591Y0097835D01*
X0387662Y0097656D01*
X0387730Y0097475D01*
X0387793Y0097292D01*
X0387851Y0097108D01*
X0387905Y0096922D01*
X0387954Y0096735D01*
X0387999Y0096547D01*
X0388039Y0096358D01*
X0388074Y0096168D01*
X0388105Y0095977D01*
X0388131Y0095786D01*
X0388152Y0095594D01*
X0388169Y0095401D01*
X0388181Y0095208D01*
X0388188Y0095015D01*
X0388190Y0094822D01*
X0388188Y0094629D01*
X0388181Y0094436D01*
X0388169Y0094243D01*
X0388152Y0094050D01*
X0388131Y0093858D01*
X0388105Y0093667D01*
X0388074Y0093476D01*
X0388039Y0093286D01*
X0387999Y0093097D01*
X0387954Y0092909D01*
X0387905Y0092722D01*
X0387851Y0092536D01*
X0387793Y0092352D01*
X0387730Y0092169D01*
X0387662Y0091988D01*
X0387591Y0091809D01*
X0387514Y0091631D01*
X0387434Y0091455D01*
X0387349Y0091282D01*
X0387260Y0091110D01*
X0387167Y0090941D01*
X0387070Y0090774D01*
X0386968Y0090609D01*
X0386863Y0090447D01*
X0386754Y0090288D01*
X0386640Y0090131D01*
X0386523Y0089978D01*
X0386403Y0089827D01*
X0386278Y0089679D01*
X0386150Y0089534D01*
X0386019Y0089393D01*
X0385884Y0089254D01*
X0385745Y0089119D01*
X0385604Y0088988D01*
X0385459Y0088860D01*
X0385311Y0088735D01*
X0385160Y0088615D01*
X0385007Y0088498D01*
X0384850Y0088384D01*
X0384691Y0088275D01*
X0384529Y0088170D01*
X0384364Y0088068D01*
X0384197Y0087971D01*
X0384028Y0087878D01*
X0383856Y0087789D01*
X0383683Y0087704D01*
X0383507Y0087624D01*
X0383329Y0087547D01*
X0383150Y0087476D01*
X0382969Y0087408D01*
X0382786Y0087345D01*
X0382602Y0087287D01*
X0382416Y0087233D01*
X0382229Y0087184D01*
X0382041Y0087139D01*
X0381852Y0087099D01*
X0381662Y0087064D01*
X0381471Y0087033D01*
X0381280Y0087007D01*
X0381088Y0086986D01*
X0380895Y0086969D01*
X0380702Y0086957D01*
X0380509Y0086950D01*
X0380316Y0086948D01*
X0380123Y0086950D01*
X0379930Y0086957D01*
X0379737Y0086969D01*
X0379544Y0086986D01*
X0379352Y0087007D01*
X0379161Y0087033D01*
X0378970Y0087064D01*
X0378780Y0087099D01*
X0378591Y0087139D01*
X0378403Y0087184D01*
X0378216Y0087233D01*
X0378030Y0087287D01*
X0377846Y0087345D01*
X0377663Y0087408D01*
X0377482Y0087476D01*
X0377303Y0087547D01*
X0377125Y0087624D01*
X0376949Y0087704D01*
X0376776Y0087789D01*
X0376604Y0087878D01*
X0376435Y0087971D01*
X0376268Y0088068D01*
X0376103Y0088170D01*
X0375941Y0088275D01*
X0375782Y0088384D01*
X0375625Y0088498D01*
X0375472Y0088615D01*
X0375321Y0088735D01*
X0375173Y0088860D01*
X0375028Y0088988D01*
X0374887Y0089119D01*
X0374748Y0089254D01*
X0374613Y0089393D01*
X0374482Y0089534D01*
X0374354Y0089679D01*
X0374229Y0089827D01*
X0374109Y0089978D01*
X0373992Y0090131D01*
X0373878Y0090288D01*
X0373769Y0090447D01*
X0373664Y0090609D01*
X0373562Y0090774D01*
X0373465Y0090941D01*
X0373372Y0091110D01*
X0373283Y0091282D01*
X0373198Y0091455D01*
X0373118Y0091631D01*
X0373041Y0091809D01*
X0372970Y0091988D01*
X0372902Y0092169D01*
X0372839Y0092352D01*
X0372781Y0092536D01*
X0372727Y0092722D01*
X0372678Y0092909D01*
X0372633Y0093097D01*
X0372593Y0093286D01*
X0372558Y0093476D01*
X0372527Y0093667D01*
X0372501Y0093858D01*
X0372480Y0094050D01*
X0372463Y0094243D01*
X0372451Y0094436D01*
X0372444Y0094629D01*
X0372442Y0094822D01*
X0372442Y0276514D02*
X0372444Y0276707D01*
X0372451Y0276900D01*
X0372463Y0277093D01*
X0372480Y0277286D01*
X0372501Y0277478D01*
X0372527Y0277669D01*
X0372558Y0277860D01*
X0372593Y0278050D01*
X0372633Y0278239D01*
X0372678Y0278427D01*
X0372727Y0278614D01*
X0372781Y0278800D01*
X0372839Y0278984D01*
X0372902Y0279167D01*
X0372970Y0279348D01*
X0373041Y0279527D01*
X0373118Y0279705D01*
X0373198Y0279881D01*
X0373283Y0280054D01*
X0373372Y0280226D01*
X0373465Y0280395D01*
X0373562Y0280562D01*
X0373664Y0280727D01*
X0373769Y0280889D01*
X0373878Y0281048D01*
X0373992Y0281205D01*
X0374109Y0281358D01*
X0374229Y0281509D01*
X0374354Y0281657D01*
X0374482Y0281802D01*
X0374613Y0281943D01*
X0374748Y0282082D01*
X0374887Y0282217D01*
X0375028Y0282348D01*
X0375173Y0282476D01*
X0375321Y0282601D01*
X0375472Y0282721D01*
X0375625Y0282838D01*
X0375782Y0282952D01*
X0375941Y0283061D01*
X0376103Y0283166D01*
X0376268Y0283268D01*
X0376435Y0283365D01*
X0376604Y0283458D01*
X0376776Y0283547D01*
X0376949Y0283632D01*
X0377125Y0283712D01*
X0377303Y0283789D01*
X0377482Y0283860D01*
X0377663Y0283928D01*
X0377846Y0283991D01*
X0378030Y0284049D01*
X0378216Y0284103D01*
X0378403Y0284152D01*
X0378591Y0284197D01*
X0378780Y0284237D01*
X0378970Y0284272D01*
X0379161Y0284303D01*
X0379352Y0284329D01*
X0379544Y0284350D01*
X0379737Y0284367D01*
X0379930Y0284379D01*
X0380123Y0284386D01*
X0380316Y0284388D01*
X0380509Y0284386D01*
X0380702Y0284379D01*
X0380895Y0284367D01*
X0381088Y0284350D01*
X0381280Y0284329D01*
X0381471Y0284303D01*
X0381662Y0284272D01*
X0381852Y0284237D01*
X0382041Y0284197D01*
X0382229Y0284152D01*
X0382416Y0284103D01*
X0382602Y0284049D01*
X0382786Y0283991D01*
X0382969Y0283928D01*
X0383150Y0283860D01*
X0383329Y0283789D01*
X0383507Y0283712D01*
X0383683Y0283632D01*
X0383856Y0283547D01*
X0384028Y0283458D01*
X0384197Y0283365D01*
X0384364Y0283268D01*
X0384529Y0283166D01*
X0384691Y0283061D01*
X0384850Y0282952D01*
X0385007Y0282838D01*
X0385160Y0282721D01*
X0385311Y0282601D01*
X0385459Y0282476D01*
X0385604Y0282348D01*
X0385745Y0282217D01*
X0385884Y0282082D01*
X0386019Y0281943D01*
X0386150Y0281802D01*
X0386278Y0281657D01*
X0386403Y0281509D01*
X0386523Y0281358D01*
X0386640Y0281205D01*
X0386754Y0281048D01*
X0386863Y0280889D01*
X0386968Y0280727D01*
X0387070Y0280562D01*
X0387167Y0280395D01*
X0387260Y0280226D01*
X0387349Y0280054D01*
X0387434Y0279881D01*
X0387514Y0279705D01*
X0387591Y0279527D01*
X0387662Y0279348D01*
X0387730Y0279167D01*
X0387793Y0278984D01*
X0387851Y0278800D01*
X0387905Y0278614D01*
X0387954Y0278427D01*
X0387999Y0278239D01*
X0388039Y0278050D01*
X0388074Y0277860D01*
X0388105Y0277669D01*
X0388131Y0277478D01*
X0388152Y0277286D01*
X0388169Y0277093D01*
X0388181Y0276900D01*
X0388188Y0276707D01*
X0388190Y0276514D01*
X0388188Y0276321D01*
X0388181Y0276128D01*
X0388169Y0275935D01*
X0388152Y0275742D01*
X0388131Y0275550D01*
X0388105Y0275359D01*
X0388074Y0275168D01*
X0388039Y0274978D01*
X0387999Y0274789D01*
X0387954Y0274601D01*
X0387905Y0274414D01*
X0387851Y0274228D01*
X0387793Y0274044D01*
X0387730Y0273861D01*
X0387662Y0273680D01*
X0387591Y0273501D01*
X0387514Y0273323D01*
X0387434Y0273147D01*
X0387349Y0272974D01*
X0387260Y0272802D01*
X0387167Y0272633D01*
X0387070Y0272466D01*
X0386968Y0272301D01*
X0386863Y0272139D01*
X0386754Y0271980D01*
X0386640Y0271823D01*
X0386523Y0271670D01*
X0386403Y0271519D01*
X0386278Y0271371D01*
X0386150Y0271226D01*
X0386019Y0271085D01*
X0385884Y0270946D01*
X0385745Y0270811D01*
X0385604Y0270680D01*
X0385459Y0270552D01*
X0385311Y0270427D01*
X0385160Y0270307D01*
X0385007Y0270190D01*
X0384850Y0270076D01*
X0384691Y0269967D01*
X0384529Y0269862D01*
X0384364Y0269760D01*
X0384197Y0269663D01*
X0384028Y0269570D01*
X0383856Y0269481D01*
X0383683Y0269396D01*
X0383507Y0269316D01*
X0383329Y0269239D01*
X0383150Y0269168D01*
X0382969Y0269100D01*
X0382786Y0269037D01*
X0382602Y0268979D01*
X0382416Y0268925D01*
X0382229Y0268876D01*
X0382041Y0268831D01*
X0381852Y0268791D01*
X0381662Y0268756D01*
X0381471Y0268725D01*
X0381280Y0268699D01*
X0381088Y0268678D01*
X0380895Y0268661D01*
X0380702Y0268649D01*
X0380509Y0268642D01*
X0380316Y0268640D01*
X0380123Y0268642D01*
X0379930Y0268649D01*
X0379737Y0268661D01*
X0379544Y0268678D01*
X0379352Y0268699D01*
X0379161Y0268725D01*
X0378970Y0268756D01*
X0378780Y0268791D01*
X0378591Y0268831D01*
X0378403Y0268876D01*
X0378216Y0268925D01*
X0378030Y0268979D01*
X0377846Y0269037D01*
X0377663Y0269100D01*
X0377482Y0269168D01*
X0377303Y0269239D01*
X0377125Y0269316D01*
X0376949Y0269396D01*
X0376776Y0269481D01*
X0376604Y0269570D01*
X0376435Y0269663D01*
X0376268Y0269760D01*
X0376103Y0269862D01*
X0375941Y0269967D01*
X0375782Y0270076D01*
X0375625Y0270190D01*
X0375472Y0270307D01*
X0375321Y0270427D01*
X0375173Y0270552D01*
X0375028Y0270680D01*
X0374887Y0270811D01*
X0374748Y0270946D01*
X0374613Y0271085D01*
X0374482Y0271226D01*
X0374354Y0271371D01*
X0374229Y0271519D01*
X0374109Y0271670D01*
X0373992Y0271823D01*
X0373878Y0271980D01*
X0373769Y0272139D01*
X0373664Y0272301D01*
X0373562Y0272466D01*
X0373465Y0272633D01*
X0373372Y0272802D01*
X0373283Y0272974D01*
X0373198Y0273147D01*
X0373118Y0273323D01*
X0373041Y0273501D01*
X0372970Y0273680D01*
X0372902Y0273861D01*
X0372839Y0274044D01*
X0372781Y0274228D01*
X0372727Y0274414D01*
X0372678Y0274601D01*
X0372633Y0274789D01*
X0372593Y0274978D01*
X0372558Y0275168D01*
X0372527Y0275359D01*
X0372501Y0275550D01*
X0372480Y0275742D01*
X0372463Y0275935D01*
X0372451Y0276128D01*
X0372444Y0276321D01*
X0372442Y0276514D01*
X0372753Y0321475D02*
X0372755Y0321636D01*
X0372761Y0321796D01*
X0372771Y0321957D01*
X0372785Y0322117D01*
X0372803Y0322277D01*
X0372824Y0322436D01*
X0372850Y0322595D01*
X0372880Y0322753D01*
X0372913Y0322910D01*
X0372951Y0323067D01*
X0372992Y0323222D01*
X0373037Y0323376D01*
X0373086Y0323529D01*
X0373139Y0323681D01*
X0373195Y0323832D01*
X0373256Y0323981D01*
X0373319Y0324129D01*
X0373387Y0324275D01*
X0373458Y0324419D01*
X0373532Y0324561D01*
X0373610Y0324702D01*
X0373692Y0324840D01*
X0373777Y0324977D01*
X0373865Y0325111D01*
X0373957Y0325243D01*
X0374052Y0325373D01*
X0374150Y0325501D01*
X0374251Y0325626D01*
X0374355Y0325748D01*
X0374462Y0325868D01*
X0374572Y0325985D01*
X0374685Y0326100D01*
X0374801Y0326211D01*
X0374920Y0326320D01*
X0375041Y0326425D01*
X0375165Y0326528D01*
X0375291Y0326628D01*
X0375419Y0326724D01*
X0375550Y0326817D01*
X0375684Y0326907D01*
X0375819Y0326994D01*
X0375957Y0327077D01*
X0376096Y0327157D01*
X0376238Y0327233D01*
X0376381Y0327306D01*
X0376526Y0327375D01*
X0376673Y0327441D01*
X0376821Y0327503D01*
X0376971Y0327561D01*
X0377122Y0327616D01*
X0377275Y0327667D01*
X0377429Y0327714D01*
X0377584Y0327757D01*
X0377740Y0327796D01*
X0377896Y0327832D01*
X0378054Y0327863D01*
X0378212Y0327891D01*
X0378371Y0327915D01*
X0378531Y0327935D01*
X0378691Y0327951D01*
X0378851Y0327963D01*
X0379012Y0327971D01*
X0379173Y0327975D01*
X0379333Y0327975D01*
X0379494Y0327971D01*
X0379655Y0327963D01*
X0379815Y0327951D01*
X0379975Y0327935D01*
X0380135Y0327915D01*
X0380294Y0327891D01*
X0380452Y0327863D01*
X0380610Y0327832D01*
X0380766Y0327796D01*
X0380922Y0327757D01*
X0381077Y0327714D01*
X0381231Y0327667D01*
X0381384Y0327616D01*
X0381535Y0327561D01*
X0381685Y0327503D01*
X0381833Y0327441D01*
X0381980Y0327375D01*
X0382125Y0327306D01*
X0382268Y0327233D01*
X0382410Y0327157D01*
X0382549Y0327077D01*
X0382687Y0326994D01*
X0382822Y0326907D01*
X0382956Y0326817D01*
X0383087Y0326724D01*
X0383215Y0326628D01*
X0383341Y0326528D01*
X0383465Y0326425D01*
X0383586Y0326320D01*
X0383705Y0326211D01*
X0383821Y0326100D01*
X0383934Y0325985D01*
X0384044Y0325868D01*
X0384151Y0325748D01*
X0384255Y0325626D01*
X0384356Y0325501D01*
X0384454Y0325373D01*
X0384549Y0325243D01*
X0384641Y0325111D01*
X0384729Y0324977D01*
X0384814Y0324840D01*
X0384896Y0324702D01*
X0384974Y0324561D01*
X0385048Y0324419D01*
X0385119Y0324275D01*
X0385187Y0324129D01*
X0385250Y0323981D01*
X0385311Y0323832D01*
X0385367Y0323681D01*
X0385420Y0323529D01*
X0385469Y0323376D01*
X0385514Y0323222D01*
X0385555Y0323067D01*
X0385593Y0322910D01*
X0385626Y0322753D01*
X0385656Y0322595D01*
X0385682Y0322436D01*
X0385703Y0322277D01*
X0385721Y0322117D01*
X0385735Y0321957D01*
X0385745Y0321796D01*
X0385751Y0321636D01*
X0385753Y0321475D01*
X0385751Y0321314D01*
X0385745Y0321154D01*
X0385735Y0320993D01*
X0385721Y0320833D01*
X0385703Y0320673D01*
X0385682Y0320514D01*
X0385656Y0320355D01*
X0385626Y0320197D01*
X0385593Y0320040D01*
X0385555Y0319883D01*
X0385514Y0319728D01*
X0385469Y0319574D01*
X0385420Y0319421D01*
X0385367Y0319269D01*
X0385311Y0319118D01*
X0385250Y0318969D01*
X0385187Y0318821D01*
X0385119Y0318675D01*
X0385048Y0318531D01*
X0384974Y0318389D01*
X0384896Y0318248D01*
X0384814Y0318110D01*
X0384729Y0317973D01*
X0384641Y0317839D01*
X0384549Y0317707D01*
X0384454Y0317577D01*
X0384356Y0317449D01*
X0384255Y0317324D01*
X0384151Y0317202D01*
X0384044Y0317082D01*
X0383934Y0316965D01*
X0383821Y0316850D01*
X0383705Y0316739D01*
X0383586Y0316630D01*
X0383465Y0316525D01*
X0383341Y0316422D01*
X0383215Y0316322D01*
X0383087Y0316226D01*
X0382956Y0316133D01*
X0382822Y0316043D01*
X0382687Y0315956D01*
X0382549Y0315873D01*
X0382410Y0315793D01*
X0382268Y0315717D01*
X0382125Y0315644D01*
X0381980Y0315575D01*
X0381833Y0315509D01*
X0381685Y0315447D01*
X0381535Y0315389D01*
X0381384Y0315334D01*
X0381231Y0315283D01*
X0381077Y0315236D01*
X0380922Y0315193D01*
X0380766Y0315154D01*
X0380610Y0315118D01*
X0380452Y0315087D01*
X0380294Y0315059D01*
X0380135Y0315035D01*
X0379975Y0315015D01*
X0379815Y0314999D01*
X0379655Y0314987D01*
X0379494Y0314979D01*
X0379333Y0314975D01*
X0379173Y0314975D01*
X0379012Y0314979D01*
X0378851Y0314987D01*
X0378691Y0314999D01*
X0378531Y0315015D01*
X0378371Y0315035D01*
X0378212Y0315059D01*
X0378054Y0315087D01*
X0377896Y0315118D01*
X0377740Y0315154D01*
X0377584Y0315193D01*
X0377429Y0315236D01*
X0377275Y0315283D01*
X0377122Y0315334D01*
X0376971Y0315389D01*
X0376821Y0315447D01*
X0376673Y0315509D01*
X0376526Y0315575D01*
X0376381Y0315644D01*
X0376238Y0315717D01*
X0376096Y0315793D01*
X0375957Y0315873D01*
X0375819Y0315956D01*
X0375684Y0316043D01*
X0375550Y0316133D01*
X0375419Y0316226D01*
X0375291Y0316322D01*
X0375165Y0316422D01*
X0375041Y0316525D01*
X0374920Y0316630D01*
X0374801Y0316739D01*
X0374685Y0316850D01*
X0374572Y0316965D01*
X0374462Y0317082D01*
X0374355Y0317202D01*
X0374251Y0317324D01*
X0374150Y0317449D01*
X0374052Y0317577D01*
X0373957Y0317707D01*
X0373865Y0317839D01*
X0373777Y0317973D01*
X0373692Y0318110D01*
X0373610Y0318248D01*
X0373532Y0318389D01*
X0373458Y0318531D01*
X0373387Y0318675D01*
X0373319Y0318821D01*
X0373256Y0318969D01*
X0373195Y0319118D01*
X0373139Y0319269D01*
X0373086Y0319421D01*
X0373037Y0319574D01*
X0372992Y0319728D01*
X0372951Y0319883D01*
X0372913Y0320040D01*
X0372880Y0320197D01*
X0372850Y0320355D01*
X0372824Y0320514D01*
X0372803Y0320673D01*
X0372785Y0320833D01*
X0372771Y0320993D01*
X0372761Y0321154D01*
X0372755Y0321314D01*
X0372753Y0321475D01*
D11*
X0269800Y0273263D03*
X0269800Y0263263D03*
X0237300Y0258763D03*
X0237300Y0248763D03*
X0216300Y0269263D03*
X0216300Y0279263D03*
X0234800Y0298763D03*
X0234800Y0308763D03*
X0186300Y0312263D03*
X0186300Y0322263D03*
X0186800Y0287263D03*
X0186800Y0277263D03*
X0157300Y0279763D03*
X0157300Y0269763D03*
X0134800Y0258763D03*
X0134800Y0248763D03*
X0126300Y0227263D03*
X0126300Y0217263D03*
X0134300Y0197263D03*
X0134300Y0187263D03*
X0156300Y0175263D03*
X0156300Y0165263D03*
X0140300Y0144263D03*
X0140300Y0134263D03*
X0185800Y0132263D03*
X0185800Y0122263D03*
X0186300Y0157263D03*
X0186300Y0167263D03*
X0218300Y0166763D03*
X0218300Y0176763D03*
X0239800Y0189263D03*
X0239800Y0199263D03*
X0246300Y0217263D03*
X0246300Y0227263D03*
X0281800Y0227263D03*
X0281800Y0217263D03*
X0269800Y0181763D03*
X0269800Y0171763D03*
X0234300Y0145263D03*
X0234300Y0135263D03*
X0102800Y0171263D03*
X0102800Y0181263D03*
X0091300Y0217763D03*
X0091300Y0227763D03*
X0102300Y0262263D03*
X0102300Y0272263D03*
X0140300Y0300763D03*
X0140300Y0310763D03*
D12*
X0351418Y0289664D03*
X0351418Y0263365D03*
X0351418Y0107971D03*
X0351418Y0081672D03*
D13*
X0321300Y0064863D03*
X0321300Y0052263D03*
X0321300Y0039663D03*
X0321300Y0259663D03*
X0321300Y0272263D03*
X0321300Y0284863D03*
D14*
X0074843Y0147263D03*
X0067757Y0147263D03*
D15*
X0251300Y0130806D03*
X0251300Y0123719D03*
D16*
X0238583Y0101003D03*
X0233583Y0093503D03*
X0228583Y0101003D03*
X0104725Y0120688D03*
X0094725Y0120688D03*
X0099725Y0113188D03*
D17*
X0071300Y0112263D03*
X0096300Y0062263D03*
X0126300Y0057263D03*
X0126300Y0037263D03*
X0135158Y0081318D03*
X0131300Y0097263D03*
X0131300Y0112263D03*
X0221300Y0092263D03*
X0221300Y0067263D03*
X0251300Y0107263D03*
X0271300Y0112263D03*
X0271300Y0097263D03*
X0271300Y0057263D03*
X0276300Y0037263D03*
X0266300Y0147263D03*
D18*
X0255062Y0136025D01*
X0255062Y0128651D01*
X0251300Y0124889D01*
X0251300Y0123719D01*
X0251300Y0107263D01*
X0271300Y0112263D02*
X0271300Y0097263D01*
X0271300Y0112263D02*
X0271300Y0142263D01*
X0321300Y0192263D01*
X0321300Y0259663D01*
X0321300Y0272263D02*
X0344568Y0272263D01*
X0351418Y0263365D01*
X0281800Y0217263D02*
X0281800Y0193763D01*
X0269800Y0181763D01*
X0269800Y0180763D01*
X0234300Y0145263D01*
X0234300Y0135263D02*
X0188800Y0135263D01*
X0185800Y0132263D01*
X0152300Y0132263D01*
X0140300Y0144263D01*
X0142062Y0151025D02*
X0072689Y0151025D01*
X0068926Y0147263D01*
X0067757Y0147263D01*
X0074843Y0147263D02*
X0084824Y0137282D01*
X0096856Y0137282D01*
X0118987Y0115152D01*
X0101689Y0115152D01*
X0099725Y0113188D01*
X0095725Y0114845D02*
X0098232Y0117352D01*
X0101389Y0117352D01*
X0104725Y0120688D01*
X0095725Y0114845D02*
X0095725Y0111531D01*
X0098068Y0109188D01*
X0107288Y0109188D01*
X0135158Y0081318D01*
X0131300Y0097263D02*
X0131300Y0112263D01*
X0132497Y0115152D02*
X0118987Y0115152D01*
X0132497Y0115152D02*
X0183275Y0064374D01*
X0222497Y0064374D01*
X0222986Y0064863D01*
X0321300Y0064863D01*
X0276300Y0052263D02*
X0276300Y0037263D01*
X0276300Y0052263D02*
X0271300Y0057263D01*
X0221300Y0067263D02*
X0221300Y0092263D01*
X0185800Y0122263D02*
X0193700Y0130163D01*
X0236412Y0130163D01*
X0237056Y0130806D01*
X0251300Y0130806D01*
X0234300Y0135263D02*
X0269800Y0170763D01*
X0269800Y0171763D01*
X0239800Y0188263D02*
X0218300Y0166763D01*
X0218057Y0166763D01*
X0211857Y0160563D01*
X0189600Y0160563D01*
X0186300Y0157263D01*
X0178500Y0165063D01*
X0163389Y0165063D01*
X0163189Y0165263D01*
X0156300Y0165263D01*
X0142062Y0151025D01*
X0164300Y0167263D02*
X0156300Y0175263D01*
X0156300Y0197263D01*
X0126300Y0227263D01*
X0126300Y0240263D01*
X0134800Y0248763D01*
X0157300Y0269763D02*
X0179300Y0269763D01*
X0186800Y0277263D01*
X0208300Y0277263D01*
X0216300Y0269263D01*
X0226800Y0269263D01*
X0237300Y0258763D01*
X0237300Y0248763D02*
X0237300Y0226263D01*
X0246300Y0217263D01*
X0246300Y0205763D01*
X0239800Y0199263D01*
X0239800Y0198263D01*
X0218300Y0176763D01*
X0195800Y0176763D01*
X0186300Y0167263D01*
X0164300Y0167263D01*
X0134300Y0197263D02*
X0134300Y0209263D01*
X0126300Y0217263D01*
X0107900Y0201163D02*
X0091300Y0217763D01*
X0091300Y0227763D02*
X0102300Y0238763D01*
X0102300Y0262263D01*
X0102300Y0272263D02*
X0111800Y0272263D01*
X0140300Y0300763D01*
X0174800Y0300763D01*
X0186300Y0312263D01*
X0231300Y0312263D01*
X0234800Y0308763D01*
X0234800Y0305975D01*
X0239900Y0300875D01*
X0239900Y0293163D01*
X0269800Y0263263D01*
X0269800Y0229263D01*
X0281800Y0217263D01*
X0239800Y0189263D02*
X0239800Y0188263D01*
X0107900Y0179150D02*
X0107900Y0201163D01*
X0107900Y0179150D02*
X0102800Y0174050D01*
X0102800Y0171263D01*
X0084824Y0137282D02*
X0084843Y0137263D01*
X0071300Y0112263D02*
X0096300Y0092263D01*
X0096300Y0062263D01*
X0126300Y0057263D02*
X0126300Y0037263D01*
D19*
X0128489Y0037225D02*
X0274111Y0037225D01*
X0274111Y0036627D02*
X0128489Y0036627D01*
X0128489Y0036356D02*
X0127207Y0035074D01*
X0125393Y0035074D01*
X0124111Y0036356D01*
X0124111Y0038169D01*
X0124600Y0038658D01*
X0124600Y0055867D01*
X0124111Y0056356D01*
X0124111Y0058169D01*
X0125393Y0059451D01*
X0127207Y0059451D01*
X0128489Y0058169D01*
X0128489Y0056356D01*
X0128000Y0055867D01*
X0128000Y0038658D01*
X0128489Y0038169D01*
X0128489Y0036356D01*
X0128161Y0036028D02*
X0274439Y0036028D01*
X0274111Y0036356D02*
X0275393Y0035074D01*
X0277207Y0035074D01*
X0278489Y0036356D01*
X0278489Y0038169D01*
X0278000Y0038658D01*
X0278000Y0052967D01*
X0273489Y0057478D01*
X0273489Y0058169D01*
X0272207Y0059451D01*
X0270393Y0059451D01*
X0269111Y0058169D01*
X0269111Y0056356D01*
X0270393Y0055074D01*
X0271085Y0055074D01*
X0274600Y0051558D01*
X0274600Y0038658D01*
X0274111Y0038169D01*
X0274111Y0036356D01*
X0275037Y0035430D02*
X0127563Y0035430D01*
X0125037Y0035430D02*
X0025781Y0035430D01*
X0025517Y0035165D02*
X0027767Y0037416D01*
X0028985Y0040356D01*
X0028985Y0043539D01*
X0028735Y0044141D01*
X0091332Y0094060D01*
X0094600Y0091445D01*
X0094600Y0063658D01*
X0094111Y0063169D01*
X0094111Y0061356D01*
X0095393Y0060074D01*
X0097207Y0060074D01*
X0098489Y0061356D01*
X0098489Y0063169D01*
X0098000Y0063658D01*
X0098000Y0091666D01*
X0098067Y0091750D01*
X0098000Y0092357D01*
X0098000Y0092967D01*
X0097924Y0093043D01*
X0097912Y0093150D01*
X0097436Y0093531D01*
X0097004Y0093963D01*
X0096896Y0093963D01*
X0094057Y0096234D01*
X0107288Y0106784D01*
X0132969Y0081102D01*
X0132969Y0080411D01*
X0134252Y0079129D01*
X0136065Y0079129D01*
X0137347Y0080411D01*
X0137347Y0082224D01*
X0136065Y0083507D01*
X0135373Y0083507D01*
X0109963Y0108917D01*
X0115648Y0113452D01*
X0129393Y0113452D01*
X0129111Y0113169D01*
X0129111Y0111356D01*
X0129600Y0110867D01*
X0129600Y0098658D01*
X0129111Y0098169D01*
X0129111Y0096356D01*
X0130393Y0095074D01*
X0132207Y0095074D01*
X0133489Y0096356D01*
X0133489Y0098169D01*
X0133000Y0098658D01*
X0133000Y0110867D01*
X0133489Y0111356D01*
X0133489Y0111755D01*
X0182570Y0062674D01*
X0223201Y0062674D01*
X0223690Y0063163D01*
X0317250Y0063163D01*
X0317250Y0061340D01*
X0317777Y0060813D01*
X0324823Y0060813D01*
X0325350Y0061340D01*
X0325350Y0068385D01*
X0324823Y0068913D01*
X0317777Y0068913D01*
X0317250Y0068385D01*
X0317250Y0066563D01*
X0223489Y0066563D01*
X0223489Y0068169D01*
X0223000Y0068658D01*
X0223000Y0090867D01*
X0223489Y0091356D01*
X0223489Y0093169D01*
X0222207Y0094451D01*
X0220393Y0094451D01*
X0219111Y0093169D01*
X0219111Y0091356D01*
X0219600Y0090867D01*
X0219600Y0068658D01*
X0219111Y0068169D01*
X0219111Y0066356D01*
X0219393Y0066074D01*
X0183979Y0066074D01*
X0134197Y0115856D01*
X0133201Y0116851D01*
X0119912Y0116851D01*
X0137322Y0130735D01*
X0137694Y0130363D01*
X0139385Y0129663D01*
X0141215Y0129663D01*
X0142906Y0130363D01*
X0144200Y0131657D01*
X0144900Y0133348D01*
X0144900Y0135178D01*
X0144401Y0136381D01*
X0145167Y0136992D01*
X0151596Y0130563D01*
X0181525Y0130563D01*
X0181900Y0129657D01*
X0183194Y0128363D01*
X0184885Y0127663D01*
X0186715Y0127663D01*
X0188406Y0128363D01*
X0189700Y0129657D01*
X0190400Y0131348D01*
X0190400Y0133178D01*
X0190241Y0133563D01*
X0230025Y0133563D01*
X0230400Y0132657D01*
X0231195Y0131863D01*
X0192996Y0131863D01*
X0192000Y0130867D01*
X0187621Y0126487D01*
X0186715Y0126863D01*
X0184885Y0126863D01*
X0183194Y0126162D01*
X0181900Y0124868D01*
X0181200Y0123178D01*
X0181200Y0121348D01*
X0181900Y0119657D01*
X0183194Y0118363D01*
X0184885Y0117663D01*
X0186715Y0117663D01*
X0188406Y0118363D01*
X0189700Y0119657D01*
X0190400Y0121348D01*
X0190400Y0123178D01*
X0190025Y0124083D01*
X0194404Y0128463D01*
X0237117Y0128463D01*
X0237760Y0129106D01*
X0248038Y0129106D01*
X0248038Y0128858D01*
X0248565Y0128331D01*
X0252338Y0128331D01*
X0250201Y0126194D01*
X0248565Y0126194D01*
X0248038Y0125667D01*
X0248038Y0121772D01*
X0248565Y0121244D01*
X0249600Y0121244D01*
X0249600Y0108658D01*
X0249111Y0108169D01*
X0249111Y0106356D01*
X0250393Y0105074D01*
X0252207Y0105074D01*
X0253489Y0106356D01*
X0253489Y0108169D01*
X0253000Y0108658D01*
X0253000Y0121244D01*
X0254035Y0121244D01*
X0254562Y0121772D01*
X0254562Y0125667D01*
X0254522Y0125707D01*
X0255766Y0126951D01*
X0256762Y0127947D01*
X0256762Y0135321D01*
X0266515Y0145074D01*
X0267207Y0145074D01*
X0268489Y0146356D01*
X0268489Y0148169D01*
X0267207Y0149451D01*
X0265393Y0149451D01*
X0264111Y0148169D01*
X0264111Y0147478D01*
X0254358Y0137725D01*
X0253362Y0136729D01*
X0253362Y0133281D01*
X0248565Y0133281D01*
X0248038Y0132753D01*
X0248038Y0132506D01*
X0238049Y0132506D01*
X0238200Y0132657D01*
X0238900Y0134348D01*
X0238900Y0136178D01*
X0238525Y0137083D01*
X0268686Y0167245D01*
X0268885Y0167163D01*
X0270715Y0167163D01*
X0272406Y0167863D01*
X0273700Y0169157D01*
X0274400Y0170848D01*
X0274400Y0172678D01*
X0273700Y0174368D01*
X0272406Y0175662D01*
X0270715Y0176363D01*
X0268885Y0176363D01*
X0267194Y0175662D01*
X0265900Y0174368D01*
X0265200Y0172678D01*
X0265200Y0170848D01*
X0265868Y0169235D01*
X0236121Y0139487D01*
X0235215Y0139863D01*
X0233385Y0139863D01*
X0231694Y0139162D01*
X0230400Y0137868D01*
X0230025Y0136963D01*
X0188096Y0136963D01*
X0187621Y0136487D01*
X0186715Y0136863D01*
X0184885Y0136863D01*
X0183194Y0136162D01*
X0181900Y0134868D01*
X0181525Y0133963D01*
X0153004Y0133963D01*
X0147842Y0139125D01*
X0177991Y0163168D01*
X0182075Y0159083D01*
X0181700Y0158178D01*
X0181700Y0156348D01*
X0182400Y0154657D01*
X0183694Y0153363D01*
X0185385Y0152663D01*
X0187215Y0152663D01*
X0188906Y0153363D01*
X0190200Y0154657D01*
X0190900Y0156348D01*
X0190900Y0158178D01*
X0190616Y0158863D01*
X0212561Y0158863D01*
X0213557Y0159858D01*
X0216307Y0162609D01*
X0217385Y0162163D01*
X0219215Y0162163D01*
X0220906Y0162863D01*
X0222200Y0164157D01*
X0222900Y0165848D01*
X0222900Y0167678D01*
X0222525Y0168583D01*
X0238686Y0184745D01*
X0238885Y0184663D01*
X0240715Y0184663D01*
X0242406Y0185363D01*
X0243700Y0186657D01*
X0244400Y0188348D01*
X0244400Y0190178D01*
X0243700Y0191868D01*
X0242406Y0193162D01*
X0240715Y0193863D01*
X0238885Y0193863D01*
X0237194Y0193162D01*
X0235900Y0191868D01*
X0235200Y0190178D01*
X0235200Y0188348D01*
X0235868Y0186735D01*
X0220121Y0170987D01*
X0219215Y0171363D01*
X0217385Y0171363D01*
X0215694Y0170662D01*
X0214400Y0169368D01*
X0213700Y0167678D01*
X0213700Y0165848D01*
X0214004Y0165114D01*
X0211153Y0162263D01*
X0188896Y0162263D01*
X0188121Y0161487D01*
X0187215Y0161863D01*
X0185385Y0161863D01*
X0184479Y0161487D01*
X0180666Y0165301D01*
X0180994Y0165563D01*
X0182025Y0165563D01*
X0182400Y0164657D01*
X0183694Y0163363D01*
X0185385Y0162663D01*
X0187215Y0162663D01*
X0188906Y0163363D01*
X0190200Y0164657D01*
X0190900Y0166348D01*
X0190900Y0168178D01*
X0190525Y0169083D01*
X0196504Y0175063D01*
X0214025Y0175063D01*
X0214400Y0174157D01*
X0215694Y0172863D01*
X0217385Y0172163D01*
X0219215Y0172163D01*
X0220906Y0172863D01*
X0222200Y0174157D01*
X0222900Y0175848D01*
X0222900Y0177678D01*
X0222525Y0178583D01*
X0238686Y0194745D01*
X0238885Y0194663D01*
X0240715Y0194663D01*
X0242406Y0195363D01*
X0243700Y0196657D01*
X0244400Y0198348D01*
X0244400Y0200178D01*
X0244025Y0201083D01*
X0247004Y0204063D01*
X0247004Y0204063D01*
X0248000Y0205058D01*
X0248000Y0212988D01*
X0248906Y0213363D01*
X0250200Y0214657D01*
X0250900Y0216348D01*
X0250900Y0218178D01*
X0250200Y0219868D01*
X0249708Y0220360D01*
X0268100Y0235027D01*
X0268100Y0228558D01*
X0277575Y0219083D01*
X0277200Y0218178D01*
X0277200Y0216348D01*
X0277900Y0214657D01*
X0279194Y0213363D01*
X0280100Y0212988D01*
X0280100Y0194467D01*
X0271621Y0185987D01*
X0270715Y0186363D01*
X0268885Y0186363D01*
X0267194Y0185662D01*
X0265900Y0184368D01*
X0265200Y0182678D01*
X0265200Y0180848D01*
X0265868Y0179235D01*
X0236121Y0149487D01*
X0235215Y0149863D01*
X0233385Y0149863D01*
X0231694Y0149162D01*
X0230400Y0147868D01*
X0229700Y0146178D01*
X0229700Y0144348D01*
X0230400Y0142657D01*
X0231694Y0141363D01*
X0233385Y0140663D01*
X0235215Y0140663D01*
X0236906Y0141363D01*
X0238200Y0142657D01*
X0238900Y0144348D01*
X0238900Y0146178D01*
X0238525Y0147083D01*
X0268686Y0177245D01*
X0268885Y0177163D01*
X0270715Y0177163D01*
X0272406Y0177863D01*
X0273700Y0179157D01*
X0274400Y0180848D01*
X0274400Y0182678D01*
X0274025Y0183583D01*
X0283500Y0193058D01*
X0283500Y0212988D01*
X0284406Y0213363D01*
X0285700Y0214657D01*
X0286400Y0216348D01*
X0286400Y0218178D01*
X0285700Y0219868D01*
X0284406Y0221162D01*
X0282715Y0221863D01*
X0280885Y0221863D01*
X0279979Y0221487D01*
X0271500Y0229967D01*
X0271500Y0237738D01*
X0317250Y0274223D01*
X0317250Y0268740D01*
X0317777Y0268213D01*
X0324823Y0268213D01*
X0325350Y0268740D01*
X0325350Y0270563D01*
X0343731Y0270563D01*
X0346384Y0267116D01*
X0346384Y0258858D01*
X0346911Y0258331D01*
X0355925Y0258331D01*
X0356452Y0258858D01*
X0356452Y0267872D01*
X0355925Y0268399D01*
X0349688Y0268399D01*
X0346268Y0272841D01*
X0346268Y0272967D01*
X0345848Y0273387D01*
X0345485Y0273858D01*
X0345361Y0273874D01*
X0345272Y0273963D01*
X0344678Y0273963D01*
X0344089Y0274039D01*
X0343989Y0273963D01*
X0325350Y0273963D01*
X0325350Y0275785D01*
X0324823Y0276313D01*
X0319871Y0276313D01*
X0372061Y0317933D01*
X0372471Y0316943D01*
X0374721Y0314693D01*
X0374721Y0314693D01*
X0377661Y0313475D01*
X0380844Y0313475D01*
X0383784Y0314693D01*
X0383784Y0314693D01*
X0386035Y0316943D01*
X0387253Y0319884D01*
X0387253Y0323066D01*
X0386035Y0326007D01*
X0384327Y0327714D01*
X0393701Y0335190D01*
X0393701Y0023563D01*
X0002930Y0023563D01*
X0017129Y0034886D01*
X0019394Y0033948D01*
X0022576Y0033948D01*
X0025517Y0035165D01*
X0024710Y0034831D02*
X0371591Y0034831D01*
X0370784Y0035165D02*
X0373724Y0033948D01*
X0375026Y0033948D01*
X0376907Y0033948D01*
X0379847Y0035165D01*
X0382098Y0037416D01*
X0383316Y0040356D01*
X0383316Y0043539D01*
X0382098Y0046479D01*
X0379847Y0048730D01*
X0376907Y0049948D01*
X0373724Y0049948D01*
X0370784Y0048730D01*
X0370784Y0048730D01*
X0368534Y0046479D01*
X0368534Y0046479D01*
X0367316Y0043539D01*
X0367316Y0040356D01*
X0368534Y0037416D01*
X0370784Y0035166D01*
X0370784Y0035165D01*
X0370784Y0035165D01*
X0370520Y0035430D02*
X0277563Y0035430D01*
X0278161Y0036028D02*
X0317361Y0036028D01*
X0317250Y0036140D02*
X0317777Y0035613D01*
X0324823Y0035613D01*
X0325350Y0036140D01*
X0325350Y0043185D01*
X0324823Y0043713D01*
X0317777Y0043713D01*
X0317250Y0043185D01*
X0317250Y0036140D01*
X0317250Y0036627D02*
X0278489Y0036627D01*
X0278489Y0037225D02*
X0317250Y0037225D01*
X0317250Y0037824D02*
X0278489Y0037824D01*
X0278236Y0038422D02*
X0317250Y0038422D01*
X0317250Y0039021D02*
X0278000Y0039021D01*
X0278000Y0039619D02*
X0317250Y0039619D01*
X0317250Y0040218D02*
X0278000Y0040218D01*
X0278000Y0040816D02*
X0317250Y0040816D01*
X0317250Y0041415D02*
X0278000Y0041415D01*
X0278000Y0042013D02*
X0317250Y0042013D01*
X0317250Y0042612D02*
X0278000Y0042612D01*
X0278000Y0043210D02*
X0317275Y0043210D01*
X0317777Y0048213D02*
X0324823Y0048213D01*
X0325350Y0048740D01*
X0325350Y0055785D01*
X0324823Y0056313D01*
X0317777Y0056313D01*
X0317250Y0055785D01*
X0317250Y0048740D01*
X0317777Y0048213D01*
X0317393Y0048597D02*
X0278000Y0048597D01*
X0278000Y0047999D02*
X0370053Y0047999D01*
X0370652Y0048597D02*
X0325207Y0048597D01*
X0325350Y0049196D02*
X0371909Y0049196D01*
X0373354Y0049794D02*
X0325350Y0049794D01*
X0325350Y0050393D02*
X0393701Y0050393D01*
X0393701Y0050991D02*
X0325350Y0050991D01*
X0325350Y0051590D02*
X0393701Y0051590D01*
X0393701Y0052188D02*
X0325350Y0052188D01*
X0325350Y0052787D02*
X0393701Y0052787D01*
X0393701Y0053385D02*
X0325350Y0053385D01*
X0325350Y0053984D02*
X0393701Y0053984D01*
X0393701Y0054582D02*
X0325350Y0054582D01*
X0325350Y0055181D02*
X0393701Y0055181D01*
X0393701Y0055779D02*
X0325350Y0055779D01*
X0325176Y0061166D02*
X0393701Y0061166D01*
X0393701Y0061764D02*
X0325350Y0061764D01*
X0325350Y0062363D02*
X0393701Y0062363D01*
X0393701Y0062961D02*
X0325350Y0062961D01*
X0325350Y0063560D02*
X0393701Y0063560D01*
X0393701Y0064158D02*
X0325350Y0064158D01*
X0325350Y0064757D02*
X0393701Y0064757D01*
X0393701Y0065355D02*
X0325350Y0065355D01*
X0325350Y0065954D02*
X0393701Y0065954D01*
X0393701Y0066552D02*
X0325350Y0066552D01*
X0325350Y0067151D02*
X0393701Y0067151D01*
X0393701Y0067749D02*
X0325350Y0067749D01*
X0325350Y0068348D02*
X0393701Y0068348D01*
X0393701Y0068946D02*
X0223000Y0068946D01*
X0223000Y0069545D02*
X0393701Y0069545D01*
X0393701Y0070143D02*
X0223000Y0070143D01*
X0223000Y0070742D02*
X0393701Y0070742D01*
X0393701Y0071340D02*
X0223000Y0071340D01*
X0223000Y0071939D02*
X0393701Y0071939D01*
X0393701Y0072537D02*
X0223000Y0072537D01*
X0223000Y0073136D02*
X0393701Y0073136D01*
X0393701Y0073734D02*
X0223000Y0073734D01*
X0223000Y0074333D02*
X0393701Y0074333D01*
X0393701Y0074932D02*
X0223000Y0074932D01*
X0223000Y0075530D02*
X0393701Y0075530D01*
X0393701Y0076129D02*
X0223000Y0076129D01*
X0223000Y0076727D02*
X0346823Y0076727D01*
X0346911Y0076638D02*
X0355925Y0076638D01*
X0356452Y0077165D01*
X0356452Y0086179D01*
X0355925Y0086706D01*
X0346911Y0086706D01*
X0346384Y0086179D01*
X0346384Y0077165D01*
X0346911Y0076638D01*
X0346384Y0077326D02*
X0223000Y0077326D01*
X0223000Y0077924D02*
X0346384Y0077924D01*
X0346384Y0078523D02*
X0223000Y0078523D01*
X0223000Y0079121D02*
X0346384Y0079121D01*
X0346384Y0079720D02*
X0223000Y0079720D01*
X0223000Y0080318D02*
X0346384Y0080318D01*
X0346384Y0080917D02*
X0223000Y0080917D01*
X0223000Y0081515D02*
X0346384Y0081515D01*
X0346384Y0082114D02*
X0223000Y0082114D01*
X0223000Y0082712D02*
X0346384Y0082712D01*
X0346384Y0083311D02*
X0223000Y0083311D01*
X0223000Y0083909D02*
X0346384Y0083909D01*
X0346384Y0084508D02*
X0223000Y0084508D01*
X0223000Y0085106D02*
X0346384Y0085106D01*
X0346384Y0085705D02*
X0223000Y0085705D01*
X0223000Y0086303D02*
X0346509Y0086303D01*
X0356327Y0086303D02*
X0376908Y0086303D01*
X0378353Y0085705D02*
X0356452Y0085705D01*
X0356452Y0085106D02*
X0393701Y0085106D01*
X0393701Y0084508D02*
X0356452Y0084508D01*
X0356452Y0083909D02*
X0393701Y0083909D01*
X0393701Y0083311D02*
X0356452Y0083311D01*
X0356452Y0082712D02*
X0393701Y0082712D01*
X0393701Y0082114D02*
X0356452Y0082114D01*
X0356452Y0081515D02*
X0393701Y0081515D01*
X0393701Y0080917D02*
X0356452Y0080917D01*
X0356452Y0080318D02*
X0393701Y0080318D01*
X0393701Y0079720D02*
X0356452Y0079720D01*
X0356452Y0079121D02*
X0393701Y0079121D01*
X0393701Y0078523D02*
X0356452Y0078523D01*
X0356452Y0077924D02*
X0393701Y0077924D01*
X0393701Y0077326D02*
X0356452Y0077326D01*
X0356014Y0076727D02*
X0393701Y0076727D01*
X0393701Y0085705D02*
X0382279Y0085705D01*
X0382141Y0085648D02*
X0385512Y0087044D01*
X0388093Y0089625D01*
X0389490Y0092997D01*
X0389490Y0096646D01*
X0388093Y0100018D01*
X0385512Y0102599D01*
X0382141Y0103996D01*
X0378491Y0103996D01*
X0375119Y0102599D01*
X0372538Y0100018D01*
X0371142Y0096646D01*
X0371142Y0092997D01*
X0372538Y0089625D01*
X0375119Y0087044D01*
X0378491Y0085648D01*
X0382141Y0085648D01*
X0383723Y0086303D02*
X0393701Y0086303D01*
X0393701Y0086902D02*
X0385168Y0086902D01*
X0385968Y0087500D02*
X0393701Y0087500D01*
X0393701Y0088099D02*
X0386567Y0088099D01*
X0387165Y0088697D02*
X0393701Y0088697D01*
X0393701Y0089296D02*
X0387764Y0089296D01*
X0388205Y0089894D02*
X0393701Y0089894D01*
X0393701Y0090493D02*
X0388453Y0090493D01*
X0388701Y0091091D02*
X0393701Y0091091D01*
X0393701Y0091690D02*
X0388948Y0091690D01*
X0389196Y0092288D02*
X0393701Y0092288D01*
X0393701Y0092887D02*
X0389444Y0092887D01*
X0389490Y0093485D02*
X0393701Y0093485D01*
X0393701Y0094084D02*
X0389490Y0094084D01*
X0389490Y0094682D02*
X0393701Y0094682D01*
X0393701Y0095281D02*
X0389490Y0095281D01*
X0389490Y0095879D02*
X0393701Y0095879D01*
X0393701Y0096478D02*
X0389490Y0096478D01*
X0389312Y0097076D02*
X0393701Y0097076D01*
X0393701Y0097675D02*
X0389064Y0097675D01*
X0388816Y0098273D02*
X0393701Y0098273D01*
X0393701Y0098872D02*
X0388568Y0098872D01*
X0388320Y0099470D02*
X0393701Y0099470D01*
X0393701Y0100069D02*
X0388042Y0100069D01*
X0387444Y0100668D02*
X0393701Y0100668D01*
X0393701Y0101266D02*
X0386845Y0101266D01*
X0386247Y0101865D02*
X0393701Y0101865D01*
X0393701Y0102463D02*
X0385648Y0102463D01*
X0384396Y0103062D02*
X0393701Y0103062D01*
X0393701Y0103660D02*
X0382951Y0103660D01*
X0377681Y0103660D02*
X0356850Y0103660D01*
X0356852Y0103666D02*
X0356852Y0107671D01*
X0351718Y0107671D01*
X0351718Y0102537D01*
X0355723Y0102537D01*
X0356054Y0102626D01*
X0356350Y0102797D01*
X0356592Y0103039D01*
X0356763Y0103336D01*
X0356852Y0103666D01*
X0356852Y0104259D02*
X0393701Y0104259D01*
X0393701Y0104857D02*
X0356852Y0104857D01*
X0356852Y0105456D02*
X0393701Y0105456D01*
X0393701Y0106054D02*
X0356852Y0106054D01*
X0356852Y0106653D02*
X0393701Y0106653D01*
X0393701Y0107251D02*
X0356852Y0107251D01*
X0356852Y0108271D02*
X0356852Y0112276D01*
X0356763Y0112607D01*
X0356592Y0112903D01*
X0356350Y0113145D01*
X0356054Y0113316D01*
X0355723Y0113405D01*
X0351718Y0113405D01*
X0351718Y0108271D01*
X0356852Y0108271D01*
X0356852Y0108448D02*
X0393701Y0108448D01*
X0393701Y0107850D02*
X0351718Y0107850D01*
X0351718Y0107671D02*
X0351718Y0108271D01*
X0351118Y0108271D01*
X0351118Y0107671D01*
X0351718Y0107671D01*
X0351718Y0107251D02*
X0351118Y0107251D01*
X0351118Y0107671D02*
X0351118Y0102537D01*
X0347113Y0102537D01*
X0346782Y0102626D01*
X0346486Y0102797D01*
X0346244Y0103039D01*
X0346073Y0103336D01*
X0345984Y0103666D01*
X0345984Y0107671D01*
X0351118Y0107671D01*
X0351118Y0107850D02*
X0273000Y0107850D01*
X0273000Y0108448D02*
X0345984Y0108448D01*
X0345984Y0108271D02*
X0345984Y0112276D01*
X0346073Y0112607D01*
X0346244Y0112903D01*
X0346486Y0113145D01*
X0346782Y0113316D01*
X0347113Y0113405D01*
X0351118Y0113405D01*
X0351118Y0108271D01*
X0345984Y0108271D01*
X0345984Y0109047D02*
X0273000Y0109047D01*
X0273000Y0109645D02*
X0345984Y0109645D01*
X0345984Y0110244D02*
X0273000Y0110244D01*
X0273000Y0110842D02*
X0345984Y0110842D01*
X0345984Y0111441D02*
X0273489Y0111441D01*
X0273489Y0111356D02*
X0273489Y0113169D01*
X0273000Y0113658D01*
X0273000Y0141558D01*
X0322004Y0190563D01*
X0323000Y0191558D01*
X0323000Y0255613D01*
X0324823Y0255613D01*
X0325350Y0256140D01*
X0325350Y0263185D01*
X0324823Y0263713D01*
X0317777Y0263713D01*
X0317250Y0263185D01*
X0317250Y0256140D01*
X0317777Y0255613D01*
X0319600Y0255613D01*
X0319600Y0192967D01*
X0269600Y0142967D01*
X0269600Y0113658D01*
X0269111Y0113169D01*
X0269111Y0111356D01*
X0269600Y0110867D01*
X0269600Y0098658D01*
X0269111Y0098169D01*
X0269111Y0096356D01*
X0270393Y0095074D01*
X0272207Y0095074D01*
X0273489Y0096356D01*
X0273489Y0098169D01*
X0273000Y0098658D01*
X0273000Y0110867D01*
X0273489Y0111356D01*
X0273489Y0112039D02*
X0345984Y0112039D01*
X0346091Y0112638D02*
X0273489Y0112638D01*
X0273422Y0113236D02*
X0346644Y0113236D01*
X0351118Y0113236D02*
X0351718Y0113236D01*
X0351718Y0112638D02*
X0351118Y0112638D01*
X0351118Y0112039D02*
X0351718Y0112039D01*
X0351718Y0111441D02*
X0351118Y0111441D01*
X0351118Y0110842D02*
X0351718Y0110842D01*
X0351718Y0110244D02*
X0351118Y0110244D01*
X0351118Y0109645D02*
X0351718Y0109645D01*
X0351718Y0109047D02*
X0351118Y0109047D01*
X0351118Y0108448D02*
X0351718Y0108448D01*
X0351718Y0106653D02*
X0351118Y0106653D01*
X0351118Y0106054D02*
X0351718Y0106054D01*
X0351718Y0105456D02*
X0351118Y0105456D01*
X0351118Y0104857D02*
X0351718Y0104857D01*
X0351718Y0104259D02*
X0351118Y0104259D01*
X0351118Y0103660D02*
X0351718Y0103660D01*
X0351718Y0103062D02*
X0351118Y0103062D01*
X0346231Y0103062D02*
X0273000Y0103062D01*
X0273000Y0103660D02*
X0345986Y0103660D01*
X0345984Y0104259D02*
X0273000Y0104259D01*
X0273000Y0104857D02*
X0345984Y0104857D01*
X0345984Y0105456D02*
X0273000Y0105456D01*
X0273000Y0106054D02*
X0345984Y0106054D01*
X0345984Y0106653D02*
X0273000Y0106653D01*
X0273000Y0107251D02*
X0345984Y0107251D01*
X0356852Y0109047D02*
X0393701Y0109047D01*
X0393701Y0109645D02*
X0356852Y0109645D01*
X0356852Y0110244D02*
X0393701Y0110244D01*
X0393701Y0110842D02*
X0356852Y0110842D01*
X0356852Y0111441D02*
X0393701Y0111441D01*
X0393701Y0112039D02*
X0356852Y0112039D01*
X0356746Y0112638D02*
X0393701Y0112638D01*
X0393701Y0113236D02*
X0356193Y0113236D01*
X0356605Y0103062D02*
X0376236Y0103062D01*
X0374983Y0102463D02*
X0273000Y0102463D01*
X0273000Y0101865D02*
X0374385Y0101865D01*
X0373786Y0101266D02*
X0273000Y0101266D01*
X0273000Y0100668D02*
X0373188Y0100668D01*
X0372589Y0100069D02*
X0273000Y0100069D01*
X0273000Y0099470D02*
X0372312Y0099470D01*
X0372064Y0098872D02*
X0273000Y0098872D01*
X0273385Y0098273D02*
X0371816Y0098273D01*
X0371568Y0097675D02*
X0273489Y0097675D01*
X0273489Y0097076D02*
X0371320Y0097076D01*
X0371142Y0096478D02*
X0273489Y0096478D01*
X0273013Y0095879D02*
X0371142Y0095879D01*
X0371142Y0095281D02*
X0272414Y0095281D01*
X0270186Y0095281D02*
X0236755Y0095281D01*
X0237083Y0094952D02*
X0235033Y0097003D01*
X0232134Y0097003D01*
X0230083Y0094952D01*
X0230083Y0092053D01*
X0232134Y0090003D01*
X0235033Y0090003D01*
X0237083Y0092053D01*
X0237083Y0094952D01*
X0237083Y0094682D02*
X0371142Y0094682D01*
X0371142Y0094084D02*
X0237083Y0094084D01*
X0237083Y0093485D02*
X0371142Y0093485D01*
X0371187Y0092887D02*
X0237083Y0092887D01*
X0237083Y0092288D02*
X0371435Y0092288D01*
X0371683Y0091690D02*
X0236720Y0091690D01*
X0236122Y0091091D02*
X0371931Y0091091D01*
X0372179Y0090493D02*
X0235523Y0090493D01*
X0231644Y0090493D02*
X0223000Y0090493D01*
X0223000Y0089894D02*
X0372427Y0089894D01*
X0372868Y0089296D02*
X0223000Y0089296D01*
X0223000Y0088697D02*
X0373466Y0088697D01*
X0374065Y0088099D02*
X0223000Y0088099D01*
X0223000Y0087500D02*
X0374663Y0087500D01*
X0375463Y0086902D02*
X0223000Y0086902D01*
X0219600Y0086902D02*
X0163151Y0086902D01*
X0163749Y0086303D02*
X0219600Y0086303D01*
X0219600Y0085705D02*
X0164348Y0085705D01*
X0164946Y0085106D02*
X0219600Y0085106D01*
X0219600Y0084508D02*
X0165545Y0084508D01*
X0166143Y0083909D02*
X0219600Y0083909D01*
X0219600Y0083311D02*
X0166742Y0083311D01*
X0167340Y0082712D02*
X0219600Y0082712D01*
X0219600Y0082114D02*
X0167939Y0082114D01*
X0168537Y0081515D02*
X0219600Y0081515D01*
X0219600Y0080917D02*
X0169136Y0080917D01*
X0169734Y0080318D02*
X0219600Y0080318D01*
X0219600Y0079720D02*
X0170333Y0079720D01*
X0170931Y0079121D02*
X0219600Y0079121D01*
X0219600Y0078523D02*
X0171530Y0078523D01*
X0172128Y0077924D02*
X0219600Y0077924D01*
X0219600Y0077326D02*
X0172727Y0077326D01*
X0173325Y0076727D02*
X0219600Y0076727D01*
X0219600Y0076129D02*
X0173924Y0076129D01*
X0174522Y0075530D02*
X0219600Y0075530D01*
X0219600Y0074932D02*
X0175121Y0074932D01*
X0175719Y0074333D02*
X0219600Y0074333D01*
X0219600Y0073734D02*
X0176318Y0073734D01*
X0176916Y0073136D02*
X0219600Y0073136D01*
X0219600Y0072537D02*
X0177515Y0072537D01*
X0178113Y0071939D02*
X0219600Y0071939D01*
X0219600Y0071340D02*
X0178712Y0071340D01*
X0179310Y0070742D02*
X0219600Y0070742D01*
X0219600Y0070143D02*
X0179909Y0070143D01*
X0180507Y0069545D02*
X0219600Y0069545D01*
X0219600Y0068946D02*
X0181106Y0068946D01*
X0181704Y0068348D02*
X0219290Y0068348D01*
X0219111Y0067749D02*
X0182303Y0067749D01*
X0182901Y0067151D02*
X0219111Y0067151D01*
X0219111Y0066552D02*
X0183500Y0066552D01*
X0181086Y0064158D02*
X0098000Y0064158D01*
X0098000Y0064757D02*
X0180487Y0064757D01*
X0179889Y0065355D02*
X0098000Y0065355D01*
X0098000Y0065954D02*
X0179290Y0065954D01*
X0178692Y0066552D02*
X0098000Y0066552D01*
X0098000Y0067151D02*
X0178093Y0067151D01*
X0177495Y0067749D02*
X0098000Y0067749D01*
X0098000Y0068348D02*
X0176896Y0068348D01*
X0176298Y0068946D02*
X0098000Y0068946D01*
X0098000Y0069545D02*
X0175699Y0069545D01*
X0175101Y0070143D02*
X0098000Y0070143D01*
X0098000Y0070742D02*
X0174502Y0070742D01*
X0173904Y0071340D02*
X0098000Y0071340D01*
X0098000Y0071939D02*
X0173305Y0071939D01*
X0172707Y0072537D02*
X0098000Y0072537D01*
X0098000Y0073136D02*
X0172108Y0073136D01*
X0171509Y0073734D02*
X0098000Y0073734D01*
X0098000Y0074333D02*
X0170911Y0074333D01*
X0170312Y0074932D02*
X0098000Y0074932D01*
X0098000Y0075530D02*
X0169714Y0075530D01*
X0169115Y0076129D02*
X0098000Y0076129D01*
X0098000Y0076727D02*
X0168517Y0076727D01*
X0167918Y0077326D02*
X0098000Y0077326D01*
X0098000Y0077924D02*
X0167320Y0077924D01*
X0166721Y0078523D02*
X0098000Y0078523D01*
X0098000Y0079121D02*
X0166123Y0079121D01*
X0165524Y0079720D02*
X0136656Y0079720D01*
X0137254Y0080318D02*
X0164926Y0080318D01*
X0164327Y0080917D02*
X0137347Y0080917D01*
X0137347Y0081515D02*
X0163729Y0081515D01*
X0163130Y0082114D02*
X0137347Y0082114D01*
X0136859Y0082712D02*
X0162532Y0082712D01*
X0161933Y0083311D02*
X0136261Y0083311D01*
X0134971Y0083909D02*
X0161335Y0083909D01*
X0160736Y0084508D02*
X0134372Y0084508D01*
X0133774Y0085106D02*
X0160138Y0085106D01*
X0159539Y0085705D02*
X0133175Y0085705D01*
X0132577Y0086303D02*
X0158941Y0086303D01*
X0158342Y0086902D02*
X0131978Y0086902D01*
X0131380Y0087500D02*
X0157744Y0087500D01*
X0157145Y0088099D02*
X0130781Y0088099D01*
X0130183Y0088697D02*
X0156547Y0088697D01*
X0155948Y0089296D02*
X0129584Y0089296D01*
X0128986Y0089894D02*
X0155350Y0089894D01*
X0154751Y0090493D02*
X0128387Y0090493D01*
X0127789Y0091091D02*
X0154153Y0091091D01*
X0153554Y0091690D02*
X0127190Y0091690D01*
X0126592Y0092288D02*
X0152956Y0092288D01*
X0152357Y0092887D02*
X0125993Y0092887D01*
X0125395Y0093485D02*
X0151759Y0093485D01*
X0151160Y0094084D02*
X0124796Y0094084D01*
X0124198Y0094682D02*
X0150562Y0094682D01*
X0149963Y0095281D02*
X0132414Y0095281D01*
X0133013Y0095879D02*
X0149365Y0095879D01*
X0148766Y0096478D02*
X0133489Y0096478D01*
X0133489Y0097076D02*
X0148168Y0097076D01*
X0147569Y0097675D02*
X0133489Y0097675D01*
X0133385Y0098273D02*
X0146971Y0098273D01*
X0146372Y0098872D02*
X0133000Y0098872D01*
X0133000Y0099470D02*
X0145773Y0099470D01*
X0145175Y0100069D02*
X0133000Y0100069D01*
X0133000Y0100668D02*
X0144576Y0100668D01*
X0143978Y0101266D02*
X0133000Y0101266D01*
X0133000Y0101865D02*
X0143379Y0101865D01*
X0142781Y0102463D02*
X0133000Y0102463D01*
X0133000Y0103062D02*
X0142182Y0103062D01*
X0141584Y0103660D02*
X0133000Y0103660D01*
X0133000Y0104259D02*
X0140985Y0104259D01*
X0140387Y0104857D02*
X0133000Y0104857D01*
X0133000Y0105456D02*
X0139788Y0105456D01*
X0139190Y0106054D02*
X0133000Y0106054D01*
X0133000Y0106653D02*
X0138591Y0106653D01*
X0137993Y0107251D02*
X0133000Y0107251D01*
X0133000Y0107850D02*
X0137394Y0107850D01*
X0136796Y0108448D02*
X0133000Y0108448D01*
X0133000Y0109047D02*
X0136197Y0109047D01*
X0135599Y0109645D02*
X0133000Y0109645D01*
X0133000Y0110244D02*
X0135000Y0110244D01*
X0134402Y0110842D02*
X0133000Y0110842D01*
X0133489Y0111441D02*
X0133803Y0111441D01*
X0136218Y0113835D02*
X0249600Y0113835D01*
X0249600Y0114433D02*
X0135619Y0114433D01*
X0135021Y0115032D02*
X0249600Y0115032D01*
X0249600Y0115630D02*
X0134422Y0115630D01*
X0134197Y0115856D02*
X0134197Y0115856D01*
X0133823Y0116229D02*
X0249600Y0116229D01*
X0249600Y0116827D02*
X0133225Y0116827D01*
X0136816Y0113236D02*
X0249600Y0113236D01*
X0249600Y0112638D02*
X0137415Y0112638D01*
X0138013Y0112039D02*
X0249600Y0112039D01*
X0249600Y0111441D02*
X0138612Y0111441D01*
X0139210Y0110842D02*
X0249600Y0110842D01*
X0249600Y0110244D02*
X0139809Y0110244D01*
X0140407Y0109645D02*
X0249600Y0109645D01*
X0249600Y0109047D02*
X0141006Y0109047D01*
X0141604Y0108448D02*
X0249390Y0108448D01*
X0249111Y0107850D02*
X0142203Y0107850D01*
X0142801Y0107251D02*
X0249111Y0107251D01*
X0249111Y0106653D02*
X0143400Y0106653D01*
X0143998Y0106054D02*
X0249413Y0106054D01*
X0250011Y0105456D02*
X0144597Y0105456D01*
X0145195Y0104857D02*
X0269600Y0104857D01*
X0269600Y0104259D02*
X0240277Y0104259D01*
X0240033Y0104503D02*
X0237134Y0104503D01*
X0235083Y0102452D01*
X0235083Y0099553D01*
X0237134Y0097503D01*
X0240033Y0097503D01*
X0242083Y0099553D01*
X0242083Y0102452D01*
X0240033Y0104503D01*
X0240876Y0103660D02*
X0269600Y0103660D01*
X0269600Y0103062D02*
X0241474Y0103062D01*
X0242073Y0102463D02*
X0269600Y0102463D01*
X0269600Y0101865D02*
X0242083Y0101865D01*
X0242083Y0101266D02*
X0269600Y0101266D01*
X0269600Y0100668D02*
X0242083Y0100668D01*
X0242083Y0100069D02*
X0269600Y0100069D01*
X0269600Y0099470D02*
X0242001Y0099470D01*
X0241402Y0098872D02*
X0269600Y0098872D01*
X0269215Y0098273D02*
X0240804Y0098273D01*
X0240205Y0097675D02*
X0269111Y0097675D01*
X0269111Y0097076D02*
X0152976Y0097076D01*
X0153574Y0096478D02*
X0231609Y0096478D01*
X0231010Y0095879D02*
X0154173Y0095879D01*
X0154771Y0095281D02*
X0230412Y0095281D01*
X0230083Y0094682D02*
X0155370Y0094682D01*
X0155968Y0094084D02*
X0220026Y0094084D01*
X0219427Y0093485D02*
X0156567Y0093485D01*
X0157165Y0092887D02*
X0219111Y0092887D01*
X0219111Y0092288D02*
X0157764Y0092288D01*
X0158362Y0091690D02*
X0219111Y0091690D01*
X0219376Y0091091D02*
X0158961Y0091091D01*
X0159559Y0090493D02*
X0219600Y0090493D01*
X0219600Y0089894D02*
X0160158Y0089894D01*
X0160757Y0089296D02*
X0219600Y0089296D01*
X0219600Y0088697D02*
X0161355Y0088697D01*
X0161954Y0088099D02*
X0219600Y0088099D01*
X0219600Y0087500D02*
X0162552Y0087500D01*
X0152377Y0097675D02*
X0226961Y0097675D01*
X0227134Y0097503D02*
X0230033Y0097503D01*
X0232083Y0099553D01*
X0232083Y0102452D01*
X0230033Y0104503D01*
X0227134Y0104503D01*
X0225083Y0102452D01*
X0225083Y0099553D01*
X0227134Y0097503D01*
X0226363Y0098273D02*
X0151779Y0098273D01*
X0151180Y0098872D02*
X0225764Y0098872D01*
X0225166Y0099470D02*
X0150582Y0099470D01*
X0149983Y0100069D02*
X0225083Y0100069D01*
X0225083Y0100668D02*
X0149385Y0100668D01*
X0148786Y0101266D02*
X0225083Y0101266D01*
X0225083Y0101865D02*
X0148188Y0101865D01*
X0147589Y0102463D02*
X0225094Y0102463D01*
X0225693Y0103062D02*
X0146991Y0103062D01*
X0146392Y0103660D02*
X0226291Y0103660D01*
X0226890Y0104259D02*
X0145794Y0104259D01*
X0130186Y0095281D02*
X0123599Y0095281D01*
X0123001Y0095879D02*
X0129587Y0095879D01*
X0129111Y0096478D02*
X0122402Y0096478D01*
X0121804Y0097076D02*
X0129111Y0097076D01*
X0129111Y0097675D02*
X0121205Y0097675D01*
X0120607Y0098273D02*
X0129215Y0098273D01*
X0129600Y0098872D02*
X0120008Y0098872D01*
X0119410Y0099470D02*
X0129600Y0099470D01*
X0129600Y0100069D02*
X0118811Y0100069D01*
X0118213Y0100668D02*
X0129600Y0100668D01*
X0129600Y0101266D02*
X0117614Y0101266D01*
X0117016Y0101865D02*
X0129600Y0101865D01*
X0129600Y0102463D02*
X0116417Y0102463D01*
X0115819Y0103062D02*
X0129600Y0103062D01*
X0129600Y0103660D02*
X0115220Y0103660D01*
X0114621Y0104259D02*
X0129600Y0104259D01*
X0129600Y0104857D02*
X0114023Y0104857D01*
X0113424Y0105456D02*
X0129600Y0105456D01*
X0129600Y0106054D02*
X0112826Y0106054D01*
X0112227Y0106653D02*
X0129600Y0106653D01*
X0129600Y0107251D02*
X0111629Y0107251D01*
X0111030Y0107850D02*
X0129600Y0107850D01*
X0129600Y0108448D02*
X0110432Y0108448D01*
X0110125Y0109047D02*
X0129600Y0109047D01*
X0129600Y0109645D02*
X0110875Y0109645D01*
X0111626Y0110244D02*
X0129600Y0110244D01*
X0129600Y0110842D02*
X0112376Y0110842D01*
X0113127Y0111441D02*
X0129111Y0111441D01*
X0129111Y0112039D02*
X0113877Y0112039D01*
X0114628Y0112638D02*
X0129111Y0112638D01*
X0129178Y0113236D02*
X0115378Y0113236D01*
X0120632Y0117426D02*
X0249600Y0117426D01*
X0249600Y0118024D02*
X0187588Y0118024D01*
X0188666Y0118623D02*
X0249600Y0118623D01*
X0249600Y0119221D02*
X0189264Y0119221D01*
X0189767Y0119820D02*
X0249600Y0119820D01*
X0249600Y0120418D02*
X0190015Y0120418D01*
X0190263Y0121017D02*
X0249600Y0121017D01*
X0248194Y0121615D02*
X0190400Y0121615D01*
X0190400Y0122214D02*
X0248038Y0122214D01*
X0248038Y0122812D02*
X0190400Y0122812D01*
X0190303Y0123411D02*
X0248038Y0123411D01*
X0248038Y0124009D02*
X0190055Y0124009D01*
X0190550Y0124608D02*
X0248038Y0124608D01*
X0248038Y0125206D02*
X0191148Y0125206D01*
X0191747Y0125805D02*
X0248176Y0125805D01*
X0250410Y0126403D02*
X0192345Y0126403D01*
X0192944Y0127002D02*
X0251009Y0127002D01*
X0251607Y0127601D02*
X0193542Y0127601D01*
X0194141Y0128199D02*
X0252206Y0128199D01*
X0254620Y0125805D02*
X0269600Y0125805D01*
X0269600Y0126403D02*
X0255219Y0126403D01*
X0255817Y0127002D02*
X0269600Y0127002D01*
X0269600Y0127601D02*
X0256416Y0127601D01*
X0256762Y0128199D02*
X0269600Y0128199D01*
X0269600Y0128798D02*
X0256762Y0128798D01*
X0256762Y0129396D02*
X0269600Y0129396D01*
X0269600Y0129995D02*
X0256762Y0129995D01*
X0256762Y0130593D02*
X0269600Y0130593D01*
X0269600Y0131192D02*
X0256762Y0131192D01*
X0256762Y0131790D02*
X0269600Y0131790D01*
X0269600Y0132389D02*
X0256762Y0132389D01*
X0256762Y0132987D02*
X0269600Y0132987D01*
X0269600Y0133586D02*
X0256762Y0133586D01*
X0256762Y0134184D02*
X0269600Y0134184D01*
X0269600Y0134783D02*
X0256762Y0134783D01*
X0256823Y0135381D02*
X0269600Y0135381D01*
X0269600Y0135980D02*
X0257421Y0135980D01*
X0258020Y0136578D02*
X0269600Y0136578D01*
X0269600Y0137177D02*
X0258618Y0137177D01*
X0259217Y0137775D02*
X0269600Y0137775D01*
X0269600Y0138374D02*
X0259815Y0138374D01*
X0260414Y0138972D02*
X0269600Y0138972D01*
X0269600Y0139571D02*
X0261012Y0139571D01*
X0261611Y0140169D02*
X0269600Y0140169D01*
X0269600Y0140768D02*
X0262209Y0140768D01*
X0262808Y0141366D02*
X0269600Y0141366D01*
X0269600Y0141965D02*
X0263406Y0141965D01*
X0264005Y0142563D02*
X0269600Y0142563D01*
X0269795Y0143162D02*
X0264603Y0143162D01*
X0265202Y0143760D02*
X0270394Y0143760D01*
X0270992Y0144359D02*
X0265800Y0144359D01*
X0266399Y0144957D02*
X0271591Y0144957D01*
X0272189Y0145556D02*
X0267689Y0145556D01*
X0268288Y0146154D02*
X0272788Y0146154D01*
X0273386Y0146753D02*
X0268489Y0146753D01*
X0268489Y0147351D02*
X0273985Y0147351D01*
X0274583Y0147950D02*
X0268489Y0147950D01*
X0268110Y0148548D02*
X0275182Y0148548D01*
X0275780Y0149147D02*
X0267511Y0149147D01*
X0265089Y0149147D02*
X0250589Y0149147D01*
X0251187Y0149745D02*
X0276379Y0149745D01*
X0276977Y0150344D02*
X0251786Y0150344D01*
X0252384Y0150942D02*
X0277576Y0150942D01*
X0278174Y0151541D02*
X0252983Y0151541D01*
X0253581Y0152139D02*
X0278773Y0152139D01*
X0279371Y0152738D02*
X0254180Y0152738D01*
X0254778Y0153337D02*
X0279970Y0153337D01*
X0280568Y0153935D02*
X0255377Y0153935D01*
X0255975Y0154534D02*
X0281167Y0154534D01*
X0281765Y0155132D02*
X0256574Y0155132D01*
X0257172Y0155731D02*
X0282364Y0155731D01*
X0282962Y0156329D02*
X0257771Y0156329D01*
X0258369Y0156928D02*
X0283561Y0156928D01*
X0284159Y0157526D02*
X0258968Y0157526D01*
X0259566Y0158125D02*
X0284758Y0158125D01*
X0285356Y0158723D02*
X0260165Y0158723D01*
X0260763Y0159322D02*
X0285955Y0159322D01*
X0286553Y0159920D02*
X0261362Y0159920D01*
X0261960Y0160519D02*
X0287152Y0160519D01*
X0287750Y0161117D02*
X0262559Y0161117D01*
X0263157Y0161716D02*
X0288349Y0161716D01*
X0288947Y0162314D02*
X0263756Y0162314D01*
X0264354Y0162913D02*
X0289546Y0162913D01*
X0290145Y0163511D02*
X0264953Y0163511D01*
X0265551Y0164110D02*
X0290743Y0164110D01*
X0291342Y0164708D02*
X0266150Y0164708D01*
X0266748Y0165307D02*
X0291940Y0165307D01*
X0292539Y0165905D02*
X0267347Y0165905D01*
X0267945Y0166504D02*
X0293137Y0166504D01*
X0293736Y0167102D02*
X0268544Y0167102D01*
X0265531Y0168898D02*
X0260339Y0168898D01*
X0259741Y0168299D02*
X0264933Y0168299D01*
X0264334Y0167701D02*
X0259142Y0167701D01*
X0258544Y0167102D02*
X0263736Y0167102D01*
X0263137Y0166504D02*
X0257945Y0166504D01*
X0257347Y0165905D02*
X0262539Y0165905D01*
X0261940Y0165307D02*
X0256748Y0165307D01*
X0256150Y0164708D02*
X0261342Y0164708D01*
X0260743Y0164110D02*
X0255551Y0164110D01*
X0254953Y0163511D02*
X0260145Y0163511D01*
X0259546Y0162913D02*
X0254354Y0162913D01*
X0253756Y0162314D02*
X0258948Y0162314D01*
X0258349Y0161716D02*
X0253157Y0161716D01*
X0252559Y0161117D02*
X0257750Y0161117D01*
X0257152Y0160519D02*
X0251960Y0160519D01*
X0251362Y0159920D02*
X0256553Y0159920D01*
X0255955Y0159322D02*
X0250763Y0159322D01*
X0250165Y0158723D02*
X0255356Y0158723D01*
X0254758Y0158125D02*
X0249566Y0158125D01*
X0248968Y0157526D02*
X0254159Y0157526D01*
X0253561Y0156928D02*
X0248369Y0156928D01*
X0247771Y0156329D02*
X0252962Y0156329D01*
X0252364Y0155731D02*
X0247172Y0155731D01*
X0246574Y0155132D02*
X0251765Y0155132D01*
X0251167Y0154534D02*
X0245975Y0154534D01*
X0245377Y0153935D02*
X0250568Y0153935D01*
X0249970Y0153337D02*
X0244778Y0153337D01*
X0244180Y0152738D02*
X0249371Y0152738D01*
X0248773Y0152139D02*
X0243581Y0152139D01*
X0242983Y0151541D02*
X0248174Y0151541D01*
X0247576Y0150942D02*
X0242384Y0150942D01*
X0241786Y0150344D02*
X0246977Y0150344D01*
X0246379Y0149745D02*
X0241187Y0149745D01*
X0240589Y0149147D02*
X0245780Y0149147D01*
X0245182Y0148548D02*
X0239990Y0148548D01*
X0239392Y0147950D02*
X0244583Y0147950D01*
X0243985Y0147351D02*
X0238793Y0147351D01*
X0238662Y0146753D02*
X0243386Y0146753D01*
X0242788Y0146154D02*
X0238900Y0146154D01*
X0238900Y0145556D02*
X0242189Y0145556D01*
X0241591Y0144957D02*
X0238900Y0144957D01*
X0238900Y0144359D02*
X0240992Y0144359D01*
X0240394Y0143760D02*
X0238657Y0143760D01*
X0238409Y0143162D02*
X0239795Y0143162D01*
X0239197Y0142563D02*
X0238106Y0142563D01*
X0238598Y0141965D02*
X0237508Y0141965D01*
X0238000Y0141366D02*
X0236909Y0141366D01*
X0237401Y0140768D02*
X0235469Y0140768D01*
X0235919Y0139571D02*
X0236204Y0139571D01*
X0236803Y0140169D02*
X0149151Y0140169D01*
X0148401Y0139571D02*
X0232681Y0139571D01*
X0233131Y0140768D02*
X0149902Y0140768D01*
X0150652Y0141366D02*
X0231691Y0141366D01*
X0231092Y0141965D02*
X0151403Y0141965D01*
X0152153Y0142563D02*
X0230494Y0142563D01*
X0230191Y0143162D02*
X0152904Y0143162D01*
X0153654Y0143760D02*
X0229943Y0143760D01*
X0229700Y0144359D02*
X0154405Y0144359D01*
X0155155Y0144957D02*
X0229700Y0144957D01*
X0229700Y0145556D02*
X0155906Y0145556D01*
X0156656Y0146154D02*
X0229700Y0146154D01*
X0229938Y0146753D02*
X0157407Y0146753D01*
X0158157Y0147351D02*
X0230186Y0147351D01*
X0230482Y0147950D02*
X0158908Y0147950D01*
X0159658Y0148548D02*
X0231081Y0148548D01*
X0231679Y0149147D02*
X0160409Y0149147D01*
X0161160Y0149745D02*
X0233102Y0149745D01*
X0235498Y0149745D02*
X0236379Y0149745D01*
X0236977Y0150344D02*
X0161910Y0150344D01*
X0162661Y0150942D02*
X0237576Y0150942D01*
X0238174Y0151541D02*
X0163411Y0151541D01*
X0164162Y0152139D02*
X0238773Y0152139D01*
X0239371Y0152738D02*
X0187397Y0152738D01*
X0188842Y0153337D02*
X0239970Y0153337D01*
X0240568Y0153935D02*
X0189478Y0153935D01*
X0190076Y0154534D02*
X0241167Y0154534D01*
X0241765Y0155132D02*
X0190397Y0155132D01*
X0190644Y0155731D02*
X0242364Y0155731D01*
X0242962Y0156329D02*
X0190892Y0156329D01*
X0190900Y0156928D02*
X0243561Y0156928D01*
X0244159Y0157526D02*
X0190900Y0157526D01*
X0190900Y0158125D02*
X0244758Y0158125D01*
X0245356Y0158723D02*
X0190674Y0158723D01*
X0188349Y0161716D02*
X0187570Y0161716D01*
X0187819Y0162913D02*
X0211803Y0162913D01*
X0212402Y0163511D02*
X0189054Y0163511D01*
X0189653Y0164110D02*
X0213000Y0164110D01*
X0213599Y0164708D02*
X0190221Y0164708D01*
X0190469Y0165307D02*
X0213924Y0165307D01*
X0213700Y0165905D02*
X0190717Y0165905D01*
X0190900Y0166504D02*
X0213700Y0166504D01*
X0213700Y0167102D02*
X0190900Y0167102D01*
X0190900Y0167701D02*
X0213710Y0167701D01*
X0213958Y0168299D02*
X0190850Y0168299D01*
X0190602Y0168898D02*
X0214205Y0168898D01*
X0214528Y0169496D02*
X0190938Y0169496D01*
X0191536Y0170095D02*
X0215127Y0170095D01*
X0215769Y0170693D02*
X0192135Y0170693D01*
X0192733Y0171292D02*
X0217214Y0171292D01*
X0216597Y0172489D02*
X0193930Y0172489D01*
X0193332Y0171890D02*
X0221024Y0171890D01*
X0220425Y0171292D02*
X0219386Y0171292D01*
X0220003Y0172489D02*
X0221622Y0172489D01*
X0221130Y0173087D02*
X0222221Y0173087D01*
X0221729Y0173686D02*
X0222819Y0173686D01*
X0222253Y0174284D02*
X0223418Y0174284D01*
X0224016Y0174883D02*
X0222500Y0174883D01*
X0222748Y0175481D02*
X0224615Y0175481D01*
X0225213Y0176080D02*
X0222900Y0176080D01*
X0222900Y0176678D02*
X0225812Y0176678D01*
X0226410Y0177277D02*
X0222900Y0177277D01*
X0222818Y0177875D02*
X0227009Y0177875D01*
X0227607Y0178474D02*
X0222570Y0178474D01*
X0223014Y0179072D02*
X0228206Y0179072D01*
X0228804Y0179671D02*
X0223613Y0179671D01*
X0224211Y0180270D02*
X0229403Y0180270D01*
X0230001Y0180868D02*
X0224810Y0180868D01*
X0225408Y0181467D02*
X0230600Y0181467D01*
X0231198Y0182065D02*
X0226007Y0182065D01*
X0226605Y0182664D02*
X0231797Y0182664D01*
X0232395Y0183262D02*
X0227204Y0183262D01*
X0227802Y0183861D02*
X0232994Y0183861D01*
X0233592Y0184459D02*
X0228401Y0184459D01*
X0228999Y0185058D02*
X0234191Y0185058D01*
X0234789Y0185656D02*
X0229598Y0185656D01*
X0230196Y0186255D02*
X0235388Y0186255D01*
X0235819Y0186853D02*
X0230795Y0186853D01*
X0231393Y0187452D02*
X0235571Y0187452D01*
X0235323Y0188050D02*
X0231992Y0188050D01*
X0232590Y0188649D02*
X0235200Y0188649D01*
X0235200Y0189247D02*
X0233189Y0189247D01*
X0233787Y0189846D02*
X0235200Y0189846D01*
X0235310Y0190444D02*
X0234386Y0190444D01*
X0234984Y0191043D02*
X0235558Y0191043D01*
X0235583Y0191641D02*
X0235806Y0191641D01*
X0236181Y0192240D02*
X0236272Y0192240D01*
X0236780Y0192838D02*
X0236870Y0192838D01*
X0237378Y0193437D02*
X0237857Y0193437D01*
X0237977Y0194035D02*
X0279669Y0194035D01*
X0280100Y0194634D02*
X0238575Y0194634D01*
X0241743Y0193437D02*
X0279070Y0193437D01*
X0278472Y0192838D02*
X0242730Y0192838D01*
X0243328Y0192240D02*
X0277873Y0192240D01*
X0277275Y0191641D02*
X0243794Y0191641D01*
X0244042Y0191043D02*
X0276676Y0191043D01*
X0276078Y0190444D02*
X0244290Y0190444D01*
X0244400Y0189846D02*
X0275479Y0189846D01*
X0274881Y0189247D02*
X0244400Y0189247D01*
X0244400Y0188649D02*
X0274282Y0188649D01*
X0273683Y0188050D02*
X0244277Y0188050D01*
X0244029Y0187452D02*
X0273085Y0187452D01*
X0272486Y0186853D02*
X0243781Y0186853D01*
X0243297Y0186255D02*
X0268625Y0186255D01*
X0267188Y0185656D02*
X0242699Y0185656D01*
X0241669Y0185058D02*
X0266590Y0185058D01*
X0265991Y0184459D02*
X0238401Y0184459D01*
X0237802Y0183861D02*
X0265690Y0183861D01*
X0265442Y0183262D02*
X0237204Y0183262D01*
X0236605Y0182664D02*
X0265200Y0182664D01*
X0265200Y0182065D02*
X0236007Y0182065D01*
X0235408Y0181467D02*
X0265200Y0181467D01*
X0265200Y0180868D02*
X0234810Y0180868D01*
X0234211Y0180270D02*
X0265439Y0180270D01*
X0265687Y0179671D02*
X0233613Y0179671D01*
X0233014Y0179072D02*
X0265706Y0179072D01*
X0265107Y0178474D02*
X0232416Y0178474D01*
X0231817Y0177875D02*
X0264509Y0177875D01*
X0263910Y0177277D02*
X0231219Y0177277D01*
X0230620Y0176678D02*
X0263312Y0176678D01*
X0262713Y0176080D02*
X0230022Y0176080D01*
X0229423Y0175481D02*
X0262115Y0175481D01*
X0261516Y0174883D02*
X0228825Y0174883D01*
X0228226Y0174284D02*
X0260918Y0174284D01*
X0260319Y0173686D02*
X0227628Y0173686D01*
X0227029Y0173087D02*
X0259721Y0173087D01*
X0259122Y0172489D02*
X0226430Y0172489D01*
X0225832Y0171890D02*
X0258524Y0171890D01*
X0257925Y0171292D02*
X0225233Y0171292D01*
X0224635Y0170693D02*
X0257327Y0170693D01*
X0256728Y0170095D02*
X0224036Y0170095D01*
X0223438Y0169496D02*
X0256130Y0169496D01*
X0255531Y0168898D02*
X0222839Y0168898D01*
X0222642Y0168299D02*
X0254933Y0168299D01*
X0254334Y0167701D02*
X0222890Y0167701D01*
X0222900Y0167102D02*
X0253736Y0167102D01*
X0253137Y0166504D02*
X0222900Y0166504D01*
X0222900Y0165905D02*
X0252539Y0165905D01*
X0251940Y0165307D02*
X0222676Y0165307D01*
X0222428Y0164708D02*
X0251342Y0164708D01*
X0250743Y0164110D02*
X0222153Y0164110D01*
X0221554Y0163511D02*
X0250145Y0163511D01*
X0249546Y0162913D02*
X0220956Y0162913D01*
X0219581Y0162314D02*
X0248948Y0162314D01*
X0248349Y0161716D02*
X0215414Y0161716D01*
X0216013Y0162314D02*
X0217019Y0162314D01*
X0214816Y0161117D02*
X0247750Y0161117D01*
X0247152Y0160519D02*
X0214217Y0160519D01*
X0213619Y0159920D02*
X0246553Y0159920D01*
X0245955Y0159322D02*
X0213020Y0159322D01*
X0211204Y0162314D02*
X0183652Y0162314D01*
X0183054Y0162913D02*
X0184781Y0162913D01*
X0185030Y0161716D02*
X0184251Y0161716D01*
X0183546Y0163511D02*
X0182455Y0163511D01*
X0182947Y0164110D02*
X0181857Y0164110D01*
X0182379Y0164708D02*
X0181258Y0164708D01*
X0180673Y0165307D02*
X0182131Y0165307D01*
X0178844Y0162314D02*
X0176920Y0162314D01*
X0176170Y0161716D02*
X0179443Y0161716D01*
X0180041Y0161117D02*
X0175419Y0161117D01*
X0174669Y0160519D02*
X0180640Y0160519D01*
X0181238Y0159920D02*
X0173918Y0159920D01*
X0173168Y0159322D02*
X0181837Y0159322D01*
X0181926Y0158723D02*
X0172417Y0158723D01*
X0171667Y0158125D02*
X0181700Y0158125D01*
X0181700Y0157526D02*
X0170916Y0157526D01*
X0170166Y0156928D02*
X0181700Y0156928D01*
X0181708Y0156329D02*
X0169415Y0156329D01*
X0168665Y0155731D02*
X0181956Y0155731D01*
X0182203Y0155132D02*
X0167914Y0155132D01*
X0167164Y0154534D02*
X0182524Y0154534D01*
X0183122Y0153935D02*
X0166413Y0153935D01*
X0165663Y0153337D02*
X0183758Y0153337D01*
X0185203Y0152738D02*
X0164912Y0152738D01*
X0177671Y0162913D02*
X0178246Y0162913D01*
X0194529Y0173087D02*
X0215470Y0173087D01*
X0214871Y0173686D02*
X0195128Y0173686D01*
X0195726Y0174284D02*
X0214347Y0174284D01*
X0214100Y0174883D02*
X0196325Y0174883D01*
X0231504Y0138972D02*
X0147994Y0138972D01*
X0148593Y0138374D02*
X0230906Y0138374D01*
X0230362Y0137775D02*
X0149191Y0137775D01*
X0149790Y0137177D02*
X0230114Y0137177D01*
X0230263Y0132987D02*
X0190400Y0132987D01*
X0190400Y0132389D02*
X0230669Y0132389D01*
X0237452Y0128798D02*
X0248098Y0128798D01*
X0248271Y0132987D02*
X0238336Y0132987D01*
X0238584Y0133586D02*
X0253362Y0133586D01*
X0253362Y0134184D02*
X0238832Y0134184D01*
X0238900Y0134783D02*
X0253362Y0134783D01*
X0253362Y0135381D02*
X0238900Y0135381D01*
X0238900Y0135980D02*
X0253362Y0135980D01*
X0253362Y0136578D02*
X0238734Y0136578D01*
X0238618Y0137177D02*
X0253810Y0137177D01*
X0254409Y0137775D02*
X0239217Y0137775D01*
X0239815Y0138374D02*
X0255007Y0138374D01*
X0255606Y0138972D02*
X0240414Y0138972D01*
X0241012Y0139571D02*
X0256204Y0139571D01*
X0256803Y0140169D02*
X0241611Y0140169D01*
X0242209Y0140768D02*
X0257401Y0140768D01*
X0258000Y0141366D02*
X0242808Y0141366D01*
X0243406Y0141965D02*
X0258598Y0141965D01*
X0259197Y0142563D02*
X0244005Y0142563D01*
X0244603Y0143162D02*
X0259795Y0143162D01*
X0260394Y0143760D02*
X0245202Y0143760D01*
X0245800Y0144359D02*
X0260992Y0144359D01*
X0261591Y0144957D02*
X0246399Y0144957D01*
X0246997Y0145556D02*
X0262189Y0145556D01*
X0262788Y0146154D02*
X0247596Y0146154D01*
X0248195Y0146753D02*
X0263386Y0146753D01*
X0263985Y0147351D02*
X0248793Y0147351D01*
X0249392Y0147950D02*
X0264111Y0147950D01*
X0264490Y0148548D02*
X0249990Y0148548D01*
X0272014Y0167701D02*
X0294334Y0167701D01*
X0294933Y0168299D02*
X0272842Y0168299D01*
X0273441Y0168898D02*
X0295531Y0168898D01*
X0296130Y0169496D02*
X0273840Y0169496D01*
X0274088Y0170095D02*
X0296728Y0170095D01*
X0297327Y0170693D02*
X0274336Y0170693D01*
X0274400Y0171292D02*
X0297925Y0171292D01*
X0298524Y0171890D02*
X0274400Y0171890D01*
X0274400Y0172489D02*
X0299122Y0172489D01*
X0299721Y0173087D02*
X0274230Y0173087D01*
X0273982Y0173686D02*
X0300319Y0173686D01*
X0300918Y0174284D02*
X0273734Y0174284D01*
X0273185Y0174883D02*
X0301516Y0174883D01*
X0302115Y0175481D02*
X0272586Y0175481D01*
X0271397Y0176080D02*
X0302713Y0176080D01*
X0303312Y0176678D02*
X0268120Y0176678D01*
X0268203Y0176080D02*
X0267522Y0176080D01*
X0267014Y0175481D02*
X0266923Y0175481D01*
X0266415Y0174883D02*
X0266325Y0174883D01*
X0265866Y0174284D02*
X0265726Y0174284D01*
X0265618Y0173686D02*
X0265128Y0173686D01*
X0265370Y0173087D02*
X0264529Y0173087D01*
X0263930Y0172489D02*
X0265200Y0172489D01*
X0265200Y0171890D02*
X0263332Y0171890D01*
X0262733Y0171292D02*
X0265200Y0171292D01*
X0265264Y0170693D02*
X0262135Y0170693D01*
X0261536Y0170095D02*
X0265512Y0170095D01*
X0265760Y0169496D02*
X0260938Y0169496D01*
X0270991Y0177277D02*
X0303910Y0177277D01*
X0304509Y0177875D02*
X0272418Y0177875D01*
X0273017Y0178474D02*
X0305107Y0178474D01*
X0305706Y0179072D02*
X0273615Y0179072D01*
X0273913Y0179671D02*
X0306304Y0179671D01*
X0306903Y0180270D02*
X0274161Y0180270D01*
X0274400Y0180868D02*
X0307501Y0180868D01*
X0308100Y0181467D02*
X0274400Y0181467D01*
X0274400Y0182065D02*
X0308698Y0182065D01*
X0309297Y0182664D02*
X0274400Y0182664D01*
X0274158Y0183262D02*
X0309895Y0183262D01*
X0310494Y0183861D02*
X0274302Y0183861D01*
X0274901Y0184459D02*
X0311092Y0184459D01*
X0311691Y0185058D02*
X0275499Y0185058D01*
X0276098Y0185656D02*
X0312289Y0185656D01*
X0312888Y0186255D02*
X0276696Y0186255D01*
X0277295Y0186853D02*
X0313486Y0186853D01*
X0314085Y0187452D02*
X0277893Y0187452D01*
X0278492Y0188050D02*
X0314683Y0188050D01*
X0315282Y0188649D02*
X0279090Y0188649D01*
X0279689Y0189247D02*
X0315880Y0189247D01*
X0316479Y0189846D02*
X0280287Y0189846D01*
X0280886Y0190444D02*
X0317078Y0190444D01*
X0317676Y0191043D02*
X0281484Y0191043D01*
X0282083Y0191641D02*
X0318275Y0191641D01*
X0318873Y0192240D02*
X0282681Y0192240D01*
X0283280Y0192838D02*
X0319472Y0192838D01*
X0319600Y0193437D02*
X0283500Y0193437D01*
X0283500Y0194035D02*
X0319600Y0194035D01*
X0319600Y0194634D02*
X0283500Y0194634D01*
X0283500Y0195232D02*
X0319600Y0195232D01*
X0319600Y0195831D02*
X0283500Y0195831D01*
X0283500Y0196429D02*
X0319600Y0196429D01*
X0319600Y0197028D02*
X0283500Y0197028D01*
X0283500Y0197626D02*
X0319600Y0197626D01*
X0319600Y0198225D02*
X0283500Y0198225D01*
X0283500Y0198823D02*
X0319600Y0198823D01*
X0319600Y0199422D02*
X0283500Y0199422D01*
X0283500Y0200020D02*
X0319600Y0200020D01*
X0319600Y0200619D02*
X0283500Y0200619D01*
X0283500Y0201217D02*
X0319600Y0201217D01*
X0319600Y0201816D02*
X0283500Y0201816D01*
X0283500Y0202414D02*
X0319600Y0202414D01*
X0319600Y0203013D02*
X0283500Y0203013D01*
X0283500Y0203611D02*
X0319600Y0203611D01*
X0319600Y0204210D02*
X0283500Y0204210D01*
X0283500Y0204808D02*
X0319600Y0204808D01*
X0319600Y0205407D02*
X0283500Y0205407D01*
X0283500Y0206005D02*
X0319600Y0206005D01*
X0319600Y0206604D02*
X0283500Y0206604D01*
X0283500Y0207203D02*
X0319600Y0207203D01*
X0319600Y0207801D02*
X0283500Y0207801D01*
X0283500Y0208400D02*
X0319600Y0208400D01*
X0319600Y0208998D02*
X0283500Y0208998D01*
X0283500Y0209597D02*
X0319600Y0209597D01*
X0319600Y0210195D02*
X0283500Y0210195D01*
X0283500Y0210794D02*
X0319600Y0210794D01*
X0319600Y0211392D02*
X0283500Y0211392D01*
X0283500Y0211991D02*
X0319600Y0211991D01*
X0319600Y0212589D02*
X0283500Y0212589D01*
X0283983Y0213188D02*
X0319600Y0213188D01*
X0319600Y0213786D02*
X0284829Y0213786D01*
X0285428Y0214385D02*
X0319600Y0214385D01*
X0319600Y0214983D02*
X0285835Y0214983D01*
X0286083Y0215582D02*
X0319600Y0215582D01*
X0319600Y0216180D02*
X0286331Y0216180D01*
X0286400Y0216779D02*
X0319600Y0216779D01*
X0319600Y0217377D02*
X0286400Y0217377D01*
X0286400Y0217976D02*
X0319600Y0217976D01*
X0319600Y0218574D02*
X0286236Y0218574D01*
X0285988Y0219173D02*
X0319600Y0219173D01*
X0319600Y0219771D02*
X0285740Y0219771D01*
X0285198Y0220370D02*
X0319600Y0220370D01*
X0319600Y0220968D02*
X0284600Y0220968D01*
X0283429Y0221567D02*
X0319600Y0221567D01*
X0319600Y0222165D02*
X0279301Y0222165D01*
X0279616Y0222764D02*
X0278703Y0222764D01*
X0279179Y0222986D02*
X0279881Y0222629D01*
X0280629Y0222386D01*
X0281406Y0222263D01*
X0281500Y0222263D01*
X0281500Y0226962D01*
X0282100Y0226962D01*
X0282100Y0222263D01*
X0282194Y0222263D01*
X0282971Y0222386D01*
X0283719Y0222629D01*
X0284421Y0222986D01*
X0285057Y0223449D01*
X0285614Y0224005D01*
X0286076Y0224642D01*
X0286434Y0225343D01*
X0286677Y0226092D01*
X0286800Y0226869D01*
X0286800Y0226963D01*
X0282100Y0226963D01*
X0282100Y0227562D01*
X0286800Y0227562D01*
X0286800Y0227656D01*
X0286677Y0228433D01*
X0286434Y0229182D01*
X0286076Y0229883D01*
X0285614Y0230520D01*
X0285057Y0231076D01*
X0284421Y0231539D01*
X0283719Y0231896D01*
X0282971Y0232139D01*
X0282194Y0232263D01*
X0282100Y0232263D01*
X0282100Y0227563D01*
X0281500Y0227563D01*
X0281500Y0232263D01*
X0281406Y0232263D01*
X0280629Y0232139D01*
X0279881Y0231896D01*
X0279179Y0231539D01*
X0278543Y0231076D01*
X0277986Y0230520D01*
X0277524Y0229883D01*
X0277166Y0229182D01*
X0276923Y0228433D01*
X0276800Y0227656D01*
X0276800Y0227562D01*
X0281500Y0227562D01*
X0281500Y0226963D01*
X0276800Y0226963D01*
X0276800Y0226869D01*
X0276923Y0226092D01*
X0277166Y0225343D01*
X0277524Y0224642D01*
X0277986Y0224005D01*
X0278543Y0223449D01*
X0279179Y0222986D01*
X0278662Y0223362D02*
X0278104Y0223362D01*
X0278031Y0223961D02*
X0277506Y0223961D01*
X0277584Y0224559D02*
X0276907Y0224559D01*
X0277261Y0225158D02*
X0276309Y0225158D01*
X0275710Y0225756D02*
X0277032Y0225756D01*
X0276881Y0226355D02*
X0275112Y0226355D01*
X0274513Y0226953D02*
X0276800Y0226953D01*
X0276878Y0228150D02*
X0273316Y0228150D01*
X0273915Y0227552D02*
X0281500Y0227552D01*
X0281500Y0228150D02*
X0282100Y0228150D01*
X0282100Y0227552D02*
X0319600Y0227552D01*
X0319600Y0228150D02*
X0286722Y0228150D01*
X0286574Y0228749D02*
X0319600Y0228749D01*
X0319600Y0229347D02*
X0286349Y0229347D01*
X0286031Y0229946D02*
X0319600Y0229946D01*
X0319600Y0230544D02*
X0285589Y0230544D01*
X0284966Y0231143D02*
X0319600Y0231143D01*
X0319600Y0231741D02*
X0284023Y0231741D01*
X0282100Y0231741D02*
X0281500Y0231741D01*
X0281500Y0231143D02*
X0282100Y0231143D01*
X0282100Y0230544D02*
X0281500Y0230544D01*
X0281500Y0229946D02*
X0282100Y0229946D01*
X0282100Y0229347D02*
X0281500Y0229347D01*
X0281500Y0228749D02*
X0282100Y0228749D01*
X0282100Y0226953D02*
X0281500Y0226953D01*
X0281500Y0226355D02*
X0282100Y0226355D01*
X0282100Y0225756D02*
X0281500Y0225756D01*
X0281500Y0225158D02*
X0282100Y0225158D01*
X0282100Y0224559D02*
X0281500Y0224559D01*
X0281500Y0223961D02*
X0282100Y0223961D01*
X0282100Y0223362D02*
X0281500Y0223362D01*
X0281500Y0222764D02*
X0282100Y0222764D01*
X0283984Y0222764D02*
X0319600Y0222764D01*
X0319600Y0223362D02*
X0284938Y0223362D01*
X0285569Y0223961D02*
X0319600Y0223961D01*
X0319600Y0224559D02*
X0286016Y0224559D01*
X0286339Y0225158D02*
X0319600Y0225158D01*
X0319600Y0225756D02*
X0286568Y0225756D01*
X0286719Y0226355D02*
X0319600Y0226355D01*
X0319600Y0226953D02*
X0286800Y0226953D01*
X0280171Y0221567D02*
X0279900Y0221567D01*
X0277486Y0219173D02*
X0250488Y0219173D01*
X0250240Y0219771D02*
X0276887Y0219771D01*
X0276289Y0220370D02*
X0249720Y0220370D01*
X0250471Y0220968D02*
X0275690Y0220968D01*
X0275092Y0221567D02*
X0251221Y0221567D01*
X0251972Y0222165D02*
X0274493Y0222165D01*
X0273895Y0222764D02*
X0252722Y0222764D01*
X0253473Y0223362D02*
X0273296Y0223362D01*
X0272698Y0223961D02*
X0254223Y0223961D01*
X0254974Y0224559D02*
X0272099Y0224559D01*
X0271500Y0225158D02*
X0255724Y0225158D01*
X0256475Y0225756D02*
X0270902Y0225756D01*
X0270303Y0226355D02*
X0257225Y0226355D01*
X0257976Y0226953D02*
X0269705Y0226953D01*
X0269106Y0227552D02*
X0258726Y0227552D01*
X0259477Y0228150D02*
X0268508Y0228150D01*
X0268100Y0228749D02*
X0260227Y0228749D01*
X0260978Y0229347D02*
X0268100Y0229347D01*
X0268100Y0229946D02*
X0261728Y0229946D01*
X0262479Y0230544D02*
X0268100Y0230544D01*
X0268100Y0231143D02*
X0263229Y0231143D01*
X0263980Y0231741D02*
X0268100Y0231741D01*
X0268100Y0232340D02*
X0264730Y0232340D01*
X0265481Y0232939D02*
X0268100Y0232939D01*
X0268100Y0233537D02*
X0266232Y0233537D01*
X0266982Y0234136D02*
X0268100Y0234136D01*
X0268100Y0234734D02*
X0267733Y0234734D01*
X0271500Y0234734D02*
X0319600Y0234734D01*
X0319600Y0234136D02*
X0271500Y0234136D01*
X0271500Y0233537D02*
X0319600Y0233537D01*
X0319600Y0232939D02*
X0271500Y0232939D01*
X0271500Y0232340D02*
X0319600Y0232340D01*
X0319600Y0235333D02*
X0271500Y0235333D01*
X0271500Y0235931D02*
X0319600Y0235931D01*
X0319600Y0236530D02*
X0271500Y0236530D01*
X0271500Y0237128D02*
X0319600Y0237128D01*
X0319600Y0237727D02*
X0271500Y0237727D01*
X0272236Y0238325D02*
X0319600Y0238325D01*
X0319600Y0238924D02*
X0272986Y0238924D01*
X0273737Y0239522D02*
X0319600Y0239522D01*
X0319600Y0240121D02*
X0274487Y0240121D01*
X0275238Y0240719D02*
X0319600Y0240719D01*
X0319600Y0241318D02*
X0275988Y0241318D01*
X0276739Y0241916D02*
X0319600Y0241916D01*
X0319600Y0242515D02*
X0277489Y0242515D01*
X0278240Y0243113D02*
X0319600Y0243113D01*
X0319600Y0243712D02*
X0278990Y0243712D01*
X0279741Y0244310D02*
X0319600Y0244310D01*
X0319600Y0244909D02*
X0280491Y0244909D01*
X0281242Y0245507D02*
X0319600Y0245507D01*
X0319600Y0246106D02*
X0281992Y0246106D01*
X0282743Y0246704D02*
X0319600Y0246704D01*
X0319600Y0247303D02*
X0283493Y0247303D01*
X0284244Y0247901D02*
X0319600Y0247901D01*
X0319600Y0248500D02*
X0284994Y0248500D01*
X0285745Y0249098D02*
X0319600Y0249098D01*
X0319600Y0249697D02*
X0286495Y0249697D01*
X0287246Y0250295D02*
X0319600Y0250295D01*
X0319600Y0250894D02*
X0287996Y0250894D01*
X0288747Y0251492D02*
X0319600Y0251492D01*
X0319600Y0252091D02*
X0289497Y0252091D01*
X0290248Y0252689D02*
X0319600Y0252689D01*
X0319600Y0253288D02*
X0290998Y0253288D01*
X0291749Y0253886D02*
X0319600Y0253886D01*
X0319600Y0254485D02*
X0292500Y0254485D01*
X0293250Y0255083D02*
X0319600Y0255083D01*
X0317708Y0255682D02*
X0294001Y0255682D01*
X0294751Y0256280D02*
X0317250Y0256280D01*
X0317250Y0256879D02*
X0295502Y0256879D01*
X0296252Y0257477D02*
X0317250Y0257477D01*
X0317250Y0258076D02*
X0297003Y0258076D01*
X0297753Y0258674D02*
X0317250Y0258674D01*
X0317250Y0259273D02*
X0298504Y0259273D01*
X0299254Y0259872D02*
X0317250Y0259872D01*
X0317250Y0260470D02*
X0300005Y0260470D01*
X0300755Y0261069D02*
X0317250Y0261069D01*
X0317250Y0261667D02*
X0301506Y0261667D01*
X0302256Y0262266D02*
X0317250Y0262266D01*
X0317250Y0262864D02*
X0303007Y0262864D01*
X0303757Y0263463D02*
X0317527Y0263463D01*
X0317739Y0268251D02*
X0309761Y0268251D01*
X0309011Y0267652D02*
X0345972Y0267652D01*
X0346384Y0267054D02*
X0308260Y0267054D01*
X0307510Y0266455D02*
X0346384Y0266455D01*
X0346384Y0265857D02*
X0306759Y0265857D01*
X0306009Y0265258D02*
X0346384Y0265258D01*
X0346384Y0264660D02*
X0305258Y0264660D01*
X0304508Y0264061D02*
X0346384Y0264061D01*
X0346384Y0263463D02*
X0325073Y0263463D01*
X0325350Y0262864D02*
X0346384Y0262864D01*
X0346384Y0262266D02*
X0325350Y0262266D01*
X0325350Y0261667D02*
X0346384Y0261667D01*
X0346384Y0261069D02*
X0325350Y0261069D01*
X0325350Y0260470D02*
X0346384Y0260470D01*
X0346384Y0259872D02*
X0325350Y0259872D01*
X0325350Y0259273D02*
X0346384Y0259273D01*
X0346568Y0258674D02*
X0325350Y0258674D01*
X0325350Y0258076D02*
X0393701Y0258076D01*
X0393701Y0258674D02*
X0356268Y0258674D01*
X0356452Y0259273D02*
X0393701Y0259273D01*
X0393701Y0259872D02*
X0356452Y0259872D01*
X0356452Y0260470D02*
X0393701Y0260470D01*
X0393701Y0261069D02*
X0356452Y0261069D01*
X0356452Y0261667D02*
X0393701Y0261667D01*
X0393701Y0262266D02*
X0356452Y0262266D01*
X0356452Y0262864D02*
X0393701Y0262864D01*
X0393701Y0263463D02*
X0356452Y0263463D01*
X0356452Y0264061D02*
X0393701Y0264061D01*
X0393701Y0264660D02*
X0356452Y0264660D01*
X0356452Y0265258D02*
X0393701Y0265258D01*
X0393701Y0265857D02*
X0356452Y0265857D01*
X0356452Y0266455D02*
X0393701Y0266455D01*
X0393701Y0267054D02*
X0356452Y0267054D01*
X0356452Y0267652D02*
X0377738Y0267652D01*
X0378491Y0267340D02*
X0375119Y0268737D01*
X0372538Y0271318D01*
X0371142Y0274690D01*
X0371142Y0278339D01*
X0372538Y0281711D01*
X0375119Y0284292D01*
X0378491Y0285688D01*
X0382141Y0285688D01*
X0385512Y0284292D01*
X0388093Y0281711D01*
X0389490Y0278339D01*
X0389490Y0274690D01*
X0388093Y0271318D01*
X0385512Y0268737D01*
X0382141Y0267340D01*
X0378491Y0267340D01*
X0376293Y0268251D02*
X0356073Y0268251D01*
X0349341Y0268849D02*
X0375007Y0268849D01*
X0374409Y0269448D02*
X0348880Y0269448D01*
X0348420Y0270046D02*
X0373810Y0270046D01*
X0373211Y0270645D02*
X0347959Y0270645D01*
X0347498Y0271243D02*
X0372613Y0271243D01*
X0372321Y0271842D02*
X0347037Y0271842D01*
X0346576Y0272440D02*
X0372073Y0272440D01*
X0371826Y0273039D02*
X0346196Y0273039D01*
X0345655Y0273637D02*
X0371578Y0273637D01*
X0371330Y0274236D02*
X0325350Y0274236D01*
X0325350Y0274834D02*
X0371142Y0274834D01*
X0371142Y0275433D02*
X0325350Y0275433D01*
X0325104Y0276031D02*
X0371142Y0276031D01*
X0371142Y0276630D02*
X0320269Y0276630D01*
X0321019Y0277228D02*
X0371142Y0277228D01*
X0371142Y0277827D02*
X0321770Y0277827D01*
X0322520Y0278425D02*
X0371177Y0278425D01*
X0371425Y0279024D02*
X0323271Y0279024D01*
X0324021Y0279622D02*
X0371673Y0279622D01*
X0371921Y0280221D02*
X0324772Y0280221D01*
X0325522Y0280819D02*
X0372169Y0280819D01*
X0372417Y0281418D02*
X0326273Y0281418D01*
X0327023Y0282016D02*
X0372844Y0282016D01*
X0373442Y0282615D02*
X0327774Y0282615D01*
X0328524Y0283213D02*
X0374041Y0283213D01*
X0374639Y0283812D02*
X0329275Y0283812D01*
X0330025Y0284410D02*
X0346624Y0284410D01*
X0346486Y0284490D02*
X0346782Y0284319D01*
X0347113Y0284230D01*
X0351118Y0284230D01*
X0351118Y0289364D01*
X0345984Y0289364D01*
X0345984Y0285359D01*
X0346073Y0285028D01*
X0346244Y0284732D01*
X0346486Y0284490D01*
X0346084Y0285009D02*
X0330776Y0285009D01*
X0331526Y0285608D02*
X0345984Y0285608D01*
X0345984Y0286206D02*
X0332277Y0286206D01*
X0333027Y0286805D02*
X0345984Y0286805D01*
X0345984Y0287403D02*
X0333778Y0287403D01*
X0334528Y0288002D02*
X0345984Y0288002D01*
X0345984Y0288600D02*
X0335279Y0288600D01*
X0336029Y0289199D02*
X0345984Y0289199D01*
X0345984Y0289964D02*
X0345984Y0293969D01*
X0346073Y0294300D01*
X0346244Y0294596D01*
X0346486Y0294838D01*
X0346782Y0295009D01*
X0347113Y0295098D01*
X0351118Y0295098D01*
X0351118Y0289964D01*
X0351118Y0289364D01*
X0351718Y0289364D01*
X0351718Y0284230D01*
X0355723Y0284230D01*
X0356054Y0284319D01*
X0356350Y0284490D01*
X0356592Y0284732D01*
X0356763Y0285028D01*
X0356852Y0285359D01*
X0356852Y0289364D01*
X0351718Y0289364D01*
X0351718Y0289964D01*
X0351118Y0289964D01*
X0345984Y0289964D01*
X0345984Y0290396D02*
X0337530Y0290396D01*
X0336780Y0289797D02*
X0351118Y0289797D01*
X0351118Y0289199D02*
X0351718Y0289199D01*
X0351718Y0289797D02*
X0393701Y0289797D01*
X0393701Y0289199D02*
X0356852Y0289199D01*
X0356852Y0288600D02*
X0393701Y0288600D01*
X0393701Y0288002D02*
X0356852Y0288002D01*
X0356852Y0287403D02*
X0393701Y0287403D01*
X0393701Y0286805D02*
X0356852Y0286805D01*
X0356852Y0286206D02*
X0393701Y0286206D01*
X0393701Y0285608D02*
X0382336Y0285608D01*
X0383781Y0285009D02*
X0393701Y0285009D01*
X0393701Y0284410D02*
X0385226Y0284410D01*
X0385992Y0283812D02*
X0393701Y0283812D01*
X0393701Y0283213D02*
X0386591Y0283213D01*
X0387189Y0282615D02*
X0393701Y0282615D01*
X0393701Y0282016D02*
X0387788Y0282016D01*
X0388215Y0281418D02*
X0393701Y0281418D01*
X0393701Y0280819D02*
X0388462Y0280819D01*
X0388710Y0280221D02*
X0393701Y0280221D01*
X0393701Y0279622D02*
X0388958Y0279622D01*
X0389206Y0279024D02*
X0393701Y0279024D01*
X0393701Y0278425D02*
X0389454Y0278425D01*
X0389490Y0277827D02*
X0393701Y0277827D01*
X0393701Y0277228D02*
X0389490Y0277228D01*
X0389490Y0276630D02*
X0393701Y0276630D01*
X0393701Y0276031D02*
X0389490Y0276031D01*
X0389490Y0275433D02*
X0393701Y0275433D01*
X0393701Y0274834D02*
X0389490Y0274834D01*
X0389302Y0274236D02*
X0393701Y0274236D01*
X0393701Y0273637D02*
X0389054Y0273637D01*
X0388806Y0273039D02*
X0393701Y0273039D01*
X0393701Y0272440D02*
X0388558Y0272440D01*
X0388310Y0271842D02*
X0393701Y0271842D01*
X0393701Y0271243D02*
X0388019Y0271243D01*
X0387420Y0270645D02*
X0393701Y0270645D01*
X0393701Y0270046D02*
X0386821Y0270046D01*
X0386223Y0269448D02*
X0393701Y0269448D01*
X0393701Y0268849D02*
X0385624Y0268849D01*
X0384338Y0268251D02*
X0393701Y0268251D01*
X0393701Y0267652D02*
X0382893Y0267652D01*
X0393701Y0257477D02*
X0325350Y0257477D01*
X0325350Y0256879D02*
X0393701Y0256879D01*
X0393701Y0256280D02*
X0325350Y0256280D01*
X0324892Y0255682D02*
X0393701Y0255682D01*
X0393701Y0255083D02*
X0323000Y0255083D01*
X0323000Y0254485D02*
X0393701Y0254485D01*
X0393701Y0253886D02*
X0323000Y0253886D01*
X0323000Y0253288D02*
X0393701Y0253288D01*
X0393701Y0252689D02*
X0323000Y0252689D01*
X0323000Y0252091D02*
X0393701Y0252091D01*
X0393701Y0251492D02*
X0323000Y0251492D01*
X0323000Y0250894D02*
X0393701Y0250894D01*
X0393701Y0250295D02*
X0323000Y0250295D01*
X0323000Y0249697D02*
X0393701Y0249697D01*
X0393701Y0249098D02*
X0323000Y0249098D01*
X0323000Y0248500D02*
X0393701Y0248500D01*
X0393701Y0247901D02*
X0323000Y0247901D01*
X0323000Y0247303D02*
X0393701Y0247303D01*
X0393701Y0246704D02*
X0323000Y0246704D01*
X0323000Y0246106D02*
X0393701Y0246106D01*
X0393701Y0245507D02*
X0323000Y0245507D01*
X0323000Y0244909D02*
X0393701Y0244909D01*
X0393701Y0244310D02*
X0323000Y0244310D01*
X0323000Y0243712D02*
X0393701Y0243712D01*
X0393701Y0243113D02*
X0323000Y0243113D01*
X0323000Y0242515D02*
X0393701Y0242515D01*
X0393701Y0241916D02*
X0323000Y0241916D01*
X0323000Y0241318D02*
X0393701Y0241318D01*
X0393701Y0240719D02*
X0323000Y0240719D01*
X0323000Y0240121D02*
X0393701Y0240121D01*
X0393701Y0239522D02*
X0323000Y0239522D01*
X0323000Y0238924D02*
X0393701Y0238924D01*
X0393701Y0238325D02*
X0323000Y0238325D01*
X0323000Y0237727D02*
X0393701Y0237727D01*
X0393701Y0237128D02*
X0323000Y0237128D01*
X0323000Y0236530D02*
X0393701Y0236530D01*
X0393701Y0235931D02*
X0323000Y0235931D01*
X0323000Y0235333D02*
X0393701Y0235333D01*
X0393701Y0234734D02*
X0323000Y0234734D01*
X0323000Y0234136D02*
X0393701Y0234136D01*
X0393701Y0233537D02*
X0323000Y0233537D01*
X0323000Y0232939D02*
X0393701Y0232939D01*
X0393701Y0232340D02*
X0323000Y0232340D01*
X0323000Y0231741D02*
X0393701Y0231741D01*
X0393701Y0231143D02*
X0323000Y0231143D01*
X0323000Y0230544D02*
X0393701Y0230544D01*
X0393701Y0229946D02*
X0323000Y0229946D01*
X0323000Y0229347D02*
X0393701Y0229347D01*
X0393701Y0228749D02*
X0323000Y0228749D01*
X0323000Y0228150D02*
X0393701Y0228150D01*
X0393701Y0227552D02*
X0323000Y0227552D01*
X0323000Y0226953D02*
X0393701Y0226953D01*
X0393701Y0226355D02*
X0323000Y0226355D01*
X0323000Y0225756D02*
X0393701Y0225756D01*
X0393701Y0225158D02*
X0323000Y0225158D01*
X0323000Y0224559D02*
X0393701Y0224559D01*
X0393701Y0223961D02*
X0323000Y0223961D01*
X0323000Y0223362D02*
X0393701Y0223362D01*
X0393701Y0222764D02*
X0323000Y0222764D01*
X0323000Y0222165D02*
X0393701Y0222165D01*
X0393701Y0221567D02*
X0323000Y0221567D01*
X0323000Y0220968D02*
X0393701Y0220968D01*
X0393701Y0220370D02*
X0323000Y0220370D01*
X0323000Y0219771D02*
X0393701Y0219771D01*
X0393701Y0219173D02*
X0323000Y0219173D01*
X0323000Y0218574D02*
X0393701Y0218574D01*
X0393701Y0217976D02*
X0323000Y0217976D01*
X0323000Y0217377D02*
X0393701Y0217377D01*
X0393701Y0216779D02*
X0323000Y0216779D01*
X0323000Y0216180D02*
X0393701Y0216180D01*
X0393701Y0215582D02*
X0323000Y0215582D01*
X0323000Y0214983D02*
X0393701Y0214983D01*
X0393701Y0214385D02*
X0323000Y0214385D01*
X0323000Y0213786D02*
X0393701Y0213786D01*
X0393701Y0213188D02*
X0323000Y0213188D01*
X0323000Y0212589D02*
X0393701Y0212589D01*
X0393701Y0211991D02*
X0323000Y0211991D01*
X0323000Y0211392D02*
X0393701Y0211392D01*
X0393701Y0210794D02*
X0323000Y0210794D01*
X0323000Y0210195D02*
X0393701Y0210195D01*
X0393701Y0209597D02*
X0323000Y0209597D01*
X0323000Y0208998D02*
X0393701Y0208998D01*
X0393701Y0208400D02*
X0323000Y0208400D01*
X0323000Y0207801D02*
X0393701Y0207801D01*
X0393701Y0207203D02*
X0323000Y0207203D01*
X0323000Y0206604D02*
X0393701Y0206604D01*
X0393701Y0206005D02*
X0323000Y0206005D01*
X0323000Y0205407D02*
X0393701Y0205407D01*
X0393701Y0204808D02*
X0323000Y0204808D01*
X0323000Y0204210D02*
X0393701Y0204210D01*
X0393701Y0203611D02*
X0323000Y0203611D01*
X0323000Y0203013D02*
X0393701Y0203013D01*
X0393701Y0202414D02*
X0323000Y0202414D01*
X0323000Y0201816D02*
X0393701Y0201816D01*
X0393701Y0201217D02*
X0323000Y0201217D01*
X0323000Y0200619D02*
X0393701Y0200619D01*
X0393701Y0200020D02*
X0323000Y0200020D01*
X0323000Y0199422D02*
X0393701Y0199422D01*
X0393701Y0198823D02*
X0323000Y0198823D01*
X0323000Y0198225D02*
X0393701Y0198225D01*
X0393701Y0197626D02*
X0323000Y0197626D01*
X0323000Y0197028D02*
X0393701Y0197028D01*
X0393701Y0196429D02*
X0323000Y0196429D01*
X0323000Y0195831D02*
X0393701Y0195831D01*
X0393701Y0195232D02*
X0323000Y0195232D01*
X0323000Y0194634D02*
X0393701Y0194634D01*
X0393701Y0194035D02*
X0323000Y0194035D01*
X0323000Y0193437D02*
X0393701Y0193437D01*
X0393701Y0192838D02*
X0323000Y0192838D01*
X0323000Y0192240D02*
X0393701Y0192240D01*
X0393701Y0191641D02*
X0323000Y0191641D01*
X0322484Y0191043D02*
X0393701Y0191043D01*
X0393701Y0190444D02*
X0321886Y0190444D01*
X0321287Y0189846D02*
X0393701Y0189846D01*
X0393701Y0189247D02*
X0320689Y0189247D01*
X0320090Y0188649D02*
X0393701Y0188649D01*
X0393701Y0188050D02*
X0319492Y0188050D01*
X0318893Y0187452D02*
X0393701Y0187452D01*
X0393701Y0186853D02*
X0318295Y0186853D01*
X0317696Y0186255D02*
X0393701Y0186255D01*
X0393701Y0185656D02*
X0317098Y0185656D01*
X0316499Y0185058D02*
X0393701Y0185058D01*
X0393701Y0184459D02*
X0315901Y0184459D01*
X0315302Y0183861D02*
X0393701Y0183861D01*
X0393701Y0183262D02*
X0314704Y0183262D01*
X0314105Y0182664D02*
X0393701Y0182664D01*
X0393701Y0182065D02*
X0313507Y0182065D01*
X0312908Y0181467D02*
X0393701Y0181467D01*
X0393701Y0180868D02*
X0312310Y0180868D01*
X0311711Y0180270D02*
X0393701Y0180270D01*
X0393701Y0179671D02*
X0311113Y0179671D01*
X0310514Y0179072D02*
X0393701Y0179072D01*
X0393701Y0178474D02*
X0309916Y0178474D01*
X0309317Y0177875D02*
X0393701Y0177875D01*
X0393701Y0177277D02*
X0308719Y0177277D01*
X0308120Y0176678D02*
X0393701Y0176678D01*
X0393701Y0176080D02*
X0307522Y0176080D01*
X0306923Y0175481D02*
X0393701Y0175481D01*
X0393701Y0174883D02*
X0306325Y0174883D01*
X0305726Y0174284D02*
X0393701Y0174284D01*
X0393701Y0173686D02*
X0305128Y0173686D01*
X0304529Y0173087D02*
X0393701Y0173087D01*
X0393701Y0172489D02*
X0303930Y0172489D01*
X0303332Y0171890D02*
X0393701Y0171890D01*
X0393701Y0171292D02*
X0302733Y0171292D01*
X0302135Y0170693D02*
X0393701Y0170693D01*
X0393701Y0170095D02*
X0301536Y0170095D01*
X0300938Y0169496D02*
X0393701Y0169496D01*
X0393701Y0168898D02*
X0300339Y0168898D01*
X0299741Y0168299D02*
X0393701Y0168299D01*
X0393701Y0167701D02*
X0299142Y0167701D01*
X0298544Y0167102D02*
X0393701Y0167102D01*
X0393701Y0166504D02*
X0297945Y0166504D01*
X0297347Y0165905D02*
X0393701Y0165905D01*
X0393701Y0165307D02*
X0296748Y0165307D01*
X0296150Y0164708D02*
X0393701Y0164708D01*
X0393701Y0164110D02*
X0295551Y0164110D01*
X0294953Y0163511D02*
X0393701Y0163511D01*
X0393701Y0162913D02*
X0294354Y0162913D01*
X0293756Y0162314D02*
X0393701Y0162314D01*
X0393701Y0161716D02*
X0293157Y0161716D01*
X0292559Y0161117D02*
X0393701Y0161117D01*
X0393701Y0160519D02*
X0291960Y0160519D01*
X0291362Y0159920D02*
X0393701Y0159920D01*
X0393701Y0159322D02*
X0290763Y0159322D01*
X0290165Y0158723D02*
X0393701Y0158723D01*
X0393701Y0158125D02*
X0289566Y0158125D01*
X0288968Y0157526D02*
X0393701Y0157526D01*
X0393701Y0156928D02*
X0288369Y0156928D01*
X0287771Y0156329D02*
X0393701Y0156329D01*
X0393701Y0155731D02*
X0287172Y0155731D01*
X0286574Y0155132D02*
X0393701Y0155132D01*
X0393701Y0154534D02*
X0285975Y0154534D01*
X0285377Y0153935D02*
X0393701Y0153935D01*
X0393701Y0153337D02*
X0284778Y0153337D01*
X0284180Y0152738D02*
X0393701Y0152738D01*
X0393701Y0152139D02*
X0283581Y0152139D01*
X0282983Y0151541D02*
X0393701Y0151541D01*
X0393701Y0150942D02*
X0282384Y0150942D01*
X0281786Y0150344D02*
X0393701Y0150344D01*
X0393701Y0149745D02*
X0281187Y0149745D01*
X0280589Y0149147D02*
X0393701Y0149147D01*
X0393701Y0148548D02*
X0279990Y0148548D01*
X0279392Y0147950D02*
X0393701Y0147950D01*
X0393701Y0147351D02*
X0278793Y0147351D01*
X0278195Y0146753D02*
X0393701Y0146753D01*
X0393701Y0146154D02*
X0277596Y0146154D01*
X0276997Y0145556D02*
X0393701Y0145556D01*
X0393701Y0144957D02*
X0276399Y0144957D01*
X0275800Y0144359D02*
X0393701Y0144359D01*
X0393701Y0143760D02*
X0275202Y0143760D01*
X0274603Y0143162D02*
X0393701Y0143162D01*
X0393701Y0142563D02*
X0274005Y0142563D01*
X0273406Y0141965D02*
X0393701Y0141965D01*
X0393701Y0141366D02*
X0273000Y0141366D01*
X0273000Y0140768D02*
X0393701Y0140768D01*
X0393701Y0140169D02*
X0273000Y0140169D01*
X0273000Y0139571D02*
X0393701Y0139571D01*
X0393701Y0138972D02*
X0273000Y0138972D01*
X0273000Y0138374D02*
X0393701Y0138374D01*
X0393701Y0137775D02*
X0273000Y0137775D01*
X0273000Y0137177D02*
X0393701Y0137177D01*
X0393701Y0136578D02*
X0273000Y0136578D01*
X0273000Y0135980D02*
X0393701Y0135980D01*
X0393701Y0135381D02*
X0273000Y0135381D01*
X0273000Y0134783D02*
X0393701Y0134783D01*
X0393701Y0134184D02*
X0273000Y0134184D01*
X0273000Y0133586D02*
X0393701Y0133586D01*
X0393701Y0132987D02*
X0273000Y0132987D01*
X0273000Y0132389D02*
X0393701Y0132389D01*
X0393701Y0131790D02*
X0273000Y0131790D01*
X0273000Y0131192D02*
X0393701Y0131192D01*
X0393701Y0130593D02*
X0273000Y0130593D01*
X0273000Y0129995D02*
X0393701Y0129995D01*
X0393701Y0129396D02*
X0273000Y0129396D01*
X0273000Y0128798D02*
X0393701Y0128798D01*
X0393701Y0128199D02*
X0273000Y0128199D01*
X0273000Y0127601D02*
X0393701Y0127601D01*
X0393701Y0127002D02*
X0273000Y0127002D01*
X0273000Y0126403D02*
X0393701Y0126403D01*
X0393701Y0125805D02*
X0273000Y0125805D01*
X0273000Y0125206D02*
X0393701Y0125206D01*
X0393701Y0124608D02*
X0273000Y0124608D01*
X0273000Y0124009D02*
X0393701Y0124009D01*
X0393701Y0123411D02*
X0273000Y0123411D01*
X0273000Y0122812D02*
X0393701Y0122812D01*
X0393701Y0122214D02*
X0273000Y0122214D01*
X0273000Y0121615D02*
X0393701Y0121615D01*
X0393701Y0121017D02*
X0273000Y0121017D01*
X0273000Y0120418D02*
X0393701Y0120418D01*
X0393701Y0119820D02*
X0273000Y0119820D01*
X0273000Y0119221D02*
X0393701Y0119221D01*
X0393701Y0118623D02*
X0273000Y0118623D01*
X0273000Y0118024D02*
X0393701Y0118024D01*
X0393701Y0117426D02*
X0273000Y0117426D01*
X0273000Y0116827D02*
X0393701Y0116827D01*
X0393701Y0116229D02*
X0273000Y0116229D01*
X0273000Y0115630D02*
X0393701Y0115630D01*
X0393701Y0115032D02*
X0273000Y0115032D01*
X0273000Y0114433D02*
X0393701Y0114433D01*
X0393701Y0113835D02*
X0273000Y0113835D01*
X0269600Y0113835D02*
X0253000Y0113835D01*
X0253000Y0114433D02*
X0269600Y0114433D01*
X0269600Y0115032D02*
X0253000Y0115032D01*
X0253000Y0115630D02*
X0269600Y0115630D01*
X0269600Y0116229D02*
X0253000Y0116229D01*
X0253000Y0116827D02*
X0269600Y0116827D01*
X0269600Y0117426D02*
X0253000Y0117426D01*
X0253000Y0118024D02*
X0269600Y0118024D01*
X0269600Y0118623D02*
X0253000Y0118623D01*
X0253000Y0119221D02*
X0269600Y0119221D01*
X0269600Y0119820D02*
X0253000Y0119820D01*
X0253000Y0120418D02*
X0269600Y0120418D01*
X0269600Y0121017D02*
X0253000Y0121017D01*
X0254406Y0121615D02*
X0269600Y0121615D01*
X0269600Y0122214D02*
X0254562Y0122214D01*
X0254562Y0122812D02*
X0269600Y0122812D01*
X0269600Y0123411D02*
X0254562Y0123411D01*
X0254562Y0124009D02*
X0269600Y0124009D01*
X0269600Y0124608D02*
X0254562Y0124608D01*
X0254562Y0125206D02*
X0269600Y0125206D01*
X0269178Y0113236D02*
X0253000Y0113236D01*
X0253000Y0112638D02*
X0269111Y0112638D01*
X0269111Y0112039D02*
X0253000Y0112039D01*
X0253000Y0111441D02*
X0269111Y0111441D01*
X0269600Y0110842D02*
X0253000Y0110842D01*
X0253000Y0110244D02*
X0269600Y0110244D01*
X0269600Y0109645D02*
X0253000Y0109645D01*
X0253000Y0109047D02*
X0269600Y0109047D01*
X0269600Y0108448D02*
X0253210Y0108448D01*
X0253489Y0107850D02*
X0269600Y0107850D01*
X0269600Y0107251D02*
X0253489Y0107251D01*
X0253489Y0106653D02*
X0269600Y0106653D01*
X0269600Y0106054D02*
X0253187Y0106054D01*
X0252589Y0105456D02*
X0269600Y0105456D01*
X0269111Y0096478D02*
X0235558Y0096478D01*
X0236156Y0095879D02*
X0269587Y0095879D01*
X0236961Y0097675D02*
X0230205Y0097675D01*
X0230804Y0098273D02*
X0236363Y0098273D01*
X0235764Y0098872D02*
X0231402Y0098872D01*
X0232001Y0099470D02*
X0235166Y0099470D01*
X0235083Y0100069D02*
X0232083Y0100069D01*
X0232083Y0100668D02*
X0235083Y0100668D01*
X0235083Y0101266D02*
X0232083Y0101266D01*
X0232083Y0101865D02*
X0235083Y0101865D01*
X0235094Y0102463D02*
X0232073Y0102463D01*
X0231474Y0103062D02*
X0235693Y0103062D01*
X0236291Y0103660D02*
X0230876Y0103660D01*
X0230277Y0104259D02*
X0236890Y0104259D01*
X0230083Y0094084D02*
X0222574Y0094084D01*
X0223173Y0093485D02*
X0230083Y0093485D01*
X0230083Y0092887D02*
X0223489Y0092887D01*
X0223489Y0092288D02*
X0230083Y0092288D01*
X0230447Y0091690D02*
X0223489Y0091690D01*
X0223224Y0091091D02*
X0231045Y0091091D01*
X0223310Y0068348D02*
X0317250Y0068348D01*
X0317250Y0067749D02*
X0223489Y0067749D01*
X0223489Y0067151D02*
X0317250Y0067151D01*
X0317250Y0062961D02*
X0223489Y0062961D01*
X0182283Y0062961D02*
X0098489Y0062961D01*
X0098489Y0062363D02*
X0317250Y0062363D01*
X0317250Y0061764D02*
X0098489Y0061764D01*
X0098299Y0061166D02*
X0317424Y0061166D01*
X0317250Y0055779D02*
X0275188Y0055779D01*
X0275786Y0055181D02*
X0317250Y0055181D01*
X0317250Y0054582D02*
X0276385Y0054582D01*
X0276983Y0053984D02*
X0317250Y0053984D01*
X0317250Y0053385D02*
X0277582Y0053385D01*
X0278000Y0052787D02*
X0317250Y0052787D01*
X0317250Y0052188D02*
X0278000Y0052188D01*
X0278000Y0051590D02*
X0317250Y0051590D01*
X0317250Y0050991D02*
X0278000Y0050991D01*
X0278000Y0050393D02*
X0317250Y0050393D01*
X0317250Y0049794D02*
X0278000Y0049794D01*
X0278000Y0049196D02*
X0317250Y0049196D01*
X0325325Y0043210D02*
X0367316Y0043210D01*
X0367316Y0042612D02*
X0325350Y0042612D01*
X0325350Y0042013D02*
X0367316Y0042013D01*
X0367316Y0041415D02*
X0325350Y0041415D01*
X0325350Y0040816D02*
X0367316Y0040816D01*
X0367373Y0040218D02*
X0325350Y0040218D01*
X0325350Y0039619D02*
X0367621Y0039619D01*
X0367869Y0039021D02*
X0325350Y0039021D01*
X0325350Y0038422D02*
X0368117Y0038422D01*
X0368365Y0037824D02*
X0325350Y0037824D01*
X0325350Y0037225D02*
X0368724Y0037225D01*
X0368534Y0037416D02*
X0368534Y0037416D01*
X0369323Y0036627D02*
X0325350Y0036627D01*
X0325239Y0036028D02*
X0369921Y0036028D01*
X0373036Y0034233D02*
X0023265Y0034233D01*
X0026379Y0036028D02*
X0124439Y0036028D01*
X0124111Y0036627D02*
X0026978Y0036627D01*
X0027576Y0037225D02*
X0124111Y0037225D01*
X0124111Y0037824D02*
X0027936Y0037824D01*
X0027767Y0037416D02*
X0027767Y0037416D01*
X0027767Y0037416D01*
X0028184Y0038422D02*
X0124364Y0038422D01*
X0124600Y0039021D02*
X0028432Y0039021D01*
X0028680Y0039619D02*
X0124600Y0039619D01*
X0124600Y0040218D02*
X0028928Y0040218D01*
X0028985Y0040816D02*
X0124600Y0040816D01*
X0124600Y0041415D02*
X0028985Y0041415D01*
X0028985Y0042013D02*
X0124600Y0042013D01*
X0124600Y0042612D02*
X0028985Y0042612D01*
X0028985Y0043210D02*
X0124600Y0043210D01*
X0124600Y0043809D02*
X0028873Y0043809D01*
X0029069Y0044407D02*
X0124600Y0044407D01*
X0124600Y0045006D02*
X0029820Y0045006D01*
X0030570Y0045604D02*
X0124600Y0045604D01*
X0124600Y0046203D02*
X0031321Y0046203D01*
X0032071Y0046801D02*
X0124600Y0046801D01*
X0124600Y0047400D02*
X0032822Y0047400D01*
X0033572Y0047999D02*
X0124600Y0047999D01*
X0124600Y0048597D02*
X0034323Y0048597D01*
X0035073Y0049196D02*
X0124600Y0049196D01*
X0124600Y0049794D02*
X0035824Y0049794D01*
X0036574Y0050393D02*
X0124600Y0050393D01*
X0124600Y0050991D02*
X0037325Y0050991D01*
X0038075Y0051590D02*
X0124600Y0051590D01*
X0124600Y0052188D02*
X0038826Y0052188D01*
X0039576Y0052787D02*
X0124600Y0052787D01*
X0124600Y0053385D02*
X0040327Y0053385D01*
X0041077Y0053984D02*
X0124600Y0053984D01*
X0124600Y0054582D02*
X0041828Y0054582D01*
X0042578Y0055181D02*
X0124600Y0055181D01*
X0124600Y0055779D02*
X0043329Y0055779D01*
X0044079Y0056378D02*
X0124111Y0056378D01*
X0124111Y0056976D02*
X0044830Y0056976D01*
X0045580Y0057575D02*
X0124111Y0057575D01*
X0124115Y0058173D02*
X0046331Y0058173D01*
X0047081Y0058772D02*
X0124714Y0058772D01*
X0125312Y0059370D02*
X0047832Y0059370D01*
X0048582Y0059969D02*
X0393701Y0059969D01*
X0393701Y0060567D02*
X0097700Y0060567D01*
X0094900Y0060567D02*
X0049333Y0060567D01*
X0050083Y0061166D02*
X0094301Y0061166D01*
X0094111Y0061764D02*
X0050834Y0061764D01*
X0051584Y0062363D02*
X0094111Y0062363D01*
X0094111Y0062961D02*
X0052335Y0062961D01*
X0053085Y0063560D02*
X0094502Y0063560D01*
X0094600Y0064158D02*
X0053836Y0064158D01*
X0054587Y0064757D02*
X0094600Y0064757D01*
X0094600Y0065355D02*
X0055337Y0065355D01*
X0056088Y0065954D02*
X0094600Y0065954D01*
X0094600Y0066552D02*
X0056838Y0066552D01*
X0057589Y0067151D02*
X0094600Y0067151D01*
X0094600Y0067749D02*
X0058339Y0067749D01*
X0059090Y0068348D02*
X0094600Y0068348D01*
X0094600Y0068946D02*
X0059840Y0068946D01*
X0060591Y0069545D02*
X0094600Y0069545D01*
X0094600Y0070143D02*
X0061341Y0070143D01*
X0062092Y0070742D02*
X0094600Y0070742D01*
X0094600Y0071340D02*
X0062842Y0071340D01*
X0063593Y0071939D02*
X0094600Y0071939D01*
X0094600Y0072537D02*
X0064343Y0072537D01*
X0065094Y0073136D02*
X0094600Y0073136D01*
X0094600Y0073734D02*
X0065844Y0073734D01*
X0066595Y0074333D02*
X0094600Y0074333D01*
X0094600Y0074932D02*
X0067345Y0074932D01*
X0068096Y0075530D02*
X0094600Y0075530D01*
X0094600Y0076129D02*
X0068846Y0076129D01*
X0069597Y0076727D02*
X0094600Y0076727D01*
X0094600Y0077326D02*
X0070347Y0077326D01*
X0071098Y0077924D02*
X0094600Y0077924D01*
X0094600Y0078523D02*
X0071848Y0078523D01*
X0072599Y0079121D02*
X0094600Y0079121D01*
X0094600Y0079720D02*
X0073349Y0079720D01*
X0074100Y0080318D02*
X0094600Y0080318D01*
X0094600Y0080917D02*
X0074850Y0080917D01*
X0075601Y0081515D02*
X0094600Y0081515D01*
X0094600Y0082114D02*
X0076351Y0082114D01*
X0077102Y0082712D02*
X0094600Y0082712D01*
X0094600Y0083311D02*
X0077852Y0083311D01*
X0078603Y0083909D02*
X0094600Y0083909D01*
X0094600Y0084508D02*
X0079353Y0084508D01*
X0080104Y0085106D02*
X0094600Y0085106D01*
X0094600Y0085705D02*
X0080855Y0085705D01*
X0081605Y0086303D02*
X0094600Y0086303D01*
X0094600Y0086902D02*
X0082356Y0086902D01*
X0083106Y0087500D02*
X0094600Y0087500D01*
X0094600Y0088099D02*
X0083857Y0088099D01*
X0084607Y0088697D02*
X0094600Y0088697D01*
X0094600Y0089296D02*
X0085358Y0089296D01*
X0086108Y0089894D02*
X0094600Y0089894D01*
X0094600Y0090493D02*
X0086859Y0090493D01*
X0087609Y0091091D02*
X0094600Y0091091D01*
X0094295Y0091690D02*
X0088360Y0091690D01*
X0089110Y0092288D02*
X0093546Y0092288D01*
X0092798Y0092887D02*
X0089861Y0092887D01*
X0090611Y0093485D02*
X0092050Y0093485D01*
X0094500Y0095879D02*
X0118192Y0095879D01*
X0118791Y0095281D02*
X0095248Y0095281D01*
X0095996Y0094682D02*
X0119389Y0094682D01*
X0119988Y0094084D02*
X0096745Y0094084D01*
X0097493Y0093485D02*
X0120586Y0093485D01*
X0121185Y0092887D02*
X0098000Y0092887D01*
X0098008Y0092288D02*
X0121783Y0092288D01*
X0122382Y0091690D02*
X0098019Y0091690D01*
X0098000Y0091091D02*
X0122980Y0091091D01*
X0123579Y0090493D02*
X0098000Y0090493D01*
X0098000Y0089894D02*
X0124177Y0089894D01*
X0124776Y0089296D02*
X0098000Y0089296D01*
X0098000Y0088697D02*
X0125374Y0088697D01*
X0125973Y0088099D02*
X0098000Y0088099D01*
X0098000Y0087500D02*
X0126571Y0087500D01*
X0127170Y0086902D02*
X0098000Y0086902D01*
X0098000Y0086303D02*
X0127769Y0086303D01*
X0128367Y0085705D02*
X0098000Y0085705D01*
X0098000Y0085106D02*
X0128966Y0085106D01*
X0129564Y0084508D02*
X0098000Y0084508D01*
X0098000Y0083909D02*
X0130163Y0083909D01*
X0130761Y0083311D02*
X0098000Y0083311D01*
X0098000Y0082712D02*
X0131360Y0082712D01*
X0131958Y0082114D02*
X0098000Y0082114D01*
X0098000Y0081515D02*
X0132557Y0081515D01*
X0132969Y0080917D02*
X0098000Y0080917D01*
X0098000Y0080318D02*
X0133062Y0080318D01*
X0133661Y0079720D02*
X0098000Y0079720D01*
X0094364Y0096478D02*
X0117594Y0096478D01*
X0116995Y0097076D02*
X0095114Y0097076D01*
X0095865Y0097675D02*
X0116397Y0097675D01*
X0115798Y0098273D02*
X0096615Y0098273D01*
X0097366Y0098872D02*
X0115200Y0098872D01*
X0114601Y0099470D02*
X0098116Y0099470D01*
X0098867Y0100069D02*
X0114003Y0100069D01*
X0113404Y0100668D02*
X0099617Y0100668D01*
X0100368Y0101266D02*
X0112806Y0101266D01*
X0112207Y0101865D02*
X0101118Y0101865D01*
X0101869Y0102463D02*
X0111609Y0102463D01*
X0111010Y0103062D02*
X0102619Y0103062D01*
X0103370Y0103660D02*
X0110412Y0103660D01*
X0109813Y0104259D02*
X0104120Y0104259D01*
X0104871Y0104857D02*
X0109215Y0104857D01*
X0108616Y0105456D02*
X0105621Y0105456D01*
X0106372Y0106054D02*
X0108018Y0106054D01*
X0107419Y0106653D02*
X0107123Y0106653D01*
X0121382Y0118024D02*
X0184012Y0118024D01*
X0182934Y0118623D02*
X0122133Y0118623D01*
X0122883Y0119221D02*
X0182336Y0119221D01*
X0181833Y0119820D02*
X0123634Y0119820D01*
X0124384Y0120418D02*
X0181585Y0120418D01*
X0181337Y0121017D02*
X0125135Y0121017D01*
X0125885Y0121615D02*
X0181200Y0121615D01*
X0181200Y0122214D02*
X0126636Y0122214D01*
X0127386Y0122812D02*
X0181200Y0122812D01*
X0181297Y0123411D02*
X0128137Y0123411D01*
X0128887Y0124009D02*
X0181545Y0124009D01*
X0181793Y0124608D02*
X0129638Y0124608D01*
X0130388Y0125206D02*
X0182239Y0125206D01*
X0182837Y0125805D02*
X0131139Y0125805D01*
X0131889Y0126403D02*
X0183777Y0126403D01*
X0183590Y0128199D02*
X0134141Y0128199D01*
X0133390Y0127601D02*
X0188734Y0127601D01*
X0189332Y0128199D02*
X0188010Y0128199D01*
X0188840Y0128798D02*
X0189931Y0128798D01*
X0189439Y0129396D02*
X0190529Y0129396D01*
X0191128Y0129995D02*
X0189840Y0129995D01*
X0190087Y0130593D02*
X0191726Y0130593D01*
X0192325Y0131192D02*
X0190335Y0131192D01*
X0190400Y0131790D02*
X0192923Y0131790D01*
X0187712Y0136578D02*
X0187401Y0136578D01*
X0184199Y0136578D02*
X0150388Y0136578D01*
X0150987Y0135980D02*
X0183012Y0135980D01*
X0182413Y0135381D02*
X0151586Y0135381D01*
X0152184Y0134783D02*
X0181865Y0134783D01*
X0181617Y0134184D02*
X0152783Y0134184D01*
X0150368Y0131790D02*
X0144255Y0131790D01*
X0144503Y0132389D02*
X0149770Y0132389D01*
X0149171Y0132987D02*
X0144751Y0132987D01*
X0144900Y0133586D02*
X0148573Y0133586D01*
X0147974Y0134184D02*
X0144900Y0134184D01*
X0144900Y0134783D02*
X0147376Y0134783D01*
X0146777Y0135381D02*
X0144816Y0135381D01*
X0144568Y0135980D02*
X0146179Y0135980D01*
X0145580Y0136578D02*
X0144648Y0136578D01*
X0143734Y0131192D02*
X0150967Y0131192D01*
X0151565Y0130593D02*
X0143136Y0130593D01*
X0142017Y0129995D02*
X0181760Y0129995D01*
X0182161Y0129396D02*
X0135642Y0129396D01*
X0134892Y0128798D02*
X0182760Y0128798D01*
X0188135Y0127002D02*
X0132640Y0127002D01*
X0136393Y0129995D02*
X0138583Y0129995D01*
X0137464Y0130593D02*
X0137143Y0130593D01*
X0098098Y0063560D02*
X0181684Y0063560D01*
X0128485Y0058173D02*
X0269115Y0058173D01*
X0269111Y0057575D02*
X0128489Y0057575D01*
X0128489Y0056976D02*
X0269111Y0056976D01*
X0269111Y0056378D02*
X0128489Y0056378D01*
X0128000Y0055779D02*
X0269688Y0055779D01*
X0270286Y0055181D02*
X0128000Y0055181D01*
X0128000Y0054582D02*
X0271576Y0054582D01*
X0272175Y0053984D02*
X0128000Y0053984D01*
X0128000Y0053385D02*
X0272773Y0053385D01*
X0273372Y0052787D02*
X0128000Y0052787D01*
X0128000Y0052188D02*
X0273970Y0052188D01*
X0274569Y0051590D02*
X0128000Y0051590D01*
X0128000Y0050991D02*
X0274600Y0050991D01*
X0274600Y0050393D02*
X0128000Y0050393D01*
X0128000Y0049794D02*
X0274600Y0049794D01*
X0274600Y0049196D02*
X0128000Y0049196D01*
X0128000Y0048597D02*
X0274600Y0048597D01*
X0274600Y0047999D02*
X0128000Y0047999D01*
X0128000Y0047400D02*
X0274600Y0047400D01*
X0274600Y0046801D02*
X0128000Y0046801D01*
X0128000Y0046203D02*
X0274600Y0046203D01*
X0274600Y0045604D02*
X0128000Y0045604D01*
X0128000Y0045006D02*
X0274600Y0045006D01*
X0274600Y0044407D02*
X0128000Y0044407D01*
X0128000Y0043809D02*
X0274600Y0043809D01*
X0274600Y0043210D02*
X0128000Y0043210D01*
X0128000Y0042612D02*
X0274600Y0042612D01*
X0274600Y0042013D02*
X0128000Y0042013D01*
X0128000Y0041415D02*
X0274600Y0041415D01*
X0274600Y0040816D02*
X0128000Y0040816D01*
X0128000Y0040218D02*
X0274600Y0040218D01*
X0274600Y0039619D02*
X0128000Y0039619D01*
X0128000Y0039021D02*
X0274600Y0039021D01*
X0274364Y0038422D02*
X0128236Y0038422D01*
X0128489Y0037824D02*
X0274111Y0037824D01*
X0278000Y0043809D02*
X0367428Y0043809D01*
X0367676Y0044407D02*
X0278000Y0044407D01*
X0278000Y0045006D02*
X0367923Y0045006D01*
X0368171Y0045604D02*
X0278000Y0045604D01*
X0278000Y0046203D02*
X0368419Y0046203D01*
X0368856Y0046801D02*
X0278000Y0046801D01*
X0278000Y0047400D02*
X0369454Y0047400D01*
X0377278Y0049794D02*
X0393701Y0049794D01*
X0393701Y0049196D02*
X0378723Y0049196D01*
X0379847Y0048730D02*
X0379847Y0048730D01*
X0379980Y0048597D02*
X0393701Y0048597D01*
X0393701Y0047999D02*
X0380578Y0047999D01*
X0381177Y0047400D02*
X0393701Y0047400D01*
X0393701Y0046801D02*
X0381776Y0046801D01*
X0382098Y0046479D02*
X0382098Y0046479D01*
X0382212Y0046203D02*
X0393701Y0046203D01*
X0393701Y0045604D02*
X0382460Y0045604D01*
X0382708Y0045006D02*
X0393701Y0045006D01*
X0393701Y0044407D02*
X0382956Y0044407D01*
X0383204Y0043809D02*
X0393701Y0043809D01*
X0393701Y0043210D02*
X0383316Y0043210D01*
X0383316Y0042612D02*
X0393701Y0042612D01*
X0393701Y0042013D02*
X0383316Y0042013D01*
X0383316Y0041415D02*
X0393701Y0041415D01*
X0393701Y0040816D02*
X0383316Y0040816D01*
X0383258Y0040218D02*
X0393701Y0040218D01*
X0393701Y0039619D02*
X0383010Y0039619D01*
X0382763Y0039021D02*
X0393701Y0039021D01*
X0393701Y0038422D02*
X0382515Y0038422D01*
X0382267Y0037824D02*
X0393701Y0037824D01*
X0393701Y0037225D02*
X0381907Y0037225D01*
X0382098Y0037416D02*
X0382098Y0037416D01*
X0381309Y0036627D02*
X0393701Y0036627D01*
X0393701Y0036028D02*
X0380710Y0036028D01*
X0380112Y0035430D02*
X0393701Y0035430D01*
X0393701Y0034831D02*
X0379040Y0034831D01*
X0379847Y0035165D02*
X0379847Y0035165D01*
X0377596Y0034233D02*
X0393701Y0034233D01*
X0393701Y0033634D02*
X0015560Y0033634D01*
X0016310Y0034233D02*
X0018705Y0034233D01*
X0017260Y0034831D02*
X0017061Y0034831D01*
X0014809Y0033036D02*
X0393701Y0033036D01*
X0393701Y0032437D02*
X0014059Y0032437D01*
X0013308Y0031839D02*
X0393701Y0031839D01*
X0393701Y0031240D02*
X0012558Y0031240D01*
X0011807Y0030642D02*
X0393701Y0030642D01*
X0393701Y0030043D02*
X0011057Y0030043D01*
X0010306Y0029445D02*
X0393701Y0029445D01*
X0393701Y0028846D02*
X0009556Y0028846D01*
X0008805Y0028248D02*
X0393701Y0028248D01*
X0393701Y0027649D02*
X0008055Y0027649D01*
X0007304Y0027051D02*
X0393701Y0027051D01*
X0393701Y0026452D02*
X0006554Y0026452D01*
X0005803Y0025854D02*
X0393701Y0025854D01*
X0393701Y0025255D02*
X0005053Y0025255D01*
X0004302Y0024657D02*
X0393701Y0024657D01*
X0393701Y0024058D02*
X0003552Y0024058D01*
X0127288Y0059370D02*
X0270312Y0059370D01*
X0269714Y0058772D02*
X0127886Y0058772D01*
X0272288Y0059370D02*
X0393701Y0059370D01*
X0393701Y0058772D02*
X0272886Y0058772D01*
X0273485Y0058173D02*
X0393701Y0058173D01*
X0393701Y0057575D02*
X0273489Y0057575D01*
X0273990Y0056976D02*
X0393701Y0056976D01*
X0393701Y0056378D02*
X0274589Y0056378D01*
X0271888Y0186255D02*
X0270975Y0186255D01*
X0280100Y0195232D02*
X0242091Y0195232D01*
X0242874Y0195831D02*
X0280100Y0195831D01*
X0280100Y0196429D02*
X0243472Y0196429D01*
X0243853Y0197028D02*
X0280100Y0197028D01*
X0280100Y0197626D02*
X0244101Y0197626D01*
X0244349Y0198225D02*
X0280100Y0198225D01*
X0280100Y0198823D02*
X0244400Y0198823D01*
X0244400Y0199422D02*
X0280100Y0199422D01*
X0280100Y0200020D02*
X0244400Y0200020D01*
X0244217Y0200619D02*
X0280100Y0200619D01*
X0280100Y0201217D02*
X0244159Y0201217D01*
X0244758Y0201816D02*
X0280100Y0201816D01*
X0280100Y0202414D02*
X0245356Y0202414D01*
X0245955Y0203013D02*
X0280100Y0203013D01*
X0280100Y0203611D02*
X0246553Y0203611D01*
X0247152Y0204210D02*
X0280100Y0204210D01*
X0280100Y0204808D02*
X0247750Y0204808D01*
X0248000Y0205407D02*
X0280100Y0205407D01*
X0280100Y0206005D02*
X0248000Y0206005D01*
X0248000Y0206604D02*
X0280100Y0206604D01*
X0280100Y0207203D02*
X0248000Y0207203D01*
X0248000Y0207801D02*
X0280100Y0207801D01*
X0280100Y0208400D02*
X0248000Y0208400D01*
X0248000Y0208998D02*
X0280100Y0208998D01*
X0280100Y0209597D02*
X0248000Y0209597D01*
X0248000Y0210195D02*
X0280100Y0210195D01*
X0280100Y0210794D02*
X0248000Y0210794D01*
X0248000Y0211392D02*
X0280100Y0211392D01*
X0280100Y0211991D02*
X0248000Y0211991D01*
X0248000Y0212589D02*
X0280100Y0212589D01*
X0279617Y0213188D02*
X0248483Y0213188D01*
X0249329Y0213786D02*
X0278771Y0213786D01*
X0278172Y0214385D02*
X0249928Y0214385D01*
X0250335Y0214983D02*
X0277765Y0214983D01*
X0277517Y0215582D02*
X0250583Y0215582D01*
X0250831Y0216180D02*
X0277269Y0216180D01*
X0277200Y0216779D02*
X0250900Y0216779D01*
X0250900Y0217377D02*
X0277200Y0217377D01*
X0277200Y0217976D02*
X0250900Y0217976D01*
X0250736Y0218574D02*
X0277364Y0218574D01*
X0277026Y0228749D02*
X0272718Y0228749D01*
X0272119Y0229347D02*
X0277251Y0229347D01*
X0277569Y0229946D02*
X0271521Y0229946D01*
X0271500Y0230544D02*
X0278011Y0230544D01*
X0278634Y0231143D02*
X0271500Y0231143D01*
X0271500Y0231741D02*
X0279577Y0231741D01*
X0310512Y0268849D02*
X0317250Y0268849D01*
X0317250Y0269448D02*
X0311262Y0269448D01*
X0312013Y0270046D02*
X0317250Y0270046D01*
X0317250Y0270645D02*
X0312763Y0270645D01*
X0313514Y0271243D02*
X0317250Y0271243D01*
X0317250Y0271842D02*
X0314264Y0271842D01*
X0315015Y0272440D02*
X0317250Y0272440D01*
X0317250Y0273039D02*
X0315765Y0273039D01*
X0316516Y0273637D02*
X0317250Y0273637D01*
X0325350Y0270046D02*
X0344129Y0270046D01*
X0344589Y0269448D02*
X0325350Y0269448D01*
X0325350Y0268849D02*
X0345050Y0268849D01*
X0345511Y0268251D02*
X0324861Y0268251D01*
X0338281Y0290994D02*
X0345984Y0290994D01*
X0345984Y0291593D02*
X0339031Y0291593D01*
X0339782Y0292191D02*
X0345984Y0292191D01*
X0345984Y0292790D02*
X0340532Y0292790D01*
X0341283Y0293388D02*
X0345984Y0293388D01*
X0345989Y0293987D02*
X0342033Y0293987D01*
X0342784Y0294585D02*
X0346238Y0294585D01*
X0345035Y0296381D02*
X0393701Y0296381D01*
X0393701Y0296979D02*
X0345786Y0296979D01*
X0346537Y0297578D02*
X0393701Y0297578D01*
X0393701Y0298176D02*
X0347287Y0298176D01*
X0348038Y0298775D02*
X0393701Y0298775D01*
X0393701Y0299373D02*
X0348788Y0299373D01*
X0349539Y0299972D02*
X0393701Y0299972D01*
X0393701Y0300570D02*
X0350289Y0300570D01*
X0351040Y0301169D02*
X0393701Y0301169D01*
X0393701Y0301767D02*
X0351790Y0301767D01*
X0352541Y0302366D02*
X0393701Y0302366D01*
X0393701Y0302964D02*
X0353291Y0302964D01*
X0354042Y0303563D02*
X0393701Y0303563D01*
X0393701Y0304161D02*
X0354792Y0304161D01*
X0355543Y0304760D02*
X0393701Y0304760D01*
X0393701Y0305358D02*
X0356293Y0305358D01*
X0357044Y0305957D02*
X0393701Y0305957D01*
X0393701Y0306555D02*
X0357794Y0306555D01*
X0358545Y0307154D02*
X0393701Y0307154D01*
X0393701Y0307752D02*
X0359295Y0307752D01*
X0360046Y0308351D02*
X0393701Y0308351D01*
X0393701Y0308949D02*
X0360796Y0308949D01*
X0361547Y0309548D02*
X0393701Y0309548D01*
X0393701Y0310146D02*
X0362297Y0310146D01*
X0363048Y0310745D02*
X0393701Y0310745D01*
X0393701Y0311343D02*
X0363798Y0311343D01*
X0364549Y0311942D02*
X0393701Y0311942D01*
X0393701Y0312541D02*
X0365299Y0312541D01*
X0366050Y0313139D02*
X0393701Y0313139D01*
X0393701Y0313738D02*
X0381478Y0313738D01*
X0382923Y0314336D02*
X0393701Y0314336D01*
X0393701Y0314935D02*
X0384026Y0314935D01*
X0384624Y0315533D02*
X0393701Y0315533D01*
X0393701Y0316132D02*
X0385223Y0316132D01*
X0385821Y0316730D02*
X0393701Y0316730D01*
X0393701Y0317329D02*
X0386194Y0317329D01*
X0386442Y0317927D02*
X0393701Y0317927D01*
X0393701Y0318526D02*
X0386690Y0318526D01*
X0386938Y0319124D02*
X0393701Y0319124D01*
X0393701Y0319723D02*
X0387186Y0319723D01*
X0387253Y0320321D02*
X0393701Y0320321D01*
X0393701Y0320920D02*
X0387253Y0320920D01*
X0387253Y0321518D02*
X0393701Y0321518D01*
X0393701Y0322117D02*
X0387253Y0322117D01*
X0387253Y0322715D02*
X0393701Y0322715D01*
X0393701Y0323314D02*
X0387150Y0323314D01*
X0386902Y0323912D02*
X0393701Y0323912D01*
X0393701Y0324511D02*
X0386654Y0324511D01*
X0386407Y0325109D02*
X0393701Y0325109D01*
X0393701Y0325708D02*
X0386159Y0325708D01*
X0386035Y0326007D02*
X0386035Y0326007D01*
X0385735Y0326306D02*
X0393701Y0326306D01*
X0393701Y0326905D02*
X0385137Y0326905D01*
X0384538Y0327503D02*
X0393701Y0327503D01*
X0393701Y0328102D02*
X0384813Y0328102D01*
X0385563Y0328700D02*
X0393701Y0328700D01*
X0393701Y0329299D02*
X0386314Y0329299D01*
X0387064Y0329897D02*
X0393701Y0329897D01*
X0393701Y0330496D02*
X0387815Y0330496D01*
X0388565Y0331094D02*
X0393701Y0331094D01*
X0393701Y0331693D02*
X0389316Y0331693D01*
X0390066Y0332291D02*
X0393701Y0332291D01*
X0393701Y0332890D02*
X0390817Y0332890D01*
X0391567Y0333488D02*
X0393701Y0333488D01*
X0393701Y0334087D02*
X0392318Y0334087D01*
X0393068Y0334685D02*
X0393701Y0334685D01*
X0372063Y0317927D02*
X0372054Y0317927D01*
X0372311Y0317329D02*
X0371303Y0317329D01*
X0370553Y0316730D02*
X0372684Y0316730D01*
X0372471Y0316943D02*
X0372471Y0316943D01*
X0373283Y0316132D02*
X0369802Y0316132D01*
X0369052Y0315533D02*
X0373881Y0315533D01*
X0374480Y0314935D02*
X0368301Y0314935D01*
X0367551Y0314336D02*
X0375583Y0314336D01*
X0377028Y0313738D02*
X0366800Y0313738D01*
X0356054Y0295009D02*
X0355723Y0295098D01*
X0351718Y0295098D01*
X0351718Y0289964D01*
X0356852Y0289964D01*
X0356852Y0293969D01*
X0356763Y0294300D01*
X0356592Y0294596D01*
X0356350Y0294838D01*
X0356054Y0295009D01*
X0356599Y0294585D02*
X0393701Y0294585D01*
X0393701Y0293987D02*
X0356847Y0293987D01*
X0356852Y0293388D02*
X0393701Y0293388D01*
X0393701Y0292790D02*
X0356852Y0292790D01*
X0356852Y0292191D02*
X0393701Y0292191D01*
X0393701Y0291593D02*
X0356852Y0291593D01*
X0356852Y0290994D02*
X0393701Y0290994D01*
X0393701Y0290396D02*
X0356852Y0290396D01*
X0351718Y0290396D02*
X0351118Y0290396D01*
X0351118Y0290994D02*
X0351718Y0290994D01*
X0351718Y0291593D02*
X0351118Y0291593D01*
X0351118Y0292191D02*
X0351718Y0292191D01*
X0351718Y0292790D02*
X0351118Y0292790D01*
X0351118Y0293388D02*
X0351718Y0293388D01*
X0351718Y0293987D02*
X0351118Y0293987D01*
X0351118Y0294585D02*
X0351718Y0294585D01*
X0351718Y0288600D02*
X0351118Y0288600D01*
X0351118Y0288002D02*
X0351718Y0288002D01*
X0351718Y0287403D02*
X0351118Y0287403D01*
X0351118Y0286805D02*
X0351718Y0286805D01*
X0351718Y0286206D02*
X0351118Y0286206D01*
X0351118Y0285608D02*
X0351718Y0285608D01*
X0351718Y0285009D02*
X0351118Y0285009D01*
X0351118Y0284410D02*
X0351718Y0284410D01*
X0356212Y0284410D02*
X0375406Y0284410D01*
X0376850Y0285009D02*
X0356752Y0285009D01*
X0356852Y0285608D02*
X0378295Y0285608D01*
X0393701Y0295184D02*
X0343534Y0295184D01*
X0344285Y0295782D02*
X0393701Y0295782D01*
M02*
